<svg id="Layer_1" data-name="Layer 1" xmlns="http://www.w3.org/2000/svg" viewBox="0 0 703.689 364.83">
<style>
                    path, polyline, polygon, line, circle {
                        stroke: #3b82f6 !important;
                        stroke-width: 3.5px !important;
                        fill: none !important;
                        stroke-linecap: round !important;
                        stroke-linejoin: round !important;
                        filter: drop-shadow(0px 0px 5px #3b82f6) !important;
                    }
                </style>

<title>wec_imola_6h</title><polyline points="257.679 320.977 270.091 321.154 347.518 337.836 375.156 340.774 391.261 340.953 472.064 333.764 511.757 324.392 516.694 321.136 519.057 318.217 519.755 315.508 522.669 302.854 524.82 298.834 529.757 295.408 566.278 276.849 571.73 270.757 630.731 124.761 631.43 120.867 631.342 116.126 625.119 93.434 625.122 89.837 627.153 85.436 629.425 82.432 699.21 22.792 701.21 19.365 701.939 15.301 701.064 10.941 698.494 5.733 695.166 2.895 691.382 1.75 685.57 1.831 573.097 16.365 560.291 17.246 541.371 16.177 527.659 14.179 508.983 10.612 489.822 7.087 479.894 5.134 473.627 6.4 468.872 8.767 462.723 14.732 456.541 25.902 447.051 49.558 444.835 59.927 444.131 71.694 445.97 83.674 459.644 148.614 459.46 152.677 457.52 157.332 449.52 169.898 439.066 186.146 436.007 187.71 431.951 188.131 429.136 186.902 413.67 180.67 408.918 180.032 246.745 180.991 244.657 180.101 242.632 175.274 241.121 171.04 239.366 169.981 235.945 169.894 171.175 196.521 162.998 201.088 136.014 219.696 120.566 233.739 105.602 248.756 69.071 284.544 61.681 289.788 53.656 293.719 5.873 314.897 2.268 318.408 1.75 323.952 2.716 328.355 17.107 358.84 20.466 361.72 24.158 362.866 29.335 363.08 33.483 362.025 97.707 337.683 120.507 328.893 132.922 324.414 143.731 321.965 151.028 320.658 257.679 320.977"   stroke-linecap="round" stroke-linejoin="round" /></svg>