<svg id="Layer_1" data-name="Layer 1" xmlns="http://www.w3.org/2000/svg" viewBox="0 0 392 165.062">
<style>
                    path, polyline, polygon, line, circle {
                        stroke: #ec4899 !important;
                        stroke-width: 3.5px !important;
                        fill: none !important;
                        stroke-linecap: round !important;
                        stroke-linejoin: round !important;
                        filter: drop-shadow(0px 0px 5px #ec4899) !important;
                    }
                </style>

<title>worldsbk_portimao</title><polyline points="151.065 162.521 48.014 163.187 23.576 162.977 20.671 162.39 18.453 160.178 16.366 156.453 15.088 152.123 7.006 130.886 1.903 116.163 1.875 111.651 3.009 108.454 23.881 71.681 26.468 70.091 28.902 69.829 31.018 70.162 33.325 71.534 35.049 74.559 41.919 100.85 43.787 105.08 47.103 109.095 49.339 110.715 53.184 113.001 59.964 114.452 223.128 114.209 230.521 113.896 233.713 111.762 234.653 108.719 233.837 105.266 231.463 102.682 225.774 100.557 182.818 83.27 174.162 80.122 163.609 78.374 155.908 78.45 148.688 79.469 100.878 89.523 95.948 89.344 91.072 87.39 87.118 84.566 82.933 79.26 67.75 56.779 67.451 54.009 67.801 51.067 69.841 47.054 73.171 44.303 76.561 43.448 171.576 56.154 175.901 56.489 181.6 55.813 186.2 54.914 192.663 51.682 199.206 46.325 234.837 8.232 239.474 5.495 246.91 2.927 258.521 1.875 262.991 2.49 266.253 4.193 268.186 6.353 269.923 9.86 270.929 61.772 271.714 65.336 274.097 70.786 277.954 76.982 283.384 82.255 290.295 86.01 326.888 102.62 330.591 103.166 333.801 102.021 337.737 99.77 339.637 95.33 339.942 91.361 339.104 89.303 311.609 49.392 310.642 44.494 310.967 39.666 314.001 34.265 319.579 30.722 325.3 28.651 329.088 28.237 336.454 28.811 340.4 30.082 344.758 32.276 348.756 35.739 355.309 44.045 382.89 84.308 386.521 92.35 388.728 99.211 389.636 104.449 390.125 112.343 389.485 119.468 387.095 128.004 384.156 134.386 380.439 140.606 375.429 146.369 369.691 151.925 362.869 155.89 356.307 158.945 347.787 161.771 154.401 162.515 151.065 162.521"   stroke-linecap="round" stroke-linejoin="round" /></svg>