<svg xmlns="http://w3.org" viewBox="0 0 800 600" width="100%" height="100%">
  <path d="M 397.09 330.12 L 466.63 320.69 L 470.30 319.46 L 473.07 316.59 L 474.98 312.62 L 475.33 308.68 L 474.30 304.55 L 463.17 257.23 L 461.26 252.07 L 458.64 248.26 L 454.29 244.61 L 450.65 242.80 L 430.94 236.67 L 424.38 233.34 L 419.51 230.02 L 415.10 225.86 L 411.78 221.95 L 409.31 218.69 L 406.32 211.52 L 405.23 206.07 L 405.14 200.13 L 406.35 193.09 L 408.58 185.70 L 413.49 166.88 L 415.22 152.94 L 415.39 143.03 L 414.51 134.44 L 409.08 90.28 L 405.46 62.46 L 404.76 59.23 L 404.08 56.62 L 402.00 53.94 L 398.44 51.00 L 396.30 50.26 L 393.83 50.00 L 391.48 50.39 L 388.95 51.39 L 387.07 53.29 L 385.93 55.07 L 384.49 58.04 L 380.17 70.88 L 376.06 89.48 L 341.27 193.19 L 327.70 233.34 L 320.18 255.75 L 314.54 273.11 L 308.66 294.67 L 296.23 334.38 L 284.39 370.14 L 283.01 373.63 L 282.66 376.24 L 283.01 377.76 L 284.33 379.28 L 287.33 379.37 L 298.41 378.05 L 300.84 378.05 L 302.81 380.41 L 309.10 404.29 L 310.39 408.78 L 314.36 418.69 L 317.97 425.79 L 325.76 437.12 L 334.63 447.45 L 345.80 457.04 L 393.13 494.38 L 403.91 503.13 L 412.40 509.20 L 423.74 516.53 L 433.46 522.14 L 449.18 529.73 L 463.55 536.18 L 484.91 546.29 L 494.04 549.97 L 499.18 550.00 L 504.62 548.90 L 509.58 546.03 L 512.23 543.48 L 513.99 540.96 L 515.75 537.25 L 516.75 533.63 L 517.34 530.28 L 516.87 524.73 L 515.75 520.69 L 514.17 516.79 L 511.85 513.30 L 508.56 510.14 L 504.47 507.39 L 500.15 505.49 L 493.87 504.58 L 444.04 500.58 L 437.90 499.77 L 435.26 499.19 L 432.46 498.19 L 405.70 481.47 L 403.00 479.44 L 401.18 477.11 L 399.24 472.14 L 393.01 443.00 L 393.42 440.70 L 394.86 439.15 L 397.03 438.54 L 419.24 435.22 L 421.86 434.12 L 423.53 433.25 L 425.30 431.44 L 427.06 428.11 L 427.47 424.02 L 427.53 403.84 L 425.91 400.39 L 423.91 398.32 L 420.89 397.16 L 416.75 396.26 L 413.13 395.77 L 408.31 395.61 L 403.55 395.97 L 357.19 403.10 L 353.20 403.39 L 348.12 403.20 L 343.15 402.32 L 339.74 401.19 L 337.48 399.13 L 335.13 396.61 L 322.41 373.50 L 315.83 362.88 L 314.45 359.75 L 313.48 355.58 L 313.15 352.03 L 313.10 347.77 L 313.80 344.87 L 315.51 342.77 L 317.62 341.70 L 322.47 340.83 L 397.09 330.12" fill="none" stroke="#e10600" stroke-width="4.5" stroke-linecap="round" stroke-linejoin="round" />
</svg>