<svg viewBox="0 0 400 300" xmlns="http://www.w3.org/2000/svg">
  <path d="M188.9,149.5 L191.6,149.2 L193.9,149.0 L195.9,148.8 L198.2,148.5 L200.4,148.2 L202.9,148.0 L204.9,147.7 L207.2,147.5 L209.2,147.2 L212.7,146.9 L216.2,146.5 L219.2,146.1 L221.6,145.9 L224.5,145.5 L226.4,145.3 L230.5,144.8 L232.4,144.6 L236.2,144.3 L238.6,144.0 L241.5,143.1 L242.8,142.4 L244.0,141.3 L245.0,139.3 L245.3,138.0 L245.6,135.8 L245.6,134.4 L245.5,132.4 L245.3,130.1 L245.0,128.3 L244.8,126.9 L244.4,124.6 L244.1,123.2 L243.7,121.6 L243.3,119.9 L242.6,117.3 L242.4,116.5 L241.0,111.6 L240.7,110.6 L239.2,107.0 L238.2,105.4 L236.7,103.7 L234.0,101.9 L231.9,101.0 L230.0,100.4 L227.8,99.7 L225.1,98.8 L223.4,98.2 L221.3,97.4 L216.8,94.6 L213.6,90.7 L212.3,88.0 L211.6,85.1 L211.3,81.7 L211.6,78.6 L212.1,75.1 L212.6,71.9 L212.9,70.1 L213.7,65.9 L214.1,63.6 L214.7,60.0 L215.3,55.5 L215.5,49.9 L215.5,44.6 L215.4,41.1 L215.4,39.4 L215.3,37.0 L215.1,33.1 L214.9,30.9 L214.6,26.7 L214.4,23.2 L214.0,18.5 L213.7,16.3 L213.4,13.3 L212.8,10.3 L212.2,8.0 L211.4,6.2 L210.6,5.0 L209.7,4.0 L208.9,3.4 L208.4,3.1 L207.1,2.6 L205.4,2.6 L204.8,2.8 L204.0,3.2 L203.0,3.9 L202.3,4.5 L201.1,6.0 L200.4,7.2 L199.9,8.3 L199.1,10.3 L198.4,12.7 L197.4,15.8 L197.0,17.2 L196.4,18.9 L195.7,21.3 L194.8,24.2 L194.3,25.9 L193.4,28.5 L192.9,30.3 L192.0,33.0 L191.0,36.0 L190.0,38.7 L189.2,41.2 L188.3,43.7 L187.7,45.4 L186.2,49.7 L185.4,51.9 L184.9,53.3 L183.0,59.0 L182.0,61.7 L181.3,63.8 L179.9,67.5 L178.9,70.4 L178.0,73.3 L177.4,75.0 L176.3,77.9 L175.6,80.0 L174.7,82.5 L173.9,84.9 L172.5,88.9 L171.6,91.4 L170.6,94.4 L169.1,98.6 L167.5,103.0 L166.9,105.0 L165.9,107.8 L165.2,109.8 L163.3,115.1 L162.1,118.7 L160.2,124.0 L159.2,126.8 L157.9,130.4 L156.8,133.4 L155.4,137.3 L154.4,140.1 L153.5,142.4 L151.6,147.6 L150.4,150.6 L149.6,152.9 L148.4,156.2 L147.8,158.0 L146.8,161.0 L146.6,161.8 L146.0,163.7 L145.7,165.5 L145.5,166.7 L145.5,167.6 L145.5,168.3 L145.6,170.2 L145.8,170.7 L146.0,171.4 L146.7,172.3 L147.2,172.6 L148.6,172.7 L149.8,172.5 L151.1,172.2 L152.4,172.1 L153.0,172.1 L154.3,172.4 L154.9,172.8 L155.5,173.4 L156.0,174.1 L156.6,175.5 L157.0,176.8 L157.5,178.6 L157.8,179.8 L158.5,182.8 L158.8,183.9 L159.2,185.3 L159.8,187.3 L160.3,188.9 L160.8,190.2 L161.9,192.9 L162.6,194.5 L163.1,195.3 L165.0,198.5 L165.9,199.9 L167.4,202.1 L168.5,203.4 L169.7,204.9 L171.1,206.5 L173.1,208.6 L174.6,210.0 L176.5,211.6 L178.2,213.1 L181.3,215.7 L182.7,216.9 L185.7,219.4 L187.5,221.0 L190.7,223.7 L194.7,227.1 L196.9,228.9 L199.2,230.9 L201.8,233.0 L203.5,234.5 L204.9,235.7 L207.3,237.6 L208.9,238.9 L213.6,242.4 L217.5,245.1 L218.0,245.4 L222.2,248.1 L226.2,250.3 L229.1,251.8 L232.3,253.2 L237.8,255.6 L243.1,257.8 L245.6,258.8 L249.4,260.3 L251.5,261.1 L255.1,262.3 L256.5,262.5 L258.6,262.4 L260.9,261.7 L261.9,261.2 L264.5,259.2 L266.5,255.7 L266.7,254.5 L266.8,253.0 L266.7,251.2 L266.2,249.3 L265.6,247.7 L265.0,246.4 L263.7,244.3 L261.6,241.9 L258.9,240.1 L256.5,239.4 L251.6,238.8 L247.0,238.1 L244.4,237.6 L242.7,237.5 L240.8,237.3 L238.8,237.1 L236.9,237.0 L232.0,236.6 L228.9,236.4 L225.9,236.0 L223.9,235.6 L220.3,234.4 L217.9,233.2 L215.3,231.6 L213.3,230.3 L211.8,229.2 L210.3,228.0 L207.6,225.4 L205.3,221.9 L203.8,217.4 L203.1,214.1 L202.7,211.2 L202.7,210.3 L202.8,207.9 L202.8,207.7 L202.9,206.5 L203.6,204.5 L204.4,203.6 L205.3,203.0 L206.5,202.7 L207.6,202.6 L208.6,202.6 L209.6,202.6 L211.2,202.8 L213.2,202.9 L215.4,202.3 L217.1,201.2 L217.8,200.6 L219.3,199.1 L219.7,198.6 L220.1,197.8 L220.5,196.6 L220.8,194.9 L220.9,193.8 L221.0,191.8 L221.0,190.6 L220.8,189.2 L219.8,186.2 L219.0,185.0 L216.9,183.2 L214.1,181.8 L210.9,181.4 L208.0,181.7 L205.1,182.1 L203.8,182.3 L202.2,182.5 L200.1,182.8 L197.7,183.1 L195.5,183.4 L192.3,183.9 L189.9,184.3 L186.5,184.9 L183.3,185.3 L180.4,185.2 L176.8,184.1 L175.0,183.3 L171.7,180.6 L169.5,177.3 L168.6,175.9 L167.2,173.6 L166.2,171.8 L164.9,169.7 L163.2,165.9 L162.4,163.2 L162.0,161.4 L161.8,159.7 L161.8,157.6 L161.9,156.2 L161.9,156.2 L162.3,154.2 L162.8,153.3 L163.6,152.5 L164.0,152.2 L165.4,151.7 L166.9,151.4 L170.0,151.2 L171.3,151.0 L173.0,150.8 L174.7,150.6 L176.5,150.5 L177.6,150.5 L178.9,150.4 L181.0,150.3 L183.4,150.2 L184.9,150.1 Z"
    fill="none"
    stroke="#FF6600"
    stroke-width="4"
    stroke-linecap="round"
    stroke-linejoin="round"/>
</svg>