<svg id="Layer_1" data-name="Layer 1" xmlns="http://www.w3.org/2000/svg" viewBox="0 0 446.921 279.184"><title>abu_dhabi_gp</title><polyline points="179.831 99.526 210.697 162.551 213.019 165.649 216.616 167.365 220.985 167.925 224.834 167.019 228.431 164.74 269.829 139.256 274.128 135.816 276.919 132.134 279.01 126.858 279.577 122.831 279.183 102.189 280.273 94.923 281.891 89.247 284.453 83.752 287.113 79.37 289.429 76 295.285 70.898 300.12 68.146 305.728 66.191 312.786 65.116 320.505 64.905 339.911 63.629 353.691 60.878 363.151 57.921 371.021 54.378 411.214 35.301 436.481 23.1 439.322 21.414 441.59 19.948 443.475 17.124 445.142 12.824 445.171 10.555 444.638 8.132 443.529 6.023 441.783 3.941 439.383 2.757 437.337 2.229 434.065 1.799 420.512 1.75 401.57 3.707 292.181 3.389 249.795 3.165 226.164 3.089 207.905 3.21 185.59 4.431 143.994 5.153 106.32 5.19 102.576 4.979 99.984 5.468 98.655 6.281 97.632 8.014 98.485 10.889 103.232 20.983 104.001 23.297 102.385 25.908 81.699 39.404 77.848 42.045 69.694 48.933 64.094 54.601 55.796 65.561 48.79 77.237 43.211 90.854 22.688 147.544 17.786 160.534 14.703 170.505 11.324 183.576 9.059 194.576 6.815 211.883 5.217 227.553 2.362 251.007 1.75 260.838 3.34 265.728 6.095 270.54 10.386 274.346 13.64 276.052 16.585 276.931 20.663 277.434 24.409 277.242 27.78 276.742 32.901 274.545 36.378 272.214 39.585 269.477 42.162 266.175 44.126 262.056 45.443 257.315 45.889 252.616 44.765 246.365 32.856 197.816 31.687 191.734 31.405 189.042 31.474 186.078 38.905 155.407 39.983 152.201 41.615 149.74 45.721 146.332 71.419 131.233 73.724 130.901 75.648 131.779 76.916 133.649 87.072 153.679 88.938 155.815 90.293 157.129 92.564 158.232 96.275 158.857 100.295 157.955 119.459 151.652 122.228 149.03 123.558 146.482 123.707 143.244 123.259 139.028 122.58 135.446 121.214 130.823 119.377 126.418 97.993 84.669 96.457 80.969 95.039 76.085 94.301 71.098 94.299 67.508 95.546 64.709 97.195 61.685 115.118 42.327 123.122 32.734 125.658 30.437 129.304 28.204 132.572 26.778 136.597 25.379 139.576 25.133 142.105 26.088 143.782 27.76 146.137 32.086 179.831 99.526" fill="none" stroke="#e10600" stroke-linecap="round" stroke-linejoin="round" stroke-width="3.5"/></svg>