<svg id="Layer_1" data-name="Layer 1" xmlns="http://www.w3.org/2000/svg" viewBox="0 0 421 211">
<style>
                    path, polyline, polygon, line, circle {
                        stroke: #ffcc00 !important;
                        stroke-width: 3.5px !important;
                        fill: none !important;
                        stroke-linecap: round !important;
                        stroke-linejoin: round !important;
                        filter: drop-shadow(0px 0px 5px #ffe600) !important;
                    }
                </style>

<title>Algarve International Circuit</title>
<path d="M395.0 123.0 L390.0 109.0 L360.0 64.0 L351.0 55.0 L344.0 53.0 L335.0 53.0 L325.0 57.0 L320.0 63.0 L319.0 72.0 L347.0 114.0 L346.0 123.0 L343.0 125.0 L337.0 125.0 L296.0 107.0 L288.0 99.0 L285.0 90.0 L285.0 35.0 L280.0 29.0 L266.0 27.0 L255.0 29.0 L249.0 32.0 L211.0 72.0 L200.0 79.0 L185.0 79.0 L142.0 68.0 L106.0 62.0 L94.0 63.0 L89.0 69.0 L90.0 80.0 L102.0 100.0 L110.0 108.0 L116.0 110.0 L128.0 110.0 L168.0 103.0 L186.0 103.0 L243.0 125.0 L245.0 127.0 L245.0 131.0 L243.0 133.0 L160.0 134.0 L77.0 129.0 L69.0 122.0 L60.0 91.0 L51.0 89.0 L46.0 93.0 L30.0 120.0 L26.0 129.0 L26.0 136.0 L41.0 177.0 L44.0 180.0 L50.0 181.0 L356.0 184.0 L363.0 182.0 L377.0 174.0 L389.0 159.0 L395.0 142.0 L395.0 123.0" />
</svg>