<svg viewBox="0 0 400 300" xmlns="http://www.w3.org/2000/svg"><path d="M179.7,138.4 L179.0,136.9 L178.4,135.5 L177.8,134.4 L177.1,133.4 L176.4,132.7 L174.8,131.2 L171.5,128.2 L170.8,127.5 L170.0,126.9 L169.3,126.5 L168.3,126.1 L167.5,125.8 L166.4,125.6 L165.2,125.4 L163.7,125.2 L231.1,149.3 L231.5,146.9 L231.9,145.1 L232.4,143.7 L233.2,142.3 L234.1,141.0 L235.4,139.5 L236.9,138.3 L238.1,137.3 L239.7,136.3 L241.2,135.4 L242.6,134.7 L244.2,134.0 L246.2,133.3 L247.9,132.8 L249.5,132.5 L250.9,132.3 L252.1,132.3 L253.2,132.3 L254.3,132.4 L255.4,132.6 L256.4,132.8 L257.7,133.2 L262.0,134.9 L267.8,137.3 L311.8,129.5 L312.2,130.2 L312.6,130.8 L313.0,131.3 L313.5,131.7 L314.1,132.1 L314.8,132.4 L315.5,132.6 L316.2,132.7 L317.1,132.8 L317.9,132.7 L319.0,132.5 L321.3,132.0 L171.7,149.5 L173.5,152.4 L174.1,153.6 L174.4,154.4 L174.9,155.5 L175.2,156.6 L175.3,157.8 L175.3,159.0 L175.2,160.2 L174.9,161.4 L174.5,162.9 L173.8,164.8 L172.6,167.4 L171.9,168.7 L171.2,169.8 L170.4,170.7 L169.7,171.6 L169.1,172.1 L168.5,172.5 L167.6,173.0 L160.4,175.9 L386.1,75.8 L373.0,79.5 L358.3,83.4 L335.2,89.0 L320.9,92.1 L300.8,96.1 L277.6,100.1 L254.9,103.3 L249.1,104.0 L242.7,104.8 L242.2,104.8 L241.6,104.9 L229.0,106.2 L223.0,106.7 L220.7,107.0 L213.8,107.6 L208.5,108.2 L196.2,109.3 L196.2,109.3 L184.7,110.5 L181.3,110.8 L180.4,111.0 L179.7,111.2 L179.3,111.4 L178.9,111.8 L178.6,112.2 L178.5,112.6 L178.5,113.1 L178.6,113.5 L178.8,114.0 L179.1,114.5 L181.2,116.8 L197.9,137.2 L199.3,139.0 L199.6,139.3 L199.9,140.5 L199.9,141.1 L199.9,141.7 L199.7,142.2 L199.5,142.8 L199.2,143.3 L198.8,143.7 L198.3,144.1 L197.8,144.4 L197.2,144.5 L196.6,144.7 L195.9,144.7 L195.0,144.7 L191.1,144.5 L346.2,127.3 L348.5,126.9 L349.7,126.7 L350.6,126.4 L351.3,126.2 L352.0,125.8 L352.6,125.4 L353.2,124.9 L354.8,123.2 L159.8,236.4 L163.6,238.7 L167.2,240.7 L170.5,242.4 L171.4,242.8 L172.1,243.0 L172.8,243.1 L173.4,243.0 L174.0,242.9 L174.3,242.8 L174.8,242.5 L175.3,242.2 L175.6,241.7 L175.8,241.2 L175.7,240.5 L175.6,239.9 L175.4,239.0 L174.5,236.5 L173.2,233.3 L386.9,89.6 L394.4,81.7 L396.3,79.5 L396.9,78.6 L397.2,77.8 L397.4,77.0 L397.3,76.3 L397.1,75.6 L396.7,75.0 L396.1,74.5 L395.5,74.2 L394.9,74.0 L394.2,74.0 L393.5,74.0 L392.7,74.1 L391.4,74.4 L386.1,75.8 L160.4,175.9 L157.8,176.9 L156.2,177.5 L155.3,177.8 L154.5,178.1 L153.4,178.3 L152.2,178.4 L150.9,178.4 L149.5,178.3 L147.3,178.2 L145.1,177.8 L143.3,177.4 L140.9,176.8 L138.7,176.1 L136.9,175.4 L135.5,174.9 L134.3,174.3 L133.0,173.5 L131.8,172.5 L130.9,171.7 L130.2,170.9 L129.1,169.5 L167.3,218.3 L166.3,215.6 L165.9,214.3 L165.6,213.1 L165.5,211.9 L165.5,210.8 L165.5,209.4 L165.7,208.1 L166.1,206.8 L166.6,205.4 L167.1,204.1 L167.8,202.8 L168.5,201.6 L169.3,200.5 L170.3,199.4 L171.3,198.3 L172.5,197.4 L173.8,196.4 L175.3,195.5 L177.1,194.6 L180.6,192.7 L267.8,137.3 L273.4,139.5 L274.6,139.9 L275.4,140.2 L276.1,140.3 L276.8,140.4 L277.4,140.4 L278.2,140.3 L279.0,140.0 L280.1,139.5 L282.9,138.0 L285.0,136.5 L286.8,135.2 L288.4,133.9 L290.5,131.9 L191.1,144.5 L188.2,144.3 L186.5,144.2 L185.3,144.1 L184.6,144.0 L184.0,143.8 L183.4,143.5 L182.7,143.1 L181.9,142.6 L181.4,142.1 L181.0,141.5 L180.6,140.7 L179.7,138.4 L290.5,131.9 L291.5,130.8 L292.4,129.6 L293.2,128.6 L294.1,127.6 L294.9,126.8 L296.0,126.0 L297.0,125.5 L298.2,125.0 L299.5,124.7 L301.0,124.5 L302.3,124.4 L303.8,124.5 L305.1,124.7 L306.2,125.1 L307.0,125.4 L307.8,125.8 L308.6,126.2 L309.2,126.7 L309.9,127.3 L310.5,127.9 L311.1,128.6 L311.8,129.5 L180.6,192.7 L198.8,183.1 L201.4,181.7 L202.6,180.9 L204.0,180.0 L205.1,179.1 L206.1,178.0 L207.0,176.9 L207.7,175.8 L208.4,174.3 L209.1,172.7 L209.7,171.3 L220.4,161.8 L222.8,161.1 L224.2,160.6 L225.4,159.9 L226.5,159.2 L227.5,158.4 L228.5,157.4 L229.2,156.6 L229.8,155.5 L230.2,154.4 L230.5,153.3 L230.8,151.7 L231.1,149.3 L209.7,171.3 L210.3,170.0 L210.9,168.6 L211.7,167.4 L212.5,166.3 L213.6,165.1 L214.8,164.1 L216.3,163.3 L218.0,162.6 L220.4,161.8 L241.2,135.4 L241.7,135.0 L242.2,134.6 L242.7,134.0 L243.1,133.2 L243.3,132.5 L243.6,131.8 L243.7,131.1 L243.8,130.2 L243.6,129.5 L243.3,128.5 L241.5,123.2 L239.5,117.8 L239.2,117.2 L238.9,116.8 L238.5,116.4 L238.0,116.1 L237.5,115.9 L236.8,115.8 L236.1,115.6 L235.5,115.5 L235.1,115.2 L234.6,114.8 L234.3,114.4 L234.1,113.9 L233.8,113.2 L233.6,112.1 L233.0,109.4 L232.9,109.0 L232.7,108.4 L232.3,107.9 L231.8,107.4 L231.1,107.0 L230.4,106.8 L229.8,106.6 L228.7,106.5 L227.6,106.5 L226.4,106.5 L223.0,106.7 L163.7,125.2 L161.3,125.0 L160.5,125.0 L159.8,125.0 L159.2,125.1 L158.8,125.3 L158.4,125.5 L158.1,125.7 L157.8,126.0 L157.7,126.4 L157.5,126.7 L157.5,127.1 L157.5,127.5 L157.6,128.0 L157.7,128.4 L158.1,129.1 L160.7,133.0 L129.1,169.5 L126.2,165.9 L124.1,163.4 L122.2,161.1 L120.4,158.9 L118.1,156.3 L115.6,153.4 L111.7,149.3 L92.5,147.8 L66.9,159.2 L66.2,159.5 L65.5,159.9 L64.8,160.3 L64.3,160.9 L63.8,161.4 L63.5,162.1 L63.2,162.8 L63.0,163.6 L63.0,164.5 L63.0,165.4 L63.2,166.2 L63.4,167.0 L63.6,167.6 L64.0,168.2 L64.5,168.9 L65.0,169.4 L65.8,170.0 L67.0,170.9 L68.9,172.2 L75.0,176.2 L78.1,178.2 L85.0,183.0 L99.1,192.6 L114.3,203.0 L125.6,210.8 L130.0,213.7 L135.8,217.6 L136.6,218.1 L139.3,220.1 L141.7,222.1 L146.9,226.1 L150.8,228.8 L160.3,235.3 L166.2,239.5 L170.5,242.4 L249.1,104.0 L248.1,104.2 L247.5,104.4 L247.0,104.7 L246.5,105.1 L246.1,105.5 L245.7,105.9 L245.6,106.5 L245.5,107.1 L245.6,107.7 L245.7,108.3 L246.1,109.0 L246.7,110.0 L252.0,118.3 L253.2,120.2 L254.7,122.4 L257.4,125.9 L259.8,128.4 L263.2,131.5 L267.7,135.2 L268.7,135.9 L272.1,138.5 L272.9,139.1 L273.4,139.5 L199.6,139.3 L202.0,142.0 L202.3,144.6 L200.2,146.7 L195.9,147.5 L186.4,146.7 L181.9,145.0 L179.7,138.4 L120.6,209.9 L159.8,236.4 L163.6,238.7 L167.2,240.7 L171.4,242.8 L172.1,243.0 L172.8,243.1 L173.4,243.0 L174.0,242.9 L174.8,242.5 L175.3,242.2 L175.6,241.7 L175.8,241.2 L175.7,240.5 L175.6,239.9 L175.4,239.0 L174.5,236.5 L173.2,233.3 L167.3,218.3 L166.3,215.6 L165.9,214.3 L165.6,213.1 L165.5,211.9 L165.5,210.8 L165.5,209.4 L165.7,208.1 L166.1,206.8 L166.6,205.4 L167.1,204.1 L167.8,202.8 L168.5,201.6 L169.3,200.5 L170.3,199.4 L171.3,198.3 L172.5,197.4 L173.8,196.4 L175.3,195.5 L177.1,194.6 L180.6,192.7 L198.8,183.1 L201.4,181.7 L202.6,180.9 L204.0,180.0 L205.1,179.1 L206.1,178.0 L207.0,176.9 L207.7,175.8 L208.4,174.3 L209.1,172.7 L209.7,171.3 L210.3,170.0 L210.9,168.6 L211.7,167.4 L212.5,166.3 L213.6,165.1 L214.8,164.1 L216.3,163.3 L218.0,162.6 L220.4,161.8 L222.8,161.1 L224.2,160.6 L225.4,159.9 L226.5,159.2 L227.5,158.4 L228.5,157.4 L229.2,156.6 L229.8,155.5 L230.2,154.4 L230.5,153.3 L230.8,151.7 L231.1,149.3 L231.5,146.9 L231.9,145.1 L232.4,143.7 L233.2,142.3 L234.1,141.0 L235.4,139.5 L236.9,138.3 L238.1,137.3 L239.7,136.3 L241.2,135.4 L244.2,134.0 L246.2,133.3 L247.9,132.8 L249.5,132.5 L250.9,132.3 L252.1,132.3 L253.2,132.3 L254.3,132.4 L255.4,132.6 L256.4,132.8 L257.7,133.2 L262.0,134.9 L267.8,137.3 L268.2,137.3 L268.6,137.1 L268.8,136.7 L268.8,136.3 L268.7,135.9 L267.7,135.2 L263.2,131.5 L259.8,128.4 L257.4,125.9 L254.7,122.4 L253.2,120.2 L252.0,118.3 L246.7,110.0 L246.1,109.0 L245.7,108.3 L245.6,107.7 L245.5,107.1 L245.4,106.5 L245.1,106.1 L244.8,105.8 L244.4,105.5 L244.0,105.3 L243.6,105.2 L243.2,105.0 L242.7,104.9 L242.2,104.8 L241.6,104.9 L229.0,106.2 L223.0,106.7 L220.7,107.0 L213.8,107.6 L208.5,108.2 L196.2,109.3 L184.7,110.5 L181.3,110.8 L180.4,111.0 L179.7,111.2 L179.3,111.4 L178.9,111.8 L178.6,112.2 L178.5,112.6 L178.5,113.1 L178.6,113.5 L178.8,114.0 L179.1,114.5 L181.2,116.8 L185.5,121.5 L188.6,124.9 L193.4,130.9 L197.9,137.2 L199.3,139.0 L199.9,140.5 L199.9,141.1 L199.9,141.7 L199.7,142.2 L199.5,142.8 L199.2,143.3 L198.8,143.7 L198.3,144.1 L197.8,144.4 L197.2,144.5 L196.6,144.7 L195.9,144.7 L195.0,144.7 L191.1,144.5 L188.2,144.3 L186.5,144.2 L185.3,144.1 L184.6,144.0 L184.0,143.8 L183.4,143.5 L182.7,143.1 L181.9,142.6 L181.4,142.1 L181.0,141.5 L180.6,140.7 L179.7,138.4 L179.0,136.9 L178.4,135.5 L177.8,134.4 L177.1,133.4 L176.4,132.7 L174.8,131.2 L171.5,128.2 L170.8,127.5 L170.0,126.9 L169.3,126.5 L168.3,126.1 L167.5,125.8 L166.4,125.6 L165.2,125.4 L163.7,125.2 L161.3,125.0 L160.5,125.0 L159.8,125.0 L159.2,125.1 L158.8,125.3 L158.4,125.5 L158.1,125.7 L157.8,126.0 L157.7,126.4 L157.5,126.7 L157.5,127.1 L157.5,127.5 L157.6,128.0 L157.7,128.4 L158.1,129.1 L160.7,133.0 L171.7,149.5 L173.5,152.4 L174.1,153.6 L174.4,154.4 L174.9,155.5 L175.2,156.6 L175.3,157.8 L175.3,159.0 L175.2,160.2 L174.9,161.4 L174.5,162.9 L173.8,164.8 L172.6,167.4 L171.9,168.7 L171.2,169.8 L170.4,170.7 L169.7,171.6 L169.1,172.1 L168.5,172.5 L167.6,173.0 L160.4,175.9 L157.8,176.9 L156.2,177.5 L155.3,177.8 L154.5,178.1 L153.4,178.3 L152.2,178.4 L150.9,178.4 L149.5,178.3 L147.3,178.2 L145.1,177.8 L143.3,177.4 L140.9,176.8 L138.7,176.1 L136.9,175.4 L135.5,174.9 L134.3,174.3 L133.0,173.5 L131.8,172.5 L130.9,171.7 L130.2,170.9 L129.1,169.5 L126.2,165.9 L124.1,163.4 L122.2,161.1 L120.4,158.9 L118.1,156.3 L115.6,153.4 L111.7,149.3 L109.2,146.7 L108.3,145.9 L107.5,145.4 L106.9,145.0 L106.2,144.8 L105.6,144.6 L104.8,144.5 L104.0,144.5 L102.1,144.7 L100.8,144.9 L99.3,145.3 L97.6,145.9 L95.8,146.5 L92.5,147.8 L61.3,159.7 L58.0,160.9 L57.3,161.2 L56.8,161.5 L56.4,161.9 L56.1,162.2 L55.8,162.5 L55.6,162.9 L55.5,163.3 L55.4,163.7 L55.4,164.1 L55.4,164.5 L55.6,165.0 L55.8,165.4 L56.1,165.9 L56.7,166.5 L59.0,168.2 L77.0,180.2 L120.6,209.9 Z" fill="none" stroke="#f97316" stroke-width="3.5" stroke-linecap="round" stroke-linejoin="round"/></svg>