<svg id="Layer_1" data-name="Layer 1" xmlns="http://www.w3.org/2000/svg" viewBox="0 0 684.136 440.288"><title>americas_gp</title><polyline points="150.919 373.392 218.019 418.454 236.416 429.214 250.545 436.134 255.732 438.103 257.726 438.538 259.861 437.979 261.709 436.631 262.867 434.528 263.379 432.649 262.978 430.46 246.064 392.189 238.481 374.478 236.958 368.962 236.345 364.183 236.107 358.562 236.745 353.254 238.153 346.516 240.741 340.664 243.599 335.388 247.724 329.795 252.421 325.779 258.832 321.024 293.678 295.228 307.922 284.577 310.892 281.129 313.406 277.078 315.532 273.699 317.153 269.123 318.349 265.222 321.378 253.907 323.689 250.086 326.613 245.616 330.715 242.46 334.054 240.35 342.439 236.246 348.916 232.298 352.561 228.966 354.741 225.796 356.577 221.587 357.029 216.721 357.681 208.421 357.914 203.146 358.727 197.268 360.146 192.922 361.982 188.712 364.482 184.491 367.234 180.634 371.46 176.272 376.36 172.025 381.753 168.379 387.598 165.295 392.747 163.634 397.065 163.11 400.566 162.995 406.352 164.145 443.758 177.794 447.36 178.909 451.031 178.609 453.76 177.19 460.594 172.187 468.482 164.705 474.069 158.009 479.493 149.318 483.604 143.555 487.489 139.99 491.878 137.623 495.299 136.531 500.292 136.123 506.077 137.274 510.603 139.296 514.372 142.449 516.512 144.667 518.704 147.522 520.744 150.773 523.579 153.362 526.723 154.301 529.733 154.055 593.533 134.352 597.567 132.611 600.058 130.998 601.855 129.013 636.109 79.721 666.244 36.534 677.715 19.102 682.18 9.08 682.386 6.627 681.582 4.471 679.943 3.409 677.883 2.167 675.668 1.75 673.296 2.115 670.095 3.189 602.385 31.117 555.039 48.663 502.652 66.023 439.825 84.066 400.39 93.957 363.864 102.371 256.001 123.285 244.031 126.486 242.569 127.588 242.071 129.637 242.423 131.232 244.146 133.313 251.957 140.708 279.52 172.724 291.827 189.45 292.699 191.985 292.347 195.817 291.021 198.575 288.357 200.801 286.02 201.591 281.517 202.557 261.194 202.595 259.132 201.781 257.275 200.309 255.386 198.455 253.615 195.78 248.587 184.91 246.464 180.64 243.311 176.881 228.948 164.382 226.871 162.928 224.401 162.105 221.984 161.918 208.854 161.795 206.262 162.178 204.804 163.323 203.444 165.229 202.981 167.702 204.091 170.432 232.826 211.795 244.6 230.146 245.908 235.295 246.111 240.492 245.611 244.763 244.853 249.055 242.665 257.097 239.442 266.035 237.113 269.643 233.042 273.181 228.247 276.009 208.383 287.077 204.319 288.435 200.224 288.983 192.577 289.011 185.298 288.58 178.18 286.941 170.334 284.548 163.253 281.111 158.424 278.087 154.953 273.158 128.557 241.859 108.193 220.151 105.613 217.969 102.685 216.969 98.915 216.508 95.662 216.945 91.211 218.548 85.923 220.775 81.517 222.93 7.97 262.617 3.881 265.943 2.385 268.885 1.75 271.971 2.812 274.106 4.7 275.96 7.029 277.778 49.641 306.725 150.919 373.392" fill="none" stroke="#f97316" stroke-linecap="round" stroke-linejoin="round" stroke-width="3.5"/></svg>