<svg xmlns="http://w3.org" viewBox="0 0 800 600" width="100%" height="100%">
  <path d="M 190.41 427.00 L 253.61 477.38 L 271.07 489.60 L 284.59 497.65 L 289.59 500.04 L 291.55 500.63 L 293.72 500.25 L 295.67 499.06 L 297.00 497.06 L 297.66 495.22 L 297.44 493.01 L 283.70 453.49 L 277.59 435.22 L 276.52 429.60 L 276.30 424.78 L 276.52 419.16 L 277.59 413.92 L 279.54 407.32 L 282.60 401.70 L 285.87 396.68 L 290.44 391.44 L 295.45 387.82 L 302.23 383.60 L 339.06 360.73 L 354.13 351.28 L 357.37 348.08 L 360.20 344.25 L 362.60 341.06 L 364.59 336.63 L 366.10 332.84 L 370.04 321.81 L 372.65 318.19 L 375.93 313.97 L 380.28 311.16 L 383.78 309.33 L 392.47 305.92 L 399.24 302.51 L 403.15 299.49 L 405.58 296.51 L 407.75 292.46 L 408.60 287.65 L 409.93 279.43 L 410.59 274.19 L 411.88 268.40 L 413.65 264.18 L 415.82 260.14 L 418.66 256.13 L 421.71 252.51 L 426.28 248.51 L 431.51 244.68 L 437.18 241.48 L 443.26 238.89 L 448.53 237.65 L 452.87 237.48 L 456.37 237.65 L 462.04 239.27 L 498.21 255.92 L 501.71 257.33 L 505.40 257.33 L 508.23 256.13 L 515.45 251.70 L 523.92 244.89 L 530.04 238.67 L 536.15 230.45 L 540.72 225.04 L 544.88 221.81 L 549.45 219.81 L 552.95 219.00 L 557.96 219.00 L 563.63 220.62 L 567.97 223.00 L 571.47 226.45 L 573.43 228.83 L 575.38 231.86 L 577.15 235.27 L 579.76 238.08 L 582.82 239.27 L 585.84 239.27 L 651.03 224.83 L 655.19 223.43 L 657.81 222.02 L 659.76 220.19 L 697.92 173.85 L 731.47 133.27 L 744.33 116.83 L 749.59 107.20 L 750.00 104.78 L 749.37 102.56 L 747.83 101.37 L 745.87 99.96 L 743.70 99.37 L 741.31 99.54 L 738.03 100.35 L 668.27 122.66 L 619.65 136.29 L 566.02 149.32 L 501.93 162.18 L 461.82 168.83 L 424.73 174.24 L 315.52 186.29 L 303.33 188.50 L 301.79 189.48 L 301.12 191.48 L 301.34 193.10 L 302.89 195.32 L 310.07 203.32 L 334.94 237.48 L 345.84 255.15 L 346.50 257.75 L 345.84 261.54 L 344.29 264.18 L 341.45 266.18 L 339.06 266.78 L 334.49 267.38 L 314.24 265.76 L 312.25 264.78 L 310.52 263.16 L 308.78 261.16 L 307.24 258.35 L 303.11 247.11 L 301.34 242.68 L 298.51 238.67 L 285.21 225.04 L 283.26 223.43 L 280.87 222.40 L 278.47 222.02 L 265.40 220.83 L 262.78 221.00 L 261.23 222.02 L 259.72 223.81 L 259.06 226.24 L 259.94 229.05 L 285.21 272.62 L 295.45 291.87 L 296.34 297.10 L 296.11 302.30 L 295.27 306.52 L 294.16 310.73 L 291.33 318.57 L 287.38 327.21 L 284.77 330.62 L 280.42 333.82 L 275.41 336.24 L 254.71 345.65 L 250.55 346.68 L 246.43 346.89 L 238.80 346.29 L 231.58 345.27 L 224.62 343.06 L 217.00 340.03 L 210.22 336.03 L 205.65 332.62 L 202.60 327.43 L 178.84 294.08 L 160.31 270.78 L 157.92 268.40 L 155.08 267.16 L 151.36 266.40 L 148.08 266.57 L 143.52 267.80 L 138.07 269.59 L 133.50 271.38 L 56.96 304.94 L 52.62 307.92 L 50.88 310.73 L 50.00 313.76 L 50.88 315.97 L 52.62 317.97 L 54.79 319.97 L 94.90 352.30 L 190.41 427.00" fill="none" stroke="#f97316" stroke-width="4.5" stroke-linecap="round" stroke-linejoin="round" />
</svg>