<svg viewBox="0 0 400 300" xmlns="http://www.w3.org/2000/svg"><path d="M155.7,151.7 L159.6,145.9 L164.5,140.9 L168.6,137.8 L171.4,135.8 L174.4,134.1 L182.9,129.5 L184.8,127.8 L187.7,123.3 L192.0,118.7 L197.2,115.7 L203.2,112.8 L209.3,109.7 L224.6,102.1 L259.9,85.5 L281.1,76.1 L283.3,75.2 L285.3,74.4 L286.5,74.1 L287.6,73.9 L289.0,73.9 L290.2,73.9 L291.4,74.0 L292.6,74.1 L293.9,74.3 L295.0,74.6 L296.3,75.0 L297.6,75.5 L300.8,76.8 L312.6,81.0 L156.4,144.8 L156.7,138.9 L157.1,136.2 L157.8,134.9 L159.0,134.2 L160.8,133.7 L167.2,133.1 L169.5,132.3 L171.5,130.4 L176.5,124.6 L179.9,121.8 L187.4,117.6 L260.2,82.2 L274.5,75.2 L282.2,71.5 L284.1,70.8 L285.6,70.3 L287.0,70.1 L288.3,70.1 L289.7,70.3 L291.9,71.0 L299.3,74.4 L312.6,81.0 L314.5,81.9 L317.5,83.3 L318.9,84.1 L320.0,85.2 L320.5,86.2 L320.7,87.2 L321.0,89.0 L321.3,90.1 L323.4,100.1 L324.1,104.5 L325.1,109.1 L324.8,110.4 L324.3,111.3 L323.8,112.0 L322.9,113.0 L321.9,113.8 L320.8,114.6 L319.5,115.2 L318.2,115.7 L316.8,116.2 L315.6,116.5 L314.3,116.7 L312.6,116.9 L310.5,116.9 L308.9,116.8 L307.2,116.5 L303.5,115.7 L300.6,114.9 L298.7,114.4 L297.5,113.9 L296.3,113.4 L295.0,112.6 L294.2,111.8 L293.5,111.0 L292.9,110.4 L292.3,109.3 L291.9,108.5 L291.7,107.5 L291.6,106.5 L292.0,105.3 L292.5,104.3 L294.2,102.3 L296.6,100.1 L300.9,95.8 L301.3,94.7 L301.6,93.9 L301.5,93.0 L301.1,92.1 L300.8,91.3 L300.3,90.6 L299.8,90.1 L299.0,89.5 L298.2,89.1 L297.1,88.8 L295.9,88.6 L294.5,88.7 L293.2,88.9 L292.2,89.3 L291.1,89.9 L289.8,90.8 L288.6,91.8 L284.1,96.4 L279.3,102.3 L273.9,112.7 L269.4,117.8 L254.9,131.4 L237.0,148.0 L231.5,152.5 L214.6,165.8 L204.6,173.8 L199.9,177.5 L187.3,187.8 L184.9,188.7 L181.9,189.1 L173.4,189.5 L167.7,190.3 L161.5,192.7 L157.0,195.1 L153.5,198.3 L151.0,202.4 L150.2,210.2 L149.2,221.6 L148.6,229.0 L147.8,232.0 L147.2,233.3 L146.0,234.5 L144.2,235.8 L142.6,236.6 L140.3,237.6 L137.8,238.4 L135.7,238.8 L133.5,238.9 L129.1,238.9 L121.8,238.5 L109.6,238.0 L102.9,238.1 L83.2,239.6 L73.6,239.8 L48.2,239.7 L41.8,239.6 L37.4,239.8 L32.7,240.7 L29.5,242.5 L27.7,244.7 L26.6,248.1 L20.7,266.4 L19.6,267.9 L18.3,269.2 L16.3,270.3 L14.3,271.1 L12.6,271.6 L10.7,271.8 L8.3,271.9 L5.9,271.8 L1.5,270.6 L-6.1,267.7 L-10.5,265.6 L-13.5,263.4 L-15.9,260.9 L-17.4,257.9 L-17.9,254.7 L-17.2,250.8 L-15.3,247.9 L-10.3,243.0 L10.8,223.2 L12.8,221.3 L14.7,219.7 L16.7,218.5 L19.3,217.4 L22.5,216.5 L83.9,199.4 L86.4,198.7 L90.8,198.3 L110.0,196.8 L114.2,196.1 L119.0,194.7 L140.9,187.4 L144.6,185.4 L147.2,183.6 L152.0,178.5 L153.8,174.5 L154.7,170.4 L154.9,165.9 L155.2,156.6 L155.7,151.7 L156.4,144.8 Z" fill="none" stroke="#ec4899" stroke-width="3.5" stroke-linecap="round" stroke-linejoin="round"/></svg>