<svg id="Layer_1" data-name="Layer 1" xmlns="http://www.w3.org/2000/svg" viewBox="0 0 559.832 282.44"><title>australian_gp</title><polyline points="308.356 279.134 272.911 279.298 219.567 278.68 216.487 278.646 213.708 277.158 212.883 276.119 212.457 274.814 211.181 271.741 210.035 267.606 207.597 263.297 203.978 258.612 201.046 255.46 194.196 250.448 190.022 248.578 185.064 247.223 180.412 246.805 171.027 246.803 160.342 247.254 144.891 247.49 125.102 246.816 117.154 246.534 94.139 243.888 82.301 242.163 68.824 239.145 41.1 231.526 33.662 229.052 28.449 226.843 26.58 224.581 25.978 222.256 27.039 219.07 32.929 210.716 43.67 194.513 44.613 192.332 44.954 190.707 44.69 189.108 42.77 185.213 39.904 181.951 12.742 156.524 2.804 147.185 2.212 146.135 1.75 139.945 2.394 135.356 8.022 100.883 9.916 93.896 22.202 64.804 27.203 54.188 30.025 42.862 32.141 34.236 34.126 31.415 36.019 29.484 38.835 28.762 43.92 29.191 49.231 28.864 55.822 27.749 62.581 24.693 69.733 19.117 75.76 13.642 81.375 9.51 88.705 5.973 95.801 3.468 105.03 2.118 111.806 1.75 120.005 2.845 129.106 5.303 136.861 9.324 142.582 12.711 146.992 15.942 178.244 37.603 181.582 40.882 185.024 45.389 187.781 50.756 189.711 55.749 190.846 62.333 191.393 67.906 192.36 74.391 193.677 78.488 195.524 82.766 198.091 87.168 221.657 121.81 224.783 125.789 228.767 130.243 232.624 134.113 239.963 140.81 246.203 145.455 253.925 150.217 261.8 154.429 269.376 157.254 276.681 159.595 287.3 161.959 294.155 163.286 305.58 163.648 340.208 161.682 345.346 161.04 349.554 159.817 352.509 158.777 357.566 156.087 361.6 152.688 365.955 147.993 370.026 143.892 373.84 139.78 377.324 136.53 380.914 134.37 385.191 132.901 388.267 132.052 394.866 131.683 432.38 128.747 446.229 127.537 454.329 128.287 460.24 128.737 467.948 130.499 477.974 134.517 489.775 140.314 525.407 160.048 547.761 172.886 553.551 176.869 556.522 178.831 558.082 180.291 557.482 182.219 555.164 187.411 544.378 212.703 533.159 238.65 532.118 240.486 530.043 243.041 527.015 245.659 522.902 247.364 517.978 248.326 514.643 248.457 510.381 247.518 479.065 238.158 461.616 234 459.279 233.447 457.505 233.529 456.22 234.101 454.555 235.628 454.074 237.393 455.617 262.901 455.611 266.233 454.861 269.064 453.5 272.194 451.963 274.657 450.149 276.421 447.585 278.134 443.574 280.047 439.827 280.678 438.124 280.69 308.356 279.134" fill="none" stroke="#e10600" stroke-linecap="round" stroke-linejoin="round" stroke-width="3.5"/></svg>