<svg xmlns="http://w3.org" viewBox="0 0 800 600" width="100%" height="100%">
  <path d="M 516.55 474.88 L 468.34 487.69 L 348.89 520.20 L 340.66 520.82 L 335.17 515.85 L 325.92 497.95 L 296.66 458.41 L 264.91 413.27 L 239.96 373.42 L 217.20 334.13 L 179.96 252.94 L 169.70 231.30 L 153.95 205.81 L 129.72 176.16 L 89.48 135.75 L 52.24 98.51 L 50.00 93.54 L 50.25 88.25 L 54.52 85.64 L 64.27 83.90 L 94.76 80.36 L 125.24 79.18 L 156.74 79.49 L 186.72 82.41 L 221.46 88.00 L 327.65 108.52 L 376.12 114.92 L 480.83 119.34 L 489.36 122.26 L 494.60 128.10 L 496.58 134.57 L 496.08 141.34 L 493.33 147.75 L 482.86 162.73 L 474.59 172.68 L 459.34 186.17 L 442.62 195.25 L 422.36 201.96 L 400.36 205.50 L 377.39 204.01 L 288.17 189.65 L 276.18 191.14 L 266.43 194.62 L 257.94 200.53 L 250.43 208.42 L 245.70 217.81 L 243.17 228.07 L 242.70 237.46 L 244.18 247.72 L 246.92 255.30 L 290.16 330.90 L 297.42 338.86 L 308.91 346.13 L 322.16 349.11 L 334.91 347.93 L 348.38 342.34 L 356.66 335.62 L 365.15 325.05 L 373.13 314.80 L 381.65 306.03 L 391.87 299.01 L 403.86 291.92 L 420.63 285.76 L 438.11 281.97 L 576.55 279.05 L 683.04 276.44 L 694.27 276.69 L 705.24 280.54 L 714.28 287.26 L 721.50 296.33 L 726.99 308.33 L 748.73 381.63 L 750.00 388.34 L 748.73 393.32 L 746.24 397.17 L 737.76 403.88 L 726.52 410.60 L 712.00 417.93 L 695.53 424.96 L 676.03 431.43 L 516.55 474.88" fill="none" stroke="#e10600" stroke-width="4.5" stroke-linecap="round" stroke-linejoin="round" />
</svg>