<svg id="Layer_1" data-name="Layer 1" xmlns="http://www.w3.org/2000/svg" viewBox="0 0 543.726 339.064"><title>australian_gp</title><polyline points="278.376 311.665 243.501 305.339 191.17 294.967 188.149 294.37 185.69 292.399 185.068 291.226 184.889 289.865 184.196 286.61 183.827 282.335 182.218 277.653 179.518 272.385 177.213 268.749 171.396 262.568 167.635 259.966 163.009 257.726 158.511 256.464 149.285 254.744 138.698 253.231 123.465 250.635 104.134 246.35 96.372 244.618 74.231 237.804 62.908 233.941 50.212 228.507 24.35 215.943 17.49 212.149 12.77 209.022 11.347 206.457 11.181 204.06 12.807 201.123 20.127 193.989 33.652 180.026 34.978 178.054 35.611 176.518 35.644 174.898 34.469 170.718 32.249 166.986 10.2 137.017 2.14 126.017 1.75 124.876 2.429 118.705 3.902 114.313 15.744 81.452 18.886 74.93 36.289 48.577 43.149 39.057 47.996 28.439 51.656 20.345 54.124 17.935 56.338 16.384 59.239 16.189 64.159 17.543 69.44 18.193 76.124 18.303 83.328 16.536 91.38 12.363 98.308 8.084 104.584 5.049 112.437 2.914 119.872 1.75 129.192 2.112 135.921 2.991 143.781 5.568 152.278 9.65 159.166 15.023 164.171 19.4 167.915 23.384 194.674 50.399 197.355 54.234 199.914 59.295 201.642 65.075 202.626 70.337 202.536 77.018 202.054 82.597 201.817 89.15 202.362 93.418 203.395 97.962 205.113 102.76 221.94 141.13 224.284 145.614 227.386 150.722 230.469 155.233 236.459 163.16 241.743 168.868 248.463 174.964 255.433 180.546 262.365 184.71 269.118 188.348 279.125 192.616 285.62 195.175 296.786 197.623 331.19 202.028 336.358 202.338 340.718 201.905 343.814 201.425 349.278 199.706 353.867 197.102 359.007 193.284 363.759 189.997 368.262 186.653 372.282 184.095 376.206 182.63 380.681 181.968 383.86 181.697 390.415 182.541 427.832 186.521 441.669 187.867 449.495 190.087 455.223 191.611 462.479 194.754 471.601 200.54 482.14 208.4 513.559 234.322 533.185 251.035 538.148 256.011 540.709 258.483 541.976 260.204 541.033 261.989 537.804 266.669 522.571 289.56 506.792 313.015 505.432 314.629 502.924 316.762 499.469 318.781 495.113 319.705 490.096 319.748 486.794 319.267 482.775 317.563 453.701 302.63 437.308 295.348 435.112 294.376 433.354 294.133 431.985 294.46 430.069 295.656 429.272 297.303 426.121 322.663 425.505 325.937 424.25 328.583 422.338 331.411 420.376 333.551 418.271 334.953 415.436 336.168 411.143 337.314 407.343 337.249 405.667 336.949 278.376 311.665" fill="none" stroke="#e10600" stroke-linecap="round" stroke-linejoin="round" stroke-width="3.5"/></svg>