<svg viewBox="0 0 400 300" xmlns="http://www.w3.org/2000/svg"><path d="M206.4,19.8 L203.0,19.6 L198.9,19.5 L195.4,19.6 L188.5,20.0 L182.4,20.7 L179.1,21.3 L175.4,22.2 L171.9,23.1 L168.9,24.2 L166.2,25.4 L164.1,26.6 L162.1,28.0 L159.9,29.8 L158.1,31.7 L156.3,33.8 L155.1,35.8 L154.2,37.7 L153.4,39.7 L152.6,42.1 L152.2,44.2 L152.2,45.9 L152.2,48.7 L152.5,51.8 L153.0,54.5 L153.6,57.2 L154.5,59.7 L156.0,63.4 L158.0,68.0 L185.0,130.8 L188.8,139.5 L191.2,145.0 L203.9,174.5 L206.2,179.2 L207.5,182.2 L208.3,184.1 L209.2,186.6 L209.8,188.9 L210.3,191.6 L210.5,194.4 L210.6,197.0 L210.6,199.6 L210.3,201.8 L209.2,205.5 L208.0,208.3 L206.5,210.7 L204.2,213.4 L202.3,215.2 L200.2,216.9 L197.4,218.9 L194.6,220.6 L175.7,229.6 L170.4,232.1 L166.2,234.7 L164.5,235.9 L163.2,237.2 L162.2,238.4 L161.1,240.3 L160.2,241.7 L159.7,243.5 L159.3,244.9 L159.1,246.4 L159.3,248.0 L159.7,249.5 L160.3,251.2 L160.9,252.5 L161.7,253.9 L163.0,255.4 L164.3,256.8 L165.9,258.1 L167.7,259.2 L169.4,260.0 L171.4,260.8 L174.2,261.3 L176.2,261.5 L178.4,261.5 L180.4,261.3 L182.9,260.9 L185.3,260.4 L187.5,259.7 L189.4,259.0 L190.9,258.1 L194.6,255.7 L196.2,254.3 L201.8,250.2 L227.0,228.1 L233.0,222.5 L234.4,220.8 L237.0,217.8 L238.5,215.9 L239.8,213.8 L241.2,211.3 L242.6,208.1 L243.6,205.4 L244.4,202.1 L244.7,199.7 L244.6,197.1 L244.3,193.7 L244.1,190.9 L243.7,188.0 L243.3,185.7 L242.5,181.7 L239.3,169.5 L235.8,157.1 L236.0,155.0 L236.4,153.9 L236.8,153.2 L237.7,152.2 L238.7,151.7 L240.2,151.3 L241.8,151.2 L243.6,151.3 L244.8,151.6 L246.3,152.3 L247.9,153.6 L249.2,155.4 L255.2,162.8 L256.5,164.4 L257.6,165.8 L258.5,167.1 L259.6,169.1 L260.1,170.4 L263.5,178.5 L264.2,179.5 L265.0,180.8 L266.5,182.2 L268.0,183.5 L270.1,184.7 L272.1,185.4 L273.7,185.7 L276.0,185.8 L279.1,185.4 L281.9,184.4 L284.0,182.7 L285.5,181.3 L286.4,180.0 L287.1,178.3 L287.4,176.8 L287.7,174.3 L287.8,172.9 L288.0,166.4 L287.9,159.0 L287.6,155.5 L287.2,151.6 L286.8,149.6 L286.1,147.3 L285.4,145.7 L284.5,143.2 L283.3,140.7 L282.5,139.3 L273.2,123.3 L272.2,121.1 L271.2,118.7 L270.5,116.2 L270.0,113.6 L269.8,111.9 L269.8,109.8 L270.1,107.6 L270.6,105.5 L271.2,104.0 L272.3,101.3 L273.9,98.2 L276.9,93.0 L283.5,80.9 L284.1,78.8 L285.0,76.2 L285.4,73.9 L285.6,72.5 L285.7,68.5 L285.7,66.9 L285.5,65.8 L285.1,64.3 L284.5,62.8 L283.6,61.2 L282.7,59.7 L281.4,58.0 L279.6,56.5 L277.7,55.0 L275.6,53.6 L273.5,52.5 L271.2,51.5 L268.4,50.8 L266.1,50.3 L264.0,49.9 L262.0,49.7 L258.6,49.8 L255.7,50.0 L253.1,50.3 L250.0,50.6 L247.7,51.0 L240.0,52.5 L233.0,53.9 L231.4,54.1 L229.5,54.2 L228.3,54.2 L226.8,53.9 L225.8,53.5 L224.8,52.8 L224.2,52.0 L223.8,51.1 L223.7,50.0 L223.8,48.8 L224.1,47.9 L224.6,47.1 L228.4,42.2 L230.0,39.6 L230.6,38.2 L231.1,36.9 L231.3,35.4 L231.3,34.2 L231.2,32.7 L231.0,31.6 L230.7,30.7 L230.2,29.5 L229.8,28.6 L229.1,27.7 L228.2,26.7 L227.3,25.7 L226.4,24.9 L224.7,23.8 L222.8,22.8 L221.1,22.1 L219.5,21.6 L218.1,21.2 L215.1,20.4 L212.4,20.0 L210.3,19.9 L206.4,19.8 L184.7,125.3 L185.4,126.8 L186.5,128.9 L187.6,130.7 L188.8,132.6 L190.2,135.0 L191.2,137.3 L192.2,139.5 L193.4,142.3 L194.2,144.3 L195.2,146.7 L199.0,155.8 L203.1,165.2 L207.1,174.4 L209.7,180.4 L210.1,181.6 L210.6,182.9 L211.0,184.6 L211.2,186.0 L211.4,187.8 L211.6,189.7 L211.5,192.7 L211.0,195.2 L210.6,197.0 L160.9,196.9 L161.1,196.6 L161.1,196.2 L160.8,195.5 L160.3,194.9 L159.1,194.3 L158.0,194.1 L155.8,193.7 L154.3,193.7 L153.1,193.8 L152.0,194.1 L151.0,194.6 L150.1,195.2 L149.6,195.7 L149.2,196.4 L148.9,197.3 L148.8,198.5 L149.6,207.6 L151.0,219.1 L151.0,220.4 L150.8,221.1 L150.4,221.9 L149.7,222.6 L148.8,223.1 L141.6,225.7 L140.9,226.1 L140.4,226.6 L139.9,227.4 L139.7,228.0 L139.9,228.7 L140.3,229.4 L141.0,230.1 L141.8,230.7 L142.8,231.2 L143.7,231.3 L144.7,231.3 L145.7,231.0 L146.8,230.5 L154.3,226.5 L155.1,225.9 L155.6,225.3 L156.1,224.5 L156.4,223.7 L156.5,222.8 L156.5,221.4 L156.6,217.6 L156.7,217.0 L157.0,216.6 L157.3,216.3 L157.7,216.2 L158.2,216.1 L158.7,216.2 L159.1,216.4 L159.3,216.7 L159.5,217.1 L159.6,217.5 L159.7,218.5 L160.0,220.4 L160.3,221.2 L160.8,221.7 L161.6,222.1 L162.3,222.2 L163.1,222.0 L163.8,221.7 L164.2,221.2 L164.6,220.6 L164.8,220.0 L165.0,219.0 L165.0,217.8 L164.8,216.3 L164.2,212.0 L164.2,211.2 L164.4,210.3 L164.8,209.6 L165.4,208.8 L168.5,205.6 L168.8,205.0 L168.9,204.3 L168.9,203.4 L168.6,202.8 L168.3,202.2 L167.7,201.6 L166.9,201.1 L166.3,200.8 L165.4,200.7 L162.9,200.6 L161.0,200.7 L160.3,200.6 L159.9,200.4 L159.5,200.0 L159.3,199.8 L159.2,199.4 L159.2,199.0 L159.4,198.5 L160.2,197.7 L160.9,196.9 L150.1,195.2 L151.7,192.4 L152.2,191.5 L152.5,191.2 L152.9,190.9 L153.5,190.9 L159.1,191.9 L160.3,192.2 L161.3,192.8 L161.9,193.9 L162.0,194.4 L162.1,195.0 L162.1,195.4 L161.9,196.0 L161.5,196.5 L160.9,196.9 L161.9,193.9 L162.6,195.3 L163.3,196.5 L163.6,197.2 L163.9,197.9 L164.2,198.2 L164.8,199.0 L167.7,201.6 L184.7,125.3 L188.8,139.5 L195.4,19.6 L189.4,21.0 L186.9,21.6 L183.6,22.8 L180.1,24.4 L177.3,25.8 L174.6,27.6 L173.5,28.5 L172.1,29.7 L171.1,31.2 L169.9,33.3 L168.5,35.9 L162.6,46.8 L161.5,48.9 L160.6,51.0 L159.6,53.1 L159.3,54.7 L158.8,57.1 L158.4,59.0 L158.4,60.7 L158.5,61.9 L158.9,63.1 L160.2,67.0 L160.2,67.0 L178.2,109.4 L178.5,110.1 L184.7,125.3 Z" fill="none" stroke="#f97316" stroke-width="3.5" stroke-linecap="round" stroke-linejoin="round"/></svg>