<svg xmlns="http://w3.org" viewBox="0 0 800 600" width="100%" height="100%">
  <path d="M 357.35 419.07 L 332.12 394.17 L 294.78 356.07 L 292.62 353.88 L 291.70 350.86 L 291.85 349.54 L 292.47 348.32 L 293.73 345.24 L 295.84 341.50 L 297.16 336.73 L 297.90 330.86 L 298.05 326.55 L 296.74 318.17 L 295.10 313.90 L 292.54 309.44 L 289.54 305.86 L 282.90 299.23 L 275.01 292.01 L 263.90 281.27 L 250.36 266.82 L 244.93 261.01 L 230.50 242.89 L 223.33 233.31 L 215.91 221.66 L 201.65 196.69 L 198.13 189.69 L 196.00 184.45 L 196.27 181.52 L 197.49 179.45 L 200.49 177.94 L 210.56 176.19 L 229.60 172.29 L 231.81 171.41 L 233.20 170.50 L 234.14 169.18 L 235.53 165.07 L 235.80 160.73 L 234.51 123.55 L 234.07 109.92 L 234.39 108.76 L 238.43 104.05 L 242.13 101.25 L 270.45 80.81 L 276.72 77.20 L 305.96 65.26 L 317.00 61.27 L 326.99 55.24 L 334.58 50.63 L 337.98 50.03 L 340.68 50.00 L 343.18 51.48 L 346.48 55.37 L 350.48 58.89 L 355.93 62.75 L 362.88 65.36 L 371.88 66.46 L 380.01 66.83 L 386.91 67.87 L 394.59 70.54 L 401.39 73.77 L 408.88 79.33 L 413.94 83.85 L 418.97 90.42 L 423.68 98.58 L 426.34 106.91 L 428.00 113.34 L 428.84 118.75 L 435.69 156.15 L 435.74 160.83 L 434.99 166.45 L 433.16 172.20 L 431.00 177.10 L 427.16 182.56 L 423.61 186.89 L 419.72 192.17 L 417.76 196.00 L 416.05 200.34 L 414.76 205.27 L 406.99 246.44 L 406.40 251.46 L 406.08 257.43 L 406.08 262.89 L 406.55 272.82 L 407.69 280.51 L 409.80 289.34 L 412.40 297.88 L 415.77 305.23 L 419.29 312.04 L 425.15 321.21 L 429.06 326.99 L 436.90 335.31 L 462.82 358.37 L 466.91 361.54 L 470.75 363.64 L 473.58 364.99 L 479.06 366.66 L 484.32 367.10 L 490.72 366.85 L 496.49 366.81 L 502.10 366.59 L 506.86 366.75 L 510.93 367.76 L 514.99 369.73 L 517.77 371.31 L 522.71 375.70 L 551.35 400.10 L 562.01 409.02 L 567.22 415.27 L 571.09 419.76 L 575.31 426.45 L 579.57 436.38 L 583.84 448.81 L 595.15 487.94 L 601.92 512.82 L 603.21 519.73 L 603.93 523.21 L 604.00 525.35 L 602.21 526.29 L 596.91 528.33 L 571.41 538.63 L 545.15 549.09 L 543.12 549.65 L 539.84 550.00 L 535.85 549.72 L 531.73 548.02 L 527.57 545.23 L 525.11 542.97 L 522.76 539.29 L 507.18 510.56 L 497.76 495.29 L 496.49 493.25 L 495.18 492.06 L 493.87 491.56 L 491.61 491.46 L 490.02 492.37 L 473.11 511.53 L 470.75 513.88 L 468.22 515.36 L 465.05 516.62 L 462.22 517.28 L 459.69 517.24 L 456.67 516.65 L 452.48 515.17 L 449.38 512.97 L 448.16 511.78 L 357.35 419.07" fill="none" stroke="#e10600" stroke-width="4.5" stroke-linecap="round" stroke-linejoin="round" />
</svg>