<svg viewBox="0 0 400 300" xmlns="http://www.w3.org/2000/svg">
  <path d="M176.5,202.8 L175.0,201.4 L173.0,199.5 L170.5,197.2 L168.8,195.5 L167.8,194.6 L163.6,190.5 L159.8,187.0 L155.8,183.2 L154.3,181.7 L151.9,179.5 L149.2,177.0 L146.9,174.4 L146.0,173.2 L144.9,171.4 L144.2,169.5 L144.1,167.7 L144.2,166.2 L144.6,164.6 L145.5,160.7 L145.8,159.5 L145.9,156.7 L145.5,153.6 L144.8,150.7 L144.6,150.3 L143.9,148.7 L141.1,144.7 L138.7,142.1 L137.7,141.1 L134.9,138.8 L133.1,137.2 L130.0,134.3 L128.1,132.6 L126.7,131.2 L123.2,127.7 L121.4,125.9 L118.7,123.1 L117.4,121.6 L116.0,120.0 L112.9,116.4 L111.4,114.6 L109.6,112.4 L107.1,109.2 L105.6,107.2 L103.5,104.3 L101.9,102.0 L100.4,99.8 L98.4,96.8 L95.9,93.1 L93.5,89.4 L92.7,87.9 L92.2,86.9 L91.5,85.2 L91.3,83.5 L91.3,82.4 L91.5,81.3 L91.7,80.6 L92.6,79.4 L93.8,78.5 L95.0,78.2 L95.8,78.0 L97.2,77.8 L98.2,77.7 L100.2,77.4 L102.1,77.2 L104.7,76.8 L105.8,76.5 L107.2,75.9 L108.6,75.1 L109.6,74.2 L110.6,73.1 L111.6,71.1 L111.9,70.0 L112.2,68.0 L112.2,67.3 L112.1,65.7 L111.8,63.1 L111.6,61.7 L111.3,59.6 L111.0,58.0 L110.7,56.0 L110.4,53.9 L110.1,50.3 L110.2,47.9 L110.6,44.9 L111.4,42.3 L112.8,39.8 L113.7,38.6 L115.4,36.7 L116.8,35.4 L119.4,33.4 L120.8,32.4 L124.0,30.0 L125.5,29.0 L128.8,27.1 L129.2,26.9 L132.2,25.3 L134.5,24.2 L137.7,22.8 L140.3,21.6 L142.6,20.6 L144.4,19.9 L147.0,18.7 L150.3,17.2 L154.0,15.4 L156.9,13.8 L160.0,11.9 L162.5,10.6 L164.1,10.3 L165.6,10.4 L167.5,10.8 L170.1,12.4 L170.8,12.9 L173.1,14.6 L175.3,15.7 L177.8,16.7 L179.5,17.1 L181.1,17.5 L183.0,17.9 L186.9,18.6 L189.7,19.2 L192.5,20.0 L194.4,20.7 L198.2,22.3 L201.6,24.5 L203.5,26.2 L207.1,30.2 L209.3,33.6 L210.7,36.3 L212.0,39.1 L213.0,42.0 L213.7,44.3 L214.3,46.6 L216.2,57.5 L216.3,62.4 L216.2,64.3 L216.0,67.5 L215.7,71.7 L215.3,74.6 L214.4,78.6 L213.6,81.0 L213.1,82.1 L212.5,84.0 L211.6,86.6 L210.9,88.8 L210.0,91.4 L209.3,93.6 L207.7,97.9 L206.5,100.5 L205.4,102.8 L205.0,103.7 L204.2,106.1 L203.5,108.9 L203.1,111.5 L202.8,114.6 L203.1,122.1 L203.5,125.8 L203.8,127.9 L204.2,130.2 L204.9,133.0 L205.6,135.5 L206.7,138.5 L208.1,141.7 L209.0,143.6 L209.7,145.0 L211.2,147.8 L212.8,150.6 L215.5,154.2 L217.9,157.1 L220.4,159.7 L222.6,161.7 L225.3,164.3 L227.1,165.9 L229.6,167.9 L231.5,169.5 L235.0,172.2 L236.5,173.2 L239.2,174.6 L241.3,175.3 L244.1,175.4 L246.8,175.1 L249.8,174.6 L252.6,174.3 L255.7,174.3 L259.1,174.7 L259.7,174.8 L261.5,175.6 L263.5,176.9 L266.4,179.2 L267.9,180.5 L269.2,181.6 L270.7,182.9 L272.9,184.7 L274.8,186.3 L275.8,187.2 L277.7,188.8 L279.5,190.3 L281.8,192.3 L284.3,194.4 L285.1,195.2 L287.5,197.5 L288.8,198.9 L290.1,200.4 L292.2,203.2 L294.0,206.1 L295.6,208.9 L298.0,214.4 L299.0,217.0 L300.1,219.9 L301.0,222.5 L301.7,224.5 L302.7,227.6 L303.0,228.4 L304.2,232.1 L304.9,234.3 L305.6,236.6 L307.0,240.8 L307.4,242.1 L308.3,244.8 L309.5,249.2 L310.0,251.8 L310.7,255.5 L310.9,256.8 L310.8,259.3 L310.3,260.8 L309.6,261.6 L308.8,262.2 L307.1,262.8 L305.4,263.4 L302.8,264.1 L301.1,264.6 L299.2,265.1 L298.0,265.4 L295.5,266.0 L292.6,266.7 L290.6,267.2 L288.1,267.8 L286.8,268.2 L283.9,268.9 L282.6,269.3 L280.5,269.9 L278.5,270.2 L275.8,270.3 L274.3,270.1 L273.4,269.8 L271.5,268.9 L270.0,267.9 L267.2,264.8 L265.2,262.0 L264.3,260.4 L263.5,258.9 L262.5,256.9 L261.3,254.4 L259.8,251.1 L259.1,249.6 L258.3,248.0 L256.8,245.5 L256.1,244.5 L255.4,243.6 L254.3,242.4 L253.5,241.8 L252.3,241.5 L251.1,241.5 L250.4,241.7 L249.5,242.1 L249.0,242.5 L248.2,243.2 L247.6,243.9 L247.1,244.5 L246.6,245.2 L245.5,247.0 L244.6,248.5 L243.4,250.1 L240.7,252.2 L237.9,253.5 L236.4,253.8 L234.9,253.9 L231.4,253.3 L229.5,252.6 L227.8,251.7 L226.7,251.0 L225.2,249.8 L223.3,248.1 L221.5,246.4 L218.7,243.7 L215.2,240.3 L213.4,238.5 L211.7,236.9 L209.9,235.0 L207.5,232.7 L205.1,230.3 L202.7,228.1 L200.6,225.9 L198.7,224.1 L197.3,222.8 L194.1,219.5 L192.5,218.0 L188.9,214.6 L187.1,212.9 L184.1,210.0 L182.2,208.2 Z"
    fill="none"
    stroke="#FF6600"
    stroke-width="4"
    stroke-linecap="round"
    stroke-linejoin="round"/>
</svg>