<svg viewBox="0 0 400 300" xmlns="http://www.w3.org/2000/svg">
  <path d="M356.9,97.4 L362.3,95.2 L363.8,94.5 L370.8,91.6 L372.6,90.9 L377.4,88.9 L380.5,87.5 L384.8,85.7 L386.7,85.0 L389.3,84.0 L391.9,83.1 L393.1,82.5 L394.4,81.6 L395.2,80.9 L395.8,80.3 L397.0,78.3 L397.5,76.7 L397.5,75.3 L397.5,74.9 L397.2,73.6 L396.5,71.4 L395.5,69.1 L394.9,67.8 L393.8,65.4 L393.2,64.0 L392.6,62.4 L391.6,60.2 L390.8,58.4 L389.9,56.3 L388.6,53.3 L387.2,50.3 L386.1,47.8 L384.7,44.7 L383.5,41.9 L382.6,40.0 L381.7,37.8 L380.0,34.0 L378.8,31.2 L378.1,29.7 L377.2,27.8 L376.6,26.8 L375.6,25.7 L374.4,25.2 L373.5,25.1 L372.5,25.2 L371.3,25.5 L369.9,25.9 L368.0,26.6 L366.7,27.1 L364.8,27.8 L363.0,28.5 L361.1,29.3 L359.6,29.8 L357.4,30.6 L356.5,30.9 L353.1,32.2 L350.6,33.1 L347.7,34.2 L346.0,34.8 L343.4,35.8 L341.6,36.5 L339.1,37.4 L337.1,38.2 L334.7,39.1 L330.4,40.7 L326.0,42.3 L324.0,43.1 L320.7,44.4 L315.5,46.5 L311.7,48.2 L309.3,49.2 L306.1,50.6 L303.2,51.8 L299.4,53.4 L295.9,55.0 L291.2,57.0 L287.0,58.8 L283.7,60.2 L280.3,61.7 L277.4,62.9 L274.9,64.1 L270.6,65.9 L266.9,67.6 L250.5,74.9 L248.6,75.7 L245.2,77.3 L243.5,78.0 L239.8,79.7 L239.1,80.1 L237.6,80.9 L237.1,81.2 L236.1,82.1 L235.1,83.8 L235.1,85.0 L235.3,85.6 L235.6,86.6 L236.1,87.9 L236.8,89.3 L237.5,90.6 L238.3,92.3 L238.9,93.8 L239.7,96.0 L240.2,97.5 L240.7,99.1 L241.5,101.4 L242.6,104.1 L243.5,106.0 L245.0,109.1 L245.6,110.6 L246.6,112.9 L247.1,114.0 L247.6,115.6 L248.0,117.9 L247.9,118.9 L247.8,119.5 L246.8,121.0 L245.5,122.0 L244.5,122.5 L242.6,123.4 L240.6,124.2 L239.4,124.6 L238.4,125.0 L236.2,125.8 L234.7,126.5 L232.0,127.6 L231.0,128.1 L228.7,129.1 L227.0,129.8 L224.1,131.0 L222.6,131.7 L221.0,132.5 L217.6,134.4 L215.8,135.4 L213.4,136.9 L211.1,138.3 L210.2,138.8 L206.2,141.0 L204.6,141.9 L201.5,143.9 L200.6,144.6 L199.6,145.4 L198.8,146.3 L198.1,147.4 L197.7,148.3 L197.5,149.0 L197.4,150.1 L197.6,151.1 L197.8,151.7 L198.4,153.2 L198.8,153.9 L199.3,154.9 L199.7,155.9 L199.8,156.6 L199.8,157.7 L199.5,158.4 L199.1,159.0 L198.4,159.7 L197.5,160.5 L196.4,161.3 L195.6,161.8 L194.3,162.5 L192.3,163.8 L190.7,164.9 L189.1,166.1 L187.6,167.3 L184.1,170.1 L182.9,171.0 L181.3,172.2 L178.4,174.4 L175.2,176.8 L171.9,179.3 L169.1,181.5 L168.1,182.2 L164.9,184.6 L161.6,187.2 L159.0,189.1 L157.2,190.4 L154.4,192.6 L153.0,193.7 L151.8,194.7 L150.7,195.6 L149.9,196.2 L148.5,197.2 L147.9,197.6 L147.1,198.0 L146.0,198.3 L145.8,198.3 L144.4,198.1 L143.9,197.7 L143.4,197.1 L142.3,195.3 L142.0,194.5 L141.6,193.6 L141.4,192.7 L141.0,191.8 L140.7,190.7 L140.2,189.0 L139.7,187.6 L139.1,185.5 L138.1,182.0 L137.6,180.3 L137.0,178.5 L136.2,175.9 L135.2,172.4 L134.5,170.0 L133.9,168.1 L133.4,166.5 L132.9,165.7 L132.2,165.2 L130.9,164.6 L130.4,164.4 L127.8,163.4 L125.7,162.9 L124.3,162.6 L122.8,162.5 L121.4,162.4 L120.2,162.3 L119.2,162.2 L118.8,162.1 L116.8,161.5 L116.0,161.0 L115.2,160.4 L114.2,158.7 L113.9,157.4 L113.9,156.2 L113.9,155.2 L113.8,154.4 L113.4,153.5 L112.8,152.8 L110.6,152.1 L109.3,152.1 L106.7,152.2 L104.7,152.5 L103.2,152.9 L102.6,153.0 L101.4,153.4 L98.4,154.5 L96.8,155.2 L95.0,156.0 L92.2,157.3 L89.6,158.4 L87.7,159.2 L85.7,160.0 L82.9,161.4 L81.0,162.5 L79.1,163.4 L76.8,164.6 L72.2,166.8 L70.0,168.0 L68.2,168.9 L66.2,170.1 L64.0,171.4 L59.3,174.1 L54.7,176.6 L53.0,177.6 L51.5,178.6 L48.5,181.8 L46.3,186.6 L45.3,189.5 L44.7,191.4 L43.3,196.2 L41.7,201.1 L40.8,204.1 L39.6,207.7 L38.6,211.5 L38.1,214.2 L37.7,217.4 L37.6,219.8 L37.6,223.9 L37.8,226.3 L38.0,229.0 L38.3,233.4 L38.4,234.6 L38.7,238.0 L38.9,242.1 L38.8,245.4 L38.4,249.6 L38.4,250.2 L38.2,252.0 L38.2,253.0 L38.2,254.4 L38.4,255.4 L38.9,256.6 L39.5,257.3 L40.2,257.8 L41.2,258.3 L42.7,259.0 L43.7,259.5 L45.7,260.6 L47.0,261.2 L49.1,262.3 L50.6,263.1 L51.9,263.7 L55.0,265.3 L58.8,267.2 L61.8,268.7 L63.7,269.8 L67.1,271.8 L69.9,273.4 L72.9,275.1 L77.9,277.7 L82.5,280.3 L83.7,281.0 L84.9,281.7 L87.6,282.9 L88.5,283.2 L90.8,283.8 L93.4,283.6 L95.4,282.6 L96.2,281.7 L97.8,279.3 L99.4,276.1 L100.3,274.3 L101.3,272.2 L102.0,270.9 L103.4,268.0 L104.4,266.0 L105.2,264.3 L106.9,261.0 L107.9,259.4 L109.6,256.7 L111.3,254.2 L113.5,251.3 L115.0,249.6 L116.5,248.0 L119.4,245.4 L121.1,243.9 L124.9,240.6 L126.7,239.0 L129.4,236.4 L131.4,234.2 L132.2,233.4 L135.4,230.2 L139.4,226.4 L141.1,224.0 L142.5,221.2 L143.8,217.7 L145.2,212.2 L145.7,209.7 L146.4,206.6 L147.6,202.8 L149.6,199.2 L153.0,195.6 L153.5,195.3 L157.4,192.3 L160.2,190.3 L163.0,188.3 L167.6,184.7 L170.4,182.6 L173.2,180.4 L176.3,178.1 L179.1,175.9 L182.0,173.7 L185.6,171.0 L186.8,170.1 L190.6,167.1 L195.3,163.9 L197.1,162.9 L203.0,160.1 L209.2,157.6 L213.8,155.8 L215.7,155.0 L220.6,153.1 L225.1,151.2 L228.2,149.9 L232.5,148.2 L238.5,145.7 L242.7,143.9 L245.3,142.9 L248.1,141.7 L250.7,140.6 L255.2,138.7 L258.7,137.2 L262.4,135.6 L265.6,134.3 L267.9,133.3 L271.4,131.8 L273.7,130.9 L279.0,128.6 L295.8,121.5 L300.9,119.5 L301.4,119.3 L306.9,117.2 L310.9,115.7 L315.1,114.2 L318.2,113.0 L324.0,110.8 L330.4,108.5 L332.8,107.5 L338.9,105.0 L342.7,103.3 L346.7,101.7 L348.8,100.8 L351.2,99.8 Z"
    fill="none"
    stroke="#FF6600"
    stroke-width="4"
    stroke-linecap="round"
    stroke-linejoin="round"/>
</svg>