<svg xmlns="http://w3.org" viewBox="0 0 800 600" width="100%" height="100%">
  <path d="M 687.32 178.06 L 737.40 156.60 L 740.05 154.49 L 741.75 151.38 L 742.08 148.38 L 741.24 144.05 L 731.06 117.70 L 713.86 84.35 L 699.67 52.07 L 697.33 50.52 L 694.34 50.00 L 646.43 69.17 L 587.83 91.86 L 507.89 127.80 L 438.97 159.37 L 434.46 164.11 L 434.46 170.55 L 456.99 228.99 L 457.16 233.54 L 453.66 237.54 L 414.44 256.05 L 392.25 268.26 L 362.35 287.43 L 360.52 289.88 L 361.20 293.39 L 366.19 304.35 L 366.02 307.50 L 363.51 309.94 L 352.17 319.89 L 284.07 372.60 L 272.57 383.04 L 267.72 386.37 L 262.87 386.18 L 258.86 381.82 L 240.84 328.78 L 238.67 326.52 L 235.35 325.82 L 231.00 325.82 L 224.49 321.82 L 220.48 320.78 L 216.31 320.93 L 212.31 321.30 L 207.96 319.56 L 205.79 316.23 L 201.96 303.68 L 200.12 301.39 L 197.45 299.65 L 193.44 299.46 L 164.73 309.42 L 119.00 331.78 L 88.79 349.91 L 82.79 354.80 L 78.11 361.05 L 73.76 369.97 L 58.93 420.38 L 57.92 427.19 L 62.77 496.81 L 64.26 501.18 L 67.93 505.51 L 129.85 537.97 L 147.22 545.67 L 156.73 549.15 L 162.06 550.00 L 168.23 548.96 L 172.57 546.00 L 175.42 542.86 L 194.12 508.32 L 198.46 500.29 L 203.45 493.85 L 256.69 445.33 L 261.03 439.22 L 263.21 433.30 L 267.89 401.36 L 269.89 395.10 L 273.89 389.14 L 278.57 384.96 L 355.19 325.48 L 365.54 318.67 L 377.22 312.38 L 388.07 307.16 L 422.62 292.69 L 453.32 278.37 L 528.25 246.28 L 558.65 232.47 L 636.42 199.34 L 687.32 178.06" fill="none" stroke="#e10600" stroke-width="4.5" stroke-linecap="round" stroke-linejoin="round" />
</svg>