<svg viewBox="0 0 400 300" xmlns="http://www.w3.org/2000/svg"><path d="M322.0,168.2 L321.5,169.1 L320.8,169.9 L319.9,170.8 L318.2,172.3 L316.3,173.7 L314.8,174.6 L313.3,175.5 L309.4,177.4 L279.6,192.4 L273.7,195.4 L253.0,205.9 L223.7,220.7 L184.0,240.7 L178.9,243.2 L178.0,243.6 L177.0,243.8 L176.0,243.8 L175.0,243.6 L174.1,243.3 L173.4,242.8 L172.7,242.3 L172.1,241.6 L168.1,233.5 L167.4,231.8 L166.8,230.1 L166.4,228.4 L166.1,226.6 L166.0,224.9 L166.0,223.1 L166.2,221.3 L166.4,215.1 L167.3,192.3 L167.4,191.6 L174.0,41.1 L174.6,27.2 L175.3,12.1 L175.3,11.4 L175.5,10.8 L175.8,10.2 L176.3,9.7 L176.9,9.3 L177.6,9.1 L178.3,9.1 L179.0,9.2 L179.6,9.4 L180.2,9.8 L181.2,10.6 L191.9,19.9 L192.5,20.4 L193.2,20.7 L194.0,21.0 L194.8,21.1 L195.8,21.1 L196.8,21.0 L197.7,20.6 L212.8,16.0 L214.7,15.7 L216.7,15.4 L218.7,15.3 L221.0,15.4 L223.2,15.6 L224.4,15.9 L231.7,17.2 L265.7,23.0 L301.4,29.0 L314.4,31.2 L338.3,35.4 L339.1,35.5 L339.8,35.8 L340.4,36.3 L340.9,36.8 L341.2,37.4 L341.4,38.1 L341.5,38.8 L341.3,40.8 L341.1,42.2 L340.7,43.5 L340.1,45.0 L339.2,46.4 L338.3,47.5 L336.7,48.8 L269.1,144.1 L270.1,142.6 L271.3,141.3 L272.8,139.8 L274.4,138.4 L290.3,125.8 L292.5,124.0 L294.9,122.3 L297.3,120.8 L299.8,119.3 L302.5,118.0 L305.2,116.8 L308.0,115.7 L317.7,113.3 L334.9,149.1 L334.4,149.6 L333.7,150.0 L333.0,150.2 L332.2,150.3 L331.5,150.3 L330.7,150.1 L330.0,149.8 L329.4,149.3 L327.9,147.5 L326.1,145.2 L324.7,143.4 L323.2,141.7 L321.6,140.2 L320.0,138.7 L318.3,137.4 L316.3,136.0 L314.2,134.7 L312.7,134.0 L311.3,133.3 L310.2,132.9 L309.3,132.4 L308.6,132.0 L307.9,131.5 L307.2,130.8 L306.6,130.0 L306.2,129.1 L305.9,128.2 L305.8,127.1 L305.9,126.1 L306.3,125.0 L306.7,124.0 L307.4,123.1 L308.3,122.0 L309.3,121.0 L313.0,117.7 L317.7,113.3 L317.7,113.3 L318.3,112.8 L318.8,112.2 L319.1,111.6 L319.3,110.9 L319.4,110.1 L319.3,109.3 L319.1,108.5 L318.7,107.6 L318.1,105.6 L317.3,102.1 L316.7,99.0 L316.3,96.0 L316.2,93.8 L316.1,93.1 L316.1,90.2 L316.2,87.9 L316.3,83.3 L316.2,82.0 L316.1,80.6 L315.9,79.6 L315.5,78.6 L314.9,77.7 L314.2,76.9 L313.4,76.2 L312.5,75.6 L311.5,75.2 L310.4,74.9 L309.3,74.7 L304.4,74.3 L77.7,237.3 L77.1,238.6 L76.5,239.6 L75.8,240.6 L75.0,241.5 L74.2,242.3 L73.3,243.0 L72.2,243.6 L71.1,244.0 L69.8,244.2 L68.6,244.3 L67.3,244.1 L66.4,243.9 L65.5,243.5 L64.6,243.0 L63.9,242.3 L63.3,241.6 L62.8,240.8 L62.5,239.9 L62.4,239.3 L62.5,238.7 L62.8,238.1 L63.2,237.6 L63.8,237.2 L64.5,236.9 L65.3,236.8 L66.5,236.6 L67.5,236.4 L68.5,235.9 L69.4,235.3 L69.9,234.6 L70.2,233.8 L70.4,233.0 L70.4,232.4 L70.3,231.7 L70.1,231.1 L68.4,225.7 L68.1,224.4 L68.0,223.1 L68.1,221.7 L68.3,220.6 L68.6,219.6 L69.0,218.5 L69.3,217.6 L73.1,207.7 L73.3,207.2 L73.2,206.7 L73.0,206.2 L72.6,205.8 L72.0,205.6 L71.4,205.5 L70.5,205.6 L66.0,206.0 L65.4,206.0 L64.8,205.9 L64.3,205.7 L63.8,205.4 L63.3,204.8 L63.0,204.2 L63.0,203.5 L63.1,202.9 L64.3,196.9 L65.5,191.2 L65.7,190.5 L66.0,189.8 L66.6,189.2 L67.2,188.7 L67.8,188.4 L68.5,188.1 L69.3,188.0 L70.1,188.0 L80.3,188.4 L81.3,188.4 L85.5,188.6 L86.6,188.6 L89.7,188.7 L93.9,188.9 L105.9,189.3 L106.9,189.3 L108.0,189.6 L108.9,190.0 L109.8,190.6 L110.5,191.3 L111.0,192.1 L111.3,192.8 L111.5,193.5 L111.6,194.3 L111.5,195.0 L111.4,195.7 L111.1,196.4 L110.7,197.1 L110.2,197.7 L102.0,209.0 L101.6,209.5 L101.5,210.1 L101.4,210.7 L101.6,211.4 L101.8,211.9 L102.2,212.5 L104.9,215.7 L105.4,216.7 L105.7,217.8 L105.8,218.9 L105.7,220.1 L105.5,221.0 L105.2,221.8 L104.8,222.7 L104.3,223.5 L100.6,229.0 L100.0,229.8 L99.6,230.6 L99.3,231.5 L99.2,232.4 L99.2,233.6 L99.3,234.7 L99.7,235.8 L102.9,243.1 L103.1,243.8 L103.2,244.6 L103.0,245.4 L102.8,245.9 L102.4,246.4 L101.9,246.9 L101.3,247.2 L100.7,247.3 L100.1,247.4 L99.5,247.3 L98.9,247.1 L98.3,246.9 L85.4,238.2 L167.4,191.6 L168.0,191.1 L168.5,190.5 L168.9,189.9 L169.2,189.1 L169.3,188.4 L170.3,176.1 L170.4,174.8 L170.7,173.1 L170.9,171.5 L171.2,169.6 L171.4,168.0 L171.5,166.1 L171.8,161.9 L175.9,67.6 L175.9,65.3 L175.7,62.9 L175.5,59.4 L174.7,49.7 L174.0,41.1 L231.7,17.2 L231.9,18.0 L231.9,18.9 L231.8,19.8 L231.7,20.6 L231.4,21.5 L228.4,27.5 L225.2,33.8 L221.2,41.7 L220.3,43.4 L174.7,49.7 L182.1,37.7 L183.0,36.5 L183.9,35.4 L185.1,34.5 L186.3,33.7 L187.7,33.0 L189.1,32.6 L190.5,32.3 L191.9,32.2 L193.3,32.2 L194.8,32.4 L195.9,32.7 L197.0,33.2 L198.0,33.7 L198.9,34.4 L204.6,40.0 L206.9,42.1 L208.3,44.1 L208.9,45.1 L209.4,45.9 L209.7,46.9 L209.8,47.8 L336.7,48.8 L331.8,56.8 L331.2,58.1 L330.7,59.5 L330.4,60.9 L330.4,62.3 L330.5,63.8 L330.9,65.2 L331.4,66.6 L332.2,67.9 L344.1,88.2 L345.1,90.0 L346.0,91.8 L346.8,93.7 L347.5,95.9 L348.0,98.1 L348.3,100.3 L348.4,102.5 L348.3,104.8 L348.0,107.0 L347.5,109.2 L346.9,111.3 L346.1,113.1 L345.1,115.4 L343.9,117.3 L342.6,119.1 L341.2,120.9 L337.5,124.4 L336.8,125.0 L336.3,125.6 L335.9,126.4 L335.6,127.2 L335.5,128.1 L335.5,129.0 L335.8,129.9 L336.2,130.8 L339.6,135.9 L340.2,136.7 L340.6,137.7 L340.8,138.6 L340.9,139.5 L340.7,140.3 L340.5,141.1 L340.0,141.9 L334.9,149.1 L304.4,74.3 L303.1,76.0 L301.7,78.2 L300.5,80.5 L298.4,85.1 L297.6,86.6 L297.0,87.6 L296.1,88.7 L295.0,89.7 L293.8,90.6 L292.4,91.4 L290.9,92.1 L289.2,92.5 L287.6,92.7 L285.9,92.8 L284.2,92.6 L276.6,91.4 L275.0,91.2 L273.1,91.0 L270.8,91.0 L268.7,91.3 L267.2,91.7 L265.9,92.2 L264.5,92.9 L262.9,94.0 L261.3,95.2 L259.9,96.5 L258.6,97.9 L235.3,125.1 L234.7,125.7 L233.9,126.2 L233.0,126.5 L232.1,126.6 L231.2,126.6 L230.3,126.4 L229.5,126.0 L228.8,125.5 L228.2,124.9 L227.8,124.2 L227.6,123.4 L227.3,122.0 L227.1,120.6 L227.0,119.3 L227.0,117.7 L227.3,116.1 L232.5,86.8 L236.6,63.6 L236.8,62.1 L236.8,60.6 L236.6,59.1 L236.3,57.7 L235.9,56.4 L235.4,55.2 L234.7,54.0 L234.0,52.9 L232.2,51.0 L230.2,49.2 L228.8,48.1 L227.3,47.0 L225.7,46.0 L222.2,43.6 L221.8,43.3 L221.3,43.2 L220.8,43.2 L220.3,43.4 L219.8,43.7 L219.5,44.1 L219.3,44.6 L217.5,55.9 L216.1,65.6 L215.4,71.5 L214.9,77.5 L214.6,84.7 L213.5,113.5 L212.1,142.5 L210.8,171.5 L210.6,176.7 L210.6,177.9 L210.6,179.1 L210.8,180.3 L211.3,181.4 L211.8,182.3 L212.5,183.2 L213.3,184.0 L214.2,184.7 L215.6,185.3 L217.3,185.7 L219.0,186.0 L220.8,186.1 L222.5,186.2 L223.7,186.2 L226.0,186.0 L228.2,185.7 L230.3,185.3 L232.4,184.7 L234.7,183.8 L236.9,182.8 L238.9,181.6 L240.9,180.3 L242.7,178.8 L244.5,177.2 L246.1,175.5 L247.4,173.9 L248.6,172.2 L249.7,170.5 L250.7,168.7 L251.8,166.3 L252.7,163.9 L255.9,155.9 L256.9,154.1 L258.1,152.4 L259.4,150.8 L260.8,149.3 L262.3,148.1 L263.9,146.9 L265.5,145.8 L267.3,144.9 L269.1,144.1 L271.0,143.4 L272.9,142.8 L274.9,142.4 L276.9,142.0 L279.0,141.9 L281.1,141.8 L283.2,141.9 L285.3,142.2 L287.7,142.7 L290.1,143.4 L291.9,144.1 L293.8,144.9 L296.9,146.4 L309.9,152.1 L311.6,152.8 L313.3,153.7 L314.9,154.7 L316.4,155.8 L317.7,157.0 L318.9,158.2 L319.9,159.5 L320.8,160.9 L321.6,162.3 L322.1,163.2 L322.4,164.2 L322.6,165.2 L322.6,166.2 L322.4,167.3 L322.0,168.2 L336.7,48.8 L333.0,50.8 L330.1,52.5 L327.3,54.4 L324.6,56.4 L322.0,58.4 L318.4,61.3 L314.8,64.3 L311.1,67.7 L307.5,71.1 L305.9,72.7 L304.4,74.3 L79.0,202.4 L78.4,203.0 L77.8,203.3 L77.2,203.6 L76.6,203.7 L73.1,203.8 L72.5,203.9 L72.1,204.1 L71.7,204.3 L71.3,204.5 L70.5,205.6 L85.4,238.2 L85.2,237.4 L85.2,236.6 L85.2,235.8 L85.4,235.0 L85.7,234.3 L86.1,233.5 L91.2,225.0 L91.6,224.1 L91.9,223.2 L92.1,222.3 L92.1,221.3 L91.9,220.3 L91.8,219.7 L90.1,208.6 L89.6,205.5 L89.6,205.0 L89.3,204.6 L89.0,204.3 L88.5,204.1 L88.0,204.0 L87.5,204.1 L87.1,204.3 L86.7,204.6 L83.1,207.5 L82.8,207.9 L82.4,208.5 L82.3,209.0 L82.1,209.5 L81.8,211.9 L79.2,228.9 L78.3,235.0 L78.0,236.2 L77.7,237.3 L85.4,238.2 L83.2,236.7 L82.5,236.4 L81.9,236.2 L81.2,236.1 L80.3,236.1 L79.4,236.3 L78.6,236.7 L77.7,237.3 L91.8,219.7 L91.1,219.4 L90.3,219.2 L89.6,219.3 L89.0,219.4 L88.4,219.7 L87.9,220.0 L79.2,228.9 L69.3,217.6 L77.2,212.0 L77.7,211.6 L78.3,211.4 L78.9,211.4 L79.4,211.5 L81.8,211.9 L84.6,212.2 L85.2,212.2 L85.8,212.1 L86.2,211.9 L86.6,211.5 L90.1,208.6 L97.3,202.3 L97.7,201.8 L97.9,201.2 L98.0,200.6 L97.9,199.9 L97.5,199.3 L96.9,198.0 L93.7,192.2 L93.5,191.7 L93.4,191.2 L93.4,190.6 L93.4,190.1 L93.6,189.5 L93.9,188.9 L80.3,188.4 L80.8,189.4 L81.0,190.4 L81.0,191.2 L80.9,192.0 L79.1,199.8 L78.9,200.4 L78.8,201.1 L78.9,201.8 L79.0,202.4 L79.3,203.1 L79.6,203.7 L82.4,208.5 L203.7,191.1 L201.2,196.8 L199.8,200.1 L199.1,201.9 L198.3,203.5 L197.4,205.1 L196.6,206.6 L195.8,207.9 L194.8,209.1 L193.7,210.3 L192.5,211.3 L191.1,212.3 L189.7,213.2 L188.2,213.9 L186.7,214.1 L185.2,214.2 L183.7,214.1 L182.3,213.9 L180.9,213.4 L179.5,212.9 L178.2,212.1 L177.1,211.2 L176.1,210.2 L175.2,209.0 L174.3,207.7 L173.6,206.3 L172.9,204.9 L172.3,203.4 L171.4,201.0 L170.1,197.7 L169.6,196.4 L168.9,195.1 L167.3,192.3 Z" fill="none" stroke="#3b82f6" stroke-width="3.5" stroke-linecap="round" stroke-linejoin="round"/></svg>