<svg viewBox="0 0 400 300" xmlns="http://www.w3.org/2000/svg"><path d="M309.3,165.1 L308.8,166.0 L308.2,166.7 L307.4,167.5 L305.8,168.8 L304.1,170.1 L302.8,170.9 L301.4,171.7 L298.0,173.4 L271.2,186.9 L265.8,189.6 L247.3,199.0 L220.9,212.3 L185.2,230.3 L180.7,232.6 L179.8,232.9 L178.9,233.1 L178.0,233.1 L177.1,232.9 L176.3,232.6 L175.6,232.2 L175.0,231.7 L174.6,231.1 L170.9,223.8 L170.3,222.3 L169.8,220.8 L169.4,219.2 L169.1,217.7 L169.0,216.1 L169.0,214.5 L169.2,212.9 L169.4,207.2 L170.2,186.8 L170.3,186.2 L176.2,50.9 L176.8,38.4 L177.4,24.8 L177.4,24.2 L177.5,23.6 L177.8,23.1 L178.3,22.6 L178.8,22.3 L179.4,22.1 L180.1,22.1 L180.7,22.2 L181.3,22.4 L181.8,22.8 L182.7,23.5 L192.3,31.8 L192.9,32.2 L193.5,32.5 L194.2,32.8 L195.0,32.9 L195.8,32.9 L196.7,32.8 L197.5,32.5 L211.1,28.3 L212.8,28.0 L214.6,27.8 L216.4,27.7 L218.4,27.7 L220.4,28.0 L221.6,28.2 L228.1,29.3 L258.7,34.6 L290.7,39.9 L302.5,42.0 L324.0,45.7 L324.6,45.9 L325.2,46.1 L325.8,46.5 L326.2,47.0 L326.6,47.5 L326.7,48.1 L326.8,48.8 L326.7,50.6 L326.5,51.9 L326.1,53.1 L325.5,54.4 L324.8,55.6 L323.9,56.6 L322.5,57.8 L261.7,143.4 L262.7,142.1 L263.7,140.9 L265.0,139.6 L266.5,138.3 L280.8,127.0 L282.8,125.4 L284.9,123.9 L287.1,122.5 L289.4,121.2 L291.7,120.0 L294.2,118.9 L296.7,118.0 L305.5,115.7 L320.9,147.9 L320.4,148.4 L319.8,148.7 L319.2,149.0 L318.5,149.1 L317.8,149.0 L317.1,148.9 L316.5,148.6 L315.9,148.1 L314.6,146.6 L313.0,144.4 L311.7,142.8 L310.4,141.3 L308.9,139.9 L307.5,138.6 L306.0,137.4 L304.2,136.2 L302.2,135.0 L300.9,134.3 L299.6,133.7 L298.7,133.4 L297.9,133.0 L297.2,132.6 L296.6,132.1 L296.0,131.5 L295.5,130.8 L295.1,130.0 L294.8,129.1 L294.7,128.2 L294.8,127.3 L295.1,126.3 L295.6,125.4 L296.1,124.6 L296.9,123.6 L297.9,122.7 L301.2,119.7 L305.5,115.7 L305.5,115.7 L306.0,115.3 L306.4,114.8 L306.7,114.2 L306.9,113.6 L307.0,112.9 L306.9,112.2 L306.6,111.5 L306.3,110.6 L305.8,108.9 L305.1,105.7 L304.5,102.9 L304.2,100.2 L304.1,98.2 L304.0,97.6 L304.0,95.0 L304.1,93.0 L304.1,88.8 L304.1,87.6 L304.0,86.3 L303.8,85.4 L303.4,84.6 L302.9,83.7 L302.3,83.0 L301.5,82.4 L300.7,81.9 L299.8,81.5 L298.9,81.2 L297.9,81.1 L293.5,80.7 L89.6,227.3 L89.1,228.4 L88.5,229.3 L87.9,230.2 L87.2,231.0 L86.5,231.8 L85.7,232.4 L84.7,232.9 L83.7,233.3 L82.6,233.5 L81.5,233.5 L80.3,233.4 L79.5,233.2 L78.7,232.8 L77.9,232.3 L77.3,231.8 L76.7,231.1 L76.3,230.4 L76.0,229.6 L75.9,229.1 L76.0,228.5 L76.2,228.0 L76.6,227.5 L77.2,227.1 L77.8,226.9 L78.5,226.8 L79.6,226.6 L80.5,226.5 L81.4,226.0 L82.2,225.5 L82.6,224.8 L82.9,224.1 L83.1,223.4 L83.1,222.8 L83.0,222.2 L82.9,221.7 L81.3,216.8 L81.0,215.6 L81.0,214.4 L81.0,213.2 L81.2,212.3 L81.5,211.3 L81.8,210.3 L82.1,209.5 L85.6,200.7 L85.7,200.2 L85.7,199.7 L85.4,199.3 L85.1,198.9 L84.6,198.7 L84.0,198.7 L83.2,198.7 L79.1,199.1 L78.6,199.1 L78.1,199.0 L77.6,198.8 L77.2,198.5 L76.7,198.1 L76.5,197.5 L76.4,196.9 L76.5,196.3 L77.6,190.9 L78.7,185.8 L78.9,185.2 L79.2,184.6 L79.6,184.0 L80.2,183.6 L80.8,183.3 L81.4,183.1 L82.1,182.9 L82.8,182.9 L92.0,183.3 L92.9,183.3 L96.7,183.4 L97.7,183.5 L100.5,183.6 L104.2,183.7 L115.0,184.1 L116.0,184.1 L116.9,184.3 L117.8,184.7 L118.5,185.2 L119.2,185.9 L119.6,186.6 L119.9,187.2 L120.1,187.9 L120.1,188.6 L120.1,189.2 L119.9,189.9 L119.7,190.5 L119.4,191.1 L118.9,191.7 L111.5,201.8 L111.2,202.3 L111.0,202.8 L111.0,203.4 L111.1,203.9 L111.3,204.5 L111.7,204.9 L114.1,207.8 L114.6,208.7 L114.8,209.7 L114.9,210.7 L114.8,211.8 L114.6,212.6 L114.4,213.3 L114.0,214.1 L113.6,214.8 L110.2,219.8 L109.7,220.5 L109.4,221.3 L109.1,222.0 L109.0,222.9 L108.9,223.9 L109.1,224.9 L109.5,225.9 L112.3,232.5 L112.5,233.1 L112.6,233.8 L112.4,234.5 L112.2,235.0 L111.8,235.5 L111.4,235.9 L110.9,236.1 L110.4,236.2 L109.8,236.3 L109.2,236.2 L108.7,236.1 L108.2,235.8 L96.5,228.0 L170.3,186.2 L170.9,185.7 L171.3,185.2 L171.7,184.6 L171.9,184.0 L172.0,183.3 L172.9,172.2 L173.0,171.0 L173.2,169.6 L173.4,168.1 L173.7,166.4 L173.9,165.0 L174.0,163.2 L174.2,159.4 L178.0,74.6 L177.9,72.6 L177.8,70.5 L177.6,67.3 L176.9,58.6 L176.2,50.9 L210.2,57.0 L209.0,83.7 L204.7,178.8 L203.0,218.1 L202.9,219.0 L202.9,185.7 L203.3,175.9 L208.4,56.9 L228.1,29.3 L228.3,30.1 L228.3,30.9 L228.2,31.7 L228.1,32.5 L227.8,33.2 L225.2,38.6 L222.3,44.3 L218.6,51.4 L217.9,52.9 L176.9,58.6 L183.6,47.8 L184.3,46.7 L185.2,45.7 L186.2,44.9 L187.3,44.2 L188.6,43.6 L189.8,43.2 L191.0,42.9 L192.3,42.8 L193.6,42.8 L194.9,43.0 L195.9,43.3 L196.9,43.7 L197.8,44.2 L198.6,44.9 L203.8,49.8 L205.8,51.8 L207.0,53.6 L207.6,54.4 L208.1,55.2 L208.3,56.0 L208.4,56.9 L322.5,57.8 L318.1,65.0 L317.5,66.2 L317.1,67.4 L316.9,68.6 L316.8,69.9 L316.9,71.2 L317.2,72.5 L317.8,73.8 L318.4,75.0 L329.1,93.2 L330.1,94.8 L330.9,96.5 L331.6,98.2 L332.2,100.1 L332.6,102.1 L332.9,104.1 L333.0,106.1 L332.9,108.1 L332.7,110.1 L332.2,112.1 L331.6,114.0 L331.0,115.6 L330.0,117.7 L329.0,119.4 L327.8,121.0 L326.5,122.6 L323.2,125.7 L322.6,126.3 L322.1,126.9 L321.8,127.5 L321.5,128.2 L321.4,129.1 L321.4,129.9 L321.7,130.7 L322.0,131.5 L325.1,136.1 L325.6,136.8 L326.0,137.7 L326.2,138.6 L326.2,139.3 L326.1,140.1 L325.9,140.8 L325.5,141.5 L320.9,147.9 L293.5,80.7 L292.3,82.3 L291.0,84.2 L290.0,86.3 L288.1,90.4 L287.4,91.8 L286.8,92.7 L286.0,93.7 L285.0,94.6 L284.0,95.4 L282.7,96.1 L281.3,96.7 L279.8,97.1 L278.3,97.3 L276.8,97.3 L275.3,97.2 L268.4,96.1 L267.0,95.9 L265.3,95.7 L263.2,95.7 L261.4,96.0 L260.1,96.4 L258.8,96.8 L257.6,97.4 L256.1,98.4 L254.7,99.5 L253.4,100.7 L252.2,101.9 L231.4,126.4 L230.8,126.9 L230.1,127.4 L229.3,127.6 L228.5,127.8 L227.7,127.7 L226.9,127.5 L226.1,127.2 L225.5,126.8 L225.0,126.2 L224.6,125.5 L224.4,124.8 L224.1,123.6 L223.9,122.4 L223.9,121.1 L223.9,119.7 L224.1,118.3 L228.8,92.0 L232.5,71.1 L232.7,69.8 L232.7,68.4 L232.5,67.1 L232.3,65.8 L231.9,64.6 L231.4,63.5 L230.8,62.5 L230.1,61.5 L228.5,59.7 L226.8,58.2 L225.5,57.1 L224.1,56.2 L222.7,55.3 L219.6,53.1 L219.2,52.9 L218.8,52.8 L218.3,52.8 L217.9,52.9 L217.4,53.2 L217.1,53.5 L216.9,54.0 L215.4,64.2 L214.1,72.9 L213.5,78.2 L213.0,83.5 L212.7,90.1 L211.7,115.9 L210.5,142.0 L209.3,168.1 L209.1,172.8 L209.1,173.8 L209.1,174.9 L209.4,176.0 L209.7,177.0 L210.2,177.8 L210.8,178.6 L211.5,179.3 L212.4,179.9 L213.6,180.5 L215.1,180.8 L216.7,181.1 L218.3,181.2 L219.8,181.3 L220.9,181.3 L222.9,181.2 L224.9,180.9 L226.9,180.5 L228.8,179.9 L230.8,179.2 L232.7,178.2 L234.6,177.2 L236.3,176.0 L238.0,174.6 L239.6,173.2 L241.0,171.7 L242.2,170.2 L243.3,168.7 L244.3,167.2 L245.2,165.6 L246.2,163.5 L247.0,161.3 L249.9,154.1 L250.8,152.5 L251.8,150.9 L253.0,149.5 L254.3,148.2 L255.6,147.0 L257.0,146.0 L258.5,145.0 L260.1,144.2 L261.7,143.4 L263.4,142.8 L265.1,142.3 L266.9,141.9 L268.7,141.6 L270.6,141.5 L272.5,141.4 L274.4,141.5 L276.3,141.8 L278.4,142.2 L280.6,142.8 L282.3,143.5 L283.9,144.2 L286.7,145.5 L298.4,150.6 L300.0,151.3 L301.5,152.1 L302.9,152.9 L304.2,153.9 L305.5,155.0 L306.5,156.1 L307.4,157.3 L308.2,158.5 L308.9,159.8 L309.4,160.6 L309.7,161.5 L309.8,162.4 L309.8,163.4 L309.6,164.3 L309.3,165.1 L322.5,57.8 L319.1,59.5 L316.6,61.1 L314.0,62.8 L311.6,64.6 L309.3,66.4 L306.0,69.0 L302.8,71.7 L299.5,74.7 L296.2,77.9 L294.8,79.2 L293.5,80.7 L320.9,147.9 L309.3,165.1 L201.4,220.0 L201.5,218.8 L202.9,185.7 L199.5,262.6 L201.2,225.7 L201.2,225.0 L201.2,225.0 L201.4,220.0 L202.7,224.3 L202.7,224.9 L201.6,251.5 L201.1,262.5 L202.9,219.0 L202.7,224.3 L176.8,38.4 L194.2,32.8 L90.9,195.9 L90.3,196.4 L89.8,196.7 L89.2,196.9 L88.7,197.0 L85.5,197.1 L85.0,197.2 L84.6,197.4 L84.2,197.5 L83.9,197.8 L83.2,198.7 L96.5,228.0 L96.4,227.3 L96.4,226.6 L96.4,225.9 L96.6,225.2 L96.8,224.5 L97.2,223.9 L101.8,216.2 L102.2,215.4 L102.4,214.6 L102.6,213.8 L102.6,212.8 L102.4,212.0 L102.3,211.4 L100.8,201.4 L100.4,198.7 L100.3,198.2 L100.1,197.9 L99.8,197.6 L99.4,197.4 L98.9,197.3 L98.5,197.4 L98.1,197.6 L97.8,197.9 L94.5,200.4 L94.2,200.8 L93.9,201.3 L93.8,201.8 L93.7,202.3 L93.3,204.4 L91.0,219.7 L90.2,225.2 L89.9,226.3 L89.6,227.3 L96.5,228.0 L94.6,226.7 L94.0,226.4 L93.4,226.3 L92.8,226.2 L92.0,226.2 L91.2,226.4 L90.5,226.7 L89.6,227.3 L102.3,211.4 L101.7,211.1 L101.0,211.0 L100.3,211.0 L99.8,211.2 L99.3,211.4 L98.8,211.7 L91.0,219.7 L82.1,209.5 L89.2,204.5 L89.7,204.2 L90.2,204.0 L90.7,204.0 L91.2,204.0 L93.3,204.4 L95.8,204.7 L96.4,204.7 L96.9,204.6 L97.3,204.4 L97.7,204.1 L100.8,201.4 L107.3,195.8 L107.6,195.3 L107.8,194.8 L107.9,194.2 L107.8,193.6 L107.5,193.0 L106.9,191.9 L104.1,186.7 L103.9,186.3 L103.8,185.8 L103.7,185.3 L103.8,184.8 L104.0,184.3 L104.2,183.7 L92.0,183.3 L92.4,184.1 L92.6,185.1 L92.6,185.8 L92.5,186.5 L90.9,193.5 L90.7,194.1 L90.7,194.7 L90.7,195.3 L90.9,195.9 L91.1,196.5 L91.4,197.0 L93.9,201.3 L202.9,185.7 L200.7,190.8 L199.5,193.8 L198.8,195.4 L198.1,196.8 L197.3,198.3 L196.5,199.7 L195.8,200.8 L194.9,201.9 L194.0,202.9 L192.9,203.9 L191.6,204.8 L190.3,205.5 L189.0,206.2 L187.7,206.4 L186.3,206.5 L185.0,206.4 L183.7,206.2 L182.4,205.8 L181.2,205.3 L180.0,204.6 L179.0,203.8 L178.1,202.9 L177.3,201.8 L176.5,200.6 L175.9,199.4 L175.3,198.1 L174.7,196.8 L173.9,194.6 L172.7,191.6 L172.3,190.5 L171.7,189.3 L170.2,186.8 Z" fill="none" stroke="#3b82f6" stroke-width="3.5" stroke-linecap="round" stroke-linejoin="round"/></svg>