<svg id="Layer_1" data-name="Layer 1" xmlns="http://www.w3.org/2000/svg" viewBox="0 0 421 211">
<style>
                    path, polyline, polygon, line, circle {
                        stroke: #06b6d4 !important;
                        stroke-width: 3.5px !important;
                        fill: none !important;
                        stroke-linecap: round !important;
                        stroke-linejoin: round !important;
                        filter: drop-shadow(0px 0px 5px #0ea5e9) !important;
                    }
                </style>

<title>Catalunya</title>
<path d="M25.5 86.5 L25.5 96.5 L34.5 113.5 L42.5 118.5 L67.5 128.5 L74.5 137.5 L76.5 154.5 L80.5 158.5 L86.5 160.5 L374.5 160.5 L381.5 157.5 L389.5 150.5 L393.5 142.5 L394.5 136.5 L395.5 87.5 L389.5 76.5 L379.5 70.5 L342.5 57.5 L334.5 57.5 L325.5 64.5 L321.5 74.5 L324.5 83.5 L331.5 89.5 L352.5 96.5 L361.5 103.5 L367.5 117.5 L367.5 126.5 L362.5 131.5 L352.5 130.5 L246.5 66.5 L234.5 59.5 L224.5 56.5 L211.5 57.5 L202.5 62.5 L169.5 110.5 L167.5 131.5 L160.5 137.5 L125.5 136.5 L115.5 133.5 L75.5 110.5 L69.5 103.5 L69.5 97.5 L74.5 92.5 L124.5 92.5 L134.5 91.5 L142.5 87.5 L150.5 79.5 L154.5 69.5 L152.5 59.5 L147.5 53.5 L143.5 51.5 L86.5 50.5 L66.5 51.5 L58.5 53.5 L45.5 59.5 L36.5 66.5 L31.5 72.5 L25.5 86.5" />
</svg>