<svg viewBox="0 0 400 300" xmlns="http://www.w3.org/2000/svg">
  <path d="M166.9,39.7 L164.8,36.6 L163.9,35.2 L162.8,33.6 L161.8,32.1 L159.5,28.7 L157.7,25.8 L156.4,23.9 L154.7,21.3 L152.9,18.7 L150.6,15.2 L148.8,12.4 L147.7,10.8 L146.4,8.8 L145.9,7.9 L145.7,7.6 L145.2,6.7 L144.5,5.5 L144.2,4.8 L143.8,3.6 L143.6,2.7 L143.7,1.1 L143.9,0.6 L144.2,0.1 L144.7,-0.3 L145.2,-0.6 L146.1,-0.7 L147.0,-0.6 L147.7,-0.5 L148.7,-0.2 L149.3,0.0 L150.0,0.4 L151.0,0.8 L152.1,1.3 L153.4,2.0 L154.9,2.7 L156.2,3.4 L156.6,3.6 L159.1,4.9 L161.0,5.8 L162.1,6.4 L164.1,7.4 L165.7,8.4 L168.7,10.1 L171.0,11.6 L172.1,12.4 L174.3,14.0 L175.7,15.1 L178.1,17.0 L180.2,18.9 L182.0,20.6 L183.6,22.2 L185.9,24.6 L187.4,26.1 L189.1,27.9 L191.1,30.0 L192.3,31.3 L193.5,32.5 L195.8,35.0 L197.5,36.9 L199.1,38.6 L200.5,40.2 L202.8,42.8 L205.9,46.2 L207.6,47.9 L209.2,49.4 L210.7,50.5 L212.9,51.7 L215.6,53.0 L218.5,55.2 L220.9,58.4 L222.0,60.6 L223.5,65.3 L223.9,67.5 L224.4,70.4 L225.7,74.1 L226.1,74.9 L227.9,77.9 L229.4,80.3 L230.5,82.0 L234.2,87.0 L236.6,90.2 L237.1,90.9 L239.0,93.6 L240.2,95.2 L241.7,97.3 L242.7,98.8 L243.9,100.6 L245.9,104.0 L247.5,107.0 L248.6,109.4 L249.7,111.8 L250.7,114.5 L251.8,117.7 L253.1,121.7 L254.0,124.3 L254.7,126.4 L255.3,128.3 L256.1,130.8 L257.7,135.5 L259.3,140.2 L259.8,141.9 L260.6,144.3 L261.3,146.2 L262.1,148.8 L263.1,151.5 L263.8,153.7 L264.4,155.6 L265.3,158.2 L266.4,161.4 L267.3,164.2 L268.5,167.6 L270.3,173.2 L271.7,177.2 L272.6,179.8 L273.2,181.6 L273.9,183.9 L274.2,184.7 L275.3,188.1 L276.3,190.9 L276.7,192.3 L277.8,195.3 L278.4,197.3 L279.0,199.7 L279.4,201.7 L279.5,203.0 L279.3,204.5 L278.7,206.3 L278.6,206.5 L277.9,207.6 L276.9,208.8 L276.3,209.4 L275.2,210.6 L274.6,211.2 L273.8,212.3 L273.3,213.3 L272.9,214.7 L272.8,215.6 L272.8,217.2 L273.1,218.8 L273.4,220.0 L273.7,220.8 L274.3,222.3 L275.2,224.9 L275.6,226.0 L275.9,227.2 L276.1,229.4 L275.9,231.1 L275.4,232.5 L274.6,234.3 L273.5,236.0 L272.5,237.1 L271.7,237.8 L270.8,238.5 L269.5,239.4 L268.0,240.4 L266.9,241.2 L264.5,242.8 L261.8,244.7 L260.3,245.8 L259.1,246.8 L256.1,249.0 L253.3,251.2 L251.8,252.3 L250.2,253.6 L248.2,255.1 L246.3,256.4 L245.8,256.7 L244.3,257.6 L243.0,258.3 L241.8,258.8 L240.7,259.2 L239.2,259.3 L237.9,259.1 L236.3,258.3 L235.5,257.7 L235.3,257.5 L234.5,256.5 L233.9,255.5 L233.6,254.6 L233.5,253.2 L233.6,252.5 L233.6,252.5 L233.7,251.8 L234.1,250.6 L234.4,250.0 L234.8,249.4 L236.1,247.8 L236.5,247.5 L237.3,246.7 L238.4,245.9 L239.3,245.3 L240.1,244.8 L247.7,240.4 L249.3,239.0 L250.3,237.6 L250.7,236.8 L251.4,234.3 L251.5,233.2 L251.4,231.8 L251.3,230.9 L250.8,229.0 L250.4,227.7 L250.0,226.5 L248.8,223.8 L248.0,221.8 L247.8,221.2 L247.2,220.0 L246.0,216.9 L245.4,215.4 L244.8,213.5 L244.2,211.5 L243.7,209.8 L243.3,208.2 L242.8,206.1 L242.3,204.1 L241.7,201.7 L241.3,199.7 L240.7,197.0 L239.8,192.6 L239.3,190.0 L238.8,188.0 L238.2,185.4 L237.7,182.8 L236.7,178.7 L236.0,176.7 L234.4,173.5 L231.6,170.3 L230.9,169.7 L228.1,167.9 L226.4,167.3 L223.7,166.9 L220.2,166.7 L219.4,166.7 L217.7,166.7 L214.2,167.0 L211.8,167.6 L210.2,168.4 L207.6,169.9 L205.8,171.2 L204.0,172.8 L203.1,173.9 L201.7,175.6 L200.2,177.8 L198.3,181.5 L197.4,183.6 L197.0,185.0 L196.3,187.2 L195.4,190.0 L194.6,192.4 L193.8,194.8 L193.3,196.6 L192.2,200.1 L191.6,201.9 L191.0,203.6 L190.2,206.3 L189.0,209.8 L188.3,212.0 L187.6,214.0 L187.3,214.8 L186.4,216.6 L185.1,218.8 L183.5,220.6 L182.5,221.5 L181.1,222.4 L180.1,222.8 L179.0,223.1 L177.9,223.2 L176.2,223.2 L174.5,222.9 L173.3,222.5 L171.9,221.7 L170.0,220.7 L168.0,220.0 L167.9,219.9 L166.5,219.6 L165.2,219.5 L162.9,219.8 L161.9,220.1 L160.2,220.8 L159.0,221.5 L157.9,222.4 L153.1,228.7 L152.1,230.5 L150.8,233.1 L150.2,234.6 L148.8,237.3 L147.8,239.3 L146.7,241.4 L145.4,243.4 L143.7,245.6 L143.2,246.0 L142.0,246.9 L140.5,247.6 L139.5,247.9 L138.1,247.9 L136.6,247.7 L135.2,247.4 L134.2,247.0 L133.1,246.5 L132.0,245.9 L130.5,245.1 L130.0,244.7 L128.2,243.6 L127.4,243.0 L125.2,241.4 L124.0,240.4 L122.4,238.9 L122.0,238.4 L120.8,237.0 L119.2,234.3 L118.5,232.8 L117.8,230.6 L117.6,228.8 L117.6,227.2 L117.7,225.8 L118.0,223.5 L118.8,220.3 L119.8,217.1 L120.8,214.9 L121.5,213.3 L122.3,211.8 L123.6,209.6 L125.4,207.0 L125.9,206.4 L127.2,204.6 L130.2,200.9 L131.9,199.1 L132.4,198.5 L134.7,196.1 L136.3,194.5 L137.5,193.4 L139.6,191.6 L142.2,189.5 L144.0,188.1 L145.6,187.0 L148.4,185.3 L151.4,183.5 L156.0,180.9 L158.6,179.3 L161.2,177.8 L165.4,175.4 L168.7,173.3 L172.5,170.3 L175.0,167.9 L176.5,166.4 L177.7,164.8 L179.1,162.9 L180.3,161.0 L181.6,158.7 L182.9,156.1 L183.9,153.9 L185.9,149.4 L187.2,146.1 L187.9,144.3 L188.5,142.6 L189.7,138.5 L190.3,133.8 L190.2,131.2 L189.7,127.4 L188.7,124.3 L187.6,121.1 L186.3,118.1 L185.4,115.9 L185.2,115.5 L183.8,112.2 L182.5,109.2 L181.3,106.4 L180.4,104.3 L179.7,102.5 L178.0,97.9 L177.1,94.9 L176.5,91.9 L175.8,88.8 L175.2,85.5 L174.4,81.4 L174.1,79.1 L173.7,76.9 L173.3,74.3 L173.2,73.0 L173.0,71.9 L173.0,70.7 L173.0,69.2 L173.0,68.8 L173.1,68.0 L173.2,67.2 L173.8,65.9 L174.0,65.5 L174.6,65.0 L175.0,64.8 L175.7,64.6 L176.1,64.6 L176.8,64.5 L177.5,64.5 L178.1,64.4 L178.7,64.2 L179.1,63.9 L179.8,63.2 L180.0,62.8 L180.1,62.2 L180.1,61.6 L180.1,61.2 L180.0,60.7 L179.9,60.1 L179.8,59.8 L179.5,59.0 L179.1,58.2 L178.8,57.6 L178.6,57.4 L178.1,56.6 L177.6,55.9 L176.9,54.8 L175.8,53.2 L175.0,52.0 L174.4,51.1 L173.5,49.7 L173.0,49.1 L171.3,46.5 L170.4,45.0 L169.7,44.1 L168.9,42.8 L167.9,41.4 Z"
    fill="none"
    stroke="#FF6600"
    stroke-width="4"
    stroke-linecap="round"
    stroke-linejoin="round"/>
</svg>