<svg viewBox="0 0 400 300" xmlns="http://www.w3.org/2000/svg">
  <path d="M147.3,219.5 L148.9,226.1 L151.8,236.8 L154.0,245.0 L155.8,251.6 L157.3,257.3 L158.6,262.1 L159.5,265.4 L160.4,268.3 L161.4,272.0 L162.6,275.6 L163.2,277.4 L164.8,281.9 L166.8,286.2 L167.9,288.2 L168.7,289.4 L169.5,290.6 L171.4,292.7 L172.8,293.8 L174.0,294.6 L176.5,295.5 L178.9,295.6 L179.9,295.4 L181.2,295.0 L183.2,294.0 L184.6,293.0 L186.3,291.6 L187.7,290.3 L189.4,288.9 L191.2,287.4 L192.1,286.8 L195.1,285.1 L198.8,284.5 L200.7,284.8 L202.5,285.4 L203.8,285.9 L206.8,287.2 L209.4,288.2 L212.3,289.3 L214.4,290.0 L217.4,290.8 L220.8,291.3 L224.8,291.5 L227.3,291.3 L230.9,290.9 L233.7,290.3 L236.2,289.6 L240.4,287.8 L243.4,286.1 L246.5,284.0 L249.8,281.2 L250.6,280.4 L252.9,278.0 L254.8,275.7 L256.4,273.4 L259.0,268.9 L259.8,267.2 L262.3,260.6 L263.1,257.7 L264.4,253.0 L265.2,249.6 L266.8,243.3 L267.7,239.8 L269.0,234.8 L270.5,228.2 L271.2,225.3 L272.2,221.2 L273.8,214.4 L274.3,212.5 L276.1,205.4 L277.8,198.4 L278.8,194.6 L279.7,191.0 L281.3,184.8 L282.5,180.5 L284.7,171.7 L285.8,167.8 L286.9,163.5 L288.1,159.2 L289.9,152.5 L291.3,147.0 L293.5,139.2 L294.0,137.5 L295.9,130.5 L296.6,127.8 L297.6,123.5 L297.7,122.8 L298.0,118.8 L297.9,116.6 L297.7,114.9 L296.6,111.0 L295.7,108.9 L294.7,107.5 L293.0,105.8 L292.2,105.2 L289.2,103.2 L287.4,102.4 L285.7,101.8 L281.2,100.7 L280.1,100.4 L276.5,99.8 L272.9,99.5 L270.5,99.4 L265.1,99.6 L261.8,99.9 L258.7,100.5 L255.9,101.4 L249.8,104.3 L245.6,107.1 L242.8,109.4 L240.1,111.9 L237.2,115.1 L232.7,121.2 L228.8,126.7 L227.3,128.8 L222.4,135.8 L219.2,140.3 L217.5,142.8 L214.7,146.8 L211.6,151.6 L209.5,154.7 L206.2,159.5 L204.5,162.1 L202.6,165.0 L199.1,170.0 L196.7,173.4 L195.1,175.3 L189.6,180.5 L188.2,181.4 L185.0,182.9 L182.4,183.8 L180.2,184.3 L178.0,184.6 L174.7,184.8 L172.3,184.7 L170.8,184.5 L167.4,183.6 L164.6,182.4 L161.7,180.7 L158.2,177.7 L155.2,174.2 L153.7,171.9 L152.6,169.8 L151.2,166.4 L150.1,162.8 L149.1,158.4 L148.7,156.1 L148.1,152.2 L147.7,148.0 L147.8,144.6 L148.3,141.5 L148.9,139.6 L149.1,138.8 L150.2,136.7 L151.2,135.3 L152.8,134.3 L154.1,134.0 L155.1,133.8 L156.7,133.9 L156.9,134.0 L158.0,134.3 L159.8,135.0 L161.2,135.7 L162.2,136.2 L164.1,137.2 L166.7,138.4 L168.0,139.0 L170.7,139.8 L172.9,140.0 L174.4,140.0 L175.9,139.7 L177.0,139.3 L178.7,138.4 L179.8,137.5 L180.7,136.4 L181.7,134.8 L182.2,133.2 L182.4,131.1 L182.4,129.7 L182.1,127.5 L181.7,126.2 L181.3,125.1 L180.4,123.3 L179.5,121.7 L178.4,120.0 L177.3,118.6 L176.2,117.3 L173.8,114.6 L171.9,112.6 L170.7,111.4 L168.5,108.9 L166.5,106.5 L164.0,103.0 L161.9,99.6 L160.6,97.3 L160.0,95.9 L158.5,92.3 L157.7,89.4 L157.2,86.7 L157.1,84.6 L157.2,82.7 L157.4,81.4 L157.9,79.5 L158.3,78.7 L159.0,77.7 L161.0,76.3 L162.1,76.0 L164.1,76.1 L165.5,76.5 L166.3,76.8 L167.6,77.5 L168.3,78.0 L169.2,78.6 L170.3,79.6 L171.5,80.7 L172.5,81.7 L173.6,82.9 L174.3,83.9 L175.0,84.7 L176.1,86.1 L176.8,87.1 L177.1,87.6 L178.1,88.8 L179.6,90.7 L180.3,91.4 L182.5,93.9 L184.9,96.1 L187.8,97.9 L190.6,99.1 L196.3,100.3 L197.9,100.5 L200.8,100.6 L203.9,100.4 L206.1,100.0 L211.0,98.6 L213.4,97.5 L216.9,95.4 L220.2,92.8 L221.9,91.2 L226.4,85.2 L228.0,82.6 L230.9,77.7 L233.4,73.5 L234.7,71.4 L242.0,58.1 L242.6,56.8 L243.4,54.0 L243.5,51.9 L243.4,50.2 L243.1,49.0 L242.3,47.1 L241.3,45.5 L239.4,43.6 L237.6,42.3 L236.8,41.8 L235.1,41.0 L233.5,40.2 L231.2,39.3 L229.4,38.6 L228.0,38.2 L226.0,37.5 L223.8,36.9 L220.0,36.1 L218.4,35.9 L214.8,35.6 L208.7,35.7 L204.8,36.1 L202.3,36.5 L195.8,37.8 L191.9,38.8 L187.3,40.3 L182.9,41.9 L178.0,44.2 L173.7,46.4 L170.2,48.7 L166.4,51.4 L162.6,54.7 L161.5,55.7 L156.0,61.9 L152.2,67.5 L150.7,70.1 L149.1,73.1 L146.2,79.8 L144.0,86.0 L142.7,90.0 L141.4,95.4 L139.9,101.9 L138.0,110.9 L136.8,116.8 L136.1,121.2 L135.6,124.8 L135.5,125.6 L135.0,130.4 L134.7,134.1 L134.4,141.0 L134.4,149.7 L135.0,160.0 L135.5,164.1 L136.3,170.3 L137.1,175.2 L137.8,179.3 L138.5,183.0 L139.4,187.1 L141.7,197.3 L143.4,204.3 L144.6,208.7 L145.7,213.2 Z"
    fill="none"
    stroke="#FF6600"
    stroke-width="4"
    stroke-linecap="round"
    stroke-linejoin="round"/>
</svg>