<svg xmlns="http://w3.org" viewBox="0 0 800 600" width="100%" height="100%">
  <path d="M 357.21 133.41 L 510.81 134.49 L 531.89 137.01 L 547.94 144.64 L 562.25 160.13 L 570.67 174.74 L 574.92 191.59 L 574.92 210.46 L 571.27 228.75 L 559.74 243.37 L 548.20 255.46 L 532.42 261.37 L 524.00 262.23 L 439.35 259.93 L 424.69 265.40 L 416.01 273.90 L 409.51 283.40 L 406.73 295.50 L 406.46 397.32 L 410.38 409.56 L 416.54 418.56 L 424.43 426.41 L 438.22 433.75 L 450.62 436.56 L 465.20 437.43 L 475.94 436.56 L 493.38 426.98 L 590.36 359.23 L 629.87 318.83 L 638.63 309.83 L 640.02 302.48 L 639.75 191.23 L 644.79 179.71 L 659.11 172.44 L 677.67 170.42 L 699.62 179.50 L 714.00 184.61 L 729.18 185.69 L 741.25 176.11 L 750.00 158.69 L 749.40 140.97 L 739.86 125.78 L 726.33 114.83 L 714.53 110.01 L 603.16 86.68 L 297.48 81.06 L 104.56 86.68 L 86.26 93.16 L 71.08 103.31 L 60.41 117.07 L 54.18 132.84 L 50.00 148.82 L 50.27 162.36 L 51.66 178.13 L 54.18 192.17 L 60.94 205.13 L 70.22 218.31 L 82.02 229.54 L 95.81 238.83 L 116.36 245.31 L 142.81 251.50 L 163.30 257.41 L 170.06 264.32 L 177.95 276.71 L 179.21 287.58 L 177.48 301.33 L 160.05 396.17 L 159.25 405.96 L 159.52 418.34 L 162.04 427.63 L 166.81 438.29 L 172.71 447.29 L 180.07 453.20 L 260.62 515.05 L 270.16 518.65 L 280.57 518.94 L 292.97 515.84 L 303.38 509.14 L 313.52 496.47 L 316.57 485.53 L 319.95 269.36 L 315.77 258.99 L 308.41 251.94 L 297.21 245.74 L 119.61 203.33 L 109.47 194.62 L 103.30 182.81 L 100.72 170.42 L 104.96 156.67 L 110.86 145.94 L 121.27 137.52 L 136.71 132.76 L 357.21 133.41" fill="none" stroke="#e10600" stroke-width="4.5" stroke-linecap="round" stroke-linejoin="round" />
</svg>