<svg viewBox="0 0 400 300" xmlns="http://www.w3.org/2000/svg">
  <path d="M298.9,254.7 L291.0,256.9 L282.5,259.1 L277.7,260.4 L273.5,261.6 L264.3,264.1 L260.9,265.0 L256.0,266.3 L245.8,269.1 L232.5,272.8 L229.5,273.6 L224.1,275.1 L213.7,277.9 L205.3,280.2 L202.4,280.9 L197.6,282.0 L194.7,282.3 L191.8,282.3 L189.1,281.9 L186.0,280.8 L184.0,279.7 L181.2,277.3 L179.3,274.6 L177.6,271.3 L176.0,268.2 L173.4,263.9 L170.7,260.1 L166.8,254.3 L165.1,251.8 L162.6,248.0 L160.8,245.2 L158.7,242.1 L155.3,236.9 L149.5,228.1 L147.6,225.3 L145.5,222.1 L143.7,219.2 L139.1,212.3 L137.2,209.3 L134.8,205.5 L132.7,201.9 L130.0,197.1 L125.8,189.3 L124.1,185.9 L121.1,179.9 L118.3,174.4 L117.2,172.2 L114.3,166.0 L112.0,161.1 L110.3,157.6 L108.0,152.7 L105.0,146.4 L103.1,142.3 L101.0,138.2 L96.8,130.2 L94.1,125.8 L90.7,120.7 L86.5,114.9 L81.5,109.0 L77.0,104.2 L72.3,99.3 L69.7,96.8 L64.9,92.0 L59.3,86.6 L55.4,82.8 L52.6,80.1 L47.8,75.6 L46.2,74.0 L44.1,72.1 L40.7,68.7 L39.3,66.8 L38.8,65.9 L38.0,63.2 L38.1,61.5 L38.9,59.6 L39.4,59.0 L40.3,58.2 L41.3,57.6 L43.2,56.8 L45.6,56.1 L46.8,55.9 L48.2,55.7 L49.7,55.5 L51.2,55.3 L54.7,54.9 L57.1,54.6 L59.6,54.4 L63.5,54.1 L66.7,53.9 L71.3,53.8 L76.8,53.8 L79.7,53.8 L82.7,53.9 L86.9,54.1 L90.2,54.3 L93.9,54.7 L95.4,54.8 L98.9,55.2 L104.0,55.8 L110.0,56.7 L113.7,57.2 L121.7,58.6 L130.4,60.2 L135.2,61.2 L142.8,62.7 L149.2,64.0 L153.3,64.8 L160.4,66.3 L166.6,67.5 L171.8,68.4 L179.6,69.5 L180.6,69.7 L187.4,70.6 L191.4,71.2 L195.9,71.8 L202.3,72.6 L214.2,73.6 L219.3,73.9 L224.0,74.0 L231.8,74.3 L237.4,74.5 L242.1,74.6 L248.5,74.7 L253.7,74.9 L257.8,75.2 L259.9,75.7 L262.6,76.7 L265.4,78.5 L265.7,78.7 L267.1,80.4 L267.9,82.2 L268.4,85.1 L268.5,87.0 L268.3,88.7 L267.5,91.2 L266.5,93.4 L264.2,97.2 L262.3,99.6 L259.3,103.1 L256.7,105.8 L254.6,107.5 L250.8,110.3 L246.5,112.8 L243.4,114.3 L237.7,116.4 L234.2,117.5 L227.6,118.9 L223.4,119.5 L217.9,119.7 L212.7,119.4 L207.0,118.8 L204.2,118.4 L200.4,117.9 L195.0,117.0 L190.0,116.1 L185.4,115.2 L181.9,114.5 L177.5,113.7 L171.3,112.9 L165.6,112.4 L162.2,112.5 L160.6,112.6 L153.7,113.8 L148.7,115.8 L145.8,117.7 L143.8,119.5 L141.2,122.5 L139.3,125.9 L138.1,130.0 L137.7,133.0 L137.5,137.8 L137.8,141.2 L138.3,144.0 L139.6,148.8 L140.1,150.2 L142.4,155.2 L144.1,158.2 L146.8,162.7 L149.1,166.4 L150.3,168.4 L152.2,171.4 L155.5,176.5 L159.5,181.9 L165.5,188.0 L168.1,189.8 L172.8,192.2 L175.6,193.0 L178.8,193.2 L185.4,192.1 L189.2,190.6 L193.2,188.3 L198.0,184.6 L200.6,182.2 L204.4,178.8 L207.2,176.2 L210.3,173.3 L211.6,172.2 L218.3,166.8 L223.6,163.5 L224.7,163.0 L234.0,159.9 L237.9,159.3 L241.9,158.9 L247.2,158.6 L251.7,158.5 L261.1,158.3 L268.0,158.2 L275.3,158.1 L280.4,158.0 L287.8,158.0 L292.1,158.0 L297.5,157.9 L306.1,157.8 L315.6,157.5 L322.8,157.3 L331.5,157.0 L336.9,156.9 L342.7,156.7 L348.6,156.6 L357.0,156.8 L363.8,157.4 L369.3,158.5 L375.2,160.7 L383.4,166.8 L384.5,168.0 L387.6,173.3 L388.6,176.6 L390.0,181.3 L390.9,184.6 L392.7,190.3 L394.6,196.5 L396.7,203.3 L397.3,205.9 L397.8,209.1 L398.0,211.6 L397.9,214.8 L396.5,219.2 L395.2,221.4 L393.3,223.9 L390.0,226.6 L387.4,228.2 L382.4,230.6 L378.9,232.2 L373.6,234.3 L370.5,235.3 L365.1,236.9 L358.7,238.7 L352.9,240.2 L343.7,242.6 L336.3,244.6 L331.6,245.9 L327.4,247.1 L323.9,248.0 L318.6,249.4 L310.1,251.7 Z"
    fill="none"
    stroke="#FF6600"
    stroke-width="4"
    stroke-linecap="round"
    stroke-linejoin="round"/>
</svg>