<svg xmlns="http://w3.org" viewBox="0 0 800 600" width="100%" height="100%">
  <path d="M 428.42 54.73 L 482.80 50.00 L 492.46 50.58 L 499.90 53.05 L 504.74 56.26 L 510.52 62.97 L 514.16 70.62 L 517.11 80.25 L 521.26 96.59 L 525.50 112.63 L 527.97 130.37 L 529.03 141.52 L 530.44 168.56 L 531.04 191.64 L 531.98 200.65 L 535.41 209.08 L 541.88 220.85 L 544.61 227.56 L 544.49 232.62 L 543.30 238.55 L 534.11 262.86 L 533.51 272.65 L 534.93 279.66 L 538.24 285.62 L 547.32 298.30 L 549.44 304.13 L 549.67 311.01 L 548.14 317.26 L 542.60 324.14 L 535.53 329.19 L 525.84 334.83 L 518.31 339.28 L 512.99 344.46 L 506.87 354.71 L 494.83 377.30 L 428.66 499.10 L 406.95 532.88 L 400.82 541.15 L 395.88 545.56 L 390.10 548.48 L 384.08 550.00 L 378.54 549.55 L 372.40 548.15 L 367.22 545.88 L 362.62 542.22 L 358.71 536.38 L 357.53 534.11 L 351.64 521.28 L 345.04 509.80 L 337.97 500.33 L 333.12 494.53 L 327.70 488.57 L 318.14 478.78 L 296.80 453.26 L 294.66 451.90 L 291.71 451.58 L 288.79 452.97 L 279.82 461.07 L 276.75 462.14 L 273.68 461.82 L 271.09 460.75 L 267.42 457.25 L 263.54 453.26 L 258.69 446.84 L 255.17 439.97 L 252.68 432.93 L 250.56 424.99 L 250.33 421.78 L 250.92 418.57 L 252.68 415.53 L 256.92 408.78 L 322.04 323.84 L 336.67 305.04 L 339.72 301.51 L 345.04 298.01 L 351.40 296.48 L 356.60 296.32 L 363.79 296.94 L 383.84 299.98 L 390.45 300.76 L 397.29 301.05 L 405.08 299.98 L 412.16 298.17 L 418.51 294.63 L 460.04 261.63 L 462.75 259.82 L 466.06 258.13 L 469.47 257.81 L 472.06 258.75 L 474.43 260.89 L 475.84 263.32 L 482.92 288.09 L 485.05 291.59 L 487.98 293.73 L 491.41 293.89 L 495.19 292.20 L 497.54 289.16 L 499.08 285.95 L 502.03 277.84 L 504.38 270.97 L 506.15 264.23 L 507.09 257.68 L 507.69 250.77 L 507.21 243.61 L 505.79 240.40 L 502.15 236.28 L 367.56 113.41 L 363.91 111.11 L 358.83 108.52 L 352.59 107.61 L 346.10 108.35 L 339.50 111.56 L 337.13 114.48 L 335.47 118.76 L 332.76 141.07 L 331.23 145.64 L 327.94 149.33 L 322.98 151.76 L 317.56 152.54 L 311.54 150.99 L 307.30 148.10 L 304.71 144.73 L 302.69 140.77 L 302.34 136.49 L 303.17 131.89 L 306.46 124.40 L 323.80 90.04 L 329.36 83.46 L 334.78 77.95 L 342.57 71.23 L 348.93 66.79 L 356.96 63.42 L 363.91 61.15 L 378.66 59.30 L 428.42 54.73" fill="none" stroke="#f97316" stroke-width="4.5" stroke-linecap="round" stroke-linejoin="round" />
</svg>