<svg xmlns="http://w3.org" viewBox="0 0 800 600" width="100%" height="100%">
  <path d="M 454.86 412.05 L 461.00 440.62 L 465.57 461.68 L 468.11 477.25 L 468.46 490.10 L 464.49 524.56 L 465.22 528.68 L 467.99 531.26 L 478.21 535.79 L 480.25 537.30 L 481.22 540.28 L 480.86 543.30 L 479.41 546.32 L 476.65 548.64 L 473.15 550.00 L 468.58 550.00 L 463.54 548.90 L 451.50 545.50 L 443.31 542.75 L 435.50 538.51 L 428.04 533.58 L 410.82 518.82 L 400.60 509.25 L 398.67 506.26 L 398.20 503.79 L 398.32 501.33 L 400.11 495.85 L 400.72 492.45 L 400.36 489.70 L 399.16 487.38 L 379.54 463.45 L 376.06 460.46 L 369.44 455.79 L 365.47 452.51 L 361.14 446.77 L 358.72 440.62 L 357.04 434.33 L 356.45 429.28 L 356.57 391.95 L 356.57 388.82 L 355.25 386.35 L 352.83 384.44 L 348.62 383.48 L 342.97 384.84 L 339.72 385.25 L 335.75 384.15 L 332.38 381.97 L 329.98 379.65 L 327.80 376.78 L 326.48 374.17 L 324.67 368.98 L 323.11 362.57 L 321.32 354.62 L 321.08 347.92 L 318.78 319.35 L 319.02 303.89 L 319.39 291.44 L 320.47 277.78 L 321.91 266.99 L 323.35 258.49 L 333.46 217.77 L 335.14 214.06 L 337.56 212.58 L 340.08 212.03 L 343.80 211.74 L 346.69 210.78 L 349.47 209.15 L 352.48 205.99 L 354.76 202.31 L 356.81 197.26 L 366.79 156.65 L 370.76 134.64 L 372.08 119.18 L 372.69 103.31 L 372.57 98.12 L 371.96 92.67 L 364.62 56.56 L 364.37 54.38 L 364.62 52.47 L 366.31 50.55 L 369.56 50.00 L 371.61 50.70 L 373.05 52.32 L 373.52 53.68 L 374.38 61.75 L 375.58 74.07 L 376.06 78.16 L 377.63 82.69 L 382.91 93.48 L 387.61 103.05 L 411.31 164.31 L 414.08 172.23 L 449.20 340.40 L 450.65 347.37 L 450.30 349.69 L 448.74 351.49 L 445.95 352.56 L 444.16 354.36 L 443.43 356.39 L 443.55 359.00 L 449.94 388.12 L 454.86 412.05" fill="none" stroke="#e10600" stroke-width="4.5" stroke-linecap="round" stroke-linejoin="round" />
</svg>