<svg viewBox="0 0 400 300" xmlns="http://www.w3.org/2000/svg">
  <path d="M238.0,226.4 L238.2,229.7 L238.2,230.1 L238.1,234.8 L237.7,239.2 L237.4,241.8 L237.4,242.2 L236.8,247.0 L236.7,248.1 L236.6,250.7 L236.7,251.5 L236.9,253.2 L237.2,254.2 L237.7,255.3 L238.6,256.5 L238.9,256.8 L239.7,257.6 L240.6,258.2 L242.3,259.2 L243.4,259.8 L244.2,260.4 L244.8,261.3 L245.0,262.3 L244.9,262.8 L244.5,264.1 L244.3,264.7 L244.0,265.2 L243.5,265.8 L242.5,266.4 L241.4,266.7 L240.7,266.9 L240.1,266.9 L238.3,266.9 L235.4,266.7 L234.1,266.4 L233.1,266.2 L231.3,265.6 L229.4,265.0 L227.9,264.5 L226.7,264.0 L225.1,263.3 L223.3,262.4 L221.8,261.5 L220.1,260.5 L217.9,259.0 L215.8,257.5 L214.4,256.3 L212.7,255.0 L209.7,252.6 L208.8,251.8 L206.8,250.2 L205.0,248.6 L204.1,247.7 L203.5,246.9 L202.5,245.3 L202.0,244.0 L202.0,243.0 L202.0,242.1 L202.2,241.2 L202.3,239.9 L202.3,237.8 L202.1,236.8 L201.7,235.3 L200.4,233.1 L199.2,231.6 L197.4,229.4 L196.6,228.3 L195.5,227.1 L194.3,225.7 L193.4,224.7 L191.8,223.1 L189.0,220.8 L188.0,220.0 L186.1,218.5 L184.5,217.1 L182.8,215.1 L181.5,212.9 L180.3,209.9 L179.6,207.8 L179.2,205.7 L178.9,202.6 L178.9,199.7 L179.0,197.8 L179.1,196.2 L179.2,193.5 L179.3,191.5 L179.4,189.8 L179.3,188.4 L179.1,186.8 L178.7,185.2 L178.3,184.2 L177.5,183.0 L176.5,182.1 L175.9,181.8 L174.3,181.4 L173.6,181.5 L172.1,181.6 L170.9,181.6 L169.6,181.6 L167.3,181.0 L166.3,180.4 L165.3,179.5 L163.9,178.0 L162.7,175.9 L161.9,174.0 L161.5,172.8 L161.2,171.6 L160.8,169.5 L160.5,167.7 L160.1,164.4 L159.9,162.6 L159.5,159.3 L159.2,155.7 L159.0,152.3 L158.9,150.9 L158.7,148.7 L158.6,146.4 L158.4,142.6 L158.4,140.3 L158.4,136.4 L158.4,134.2 L158.6,130.6 L158.8,128.2 L159.1,124.8 L159.6,120.5 L159.8,119.3 L160.0,117.5 L160.5,114.7 L161.1,111.8 L161.7,109.2 L162.3,106.5 L162.9,104.2 L163.4,101.9 L164.1,98.8 L164.8,96.1 L165.6,93.9 L166.5,92.5 L167.2,92.0 L168.8,91.5 L169.8,91.2 L171.3,90.7 L172.8,89.9 L174.0,88.9 L175.1,87.7 L176.0,86.4 L177.0,84.5 L177.7,82.4 L178.4,80.0 L178.7,78.8 L179.1,77.5 L179.7,74.7 L180.3,72.4 L180.9,69.5 L181.2,68.3 L181.6,65.9 L182.0,63.8 L182.3,61.8 L182.8,58.5 L183.3,54.9 L183.8,51.2 L183.9,49.2 L184.1,47.3 L184.2,45.6 L184.3,41.7 L184.3,39.0 L184.2,35.3 L184.0,31.3 L183.7,28.9 L183.6,28.5 L183.0,25.5 L182.0,21.4 L181.3,18.4 L180.9,16.4 L180.3,13.8 L179.9,11.6 L179.8,10.5 L179.8,9.7 L180.0,8.5 L180.5,7.7 L180.9,7.4 L182.0,6.9 L182.7,6.9 L183.2,7.1 L183.9,7.5 L184.6,8.5 L185.0,9.2 L185.3,9.8 L185.8,11.5 L186.1,13.3 L186.2,14.7 L186.4,16.9 L186.6,18.6 L186.7,19.9 L187.1,21.6 L187.8,24.0 L189.2,27.6 L190.0,29.5 L190.9,31.6 L191.6,33.4 L192.0,34.3 L193.5,37.7 L194.5,40.2 L195.3,42.0 L195.9,43.3 L196.6,45.0 L198.4,49.1 L199.2,50.8 L200.0,52.8 L201.7,57.1 L202.6,59.4 L203.8,62.5 L204.5,64.3 L205.2,66.2 L205.8,68.2 L206.6,70.7 L207.3,72.9 L208.0,75.6 L208.8,78.7 L209.4,81.0 L210.1,83.8 L210.3,84.7 L211.5,89.8 L211.9,91.4 L212.5,94.0 L213.1,96.6 L214.1,101.1 L214.7,103.7 L215.4,106.6 L216.5,111.1 L217.1,113.7 L218.1,118.1 L219.2,123.1 L219.9,126.0 L221.0,130.6 L221.6,133.3 L222.4,136.7 L223.1,139.5 L223.7,142.2 L224.2,144.4 L225.4,149.2 L225.8,150.8 L226.4,153.7 L226.8,155.5 L227.1,156.8 L227.4,158.5 L227.4,159.4 L227.3,161.0 L227.0,162.0 L225.9,163.9 L225.2,165.1 L224.8,166.2 L224.5,168.2 L224.5,169.5 L224.6,170.7 L224.9,172.7 L225.0,173.5 L225.6,176.1 L226.3,178.6 L226.7,180.0 L227.3,182.3 L227.9,184.3 L228.5,186.2 L228.8,187.5 L229.1,188.6 L229.9,191.7 L230.3,193.2 L231.1,196.5 L231.8,199.3 L232.4,201.7 L233.2,204.7 L234.4,209.1 L235.0,211.4 L235.6,213.6 L236.1,215.9 L237.0,219.9 L237.4,222.1 L237.7,223.9 Z"
    fill="none"
    stroke="#FF6600"
    stroke-width="4"
    stroke-linecap="round"
    stroke-linejoin="round"/>
</svg>