<svg viewBox="0 0 400 300" xmlns="http://www.w3.org/2000/svg"><path d="M230.2,114.4 L235.0,110.8 L254.3,95.6 L359.4,38.7 L364.4,41.9 L367.3,43.9 L371.6,46.8 L375.2,49.9 L376.7,51.4 L377.7,52.7 L378.9,54.9 L379.4,56.8 L379.6,58.3 L379.5,60.0 L379.2,62.0 L378.5,64.2 L377.8,65.9 L377.2,66.7 L376.4,68.0 L375.2,69.5 L374.0,71.0 L360.3,87.3 L266.1,204.4 L262.9,207.3 L260.9,208.7 L259.7,209.3 L258.7,209.5 L257.7,209.8 L256.8,209.9 L254.9,209.8 L252.8,209.4 L251.3,209.0 L249.8,208.3 L248.6,207.5 L247.5,206.4 L246.8,205.4 L246.2,204.1 L246.0,202.9 L246.3,200.7 L246.8,199.5 L248.3,197.2 L226.3,212.7 L229.7,211.8 L231.3,211.5 L232.8,211.5 L234.0,211.8 L236.3,212.4 L245.6,217.0 L246.9,217.7 L247.8,218.5 L248.4,219.3 L248.9,220.1 L249.2,221.0 L249.4,221.7 L249.2,223.0 L248.3,224.9 L246.8,227.5 L360.3,87.3 L354.5,94.2 L352.5,96.8 L349.7,99.9 L346.2,104.1 L335.4,116.9 L311.4,145.4 L307.7,149.9 L306.0,151.9 L306.0,151.9 L305.2,152.6 L301.4,157.1 L298.7,160.3 L296.3,163.4 L292.2,168.8 L285.4,178.0 L280.4,184.6 L273.1,194.8 L266.1,204.4 L369.0,97.9 L371.0,95.7 L373.8,93.1 L374.2,92.8 L374.7,92.7 L375.7,92.7 L376.3,92.7 L376.7,92.4 L377.0,92.1 L377.0,91.6 L376.9,91.1 L377.0,90.6 L377.2,90.2 L377.6,89.8 L378.1,89.6 L378.8,89.3 L379.6,89.1 L380.1,89.1 L380.7,89.3 L381.1,89.6 L381.3,90.3 L381.1,90.8 L380.7,91.7 L380.0,92.9 L376.8,97.4 L376.3,97.6 L375.8,97.7 L375.4,97.5 L375.1,97.2 L375.1,96.8 L375.6,96.1 L376.1,95.5 L376.3,95.2 L376.4,94.9 L376.2,94.5 L375.8,94.2 L375.4,94.0 L375.0,93.9 L374.6,94.2 L374.1,94.6 L373.4,95.4 L372.9,96.0 L368.4,101.6 L368.1,102.1 L368.1,102.6 L368.5,102.9 L369.0,103.0 L369.4,103.0 L369.8,102.8 L370.5,102.0 L371.4,100.5 L372.9,98.7 L373.3,98.3 L373.8,98.4 L374.1,98.7 L374.4,99.0 L374.6,99.4 L374.5,99.9 L373.9,100.8 L373.4,101.2 L372.9,101.6 L372.2,101.8 L371.8,102.1 L371.4,102.6 L371.1,102.9 L371.1,103.5 L371.3,103.8 L371.5,104.4 L371.3,104.8 L371.1,105.1 L370.8,105.3 L370.2,105.2 L369.0,104.7 L367.9,104.1 L367.1,103.7 L366.4,102.9 L366.0,102.3 L366.1,101.6 L366.7,100.7 L367.2,100.0 L368.1,99.0 L369.0,97.9 L52.2,219.4 L52.1,221.2 L49.7,253.8 L50.7,257.1 L51.9,258.9 L53.6,260.1 L56.0,261.1 L61.2,261.7 L69.2,261.2 L74.5,260.0 L77.6,258.8 L79.3,257.4 L81.1,254.7 L90.9,232.2 L92.4,229.7 L93.5,228.6 L97.2,227.6 L102.6,227.5 L106.7,227.7 L111.9,228.0 L115.1,228.1 L116.3,227.0 L116.6,225.4 L116.0,223.3 L115.6,221.5 L115.3,219.9 L114.7,218.2 L113.3,217.1 L112.4,216.8 L110.6,216.5 L108.4,216.3 L106.3,216.1 L104.2,216.1 L103.0,216.7 L103.0,218.0 L104.9,218.9 L107.4,219.5 L110.1,220.2 L111.6,220.8 L112.8,222.0 L112.6,223.0 L111.1,224.1 L109.3,224.8 L106.6,224.8 L103.4,224.5 L101.4,224.3 L99.6,224.2 L98.3,224.3 L94.2,224.8 L92.5,225.3 L91.2,226.5 L90.2,228.1 L89.0,229.9 L87.8,231.6 L86.9,232.1 L83.6,232.4 L78.1,232.1 L75.6,231.8 L73.3,231.5 L71.8,230.8 L71.2,230.2 L72.5,229.4 L74.7,229.1 L75.9,228.7 L77.2,227.6 L77.2,226.7 L76.7,225.0 L75.9,224.1 L74.2,223.4 L72.2,223.3 L69.9,223.5 L68.4,224.6 L67.2,226.1 L66.0,227.9 L65.4,229.3 L65.2,230.8 L65.5,232.4 L67.1,233.3 L69.0,233.6 L71.2,233.7 L73.6,233.7 L75.8,234.0 L77.4,234.5 L78.2,235.6 L78.5,237.6 L78.3,239.9 L77.5,245.5 L76.8,249.4 L76.1,253.2 L74.3,255.7 L72.6,257.2 L70.6,257.9 L67.3,258.3 L64.4,258.3 L59.8,257.6 L57.4,257.0 L55.3,255.7 L54.1,254.0 L53.9,251.8 L53.9,249.7 L54.7,240.3 L55.2,239.4 L56.1,239.1 L58.1,239.2 L59.7,239.7 L62.0,241.1 L63.2,242.3 L63.3,243.6 L63.2,245.5 L63.0,247.3 L63.6,249.4 L64.2,250.9 L65.2,251.8 L66.9,252.2 L69.3,251.3 L70.8,248.7 L71.5,246.1 L71.5,243.9 L70.8,241.6 L69.5,239.9 L66.8,238.8 L63.2,237.7 L59.8,236.9 L56.6,235.8 L56.0,234.1 L55.9,232.4 L58.1,222.7 L58.2,219.8 L57.6,217.8 L57.5,217.3 L56.1,215.2 L51.0,212.8 L48.9,211.1 L48.5,209.1 L48.5,206.6 L49.2,204.9 L50.0,203.3 L50.1,202.5 L50.1,201.7 L49.4,201.1 L47.3,201.3 L46.3,202.9 L45.7,206.1 L45.3,209.0 L44.7,211.2 L44.6,212.5 L45.5,214.2 L47.3,215.3 L49.7,216.1 L51.2,216.7 L52.1,217.8 L52.2,219.4 L199.6,128.5 L199.6,128.9 L199.7,129.3 L199.9,129.7 L200.2,130.0 L200.6,130.3 L201.1,130.5 L201.6,130.6 L202.2,130.6 L202.7,130.6 L203.2,130.5 L203.7,130.3 L204.1,130.0 L204.4,129.7 L204.7,129.3 L204.8,129.0 L204.8,128.6 L204.7,128.2 L204.5,127.8 L204.3,127.5 L203.9,127.2 L203.5,127.0 L203.0,126.8 L202.5,126.7 L202.0,126.7 L201.4,126.8 L201.0,126.9 L200.5,127.2 L200.2,127.4 L199.9,127.8 L199.7,128.1 L199.6,128.5 L201.4,126.8 L201.3,123.9 L201.8,121.5 L205.3,108.0 L206.6,103.2 L208.4,96.2 L209.4,92.4 L217.3,90.4 L218.0,90.8 L218.5,91.2 L218.8,91.8 L219.0,92.4 L219.0,93.0 L218.9,93.6 L218.6,94.1 L218.1,94.6 L217.5,95.0 L216.8,95.3 L216.0,95.5 L215.2,95.6 L214.4,95.5 L213.7,95.3 L212.9,95.0 L212.3,94.6 L211.9,94.0 L211.6,93.5 L211.5,92.8 L211.5,92.2 L211.8,91.6 L212.2,91.1 L212.7,90.6 L213.4,90.3 L214.1,90.0 L215.0,89.9 L215.8,89.9 L216.6,90.1 L217.3,90.4 L215.2,95.6 L219.5,100.5 L205.3,108.0 L205.7,107.6 L206.0,107.3 L206.5,107.0 L206.9,106.7 L207.5,106.4 L219.5,100.5 L226.6,97.0 L227.1,96.8 L227.4,96.6 L227.7,96.3 L227.9,96.1 L228.0,95.8 L228.1,95.6 L228.2,95.3 L228.2,95.0 L228.2,94.7 L228.1,94.4 L228.0,94.1 L227.9,93.8 L227.7,93.6 L227.5,93.4 L227.2,93.2 L226.9,93.0 L226.5,92.9 L226.0,92.7 L225.5,92.5 L225.1,92.4 L224.7,92.2 L224.4,92.0 L224.2,91.8 L224.0,91.6 L223.8,91.2 L223.6,90.9 L223.4,90.2 L223.3,89.7 L223.1,89.2 L222.8,88.8 L222.6,88.5 L222.2,88.2 L221.6,87.8 L221.0,87.5 L220.3,87.3 L219.6,87.1 L219.1,86.9 L218.7,86.7 L218.3,86.5 L218.0,86.2 L217.8,85.8 L217.8,85.5 L217.8,85.1 L218.0,84.7 L218.1,84.4 L218.4,84.1 L218.5,83.8 L218.7,83.6 L218.8,83.3 L218.8,83.0 L218.8,82.7 L218.8,82.4 L218.7,82.2 L218.5,81.9 L218.4,81.7 L218.1,81.5 L217.8,81.3 L217.4,81.2 L217.0,81.1 L216.6,81.0 L216.2,81.0 L215.6,81.0 L215.1,81.1 L214.5,81.3 L214.0,81.5 L213.4,81.8 L212.9,82.2 L212.5,82.7 L212.1,83.2 L211.8,83.7 L211.7,84.0 L211.5,84.3 L210.6,86.8 L210.1,88.2 L209.8,89.2 L209.6,89.9 L209.6,90.6 L209.5,91.2 L209.5,91.8 L209.4,92.4 L206.6,103.2 L206.8,102.9 L207.1,102.7 L207.6,102.6 L207.9,102.5 L208.7,102.3 L209.1,102.1 L209.5,101.9 L209.9,101.5 L210.3,101.1 L210.5,100.7 L210.6,100.3 L210.7,99.9 L210.7,99.4 L210.6,99.1 L210.4,98.7 L210.0,98.3 L209.4,97.9 L208.9,97.6 L208.6,97.1 L208.5,96.8 L208.4,96.2 L214.1,90.0 L213.5,90.1 L213.0,90.1 L212.5,90.0 L212.0,89.9 L211.6,89.8 L211.2,89.5 L210.8,89.2 L210.5,88.9 L210.3,88.6 L210.1,88.2 L214.1,90.0 L214.7,89.8 L215.1,89.7 L215.4,89.4 L215.6,89.1 L215.8,88.8 L215.9,88.3 L216.0,87.8 L216.0,87.3 L215.9,86.7 L215.6,86.1 L215.2,85.5 L214.7,85.1 L214.2,84.8 L213.4,84.5 L211.7,84.0 L215.9,86.7 L218.0,86.2 L224.2,91.8 L219.0,92.4 L342.5,30.4 L344.9,31.6 L346.1,32.2 L346.7,32.5 L351.5,34.8 L353.4,35.7 L324.0,29.6 L331.1,33.7 L331.5,33.9 L332.1,34.3 L335.8,36.4 L336.2,36.6 L344.3,41.3 L345.0,41.7 L345.7,42.1 L346.4,42.3 L347.0,42.5 L347.5,42.5 L348.1,42.4 L348.6,42.3 L349.2,42.0 L349.6,41.7 L353.8,38.3 L354.4,37.9 L355.1,37.6 L355.9,37.4 L356.6,37.4 L357.3,37.7 L358.3,38.1 L359.4,38.7 L365.0,41.3 L373.2,45.2 L376.3,46.9 L378.0,48.1 L379.3,49.4 L380.6,50.7 L381.6,52.2 L382.4,53.7 L383.1,55.5 L383.5,57.6 L383.6,59.3 L383.6,61.1 L383.3,62.9 L382.8,64.6 L382.1,66.1 L381.1,67.7 L379.9,69.2 L351.2,103.1 L332.3,125.6 L315.8,145.3 L308.0,154.3 L279.8,188.2 L266.1,204.4 L252.2,220.9 L248.7,225.2 L246.8,227.5 L240.7,234.8 L238.9,236.4 L237.1,237.6 L235.1,238.5 L232.9,238.7 L230.4,238.6 L227.6,238.2 L225.2,237.1 L221.2,235.2 L219.0,234.2 L217.0,233.5 L214.4,233.1 L211.8,233.0 L208.9,233.2 L206.3,233.8 L204.1,234.9 L190.6,242.3 L188.0,243.7 L185.7,244.9 L183.4,245.9 L180.3,246.8 L177.6,247.4 L173.8,247.8 L168.0,247.7 L164.6,247.3 L161.6,246.6 L157.1,244.9 L153.7,243.0 L151.1,241.0 L149.0,239.2 L146.8,236.8 L144.5,233.2 L143.0,229.3 L142.4,226.2 L142.2,223.8 L142.4,220.0 L143.0,216.3 L143.8,213.4 L144.9,210.5 L146.3,207.4 L148.0,204.2 L150.2,201.1 L158.9,190.9 L181.4,164.0 L183.1,162.1 L185.2,160.7 L187.4,159.8 L190.3,159.1 L192.7,158.8 L195.4,159.1 L198.0,159.6 L200.2,160.4 L202.3,161.5 L204.1,162.7 L206.1,164.5 L207.7,166.4 L209.0,168.5 L209.6,170.8 L210.0,173.5 L210.1,176.0 L209.7,178.4 L208.8,181.3 L207.4,183.9 L204.5,188.0 L198.9,194.3 L182.5,213.8 L181.4,215.3 L180.8,216.9 L180.8,218.5 L181.3,220.3 L182.3,221.6 L183.5,222.8 L185.4,223.8 L187.7,224.3 L189.8,224.5 L192.2,224.2 L194.1,223.6 L226.3,212.7 L230.6,210.8 L235.5,208.3 L238.7,206.2 L241.7,204.0 L245.1,200.9 L248.3,197.2 L258.5,185.2 L259.5,183.8 L260.0,182.9 L260.5,181.7 L260.6,180.8 L260.6,179.9 L260.4,179.1 L260.0,178.1 L259.4,176.9 L258.6,176.0 L257.6,175.2 L256.5,174.5 L255.5,174.0 L252.3,172.6 L249.3,171.2 L245.9,169.1 L243.9,167.3 L242.1,165.2 L240.7,162.9 L232.3,148.0 L224.4,134.2 L223.3,132.0 L222.8,130.4 L222.5,128.9 L222.4,127.3 L222.4,125.8 L223.0,123.4 L224.0,120.7 L225.7,118.4 L227.8,116.3 L229.0,115.3 L230.2,114.4 L233.7,112.5 L238.2,110.6 L259.7,102.5 L277.7,95.6 L286.5,92.3 L298.3,87.8 L311.4,82.8 L343.0,70.5 L345.4,69.4 L346.8,68.5 L347.6,67.6 L347.9,67.3 L348.5,66.0 L348.6,64.3 L348.0,62.4 L346.9,61.0 L345.1,59.5 L343.1,58.5 L341.1,57.6 L339.2,57.0 L337.6,56.4 L334.3,55.9 L330.9,55.6 L327.7,55.6 L325.2,55.7 L321.7,56.3 L318.7,57.3 L315.3,58.7 L313.9,59.4 L313.6,59.6 L307.4,63.5 L305.4,64.5 L303.4,65.4 L300.7,66.0 L299.4,66.2 L296.6,66.3 L294.5,66.1 L293.0,65.8 L291.1,65.2 L288.8,64.1 L286.8,62.8 L284.9,60.6 L283.7,58.4 L283.2,55.9 L283.2,54.4 L283.6,52.7 L284.4,50.9 L285.7,49.1 L287.8,47.5 L302.9,38.3 L316.5,29.7 L318.6,29.0 L320.3,28.8 L322.1,28.9 L324.0,29.6 L316.5,29.7 L318.8,28.6 L320.3,28.1 L321.6,27.7 L323.4,27.2 L325.1,27.0 L327.1,26.8 L329.0,26.8 L330.7,26.8 L332.8,27.0 L334.6,27.3 L336.3,27.7 L338.0,28.2 L339.4,28.9 L342.5,30.4 L299.4,66.2 L300.9,66.8 L301.4,67.5 L303.4,71.9 L304.8,72.8 L305.7,72.7 L307.4,72.0 L316.7,67.2 L318.7,66.8 L335.2,66.1 L338.2,65.7 L339.6,64.8 L339.9,63.6 L312.0,59.3 L311.2,59.1 L309.4,59.3 L301.8,61.2 L298.6,61.6 L295.7,61.4 L292.5,60.2 L290.9,59.0 L289.9,57.0 L289.5,55.1 L289.8,53.2 L290.8,51.6 L292.8,49.9 L294.9,48.7 L297.5,47.7 L299.9,47.1 L302.3,46.5 L304.1,45.6 L310.4,40.0 L314.0,37.2 L317.3,35.2 L319.8,34.2 L323.3,33.7 L326.5,33.6 L328.6,33.6 L330.3,33.8 L332.1,34.3 L336.2,36.6 L337.8,37.0 L338.8,37.1 L339.5,36.8 L344.7,32.6 L344.7,32.6 L344.9,32.1 L344.9,31.6 L353.8,38.3 L354.6,37.4 L354.8,37.0 L354.5,36.7 L354.2,36.3 L353.4,35.7 L344.7,32.6 L345.3,32.3 L346.1,32.2 L240.7,234.8 L239.3,237.8 L237.6,239.9 L236.8,240.6 L236.0,241.0 L234.9,241.3 L233.6,241.5 L232.1,241.6 L230.4,241.5 L227.9,241.1 L225.7,240.6 L223.4,239.7 L220.1,238.1 L218.5,237.3 L216.7,236.7 L215.5,236.4 L213.8,236.1 L211.6,236.2 L209.4,236.5 L206.2,237.1 L204.3,237.6 L202.6,238.4 L200.1,239.7 L195.3,242.1 L191.1,244.3 L190.2,244.8 L187.6,246.0 L184.1,247.3 L180.0,248.1 L177.0,248.4 L174.2,248.4 L171.0,248.2 L168.0,247.7 L339.9,63.6 L339.2,62.5 L337.6,62.1 L336.5,61.9 L318.6,58.9 L316.4,59.0 L313.9,59.4 L311.2,59.1 L254.3,95.6 L256.6,94.3 L259.2,93.3 L261.7,92.7 L263.8,92.4 L265.9,92.3 L267.9,92.5 L269.8,92.8 L271.7,93.2 L273.6,93.5 L275.4,93.8 L277.2,93.9 L279.0,93.9 L280.6,93.9 L281.9,93.7 L283.4,93.3 L286.5,92.3 L353.4,35.7 L358.3,38.1 L347.9,67.3 L348.0,66.9 L347.5,65.4 L346.3,63.9 L344.9,63.2 L342.2,62.8 L336.5,61.9 L120.6,198.6 L120.2,198.9 L119.8,199.3 L119.5,199.7 L119.3,200.2 L119.1,200.6 L118.8,201.0 L118.6,201.4 L118.3,201.8 L118.1,202.3 L117.9,202.8 L117.6,203.2 L117.4,203.6 L117.1,204.0 L116.8,204.4 L116.6,204.8 L116.3,205.3 L115.9,205.7 L115.4,206.1 L115.0,206.5 L114.4,206.7 L113.8,207.0 L113.1,207.1 L112.5,207.1 L111.8,207.1 L111.2,207.0 L110.7,206.7 L110.3,206.3 L110.0,205.8 L109.8,205.3 L109.8,204.9 L109.8,204.4 L110.0,203.9 L110.3,203.5 L110.7,203.1 L111.2,202.7 L111.6,202.3 L111.9,201.8 L112.2,201.4 L112.2,201.0 L112.3,200.4 L112.0,200.0 L111.6,199.6 L111.2,199.2 L110.6,198.9 L110.0,198.6 L109.4,198.4 L108.8,198.2 L108.3,198.0 L107.8,197.8 L107.2,197.6 L106.6,197.3 L106.0,197.1 L105.4,196.8 L104.8,196.6 L104.1,196.3 L103.5,196.0 L102.9,195.8 L102.3,195.6 L101.7,195.4 L101.2,195.2 L100.6,194.9 L100.2,194.6 L99.9,194.2 L99.8,193.7 L99.8,193.2 L100.1,192.8 L100.5,192.3 L101.0,192.0 L101.5,191.8 L102.0,191.6 L102.6,191.4 L103.3,191.2 L103.8,191.0 L104.4,190.8 L111.3,188.2 L111.7,187.8 L112.0,187.5 L112.5,187.0 L112.8,186.6 L113.2,186.3 L113.6,185.8 L114.0,185.5 L114.3,185.1 L114.6,184.6 L114.8,184.3 L115.1,183.8 L115.3,183.4 L115.6,183.0 L115.7,182.5 L115.9,182.1 L116.1,181.7 L116.5,181.1 L116.7,180.7 L117.0,180.3 L117.1,179.8 L117.4,179.4 L117.6,178.9 L117.8,178.5 L118.0,178.1 L118.2,177.6 L118.3,177.2 L118.5,176.7 L118.5,176.2 L118.2,175.8 L117.8,175.4 L117.2,175.2 L116.4,175.0 L115.8,174.9 L115.2,174.9 L114.5,174.9 L114.0,174.9 L113.3,174.9 L112.6,174.9 L111.9,175.0 L111.2,175.1 L110.5,175.3 L109.9,175.4 L109.2,175.5 L108.6,175.7 L107.8,175.9 L107.1,176.0 L106.5,176.2 L105.9,176.4 L105.9,176.9 L105.9,177.3 L105.9,177.8 L105.9,178.2 L106.1,178.7 L106.1,179.2 L106.3,179.6 L106.4,180.2 L106.5,180.6 L106.6,181.2 L106.6,181.6 L106.7,182.0 L106.9,182.5 L107.0,182.9 L107.1,183.4 L107.1,183.8 L107.1,184.3 L107.0,184.8 L106.8,185.2 L106.5,185.6 L106.1,186.1 L105.7,186.4 L105.3,186.8 L104.8,187.1 L104.2,187.3 L103.6,187.5 L103.0,187.7 L102.5,187.9 L101.7,188.1 L101.0,188.3 L100.5,188.5 L99.9,188.7 L99.4,189.0 L98.8,189.2 L98.2,189.5 L97.8,189.9 L97.5,190.4 L97.3,190.9 L97.2,191.4 L97.1,191.9 L93.6,197.4 L93.3,197.8 L92.9,198.2 L92.6,198.6 L92.3,199.0 L92.0,199.3 L91.7,199.8 L91.2,200.1 L90.7,200.4 L90.3,200.7 L89.8,200.9 L89.1,201.0 L88.5,200.8 L88.1,200.5 L87.9,200.1 L87.8,199.5 L87.8,198.9 L87.8,198.4 L88.0,197.9 L88.1,197.3 L88.3,196.8 L88.5,196.4 L88.6,195.9 L88.9,195.3 L89.1,194.7 L89.3,194.2 L89.5,193.7 L89.8,193.2 L90.0,192.7 L90.2,192.3 L90.3,191.8 L90.5,191.4 L90.7,191.0 L90.9,190.6 L91.0,190.1 L91.2,189.7 L91.5,189.1 L91.6,188.5 L91.9,187.9 L93.0,185.1 L92.8,184.6 L92.5,184.0 L92.3,183.6 L91.9,183.0 L91.7,182.6 L91.5,182.1 L91.4,181.6 L91.4,181.1 L91.4,180.7 L91.4,180.3 L91.6,179.8 L91.9,179.4 L92.3,178.9 L92.7,178.5 L93.1,178.2 L93.7,177.9 L94.2,177.6 L94.9,177.3 L95.5,177.1 L96.0,176.8 L103.1,173.9 L103.7,173.8 L104.4,173.6 L105.0,173.5 L105.7,173.3 L106.5,173.2 L107.2,173.1 L107.9,172.9 L108.5,172.8 L109.1,172.6 L109.6,172.5 L110.2,172.3 L110.9,172.2 L111.5,172.0 L112.2,171.9 L112.9,171.8 L113.6,171.7 L114.2,171.6 L114.8,171.5 L115.5,171.5 L116.0,171.5 L116.6,171.5 L117.2,171.7 L117.8,171.9 L118.4,172.1 L118.9,172.4 L119.4,172.6 L119.8,172.9 L120.1,173.3 L120.4,173.7 L120.7,174.1 L121.0,174.5 L121.3,174.9 L121.6,175.3 L121.9,175.7 L122.2,176.0 L122.5,176.5 L122.9,176.9 L123.2,177.2 L123.6,177.7 L124.0,178.0 L124.3,178.4 L124.5,178.8 L124.8,179.2 L124.9,179.6 L124.9,180.1 L124.9,180.6 L124.8,181.0 L124.5,181.5 L124.1,181.9 L123.6,182.1 L123.1,182.5 L122.6,182.7 L122.0,183.1 L115.2,188.2 L114.8,188.5 L114.3,188.9 L114.0,189.2 L113.7,189.6 L112.0,191.7 L111.8,192.1 L111.7,192.5 L111.6,193.0 L111.5,193.4 L111.5,193.9 L111.5,194.4 L111.5,194.9 L111.6,195.3 L111.9,195.7 L112.2,196.0 L112.5,196.4 L112.8,196.7 L113.4,197.0 L114.0,197.1 L114.5,197.2 L115.2,197.2 L115.8,197.0 L116.3,196.8 L116.7,196.5 L117.1,196.2 L117.4,195.8 L117.8,195.4 L118.1,195.0 L118.4,194.6 L118.7,194.2 L118.9,193.7 L119.2,193.3 L119.4,192.8 L119.6,192.4 L119.9,191.9 L120.0,191.5 L120.2,190.9 L120.4,190.5 L120.6,190.0 L120.8,189.5 L120.9,189.0 L121.1,188.5 L121.2,188.0 L121.5,187.6 L121.7,187.1 L121.8,186.7 L122.2,186.2 L122.5,185.7 L122.8,185.3 L123.2,184.9 L123.7,184.6 L124.3,184.5 L124.8,184.3 L125.4,184.3 L125.9,184.2 L126.6,184.2 L127.2,184.2 L127.8,184.2 L128.3,184.5 L128.6,184.9 L128.7,185.4 L128.8,185.8 L128.8,186.3 L128.5,186.8 L128.2,187.1 L127.9,187.6 L127.6,188.0 L127.2,188.4 L126.9,188.8 L126.5,189.3 L126.2,189.6 L125.8,190.1 L125.4,190.5 L125.0,190.9 L124.8,191.2 L124.4,191.7 L124.1,192.1 L123.8,192.5 L123.6,192.9 L123.3,193.3 L123.0,193.7 L122.7,194.2 L122.5,194.7 L122.2,195.2 L122.0,195.6 L121.7,196.0 L121.4,196.4 L121.2,196.8 L121.0,197.3 L120.6,198.6 Z" fill="none" stroke="#f97316" stroke-width="3.5" stroke-linecap="round" stroke-linejoin="round"/></svg>