<svg viewBox="0 0 400 300" xmlns="http://www.w3.org/2000/svg"><path d="M246.6,197.3 L244.7,199.0 L243.2,200.8 L241.8,202.5 L240.7,204.6 L239.7,206.7 L238.5,208.5 L237.6,210.4 L236.2,212.4 L235.3,214.6 L234.1,216.6 L233.0,218.6 L232.0,220.6 L230.8,222.5 L229.5,224.4 L228.3,226.1 L227.0,228.3 L225.1,230.1 L222.9,232.1 L220.8,233.7 L218.3,234.9 L215.6,235.9 L212.4,236.5 L209.3,236.5 L206.2,236.5 L203.5,236.3 L201.2,234.7 L199.3,232.7 L197.7,230.6 L197.2,228.4 L197.0,226.4 L197.0,224.2 L197.9,221.8 L199.5,219.9 L201.4,218.0 L203.3,216.5 L205.4,214.4 L206.8,212.4 L207.9,210.4 L208.1,208.4 L208.3,205.9 L207.0,203.9 L205.2,202.1 L203.5,200.2 L200.6,198.7 L197.9,197.6 L195.2,196.6 L192.5,195.6 L190.0,194.6 L187.7,193.6 L185.0,192.7 L182.2,191.7 L179.7,190.4 L176.6,189.1 L174.1,188.1 L171.0,186.7 L168.1,185.4 L165.2,184.3 L162.5,183.5 L159.8,182.6 L157.3,181.6 L154.8,180.5 L152.7,179.0 L151.6,177.0 L151.0,175.0 L151.0,172.8 L152.3,170.7 L154.1,168.7 L156.4,167.1 L158.7,166.1 L161.2,165.1 L164.1,164.2 L167.0,163.3 L169.6,162.3 L172.2,161.7 L203.9,149.8 L205.6,147.9 L207.4,146.2 L209.3,144.2 L211.0,142.5 L212.6,140.7 L214.5,138.6 L216.2,137.0 L217.7,135.1 L219.1,133.2 L220.3,131.5 L221.4,129.5 L222.4,127.6 L223.5,125.6 L224.3,123.5 L225.3,121.6 L226.2,119.6 L227.8,117.1 L228.7,115.2 L230.1,113.2 L230.6,111.1 L231.8,109.1 L232.8,106.9 L233.7,104.9 L234.7,103.0 L235.8,100.8 L236.2,98.8 L237.0,96.7 L237.0,94.4 L235.8,92.4 L233.7,90.8 L231.0,89.8 L227.6,88.8 L224.7,88.2 L221.8,88.2 L218.9,88.2 L216.2,88.2 L213.1,88.2 L209.9,88.5 L206.8,88.9 L203.3,89.5 L200.0,90.2 L197.4,90.8 L194.5,91.3 L191.4,92.1 L187.7,92.8 L184.7,93.7 L181.8,94.2 L179.3,95.5 L179.3,97.5 L179.3,99.4 L179.3,101.6 L179.3,103.7 L179.8,105.7 L180.2,108.2 L180.8,110.1 L181.2,112.8 L181.8,114.8 L182.2,117.3 L182.5,119.1 L182.9,121.3 L183.5,123.3 L184.3,125.3 L184.8,127.3 L184.8,129.4 L184.8,131.5 L184.1,133.8 L183.1,135.8 L181.8,137.7 L180.2,139.9 L178.3,141.4 L176.4,143.3 L173.9,144.3 L171.2,145.5 L168.5,146.5 L165.8,147.3 L163.5,148.2 L159.6,149.1 L156.8,150.1 L154.1,150.9 L151.4,152.0 L149.1,153.1 L146.4,154.1 L143.7,155.7 L141.7,157.6 L140.4,159.7 L139.6,161.9 L139.1,164.2 L138.5,166.8 L122.3,192.0 L121.0,193.8 L119.4,195.7 L117.9,197.6 L116.5,199.2 L115.2,200.9 L113.7,202.8 L111.5,204.5 L109.2,205.8 L107.1,206.9 L104.8,208.1 L101.9,208.7 L99.2,207.8 L97.1,206.2 L96.3,204.2 L95.9,201.5 L95.8,199.0 L95.8,196.6 L96.5,194.3 L97.3,191.7 L98.1,189.2 L99.0,187.4 L99.6,185.1 L100.8,182.3 L101.9,179.7 L102.7,177.3 L103.6,174.8 L104.8,172.4 L105.8,170.4 L106.7,168.4 L107.5,166.2 L108.3,164.2 L109.0,162.3 L110.0,160.4 L110.6,158.4 L111.5,156.4 L112.7,153.5 L113.5,150.9 L114.6,148.4 L119.8,135.5 L118.9,132.9 L117.3,130.2 L116.3,128.3 L114.8,125.9 L113.8,123.7 L112.9,121.6 L112.3,119.3 L112.3,117.1 L112.3,115.1 L112.3,113.1 L113.3,110.9 L114.8,108.9 L116.5,107.0 L118.5,105.0 L120.4,103.6 L123.1,102.1 L125.4,101.0 L128.7,99.6 L131.2,98.4 L133.5,97.3 L166.2,84.0 L169.1,83.3 L172.3,82.6 L174.8,82.1 L178.3,81.3 L182.0,80.6 L185.2,80.0 L188.5,79.4 L191.2,78.7 L193.7,78.0 L196.2,77.2 L198.9,76.5 L202.0,75.8 L204.9,75.2 L207.9,74.6 L211.4,73.9 L214.7,73.6 L217.4,73.3 L220.1,72.9 L223.1,72.8 L225.6,72.8 L228.3,72.8 L231.0,73.8 L233.7,74.8 L236.4,75.6 L238.9,76.8 L241.0,78.0 L243.0,79.4 L244.3,81.1 L245.8,83.0 L247.2,84.9 L248.5,86.7 L249.9,88.6 L251.4,90.3 L252.8,92.1 L254.1,93.7 L255.5,95.7 L257.2,97.5 L258.7,99.1 L260.7,101.1 L262.2,102.9 L263.5,104.4 L264.9,106.2 L265.9,108.0 L266.4,110.2 L266.4,112.4 L266.4,114.5 L265.9,116.5 L264.5,118.6 L263.0,120.4 L260.7,121.7 L258.2,123.3 L255.9,124.5 L253.3,126.2 L222.0,149.6 L220.1,151.1 L217.9,152.8 L216.4,154.4 L215.1,156.3 L207.4,165.5 L206.4,167.5 L205.6,169.4 L205.2,171.5 L204.9,173.7 L204.9,175.9 L204.9,178.3 L204.9,180.3 L205.2,182.2 L206.6,184.1 L207.9,185.6 L209.3,187.2 L211.0,188.8 L213.5,190.0 L216.2,190.5 L218.7,191.0 L221.8,191.0 L224.5,190.3 L226.8,189.2 L228.7,187.8 L230.5,186.2 L232.2,184.6 L233.7,182.8 L235.3,180.9 L236.8,179.2 L238.0,177.3 L239.1,175.0 L240.5,173.1 L241.4,171.0 L242.2,168.8 L243.3,166.8 L244.1,164.6 L245.1,162.2 L245.8,160.2 L246.6,158.0 L247.6,155.6 L248.3,153.1 L248.9,151.1 L249.7,148.5 L250.9,146.6 L251.6,144.6 L252.4,142.6 L253.9,140.4 L255.5,138.3 L256.8,136.4 L258.7,134.5 L260.9,133.2 L263.5,132.4 L266.1,131.8 L268.7,131.7 L271.2,131.4 L274.1,131.1 L277.0,131.1 L279.9,131.4 L282.2,132.7 L283.8,134.4 L284.1,136.5 L284.3,138.6 L284.3,140.9 L283.2,143.0 L281.8,144.8 L280.5,146.6 L278.8,148.6 L277.2,150.5 L275.9,152.4 L273.9,154.5 L272.4,156.3 L270.5,158.4 L268.9,160.3 L267.2,161.9 L265.9,163.6 L264.3,165.6 L263.0,167.6 L261.6,169.4 L260.5,171.4 L259.1,173.1 L257.6,175.1 L256.6,177.1 L255.3,179.3 L254.1,181.6 L253.0,183.5 L251.8,185.4 L250.7,187.2 L249.7,189.4 L248.7,191.5 L246.6,197.3 Z" fill="none" stroke="#f97316" stroke-width="3.5" stroke-linecap="round" stroke-linejoin="round"/></svg>