<svg xmlns="http://w3.org" viewBox="0 0 800 600" width="100%" height="100%">
  <path d="M 266.13 497.76 L 223.20 508.53 L 215.37 509.26 L 205.95 509.26 L 197.55 506.56 L 191.81 504.13 L 184.20 499.26 L 178.72 494.35 L 174.52 488.76 L 171.38 482.18 L 168.77 475.55 L 168.50 468.51 L 168.77 460.44 L 169.83 454.33 L 171.64 448.48 L 175.05 443.35 L 179.78 438.95 L 190.26 434.34 L 199.94 434.34 L 207.50 437.24 L 210.64 440.66 L 212.76 444.34 L 212.99 449.46 L 211.44 456.76 L 208.30 467.74 L 207.50 472.40 L 209.36 477.06 L 213.78 481.92 L 221.39 484.82 L 229.74 483.11 L 234.21 480.21 L 237.08 475.35 L 239.69 470.43 L 242.30 463.85 L 243.89 456.55 L 244.42 448.22 L 243.10 441.18 L 238.90 433.36 L 236.02 428.49 L 227.40 417.99 L 204.36 393.34 L 186.59 370.15 L 171.91 354.31 L 153.60 333.55 L 147.85 323.76 L 145.20 316.72 L 126.36 261.33 L 120.35 244.71 L 115.13 228.35 L 114.87 224.21 L 117.21 220.79 L 121.94 218.82 L 130.03 220.33 L 138.44 225.92 L 145.47 231.77 L 152.54 239.32 L 162.49 249.58 L 171.11 262.26 L 186.32 288.87 L 206.71 324.75 L 213.25 334.74 L 219.79 342.56 L 227.13 349.65 L 235.76 354.31 L 244.95 357.72 L 254.37 359.64 L 265.34 359.64 L 275.02 357.72 L 284.44 354.31 L 293.86 348.41 L 302.79 341.11 L 309.82 332.82 L 317.43 316.46 L 329.19 291.56 L 334.18 284.00 L 339.40 278.88 L 345.95 274.99 L 355.63 270.80 L 364.78 270.08 L 372.65 270.80 L 379.73 273.49 L 386.01 277.64 L 390.43 281.31 L 394.36 285.71 L 413.73 323.30 L 418.46 328.42 L 424.21 330.13 L 429.69 329.15 L 434.69 327.18 L 454.05 301.55 L 456.66 296.43 L 456.66 291.82 L 455.07 287.16 L 407.72 206.66 L 378.13 158.82 L 345.68 105.14 L 341.26 103.69 L 336.79 104.88 L 332.59 108.55 L 327.64 114.14 L 322.91 119.99 L 318.49 122.94 L 312.96 124.65 L 307.21 123.67 L 301.46 118.54 L 294.65 110.99 L 291.25 104.88 L 289.17 99.29 L 288.11 90.95 L 288.64 83.39 L 289.97 76.09 L 292.31 69.26 L 298.59 60.98 L 304.60 56.32 L 312.96 52.64 L 321.89 50.72 L 328.97 50.00 L 337.59 50.47 L 348.82 53.16 L 356.16 56.32 L 363.76 60.46 L 374.20 70.24 L 383.40 83.18 L 482.84 235.44 L 544.88 329.15 L 577.07 377.97 L 605.32 422.13 L 642.73 477.99 L 682.79 536.59 L 685.13 541.72 L 684.87 546.58 L 681.46 550.00 L 675.98 549.53 L 664.70 544.15 L 658.16 539.49 L 650.86 534.16 L 574.19 429.43 L 570.79 427.51 L 564.51 426.99 L 468.43 449.72 L 266.13 497.76" fill="none" stroke="#e10600" stroke-width="4.5" stroke-linecap="round" stroke-linejoin="round" />
</svg>