<svg viewBox="0 0 400 300" xmlns="http://www.w3.org/2000/svg">
  <path d="M233.9,212.8 L229.1,214.1 L227.0,214.6 L220.5,216.1 L214.0,217.7 L205.9,219.7 L201.0,220.9 L193.4,222.8 L188.9,223.9 L181.1,225.9 L178.4,226.5 L172.9,227.9 L170.9,228.4 L158.1,231.5 L150.4,233.4 L146.9,234.2 L142.9,235.2 L138.3,236.3 L133.9,237.2 L130.0,237.9 L123.6,238.3 L117.4,237.8 L114.5,237.0 L109.5,234.9 L104.2,231.0 L101.5,227.9 L99.2,223.8 L98.4,221.4 L97.7,218.0 L97.8,213.0 L98.6,209.7 L99.2,208.3 L101.7,204.5 L103.6,202.7 L104.7,201.9 L106.5,201.0 L107.8,200.6 L109.2,200.4 L110.6,200.3 L112.7,200.6 L113.6,200.9 L114.6,201.4 L115.7,202.1 L116.7,203.0 L117.5,204.1 L118.3,205.4 L118.7,206.5 L119.1,208.2 L119.1,209.4 L119.1,210.4 L118.5,213.5 L118.1,215.9 L118.1,216.3 L118.3,219.2 L118.9,221.0 L119.6,222.1 L120.7,223.4 L121.7,224.1 L122.8,224.6 L123.8,224.9 L125.0,225.0 L126.7,224.8 L127.7,224.5 L129.1,223.9 L129.9,223.3 L131.5,221.9 L133.4,219.3 L134.6,216.5 L135.4,213.8 L135.5,212.6 L135.7,208.9 L135.4,206.3 L135.4,206.1 L134.8,203.3 L133.7,199.9 L131.5,195.5 L129.7,192.7 L127.2,189.4 L122.8,184.3 L121.2,182.6 L117.7,178.8 L113.5,174.2 L112.2,172.9 L109.8,170.3 L105.5,165.7 L103.7,163.7 L101.7,161.5 L99.3,158.7 L96.3,154.9 L94.0,151.9 L92.0,149.0 L88.9,143.9 L87.5,141.4 L86.2,138.8 L82.3,130.3 L80.8,126.6 L78.4,120.2 L77.2,116.7 L74.8,110.2 L72.9,104.9 L71.6,100.8 L70.9,98.2 L70.7,95.5 L70.9,94.2 L71.6,92.6 L72.1,91.8 L73.5,90.3 L74.3,89.9 L76.2,89.3 L78.1,89.3 L79.2,89.4 L80.5,89.8 L81.3,90.1 L83.6,91.3 L84.7,91.9 L85.8,92.8 L87.0,93.8 L88.2,94.9 L91.3,98.0 L93.6,100.7 L96.0,104.0 L97.6,106.5 L98.6,108.1 L100.5,111.6 L102.2,114.9 L103.9,118.6 L105.8,123.0 L108.0,127.8 L109.4,131.0 L111.6,135.8 L113.8,139.9 L116.4,144.3 L118.4,147.1 L125.7,154.2 L133.3,158.5 L136.6,159.7 L141.4,160.6 L144.6,160.9 L148.2,160.7 L153.7,159.6 L157.1,158.4 L161.8,155.9 L165.2,153.2 L167.3,151.2 L169.5,148.7 L173.5,142.3 L175.9,137.3 L177.6,133.6 L181.2,127.4 L183.1,125.3 L184.9,123.6 L189.0,120.7 L189.7,120.3 L194.2,118.7 L196.4,118.2 L199.6,118.1 L202.2,118.3 L204.7,119.0 L207.2,120.0 L210.5,122.0 L212.8,124.0 L214.0,125.4 L216.0,128.2 L217.9,132.1 L218.4,133.5 L219.4,136.3 L221.3,140.2 L222.6,142.1 L223.4,142.9 L225.9,144.9 L227.8,145.9 L229.7,146.4 L231.1,146.5 L234.1,146.2 L235.6,145.8 L238.2,144.3 L239.8,143.0 L241.8,140.7 L243.6,137.8 L244.5,135.9 L245.4,133.0 L245.9,129.5 L245.6,125.0 L244.3,120.2 L243.4,118.0 L241.6,114.4 L239.3,110.5 L238.0,108.3 L236.3,105.9 L234.9,103.6 L232.3,99.5 L231.0,97.4 L228.3,93.1 L225.9,89.3 L224.2,86.4 L222.3,83.3 L220.5,80.4 L217.4,75.1 L213.8,68.7 L211.3,64.4 L208.4,59.2 L206.3,55.5 L205.3,53.6 L203.5,50.5 L202.1,47.8 L199.5,43.2 L197.9,40.5 L197.0,38.9 L194.9,36.0 L193.3,34.5 L192.4,33.9 L189.7,32.8 L187.4,32.7 L185.3,33.4 L184.1,34.0 L182.4,35.3 L181.6,36.0 L180.8,36.9 L178.2,38.8 L176.4,39.7 L173.0,40.2 L172.1,40.1 L170.3,39.8 L168.9,39.4 L166.9,38.3 L165.4,37.2 L164.0,35.7 L162.4,33.5 L161.6,31.7 L160.8,29.1 L160.4,26.7 L160.3,23.4 L160.9,20.0 L162.0,16.9 L163.7,14.0 L166.5,10.6 L168.8,8.6 L169.8,8.0 L171.8,6.8 L178.1,4.6 L181.1,4.1 L185.6,4.0 L188.8,4.3 L191.5,4.9 L195.1,6.1 L199.3,8.2 L202.8,10.5 L206.4,13.7 L209.8,17.6 L214.0,23.7 L216.0,26.9 L219.1,31.9 L219.3,32.2 L222.3,37.0 L224.0,39.7 L227.5,45.2 L229.8,48.9 L232.2,52.6 L235.9,58.6 L237.6,61.4 L239.8,64.8 L243.3,70.4 L244.9,72.9 L248.7,79.0 L250.7,82.2 L254.0,87.4 L255.8,90.3 L259.8,96.6 L262.9,101.5 L265.6,105.8 L268.1,109.8 L269.8,112.5 L272.6,117.0 L273.5,118.3 L275.4,121.4 L278.9,126.9 L281.1,130.4 L286.1,138.2 L287.2,140.0 L290.2,144.7 L294.1,150.9 L298.0,157.1 L301.4,162.3 L303.4,165.4 L306.3,170.0 L310.2,176.0 L312.7,179.9 L314.8,183.1 L317.8,187.7 L321.0,192.7 L322.8,195.6 L327.8,203.4 L332.8,211.0 L336.2,216.2 L339.3,221.1 L343.2,227.0 L347.0,232.6 L349.0,235.7 L350.9,238.5 L352.8,241.3 L354.8,244.2 L356.2,246.4 L358.0,249.1 L359.1,250.7 L360.1,252.3 L360.8,253.5 L361.9,255.5 L362.4,256.7 L362.7,258.1 L362.8,259.6 L362.7,260.3 L362.5,261.1 L362.2,261.9 L361.8,262.5 L360.9,263.3 L359.6,263.8 L358.5,263.9 L356.9,263.9 L355.4,263.5 L351.8,261.8 L350.4,260.8 L348.4,259.1 L346.4,257.3 L344.3,255.2 L342.3,252.8 L339.9,249.7 L337.5,246.4 L336.1,244.4 L335.2,243.0 L333.9,240.9 L330.9,236.0 L328.1,231.3 L326.7,228.9 L324.7,225.4 L323.4,223.2 L321.3,219.5 L320.0,217.3 L317.2,212.8 L315.5,210.3 L312.7,206.2 L310.8,204.0 L306.2,200.3 L304.0,199.5 L302.2,199.1 L300.3,198.9 L296.6,199.2 L293.6,199.7 L290.2,200.5 L286.3,201.3 L284.4,201.7 L278.0,203.1 L273.0,204.2 L270.6,204.7 L266.9,205.5 L262.2,206.4 L258.6,207.2 L255.7,207.8 L249.3,209.2 L242.9,210.6 Z"
    fill="none"
    stroke="#FF6600"
    stroke-width="4"
    stroke-linecap="round"
    stroke-linejoin="round"/>
</svg>