<svg viewBox="0 0 400 300" xmlns="http://www.w3.org/2000/svg"><path d="M146.9,164.4 L148.0,163.6 L148.7,163.1 L149.3,162.8 L150.3,162.4 L151.4,161.9 L152.1,161.6 L153.0,161.4 L153.8,161.2 L154.5,161.1 L155.7,161.1 L157.0,161.3 L158.0,161.8 L158.7,162.4 L159.4,163.0 L160.0,164.0 L160.4,165.2 L160.7,166.1 L160.8,166.9 L160.8,167.7 L160.8,168.3 L160.7,169.0 L160.6,169.5 L160.5,170.2 L160.4,170.8 L160.3,171.8 L240.6,196.1 L240.9,195.3 L241.1,194.8 L241.4,194.1 L241.5,193.3 L241.6,192.6 L241.6,191.9 L241.6,191.2 L241.5,190.4 L241.3,189.6 L241.1,188.6 L240.4,185.9 L240.3,185.3 L240.2,184.8 L240.3,184.3 L240.4,183.7 L240.5,183.2 L240.8,182.6 L241.6,181.6 L247.0,173.5 L247.3,173.2 L247.7,172.9 L248.3,172.7 L249.0,172.4 L249.8,172.3 L252.3,171.8 L255.1,171.1 L256.2,170.9 L257.2,170.7 L258.5,170.1 L260.0,169.2 L261.3,168.0 L262.5,167.0 L265.1,164.6 L268.4,162.4 L67.6,227.9 L66.7,231.8 L65.7,236.4 L65.0,241.1 L64.3,247.1 L64.2,249.7 L64.3,252.6 L64.4,255.5 L64.6,257.6 L64.9,259.7 L65.5,262.2 L66.4,265.0 L67.6,268.3 L69.0,271.3 L70.6,274.0 L73.0,277.3 L75.5,280.5 L77.8,283.0 L80.7,285.8 L83.7,288.3 L87.1,290.8 L90.3,292.8 L93.5,294.5 L98.2,296.6 L101.2,297.7 L104.8,298.8 L109.1,299.9 L113.9,300.8 L117.8,301.2 L122.1,301.4 L126.3,301.2 L130.5,300.8 L134.7,300.2 L138.7,299.3 L143.6,297.8 L148.5,295.9 L152.7,293.9 L155.5,292.3 L158.4,290.4 L161.2,288.4 L164.4,285.7 L167.6,282.9 L171.5,278.9 L175.6,274.3 L179.7,269.4 L196.0,249.9 L268.2,102.7 L268.3,99.5 L267.6,96.9 L266.5,94.7 L265.0,92.7 L263.7,91.7 L264.4,90.7 L266.1,90.1 L267.1,88.9 L268.0,87.6 L240.6,196.1 L268.4,162.4 L196.0,249.9 L240.6,196.1 L234.9,77.8 L237.5,92.0 L237.7,93.1 L237.9,94.0 L238.1,94.7 L238.4,95.1 L238.7,95.4 L239.0,95.8 L239.5,96.1 L240.2,96.5 L241.0,96.7 L241.8,96.7 L242.5,96.6 L243.2,96.5 L243.9,96.1 L244.3,95.7 L244.6,95.4 L244.9,95.0 L245.1,94.6 L245.3,94.2 L245.5,93.8 L245.6,93.4 L245.7,92.9 L245.7,92.4 L245.7,91.8 L245.6,90.8 L244.9,85.9 L243.9,78.1 L243.3,77.0 L242.3,76.1 L240.7,75.0 L239.2,74.7 L237.2,74.6 L236.1,75.2 L235.5,76.0 L235.0,76.8 L234.9,77.8 L245.7,92.9 L247.1,90.9 L248.9,90.4 L255.1,89.6 L257.1,89.8 L258.0,91.4 L257.9,92.5 L256.4,96.9 L255.1,99.3 L253.1,101.7 L252.4,102.5 L251.2,102.8 L245.3,102.8 L244.0,103.2 L243.3,103.9 L242.8,104.9 L243.3,106.0 L245.5,107.9 L247.3,108.1 L252.2,108.2 L255.3,107.9 L259.2,107.0 L261.6,106.3 L263.3,105.3 L268.2,102.7 L269.0,102.3 L274.3,99.5 L274.6,99.4 L274.8,99.1 L274.9,98.9 L275.0,98.6 L275.1,98.2 L275.1,97.8 L275.0,97.5 L274.8,97.1 L274.2,95.9 L273.5,94.8 L272.3,92.9 L270.8,90.9 L268.0,87.6 L266.8,86.5 L265.5,85.3 L263.6,83.9 L261.8,82.7 L257.4,80.1 L254.8,78.9 L254.4,78.8 L254.0,78.8 L253.5,79.0 L253.1,79.1 L252.8,79.3 L252.5,79.5 L252.0,80.3 L251.9,80.5 L251.8,80.8 L251.7,81.0 L251.7,81.3 L251.8,81.6 L251.9,82.0 L252.5,83.5 L252.7,83.9 L252.8,84.2 L252.7,84.5 L252.5,84.8 L252.3,85.0 L252.0,85.2 L251.1,85.4 L247.6,86.1 L246.5,86.2 L244.9,85.9 L268.4,162.4 L282.5,145.6 L286.5,139.9 L289.7,134.9 L290.8,132.9 L292.0,130.2 L293.8,125.6 L294.8,121.9 L295.5,119.1 L295.9,117.0 L296.2,115.1 L296.3,112.5 L296.3,109.6 L296.1,106.0 L295.5,102.2 L294.6,99.0 L293.0,94.0 L291.6,91.0 L289.8,87.8 L287.2,84.0 L284.7,80.7 L282.2,77.8 L279.2,74.9 L276.5,72.8 L272.9,70.3 L268.8,67.8 L265.4,66.0 L262.2,64.7 L259.1,63.5 L255.0,62.3 L251.5,61.4 L247.2,60.7 L243.2,60.3 L240.4,60.2 L237.6,60.1 L233.6,60.3 L231.1,60.5 L227.8,61.0 L224.6,61.6 L221.9,62.3 L218.7,63.2 L215.2,64.4 L212.4,65.4 L209.2,66.6 L205.7,68.2 L193.2,74.3 L182.7,80.2 L180.7,81.2 L163.5,90.7 L152.5,96.8 L138.8,104.4 L133.6,107.4 L128.9,110.3 L125.1,112.4 L123.5,113.5 L122.0,114.5 L120.4,115.7 L118.6,117.1 L116.9,118.5 L115.1,120.0 L113.4,121.5 L111.7,123.0 L109.9,124.7 L108.2,126.5 L106.3,128.4 L104.7,130.2 L103.3,131.9 L101.7,133.9 L100.3,135.7 L98.9,137.7 L97.8,139.7 L95.9,142.8 L94.1,145.6 L92.2,149.1 L90.3,153.4 L87.2,162.1 L84.1,170.8 L81.0,180.5 L146.9,164.4 L151.2,159.5 L152.6,158.0 L154.3,156.7 L155.4,156.1 L156.4,155.7 L157.5,155.5 L158.4,155.4 L159.5,155.5 L160.3,155.8 L161.2,156.2 L162.2,156.9 L163.3,158.0 L163.8,158.8 L164.1,159.6 L164.3,160.7 L164.2,161.8 L164.1,163.0 L163.8,164.2 L163.2,165.5 L162.3,167.9 L161.0,170.4 L160.3,171.8 L119.8,254.3 L122.0,253.0 L124.7,252.4 L127.8,252.1 L130.8,252.3 L133.3,253.4 L135.8,254.6 L138.0,256.0 L139.7,257.6 L141.4,259.5 L143.2,261.9 L144.8,264.3 L145.6,265.7 L146.9,268.0 L147.9,269.1 L149.2,269.9 L150.8,270.5 L152.6,270.8 L155.9,270.7 L158.4,270.4 L161.0,269.6 L162.7,268.9 L166.7,267.1 L172.5,263.9 L196.0,249.9 L160.3,171.8 L159.2,173.5 L157.2,176.6 L155.4,178.9 L152.8,182.2 L139.3,198.5 L124.9,215.7 L123.2,217.9 L182.7,80.2 L173.6,90.8 L172.7,91.1 L171.8,91.1 L167.0,90.6 L163.5,90.7 Z" fill="none" stroke="#a855f7" stroke-width="3.5" stroke-linecap="round" stroke-linejoin="round"/></svg>