<svg viewBox="0 0 400 300" xmlns="http://www.w3.org/2000/svg"><path d="M275.6,135.7 L279.2,134.2 L282.5,132.8 L324.3,115.2 L330.0,112.8 L335.2,110.7 L341.9,107.8 L342.8,105.5 L345.1,99.5 L346.4,96.0 L347.7,92.4 L171.8,119.5 L114.9,143.7 L67.0,164.2 L48.1,172.4 L46.3,173.5 L45.9,174.2 L45.8,174.9 L45.9,175.5 L46.3,176.2 L46.6,176.8 L47.0,177.4 L47.4,178.0 L48.0,178.6 L48.6,179.0 L49.4,179.2 L50.2,179.4 L51.1,179.6 L52.2,179.2 L64.1,175.2 L72.0,172.3 L83.6,167.4 L97.2,161.6 L98.9,160.9 L99.9,160.5 L100.5,160.4 L101.1,160.4 L101.6,160.5 L102.5,161.7 L132.9,200.5 L134.1,202.1 L135.0,203.2 L135.3,203.4 L135.6,203.4 L136.1,203.4 L136.4,203.4 L136.9,203.3 L137.2,203.2 L137.7,203.1 L138.1,203.0 L138.5,202.8 L139.2,202.6 L139.7,202.4 L167.3,190.6 L168.2,190.3 L168.7,190.2 L169.1,190.2 L169.4,190.3 L169.9,190.5 L172.2,192.6 L176.0,194.8 L176.8,195.1 L177.6,195.4 L178.5,195.6 L179.5,195.8 L180.5,195.9 L181.4,195.9 L182.7,195.9 L183.9,195.7 L185.5,195.3 L187.0,194.7 L192.8,192.6 L236.3,174.1 L269.3,159.4 L284.8,152.6 L285.5,151.8 L285.7,151.2 L285.8,150.3 L272.8,131.5 L270.1,127.3 L270.0,126.9 L270.0,126.4 L270.4,126.0 L271.1,125.6 L271.6,125.4 L272.0,125.1 L272.6,124.9 L273.5,124.4 L325.6,101.9 L377.8,79.0 L378.3,77.9 L378.3,77.0 L378.3,76.1 L378.1,74.9 L359.6,47.0 L355.7,41.7 L354.3,40.9 L352.1,41.1 L350.5,41.4 L348.8,41.9 L346.4,42.6 L341.5,44.7 L332.4,48.7 L284.5,69.1 L171.8,119.5 Z" fill="none" stroke="#a855f7" stroke-width="3.5" stroke-linecap="round" stroke-linejoin="round"/></svg>