<svg viewBox="0 0 400 300" xmlns="http://www.w3.org/2000/svg"><path d="M205.0,154.5 L203.9,154.3 L203.1,154.1 L202.2,153.9 L201.5,153.6 L200.8,153.3 L200.3,152.9 L200.0,152.5 L199.8,151.8 L199.6,151.3 L199.5,150.5 L199.2,149.8 L198.9,149.1 L198.5,148.6 L198.0,148.0 L197.5,147.5 L196.8,147.1 L195.9,146.7 L194.9,146.4 L193.7,146.0 L191.9,145.8 L185.9,145.0 L170.0,142.8 L205.0,154.5 L203.6,154.6 L202.8,154.8 L202.0,155.0 L201.3,155.3 L200.6,155.6 L200.0,156.2 L199.5,156.8 L199.0,157.6 L198.7,158.3 L198.2,158.9 L197.6,159.4 L196.9,159.8 L196.1,160.3 L195.1,160.8 L194.0,161.1 L192.7,161.3 L191.2,161.5 L189.5,161.6 L181.9,161.6 L117.4,154.9 L128.7,153.4 L139.7,151.6 L148.1,150.3 L148.9,150.1 L149.6,149.8 L150.2,149.5 L150.6,149.1 L150.8,148.7 L150.9,148.2 L150.9,147.4 L150.8,146.8 L150.6,146.3 L150.2,145.7 L149.8,145.1 L149.2,144.6 L148.5,144.1 L148.1,144.0 L147.6,143.6 L146.9,143.3 L143.3,142.7 L165.6,142.4 L164.2,142.2 L162.8,142.2 L161.8,142.2 L160.6,142.3 L158.6,142.4 L153.5,142.9 L150.7,143.1 L149.4,143.1 L148.4,143.1 L147.3,143.0 L143.3,142.7 L140.1,142.3 L121.1,139.9 L96.8,137.1 L72.1,134.1 L56.4,131.5 L41.8,128.4 L170.0,142.8 L165.6,142.4 L41.8,128.4 L168.6,152.7 L170.8,152.7 L172.2,152.5 L173.2,152.3 L174.1,152.1 L175.0,151.7 L175.6,151.4 L176.1,150.9 L176.6,150.5 L176.9,150.0 L177.1,149.4 L177.2,148.9 L177.2,148.3 L177.0,147.8 L176.8,147.2 L176.4,146.6 L176.1,146.0 L175.6,145.5 L175.0,145.0 L174.2,144.4 L173.6,144.0 L172.7,143.6 L172.2,143.4 L171.7,143.2 L170.0,142.8 L348.3,107.4 L362.6,123.0 L368.1,128.8 L378.6,139.5 L378.6,139.5 L381.7,142.7 L382.9,144.1 L383.4,145.1 L383.8,145.9 L383.9,146.7 L383.9,147.6 L383.6,148.7 L382.8,150.1 L380.0,153.1 L378.2,154.9 L376.6,156.1 L374.9,157.1 L372.5,158.1 L369.5,159.4 L365.5,160.7 L362.1,161.5 L358.3,162.0 L354.9,162.2 L350.5,162.3 L347.3,162.2 L347.3,162.2 L275.4,158.3 L223.8,155.4 L205.0,154.5 L84.7,157.9 L117.4,154.9 L129.4,154.0 L141.1,153.0 L142.2,152.9 L146.1,152.7 L152.1,152.5 L156.8,152.5 L160.9,152.6 L164.9,152.7 L168.6,152.7 L181.9,161.6 L154.3,161.7 L142.7,161.7 L138.6,161.8 L134.4,161.8 L130.5,161.9 L122.3,162.5 L114.0,163.0 L86.0,165.2 Z" fill="none" stroke="#ec4899" stroke-width="3.5" stroke-linecap="round" stroke-linejoin="round"/></svg>