<svg viewBox="0 0 400 300" xmlns="http://www.w3.org/2000/svg">
  <path d="M112.4,87.4 L116.5,77.5 L118.9,71.7 L122.5,62.7 L124.5,58.0 L127.4,50.6 L129.1,45.7 L132.5,34.2 L134.3,27.7 L135.3,24.2 L136.8,20.1 L138.2,17.0 L139.9,14.3 L141.9,12.1 L144.2,10.3 L146.4,9.2 L150.5,8.5 L153.3,8.8 L157.3,10.3 L159.5,12.2 L160.4,13.4 L161.9,16.0 L163.1,20.3 L163.2,23.3 L162.5,28.2 L161.5,32.0 L159.6,37.4 L157.8,42.2 L156.1,46.2 L154.6,49.6 L152.0,55.5 L150.1,59.8 L147.4,68.6 L146.8,73.9 L146.7,76.5 L147.4,85.5 L147.8,91.2 L147.1,96.9 L146.6,98.3 L144.2,102.4 L140.0,106.0 L134.5,108.7 L128.8,110.9 L124.1,112.7 L119.8,114.5 L115.8,117.0 L113.5,119.6 L112.3,121.9 L111.5,125.9 L111.7,128.0 L112.2,130.0 L113.0,132.0 L117.4,135.8 L120.3,136.9 L123.1,137.3 L126.7,137.0 L132.1,135.6 L133.5,135.1 L139.4,133.3 L142.7,132.1 L146.3,130.7 L148.0,130.1 L153.7,128.1 L159.3,126.4 L163.2,125.3 L168.0,124.3 L176.0,123.3 L184.7,123.2 L193.7,123.9 L200.1,124.9 L209.8,126.8 L214.1,127.5 L223.5,128.8 L227.9,128.9 L236.1,128.3 L243.2,126.5 L247.4,124.9 L252.8,122.4 L258.0,119.4 L263.1,116.3 L267.8,113.4 L273.1,110.6 L278.6,108.3 L283.8,106.7 L288.2,105.9 L294.0,105.2 L298.9,104.9 L302.8,104.8 L307.8,104.7 L312.8,104.7 L325.4,104.9 L331.9,105.3 L336.4,105.8 L340.7,106.7 L344.4,107.9 L349.5,110.5 L354.0,114.0 L359.3,120.6 L361.8,125.6 L363.1,130.0 L363.7,138.3 L363.0,143.5 L359.6,152.8 L358.0,155.7 L355.3,160.0 L351.4,166.2 L349.2,169.7 L346.5,174.1 L343.9,178.5 L341.0,183.9 L338.3,189.5 L336.0,194.8 L334.3,198.7 L332.7,202.2 L330.5,206.2 L326.8,210.8 L321.4,214.1 L314.6,215.8 L312.5,216.0 L306.6,216.1 L299.1,215.5 L295.8,215.0 L290.5,213.8 L285.6,212.3 L281.6,210.7 L278.6,209.3 L274.4,206.8 L272.0,205.0 L268.5,201.7 L268.3,201.6 L266.3,199.1 L265.2,197.4 L263.9,193.7 L263.8,191.1 L264.2,189.7 L266.0,186.7 L268.1,184.1 L269.9,182.5 L270.4,182.1 L272.5,180.5 L276.3,178.3 L277.8,177.5 L282.2,175.8 L285.9,174.7 L290.3,173.7 L293.9,173.2 L297.7,172.7 L300.6,172.2 L306.1,171.1 L309.3,170.3 L311.1,169.7 L313.4,168.9 L316.4,167.6 L320.3,165.2 L322.3,163.1 L323.0,161.9 L323.8,160.2 L324.5,158.0 L324.7,156.1 L324.7,154.4 L323.6,149.8 L322.6,147.7 L319.9,144.1 L318.6,143.0 L313.7,140.2 L310.6,139.3 L305.2,138.3 L302.4,137.9 L299.5,137.5 L297.4,137.2 L293.2,136.6 L289.9,136.3 L284.7,135.8 L281.8,135.6 L277.6,135.5 L274.1,135.6 L266.1,136.0 L261.5,136.4 L254.3,137.3 L244.7,139.1 L240.3,140.1 L231.4,142.6 L220.9,145.9 L217.7,147.1 L208.7,150.5 L204.5,151.9 L200.9,153.0 L196.1,154.4 L190.8,156.1 L185.1,158.1 L179.9,160.1 L174.3,162.5 L170.6,164.1 L169.3,164.8 L163.9,167.5 L161.1,168.8 L157.8,169.8 L155.1,169.6 L152.5,168.3 L150.0,166.0 L147.7,164.2 L145.3,162.9 L141.0,162.0 L137.8,162.3 L137.4,162.4 L135.4,163.0 L134.2,163.6 L132.4,164.9 L131.1,166.4 L130.2,167.8 L129.5,169.5 L129.1,172.0 L129.2,174.9 L129.6,177.9 L130.6,183.6 L131.5,188.9 L132.0,191.6 L132.9,196.8 L133.7,201.7 L135.2,210.0 L135.9,214.2 L136.9,220.0 L137.8,225.2 L138.7,230.1 L139.7,235.5 L140.2,238.8 L140.9,243.0 L141.4,247.1 L141.0,255.2 L138.6,260.6 L137.0,262.8 L135.8,264.0 L133.0,266.1 L128.4,267.9 L125.0,268.3 L121.1,268.4 L116.4,268.2 L108.6,267.8 L104.6,267.5 L99.0,266.8 L96.1,266.3 L92.8,265.4 L87.0,263.4 L83.8,262.1 L78.3,259.1 L74.6,256.5 L69.5,251.8 L65.0,245.8 L63.7,243.8 L61.5,239.0 L60.4,235.4 L59.7,226.8 L60.2,222.9 L60.8,220.0 L62.2,215.2 L67.5,202.9 L69.6,197.2 L72.0,191.0 L73.9,186.2 L75.4,182.3 L78.4,174.4 L80.9,168.0 L83.4,161.5 L85.4,156.4 L87.8,150.2 L90.4,143.3 L91.2,141.3 L94.6,132.5 L96.4,127.9 L99.4,120.1 L101.5,114.7 L103.7,109.0 L106.2,102.5 Z"
    fill="none"
    stroke="#FF6600"
    stroke-width="4"
    stroke-linecap="round"
    stroke-linejoin="round"/>
</svg>