<svg id="Layer_1" data-name="Layer 1" xmlns="http://www.w3.org/2000/svg" viewBox="0 0 590.169 503.5"><title>dutch_gp</title><polyline points="73.409 230.201 139.168 71.232 164.161 12.894 169.815 6.449 177.476 2.824 185.834 1.75 193.578 3.361 200.871 8.329 205.951 14.572 208.656 22.36 208.86 31.02 201.609 47.87 180.754 98.622 174.035 122.252 171.331 146.89 172.765 169.983 170.593 179.382 165.472 185.692 155.229 194.016 144.208 198.38 113.766 210.262 105.94 216.17 103.81 224.897 103.523 232.752 106.678 240.74 112.578 246.447 119.952 249.467 131.261 249.199 187.023 231.409 212.917 226.576 235.246 225.837 254.994 227.314 273.677 230.469 286.993 234.564 308.79 239.196 328.907 240.942 343.165 237.988 360.332 233.49 380.981 223.085 405.236 207.241 421.666 199.454 436.293 195.225 455.59 193.077 470.791 193.412 534.173 197.306 548.8 200.663 562.362 207.443 571.99 215.7 578.176 224.494 584.199 234.564 587.395 246.178 588.419 258.463 587.272 270.48 583.749 282.698 576.128 295.99 546.997 335.732 536.263 353.388 511.926 405.952 500.249 410.048 485.827 411.726 472.02 411.055 455.754 408.302 438.874 402.529 420.805 393.869 402.901 381.114 391.839 368.828 389.831 361.31 391.593 353.388 398.476 343.452 408.309 337.142 422.772 331.839 447.478 327.945 471.282 321.97 492.997 313.646 505.002 305.187 509.549 295.05 510.164 283.973 506.272 272.964 496.234 262.961 487.22 259.806 440.39 254.1 393.232 254.234 343.124 260.276 300.759 270.95 274.537 279.207 245.612 289.948 217.956 301.696 195.422 315.056 187.146 318.614 181.246 317.472 175.714 309.819 169.815 298.675 161.702 293.64 151.296 293.238 141.135 298.004 135.727 305.321 133.227 313.176 135.727 329.153 158.425 461.672 158.916 470.534 156.417 479.596 152.402 487.249 148.51 492.15 138.881 498.662 128.597 501.012 85.004 501.75 76.113 501.28 63.166 499.266 49.769 494.903 38.747 489.868 24.079 478.321 14.533 465.566 8.019 454.623 3.266 439.854 1.75 426.898 3.102 405.751 7.117 390.714 70.008 238.122 73.409 230.201" fill="none" stroke="#e10600" stroke-linecap="round" stroke-linejoin="round" stroke-width="3.5"/></svg>