<svg xmlns="http://w3.org" viewBox="0 0 800 600" width="100%" height="100%">
  <path d="M 178.32 278.45 L 244.08 119.48 L 269.08 61.14 L 274.73 54.70 L 282.39 51.07 L 290.75 50.00 L 298.49 51.61 L 305.79 56.58 L 310.87 62.82 L 313.57 70.61 L 313.78 79.27 L 306.52 96.12 L 285.67 146.87 L 278.95 170.50 L 276.25 195.14 L 277.68 218.23 L 275.51 227.63 L 270.39 233.94 L 260.14 242.27 L 249.12 246.63 L 218.68 258.51 L 210.86 264.42 L 208.73 273.15 L 208.44 281.00 L 211.59 288.99 L 217.49 294.70 L 224.87 297.72 L 236.18 297.45 L 291.94 279.66 L 317.83 274.83 L 340.16 274.09 L 359.91 275.56 L 378.59 278.72 L 391.91 282.81 L 413.70 287.45 L 433.82 289.19 L 448.08 286.24 L 465.25 281.74 L 485.90 271.33 L 510.15 255.49 L 526.58 247.70 L 541.21 243.47 L 560.51 241.33 L 575.71 241.66 L 639.09 245.56 L 653.72 248.91 L 667.28 255.69 L 676.91 263.95 L 683.09 272.74 L 689.11 282.81 L 692.31 294.43 L 693.33 306.71 L 692.19 318.73 L 688.66 330.95 L 681.04 344.24 L 651.91 383.98 L 641.18 401.64 L 616.84 454.20 L 605.16 458.30 L 590.74 459.98 L 576.93 459.30 L 560.67 456.55 L 543.79 450.78 L 525.72 442.12 L 507.82 429.36 L 496.75 417.08 L 494.75 409.56 L 496.51 401.64 L 503.39 391.70 L 513.22 385.39 L 527.69 380.09 L 552.39 376.19 L 576.20 370.22 L 597.91 361.90 L 609.92 353.44 L 614.46 343.30 L 615.08 332.22 L 611.19 321.21 L 601.15 311.21 L 592.14 308.06 L 545.31 302.35 L 498.15 302.48 L 448.04 308.53 L 405.67 319.20 L 379.45 327.46 L 350.53 338.20 L 322.87 349.95 L 300.34 363.31 L 292.06 366.86 L 286.16 365.72 L 280.63 358.07 L 274.73 346.93 L 266.62 341.89 L 256.21 341.49 L 246.05 346.25 L 240.64 353.57 L 238.14 361.43 L 240.64 377.40 L 263.34 509.92 L 263.83 518.78 L 261.33 527.85 L 257.32 535.50 L 253.42 540.40 L 243.80 546.91 L 233.51 549.26 L 189.92 550.00 L 181.03 549.53 L 168.08 547.52 L 154.68 543.15 L 143.66 538.12 L 128.99 526.57 L 119.45 513.82 L 112.93 502.87 L 108.18 488.10 L 106.67 475.15 L 108.02 454.00 L 112.03 438.96 L 174.92 286.37 L 178.32 278.45" fill="none" stroke="#f97316" stroke-width="4.5" stroke-linecap="round" stroke-linejoin="round" />
</svg>