<svg viewBox="0 0 400 300" xmlns="http://www.w3.org/2000/svg"><path d="M155.2,126.9 L156.1,125.1 L156.9,124.0 L157.6,123.3 L158.5,122.7 L159.7,122.2 L160.2,122.0 L160.9,121.8 L161.5,121.7 L162.1,121.5 L162.8,121.5 L163.5,121.4 L164.2,121.5 L164.9,121.5 L165.6,121.6 L166.3,121.7 L166.9,121.8 L167.6,122.0 L168.4,122.3 L168.9,122.5 L169.4,122.7 L170.0,123.0 L170.5,123.4 L171.2,123.9 L171.7,124.3 L172.2,124.8 L172.6,125.2 L173.0,125.7 L173.4,126.3 L173.8,126.9 L174.2,127.9 L174.4,128.8 L174.6,129.7 L174.7,130.5 L174.8,131.2 L174.8,132.7 L174.7,134.0 L174.5,135.1 L173.8,137.7 L308.4,20.6 L291.0,45.0 L281.9,58.4 L276.7,66.1 L272.5,72.3 L270.2,75.9 L268.7,78.4 L266.4,83.4 L263.8,88.6 L259.2,97.4 L259.1,97.6 L249.7,113.9 L227.7,151.9 L227.2,152.6 L225.2,155.9 L222.7,160.6 L219.9,166.1 L217.3,171.3 L215.0,175.7 L211.4,182.1 L205.1,192.9 L202.0,198.1 L201.5,199.0 L201.0,199.8 L200.5,200.5 L200.1,201.0 L199.6,201.5 L199.1,201.9 L198.6,202.3 L198.1,202.6 L197.4,203.0 L196.6,203.4 L195.9,203.6 L195.1,203.9 L194.4,204.1 L193.8,204.2 L193.3,204.3 L192.6,204.4 L191.9,204.5 L191.1,204.5 L190.5,204.5 L189.8,204.4 L189.2,204.3 L188.6,204.2 L187.8,203.9 L187.1,203.7 L186.4,203.5 L185.8,203.2 L185.1,202.8 L184.4,202.4 L182.3,201.1 L180.0,199.7 L177.7,198.2 L168.0,192.1 L190.0,164.2 L192.0,156.5 L194.8,145.8 L198.0,133.8 L201.2,121.4 L203.3,113.7 L203.6,112.6 L204.0,111.5 L204.4,110.6 L205.0,109.8 L205.6,109.0 L206.5,108.1 L208.1,106.4 L222.6,92.3 L236.1,79.0 L269.0,46.6 L289.4,26.7 L318.1,3.8 L308.4,20.6 L282.8,64.6 L280.5,68.4 L248.3,124.2 L229.1,157.4 L212.1,186.6 L200.7,206.5 L167.1,159.9 L166.8,161.2 L166.5,162.5 L166.5,163.5 L166.6,164.6 L166.8,165.9 L167.2,167.0 L167.5,167.7 L167.8,168.2 L168.1,168.8 L168.5,169.3 L168.9,169.8 L169.2,170.2 L170.0,170.8 L170.5,171.2 L171.2,171.6 L171.8,171.9 L172.4,172.1 L173.1,172.3 L173.7,172.6 L174.5,172.7 L175.4,172.9 L176.2,172.9 L176.9,173.0 L177.8,173.0 L178.6,173.0 L179.4,173.0 L180.5,172.9 L181.5,172.7 L182.3,172.5 L183.0,172.2 L183.7,171.9 L184.3,171.6 L185.4,171.0 L186.0,170.5 L186.5,170.1 L187.0,169.6 L187.4,169.2 L188.1,168.2 L188.8,167.1 L189.2,166.3 L189.6,165.3 L190.0,164.2 L244.9,219.9 L240.5,221.7 L238.7,223.2 L239.4,224.5 L240.7,226.7 L242.9,230.5 L245.3,234.0 L245.7,234.9 L246.3,235.6 L246.8,236.2 L247.4,236.6 L248.0,237.0 L249.2,237.5 L250.6,237.9 L251.8,238.2 L252.6,238.3 L258.4,227.6 L253.9,221.2 L250.4,220.0 L244.9,219.9 L200.7,206.5 L198.7,209.8 L198.4,210.1 L198.2,210.4 L197.8,210.9 L197.6,211.1 L197.3,211.4 L197.0,211.6 L196.6,211.9 L196.1,212.1 L195.6,212.4 L195.1,212.5 L194.6,212.7 L194.0,212.8 L193.2,213.0 L192.5,213.0 L191.7,213.0 L190.9,213.0 L190.2,212.8 L189.6,212.7 L189.0,212.5 L188.5,212.3 L187.9,212.0 L187.4,211.6 L186.9,211.2 L186.5,210.8 L186.1,210.3 L185.8,209.9 L185.4,209.3 L184.9,208.6 L184.3,207.8 L183.7,206.9 L183.0,206.0 L182.2,205.0 L181.7,204.4 L181.7,204.4 L180.5,203.0 L178.8,201.2 L177.3,199.7 L175.5,198.1 L173.6,196.4 L171.0,194.3 L168.0,192.1 L164.1,189.4 L158.6,185.8 L144.4,176.8 L144.4,176.8 L141.9,175.1 L141.3,174.7 L140.8,174.2 L140.4,173.8 L139.9,173.3 L139.6,172.9 L139.3,172.4 L139.0,171.9 L138.8,171.4 L138.7,170.9 L138.5,170.5 L138.5,170.0 L138.5,169.5 L138.4,169.0 L138.5,168.4 L138.6,167.9 L138.7,167.2 L138.8,166.6 L139.1,165.7 L139.8,163.8 L139.8,163.8 L142.9,155.7 L146.0,147.5 L148.5,141.5 L152.0,133.9 L155.2,126.9 L173.8,137.7 L173.1,140.4 L170.9,147.7 L167.1,159.9 L219.5,109.9 L218.9,108.7 L218.6,108.0 L218.5,107.7 L218.5,107.3 L218.6,106.9 L218.8,106.6 L219.3,105.8 L219.6,105.5 L219.9,105.0 L220.4,104.6 L220.6,104.3 L220.9,104.0 L221.1,103.7 L221.4,103.2 L222.1,102.1 L222.5,101.6 L222.8,101.2 L223.0,101.0 L223.3,100.9 L223.5,100.8 L223.8,100.7 L224.2,100.6 L224.6,100.6 L224.9,100.6 L225.3,100.7 L225.7,100.8 L226.0,101.0 L226.4,101.3 L226.6,101.6 L226.7,101.8 L226.8,102.0 L226.8,102.3 L226.8,102.6 L226.8,102.9 L226.7,103.3 L226.6,103.6 L226.4,104.3 L226.1,105.0 L226.0,105.5 L225.9,105.7 L226.0,106.0 L226.0,106.3 L226.1,106.5 L226.1,106.7 L226.1,106.9 L226.1,107.7 L226.1,108.2 L226.0,108.7 L226.0,109.2 L225.8,110.0 L225.6,110.5 L225.4,110.9 L225.0,111.4 L224.7,111.8 L224.2,112.2 L223.8,112.5 L222.7,113.2 L221.8,113.7 L221.5,114.0 L221.2,114.3 L220.8,114.7 L220.3,115.4 L219.8,116.0 L219.2,117.0 L218.8,117.5 L218.6,117.7 L218.5,117.9 L218.3,118.0 L218.0,118.2 L217.6,118.4 L217.0,118.6 L216.6,118.7 L215.9,118.8 L215.2,118.9 L214.4,118.7 L213.6,118.6 L212.8,118.2 L212.0,117.8 L211.8,117.6 L211.6,117.3 L211.3,116.9 L211.2,116.3 L211.1,115.9 L211.2,115.6 L211.3,115.3 L211.4,114.8 L211.6,114.5 L211.8,114.2 L211.9,113.9 L212.2,113.6 L212.4,113.4 L212.7,113.1 L213.1,112.8 L213.5,112.6 L213.9,112.5 L214.2,112.4 L214.9,112.3 L216.6,112.3 L217.2,112.2 L217.7,112.0 L218.1,111.8 L218.6,111.5 L219.0,111.2 L219.3,110.9 L219.4,110.6 L219.5,110.4 L219.5,110.1 L219.5,109.9 Z" fill="none" stroke="#ec4899" stroke-width="3.5" stroke-linecap="round" stroke-linejoin="round"/></svg>