<svg id="Layer_1" data-name="Layer 1" xmlns="http://www.w3.org/2000/svg" viewBox="0 0 526.044 215.399"><title>estoril_sbk</title><polyline points="200.918 209.037 10.326 205.597 6.069 203.873 2.664 199.216 1.75 194.264 3.248 188.575 20.838 163.631 32.829 126.893 40.759 98.038 44.307 91.289 48.653 86.579 56.044 85.174 96.734 80.282 142.197 77.023 148.225 78.59 153.057 83.066 155.266 90.239 154.355 97.675 150.179 104.391 143.406 108.839 129.451 113.174 80.308 121.719 74.847 124.687 70.452 127.673 66.713 133.853 66.145 140.792 67.216 145.979 71.179 152.699 77.295 156.663 84.609 158.24 90.926 157.64 196.36 135.55 201.409 135.498 207.421 137.029 411.184 191.326 418.068 191.263 422.718 189.254 427.189 185.801 431.194 179.463 432.616 174.241 432.38 166.215 430.577 158.561 427.459 151.346 423.627 145.96 417.756 140.5 411.579 136.91 263.022 96.094 258.539 92.815 254.44 87.197 252.758 82.274 252.013 76.293 253.169 71.23 255.872 64.976 260.883 59.29 266.995 54.215 350.666 5.626 356.271 3.377 362.162 2.049 368.888 1.75 377.118 4.801 386.127 10.687 405.667 30.757 426.817 56.998 432.25 70.603 435.498 98.756 438.413 106.015 443.701 110.772 453.054 112.554 483.327 110.643 493.53 112.971 504.624 118.782 513.056 125.527 520.757 137.673 523.704 149.135 524.294 163.267 521.396 176.038 515.813 187.622 509.497 196.35 498.944 204.561 489.696 209.47 477.729 212.99 465.14 213.649 200.918 209.037" fill="none" stroke="#ec4899" stroke-linecap="round" stroke-linejoin="round" stroke-width="3.5"/></svg>