<svg viewBox="0 0 400 300" xmlns="http://www.w3.org/2000/svg"><path d="M196.2,150.7 L192.9,143.7 L191.2,139.7 L190.6,137.6 L190.7,135.2 L191.1,133.2 L192.0,131.1 L195.2,126.3 L196.7,124.4 L199.0,121.9 L201.5,119.2 L203.0,117.6 L204.6,115.6 L205.8,114.0 L207.9,110.9 L212.0,104.8 L214.3,101.3 L216.1,99.2 L217.4,98.1 L218.7,97.2 L220.2,96.5 L222.2,95.9 L224.3,95.6 L226.7,95.5 L228.6,95.6 L231.1,96.0 L233.1,96.6 L235.2,97.8 L237.1,99.6 L238.5,101.5 L239.2,102.9 L239.5,104.2 L239.8,105.9 L239.8,107.6 L239.6,109.5 L239.3,111.5 L238.7,113.6 L237.3,117.4 L235.8,121.7 L234.8,124.5 L234.6,125.9 L234.8,127.6 L235.2,129.4 L235.6,130.7 L235.8,131.8 L235.7,133.1 L235.4,138.0 L235.4,141.0 L235.1,143.9 L234.8,146.4 L233.7,151.4 L232.5,154.3 L231.3,156.8 L229.2,159.7 L227.2,162.2 L224.5,164.5 L221.8,166.3 L215.5,170.3 L210.2,173.7 L208.1,175.3 L206.2,177.1 L204.2,179.3 L201.2,183.5 L198.3,187.4 L194.3,193.2 L192.3,196.1 L191.2,197.3 L190.3,198.2 L189.0,199.2 L187.6,200.1 L185.1,201.3 L181.8,202.5 L178.9,203.3 L174.9,204.0 L171.0,204.1 L166.1,203.4 L161.3,202.4 L156.3,200.2 L152.0,197.7 L150.4,196.5 L149.1,194.9 L147.8,192.6 L146.9,189.1 L146.7,186.7 L147.1,184.5 L147.5,182.7 L148.4,180.1 L149.3,178.1 L150.3,176.3 L151.4,174.6 L152.7,172.9 L154.2,171.4 L156.0,169.9 L158.4,168.1 L160.6,167.0 L162.9,166.3 L164.9,165.8 L169.1,165.4 L179.4,164.8 L182.8,164.4 L185.4,163.6 L188.0,162.4 L191.2,160.4 L193.4,158.7 L195.2,156.8 L196.0,155.3 L196.5,153.7 L196.6,152.1 L196.2,150.7 Z" fill="none" stroke="#ec4899" stroke-width="3.5" stroke-linecap="round" stroke-linejoin="round"/></svg>