<svg id="Layer_1" data-name="Layer 1" xmlns="http://www.w3.org/2000/svg" viewBox="0 0 386.25 159.941"><title>f1_abu_dhabi_gp</title><polyline points="182.219 94.095 174.001 146.082 174.091 148.984 175.559 151.587 178 153.815 180.753 154.917 183.943 155.069 220.336 157.269 224.458 157.011 227.758 155.953 231.315 153.616 233.399 151.388 242.053 138.549 245.854 134.559 249.293 131.772 253.234 129.504 256.756 127.961 259.63 126.891 265.423 126.283 269.576 126.677 273.862 127.894 278.657 130.276 283.486 133.473 295.947 141.054 305.591 145.305 312.671 147.567 319.029 148.785 351.922 154.398 372.689 157.799 375.159 157.988 377.183 158.066 379.558 157.145 382.434 155.225 383.429 153.844 384.147 152.127 384.375 150.355 384.201 148.324 383.238 146.563 382.21 145.357 380.387 143.683 372.089 137.812 359.619 130.85 292.614 83.508 266.693 65.102 252.222 54.871 240.963 47.076 226.74 38.208 200.897 20.723 177.757 4.509 175.55 2.766 173.748 1.949 172.582 1.875 171.207 2.498 170.492 4.63 169.055 12.871 168.529 14.623 166.413 15.529 147.898 14.897 144.397 14.859 136.423 15.572 130.543 16.638 120.726 19.788 111.393 23.936 102.1 29.889 65.07 55.84 56.463 61.7 50.273 66.492 42.565 73.059 36.435 78.834 27.598 88.49 19.864 97.419 8.002 110.585 3.389 116.355 2.258 120.042 1.875 124.183 2.869 128.369 4.131 130.818 5.559 132.627 7.846 134.693 10.228 136.19 12.513 137.336 16.602 138.195 19.741 138.262 22.889 137.964 25.894 137.048 28.875 135.366 31.726 133.024 34.025 130.332 36.03 126.011 49.645 91.079 51.548 86.842 52.535 85.068 53.855 83.279 71.635 67.656 73.679 66.153 75.741 65.345 79.73 65.023 102.011 66.832 103.569 67.621 104.371 68.989 104.343 70.683 101.945 87.355 102.169 89.47 102.435 90.861 103.353 92.517 105.362 94.5 108.218 95.679 122.698 100.069 125.527 99.653 127.442 98.663 128.929 96.74 130.471 93.958 131.597 91.467 132.752 88.041 133.523 84.545 138.39 49.704 139.043 46.771 140.277 43.161 141.974 39.782 143.52 37.578 145.491 36.398 147.807 35.252 167.151 31.095 176.198 28.657 178.745 28.34 181.945 28.541 184.566 29.074 187.639 29.95 189.574 31.082 190.714 32.759 191.023 34.508 190.605 38.178 182.219 94.095" fill="none" stroke="#e10600" stroke-linecap="round" stroke-linejoin="round" stroke-width="3.75"/></svg>