<svg id="Layer_1" data-name="Layer 1" xmlns="http://www.w3.org/2000/svg" viewBox="0 0 512.438 495.259"><title>f1_dutch_gp</title><polyline points="257.402 492.752 85.371 493.509 21.907 492.993 13.778 490.267 7.475 484.601 3.255 477.306 1.75 469.541 3.515 460.896 7.311 453.798 13.449 448.295 21.358 444.761 39.701 444.94 94.569 444.57 118.961 441.639 142.731 434.616 163.477 424.372 172.985 422.744 180.784 425.03 192.419 431.262 200.702 439.742 223.422 463.231 231.894 468.166 240.766 466.76 248.122 463.991 254.272 457.995 257.256 450.348 257.193 442.379 252.577 432.052 214.627 387.492 200.166 365.475 190.858 345.164 184.592 326.379 180.285 307.927 178.918 294.063 174.77 272.169 168.609 252.939 160.376 240.929 149.596 226.833 132.021 211.806 108.038 195.554 94.508 183.408 84.957 171.551 75.521 154.581 69.958 140.431 49.064 80.464 46.51 65.676 47.525 50.548 51.422 38.478 57.144 29.374 64.105 19.929 73.583 12.495 84.518 6.804 96.046 3.22 108.676 1.75 123.88 3.644 171.791 15.161 192.223 18.241 250.108 20.383 258.396 29.572 265.516 42.226 270.23 55.22 273.975 71.287 275.171 89.087 274.163 109.098 269.315 130.54 262.257 145.489 256.097 150.246 248.11 151.681 236.287 149.17 226.667 142.538 216.189 131.247 203.053 109.963 188.346 90.315 172.28 73.501 159.84 65.696 148.733 65.417 138.279 69.13 129.628 76.973 124.279 90.096 124.851 99.628 137.679 145.028 156.02 188.473 180.95 232.357 207.161 267.309 224.907 288.306 245.988 310.837 267.508 331.807 288.535 347.431 295.014 353.69 296.241 359.573 291.319 367.631 283.319 377.378 281.809 386.806 285.457 396.56 293.779 404.091 302.618 406.253 310.828 405.524 324.599 397.046 438.062 324.917 446.046 321.041 455.371 319.845 463.981 320.592 470.005 322.289 479.73 328.654 485.87 337.232 503.392 377.156 506.393 385.538 509.537 398.258 510.688 412.301 510.301 424.412 505.317 442.402 497.24 456.134 489.664 466.37 477.877 476.459 466.512 482.863 446.485 489.785 431.063 491.89 266.022 492.829 257.402 492.752" fill="none" stroke="#e10600" stroke-linecap="round" stroke-linejoin="round" stroke-width="3.5"/></svg>