<svg viewBox="0 0 400 300" xmlns="http://www.w3.org/2000/svg"><path d="M208.4,111.1 L211.1,110.2 L213.9,109.3 L215.3,108.9 L216.6,108.6 L217.5,108.3 L218.7,108.0 L219.6,107.8 L220.4,107.7 L221.5,107.5 L222.7,107.3 L223.7,107.2 L224.8,107.1 L227.4,106.9 L231.1,106.8 L238.3,106.6 L287.1,73.7 L288.9,72.9 L290.1,72.4 L291.2,71.9 L292.1,71.6 L292.8,71.3 L293.5,71.1 L294.7,70.6 L296.9,69.9 L298.7,69.3 L300.8,68.7 L302.6,68.2 L305.2,67.5 L329.9,61.3 L331.1,61.0 L332.2,60.8 L333.4,60.7 L334.5,60.7 L335.7,60.8 L336.7,60.9 L337.8,61.2 L339.3,61.6 L341.1,62.3 L344.3,63.5 L347.4,64.6 L350.0,65.6 L352.5,66.7 L355.1,67.8 L357.4,68.8 L360.0,69.9 L362.7,71.2 L364.5,72.0 L364.8,72.1 L366.2,72.8 L369.3,74.3 L238.3,106.6 L243.5,106.4 L246.1,106.4 L248.8,106.3 L250.5,106.2 L251.5,106.1 L252.4,106.0 L253.2,105.9 L253.9,105.8 L254.5,105.7 L255.0,105.5 L255.5,105.4 L256.1,105.2 L256.7,105.0 L257.4,104.7 L258.1,104.3 L258.8,104.0 L259.4,103.7 L260.1,103.3 L260.8,102.9 L261.3,102.5 L261.8,102.1 L262.2,101.7 L262.7,101.3 L263.1,100.9 L263.5,100.4 L263.9,100.0 L264.3,99.5 L264.6,99.0 L264.9,98.5 L265.3,98.0 L265.6,97.4 L265.8,97.0 L266.0,96.6 L266.1,96.2 L266.2,95.9 L266.3,95.6 L266.3,95.4 L266.3,95.3 L266.3,94.9 L266.3,94.4 L266.4,93.7 L266.4,92.1 L266.4,91.6 L266.4,91.2 L266.5,90.7 L266.5,90.3 L266.6,89.9 L266.7,89.5 L266.8,89.0 L266.9,88.6 L267.0,88.2 L267.2,87.7 L267.3,87.3 L267.5,86.8 L267.8,86.4 L268.0,86.0 L268.2,85.5 L268.4,85.2 L268.6,84.8 L268.9,84.4 L269.1,84.1 L269.4,83.8 L269.6,83.5 L270.0,83.1 L270.3,82.9 L270.6,82.6 L270.9,82.4 L271.2,82.1 L271.7,81.8 L272.2,81.5 L272.5,81.3 L272.8,81.2 L273.2,80.9 L273.6,80.7 L274.1,80.4 L274.7,80.1 L281.2,76.7 L285.2,74.7 L287.1,73.7 L93.3,217.0 L94.8,209.1 L95.9,204.2 L97.3,199.5 L98.2,195.8 L98.8,193.6 L99.1,192.7 L99.3,192.0 L99.7,191.1 L100.5,189.5 L101.9,186.8 L103.0,184.9 L103.9,183.3 L104.7,181.7 L105.6,180.1 L106.5,178.8 L106.9,178.1 L107.3,177.5 L107.7,177.0 L108.0,176.6 L108.4,176.0 L93.3,217.0 L93.8,214.6 L94.4,212.4 L95.2,209.4 L95.9,207.4 L97.0,204.3 L98.0,201.6 L101.1,194.5 L101.8,193.1 L102.7,191.6 L103.4,190.2 L104.2,188.9 L107.1,184.0 L108.5,181.7 L109.3,180.6 L109.8,179.9 L110.6,179.0 L111.7,177.9 L112.8,176.8 L113.9,175.9 L114.8,175.2 L115.7,174.5 L116.5,173.9 L117.5,173.3 L118.6,172.6 L119.8,172.0 L120.8,171.5 L122.0,170.9 L146.5,160.6 L147.3,160.3 L151.0,158.4 L152.1,157.6 L152.6,156.8 L152.8,155.9 L152.6,154.6 L151.7,147.8 L151.9,146.7 L152.4,146.1 L153.5,145.2 L154.8,144.4 L171.8,134.8 L146.6,157.7 L146.9,157.5 L147.2,157.4 L147.4,157.3 L147.6,157.2 L147.7,157.1 L147.9,157.0 L148.1,156.9 L148.2,156.7 L148.3,156.6 L148.5,156.5 L148.6,156.4 L148.6,156.2 L148.7,156.1 L148.8,156.0 L148.9,155.9 L148.9,155.8 L149.0,155.7 L149.0,155.6 L149.0,155.4 L149.1,155.3 L149.1,155.2 L149.1,155.1 L149.1,154.9 L149.1,154.8 L149.1,154.6 L149.1,154.5 L149.1,154.4 L149.1,154.2 L149.0,154.1 L148.9,153.9 L148.8,153.6 L147.1,148.6 L147.1,148.5 L147.0,148.3 L147.0,148.2 L147.0,148.1 L147.0,147.9 L146.9,147.7 L146.9,147.6 L146.9,147.5 L146.9,147.3 L147.0,147.2 L147.0,147.0 L147.0,146.9 L147.0,146.8 L147.1,146.7 L147.1,146.5 L147.2,146.4 L147.3,146.3 L147.3,146.2 L147.4,146.1 L147.5,145.9 L147.6,145.8 L147.7,145.7 L147.8,145.6 L147.9,145.5 L148.1,145.3 L148.2,145.2 L148.3,145.1 L148.4,145.0 L148.6,144.9 L148.7,144.8 L148.8,144.7 L149.0,144.6 L149.1,144.6 L149.2,144.5 L149.4,144.4 L149.6,144.3 L149.6,144.3 L171.8,134.8 L175.3,133.3 L178.7,131.9 L181.0,130.9 L182.6,130.1 L184.0,129.4 L185.3,128.6 L186.3,128.0 L187.4,127.2 L188.4,126.5 L189.2,125.8 L190.0,125.1 L190.8,124.3 L194.2,121.1 L197.7,117.6 L89.1,225.2 L89.3,223.1 L89.6,220.9 L89.7,219.7 L90.0,218.2 L90.3,216.5 L90.7,214.5 L91.1,212.7 L91.7,210.2 L92.6,207.4 L94.2,202.2 L94.7,200.7 L95.5,198.4 L96.5,195.9 L97.8,193.1 L99.3,190.0 L100.8,187.1 L102.3,184.7 L103.7,182.1 L105.0,180.1 L105.6,179.3 L106.1,178.6 L106.7,177.9 L107.2,177.3 L107.7,176.8 L108.4,176.0 L109.2,175.3 L110.1,174.5 L111.1,173.7 L112.1,172.9 L112.9,172.3 L113.6,171.8 L114.3,171.4 L114.9,171.0 L116.1,170.4 L117.1,169.8 L119.7,168.7 L85.1,302.9 L85.1,301.7 L85.3,299.7 L85.5,296.5 L85.8,293.2 L86.2,284.4 L86.6,274.9 L87.0,265.5 L87.8,251.8 L89.1,225.2 L90.0,274.3 L90.1,272.6 L90.1,272.6 L90.2,269.0 L92.2,225.1 L92.3,223.1 L92.5,221.7 L92.8,219.8 L93.3,217.0 L266.9,124.5 L267.6,123.8 L268.3,122.9 L268.8,122.3 L269.4,121.9 L270.1,121.6 L271.2,121.3 L272.0,121.1 L273.0,121.0 L273.9,121.0 L275.0,121.1 L276.2,121.3 L277.5,121.6 L278.8,122.3 L282.2,124.4 L283.4,125.3 L283.9,125.8 L284.4,126.5 L284.7,127.1 L284.9,127.8 L285.0,128.6 L284.8,129.4 L284.5,130.2 L283.9,130.9 L282.9,131.8 L279.9,133.7 L119.7,168.7 L146.6,157.7 L208.4,111.1 L209.6,110.7 L210.4,110.5 L211.2,110.3 L211.8,110.2 L212.4,110.1 L212.9,110.0 L213.5,109.9 L214.1,109.9 L214.8,109.9 L215.5,109.8 L216.2,109.8 L216.9,109.8 L217.5,109.9 L218.2,109.9 L218.8,109.9 L219.2,109.9 L219.7,110.0 L220.1,110.0 L220.5,110.1 L221.0,110.1 L221.4,110.2 L221.8,110.3 L222.3,110.4 L222.9,110.6 L223.5,110.8 L224.1,110.9 L224.9,111.3 L225.3,111.5 L225.8,111.7 L226.3,112.0 L226.7,112.2 L227.1,112.5 L227.4,112.7 L227.8,113.0 L228.0,113.2 L228.3,113.5 L228.7,113.7 L229.0,114.0 L229.3,114.3 L229.6,114.7 L229.8,115.0 L230.1,115.3 L230.3,115.6 L230.5,116.0 L230.7,116.4 L230.9,116.9 L231.1,117.3 L231.2,117.8 L231.4,118.3 L231.5,118.8 L231.6,119.2 L231.6,119.7 L231.7,120.1 L231.7,120.4 L231.6,120.7 L231.6,121.1 L231.5,121.6 L231.4,122.0 L231.3,122.4 L231.2,122.8 L231.0,123.3 L230.8,123.7 L230.6,124.1 L230.3,124.5 L230.1,124.9 L229.7,125.3 L229.4,125.6 L229.0,126.0 L227.5,127.4 L197.7,117.6 L198.8,116.6 L199.9,115.7 L200.9,115.0 L202.1,114.2 L203.1,113.6 L204.4,112.9 L205.1,112.5 L205.6,112.2 L206.2,111.9 L206.8,111.7 L207.3,111.5 L207.7,111.3 L208.1,111.2 L208.4,111.1 L227.5,127.4 L225.4,129.2 L223.1,131.1 L221.3,132.6 L219.0,134.3 L216.8,135.9 L214.5,137.4 L211.7,139.3 L207.7,141.7 L203.5,144.3 L200.2,146.1 L197.4,147.7 L195.2,148.8 L187.1,153.0 L184.7,154.2 L182.6,155.4 L177.6,158.4 L177.6,158.4 L176.6,159.2 L175.8,159.7 L175.4,160.1 L175.2,160.3 L175.0,160.6 L174.8,160.9 L174.5,161.2 L174.4,161.5 L174.2,161.8 L174.1,162.1 L173.9,162.5 L173.8,162.9 L173.7,163.3 L173.6,163.6 L173.6,163.9 L173.5,164.2 L173.5,164.5 L173.6,164.7 L173.6,165.0 L173.6,165.2 L173.7,165.5 L173.8,165.7 L173.9,166.0 L174.0,166.2 L174.1,166.5 L174.2,166.7 L174.3,166.9 L174.4,167.1 L174.5,167.2 L174.8,167.6 L175.2,168.1 L175.6,168.5 L176.0,168.8 L176.3,169.1 L176.7,169.4 L177.1,169.6 L177.5,169.9 L177.9,170.1 L178.5,170.3 L179.1,170.6 L179.8,170.8 L180.5,171.0 L181.0,171.1 L181.6,171.2 L182.3,171.3 L183.1,171.4 L183.7,171.4 L184.6,171.5 L185.6,171.5 L186.6,171.4 L187.7,171.4 L188.9,171.3 L190.0,171.2 L191.4,171.1 L192.9,170.9 L194.9,170.5 L196.7,170.2 L198.7,169.7 L199.9,169.3 L201.3,168.8 L202.4,168.5 L203.4,168.1 L204.3,167.7 L205.6,167.1 L207.4,166.2 L208.9,165.4 L210.4,164.6 L212.0,163.6 L212.0,163.6 L215.7,161.3 L228.4,152.8 L239.5,145.2 L244.3,141.9 L249.1,138.3 L255.3,133.6 L266.9,124.5 L266.9,124.5 L267.3,124.2 L267.5,124.1 L267.8,123.9 L268.0,123.8 L268.3,123.7 L268.6,123.6 L268.9,123.4 L269.1,123.3 L269.5,123.3 L269.9,123.2 L270.2,123.1 L270.6,123.1 L271.1,123.1 L271.5,123.1 L272.0,123.0 L272.4,123.1 L272.9,123.1 L273.1,123.1 L273.4,123.1 L273.6,123.1 L273.9,123.2 L274.2,123.2 L274.4,123.3 L274.6,123.3 L274.7,123.4 L274.9,123.4 L275.0,123.5 L275.2,123.6 L275.4,123.7 L275.6,123.8 L275.8,123.9 L280.1,126.6 L281.1,127.4 L281.4,127.7 L281.7,127.8 L281.9,128.0 L282.0,128.3 L282.2,128.5 L282.3,128.8 L282.4,129.1 L282.5,129.4 L282.6,129.7 L282.6,130.0 L282.6,130.3 L282.6,130.6 L282.5,130.9 L282.4,131.2 L282.3,131.4 L282.0,131.7 L281.7,132.1 L281.2,132.6 L280.5,133.2 L279.9,133.7 L279.9,133.7 L263.9,145.9 L255.9,152.0 L248.5,157.8 L232.5,170.3 L231.8,170.8 L230.3,172.0 L228.3,173.7 L225.2,176.4 L208.8,190.2 L190.7,205.6 L181.0,214.0 L179.1,215.6 L179.1,215.6 L178.9,215.9 L178.7,216.1 L178.5,216.3 L178.3,216.4 L178.1,216.7 L178.0,216.8 L177.9,217.0 L177.7,217.2 L177.6,217.4 L177.4,217.7 L177.3,217.9 L177.2,218.2 L177.0,218.5 L176.9,218.7 L176.8,219.0 L176.7,219.2 L176.6,219.5 L176.5,219.7 L176.4,219.9 L176.3,220.1 L176.3,220.3 L176.3,220.6 L176.2,220.8 L176.2,221.1 L176.2,221.3 L176.3,221.6 L176.3,221.8 L176.3,222.1 L176.3,222.3 L176.4,222.6 L176.4,222.8 L176.5,223.1 L176.6,223.3 L176.7,223.5 L176.8,223.7 L176.9,224.0 L177.1,224.2 L177.3,224.5 L177.4,224.7 L177.6,224.9 L177.8,225.1 L178.0,225.3 L178.2,225.5 L180.2,227.0 L180.5,227.1 L180.7,227.3 L180.9,227.5 L181.2,227.7 L181.4,227.9 L181.6,228.1 L181.8,228.4 L182.1,228.7 L182.3,229.0 L182.5,229.2 L182.7,229.6 L182.9,229.9 L183.0,230.2 L183.1,230.4 L183.2,230.7 L183.3,231.0 L183.4,231.3 L183.4,231.6 L183.5,232.0 L183.5,232.3 L183.5,232.7 L183.5,233.1 L183.5,233.5 L183.5,233.9 L183.5,234.2 L183.4,234.5 L183.4,234.9 L183.3,235.2 L183.2,235.6 L183.2,235.9 L183.1,236.2 L182.9,236.5 L182.9,236.5 L176.3,251.4 L171.1,262.9 L165.4,275.8 L164.3,277.8 L147.3,160.3 L147.8,160.0 L148.2,159.7 L148.4,159.5 L148.6,159.3 L148.8,159.0 L148.9,158.7 L149.1,158.4 L149.2,158.0 L149.3,157.5 L149.3,156.8 L149.3,156.2 L149.3,155.6 L149.2,155.2 L149.1,154.2 Z" fill="none" stroke="#f97316" stroke-width="3.5" stroke-linecap="round" stroke-linejoin="round"/></svg>