<svg viewBox="0 0 400 300" xmlns="http://www.w3.org/2000/svg"><path d="M64.6,217.5 L91.6,216.8 L104.5,216.5 L118.7,216.1 L127.6,215.4 L132.5,215.0 L137.1,214.5 L141.2,214.0 L144.6,213.4 L147.7,212.7 L150.4,212.1 L153.1,211.4 L156.0,210.4 L159.3,209.2 L162.7,207.7 L166.5,206.0 L169.8,204.4 L173.0,202.6 L176.4,200.7 L180.0,198.4 L182.7,196.6 L185.2,194.6 L187.6,192.6 L189.9,190.6 L192.2,188.3 L194.2,185.9 L196.0,183.8 L197.9,181.3 L199.7,178.5 L201.4,175.9 L203.0,173.3 L204.6,170.5 L205.8,168.3 L206.8,166.1 L207.4,164.4 L207.8,162.8 L208.2,161.2 L208.4,160.2 L208.4,159.3 L208.5,157.5 L208.6,154.8 L208.7,151.5 L208.8,143.0 L208.9,140.6 L209.1,138.4 L209.3,136.0 L209.5,133.9 L209.8,131.9 L210.3,129.8 L210.8,127.4 L211.4,125.1 L212.0,123.1 L212.9,120.5 L213.8,118.4 L214.8,116.2 L216.0,113.8 L217.0,111.7 L218.3,109.3 L219.3,107.6 L220.4,105.8 L221.6,103.9 L222.7,102.4 L224.1,100.6 L225.5,99.0 L227.2,97.3 L228.8,95.7 L230.4,94.4 L231.9,93.2 L233.6,92.0 L236.1,90.4 L238.4,89.0 L240.1,88.0 L241.7,87.0 L243.9,85.8 L246.0,84.5 L248.4,83.2 L251.4,81.6 L285.1,64.1 L305.6,53.8 L315.2,49.0 Z" fill="none" stroke="#f97316" stroke-width="3.5" stroke-linecap="round" stroke-linejoin="round"/></svg>