<svg viewBox="0 0 400 300" xmlns="http://www.w3.org/2000/svg"><path d="M185.3,63.8 L186.0,63.3 L186.9,63.0 L187.9,62.7 L188.8,62.7 L189.9,62.6 L190.9,62.7 L191.7,62.8 L192.7,62.9 L193.5,63.1 L194.4,63.3 L195.0,63.3 L195.5,63.3 L195.9,62.9 L196.1,62.3 L196.2,61.7 L196.2,61.1 L196.1,60.6 L196.1,59.9 L196.0,59.4 L195.9,58.9 L195.8,58.3 L195.8,57.9 L195.9,57.4 L195.9,57.2 L196.0,56.9 L196.2,56.4 L196.7,55.9 L197.3,55.3 L198.1,54.7 L199.0,54.1 L200.0,53.5 L201.3,52.8 L202.6,52.2 L203.6,51.8 L204.9,51.3 L206.2,50.9 L207.4,50.7 L208.7,50.4 L210.0,50.4 L211.1,50.5 L212.2,50.7 L213.0,51.0 L213.7,51.7 L214.0,52.5 L214.0,53.3 L213.9,54.1 L213.3,54.9 L212.6,55.4 L211.7,55.8 L210.8,56.1 L209.9,56.2 L205.4,56.2 L204.2,56.2 L203.3,56.2 L202.4,56.4 L201.7,56.8 L201.2,57.3 L201.0,58.1 L200.9,58.9 L201.0,60.1 L201.2,61.5 L201.1,62.5 L200.9,63.2 L200.4,63.9 L199.5,64.7 L189.3,71.1 L187.6,71.3 L186.5,71.3 L185.5,71.3 L184.4,71.4 L183.4,71.8 L182.9,72.4 L182.5,73.1 L182.2,73.8 L182.0,74.6 L181.5,75.5 L180.4,76.8 L172.9,81.4 L171.7,82.0 L170.4,82.2 L168.9,82.0 L167.6,81.5 L166.7,80.8 L166.1,79.7 L165.9,78.4 L166.1,77.3 L166.7,76.2 L185.3,63.8 L306.0,104.6 L294.8,65.4 L294.6,64.3 L294.8,63.6 L295.4,63.1 L296.6,62.3 L297.8,62.1 L299.2,62.1 L300.4,62.2 L301.7,62.6 L303.3,63.8 L307.2,68.7 L315.8,79.5 L316.4,80.3 L317.0,81.0 L317.3,81.7 L317.5,82.2 L317.4,82.9 L317.2,83.4 L316.9,83.9 L316.6,84.3 L311.2,88.7 L310.7,89.3 L310.4,89.9 L310.1,90.7 L309.9,91.4 L310.0,92.4 L310.2,93.4 L310.6,94.6 L311.4,96.4 L312.2,97.7 L313.3,98.8 L314.6,100.1 L315.9,101.1 L317.5,101.9 L319.0,102.5 L323.5,103.9 L324.3,104.2 L325.1,104.5 L325.8,105.0 L326.4,105.5 L327.0,106.0 L327.5,106.6 L327.8,107.2 L328.1,107.9 L328.2,108.6 L327.9,114.7 L327.8,115.4 L327.7,116.0 L327.4,116.5 L327.0,116.9 L326.5,117.3 L325.7,117.5 L324.9,117.6 L324.1,117.7 L323.4,117.6 L322.9,117.5 L322.4,117.2 L322.0,116.8 L321.8,116.2 L320.4,111.4 L320.1,110.8 L319.8,110.3 L319.4,109.9 L318.9,109.6 L318.5,109.4 L317.8,109.1 L310.2,107.2 L309.2,106.9 L308.4,106.5 L307.6,106.1 L306.9,105.7 L306.5,105.3 L306.0,104.6 L239.4,165.1 L238.9,165.5 L238.3,165.9 L237.5,166.1 L236.7,166.2 L235.9,166.2 L235.2,166.0 L234.5,165.7 L233.9,165.2 L233.4,164.7 L233.1,164.1 L233.0,163.4 L233.1,162.8 L233.3,162.2 L233.8,161.6 L234.3,161.1 L235.0,160.8 L235.7,160.5 L236.7,160.3 L237.5,160.0 L238.1,159.5 L238.6,158.8 L238.7,158.0 L238.8,157.2 L238.6,154.9 L238.7,154.1 L238.9,153.4 L239.3,152.8 L241.3,150.3 L241.8,149.4 L242.1,148.5 L242.7,146.3 L242.9,145.7 L243.5,145.2 L244.1,144.8 L244.9,144.3 L245.5,144.0 L245.8,143.6 L246.2,143.0 L247.3,139.1 L247.6,138.7 L247.9,138.4 L248.5,138.2 L249.5,137.9 L253.6,137.5 L254.3,137.6 L255.0,137.9 L255.5,138.4 L255.9,139.1 L256.0,139.7 L256.1,140.3 L255.8,141.0 L247.4,151.2 L247.0,151.8 L246.7,152.5 L246.6,153.3 L246.7,154.2 L247.0,155.1 L249.5,159.4 L249.7,160.1 L249.9,160.7 L249.8,161.2 L249.7,161.9 L249.3,162.5 L248.8,163.0 L248.2,163.4 L247.4,163.7 L246.5,163.9 L245.4,163.9 L242.4,163.7 L241.8,163.7 L241.1,164.0 L240.4,164.3 L239.9,164.6 L239.4,165.1 L24.1,203.1 L26.9,201.8 L29.8,200.3 L33.1,198.4 L36.6,196.3 L86.7,164.5 L88.3,163.9 L89.9,163.3 L91.6,162.7 L93.0,162.5 L95.3,162.0 L97.6,161.6 L99.8,160.7 L101.7,159.6 L103.3,158.4 L113.6,148.6 L114.6,147.7 L115.9,146.7 L117.3,145.8 L186.3,100.7 L188.3,99.3 L190.4,97.8 L193.9,95.1 L198.8,91.2 L206.4,85.3 L211.4,81.6 L219.0,76.4 L222.7,73.6 L225.8,71.0 L225.8,71.0 L230.3,67.7 L231.2,67.2 L232.2,66.9 L233.1,66.7 L234.0,66.7 L234.9,66.8 L235.7,67.0 L236.4,67.3 L237.1,67.6 L237.7,68.1 L238.3,68.6 L238.7,69.3 L239.1,70.0 L239.2,70.6 L239.3,71.3 L239.3,72.0 L236.8,87.4 L236.6,88.3 L236.3,89.4 L235.8,90.6 L235.4,91.7 L234.8,92.6 L234.1,93.5 L188.5,140.4 L188.0,141.0 L187.5,141.7 L187.3,142.3 L187.1,142.9 L187.1,143.5 L187.2,144.0 L187.3,144.7 L187.4,145.3 L187.6,145.9 L187.8,146.6 L188.0,147.2 L188.3,147.8 L188.6,148.4 L188.9,149.0 L189.3,149.6 L189.6,150.2 L196.6,161.3 L197.5,163.0 L198.3,164.9 L199.1,167.3 L199.6,169.4 L199.9,171.9 L200.0,174.5 L199.8,177.8 L199.3,180.8 L198.5,184.0 L197.5,186.6 L196.5,188.7 L195.7,190.1 L195.0,190.9 L194.3,191.8 L193.2,192.7 L192.2,193.5 L190.8,194.4 L189.1,195.2 L186.5,196.2 L183.4,197.3 L179.7,198.3 L176.9,198.7 L175.5,198.9 L174.1,199.0 L173.0,199.1 L171.6,199.0 L170.2,198.9 L168.9,198.7 L167.3,198.3 L165.8,197.7 L164.2,197.1 L162.5,196.3 L161.1,195.6 L160.2,195.0 L159.1,194.1 L157.9,193.0 L139.7,172.7 L139.2,172.2 L138.5,171.8 L137.6,171.5 L136.6,171.2 L135.4,171.1 L134.4,171.2 L133.5,171.4 L132.5,171.9 L131.5,172.6 L130.5,173.6 L129.3,174.9 L127.5,177.4 L126.3,179.6 L125.4,182.0 L124.7,184.4 L124.4,186.4 L124.2,188.9 L124.2,191.4 L124.5,194.3 L126.6,208.5 L126.8,210.0 L126.9,211.6 L127.0,213.1 L126.9,214.6 L126.8,215.9 L126.6,217.3 L126.4,218.5 L126.1,219.7 L125.7,220.8 L124.9,222.5 L124.2,224.0 L111.7,244.7 L110.7,246.3 L109.2,248.1 L107.9,249.6 L106.6,250.9 L105.1,252.2 L103.1,253.9 L101.5,255.0 L99.8,256.0 L62.1,278.3 L61.2,278.6 L60.4,278.8 L59.5,278.7 L58.9,278.5 L58.3,278.2 L57.8,277.5 L57.5,276.8 L57.3,276.0 L57.2,271.5 L57.0,270.7 L56.6,270.1 L56.1,269.5 L55.5,268.9 L54.7,268.4 L53.9,268.1 L53.0,267.8 L52.0,267.7 L50.9,267.8 L49.9,268.0 L48.9,268.2 L47.3,268.6 L45.8,268.9 L44.0,269.1 L42.5,269.1 L41.1,269.1 L39.7,268.9 L38.2,268.6 L28.2,264.3 L26.3,263.2 L24.8,262.2 L23.4,261.4 L21.4,259.9 L19.8,258.6 L18.8,257.6 L18.1,256.9 L17.6,256.2 L17.2,255.2 L17.0,254.2 L16.9,253.5 L17.0,252.6 L17.2,251.7 L17.6,250.8 L18.0,250.0 L18.8,249.0 L19.8,248.1 L20.9,247.3 L22.4,246.5 L23.9,245.7 L25.3,245.1 L27.3,244.3 L29.6,243.4 L31.3,242.6 L34.1,241.0 L36.4,239.3 L37.6,238.2 L38.6,237.0 L39.3,235.9 L39.8,234.7 L40.3,233.4 L40.5,232.0 L40.5,230.4 L40.4,229.0 L40.1,227.4 L39.5,225.7 L38.9,224.3 L38.1,223.1 L37.0,221.5 L35.8,220.1 L34.7,218.9 L34.0,218.4 L33.0,217.9 L32.0,217.8 L31.1,217.8 L30.4,217.8 L29.5,218.0 L28.8,218.4 L28.0,218.8 L27.3,219.4 L17.5,228.3 L16.2,229.4 L14.5,230.5 L12.6,231.8 L10.8,232.9 L8.5,234.1 L6.4,235.1 L4.8,235.8 L3.3,236.3 L1.6,236.7 L0.3,236.9 L-1.4,236.8 L-2.7,236.8 L-4.1,236.6 L-5.7,236.3 L-7.5,235.9 L-9.1,235.3 L-10.2,234.8 L-11.2,234.0 L-11.9,233.1 L-12.5,232.2 L-12.8,231.3 L-13.0,230.3 L-12.9,229.4 L-12.7,228.5 L-12.4,227.7 L-11.8,227.0 L-11.1,226.2 L-10.1,225.5 L24.1,203.1 L225.8,71.0 L59.5,278.7 L58.5,278.5 L57.8,278.2 L57.1,277.9 L55.5,277.1 L42.1,270.5 L38.2,268.6 L196.7,55.9 L195.9,56.6 L195.3,57.2 L194.9,57.6 L194.4,58.0 L185.3,63.8 L313.0,120.6 L309.9,121.4 L309.1,121.4 L308.5,121.1 L307.8,120.6 L307.3,119.9 L302.6,103.1 L294.9,76.9 L294.6,76.2 L290.4,69.0 L289.7,67.4 L289.3,65.9 L289.2,64.7 L289.2,63.7 L289.3,62.9 L289.6,62.2 L290.0,61.7 L290.6,61.3 L291.3,61.0 L295.3,60.0 L296.9,59.9 L297.8,60.0 L298.7,60.2 L299.8,60.6 L301.1,61.5 L303.3,63.8 L295.4,63.1 L296.8,63.0 L297.9,63.1 L299.3,63.4 L300.9,64.0 L302.9,65.2 L304.8,66.5 L307.2,68.7 L328.2,108.6 L328.6,102.2 L328.8,98.4 L328.8,97.5 L328.7,96.9 L328.6,96.1 L328.3,95.5 L327.9,95.0 L323.6,89.5 L315.8,79.5 L328.6,102.2 L328.5,101.7 L328.4,101.2 L328.3,100.8 L328.1,100.4 L327.9,100.1 L327.7,99.8 L327.4,99.5 L327.0,99.3 L326.5,99.0 L324.3,97.8 L323.8,97.5 L323.4,97.1 L323.2,96.7 L323.1,96.4 L323.0,96.0 L323.0,95.5 L323.0,95.1 L323.2,94.7 L323.4,94.3 L323.6,93.9 L324.1,93.3 L324.4,92.6 L324.5,92.1 L324.5,91.6 L324.3,91.0 L323.9,90.1 L323.6,89.5 L235.7,160.5 L236.4,160.5 L237.1,160.5 L237.7,160.6 L238.3,160.8 L238.9,161.2 L239.3,161.6 L239.7,162.0 L240.0,162.5 L240.1,163.1 L240.1,163.6 L240.0,164.1 L239.7,164.7 L239.4,165.1 L219.6,196.3 L244.9,197.5 L245.3,197.6 L245.7,197.7 L246.0,198.0 L246.1,198.4 L246.1,198.8 L246.0,199.3 L245.8,199.6 L245.6,199.9 L245.2,200.0 L244.7,200.0 L239.6,199.7 L238.9,199.8 L238.5,200.1 L238.3,200.5 L238.2,202.1 L237.7,203.4 L236.9,204.5 L235.9,205.1 L234.9,205.5 L233.7,205.6 L232.8,205.2 L232.2,204.8 L231.8,204.0 L231.8,203.2 L232.0,201.4 L231.9,200.7 L231.5,200.2 L230.7,199.8 L229.7,200.0 L228.9,200.4 L228.5,200.8 L227.4,203.8 L227.0,204.4 L226.6,204.9 L226.0,205.3 L225.3,205.8 L224.5,206.1 L223.8,206.2 L215.3,206.2 L214.7,206.1 L214.3,205.9 L214.0,205.5 L213.9,205.0 L213.9,204.5 L214.0,204.0 L214.2,203.6 L214.5,203.3 L214.9,203.1 L215.5,202.9 L216.1,202.8 L222.3,203.0 L223.0,202.9 L223.6,202.8 L223.8,202.6 L224.1,202.3 L224.9,200.5 L224.9,200.0 L224.7,199.6 L224.2,199.4 L219.3,199.2 L218.8,199.1 L218.3,198.9 L218.1,198.6 L217.9,198.2 L217.8,197.8 L217.9,197.5 L217.9,197.1 L218.2,196.9 L218.5,196.6 L218.8,196.4 L219.0,196.4 L219.3,196.3 L219.6,196.3 L234.1,189.1 L237.4,187.2 L241.1,185.1 L241.4,185.0 L241.7,184.9 L242.0,184.8 L242.4,184.9 L244.6,185.6 L246.6,186.1 L246.8,186.2 L247.0,186.3 L247.1,186.6 L247.2,186.8 L247.0,188.7 L246.9,190.9 L246.8,191.2 L246.6,191.4 L246.3,191.6 L246.0,191.7 L242.3,191.5 L234.9,191.2 L234.5,191.1 L234.2,190.9 L233.9,190.6 L233.8,190.4 L233.6,190.1 L233.7,189.7 L233.8,189.4 L234.1,189.1 L237.4,187.2 L239.6,189.2 L240.3,189.4 L241.1,189.2 L241.5,188.8 L244.6,185.6 L327.9,83.7 L326.8,77.9 L325.7,72.4 L323.9,66.9 L321.7,62.3 L318.4,57.2 L314.9,53.3 L310.4,49.9 L306.1,47.4 L302.2,45.5 L298.0,44.2 L294.3,43.2 L289.9,42.5 L285.3,42.3 L281.4,42.5 L277.5,43.1 L273.7,44.1 Z" fill="none" stroke="#3b82f6" stroke-width="3.5" stroke-linecap="round" stroke-linejoin="round"/></svg>