<svg viewBox="0 0 400 300" xmlns="http://www.w3.org/2000/svg"><path d="M184.2,64.4 L185.0,64.0 L185.8,63.6 L186.8,63.4 L187.8,63.3 L188.8,63.3 L189.8,63.3 L190.6,63.4 L191.7,63.5 L192.5,63.7 L193.4,63.9 L193.9,64.0 L194.4,63.9 L194.8,63.5 L195.1,63.0 L195.1,62.4 L195.1,61.8 L195.1,61.2 L195.0,60.5 L194.9,60.1 L194.8,59.5 L194.7,59.0 L194.7,58.5 L194.8,58.1 L194.8,57.8 L195.0,57.5 L195.2,57.1 L195.7,56.5 L196.3,55.9 L197.0,55.4 L197.9,54.8 L199.0,54.2 L200.3,53.4 L201.5,52.9 L202.5,52.5 L203.9,52.0 L205.1,51.6 L206.3,51.3 L207.6,51.1 L209.0,51.0 L210.1,51.1 L211.2,51.3 L212.0,51.7 L212.6,52.3 L212.9,53.1 L213.0,53.9 L212.8,54.7 L212.3,55.5 L211.5,56.0 L210.7,56.5 L209.8,56.7 L208.8,56.9 L204.4,56.8 L203.2,56.8 L202.2,56.8 L201.4,57.0 L200.6,57.4 L200.2,57.9 L199.9,58.7 L199.8,59.5 L199.9,60.7 L200.2,62.1 L200.0,63.1 L199.9,63.8 L199.3,64.6 L198.4,65.3 L188.2,71.8 L186.6,71.9 L185.4,71.9 L184.5,71.9 L183.4,72.0 L182.4,72.4 L181.8,73.0 L181.5,73.7 L181.2,74.5 L180.9,75.3 L180.4,76.2 L179.3,77.5 L171.9,82.1 L170.6,82.6 L169.4,82.9 L167.8,82.6 L166.6,82.2 L165.6,81.4 L165.1,80.4 L164.8,79.0 L165.1,77.9 L165.7,76.9 L184.2,64.4 L304.9,105.3 L293.7,66.1 L293.6,65.0 L293.8,64.3 L294.4,63.7 L295.6,63.0 L296.8,62.7 L298.2,62.8 L299.3,62.9 L300.6,63.3 L302.3,64.4 L306.2,69.3 L314.8,80.1 L315.4,80.9 L315.9,81.6 L316.3,82.4 L316.4,82.9 L316.3,83.6 L316.2,84.1 L315.9,84.5 L315.5,84.9 L310.2,89.3 L309.7,89.9 L309.3,90.6 L309.0,91.3 L308.9,92.0 L308.9,93.0 L309.2,94.1 L309.6,95.2 L310.4,97.1 L311.2,98.3 L312.2,99.5 L313.5,100.7 L314.9,101.7 L316.5,102.6 L317.9,103.1 L322.5,104.6 L323.3,104.9 L324.0,105.2 L324.7,105.6 L325.3,106.1 L325.9,106.6 L326.5,107.2 L326.8,107.9 L327.0,108.5 L327.2,109.2 L326.8,115.3 L326.8,116.0 L326.6,116.6 L326.4,117.1 L325.9,117.6 L325.4,117.9 L324.7,118.1 L323.9,118.3 L323.1,118.3 L322.4,118.3 L321.9,118.1 L321.3,117.8 L321.0,117.4 L320.7,116.9 L319.3,112.1 L319.1,111.5 L318.7,110.9 L318.4,110.5 L317.9,110.2 L317.4,110.0 L316.7,109.7 L309.1,107.8 L308.1,107.6 L307.4,107.2 L306.5,106.8 L305.9,106.4 L305.5,105.9 L304.9,105.3 L238.3,165.8 L237.9,166.2 L237.2,166.5 L236.5,166.8 L235.7,166.9 L234.9,166.8 L234.1,166.6 L233.4,166.3 L232.8,165.9 L232.4,165.3 L232.1,164.7 L232.0,164.1 L232.1,163.4 L232.3,162.8 L232.7,162.2 L233.3,161.8 L233.9,161.4 L234.7,161.2 L235.7,160.9 L236.5,160.6 L237.1,160.1 L237.5,159.5 L237.7,158.6 L237.7,157.8 L237.5,155.5 L237.6,154.7 L237.8,154.0 L238.2,153.4 L240.3,150.9 L240.8,150.1 L241.0,149.1 L241.6,146.9 L241.9,146.3 L242.4,145.9 L243.1,145.5 L243.9,144.9 L244.4,144.6 L244.8,144.2 L245.1,143.6 L246.2,139.7 L246.5,139.3 L246.9,139.0 L247.5,138.8 L248.4,138.6 L252.5,138.1 L253.3,138.2 L253.9,138.5 L254.4,139.1 L254.9,139.7 L255.0,140.3 L255.0,141.0 L254.8,141.6 L246.4,151.9 L245.9,152.5 L245.7,153.2 L245.5,154.0 L245.6,154.9 L245.9,155.8 L248.5,160.1 L248.7,160.7 L248.8,161.3 L248.8,161.9 L248.7,162.5 L248.3,163.1 L247.7,163.7 L247.2,164.1 L246.3,164.3 L245.4,164.5 L244.3,164.6 L241.4,164.4 L240.7,164.4 L240.0,164.6 L239.3,165.0 L238.9,165.3 L238.3,165.8 L23.0,203.8 L25.9,202.4 L28.7,200.9 L32.1,199.0 L35.6,196.9 L85.6,165.1 L87.3,164.5 L88.8,163.9 L90.6,163.4 L92.0,163.1 L94.2,162.6 L96.5,162.2 L98.8,161.3 L100.7,160.2 L102.3,159.1 L112.5,149.2 L113.6,148.4 L114.8,147.4 L116.2,146.4 L185.2,101.3 L187.2,100.0 L189.4,98.5 L192.8,95.8 L197.8,91.8 L205.3,86.0 L210.4,82.2 L217.9,77.1 L221.6,74.3 L224.8,71.6 L224.8,71.6 L229.2,68.4 L230.2,67.9 L231.2,67.5 L232.1,67.4 L233.0,67.3 L233.8,67.4 L234.6,67.7 L235.3,67.9 L236.0,68.2 L236.7,68.7 L237.2,69.3 L237.7,70.0 L238.0,70.6 L238.2,71.3 L238.3,72.0 L238.3,72.7 L235.7,88.0 L235.5,89.0 L235.2,90.1 L234.8,91.3 L234.3,92.3 L233.7,93.2 L233.0,94.2 L187.4,141.1 L186.9,141.7 L186.5,142.4 L186.2,143.0 L186.1,143.5 L186.0,144.1 L186.1,144.7 L186.2,145.3 L186.3,145.9 L186.5,146.6 L186.7,147.2 L187.0,147.8 L187.3,148.5 L187.6,149.0 L187.9,149.6 L188.2,150.2 L188.5,150.9 L195.5,162.0 L196.4,163.6 L197.3,165.6 L198.1,167.9 L198.5,170.0 L198.9,172.6 L199.0,175.2 L198.7,178.4 L198.3,181.5 L197.5,184.7 L196.5,187.2 L195.4,189.4 L194.6,190.7 L194.0,191.6 L193.2,192.4 L192.2,193.4 L191.1,194.2 L189.7,195.1 L188.1,195.9 L185.5,196.9 L182.3,197.9 L178.7,198.9 L175.9,199.4 L174.4,199.5 L173.1,199.7 L171.9,199.7 L170.6,199.7 L169.2,199.6 L167.8,199.4 L166.2,198.9 L164.8,198.4 L163.2,197.8 L161.4,197.0 L160.1,196.2 L159.2,195.6 L158.0,194.7 L156.9,193.7 L138.7,173.4 L138.1,172.8 L137.5,172.5 L136.6,172.1 L135.6,171.9 L134.3,171.8 L133.4,171.9 L132.5,172.1 L131.4,172.6 L130.5,173.2 L129.5,174.2 L128.3,175.5 L126.5,178.0 L125.3,180.2 L124.3,182.6 L123.7,185.1 L123.3,187.0 L123.1,189.5 L123.1,192.0 L123.4,194.9 L125.6,209.2 L125.8,210.7 L125.9,212.2 L126.0,213.7 L125.9,215.2 L125.8,216.6 L125.6,217.9 L125.4,219.1 L125.1,220.3 L124.7,221.5 L123.9,223.1 L123.1,224.6 L110.7,245.3 L109.6,247.0 L108.2,248.8 L106.8,250.3 L105.5,251.5 L104.1,252.8 L102.1,254.5 L100.4,255.6 L98.7,256.6 L61.0,278.9 L60.1,279.2 L59.3,279.4 L58.5,279.4 L57.8,279.2 L57.2,278.8 L56.7,278.2 L56.4,277.4 L56.3,276.7 L56.2,272.2 L55.9,271.4 L55.6,270.8 L55.1,270.1 L54.5,269.5 L53.6,269.0 L52.8,268.7 L51.9,268.5 L50.9,268.4 L49.9,268.5 L48.8,268.6 L47.8,268.8 L46.2,269.2 L44.8,269.6 L42.9,269.8 L41.4,269.8 L40.1,269.8 L38.7,269.6 L37.1,269.3 L27.2,264.9 L25.2,263.9 L23.7,262.9 L22.4,262.0 L20.4,260.5 L18.8,259.3 L17.8,258.3 L17.0,257.5 L16.5,256.8 L16.1,255.8 L15.9,254.8 L15.9,254.1 L15.9,253.2 L16.2,252.3 L16.5,251.4 L17.0,250.6 L17.8,249.6 L18.8,248.7 L19.8,248.0 L21.4,247.1 L22.9,246.4 L24.3,245.8 L26.3,245.0 L28.6,244.0 L30.2,243.3 L33.0,241.7 L35.3,240.0 L36.6,238.8 L37.5,237.6 L38.2,236.5 L38.8,235.3 L39.3,234.0 L39.5,232.6 L39.5,231.0 L39.4,229.6 L39.1,228.1 L38.5,226.3 L37.8,224.9 L37.1,223.7 L35.9,222.1 L34.8,220.7 L33.7,219.6 L33.0,219.0 L32.0,218.6 L31.0,218.4 L30.1,218.4 L29.3,218.4 L28.5,218.7 L27.7,219.0 L27.0,219.5 L26.3,220.0 L16.4,229.0 L15.1,230.0 L13.5,231.2 L11.5,232.4 L9.8,233.5 L7.4,234.8 L5.4,235.8 L3.8,236.4 L2.2,236.9 L0.5,237.4 L-0.8,237.5 L-2.4,237.5 L-3.8,237.4 L-5.1,237.3 L-6.7,237.0 L-8.6,236.5 L-10.2,235.9 L-11.2,235.4 L-12.2,234.7 L-13.0,233.8 L-13.5,232.8 L-13.8,231.9 L-14.0,231.0 L-14.0,230.0 L-13.7,229.2 L-13.4,228.4 L-12.9,227.6 L-12.2,226.8 L-11.1,226.1 L23.0,203.8 L224.8,71.6 L58.5,279.4 L57.4,279.1 L56.8,278.9 L56.1,278.5 L54.4,277.8 L41.1,271.2 L37.1,269.3 L195.7,56.5 L194.8,57.2 L194.2,57.8 L193.8,58.2 L193.3,58.6 L184.2,64.4 L188.2,71.8 L186.1,73.1 L179.3,77.5 L212.3,55.5 L211.2,56.5 L198.4,65.3 L325.4,117.9 L312.0,121.3 L310.2,121.0 L309.6,120.2 L304.9,105.3 L312.0,121.3 L308.8,122.0 L308.1,122.0 L307.4,121.8 L306.7,121.3 L306.3,120.5 L301.5,103.8 L293.9,77.6 L293.5,76.8 L289.4,69.6 L288.7,68.0 L288.3,66.6 L288.1,65.4 L288.1,64.4 L288.2,63.6 L288.6,62.9 L289.0,62.3 L289.6,61.9 L290.3,61.7 L294.2,60.7 L295.9,60.5 L296.7,60.6 L297.6,60.8 L298.8,61.2 L300.0,62.2 L302.3,64.4 L294.4,63.7 L295.8,63.7 L296.8,63.8 L298.3,64.1 L299.8,64.7 L301.9,65.8 L303.7,67.1 L306.2,69.3 L327.2,109.2 L327.5,102.8 L327.7,99.0 L327.8,98.1 L327.7,97.5 L327.5,96.8 L327.3,96.2 L326.9,95.6 L322.6,90.1 L314.8,80.1 L327.5,102.8 L327.5,102.3 L327.4,101.8 L327.2,101.5 L327.1,101.1 L326.9,100.8 L326.6,100.4 L326.3,100.2 L325.9,99.9 L325.4,99.7 L323.2,98.5 L322.8,98.2 L322.4,97.8 L322.1,97.3 L322.0,97.0 L321.9,96.7 L321.9,96.1 L322.0,95.8 L322.1,95.3 L322.3,95.0 L322.6,94.6 L323.0,94.0 L323.3,93.3 L323.4,92.8 L323.4,92.2 L323.3,91.6 L322.9,90.8 L322.6,90.1 L234.7,161.2 L235.4,161.1 L236.0,161.1 L236.7,161.3 L237.3,161.5 L237.8,161.8 L238.3,162.2 L238.7,162.7 L238.9,163.2 L239.0,163.7 L239.1,164.2 L238.9,164.8 L238.7,165.3 L238.3,165.8 L218.6,197.0 L243.9,198.1 L244.3,198.2 L244.7,198.4 L244.9,198.6 L245.0,199.0 L245.0,199.4 L244.9,199.9 L244.8,200.2 L244.5,200.5 L244.1,200.6 L243.6,200.6 L238.5,200.4 L237.9,200.5 L237.5,200.8 L237.3,201.2 L237.1,202.7 L236.7,204.1 L235.8,205.2 L234.9,205.8 L233.8,206.2 L232.6,206.2 L231.7,205.9 L231.2,205.4 L230.8,204.6 L230.7,203.9 L230.9,202.1 L230.8,201.4 L230.4,200.8 L229.6,200.5 L228.7,200.6 L227.8,201.1 L227.4,201.5 L226.3,204.5 L226.0,205.0 L225.5,205.6 L225.0,206.0 L224.3,206.4 L223.4,206.7 L222.8,206.9 L214.2,206.9 L213.6,206.7 L213.2,206.5 L213.0,206.1 L212.9,205.7 L212.9,205.2 L213.0,204.6 L213.1,204.2 L213.4,204.0 L213.8,203.7 L214.4,203.5 L215.0,203.5 L221.2,203.6 L221.9,203.6 L222.5,203.5 L222.8,203.3 L223.1,203.0 L223.9,201.1 L223.9,200.6 L223.6,200.2 L223.1,200.0 L218.2,199.9 L217.8,199.8 L217.3,199.5 L217.0,199.2 L216.8,198.9 L216.8,198.5 L216.8,198.2 L216.9,197.8 L217.1,197.5 L217.4,197.3 L217.7,197.1 L218.0,197.0 L218.3,197.0 L218.6,197.0 L233.0,189.7 L236.3,187.8 L240.0,185.7 L240.3,185.6 L240.6,185.5 L240.9,185.5 L241.3,185.6 L243.6,186.2 L245.5,186.7 L245.8,186.8 L246.0,187.0 L246.1,187.2 L246.1,187.4 L246.0,189.3 L245.8,191.5 L245.8,191.8 L245.5,192.1 L245.3,192.2 L244.9,192.3 L241.2,192.2 L233.8,191.8 L233.5,191.7 L233.1,191.6 L232.9,191.3 L232.7,191.0 L232.6,190.7 L232.7,190.3 L232.8,190.0 L233.0,189.7 L236.3,187.8 L238.5,189.8 L239.3,190.0 L240.0,189.8 L240.5,189.5 L243.6,186.2 L246.0,189.3 L244.0,189.2 L243.6,189.3 L243.2,189.5 L241.2,192.2 L326.8,84.3 L325.7,78.6 L324.6,73.0 L322.8,67.6 L320.7,62.9 L317.4,57.8 L313.8,53.9 L309.3,50.6 L305.1,48.0 L301.2,46.2 L297.0,44.8 L293.3,43.8 L288.9,43.2 L284.3,43.0 L280.4,43.1 L276.5,43.7 L272.6,44.7 Z" fill="none" stroke="#3b82f6" stroke-width="3.5" stroke-linecap="round" stroke-linejoin="round"/></svg>