<svg viewBox="0 0 400 300" xmlns="http://www.w3.org/2000/svg"><path d="M-2.7,135.9 L-1.6,138.8 L11.1,171.7 L12.3,174.9 L17.3,188.7 L17.9,190.1 L18.5,191.3 L19.3,192.3 L19.8,192.8 L20.2,193.2 L21.2,194.0 L22.4,194.7 L23.7,195.4 L24.9,195.9 L26.1,196.3 L27.4,196.6 L28.9,196.8 L30.4,196.9 L31.6,197.0 L33.0,196.9 L34.8,196.7 L36.3,196.4 L37.5,196.0 L39.6,195.2 L43.1,193.4 L77.1,178.9 L112.1,163.6 L129.1,156.1 L148.9,147.5 L154.9,144.9 L187.6,130.4 L217.7,117.7 L229.0,113.2 L232.7,111.8 L235.1,110.9 L237.3,110.2 L239.8,109.6 L240.8,109.4 L242.0,109.2 L243.0,109.0 L244.1,108.9 L245.3,108.9 L246.6,109.0 L247.6,109.1 L248.8,109.3 L250.7,109.7 L252.6,110.7 L253.5,111.2 L254.5,111.8 L255.1,112.2 L255.6,112.7 L256.0,113.2 L256.4,113.7 L256.8,114.2 L257.1,114.9 L257.3,115.6 L257.3,116.3 L257.3,117.4 L257.3,118.2 L257.1,119.1 L256.8,119.9 L256.6,120.4 L256.2,120.9 L255.7,121.4 L255.2,121.8 L254.6,122.3 L254.1,122.7 L249.4,126.0 L248.3,126.7 L247.3,127.4 L246.0,128.3 L244.6,129.5 L243.8,130.5 L243.1,131.3 L242.5,132.2 L241.7,133.3 L241.0,134.5 L240.6,135.3 L240.1,136.5 L239.8,137.8 L239.6,139.1 L239.4,140.8 L239.2,142.1 L239.3,143.5 L239.6,144.9 L240.0,146.5 L240.4,147.7 L241.1,149.1 L241.8,150.1 L242.8,151.3 L244.0,152.4 L245.6,153.7 L247.3,154.8 L248.8,155.6 L250.5,156.4 L252.4,157.0 L254.5,157.6 L256.9,158.1 L259.1,158.4 L261.9,159.0 L264.5,159.7 L266.9,160.6 L269.0,161.7 L270.9,162.7 L272.7,163.9 L274.0,165.0 L275.0,165.8 L275.9,166.8 L276.6,167.7 L277.1,168.4 L277.5,169.6 L277.7,170.4 L277.7,171.3 L277.5,172.5 L277.3,173.5 L277.0,174.5 L276.6,175.3 L276.1,176.1 L275.5,176.8 L274.6,177.5 L273.7,178.2 L272.7,178.9 L271.2,179.7 L269.4,180.4 L267.6,181.0 L265.7,181.4 L264.1,181.6 L262.5,181.7 L260.8,181.8 L259.0,181.7 L257.3,181.5 L256.1,181.3 L254.9,181.0 L253.9,180.6 L252.8,180.1 L251.8,179.5 L250.7,178.6 L249.9,177.8 L249.4,177.1 L249.2,176.9 L248.5,175.9 L248.0,174.8 L247.6,173.7 L247.2,172.5 L246.6,170.7 L246.0,168.7 L245.5,167.4 L244.9,166.2 L244.2,165.3 L243.5,164.2 L242.9,163.4 L242.0,162.4 L241.1,161.5 L239.8,160.5 L239.1,160.1 L238.2,159.4 L236.6,158.4 L235.1,157.6 L233.1,156.6 L230.4,155.4 L226.6,153.9 L222.4,152.4 L219.6,151.7 L217.9,151.3 L216.2,151.1 L214.3,150.8 L212.1,150.7 L209.9,150.8 L208.3,151.0 L207.0,151.3 L205.6,151.7 L203.6,152.3 L200.9,153.2 L193.9,156.3 L191.2,157.5 L188.7,158.8 L187.9,159.3 L187.1,159.9 L186.3,160.7 L185.6,161.5 L185.1,162.4 L184.6,163.3 L184.3,164.3 L184.2,165.5 L184.1,166.6 L184.1,167.7 L184.3,168.5 L184.7,169.7 L185.1,170.5 L185.6,171.4 L186.2,172.4 L187.0,173.6 L195.0,185.2 L196.9,187.6 L199.1,189.9 L199.8,190.5 L200.9,191.4 L201.3,191.8 L203.4,193.4 L205.5,194.8 L207.9,196.1 L210.2,197.3 L213.3,198.7 L216.8,199.9 L220.4,200.9 L224.5,201.9 L227.4,202.4 L230.5,202.8 L234.1,203.1 L238.3,203.1 L242.6,203.0 L245.9,202.8 L247.8,202.6 L249.5,202.4 L251.1,202.2 L253.3,201.7 L255.2,201.3 L257.2,200.7 L259.6,200.0 L261.7,199.2 L263.6,198.3 L266.2,197.0 L269.6,195.3 L290.4,183.8 L300.0,178.4 L303.6,176.3 L307.2,174.0 L313.5,169.5 L315.8,168.0 L320.9,164.4 L328.9,158.8 L329.5,158.2 L330.0,157.7 L330.6,157.0 L331.1,156.1 L331.5,155.3 L331.7,154.4 L331.9,153.5 L331.9,152.5 L331.9,151.1 L331.6,148.8 L331.4,147.2 L331.0,145.7 L330.4,143.7 L329.4,141.3 L328.0,138.6 L325.6,135.0 L323.2,132.3 L320.2,129.3 L313.9,123.5 L300.3,110.9 L298.3,109.3 L297.4,108.7 L296.3,108.0 L295.1,107.4 L294.0,106.9 L292.4,106.4 L287.6,105.2 L279.8,103.1 L272.2,101.2 L262.6,98.7 L260.0,98.0 L258.1,97.7 L256.2,97.5 L254.0,97.3 L252.2,97.3 L250.5,97.3 L249.2,97.5 L246.9,97.9 L245.2,98.3 L243.6,98.8 L234.9,101.9 L227.6,104.5 L223.5,105.9 L219.9,107.4 L195.6,117.5 L193.8,118.3 L191.8,118.9 L189.8,119.5 L188.0,119.8 L186.0,120.2 L183.9,120.5 L181.7,120.7 L179.1,120.7 L144.6,120.2 L116.8,119.3 L97.9,118.4 L82.8,117.7 L65.2,116.5 L40.1,114.9 L34.2,114.4 L30.2,114.2 L27.2,114.1 L24.8,114.1 L22.4,114.3 L19.9,114.6 L19.2,114.8 L17.2,115.1 L14.2,115.9 L10.7,117.0 L8.1,117.9 L5.9,119.1 L3.9,120.2 L2.4,121.3 L1.0,122.4 L-0.3,123.6 L-1.3,124.6 L-2.1,125.6 L-2.8,126.7 L-3.2,127.6 L-3.4,128.4 L-3.6,129.6 L-3.7,130.6 L-3.7,131.9 L-3.5,133.2 L-3.2,134.4 L-2.7,135.9 L43.1,193.4 L54.5,186.2 L55.8,185.5 L57.1,184.7 L58.3,184.1 L63.5,181.8 L64.8,181.2 L66.4,180.3 L67.9,179.3 L69.1,178.7 L70.4,178.0 L72.3,177.2 L77.9,174.7 L79.7,173.8 L81.3,172.9 L83.1,172.0 L151.3,142.3 L163.2,137.3 L174.0,132.8 L177.7,131.3 L182.6,129.5 L186.0,128.1 L188.4,127.2 L192.9,125.2 L207.6,119.0 L220.5,113.5 L224.7,111.9 L232.5,108.9 L234.6,108.1 L236.1,107.7 L238.3,107.2 L239.1,107.3 L240.8,107.3 L242.4,107.5 L244.3,107.9 L246.3,108.3 L248.5,108.9 L250.7,109.7 Z" fill="none" stroke="#f97316" stroke-width="3.5" stroke-linecap="round" stroke-linejoin="round"/></svg>