<svg id="Layer_1" data-name="Layer 1" xmlns="http://www.w3.org/2000/svg" viewBox="0 0 1337.432 798.997">
<style>
                    path, polyline, polygon, line, circle {
                        stroke: #22c55e !important;
                        stroke-width: 3.5px !important;
                        fill: none !important;
                        stroke-linecap: round !important;
                        stroke-linejoin: round !important;
                        filter: drop-shadow(0px 0px 5px #22c55e) !important;
                    }
                </style><title>gt3_hockenheim_gt</title><path d="M74.84,683.163C57.887,637.6,44.933,594.574,29.272,548.274c-5.283-15.616,2.409-30.314,13.611-39.673,62.664-52.359,122.358-108.217,184.639-161.044,64.758-54.928,138.113-117.836,205.945-168.685,35.14-26.343,72.324-51.924,112.44-69.355,54.571-23.712,107.667-37.377,164.815-52.6,29.7-7.914,32.812,17.667,49.119,9.992,12.323-5.8,19.417-14.422,33.436-19.69a156.251,156.251,0,0,1,48.527-9.4c37.668-1.366,81.876-1.945,118.655,6.171,68.648,15.15,133.1,29.35,196.179,57.6,65.537,29.35,126.145,65.3,176.947,112.261,24.49,22.638-3.485,32.358,19.529,62.008,7.344,9.462-8.3,39.563-20.417,51.428-15.895,15.564-41.107,30.305-63.618,37.322-159.761,49.8-315.65,85.374-475.21,135.183-36.661,11.445-22.858,26.3-34.028,32.327-10.718,5.781-25.655-1.777-43.5,7.053C565.157,614.129,428.575,682.614,287,755.751c-9.693,5.007-29.885,2.968-40.242-7.641-31.066-31.82-45.4-73.9-74.862-106.089-6.047-6.607-23.04-7.165-28.406-2.351-6.864,6.157-8.82,23.578-8.285,35.265.648,14.174,4.957,25.03,13.315,34.677,6.24,7.2,22.079,9.787,30.477,15.869,10.539,7.633,22,20.616,24.856,32.915,3.06,13.171-1.17,32.917-10.652,42.318-7.174,7.112-22.8,18.178-34.324,23.51-9.226,4.267-26.719.564-31.957-8.229C104.144,777.768,91.422,727.726,74.84,683.163Z" transform="translate(-22.568 -32)"   stroke-linecap="round" stroke-linejoin="round" /></svg>