<svg id="Layer_1" data-name="Layer 1" xmlns="http://www.w3.org/2000/svg" viewBox="0 0 963.863 578.985">
<style>
                    path, polyline, polygon, line, circle {
                        stroke: #22c55e !important;
                        stroke-width: 3.5px !important;
                        fill: none !important;
                        stroke-linecap: round !important;
                        stroke-linejoin: round !important;
                        filter: drop-shadow(0px 0px 5px #22c55e) !important;
                    }
                </style>
<title>gt3_silverstone_gt</title><path d="M454.627,566.967l26.4,14.246,2.067,1.305,1.632,1.306,1.741,2.285,1.088,2.067.87,3.047.327,2.829.326,2.72.326,3.7.327,3.645.381,3.129.381,2.584.652,3.1.436,1.8.652,2.122,1.524,2.557,3.815,4.433,4.783,5.141,1.428,1.57M456.809,568.1,204.043,435.706l-38.6-20.046-28.511-17.084-34.719-23.534S92,368.3,87.35,364.338a76.452,76.452,0,0,1-8.893-8.948,58.558,58.558,0,0,1-6.911-9.781,43.107,43.107,0,0,1-3.4-8.728,71.138,71.138,0,0,1-2.251-12.487,50.285,50.285,0,0,1-.144-10.732,35.5,35.5,0,0,1,2.258-8.79,36.472,36.472,0,0,1,3.661-6.683,58,58,0,0,1,5.2-6.546,72.118,72.118,0,0,1,5.9-5.843A73.936,73.936,0,0,1,88.837,281c2.41-1.722,7.476-4.805,7.476-4.805l32.352-16.576,19.659-12.389L165.7,233.182l77.645-70.376s2.861-2.692,4.13-4.186a12.217,12.217,0,0,0,2.284-3.139,9.519,9.519,0,0,0,.551-4.13,9.2,9.2,0,0,0-1.069-3.944,5.749,5.749,0,0,0-1.069-1.095l-15.6-15.97a28.618,28.618,0,0,1-2.875-5.14,14.957,14.957,0,0,1-.647-5.387,18.353,18.353,0,0,1,1.209-5.264,22.291,22.291,0,0,1,2.448-4.768,61.907,61.907,0,0,1,5.041-5.869s7.5-6.9,11.478-10.076a148.4,148.4,0,0,1,13.47-9.723,95.39,95.39,0,0,1,8.466-4.584c2.314-1.146,4.666-2.221,7.063-3.18a65.941,65.941,0,0,1,19.411-5.177,52.068,52.068,0,0,1,7.468-.7,27.483,27.483,0,0,1,6.767.7,61.719,61.719,0,0,1,9.058,3.883l37.528,28.469,175.995,130.7,4.584,6.174,3.532,6.526,2.588,8.487,1.645,7.172.241,10.684.11,9.43L545.4,296.213l-1.886,13.072-2.588,19.08s-.84,9.715-.943,14.586c-.075,3.568-.011,7.144.241,10.7a73.2,73.2,0,0,0,1.2,10.022,69.833,69.833,0,0,0,3.3,10.724,58.931,58.931,0,0,0,4.37,9.261,111.6,111.6,0,0,0,7.357,9.739l59.528,72.468a60.918,60.918,0,0,1,5.2,8.318,17.564,17.564,0,0,1,1.465,5.638,19.859,19.859,0,0,1-.642,5.637,15.592,15.592,0,0,1-1.614,4.839,14.493,14.493,0,0,1-3.371,3.434,50.282,50.282,0,0,1-4.919,3.192l-47.881,15.506a23.95,23.95,0,0,0-4.945,2.933,15.534,15.534,0,0,0-3.7,5.662,11.185,11.185,0,0,0-.832,5.629,14.786,14.786,0,0,0,3.237,6.391,21.621,21.621,0,0,0,5.984,5.267c6.235,3.715,20.429,7.532,20.429,7.532s12.488,4.378,18.9,5.962c3.747.925,7.583,1.442,11.393,2.057,3.609.583,10.858,1.548,10.858,1.548s16.111,2.05,24.082,1.04a23.461,23.461,0,0,0,6.84-2.079,38.829,38.829,0,0,0,4.806-3.1L892.562,289.171l7.063-10.834s3.593-8,4.584-12.239a53.194,53.194,0,0,0,1.053-10.463,57.09,57.09,0,0,0-.351-9.058,33.283,33.283,0,0,0-1.886-8.522,19.13,19.13,0,0,0-3.641-5.713,37.219,37.219,0,0,0-5.824-4.289l-6.174-2.533-21.648-1.645-24.588-2.588s-3.21-1.147-4.77-1.831a26.189,26.189,0,0,1-5.121-2.533,21.3,21.3,0,0,1-4.64-4.825,31.125,31.125,0,0,1-5.637-16.045,37.09,37.09,0,0,1,.757-9.114,35.58,35.58,0,0,1,2.478-8.116,25.065,25.065,0,0,1,10.759-12,27.628,27.628,0,0,1,6.174-2.478,35.657,35.657,0,0,1,6.767-1.35,29.027,29.027,0,0,1,7.468.056c4.037.67,11.647,3.882,11.647,3.882s37.422,17.479,55.645,27.175c6.156,3.276,12.278,6.65,18.117,10.463,6.6,4.31,13.279,8.637,19.06,13.994,5.385,4.991,9.8,10.945,14.345,16.713,3.736,4.745,7.572,9.468,10.594,14.7a87.113,87.113,0,0,1,8.115,18.007c3.343,10.96,5.769,33.887,5.769,33.887l20.7,206.721-.417,9.816-1.118,9.465a82.832,82.832,0,0,1-2.588,8.522,38.847,38.847,0,0,1-3.291,6.064c-1.176,1.821-2.595,3.474-3.937,5.176a26.286,26.286,0,0,1-10.408,9.41,67.826,67.826,0,0,1-6.47,3.531c-5.055,2.437-10.248,4.6-15.514,6.536-9.7,3.567-29.558,9.344-29.558,9.344l-35.051,9.651-27.677,5.768-57.03,5.527-35.09,1.645L765.5,600.1s-11.96.607-17.917,1.183c-4.479.434-9.031.6-13.392,1.711a74.58,74.58,0,0,0-13.392,5.221c-4.111,1.95-7.954,4.424-11.888,6.711-4.186,2.435-8.24,5.094-12.463,7.463-3.176,1.782-6.252,3.83-9.674,5.075a26.761,26.761,0,0,1-8.328,1.814c-3.523.094-7-.888-10.435-1.7-5.808-1.37-17.092-5.323-17.092-5.323s-21.5-8.388-32.606-11.456a60.838,60.838,0,0,0-12.687-2.588,54.129,54.129,0,0,0-14.235,1.294,59.012,59.012,0,0,0-15.062,5.177c-9.574,5.017-16.773,13.783-26.115,19.22a32.693,32.693,0,0,1-22.89,5.367,43.718,43.718,0,0,1-11.838-2.376,43.245,43.245,0,0,1-12.092-6.682,60.05,60.05,0,0,1-7.39-7.873c-1.751-2.143-2.348-3.008-2.348-3.008" transform="translate(-60.519 -65.472)"   stroke-linecap="round" stroke-linejoin="round" /></svg>