<svg id="Layer_1" data-name="Layer 1" xmlns="http://www.w3.org/2000/svg" viewBox="0 0 703.5 440.511">
<style>
                    path, polyline, polygon, line, circle {
                        stroke: #22c55e !important;
                        stroke-width: 3.5px !important;
                        fill: none !important;
                        stroke-linecap: round !important;
                        stroke-linejoin: round !important;
                        filter: drop-shadow(0px 0px 5px #22c55e) !important;
                    }
                </style>

<title>gt3_paul_ricard_1000km</title><polyline points="368.864 251.084 450.217 313.117 491.701 345.186 494.302 346.088 496.739 345.9 498.683 344.847 499.806 343.231 500.299 341.125 500.956 319.32 501.586 314.733 502.571 312.252 504.351 309.583 507.117 306.199 511.005 302.853 515.523 300.372 520.397 298.943 525.408 298.605 531.104 298.943 536.279 300.71 540.332 303.191 543.727 306.387 550.217 313.493 556.542 319.32 563.826 324.809 571.602 329.245 579.214 332.629 587.32 334.922 595.26 336.689 604.351 337.403 613.908 337.403 621.52 336.351 628.995 334.546 636.443 332.065 643.891 329.057 650.217 325.523 654.269 323.042 657.829 321.275 661.224 320.222 664.647 320.034 668.207 320.748 671.602 322.703 674.532 325.335 676.476 328.004 677.599 330.674 678.585 333.869 679.214 338.268 679.214 343.795 678.256 347.855 676.805 351.765 674.696 355.825 672.752 358.682 657.172 379.059 651.996 386.315 646.985 394.285 641.947 403.684 639.674 409.173 638.716 412.519 638.223 415.715 638.716 418.911 639.839 421.768 641.454 424.588 644.22 427.971 647.78 430.979 652.654 434.325 657.665 436.806 662.703 438.235 667.221 438.761 671.766 438.573 676.476 437.52 680.857 435.941 685.211 433.986 688.47 431.843 691.372 429.55 693.809 426.73 696.411 423.535 698.519 419.437 700.134 416.091 701.093 412.369 701.586 408.647 701.75 405.263 701.421 331.012 701.421 325.861 701.093 321.989 700.463 318.418 698.847 313.493 697.04 308.342 694.959 304.432 692.194 300.372 688.634 296.274 684.581 292.025 680.2 288.491 676.312 285.822 672.588 283.867 669.001 282.288 639.839 270.934 605.145 257.814 571.766 245.407 532.062 230.707 496.739 217.248 492.358 215.293 488.305 213 458.65 192.623 453.283 188.901 450.71 186.043 442.276 173.111 440.003 171.005 436.772 169.05 433.513 168.524 431.104 168.524 428.503 169.765 426.394 171.344 415.058 181.983 412.621 183.75 409.855 184.276 406.953 183.75 374.696 171.72 272.752 133.598 231.569 117.995 108.568 72.091 79.872 61.301 76.969 59.873 74.532 57.918 73.245 56.151 71.766 54.045 70.151 51.376 69.028 48.707 62.539 33.293 60.759 30.285 58.979 26.901 56.213 23.367 53.639 19.457 51.038 16.638 46 12.014 41.153 8.141 36.772 5.472 31.734 3.329 27.215 2.088 24.286 1.75 21.054 2.276 17.796 3.329 15.222 4.946 12.621 7.239 11.169 9.006 10.184 11.337 2.571 33.819 1.75 36.827 1.75 38.255 2.407 40.21 3.858 41.639 6.131 42.316 10.512 42.165 25.737 39.684 30.118 39.684 34.499 40.21 38.223 41.789 40.824 43.932 43.097 46.413 44.384 48.707 45.671 51.715 46.164 54.196 46.328 56.339 46 59.158 44.548 67.843 44.548 69.986 45.041 72.279 46 74.422 47.944 76.189 50.874 78.671 68.371 89.122 82.637 97.092 95.589 102.581 106.953 107.356 112.785 110.401 119.11 113.747 125.901 118.371 134.828 124.387 146.657 133.936 156.049 140.854 161.881 146.719 169.822 155.027 173.245 157.508 177.927 160.178 195.452 169.915 200.792 172.058 205.008 172.396 208.897 171.87 212.785 170.479 216.345 168.148 218.782 165.667 221.383 162.133 223.628 159.313 226.558 156.982 229.461 155.93 232.719 155.403 236.936 155.403 241.317 155.741 245.206 156.982 247.615 158.599 265.14 172.058 288.305 189.953 314.565 209.278 339.839 228.94 368.864 251.084"   stroke-linecap="round" stroke-linejoin="round" /></svg>