<svg xmlns="http://w3.org" viewBox="0 0 800 600" width="100%" height="100%">
  <path d="M 289.28 426.69 L 206.93 360.83 L 182.59 341.80 L 180.39 338.13 L 179.09 334.46 L 179.46 330.34 L 181.10 327.13 L 183.49 324.97 L 186.61 323.46 L 191.19 322.77 L 197.96 322.77 L 216.83 323.23 L 229.45 325.38 L 240.99 328.82 L 253.08 333.59 L 262.24 338.77 L 269.17 343.54 L 336.39 396.74 L 341.30 399.31 L 346.07 400.41 L 350.83 400.41 L 354.70 399.08 L 358.91 397.56 L 362.18 395.00 L 364.94 391.97 L 366.76 389.17 L 368.40 385.27 L 368.96 379.86 L 368.77 376.84 L 367.32 372.71 L 366.05 368.63 L 346.81 335.98 L 344.80 329.92 L 344.43 325.15 L 345.54 321.07 L 347.00 315.89 L 348.82 311.12 L 370.07 268.75 L 407.78 192.44 L 414.55 180.33 L 422.44 169.74 L 432.31 158.27 L 434.32 155.06 L 435.80 151.81 L 436.15 148.14 L 435.06 144.01 L 417.86 79.17 L 417.49 74.21 L 418.02 69.44 L 419.32 64.67 L 421.33 60.13 L 424.98 56.47 L 429.37 53.21 L 433.95 50.87 L 438.53 50.00 L 444.22 50.18 L 449.69 51.51 L 456.31 54.31 L 463.80 59.08 L 469.12 62.75 L 475.34 67.29 L 481.93 72.47 L 490.18 81.09 L 525.32 119.16 L 526.96 122.82 L 527.52 125.67 L 527.33 128.69 L 525.51 131.26 L 522.57 134.06 L 520.19 136.44 L 519.29 138.60 L 519.48 142.50 L 520.38 146.81 L 533.18 195.05 L 535.93 201.52 L 537.94 204.13 L 539.96 206.47 L 542.71 208.67 L 546.02 209.73 L 552.24 211.01 L 578.78 214.91 L 584.28 217.06 L 587.75 219.45 L 590.69 221.83 L 593.25 225.96 L 594.15 229.63 L 595.26 233.94 L 595.26 238.71 L 594.34 243.89 L 587.75 290.35 L 587.56 298.60 L 588.12 303.78 L 589.57 309.15 L 591.61 314.38 L 617.60 355.88 L 620.16 362.12 L 620.72 366.47 L 620.91 370.55 L 620.35 374.86 L 619.42 379.22 L 617.60 383.12 L 614.66 386.97 L 569.99 437.14 L 530.27 483.18 L 516.73 498.32 L 513.42 500.24 L 510.32 500.70 L 507.38 500.24 L 504.82 498.73 L 502.25 496.39 L 475.15 465.67 L 470.76 461.35 L 450.06 444.48 L 446.41 442.55 L 442.76 441.04 L 438.34 440.40 L 434.51 440.81 L 429.37 443.19 L 426.28 446.63 L 424.08 450.35 L 422.78 453.56 L 422.44 457.92 L 422.97 462.23 L 424.79 466.31 L 427.17 469.56 L 468.01 502.44 L 475.52 509.32 L 477.72 513.04 L 479.36 518.22 L 480.10 524.27 L 479.54 529.87 L 477.72 534.64 L 475.52 539.18 L 472.06 543.08 L 466.37 546.74 L 460.52 549.13 L 454.12 550.00 L 447.34 549.13 L 441.28 546.74 L 435.62 542.85 L 289.28 426.69" fill="none" stroke="#e10600" stroke-width="4.5" stroke-linecap="round" stroke-linejoin="round" />
</svg>