<svg viewBox="0 0 400 300" xmlns="http://www.w3.org/2000/svg">
  <path d="M170.2,229.0 L168.2,227.4 L165.9,225.5 L163.5,223.6 L160.1,220.8 L157.7,218.8 L154.2,215.9 L150.4,212.8 L146.6,209.7 L143.4,207.0 L140.3,204.5 L137.0,201.8 L134.5,199.7 L130.6,196.5 L126.7,193.3 L123.9,191.0 L121.6,189.2 L116.2,184.8 L112.5,181.8 L110.1,180.0 L105.7,176.5 L101.3,173.0 L99.0,171.2 L97.2,169.8 L93.6,167.1 L90.7,164.8 L87.9,162.7 L83.7,159.2 L81.8,157.6 L79.6,155.7 L77.0,153.2 L72.2,145.4 L72.2,142.3 L72.4,141.8 L73.3,140.3 L74.4,139.3 L74.9,139.0 L76.3,138.4 L77.9,137.9 L78.9,137.8 L80.3,137.7 L81.7,137.6 L83.6,137.7 L85.6,137.9 L87.8,138.1 L89.7,138.4 L92.0,138.9 L95.4,139.7 L98.2,140.5 L100.0,141.1 L103.6,142.4 L106.8,143.8 L109.0,144.9 L112.1,146.7 L113.6,147.6 L116.9,149.9 L118.8,151.3 L121.2,153.2 L125.7,156.9 L127.4,158.4 L131.5,161.9 L135.6,165.5 L137.6,167.3 L142.2,171.2 L146.4,174.7 L149.1,176.7 L150.9,177.8 L153.1,179.0 L156.1,180.2 L159.4,180.8 L160.0,180.8 L163.5,179.9 L165.0,179.0 L166.1,178.1 L167.2,176.7 L167.9,175.5 L168.8,172.2 L168.9,170.2 L168.7,168.2 L168.1,166.0 L167.4,164.0 L166.5,162.0 L166.3,161.6 L165.2,159.7 L163.1,156.1 L161.9,154.0 L160.9,151.9 L160.1,150.1 L159.5,148.1 L158.8,145.2 L158.4,141.7 L158.5,138.1 L158.6,137.3 L160.5,131.0 L161.6,128.9 L163.4,125.4 L165.1,122.6 L168.3,117.3 L171.2,112.1 L173.3,108.3 L175.5,104.3 L178.3,99.2 L179.3,97.4 L181.2,94.0 L184.5,87.9 L186.5,84.4 L189.2,79.4 L192.5,73.9 L194.4,71.1 L198.2,66.0 L200.4,63.0 L202.3,60.6 L205.5,55.2 L206.3,53.2 L207.1,50.3 L207.4,44.1 L206.4,39.3 L205.9,37.8 L204.7,34.3 L202.9,29.7 L201.8,26.8 L199.8,20.3 L199.1,15.9 L199.0,13.2 L199.4,10.1 L201.2,5.7 L202.5,3.8 L205.1,1.6 L208.1,0.3 L211.1,-0.3 L215.7,0.1 L220.4,1.7 L223.4,3.3 L226.0,5.1 L230.2,8.6 L232.1,10.4 L236.1,14.5 L238.8,17.4 L240.9,19.7 L243.5,22.6 L243.8,23.0 L246.6,26.0 L250.5,30.4 L251.5,31.6 L253.7,34.6 L254.4,36.1 L255.2,38.9 L255.2,40.2 L255.0,41.0 L254.7,42.1 L253.7,44.4 L253.1,45.5 L252.5,46.7 L251.9,49.5 L251.8,52.7 L252.2,55.6 L253.1,59.3 L254.2,62.9 L255.2,66.4 L255.9,69.2 L256.8,72.9 L257.4,74.8 L258.5,77.3 L261.5,81.3 L263.1,82.8 L266.3,84.4 L267.0,84.6 L271.9,85.4 L276.7,85.8 L280.8,86.6 L282.8,87.5 L285.0,89.0 L286.6,90.4 L288.2,92.3 L289.3,94.2 L290.0,95.8 L290.4,97.4 L290.7,100.2 L290.5,103.3 L290.2,105.3 L289.3,108.9 L287.9,114.0 L287.0,117.2 L286.4,120.1 L286.1,122.3 L285.8,126.1 L285.9,128.3 L286.2,132.6 L287.1,136.6 L288.1,139.7 L289.5,143.0 L292.9,148.1 L296.2,152.3 L297.0,153.6 L299.9,159.0 L300.8,161.7 L301.4,164.5 L301.2,171.2 L299.1,176.9 L297.4,179.6 L295.1,182.3 L293.3,184.3 L290.1,187.5 L288.4,189.2 L287.1,190.5 L285.2,192.4 L282.6,195.1 L280.4,197.4 L277.1,200.8 L275.8,202.2 L270.8,207.3 L268.1,210.1 L265.9,212.5 L263.6,215.0 L260.9,217.9 L258.6,220.4 L256.3,223.2 L254.5,225.3 L253.2,226.8 L251.9,228.3 L248.4,231.8 L246.9,232.7 L245.3,233.5 L243.7,234.0 L241.7,233.9 L240.1,233.5 L239.0,233.0 L236.4,231.1 L235.0,229.6 L230.0,223.8 L228.7,222.1 L227.0,220.0 L225.6,218.4 L224.4,217.1 L221.9,214.3 L219.2,211.5 L218.1,210.3 L214.9,207.3 L213.2,206.1 L210.3,204.6 L208.4,204.1 L205.4,203.9 L203.7,204.2 L202.0,204.9 L200.1,206.2 L199.1,207.4 L197.9,210.0 L197.7,211.2 L197.8,213.6 L198.9,216.5 L200.9,219.2 L203.0,221.2 L204.6,222.6 L205.8,223.4 L207.8,224.9 L209.3,226.0 L211.3,227.4 L213.3,228.8 L215.0,230.1 L218.6,232.9 L221.4,235.6 L222.9,237.4 L225.1,241.5 L225.7,243.9 L225.8,248.2 L225.3,250.5 L223.9,253.6 L222.9,254.9 L220.7,257.0 L219.8,257.6 L218.5,258.2 L216.4,259.0 L214.1,259.5 L212.1,259.7 L210.4,259.7 L207.6,259.1 L203.8,257.5 L199.3,254.5 L196.7,252.3 L194.5,250.4 L192.0,248.3 L191.0,247.4 L188.1,244.7 L184.1,241.0 L181.8,239.0 L177.8,235.4 L175.6,233.5 Z"
    fill="none"
    stroke="#FF6600"
    stroke-width="4"
    stroke-linecap="round"
    stroke-linejoin="round"/>
</svg>