<svg id="Layer_1" data-name="Layer 1" xmlns="http://www.w3.org/2000/svg" viewBox="0 0 421 211">
<style>
                    path, polyline, polygon, line, circle {
                        stroke: #ffcc00 !important;
                        stroke-width: 3.5px !important;
                        fill: none !important;
                        stroke-linecap: round !important;
                        stroke-linejoin: round !important;
                        filter: drop-shadow(0px 0px 5px #ffe600) !important;
                    }
                </style>

<title>Imola</title>
<path d="M365.0 28.5 L363.0 26.5 L359.0 25.5 L308.0 32.5 L298.0 32.5 L289.0 31.5 L273.0 27.5 L263.0 27.5 L259.0 31.5 L254.0 41.5 L251.0 51.5 L251.0 61.5 L257.0 86.5 L257.0 94.5 L253.0 101.5 L248.0 107.5 L245.0 107.5 L238.0 104.5 L163.0 103.5 L163.0 101.5 L160.0 99.5 L147.0 105.5 L137.0 108.5 L125.0 114.5 L112.0 124.5 L83.0 152.5 L74.0 157.5 L62.0 161.5 L57.0 164.5 L56.0 168.5 L62.0 182.5 L65.0 185.5 L74.0 185.5 L108.0 171.5 L121.0 167.5 L176.0 167.5 L214.0 176.5 L236.0 176.5 L256.0 174.5 L282.0 169.5 L284.0 168.5 L286.0 165.5 L286.0 161.5 L291.0 155.5 L304.0 149.5 L309.0 144.5 L315.0 128.5 L319.0 121.5 L328.0 99.5 L334.0 81.5 L334.0 74.5 L332.0 70.5 L332.0 64.5 L344.0 53.5 L364.0 37.5 L365.0 35.5 L365.0 28.5" />
</svg>