<svg viewBox="0 0 400 300" xmlns="http://www.w3.org/2000/svg"><path d="M155.6,215.0 L156.8,213.3 L157.6,211.8 L158.5,210.1 L159.0,208.6 L159.6,206.9 L160.0,205.0 L160.0,203.3 L160.1,201.8 L160.0,200.4 L159.5,198.4 L159.1,196.7 L158.5,194.9 L267.0,117.3 L251.2,114.7 L246.1,113.8 L350.0,102.7 L342.8,104.6 L339.5,105.2 L325.7,108.0 L322.5,108.7 L317.0,110.2 L313.8,111.0 L311.2,111.6 L307.3,112.1 L305.4,112.2 L303.2,112.3 L295.3,112.2 L246.2,111.6 L244.7,111.5 L243.3,111.4 L211.6,106.6 L210.6,106.5 L209.7,106.5 L209.0,106.5 L208.2,106.5 L207.2,106.5 L205.4,106.4 L202.8,106.3 L200.3,106.1 L196.6,106.0 L193.0,105.9 L190.9,105.8 L188.9,105.8 L185.9,106.0 L182.0,106.3 L179.4,106.4 L176.5,106.7 L171.4,107.2 L160.1,108.3 L158.5,194.9 L152.5,175.6 L81.9,222.8 L96.5,221.5 L98.6,221.3 L101.6,221.2 L105.0,221.1 L107.7,221.2 L110.4,221.2 L113.2,221.4 L116.2,221.7 L37.9,216.7 L36.2,217.9 L34.9,218.9 L34.0,219.6 L33.5,220.4 L33.1,221.2 L33.0,222.0 L33.2,222.8 L33.5,223.5 L33.9,224.2 L34.5,225.0 L35.3,225.7 L36.1,226.1 L37.0,226.5 L37.9,226.8 L39.0,226.9 L40.0,226.9 L41.7,226.9 L67.0,199.1 L57.7,204.6 L50.0,209.3 L37.9,216.7 L69.5,190.1 L70.7,193.4 L70.9,193.7 L71.0,194.3 L71.0,194.9 L70.9,195.4 L70.8,195.9 L70.5,196.4 L70.1,196.9 L69.6,197.3 L68.9,197.9 L68.2,198.3 L67.6,198.7 L67.0,199.1 L96.1,133.5 L68.4,182.5 L180.1,163.5 L255.4,163.1 L158.3,166.4 L162.4,161.8 L162.8,161.4 L163.3,161.1 L163.9,160.9 L164.5,160.8 L165.0,160.7 L165.8,160.8 L166.4,160.9 L167.5,161.1 L170.2,162.0 L318.7,145.3 L320.9,143.7 L341.9,128.8 L255.4,163.1 L256.9,163.2 L257.5,163.2 L258.0,163.4 L258.4,163.7 L258.8,164.2 L259.5,165.7 L294.8,114.4 L273.0,114.0 L251.2,113.9 L246.1,113.8 L243.9,113.6 L242.1,113.3 L211.4,108.6 L374.6,106.5 L371.7,101.7 L371.1,101.1 L370.5,100.5 L369.7,100.0 L368.7,99.6 L368.0,99.3 L367.1,99.1 L366.1,99.0 L365.3,99.0 L364.3,99.0 L363.5,99.2 L362.3,99.5 L110.5,125.8 L103.4,128.2 L102.3,128.5 L101.4,128.9 L100.6,129.2 L99.8,129.7 L99.0,130.2 L98.3,130.6 L97.7,131.1 L97.4,131.5 L97.0,132.0 L96.6,132.6 L96.1,133.5 L127.2,112.6 L126.3,112.8 L125.2,113.1 L124.6,113.4 L124.1,113.8 L123.6,114.2 L123.3,114.7 L123.1,115.2 L122.8,116.0 L122.4,117.4 L122.4,117.4 L122.0,118.9 L121.6,120.1 L121.1,120.9 L120.7,121.5 L120.1,122.0 L119.4,122.4 L118.7,122.9 L117.7,123.4 L110.5,125.8 L68.4,182.5 L68.2,182.8 L68.0,183.3 L67.9,183.8 L67.8,184.3 L67.8,184.9 L67.9,185.5 L68.1,186.1 L68.3,186.8 L69.5,190.1 L138.6,224.6 L141.5,224.9 L143.0,224.9 L144.2,224.9 L145.4,224.6 L146.5,224.2 L147.7,223.8 L149.0,223.0 L150.2,222.2 L151.0,221.3 L151.7,220.6 L152.5,219.7 L155.6,215.0 L41.7,226.9 L71.7,223.9 L81.9,222.8 L116.2,221.7 L138.6,224.6 L176.5,107.3 L165.5,108.0 L160.1,108.3 L147.2,109.2 L145.9,109.4 L144.4,109.6 L127.2,112.6 L211.4,108.6 L207.6,108.0 L205.0,107.7 L202.5,107.4 L200.2,107.3 L197.9,107.1 L194.9,106.9 L192.1,106.8 L190.0,106.8 L187.3,106.8 L184.3,106.9 L176.5,107.3 L271.4,116.1 L271.4,116.9 L271.2,117.4 L270.9,117.7 L270.4,117.8 L270.0,117.8 L269.2,117.7 L267.0,117.3 L273.0,114.0 L272.1,114.2 L271.8,114.3 L271.6,114.6 L271.5,114.9 L271.5,115.3 L271.4,116.1 L362.3,99.5 L350.0,102.7 L319.3,111.6 L319.3,111.6 L315.9,112.5 L312.9,113.1 L310.4,113.6 L309.2,113.7 L307.8,113.9 L306.1,114.1 L304.7,114.2 L303.2,114.4 L301.6,114.5 L294.8,114.4 L373.3,117.1 L375.0,116.5 L375.7,116.2 L376.4,115.9 L377.0,115.5 L377.5,115.0 L377.8,114.5 L378.0,114.2 L378.1,113.8 L378.1,113.3 L378.1,112.8 L378.0,112.4 L377.8,111.9 L377.4,111.2 L374.6,106.5 L354.6,122.8 L355.8,122.4 L364.5,119.7 L373.3,117.1 L341.9,128.8 L343.2,127.9 L345.6,126.5 L348.3,125.1 L349.8,124.5 L351.1,124.0 L354.6,122.8 L263.6,166.9 L292.7,158.4 L292.7,158.4 L294.6,157.7 L296.5,157.0 L298.8,156.1 L300.8,155.2 L302.6,154.3 L310.7,150.1 L313.1,148.8 L315.5,147.3 L316.8,146.5 L318.7,145.3 L259.5,165.7 L259.7,166.3 L260.1,166.6 L260.4,166.9 L260.9,167.1 L261.5,167.2 L262.2,167.2 L262.8,167.1 L263.6,166.9 L170.2,162.0 L173.0,162.8 L174.0,163.1 L175.1,163.3 L176.3,163.5 L177.6,163.5 L180.1,163.5 L152.5,175.6 L152.4,175.0 L152.4,174.2 L152.5,173.5 L152.8,172.9 L153.0,172.4 L153.6,171.7 L154.3,171.0 L158.3,166.4 Z" fill="none" stroke="#3b82f6" stroke-width="3.5" stroke-linecap="round" stroke-linejoin="round"/></svg>