<svg xmlns="http://w3.org" viewBox="0 0 800 600" width="100%" height="100%">
  <path d="M 494.07 161.38 L 481.66 161.21 L 404.22 144.57 L 376.58 141.65 L 360.48 141.48 L 279.68 148.72 L 239.99 158.12 L 235.06 161.38 L 232.70 164.30 L 232.00 167.01 L 229.09 179.66 L 226.95 183.68 L 222.01 187.11 L 185.50 205.69 L 180.05 211.79 L 121.14 357.82 L 120.45 361.71 L 120.54 366.46 L 126.77 389.14 L 126.77 392.74 L 124.74 397.14 L 122.47 400.15 L 52.72 459.83 L 50.73 463.26 L 50.00 467.32 L 50.88 471.68 L 53.45 476.89 L 56.78 479.73 L 60.57 480.87 L 66.38 480.78 L 178.84 466.18 L 191.65 465.29 L 210.57 466.35 L 224.28 468.34 L 242.96 471.89 L 262.12 475.41 L 272.05 477.35 L 278.32 476.09 L 283.07 473.71 L 289.22 467.75 L 295.39 456.57 L 304.87 432.91 L 307.08 422.54 L 307.77 410.77 L 305.93 398.79 L 292.21 333.86 L 292.40 329.80 L 294.33 325.14 L 302.32 312.57 L 312.77 296.32 L 315.83 294.75 L 319.88 294.33 L 322.70 295.56 L 338.17 301.78 L 342.92 302.41 L 505.09 301.35 L 507.18 302.24 L 509.21 307.07 L 510.72 311.30 L 512.48 312.36 L 515.90 312.44 L 580.65 285.78 L 588.83 281.21 L 615.80 262.58 L 631.24 248.53 L 646.19 233.50 L 682.70 197.69 L 690.09 192.44 L 698.11 188.51 L 745.88 167.30 L 749.49 163.79 L 750.00 158.24 L 749.03 153.84 L 734.62 123.36 L 731.26 120.49 L 727.57 119.34 L 722.39 119.13 L 718.24 120.19 L 654.03 144.57 L 631.24 153.38 L 618.83 157.86 L 608.02 160.32 L 600.72 161.63 L 494.07 161.38" fill="none" stroke="#3b82f6" stroke-width="4.5" stroke-linecap="round" stroke-linejoin="round" />
</svg>