<svg viewBox="0 0 400 300" xmlns="http://www.w3.org/2000/svg"><path d="M156.9,216.2 L158.1,214.5 L158.9,213.0 L159.7,211.3 L160.3,209.8 L160.8,208.1 L161.2,206.3 L161.3,204.5 L161.3,203.0 L161.2,201.6 L160.8,199.6 L160.3,197.9 L159.7,196.1 L351.3,104.0 L344.0,105.8 L340.8,106.5 L326.9,109.2 L323.8,109.9 L318.2,111.4 L315.1,112.2 L312.5,112.8 L308.6,113.3 L306.6,113.4 L304.4,113.5 L296.5,113.4 L247.4,112.8 L246.0,112.7 L244.5,112.6 L212.8,107.8 L211.9,107.7 L210.9,107.7 L210.3,107.7 L209.5,107.7 L208.5,107.7 L206.6,107.6 L204.1,107.5 L201.5,107.4 L197.9,107.3 L194.2,107.1 L192.2,107.0 L190.2,107.0 L187.2,107.2 L183.3,107.5 L180.7,107.7 L177.8,107.9 L172.7,108.4 L161.4,109.5 L83.2,224.0 L97.8,222.7 L99.9,222.5 L102.9,222.4 L106.2,222.3 L108.9,222.4 L111.6,222.5 L114.5,222.7 L117.5,222.9 L39.1,217.9 L37.4,219.1 L36.1,220.1 L35.3,220.8 L34.7,221.6 L34.4,222.4 L34.3,223.3 L34.4,224.0 L34.7,224.7 L35.1,225.5 L35.8,226.2 L36.6,226.9 L37.4,227.3 L38.2,227.7 L39.2,228.0 L40.3,228.1 L41.3,228.2 L43.0,228.1 L70.8,191.3 L72.0,194.6 L72.1,194.9 L72.3,195.5 L72.2,196.1 L72.1,196.6 L72.0,197.1 L71.8,197.6 L71.4,198.1 L70.9,198.5 L70.1,199.1 L69.5,199.5 L68.9,199.9 L68.2,200.3 L159.6,167.6 L163.7,163.0 L164.0,162.6 L164.6,162.3 L165.1,162.1 L165.7,162.0 L166.2,162.0 L167.0,162.0 L167.7,162.1 L168.7,162.3 L171.5,163.2 L256.7,164.3 L258.1,164.4 L258.8,164.5 L259.3,164.6 L259.7,164.9 L260.0,165.4 L260.7,166.9 L296.0,115.6 L274.3,115.2 L252.5,115.1 L247.4,115.1 L245.1,114.8 L243.3,114.5 L212.7,109.8 L375.8,107.7 L372.9,103.0 L372.3,102.3 L371.8,101.8 L371.0,101.2 L370.0,100.8 L369.2,100.5 L368.3,100.3 L367.4,100.2 L366.5,100.2 L365.6,100.3 L364.7,100.4 L363.5,100.7 L111.7,127.1 L104.6,129.4 L103.6,129.8 L102.6,130.1 L101.9,130.4 L101.0,130.9 L100.2,131.4 L99.5,131.8 L99.0,132.3 L98.6,132.7 L98.3,133.2 L97.9,133.8 L97.4,134.7 L128.4,113.8 L127.5,114.0 L126.5,114.3 L125.8,114.6 L125.3,115.0 L124.8,115.5 L124.5,115.9 L124.3,116.4 L124.0,117.2 L123.7,118.6 L123.7,118.6 L123.3,120.1 L122.8,121.3 L122.4,122.1 L121.9,122.7 L121.3,123.3 L120.7,123.7 L119.9,124.1 L118.9,124.6 L111.7,127.1 L69.7,183.7 L69.5,184.0 L69.3,184.6 L69.1,185.0 L69.1,185.5 L69.0,186.1 L69.1,186.8 L69.3,187.4 L69.5,188.0 L70.8,191.3 L139.9,225.8 L142.7,226.1 L144.2,226.2 L145.5,226.1 L146.6,225.8 L147.8,225.5 L148.9,225.0 L150.3,224.2 L151.4,223.4 L152.3,222.5 L152.9,221.8 L153.7,220.9 L156.9,216.2 L177.8,108.6 L166.8,109.2 L161.4,109.5 L148.5,110.4 L147.1,110.6 L145.6,110.8 L128.4,113.8 L212.7,109.8 L208.8,109.2 L206.3,108.9 L203.8,108.6 L201.5,108.5 L199.2,108.3 L196.1,108.2 L193.4,108.1 L191.3,108.0 L188.6,108.0 L185.5,108.1 L177.8,108.6 L272.7,117.3 L272.6,118.1 L272.5,118.6 L272.1,118.9 L271.7,119.0 L271.2,119.0 L270.4,118.9 L268.3,118.5 L274.3,115.2 L273.4,115.4 L273.1,115.6 L272.9,115.8 L272.7,116.1 L272.7,116.5 L272.7,117.3 L320.6,112.8 L317.2,113.7 L314.2,114.3 L311.7,114.8 L310.4,114.9 L309.0,115.1 L307.4,115.3 L306.0,115.4 L304.5,115.6 L302.8,115.7 L296.0,115.6 L374.5,118.3 L376.2,117.7 L376.9,117.4 L377.7,117.1 L378.2,116.7 L378.7,116.2 L379.1,115.7 L379.2,115.4 L379.4,115.0 L379.4,114.5 L379.3,114.0 L379.3,113.6 L379.1,113.1 L378.7,112.4 L375.8,107.7 L343.1,130.0 L344.4,129.1 L346.9,127.7 L349.6,126.3 L351.1,125.7 L352.4,125.2 L355.8,124.0 L294.0,159.6 L295.8,159.0 L297.8,158.3 L300.0,157.3 L302.1,156.4 L303.9,155.6 L311.9,151.3 L314.3,150.0 L316.8,148.5 L318.0,147.8 L319.9,146.5 L260.7,166.9 L260.9,167.5 L261.4,167.9 L261.7,168.1 L262.1,168.3 L262.7,168.4 L263.4,168.4 L264.0,168.3 L264.8,168.1 L171.5,163.2 L174.2,164.0 L175.2,164.3 L176.3,164.5 L177.5,164.7 L178.8,164.7 L181.4,164.7 L153.8,176.8 L153.6,176.2 L153.6,175.4 L153.8,174.7 L154.0,174.1 L154.3,173.6 L154.8,173.0 L155.5,172.2 L159.6,167.6 Z" fill="none" stroke="#3b82f6" stroke-width="3.5" stroke-linecap="round" stroke-linejoin="round"/></svg>