<svg id="Layer_1" data-name="Layer 1" xmlns="http://www.w3.org/2000/svg" viewBox="0 0 963 939">
<style>
                    path, polyline, polygon, line, circle {
                        stroke: #a855f7 !important;
                        stroke-width: 3.5px !important;
                        fill: none !important;
                        stroke-linecap: round !important;
                        stroke-linejoin: round !important;
                        filter: drop-shadow(0px 0px 5px #a855f7) !important;
                    }
                </style>
<title>imsa_laguna_seca</title><path d="M383.023,945.693c11.631,2.282,23.278,2.4,35.12,2.273,58.968-.631,119.023-.28,177.312-6.251,19.374-1.985,38.153-8.38,55.963-16.479,53-24.1,102.3-49.605,153.613-77,6.169-3.293,13.508-9.338,16.846-15.059,3.515-6.023,5.744-14.741,4.569-21.593-1.49-8.68-4.054-17.824-9.708-25-5.386-6.838-13.5-14.3-21.415-17.047-8.45-2.933-21.693-1.932-29.409,2.557-17.029,9.907-28.011,28.335-44.827,40.63-20.492,14.981-42.88,28.628-66.243,38.64-28.793,12.339-59.871,19.3-90.226,25.287-10,1.971-22.068-.717-31.122-4.83-8.458-3.842-18.663-16.148-21.129-25.287-19.615-72.688-29.953-141.843-44.828-216.785-2.428-12.283.211-26.23,4.569-37.5,3.256-8.425,10.381-16.533,18.273-21.594A1467.4,1467.4,0,0,1,638,487.119c18.683-9.2,49.057-17.057,69.668-20.74,72.661-12.986,138.341-21.682,211.861-33.811,14.193-2.342,27.664-14.171,36.832-24.435,6.06-6.783,9-17.134,9.994-26.423.91-8.516,1.986-25.775-5.425-38.072C894.892,234.066,829.786,142.613,757.063,38.206c-3.8-5.454-15.581-11.409-22.271-11.933C707.6,24.145,679.961,24,652.561,24c-13.716,0-34.815.175-47.683,4.546C554.169,45.769,511.813,68.215,461.829,88.78c-29.2,12.014-59.645,21.474-87.942,35.231-21.575,10.488-40.72,27.927-63.1,35.515-29.014,9.838-57.757,8.782-87.086,14.491-5.394,1.049-13.685,6.321-13.7,16.195-.018,8.892,6.657,17.766,6.852,27.275.186,9.054-4.867,23.714-12.563,29.549-17.363,13.164-32.355,21.6-51.966,30.969-18.459,8.817-39.013,11.72-57.105,21.025a123.554,123.554,0,0,0-40.83,34.1c-10.9,14.335-19.509,32.007-20.558,50.006-.705,12.1,4.96,29.315,12.563,39.208,41.888,54.508,88.553,100.45,133.341,153.995,8.13,9.719,16.741,22.618,17.132,34.094.37,10.875-7.775,23.234-14.848,32.959C131.22,713.216,77.383,774.18,26.4,842.556c-8.881,11.912-9.568,22.454-3.14,29.833,5.675,6.516,28.43,5.23,42.543,8.24,112.67,24.029,202.044,42.468,317.22,65.064Z" transform="translate(-11.5 -16.5)"   stroke-linecap="round" stroke-linejoin="round" /></svg>