<svg id="svg3548" xmlns="http://www.w3.org/2000/svg" viewBox="0 0 1273.363 927.362">
<style>
                    path, polyline, polygon, line, circle {
                        stroke: #a855f7 !important;
                        stroke-width: 3.5px !important;
                        fill: none !important;
                        stroke-linecap: round !important;
                        stroke-linejoin: round !important;
                        filter: drop-shadow(0px 0px 5px #a855f7) !important;
                    }
                </style>

<title>imsa_canadian_tire</title><g id="layer1"><path id="path4847" d="M1255.792,646.7c2.684,6.181,13.421,27.613,14.118,33.883.7,6.291,1.206,18.96-.656,24.849-2.425,7.67-3.8,12.61-8.4,19.513-4.969,7.454-11.113,12.623-17.578,18.681-7.791,7.3-18.128,11.973-27.213,17.83-18.132,11.689-37,22.251-55.033,34.1-22.945,15.073-44.8,31.82-67.894,46.658-23.766,15.271-48.1,29.761-72.679,43.667-12.6,7.13-25.4,14.548-38.882,19.441-9.045,3.282-19.169,5.5-28.712,5.085-13.188-.579-26.91-3.741-39.48-8.076a112.93,112.93,0,0,1-29.909-15.852c-10.265-7.6-20.177-16.665-27.816-26.918-11-14.77-27.78-55.528-35.844-71.7" transform="translate(-17.217 -0.84)"   stroke-linecap="round" stroke-linejoin="round" /><path id="path4845" d="M1135.906,831.445c-43.254,27.508-85.634,53.376-128.01,78.961-9.678,5.842-21.23,8.89-32.3,10.767-12.456,2.111-26.784.653-39.181-1.5-17.512-3.035-35.381-7.688-50.248-17.048-17.435-10.978-45-42.6-52.041-62.211-31.608-88.031-44.848-133.6-80.755-227.309C747.1,596.742,726.787,562.7,714.786,550.3c-11.926-12.324-28.579-21.934-44.265-29.012a200.422,200.422,0,0,0-53.837-15.253c-14.486-2.1-29.925-2.424-44.265,0-13.974,2.361-47.833,20.049-58.024,29.909-49.421,47.817-82.01,79.7-130.4,132.2-8.223,8.92-25.991,21.222-37.387,24.525a133.3,133.3,0,0,1-50.546,4.487c-12.835-1.388-25.67-9.552-35.891-17.348-13.307-10.149-22.51-21.741-30.208-36.788-9.848-19.248-21.451-44.932-23.927-66.7-5.1-44.833-4.774-85.858-3.29-131.3,1.588-48.647,5.346-97.811,2.392-145.956-1.034-16.857-7.933-33.352-14.356-49.051-7.934-19.394-16.732-39.239-28.713-56.229A156.4,156.4,0,0,0,124.979,156.7C98.836,138.225,61,117.812,35.551,98.075,16.843,83.566,22.7,53.453,31.663,37.06c5.508-10.073,14.27-24.795,23.03-28.713C67.548,2.6,79.12,14.663,87,21.507c18.124,15.754,36,27.953,57.425,40.078,20.85,11.8,44.3,21.771,67.894,24.526,54.962,6.417,112.458.2,168.687,0,57.426-.2,115.566-2.518,172.575,2.991,80.153,7.774,236.606,19.8,317.934,42.471,114.988,32.06,214.347,79.438,322.719,129.506,22.829,10.547,54.79,32.65,67.295,53.238,11.437,18.829,21.238,43.553,22.731,66.7,1.7,26.3-3.341,55.6-13.16,79.857-10.519,25.988-36.258,45.472-45.162,71.782-6.394,18.891-5.849,44.64,2.991,62.51,12.31,24.886,28,45,43.368,69.987,7.184,11.687,8.619,28.887,5.982,41.873-2.547,12.536-7.127,26.675-17.254,35.527C1223.692,775.173,1178.2,804.549,1135.906,831.445Z" transform="translate(-17.217 -0.84)"   stroke-linecap="round" stroke-linejoin="round" /><path id="path3571" d="M1116.965,812.878c-41.555,26.115-82.269,50.674-122.98,74.964-9.3,5.547-20.395,8.441-31.033,10.223-11.966,2-25.731.62-37.641-1.42-16.823-2.882-33.991-7.3-48.273-16.186-16.75-10.422-43.233-40.447-50-59.063C796.676,737.82,783.957,694.561,749.46,605.59c-6.025-15.539-25.537-47.857-37.066-59.631-11.458-11.7-27.456-20.824-42.526-27.543a194.312,194.312,0,0,0-51.721-14.482c-13.917-1.989-28.75-2.3-42.526,0-13.425,2.242-45.954,19.035-55.744,28.395C472.4,577.727,441.089,608,394.6,657.838c-7.9,8.469-24.969,20.148-35.917,23.284a129.532,129.532,0,0,1-48.56,4.26c-12.331-1.318-24.661-9.069-34.481-16.47-12.784-9.636-21.625-20.641-29.021-34.926-9.461-18.275-20.608-42.659-22.987-63.322-4.9-42.565-4.586-81.514-3.161-124.657,1.526-46.186,5.137-92.861,2.3-138.571-.994-16-7.622-31.663-13.792-46.568-7.622-18.413-16.075-37.253-27.585-53.384a149.364,149.364,0,0,0-35.63-35.211c-25.115-17.536-61.463-36.916-85.914-55.655C41.876,102.844,47.5,74.255,56.114,58.691c5.292-9.563,13.709-23.541,22.125-27.26,12.35-5.458,23.468,6,31.032,12.494,17.413,14.957,34.589,26.538,55.169,38.05C184.471,93.18,207,102.644,229.666,105.26c52.8,6.092,108.04.187,162.059,0,55.169-.192,111.024-2.391,165.794,2.839,77,7.381,227.308,18.794,305.44,40.322C973.428,178.859,1068.883,223.839,1173,271.374c21.932,10.014,52.637,31,64.651,50.544,10.988,17.876,20.4,41.349,21.838,63.322,1.63,24.974-3.21,52.785-12.643,75.816-10.106,24.674-34.833,43.172-43.388,68.15-6.143,17.935-5.619,42.381,2.873,59.347,11.827,23.627,26.9,42.718,41.664,66.445,6.9,11.1,8.281,27.425,5.747,39.754-2.446,11.9-6.846,25.326-16.576,33.729C1201.3,759.453,1157.6,787.343,1116.965,812.878Z" transform="translate(-17.217 -0.84)"   stroke-linecap="round" stroke-linejoin="round" /></g></svg>