<svg id="Layer_1" data-name="Layer 1" xmlns="http://www.w3.org/2000/svg" viewBox="0 0 886.651 734.836">
<style>
                    path, polyline, polygon, line, circle {
                        stroke: #a855f7 !important;
                        stroke-width: 3.5px !important;
                        fill: none !important;
                        stroke-linecap: round !important;
                        stroke-linejoin: round !important;
                        filter: drop-shadow(0px 0px 5px #a855f7) !important;
                    }
                </style><title>imsa_sebring_12h</title><rect x="315.88" y="570.189" width="46" height="7.014"/><path d="M931.99,541.23c-4.05-8.57-11.85-14.29-18.24-20.98q-28.935-28.56-57.88-57.13a69.606,69.606,0,0,1-15.12-21.86q-14.43-33.555-28.88-67.12c-3.01-7.12-6.55-14.16-7.74-21.88-1.7-8.55-.29-17.26,2.15-25.51.64-3.14,1.42-6.25,2.12-9.38,1.37-8.82,1.27-17.76,1.25-26.66-.35-16.27-.39-32.55-.48-48.83-.08-20.39-.39-40.78-.4-61.17-.65-36.57-.62-73.16-1.02-109.74-.13-10.08-1.99-20.96-9.1-28.6-7.47-8.16-19.07-10.57-29.69-10.75-20.32-.24-40.64-.3-60.95-.51-11.42,0-23.72-1-34.08,4.74-7.28,4.17-14.23,8.89-21.54,12.99-11.57,6.26-23.89,11.03-36.26,15.45-11.73,4.14-23.86,7.53-36.3,8.56-14.1.81-27.61-4.66-40.14-10.55-10.13-5.28-20.85-10.81-27.61-20.38-6.49-8.16-12.65-16.59-19.48-24.47C486.54,10.71,478.46,4.6,469,4.55c-6.94-.12-13.18,3.77-17.87,8.59Q396.215,68.61,341.34,124.1c-10.52,10.57-20.65,21.56-32.09,31.16-12.71,10.68-26.95,19.89-42.79,25.14-18.31,6.09-36.67,12.04-55,18.08-16.51,5.55-33.28,10.53-49.13,17.85-7.22,3.4-14.42,7.2-20.19,12.82-16.4,15.93-32.72,31.94-49.13,47.87-4.31,4.07-8.75,8.2-11.44,13.59-7.91,15.1-10.08,32.27-14.61,48.52-1.22,5.38-6.64,7.91-9.88,11.92-6.09,6.63-7.5,17.47-2.11,24.94a30.367,30.367,0,0,0,26,12.99q108.51-.8,217.04-1.22c23.41-.43,46.96.75,70.23-2.56,57.22-7.72,112.25-33.83,152.94-75.03a232.818,232.818,0,0,0,53.06-83c3.37-8.3,5.39-17.52,11.56-24.34a29.671,29.671,0,0,1,20.14-9.92c10.48-.89,20.93,2.76,29.44,8.75,8.38,5.92,16.67,11.98,25.04,17.91a51.593,51.593,0,0,0,20.18,8.68c6.61,1.3,13.38.52,20.06.85,7.97-.08,17.3-.25,23.3,5.93,5.76,6.25,5.16,15.34,5.39,23.23q.795,25.71,1.19,51.44c.36,14.08-.07,28.3,2.97,42.15,8.27,43.06,16.05,86.22,24.14,129.31,2.29,11.48,3.2,23.35,1.3,34.95-2.32,15.58-9.87,30.58-22.02,40.77-12.9,11.02-30.12,15.98-46.91,15.74-99.2.37-198.41,1.06-297.62,1.38,0-.1,0-.224,0-.349a4.652,4.652,0,0,1-.817.243c.331.477.339,1.094-.277,2-.69.09-2.08.26-2.77.34.03.74,2.11,3.26,2.78,3.36.47.92.95,1.86,1.42,2.8l.54-.39c99.57-.66,199.14-.98,298.71-1.58,4.85.02,9.65-.71,14.48-.98l.16-.39c18.02-2.99,35.04-12.72,45.97-27.48,2.29-2.86,3.85-6.23,6.1-9.12a88.932,88.932,0,0,0,8.84-32.57c.083.874.147,1.749.2,2.624a45.651,45.651,0,0,1,1.435-7.333c.042-.165.106-.3.16-.454-.552-5.328-1.325-10.635-2.269-15.9q-12.735-68.355-25.42-136.75c-.59-3.26-1.38-6.5-1.65-9.81-1.26-7.27-1.31-14.68-1.29-22.03-.55-25.64-.87-51.3-2.04-76.91-1.45-4.2-2.87-8.5-5.62-12.06-.26-.36-.77-1.07-1.03-1.42-4.79-5.01-11.47-7.32-18.13-8.52-9.08-.52-18.2.23-27.26-.52-11.24-.64-20.34-7.98-29.07-14.32-10.8-7.39-20.9-16.67-33.95-19.85-13.87-3.95-30.21-1.11-40.36,9.63-8.09,7.87-10.74,19.16-14.77,29.3a226.047,226.047,0,0,1-58.45,86.48c-47.34,43.69-111.71,67.92-176.01,67.69-84.02.35-168.03,1.02-252.04,1.32a21.773,21.773,0,0,1-18.55-9.44,11.455,11.455,0,0,1-1.36-10.43c2.42-7.63,11.76-10.35,13.84-18.19,4.42-14.51,6.35-29.79,12.23-43.85,1.81-4.24,4.01-8.42,7.35-11.66q27.075-26.415,54.17-52.81a52.61,52.61,0,0,1,12.42-8.5c14.06-7.33,29.25-12.06,44.23-17.1,21.45-7.07,42.93-14.07,64.38-21.15,15.73-5.19,30.02-14.03,42.84-24.4,2.06-1.62,3.91-3.53,6.17-4.88,3.62-3.68,7.49-7.13,11.37-10.52,4.84-5.81,10.58-10.78,15.71-16.33,1.32-1.26,2.41-2.87,4.03-3.76a108.872,108.872,0,0,1,8.08-8.42c33-33.57,66.2-66.95,99.25-100.47,4.18-4.62,10.6-8.43,16.98-6.18,10.72,3.62,16.91,13.83,23.72,22.16,6.42,7.57,11.51,16.5,19.69,22.39a136.316,136.316,0,0,0,48.79,22.22,67.917,67.917,0,0,0,25.77-.45,43.88,43.88,0,0,1,6.82-1.3c4.31-1.11,8.55-2.53,12.92-3.38.77-.98,2.26-.93,3.35-1.42,7.86-2.08,15.15-5.83,22.97-8.03a98.435,98.435,0,0,1,12.4-5.57l.21-.47c10-4.73,18.92-11.39,28.56-16.75,5.12-2.64,10.99-3.3,16.67-3.37,24.75-.02,49.49.19,74.24.43,8.91.28,19,2.09,24.8,9.56,5.81,7.67,5.96,17.81,5.97,27.02.15,41.32.73,82.65,1,123.97-.08.39-.22,1.17-.3,1.56a49.187,49.187,0,0,1,.12,9.32c.32,9.76.56,19.55.28,29.32.47,11.92.23,23.86.44,35.79-.07,8.26.39,16.53-.02,24.79a68.253,68.253,0,0,1-1.31,17.23q-1.2,5.115-2.45,10.23c-.77,3.38-1.4,6.79-2.41,10.11.27,5.17.02,10.39,1.07,15.49,1.45,8.77,5.44,16.78,8.88,24.88q14.145,32.85,28.27,65.71a77.034,77.034,0,0,0,16.76,24.26q33.99,33.525,67.97,67.03a32.148,32.148,0,0,1,7.66,11.28,59.8,59.8,0,0,1,4.09,28.05,27.548,27.548,0,0,1-5.2,13.84c-5.14,6.51-10.58,12.78-15.64,19.35-7.01,9.49-9.29,21.36-10.99,32.78q-4.92,29.565-9.85,59.12c-1.19,7.57-4.32,14.99-9.72,20.52a31.839,31.839,0,0,1-22.59,9.94q-160.23.33-320.47.57a34.561,34.561,0,0,1-9.2.03q-144.18.21-288.39.29c-11.99-.12-23.98.24-35.97-.04-10.86-.09-21.5-3.33-31.07-8.36-6-3.13-11.41-7.24-16.94-11.09q-19.71-13.8-39.38-27.62c-6.22-4.15-9.1-11.64-10.03-18.79-.85-7.19-.35-14.75,2.75-21.39,4.41-9.72,9.4-19.18,14-28.82,4.51-10.21,14.79-16.24,24.74-20.21a93.315,93.315,0,0,1,24.141-5.277,17.009,17.009,0,0,1,6.874-2.269,4.66,4.66,0,0,1,1.788-.556c.086-.1.177-.194.272-.286-1.441.053-2.882.063-4.325-.022,21.84-4.5,44.28-4.17,66.47-3.9,20.87-.56,41.79-.26,62.68-.52,25.74-.06,51.48-.33,77.23-.31.008.2.022.484.038.782a4.354,4.354,0,0,1,.752-.4c.021-.426,1.4-1.835,2.9-3.426,1.859-1.962,3.921-4.2,3.893-5.217a4.4,4.4,0,0,1-.753-.338c-.023,0-.047.007-.07.011a4.414,4.414,0,0,1-3.126,2.019,5.824,5.824,0,0,0-.056.6l-2.68.08c0-.253-.007-.588-.012-.95a4.338,4.338,0,0,1-1.747-1.229c-5.458.259-10.924.181-16.381.219-50.99.32-101.99.46-152.98.81-22.4.72-45.01,3.92-66.02,11.99-11.32,4.6-23.01,10.93-29.17,21.97-4.63,8.96-8.89,18.11-13.44,27.1a86.474,86.474,0,0,0-5.36,12.85c-.58,6.25-1.06,12.58-.15,18.83,1.45,8.7,5.28,17.52,12.71,22.72,12.5,8.85,25.07,17.6,37.6,26.43,7.21,5.03,14.26,10.37,22.14,14.33a118.554,118.554,0,0,0,20.98,7.33c2.15.2,4.31.43,6.47.66,25.74.46,51.49.02,77.23.11q283.5-.375,567-.79c9.07-.24,18.46.97,27.2-2.1a41.31,41.31,0,0,0,24.42-22.79c2.99-6.68,3.78-14.02,5.01-21.15,2.77-16.5,5.45-33.01,8.29-49.49,1.33-8.13,2.47-16.46,6.07-23.97,2.69-5.93,7.32-10.61,11.31-15.67,4.95-6.27,11.01-12.14,13.11-20.12C940.21,569.31,937.92,554.19,931.99,541.23Z" transform="translate(-51.62 -4.547)"/></svg>