<svg id="Layer_1" data-name="Layer 1" xmlns="http://www.w3.org/2000/svg" viewBox="0 0 1254.271 623.331">
<style>
                    path, polyline, polygon, line, circle {
                        stroke: #a855f7 !important;
                        stroke-width: 3.5px !important;
                        fill: none !important;
                        stroke-linecap: round !important;
                        stroke-linejoin: round !important;
                        filter: drop-shadow(0px 0px 5px #a855f7) !important;
                    }
                </style><title>imsa_daytona_24h</title><path d="M332,562.572a4.445,4.445,0,0,1-1.142.544l3.358,1.177a4.3,4.3,0,0,1-.507-.6A4.346,4.346,0,0,1,332,562.572Z" transform="translate(-14.723 -39.707)"/><path d="M1265.8,236.9c-3.329-17.929-9.972-35.47-17.558-51.755-8.24-17.688-17.98-35.579-30.329-51.065-12.081-15.149-26.632-29.4-42.747-40.459a295.218,295.218,0,0,0-65.508-33.885c-22.607-8.2-46.775-11.594-69.9-15.3a256.974,256.974,0,0,0-37.226-2.719c-1.761-.023-3.531-.024-5.282-.035-58.062-.357-301.74,2.718-410.546.73-19.4-.359-32.045,1.731-41.2,5.374s-14.605,8.952-18.9,13.638-7.485,8.542-13.221,11.494-14.4,5.173-29.664,5.092c-20.644-.115-30.948-2.682-37.553-6.009s-10.229-7.965-17.4-13.271S411.3,48.233,392.5,44.717s-46.315-5.545-89-4.886c-19.814.306-39.886.572-59.867,2.763-17.754,1.946-36.427,3.857-53.973,9.814C167.015,60.1,144.968,70.931,124.485,83.05c-16.1,9.529-32.715,20.6-45.49,35-16.249,18.31-30.14,40-40.71,62.059-9.55,19.928-15.557,42-19.457,63.483-3.62,19.948-5.257,41.126-3.215,61.471,2.12,21.12,8.344,42.133,15.533,61.771,6.573,17.955,15,36.089,26.119,51.932,11.472,16.348,25.117,32.938,41.922,44.815,27.653,19.544,58.885,35.16,90,48.642C299.8,560.147,411.749,615.1,528.365,647.732c40.679,11.383,69.868,17.529,111.678,14.566,15.082-1.069,34.387-.269,50.442-2.149a421.058,421.058,0,0,0,66.289-13.609c27.554-7.871,53.807-19.127,80.335-28.211a234.818,234.818,0,0,0,60.433-32.476c22.787-17.21,43.59-40.938,45.175-70.859.594-11.208-5.279-20.77-13.788-28.125s-19.777-13.01-31.646-17.526a262.15,262.15,0,0,0-61.2-14.462c-12.593-1.177-21.362-6.566-31.457-12.425s-21.538-12.091-37.8-12.674c-44.075-1.563-88.825,1.731-120.947-1.1-16.06-1.415-28.849-4.5-36.5-9.578s-10.943-11.336-9.377-23.141c.469-3.536,2.884-6.758,8.5-10.047s14.134-6.167,24.837-8.429c21.406-4.524,51.466-6.7,85.645-7.481,68.357-1.562,153.318,2.232,221.833,1.867,5.757-.036,10.442-3.229,16.974-7.714s14.3-10.663,23.037-17.945c17.467-14.565,38.715-33.5,60.361-51.359s43.749-34.664,62.358-44.777c9.3-5.057,17.724-8.405,24.489-9.532s11.457-.195,14.939,2.708c7.154,5.964,9.815,11.905,9.89,18.777s-2.855,15.009-8.461,23.989c-11.214,17.96-32.8,38.728-56.847,59.791s-50.525,42.545-71.739,62.866-37.6,39.1-40.285,57.475c-2.111,14.441,4.615,26.3,15.427,34.01s25.521,12.131,41.316,14.478c31.591,4.7,67.205,1.311,85.585-7.575,19.163-9.266,38.9-19.226,56-32.648,17.953-14.091,33.848-31.425,47.956-48.972,8.974-11.161,14.91-24.244,20.706-36.445,7.4-15.573,15.127-31.731,19.881-48.812,4.1-14.739,5.77-30.284,6.261-45.33C1269.29,275.852,1269.347,256.013,1265.8,236.9Zm-7.124,57.657c-.473,14.523-2.12,29.3-5.922,42.962-4.439,15.95-11.849,31.627-19.248,47.2-5.836,12.285-11.556,24.632-19.469,34.474-13.823,17.192-29.251,33.956-46.323,47.355-16.041,12.591-35.14,22.293-54.188,31.5-14.381,6.953-50.1,11.128-79.781,6.717-14.84-2.206-28.257-6.529-36.982-12.747s-12.947-13.465-11.347-24.409c1.92-13.133,16.584-31.856,37.332-51.732s47.137-41.292,71.387-62.531,46.376-42.166,58.776-62.026c6.2-9.93,10.074-19.74,9.969-29.422s-4.6-18.925-13.488-26.337c-6.2-5.166-14.449-6.295-22.982-4.872s-17.764,5.243-27.642,10.611c-19.756,10.736-42.074,27.813-63.915,45.834s-43.167,37-60.425,51.388c-8.628,7.2-16.237,13.256-22.273,17.4a45.5,45.5,0,0,1-11.4,5.943c-68.1.364-153.077-3.414-221.99-1.839-34.457.787-64.878,2.875-87.493,7.654-11.308,2.39-20.689,5.419-27.836,9.607S591.079,387.3,590.1,394.66c-1.929,14.547,3.554,26,13.769,32.782s24.359,9.713,41.146,11.192c32.428,2.856,107.941.892,116.589,2.062,1.508.2,3,.475,4.484.779a5.472,5.472,0,0,1,1.172-.138,4.628,4.628,0,0,1,3.4-1.337,5.171,5.171,0,0,1,1.8.31c10.75,1.51,18.694,5.878,27.135,10.776,9.933,5.766,20.53,12.372,35.55,13.775,10.18.952,36.126,5.3,58.556,13.836,11.215,4.267,21.57,9.607,28.657,15.733s10.788,12.528,10.39,20.04C931.406,540,913.1,561.561,891.516,577.86s-46.166,27.082-57.647,31.013c-27,9.246-53.1,20.429-79.831,28.066a411.423,411.423,0,0,1-64.717,13.273c-14.769,1.728-33.976.963-49.972,2.1-40.532,2.873-67.889-2.9-108.281-14.2-68.243-19.1-135.146-46.036-201.368-74.793-.122.008-.241.018-.367.018a4.56,4.56,0,0,1-3.844-1.847c-1.039-.453-2.078-.9-3.116-1.354l2.893,1.017a5.22,5.22,0,0,1-.63-1.6q-12.453-4.545-24.811-9.312c-36.339-14.106-71.215-31.812-106.665-47.171-30.767-13.331-61.376-28.685-88.179-47.629-15.287-10.8-28.394-26.526-39.543-42.412-10.419-14.846-18.523-32.219-24.893-49.62-7.035-19.217-12.977-39.484-14.968-59.32-1.92-19.132-.4-39.491,3.086-58.723,3.79-20.883,9.632-42.134,18.645-60.939,10.2-21.278,23.629-42.23,39.152-59.722,11.6-13.07,27.341-23.732,43.1-33.055C149.576,79.8,171.088,69.3,192.9,61.9c16.1-5.467,34.018-7.386,51.8-9.336,19.343-2.12,39.133-2.416,58.958-2.722,42.3-.654,69.261,1.394,87.005,4.712s26.065,7.722,32.15,12.223,10.349,9.87,18.848,14.151,20.546,6.969,42,7.086c16.249.089,26.686-2.289,34.286-6.2s11.963-9.215,16.024-13.645,7.794-8.152,15.212-11.1,18.744-4.995,37.343-4.655c109.266,2,353.136-1.081,410.671-.727q5.2.032,10.374.159a228.963,228.963,0,0,1,30.605,2.464c23.247,3.724,46.823,7.1,68.1,14.817a285.594,285.594,0,0,1,63.253,32.737c15.121,10.378,29.031,23.991,40.576,38.467,11.606,14.553,21.045,31.749,29.1,49.035,7.364,15.808,13.666,32.627,16.772,49.36C1259.286,256.588,1259.287,275.762,1258.674,294.554Z" transform="translate(-14.723 -39.707)"/></svg>