<svg id="Layer_1" data-name="Layer 1" xmlns="http://www.w3.org/2000/svg" viewBox="0 0 1395.531 958.284">
<style>
                    path, polyline, polygon, line, circle {
                        stroke: #a855f7 !important;
                        stroke-width: 3.5px !important;
                        fill: none !important;
                        stroke-linecap: round !important;
                        stroke-linejoin: round !important;
                        filter: drop-shadow(0px 0px 5px #a855f7) !important;
                    }
                </style><title>imsa_virginia</title><path d="M439.474,348.652c-29.213-9.957-38.639-12.594-55.986-28.993-33.7-31.855-54.65-79.477-87.335-112.458-11.182-11.284-28.59-16.555-44.265-20.338C209.739,176.689,164.9,175.7,122.681,165.328c-27.573-6.775-57.443-15.236-75.969-31.7-10.187-9.054-13.073-30.832-10.17-44.863,1.883-9.1,10.443-22.352,20.339-22.731C171.805,61.624,293.15,68.591,411,74.4c60.005,2.96,112.195,9.41,170.781,16.45,21.649,2.6,27.624-19.193,48.154-17.646,16.6,1.252,21.731,27.137,50.247,31.106,22.195,3.089,51.9,7.257,72.954,10.243,79.619,11.293,166.99,24.092,246.475,36.415,9.61,1.49,19.129-.716,27.608-3.059,10.413-2.876,24.2-8.554,35.8-10.1,8.65-1.154,21.327-4.533,26.321,1.2,17.54,20.123,14.156,46.135,26.319,67,7.132,12.231,26.888,17.436,41.873,21.535,31.673,8.663,65.828,16.749,98.1,16.749,17.176,0,33.2-12.548,50.247-16.749,10.464-2.578,22.675-7.077,32.3-3.589,17.889,6.481,39.116,17.914,50.247,33.5,14.79,20.706,28.55,48.986,27.517,75.371-4,102.017-7.555,211.728-15.553,317.036-1.573,20.708-5.312,41.918-13.16,61.015-16.079,39.126-36.652,77.2-58.622,113.654-33.063,54.865-69.237,108.384-106.476,160.313-6.229,8.686-14.8,17.882-23.927,21.535-6.821,2.728-17.938,1.816-23.928-2.393-8.765-6.159-17.38-18.064-20.338-28.713-3.024-10.886-1.449-24.888,2.393-35.891a113.6,113.6,0,0,1,23.927-39.48c18.267-19.281,43.041-32.753,62.211-51.443,12.733-12.416,27.025-25.871,33.5-41.873,7.884-19.49,11.108-43.859,9.571-64.6-.856-11.557-6.484-27.261-16.749-32.3-34.4-16.892-78.478-27.308-117.244-33.5-8.689-1.387-20.234,3.923-25.123,10.768-9.069,12.7-6.024,37.335-16.749,47.854-10.012,9.819-30.013,11.6-45.462,13.16-16.055,1.626-35.837,3.511-49.051-3.589-13.5-7.256-15.044-27.176-25.722-40.078-8.464-10.227-21.112-21.4-31.105-29.909-8.75-7.446-15.712-10.6-24.526-17.946-7.935-6.612-15.265-20.663-23.927-26.32-30.419-19.865-68.455-29.776-99.3-49.649-37.839-24.38-89.166-62.385-116.514-85.08-29.455-24.441-53.194-44.075-70.418-54.3s-41.442-13.053-59.818-20.637c-19.309-7.969-36.939-12.978-54.136-24.227-14.506-9.488-22.811-25.315-37.536-33.947C457.981,353.963,456.225,354.362,439.474,348.652Z" transform="translate(-27.973 -57.14)"   stroke-linecap="round" stroke-linejoin="round" /></svg>