<svg id="svg2816" xmlns="http://www.w3.org/2000/svg" viewBox="0 0 1275.732 902.391"><title>imsa_road_america</title><g id="use3646"><path id="path2858" d="M600.531,942.377c-65.344,0-83.084,1.988-124.628,1.569-12.766-.129-25.517-.935-38.28-1.255-18.092-.454-36.186-.88-54.283-.941-19.874-.068-39.748.255-59.618.627-31.069.582-62.118,2.179-93.191,2.51-18.617.2-37.236-.069-55.852-.314-10.147-.133-20.319.156-30.436-.627-5.472-.423-11.039-.691-16.317-2.2a71.35,71.35,0,0,1-15.375-6.9c-5.881-3.334-11.792-6.887-16.63-11.609a64.253,64.253,0,0,1-11.3-15.375,98.171,98.171,0,0,1-8.785-23.22c-4.059-16.369-4.063-33.485-6.276-50.2-3.173-23.975-6.1-47.994-10.041-71.854-1.545-9.35-3.894-18.559-5.334-27.926C52,720.4,50.122,706.065,49.169,691.67c-2.592-39.141-5.7-78.625-1.883-117.665.584-5.962,1.426-12.058,3.765-17.572A37.009,37.009,0,0,1,58,546.092a46.888,46.888,0,0,1,12.865-10.354c5.786-2.962,12.413-4.088,18.85-4.986a85.186,85.186,0,0,1,16.944-.314c45.236,2.78,89.841,12.084,134.61,19.141,34.391,5.421,68.854,9.752,102.918,16.63,29.013,5.858,58.079,11.111,86.288,19.768,18.28,5.609,35.553,14.094,53.475,20.758,33.295,12.379,66.935,23.02,100.408,34.515,35.618,12.232,71.545,23.6,106.865,36.663,24.172,8.943,47.647,19.707,71.854,28.553,15.744,5.754,31.792,9.845,47.694,14.748,33.587,10.355,66.761,22.179,100.788,30.98,17.758,4.593,35.613,9.319,53.841,11.362a127.44,127.44,0,0,0,24.97.38c6.333-.541,13.166-.467,18.742-3.518,5.214-2.851,10.159-7.406,12.22-12.98,2.94-7.949.179-16.934,0-25.4-1.3-61.608-.924-123.465-7.827-184.7-.453-4.016-.734-8.156-2.2-11.923a35.723,35.723,0,0,0-5.334-9.727c-2.588-3.093-5.591-6.833-9.414-8.786a41.955,41.955,0,0,0-14.747-4.079c-5.427-.537-10.878,0-16.316,0-18.442-.01-36.887-.355-55.326-.049-18.417.306-36.807,1.69-55.225,1.883-7.943.083-15.965.81-23.829-.314-6.578-.941-14.116-2.18-20.4-5.334a69.632,69.632,0,0,1-17.257-12.865c-5.719-5.719-10.575-12.878-15.689-19.454-10.192-13.1-20.825-26.477-31.064-39.849-18.219-23.8-36.491-48.157-55.224-71.855-30.041-38-56.756-79.184-91.671-112.76-1.965-1.89-6.628-7.875-11.3-8.472-2.562-.328-8.234-2.12-11.924-.628-4.817,1.948-10.712,4.474-15.375,7.844-17.158,12.4-33.066,27.657-49.908,41.1-10.083,8.051-19.558,17.034-30.612,23.691-6.3,3.791-13.213,6.486-20.082,9.1a126.459,126.459,0,0,1-14.836,4.618,130.943,130.943,0,0,1-19.815,3.587,68.671,68.671,0,0,1-13.132-.089,119.935,119.935,0,0,1-17.05-3.552,148.521,148.521,0,0,1-14.393-4.425c-7.305-2.695-14.666-5.432-21.434-9.281a85.485,85.485,0,0,1-16.944-12.237c-5.016-4.8-10.245-10.257-14.12-16.316a100.97,100.97,0,0,1-9.414-18.2c-2.6-6.86-5.378-13.993-6.589-21.337a155.57,155.57,0,0,1-1.882-25.416c.01-9.148-.018-18.461,2.081-27.365,2.161-9.165,6.161-17.89,10.668-26.158a107.22,107.22,0,0,1,15.822-22.592c5.427-5.73,11.979-10.361,18.627-14.615A144.7,144.7,0,0,1,384.563,108c13.657-5.2,28.748-8.484,42.43-11.019,48.889-9.056,95.913-16.954,143.754-26.055,27.869-5.3,55.42-12.358,83.465-16.63,9.94-1.514,19.967-2.482,30-3.181,8.766-.611,17.578-1.462,26.346-.885,6.348.419,12.858.934,18.827,3.138,17.9,6.609,33.873,18.311,49.444,29.544,13.555,9.778,25.474,21.65,37.985,32.734,17.789,15.76,35.521,31.6,52.714,48.007,22.685,21.65,43.7,45.013,66.52,66.521,11.921,11.235,24.254,22.533,37.34,32.632,13.12,10.127,27.534,19.062,41.732,27.926,25.914,16.18,52.229,31.781,79.237,46.059,14.144,7.478,28.539,14.539,43.3,20.709,16.514,6.9,33.478,12.721,50.518,18.2,13.869,4.459,28.028,7.957,42.046,11.924,17.777,5.03,36.053,8.546,53.341,15.061,7.267,2.738,15.043,5.087,21.023,10.041a36.716,36.716,0,0,1,10.355,14.12,32.823,32.823,0,0,1,2.2,14.747c-1.034,13.957-7.682,26.93-12.237,40.163-5.215,15.153-11.2,30.035-17.257,44.87-4.782,11.71-8.119,24.256-15.062,34.829-7.716,11.753-19.234,20.51-28.867,30.75-8.568,9.108-18.287,17.25-25.73,27.3a105.391,105.391,0,0,0-11.3,19.768,98.293,98.293,0,0,0-6.9,20.709c-1.13,5.656-1,11.5-1.255,17.257-.409,9.455-1.526,18.993-.395,28.388,1.639,13.624,5.806,26.751,9.727,39.85,5.889,19.678,15.056,38.2,20.081,58.048,2.992,11.817,3.891,24.012,5.335,36.085,1.484,12.41,2.911,24.857,2.824,37.339-.051,7.141-1.434,14.257-2.511,21.337-.559,3.676-.472,7.6-2.048,10.966-4.435,9.476-12.085,17.348-20,24.192-4.063,3.515-8.912,5.735-13.773,7.778a94.627,94.627,0,0,1-24.143,6.39c-14.667,1.962-29.6-.205-44.392-.28-52.434-.265-104.867-.558-157.3-.595-32.286-.021-64.573.526-96.858.233-74.289-.676-182.136-4.59-222.831-4.59Z" transform="translate(-43.5 -48.037)" fill="none" stroke="#a855f7" stroke-width="4"/></g><path id="path2858-2" data-name="path2858" d="M600.531,942.377c-65.344,0-83.084,1.988-124.628,1.569-12.766-.129-25.517-.935-38.28-1.255-18.092-.454-36.186-.88-54.283-.941-19.874-.068-39.748.255-59.618.627-31.069.582-62.118,2.179-93.191,2.51-18.617.2-37.236-.069-55.852-.314-10.147-.133-20.319.156-30.436-.627-5.472-.423-11.039-.691-16.317-2.2a71.35,71.35,0,0,1-15.375-6.9c-5.881-3.334-11.792-6.887-16.63-11.609a64.253,64.253,0,0,1-11.3-15.375,98.171,98.171,0,0,1-8.785-23.22c-4.059-16.369-4.063-33.485-6.276-50.2-3.173-23.975-6.1-47.994-10.041-71.854-1.545-9.35-3.894-18.559-5.334-27.926C52,720.4,50.122,706.065,49.169,691.67c-2.592-39.141-5.7-78.625-1.883-117.665.584-5.962,1.426-12.058,3.765-17.572A37.009,37.009,0,0,1,58,546.092a46.888,46.888,0,0,1,12.865-10.354c5.786-2.962,12.413-4.088,18.85-4.986a85.186,85.186,0,0,1,16.944-.314c45.236,2.78,89.841,12.084,134.61,19.141,34.391,5.421,68.854,9.752,102.918,16.63,29.013,5.858,58.079,11.111,86.288,19.768,18.28,5.609,35.553,14.094,53.475,20.758,33.295,12.379,66.935,23.02,100.408,34.515,35.618,12.232,71.545,23.6,106.865,36.663,24.172,8.943,47.647,19.707,71.854,28.553,15.744,5.754,31.792,9.845,47.694,14.748,33.587,10.355,66.761,22.179,100.788,30.98,17.758,4.593,35.613,9.319,53.841,11.362a127.44,127.44,0,0,0,24.97.38c6.333-.541,13.166-.467,18.742-3.518,5.214-2.851,10.159-7.406,12.22-12.98,2.94-7.949.179-16.934,0-25.4-1.3-61.608-.924-123.465-7.827-184.7-.453-4.016-.734-8.156-2.2-11.923a35.723,35.723,0,0,0-5.334-9.727c-2.588-3.093-5.591-6.833-9.414-8.786a41.955,41.955,0,0,0-14.747-4.079c-5.427-.537-10.878,0-16.316,0-18.442-.01-36.887-.355-55.326-.049-18.417.306-36.807,1.69-55.225,1.883-7.943.083-15.965.81-23.829-.314-6.578-.941-14.116-2.18-20.4-5.334a69.632,69.632,0,0,1-17.257-12.865c-5.719-5.719-10.575-12.878-15.689-19.454-10.192-13.1-20.825-26.477-31.064-39.849-18.219-23.8-36.491-48.157-55.224-71.855-30.041-38-56.756-79.184-91.671-112.76-1.965-1.89-6.628-7.875-11.3-8.472-2.562-.328-8.234-2.12-11.924-.628-4.817,1.948-10.712,4.474-15.375,7.844-17.158,12.4-33.066,27.657-49.908,41.1-10.083,8.051-19.558,17.034-30.612,23.691-6.3,3.791-13.213,6.486-20.082,9.1a126.459,126.459,0,0,1-14.836,4.618,130.943,130.943,0,0,1-19.815,3.587,68.671,68.671,0,0,1-13.132-.089,119.935,119.935,0,0,1-17.05-3.552,148.521,148.521,0,0,1-14.393-4.425c-7.305-2.695-14.666-5.432-21.434-9.281a85.485,85.485,0,0,1-16.944-12.237c-5.016-4.8-10.245-10.257-14.12-16.316a100.97,100.97,0,0,1-9.414-18.2c-2.6-6.86-5.378-13.993-6.589-21.337a155.57,155.57,0,0,1-1.882-25.416c.01-9.148-.018-18.461,2.081-27.365,2.161-9.165,6.161-17.89,10.668-26.158a107.22,107.22,0,0,1,15.822-22.592c5.427-5.73,11.979-10.361,18.627-14.615A144.7,144.7,0,0,1,384.563,108c13.657-5.2,28.748-8.484,42.43-11.019,48.889-9.056,95.913-16.954,143.754-26.055,27.869-5.3,55.42-12.358,83.465-16.63,9.94-1.514,19.967-2.482,30-3.181,8.766-.611,17.578-1.462,26.346-.885,6.348.419,12.858.934,18.827,3.138,17.9,6.609,33.873,18.311,49.444,29.544,13.555,9.778,25.474,21.65,37.985,32.734,17.789,15.76,35.521,31.6,52.714,48.007,22.685,21.65,43.7,45.013,66.52,66.521,11.921,11.235,24.254,22.533,37.34,32.632,13.12,10.127,27.534,19.062,41.732,27.926,25.914,16.18,52.229,31.781,79.237,46.059,14.144,7.478,28.539,14.539,43.3,20.709,16.514,6.9,33.478,12.721,50.518,18.2,13.869,4.459,28.028,7.957,42.046,11.924,17.777,5.03,36.053,8.546,53.341,15.061,7.267,2.738,15.043,5.087,21.023,10.041a36.716,36.716,0,0,1,10.355,14.12,32.823,32.823,0,0,1,2.2,14.747c-1.034,13.957-7.682,26.93-12.237,40.163-5.215,15.153-11.2,30.035-17.257,44.87-4.782,11.71-8.119,24.256-15.062,34.829-7.716,11.753-19.234,20.51-28.867,30.75-8.568,9.108-18.287,17.25-25.73,27.3a105.391,105.391,0,0,0-11.3,19.768,98.293,98.293,0,0,0-6.9,20.709c-1.13,5.656-1,11.5-1.255,17.257-.409,9.455-1.526,18.993-.395,28.388,1.639,13.624,5.806,26.751,9.727,39.85,5.889,19.678,15.056,38.2,20.081,58.048,2.992,11.817,3.891,24.012,5.335,36.085,1.484,12.41,2.911,24.857,2.824,37.339-.051,7.141-1.434,14.257-2.511,21.337-.559,3.676-.472,7.6-2.048,10.966-4.435,9.476-12.085,17.348-20,24.192-4.063,3.515-8.912,5.735-13.773,7.778a94.627,94.627,0,0,1-24.143,6.39c-14.667,1.962-29.6-.205-44.392-.28-52.434-.265-104.867-.558-157.3-.595-32.286-.021-64.573.526-96.858.233-74.289-.676-182.136-4.59-222.831-4.59Z" transform="translate(-43.5 -48.037)" fill="none" stroke="#a855f7" stroke-miterlimit="10" stroke-width="4"/><g id="use3644"><path id="path2858-3" data-name="path2858" d="M600.531,942.377c-65.344,0-83.084,1.988-124.628,1.569-12.766-.129-25.517-.935-38.28-1.255-18.092-.454-36.186-.88-54.283-.941-19.874-.068-39.748.255-59.618.627-31.069.582-62.118,2.179-93.191,2.51-18.617.2-37.236-.069-55.852-.314-10.147-.133-20.319.156-30.436-.627-5.472-.423-11.039-.691-16.317-2.2a71.35,71.35,0,0,1-15.375-6.9c-5.881-3.334-11.792-6.887-16.63-11.609a64.253,64.253,0,0,1-11.3-15.375,98.171,98.171,0,0,1-8.785-23.22c-4.059-16.369-4.063-33.485-6.276-50.2-3.173-23.975-6.1-47.994-10.041-71.854-1.545-9.35-3.894-18.559-5.334-27.926C52,720.4,50.122,706.065,49.169,691.67c-2.592-39.141-5.7-78.625-1.883-117.665.584-5.962,1.426-12.058,3.765-17.572A37.009,37.009,0,0,1,58,546.092a46.888,46.888,0,0,1,12.865-10.354c5.786-2.962,12.413-4.088,18.85-4.986a85.186,85.186,0,0,1,16.944-.314c45.236,2.78,89.841,12.084,134.61,19.141,34.391,5.421,68.854,9.752,102.918,16.63,29.013,5.858,58.079,11.111,86.288,19.768,18.28,5.609,35.553,14.094,53.475,20.758,33.295,12.379,66.935,23.02,100.408,34.515,35.618,12.232,71.545,23.6,106.865,36.663,24.172,8.943,47.647,19.707,71.854,28.553,15.744,5.754,31.792,9.845,47.694,14.748,33.587,10.355,66.761,22.179,100.788,30.98,17.758,4.593,35.613,9.319,53.841,11.362a127.44,127.44,0,0,0,24.97.38c6.333-.541,13.166-.467,18.742-3.518,5.214-2.851,10.159-7.406,12.22-12.98,2.94-7.949.179-16.934,0-25.4-1.3-61.608-.924-123.465-7.827-184.7-.453-4.016-.734-8.156-2.2-11.923a35.723,35.723,0,0,0-5.334-9.727c-2.588-3.093-5.591-6.833-9.414-8.786a41.955,41.955,0,0,0-14.747-4.079c-5.427-.537-10.878,0-16.316,0-18.442-.01-36.887-.355-55.326-.049-18.417.306-36.807,1.69-55.225,1.883-7.943.083-15.965.81-23.829-.314-6.578-.941-14.116-2.18-20.4-5.334a69.632,69.632,0,0,1-17.257-12.865c-5.719-5.719-10.575-12.878-15.689-19.454-10.192-13.1-20.825-26.477-31.064-39.849-18.219-23.8-36.491-48.157-55.224-71.855-30.041-38-56.756-79.184-91.671-112.76-1.965-1.89-6.628-7.875-11.3-8.472-2.562-.328-8.234-2.12-11.924-.628-4.817,1.948-10.712,4.474-15.375,7.844-17.158,12.4-33.066,27.657-49.908,41.1-10.083,8.051-19.558,17.034-30.612,23.691-6.3,3.791-13.213,6.486-20.082,9.1a126.459,126.459,0,0,1-14.836,4.618,130.943,130.943,0,0,1-19.815,3.587,68.671,68.671,0,0,1-13.132-.089,119.935,119.935,0,0,1-17.05-3.552,148.521,148.521,0,0,1-14.393-4.425c-7.305-2.695-14.666-5.432-21.434-9.281a85.485,85.485,0,0,1-16.944-12.237c-5.016-4.8-10.245-10.257-14.12-16.316a100.97,100.97,0,0,1-9.414-18.2c-2.6-6.86-5.378-13.993-6.589-21.337a155.57,155.57,0,0,1-1.882-25.416c.01-9.148-.018-18.461,2.081-27.365,2.161-9.165,6.161-17.89,10.668-26.158a107.22,107.22,0,0,1,15.822-22.592c5.427-5.73,11.979-10.361,18.627-14.615A144.7,144.7,0,0,1,384.563,108c13.657-5.2,28.748-8.484,42.43-11.019,48.889-9.056,95.913-16.954,143.754-26.055,27.869-5.3,55.42-12.358,83.465-16.63,9.94-1.514,19.967-2.482,30-3.181,8.766-.611,17.578-1.462,26.346-.885,6.348.419,12.858.934,18.827,3.138,17.9,6.609,33.873,18.311,49.444,29.544,13.555,9.778,25.474,21.65,37.985,32.734,17.789,15.76,35.521,31.6,52.714,48.007,22.685,21.65,43.7,45.013,66.52,66.521,11.921,11.235,24.254,22.533,37.34,32.632,13.12,10.127,27.534,19.062,41.732,27.926,25.914,16.18,52.229,31.781,79.237,46.059,14.144,7.478,28.539,14.539,43.3,20.709,16.514,6.9,33.478,12.721,50.518,18.2,13.869,4.459,28.028,7.957,42.046,11.924,17.777,5.03,36.053,8.546,53.341,15.061,7.267,2.738,15.043,5.087,21.023,10.041a36.716,36.716,0,0,1,10.355,14.12,32.823,32.823,0,0,1,2.2,14.747c-1.034,13.957-7.682,26.93-12.237,40.163-5.215,15.153-11.2,30.035-17.257,44.87-4.782,11.71-8.119,24.256-15.062,34.829-7.716,11.753-19.234,20.51-28.867,30.75-8.568,9.108-18.287,17.25-25.73,27.3a105.391,105.391,0,0,0-11.3,19.768,98.293,98.293,0,0,0-6.9,20.709c-1.13,5.656-1,11.5-1.255,17.257-.409,9.455-1.526,18.993-.395,28.388,1.639,13.624,5.806,26.751,9.727,39.85,5.889,19.678,15.056,38.2,20.081,58.048,2.992,11.817,3.891,24.012,5.335,36.085,1.484,12.41,2.911,24.857,2.824,37.339-.051,7.141-1.434,14.257-2.511,21.337-.559,3.676-.472,7.6-2.048,10.966-4.435,9.476-12.085,17.348-20,24.192-4.063,3.515-8.912,5.735-13.773,7.778a94.627,94.627,0,0,1-24.143,6.39c-14.667,1.962-29.6-.205-44.392-.28-52.434-.265-104.867-.558-157.3-.595-32.286-.021-64.573.526-96.858.233-74.289-.676-182.136-4.59-222.831-4.59Z" transform="translate(-43.5 -48.037)" fill="none" stroke="#a855f7" stroke-width="4"/></g><g id="layer1"><g id="g4801" style="isolation:isolate"><polygon id="rect4262" points="416.328 951.571 416.328 951.571 416.328 951.571 416.328 951.571" fill="none" stroke="#a855f7" stroke-miterlimit="10" stroke-width="4"/></g><g id="text4748" style="isolation:isolate"><text transform="translate(1209.911 295.366)" font-size="12" fill="none" stroke="#a855f7" stroke-miterlimit="10" stroke-width="4" font-family="ArialMT, Arial" style="isolation:isolate"> </text></g></g></svg>