<svg id="Layer_1" data-name="Layer 1" xmlns="http://www.w3.org/2000/svg" viewBox="0 0 1387.049 897.43">
<style>
                    path, polyline, polygon, line, circle {
                        stroke: #a855f7 !important;
                        stroke-width: 3.5px !important;
                        fill: none !important;
                        stroke-linecap: round !important;
                        stroke-linejoin: round !important;
                        filter: drop-shadow(0px 0px 5px #a855f7) !important;
                    }
                </style>
<title>imsa_detroit</title><path d="M1212.807,197.025c-5.739,10.466-17.507,33.607-27.163,48.169-12.508,18.865-26.1,36.261-45.455,47.241-34.08,19.328-72.959,31.4-110.648,45.487-14.6,5.458-41.428,11.343-31.558,30.463l97.176,188.243c7.134,13.819,18.064,18.945,33.967,9.829,53.973-30.939,106.236-65.258,159.12-98.244,48.97-30.546,97.363-62.433,146.019-93.146,12.329-7.782,21.286-6.6,27.937,3.978,13.776,21.9,20.809,44.138,31.867,68.66,8.531,18.918-22.8,32.918-53.549,47.636-131,62.7-311.806,130.165-417.876,178.386-17.661,8.028-11.547-9.263-31.866-3.286-20.945,6.162-6.741,20.2-22.668,25.625C910.944,715.549,793.046,762.5,793.046,762.5c-5.654,2.145-11.609,2.928-17.187,4.006-7.174,1.387-16.014-.551-22.552-3.909-8.1-4.159-13.322-16.556-21.35-18.643-7.007-1.822-16.5,3.062-23.755,6.916-34.046,18.1-65.177,42.66-100.132,58.936-36.51,17-75.805,28.466-114.264,40.895-20.778,6.715-42.84,9.545-63.447,16.539a153.482,153.482,0,0,0-35.783,17.139c-28.234,18.847-53.47,43.1-81.79,61.342-12.028,7.748-17.278-3.027-18.033-8.057a117.3,117.3,0,0,1-1.039-15.08c-.15-7.318,7.713-15.68,4.242-21.921-13.594-24.443-24.036-50.119-39.951-71.417-7.195-9.629-27.564-12.912-38.537-7.425-16.126,8.064-33.348,19.21-48.791,28.638-17.153,10.472-22.222,11.782-29.7-2.121-7.541-14.022-14.644-28.275-22.473-42.139-2.278-4.034-.88-10.936,4.07-13.9,54.775-32.762,111.758-68.442,168.259-101.572,30.4-17.823,62.7-32.295,93.216-49.915,8.225-4.749,8.113-11.61,3.239-20.053-9.894-17.137-19.689-34.33-29.583-51.466-5.053-8.752.366-15.375,10.8-21.453C412.8,522.042,456.87,495.87,501.06,469.9c90.934-53.436,181.217-107.991,272.559-160.728,13.387-7.729,15.484-12.649,8.088-26.809-11.011-21.084-21.553-42.458-32.5-64.351-7.411-14.817,12.093-21.343,22.6-27.362,37.9-21.7,75.029-45.18,113.75-65,10.446-5.347,22.257-8.2,33.75-10.5a176.814,176.814,0,0,1,36.25-3.5c19.9.208,39.831,4.316,59.75,4.5,16,.149,32.415-.411,48-3.5a125.288,125.288,0,0,0,35.25-13c20.731-11.341,40.681-23.925,60.684-36.6s30.728,18.129,32.537,21.668c9.282,18.166,14.2,30.5,20.628,49.853,7.921,27.807,15.716,26.235,35.179,18.661,14.616-5.687,31.984-18.377,35.188-5.219,6.193,16.645-47.033,28.107-56.133,34.173a46.7,46.7,0,0,0-13.835,14.839Z" transform="translate(-112.943 -55.506)"   stroke-linecap="round" stroke-linejoin="round" /></svg>