<svg id="Layer_1" data-name="Layer 1" xmlns="http://www.w3.org/2000/svg" viewBox="0 0 1254.936 739.028"><title>imsa_petit_le_mans</title><path d="M774.812,619.075c-.738-2.761-1.476-6-2.306-9.426-1.107-5.142-2.213-10.76-3.6-16.283a105.9,105.9,0,0,0-4.888-15.9,111.183,111.183,0,0,0-11.067-20.186,74.354,74.354,0,0,0-15.861-17.044,199.243,199.243,0,0,0-32.831-19.519c-11.158-5.428-22.5-10.284-34.029-15.806l-6.548,14.663c11.9,5.713,23.24,10.474,33.937,15.711s20.75,10.759,30.341,18a58.906,58.906,0,0,1,12.357,13.426,95.348,95.348,0,0,1,9.407,17.234,54.657,54.657,0,0,1,2.766,8.379c1.292,4.761,2.49,10.093,3.6,15.52s2.306,10.76,3.6,15.711Z" transform="translate(-51.782 -71.886)" fill="#a855f7" stroke="#a855f7" stroke-miterlimit="10" stroke-width="3"/><path d="M677.754,522.1a5.642,5.642,0,0,1-.109,2.208c.819.372,1.652.731,2.464,1.108a5.552,5.552,0,0,1,.7-1.2Q679.272,523.162,677.754,522.1Z" transform="translate(-51.782 -71.886)" fill="#a855f7" stroke="#a855f7" stroke-miterlimit="10" stroke-width="3"/><path d="M995.126,809.414c-7.759-.088-15.922-1.748-24.963-5.075a165.782,165.782,0,0,1-22.651-10.5,231.086,231.086,0,0,1-53.135-39.975,94.614,94.614,0,0,1-8.342-9.666c-2.915-3.944-5.744-8-8.128-11.443-2.47-3.614-4.984-7.406-7.414-11.073-3.03-4.57-6.162-9.3-9.276-13.777-3.85-5.524-7.689-10.608-11.412-15.108a114.156,114.156,0,0,0-14.966-14.218,164.434,164.434,0,0,0-17.38-12.153c-4.706-2.914-10.714-5.134-16.509-7.1-1.159-.394-2.334-.783-3.52-1.177a138.975,138.975,0,0,1-15.616-5.889,46.9,46.9,0,0,1-12.008-7.6,23.7,23.7,0,0,1-6.031-9.047,53.908,53.908,0,0,1-2.416-8.634l-.256-1.274c-.257-1.286-.478-2.4-.755-3.467a19.924,19.924,0,0,0-1.433-4.081l-.221-.414,5.066-2.955.121.651c.545,2.941.952,5.667,1.245,8.337a4.616,4.616,0,0,0,5.212,4.087,3.326,3.326,0,0,0,3.093-3.981c-.405-3.712-1.014-7.6-1.808-11.547l-.781-3.878,1.648,3.577a34.111,34.111,0,0,1,1.468,3.836c.355,1.316.65,2.556.933,3.74l.276,1.151c.139.675.266,1.316.388,1.937A46.524,46.524,0,0,0,777,628.72a11.976,11.976,0,0,0,1.5,3.209,3.686,3.686,0,0,0,.681.805c.1.092.194.187.291.287a30.4,30.4,0,0,0,6.059,4.1,55.41,55.41,0,0,0,7.879,3.5c2.842,1.09,5.829,2.1,8.991,3.158s6.436,2.167,9.734,3.414a80.211,80.211,0,0,1,12.9,6.228A190.4,190.4,0,0,1,843.8,666.5a120.025,120.025,0,0,1,17.035,16.25c6.152,7.273,11.8,15.49,18.014,24.7l2.9,4.388c4.646,7.027,9.035,13.664,13.223,19.4a90.884,90.884,0,0,0,9.451,11.466,219.877,219.877,0,0,0,49.786,37.437,145.9,145.9,0,0,0,20.687,9.683c7.425,2.724,14.355,4.163,20.043,4.163h1.014a43.126,43.126,0,0,0,15.5-3.773,97.282,97.282,0,0,0,15.971-8.815,229.071,229.071,0,0,0,38.563-31.834,325.459,325.459,0,0,0,22.837-27c1.949-2.484,3.865-4.954,5.752-7.385,5.382-6.936,10.466-13.489,15.381-19.2.313-.457.88-1.129,1.6-1.981.277-.328.575-.682.888-1.059,1.1-1.423,2.5-3.157,4.15-5.142l2.471-3.06c2.81-3.479,6.159-7.623,9.882-12.264l9.28-11.568c7.922-9.872,16.912-21.076,26.224-32.707,27.4-34.321,56.008-70.024,71.2-88.84,3.126-3.9,5.77-7.117,7.7-9.465.811-.988,1.506-1.835,2.075-2.533l.4-.49c.356-.435.636-.776.915-1.064l.554-.572a269.25,269.25,0,0,0,19.878-23.566,160.719,160.719,0,0,0,11.216-17.274,73.387,73.387,0,0,0,3.292-7.175c.138-.479.26-.937.355-1.293.084-.313.148-.551.191-.686.353-1.935.819-4.153,1.372-6.53s1.112-4.973,1.657-7.7a95.641,95.641,0,0,0,1.835-17.519,52.3,52.3,0,0,0-1.369-12.64l-2.511-10.472c-4.716-19.686-8.789-36.686-13.257-53.6-5.918-22.3-11.744-40.991-18.891-60.611a31.785,31.785,0,0,0-4.274-8.169,51.577,51.577,0,0,0-6.3-7.264,105.766,105.766,0,0,0-16.07-12.229c-1.107-.7-2.218-1.388-3.319-2.074-2.7-1.678-5.247-3.264-7.662-4.882-5.787-3.847-13.155-8.84-23.889-16.189-9.593-6.569-18.737-12.49-26.445-17.125a23.5,23.5,0,0,0-12.494-3.554,26.669,26.669,0,0,0-10.065,2.061,28.757,28.757,0,0,0-8.259,5.248,21.687,21.687,0,0,0-3.6,4.275,59.793,59.793,0,0,1-6.884,8.743,55.245,55.245,0,0,1-9.394,8.162,30.931,30.931,0,0,1-7.584,3.674,15.47,15.47,0,0,1-10.84-.4c-13.9-6.144-27.683-12.366-41.014-18.383-27.061-12.212-52.621-23.748-80.146-35.217-14.569-6.088-28.763-12.551-42.49-18.8-11.709-5.332-23.818-10.845-35.808-15.955-31.056-13.351-56.458-21.8-82.364-27.4-32.237-6.934-68.014-10.513-109.375-10.94-12.874-.093-26.187-.19-39.465-.19-43.214,0-87.217.652-129.771,1.284-42.659.633-86.77,1.287-130.2,1.287-15.637,0-31.525-.1-47.223-.286-49.058-.68-88.5-4.556-124.124-12.2-19.523-4.2-38.12-10.106-57.037-16.294q-5.957-1.949-11.879-3.92c-14.278-4.733-29.042-9.626-43.616-13.594-2.078-.57-4.166-1.163-6.25-1.754-3.763-1.07-7.655-2.175-11.355-3.1A67.28,67.28,0,0,0,85.928,88.62,37.451,37.451,0,0,0,81.19,89a8.013,8.013,0,0,0-2.863,1.078,12.46,12.46,0,0,0-2.555,2.369,15.276,15.276,0,0,0-3.033,7.741c-2.189,20.97-3.288,44.492-4.35,67.239l-.168,3.582a19.69,19.69,0,0,0-.091,2.357,60.38,60.38,0,0,0,3.385,19.265A52.715,52.715,0,0,0,80.1,208.478a14.074,14.074,0,0,0,3.044,2.675,33.732,33.732,0,0,0,5.186,3.006,62.34,62.34,0,0,0,13.01,4.636,44.485,44.485,0,0,0,7.661,1.13c16.447.384,32,1.641,47.048,2.858s30.6,2.475,46.733,2.95c14.323.454,31.96,1.9,52.42,4.288,17.657,2.064,38.237,4.993,62.913,8.953,49.563,8.046,98.831,17.906,131.434,24.76,4.012.892,8.157,1.559,12.547,2.266,2.126.341,4.276.687,6.435,1.064a102.705,102.705,0,0,1,19.637,5.071,49.681,49.681,0,0,1,12.288,6.825,66.8,66.8,0,0,1,11.983,12.18,84.863,84.863,0,0,1,8.071,13.506,205.666,205.666,0,0,1,7.6,19.137c.964,2.69,1.874,5.23,2.835,7.753a91.87,91.87,0,0,0,7.431,15.822c4.273,6.961,10.039,13.923,15.632,20.408q1.819,2.115,3.688,4.256c4.8,5.518,9.762,11.224,14.314,17.288a98.04,98.04,0,0,1,10.1,16.075c4.142,8.355,6.758,17.3,8.885,25.03l.686,2.5a202.6,202.6,0,0,0,6.49,20.869,52.181,52.181,0,0,0,6.3,11.989,69.129,69.129,0,0,0,15.3,15.608c4.775,3.51,10.349,6.6,18.637,10.331,3.866,1.765,8.148,3.554,12.681,5.448l3.354,1.4q3.368,1.406,6.787,2.815c14.395,5.949,29.281,12.1,43.159,20.254l.4.235-.851,1.552-.4-.218a179.18,179.18,0,0,0-24.412-11.031l-.121-.066c-1.638-1.25-3.119-2.437-4.525-3.625a4.126,4.126,0,0,0-4.312-.741,4.756,4.756,0,0,0-2.978,3.48,3.446,3.446,0,0,0,1.352,3.257c.829.7,1.75,1.448,2.9,2.354l.1.079.047.12a4.057,4.057,0,0,0,.6,1.06l.43.538-.641.217a3.682,3.682,0,0,0-2.178,2.013l-.189.411-.406-.175c-4.689-2.016-9.509-4.022-14.169-5.961q-3.056-1.272-6.106-2.546-2.61-1.105-5.107-2.151c-6.652-2.792-12.934-5.429-18.715-8.337a87.929,87.929,0,0,1-20.3-13.591,84.448,84.448,0,0,1-12.142-13.493,55.443,55.443,0,0,1-6.6-11.425,98.582,98.582,0,0,1-4.63-12.335c-1.469-4.6-2.752-9.262-3.991-13.768-1.044-3.793-2.03-7.377-3.11-10.893a107.814,107.814,0,0,0-5.5-14.305c-3.032-6.175-7.5-12.711-14.049-20.569-2.526-3.028-5.239-6.145-7.863-9.161-3.356-3.856-6.827-7.844-10.123-11.885a132.909,132.909,0,0,1-11.013-15.289,113.76,113.76,0,0,1-9.538-20.65c-.742-2.014-1.459-4.019-2.168-6-1.7-4.746-3.3-9.229-5.109-13.5a77.436,77.436,0,0,0-5.862-11.351,46.739,46.739,0,0,0-11.512-12.738,36.546,36.546,0,0,0-8.653-4.7,69.518,69.518,0,0,0-10.9-3.12c-4.055-.876-8.285-1.567-12.765-2.3-4.177-.682-8.5-1.388-12.776-2.271-72.13-15.257-142.467-27.436-192.979-33.415-20.137-2.388-37.345-3.829-51.144-4.282-17.012-.589-33.168-1.895-47.422-3.048-14.6-1.18-30.2-2.373-46.272-2.855a57.725,57.725,0,0,1-13.939-2.3A70.656,70.656,0,0,1,80.738,227.4a43.728,43.728,0,0,1-8.1-5.2,29.011,29.011,0,0,1-3.841-3.774A67.959,67.959,0,0,1,57.552,197.9a74.73,74.73,0,0,1-4.27-24.443v-3.142q.273-5.382.536-10.816c1-20.45,2.04-41.6,4.078-60.934A32.571,32.571,0,0,1,61.92,86.1a27.27,27.27,0,0,1,8.826-9.214,23.755,23.755,0,0,1,8.287-3.017,53.78,53.78,0,0,1,6.8-.481,83.65,83.65,0,0,1,19.287,2.773c4,.971,7.9,2.093,11.683,3.177,2.156.619,4.264,1.224,6.312,1.778,19.67,5.495,38.682,12.049,56.47,18.291,16.645,5.5,36.046,11.718,55.553,15.886,34.38,7.451,74.048,11.341,121.274,11.892,15.615.19,31.437.286,47.027.286,43.214,0,87.216-.653,129.77-1.284,42.659-.633,86.771-1.287,130.2-1.287,13.346,0,26.722.1,39.658.19,42.153.429,78.864,4.139,112.231,11.341,34.041,7.405,63.315,18.966,85.016,28.211,12.333,5.253,24.61,10.83,36.482,16.223,13.534,6.147,27.529,12.5,41.717,18.434,27.747,11.586,54.534,23.661,80.439,35.338,13.319,6,27.092,12.213,40.937,18.33h.09a8.113,8.113,0,0,0,1.87-.542,24.873,24.873,0,0,0,3.395-2.035,45.734,45.734,0,0,0,7.67-7.167,50.26,50.26,0,0,0,3.553-4.8,35.4,35.4,0,0,1,6.169-7.431,41.56,41.56,0,0,1,8.02-5.872,40.554,40.554,0,0,1,20.136-5.388,38.759,38.759,0,0,1,19.874,5.587c9.136,5.405,18.8,11.884,27.135,17.534,9.717,6.689,17.689,12.1,23.7,16.089,1.867,1.248,3.961,2.576,6.179,3.982,3.313,2.1,7.067,4.483,10.8,7.069,7.669,5.318,13.356,10.4,17.894,15.99a51.029,51.029,0,0,1,8.746,15.084c7.306,19.888,13.283,39.019,19.381,62.032,4.336,16.366,8.4,33.3,12.7,51.226q1.542,6.42,3.161,13.147h0a66.457,66.457,0,0,1,1.859,16.306,104.452,104.452,0,0,1-1.3,15.784c-.615,4.048-1.407,8.144-2.5,12.891-.232,1.249-.495,2.43-.727,3.472-.229,1.024-.425,1.908-.559,2.69a27.849,27.849,0,0,1-1.221,4.369,48.545,48.545,0,0,1-2.044,4.893,107.2,107.2,0,0,1-7.133,12.628c-7.056,10.982-16.9,23.319-28.457,35.679l-.375.387c-.119.124-.219.247-.328.379-.141.172-.293.358-.5.573-.379.51-.9,1.125-1.494,1.837-.337.4-.694.825-1.063,1.276l-1.077,1.3c-1.981,2.4-4.448,5.38-7.311,8.975-5.186,6.355-11.522,14.251-18.858,23.393l-7.517,9.364c-5.819,7.274-11.993,15-18.3,22.894-16.156,20.215-32.863,41.118-47.081,58.8-15.517,19.383-24.676,30.748-29.7,36.854-.711.87-1.358,1.633-1.92,2.3-.6.706-1.1,1.3-1.483,1.788-5.2,6.013-11.034,13.545-17.208,21.52l-3.542,4.57a350.662,350.662,0,0,1-23.919,28.223,245.906,245.906,0,0,1-41.025,33.867,117.613,117.613,0,0,1-18.33,10.036c-7.788,3.17-14.372,4.724-20.729,4.892ZM679.512,511.3a181.861,181.861,0,0,1,21.379,9.412,268.865,268.865,0,0,0-24.654-12C677.269,509.557,678.35,510.411,679.512,511.3Z" transform="translate(-51.782 -71.886)" fill="#a855f7" stroke="#a855f7" stroke-miterlimit="10" stroke-width="3"/><path d="M775.812,619.075c-.738-2.761-1.476-6-2.306-9.426-1.107-5.142-2.213-10.76-3.6-16.283a105.9,105.9,0,0,0-4.888-15.9,111.183,111.183,0,0,0-11.067-20.186,74.354,74.354,0,0,0-15.861-17.044,199.243,199.243,0,0,0-32.831-19.519c-11.158-5.428-22.5-10.284-34.029-15.806l-6.548,14.663c11.9,5.713,23.24,10.474,33.937,15.711s20.75,10.759,30.341,18a58.906,58.906,0,0,1,12.357,13.426,95.348,95.348,0,0,1,9.407,17.234,54.657,54.657,0,0,1,2.766,8.379c1.292,4.761,2.49,10.093,3.6,15.52s2.306,10.76,3.6,15.711Z" transform="translate(-51.782 -71.886)" fill="#a855f7" stroke="#a855f7" stroke-miterlimit="10" stroke-width="3"/><path d="M678.754,522.1a5.642,5.642,0,0,1-.109,2.208c.819.372,1.652.731,2.464,1.108a5.552,5.552,0,0,1,.7-1.2Q680.272,523.162,678.754,522.1Z" transform="translate(-51.782 -71.886)" fill="#a855f7" stroke="#a855f7" stroke-miterlimit="10" stroke-width="3"/><path d="M996.126,809.414c-7.759-.088-15.922-1.748-24.963-5.075a165.782,165.782,0,0,1-22.651-10.5,231.086,231.086,0,0,1-53.135-39.975,94.614,94.614,0,0,1-8.342-9.666c-2.915-3.944-5.744-8-8.128-11.443-2.47-3.614-4.984-7.406-7.414-11.073-3.03-4.57-6.162-9.3-9.276-13.777-3.85-5.524-7.689-10.608-11.412-15.108a114.156,114.156,0,0,0-14.966-14.218,164.434,164.434,0,0,0-17.38-12.153c-4.706-2.914-10.714-5.134-16.509-7.1-1.159-.394-2.334-.783-3.52-1.177a138.975,138.975,0,0,1-15.616-5.889,46.9,46.9,0,0,1-12.008-7.6,23.7,23.7,0,0,1-6.031-9.047,53.908,53.908,0,0,1-2.416-8.634l-.256-1.274c-.257-1.286-.478-2.4-.755-3.467a19.924,19.924,0,0,0-1.433-4.081l-.221-.414,5.066-2.955.121.651c.545,2.941.952,5.667,1.245,8.337a4.616,4.616,0,0,0,5.212,4.087,3.326,3.326,0,0,0,3.093-3.981c-.405-3.712-1.014-7.6-1.808-11.547l-.781-3.878,1.648,3.577a34.111,34.111,0,0,1,1.468,3.836c.355,1.316.65,2.556.933,3.74l.276,1.151c.139.675.266,1.316.388,1.937A46.524,46.524,0,0,0,778,628.72a11.976,11.976,0,0,0,1.5,3.209,3.686,3.686,0,0,0,.681.805c.1.092.194.187.291.287a30.4,30.4,0,0,0,6.059,4.1,55.41,55.41,0,0,0,7.879,3.5c2.842,1.09,5.829,2.1,8.991,3.158s6.436,2.167,9.734,3.414a80.211,80.211,0,0,1,12.9,6.228A190.4,190.4,0,0,1,844.8,666.5a120.025,120.025,0,0,1,17.035,16.25c6.152,7.273,11.8,15.49,18.014,24.7l2.9,4.388c4.646,7.027,9.035,13.664,13.223,19.4a90.884,90.884,0,0,0,9.451,11.466,219.877,219.877,0,0,0,49.786,37.437,145.9,145.9,0,0,0,20.687,9.683c7.425,2.724,14.355,4.163,20.043,4.163h1.014a43.126,43.126,0,0,0,15.5-3.773,97.282,97.282,0,0,0,15.971-8.815,229.071,229.071,0,0,0,38.563-31.834,325.459,325.459,0,0,0,22.837-27c1.949-2.484,3.865-4.954,5.752-7.385,5.382-6.936,10.466-13.489,15.381-19.2.313-.457.88-1.129,1.6-1.981.277-.328.575-.682.888-1.059,1.1-1.423,2.5-3.157,4.15-5.142l2.471-3.06c2.81-3.479,6.159-7.623,9.882-12.264l9.28-11.568c7.922-9.872,16.912-21.076,26.224-32.707,27.4-34.321,56.008-70.024,71.2-88.84,3.126-3.9,5.77-7.117,7.7-9.465.811-.988,1.506-1.835,2.075-2.533l.4-.49c.356-.435.636-.776.915-1.064l.554-.572a269.25,269.25,0,0,0,19.878-23.566,160.719,160.719,0,0,0,11.216-17.274,73.387,73.387,0,0,0,3.292-7.175c.138-.479.26-.937.355-1.293.084-.313.148-.551.191-.686.353-1.935.819-4.153,1.372-6.53s1.112-4.973,1.657-7.7a95.641,95.641,0,0,0,1.835-17.519,52.3,52.3,0,0,0-1.369-12.64l-2.511-10.472c-4.716-19.686-8.789-36.686-13.257-53.6-5.918-22.3-11.744-40.991-18.891-60.611a31.785,31.785,0,0,0-4.274-8.169,51.577,51.577,0,0,0-6.3-7.264,105.766,105.766,0,0,0-16.07-12.229c-1.107-.7-2.218-1.388-3.319-2.074-2.7-1.678-5.247-3.264-7.662-4.882-5.787-3.847-13.155-8.84-23.889-16.189-9.593-6.569-18.737-12.49-26.445-17.125a23.5,23.5,0,0,0-12.494-3.554,26.669,26.669,0,0,0-10.065,2.061,28.757,28.757,0,0,0-8.259,5.248,21.687,21.687,0,0,0-3.6,4.275,59.793,59.793,0,0,1-6.884,8.743,55.245,55.245,0,0,1-9.394,8.162,30.931,30.931,0,0,1-7.584,3.674,15.47,15.47,0,0,1-10.84-.4c-13.9-6.144-27.683-12.366-41.014-18.383-27.061-12.212-52.621-23.748-80.146-35.217-14.569-6.088-28.763-12.551-42.49-18.8-11.709-5.332-23.818-10.845-35.808-15.955-31.056-13.351-56.458-21.8-82.364-27.4-32.237-6.934-68.014-10.513-109.375-10.94-12.874-.093-26.187-.19-39.465-.19-43.214,0-87.217.652-129.771,1.284-42.659.633-86.77,1.287-130.2,1.287-15.637,0-31.525-.1-47.223-.286-49.058-.68-88.5-4.556-124.124-12.2-19.523-4.2-38.12-10.106-57.037-16.294q-5.957-1.949-11.879-3.92c-14.278-4.733-29.042-9.626-43.616-13.594-2.078-.57-4.166-1.163-6.25-1.754-3.763-1.07-7.655-2.175-11.355-3.1A67.28,67.28,0,0,0,86.928,88.62,37.451,37.451,0,0,0,82.19,89a8.013,8.013,0,0,0-2.863,1.078,12.46,12.46,0,0,0-2.555,2.369,15.276,15.276,0,0,0-3.033,7.741c-2.189,20.97-3.288,44.492-4.35,67.239l-.168,3.582a19.69,19.69,0,0,0-.091,2.357,60.38,60.38,0,0,0,3.385,19.265A52.715,52.715,0,0,0,81.1,208.478a14.074,14.074,0,0,0,3.044,2.675,33.732,33.732,0,0,0,5.186,3.006,62.34,62.34,0,0,0,13.01,4.636,44.485,44.485,0,0,0,7.661,1.13c16.447.384,32,1.641,47.048,2.858s30.6,2.475,46.733,2.95c14.323.454,31.96,1.9,52.42,4.288,17.657,2.064,38.237,4.993,62.913,8.953,49.563,8.046,98.831,17.906,131.434,24.76,4.012.892,8.157,1.559,12.547,2.266,2.126.341,4.276.687,6.435,1.064a102.705,102.705,0,0,1,19.637,5.071,49.681,49.681,0,0,1,12.288,6.825,66.8,66.8,0,0,1,11.983,12.18,84.863,84.863,0,0,1,8.071,13.506,205.666,205.666,0,0,1,7.6,19.137c.964,2.69,1.874,5.23,2.835,7.753a91.87,91.87,0,0,0,7.431,15.822c4.273,6.961,10.039,13.923,15.632,20.408q1.819,2.115,3.688,4.256c4.8,5.518,9.762,11.224,14.314,17.288a98.04,98.04,0,0,1,10.1,16.075c4.142,8.355,6.758,17.3,8.885,25.03l.686,2.5a202.6,202.6,0,0,0,6.49,20.869,52.181,52.181,0,0,0,6.3,11.989,69.129,69.129,0,0,0,15.3,15.608c4.775,3.51,10.349,6.6,18.637,10.331,3.866,1.765,8.148,3.554,12.681,5.448l3.354,1.4q3.368,1.406,6.787,2.815c14.395,5.949,29.281,12.1,43.159,20.254l.4.235-.851,1.552-.4-.218a179.18,179.18,0,0,0-24.412-11.031l-.121-.066c-1.638-1.25-3.119-2.437-4.525-3.625a4.126,4.126,0,0,0-4.312-.741,4.756,4.756,0,0,0-2.978,3.48,3.446,3.446,0,0,0,1.352,3.257c.829.7,1.75,1.448,2.9,2.354l.1.079.047.12a4.057,4.057,0,0,0,.6,1.06l.43.538-.641.217a3.682,3.682,0,0,0-2.178,2.013l-.189.411-.406-.175c-4.689-2.016-9.509-4.022-14.169-5.961q-3.056-1.272-6.106-2.546-2.61-1.105-5.107-2.151c-6.652-2.792-12.934-5.429-18.715-8.337a87.929,87.929,0,0,1-20.3-13.591,84.448,84.448,0,0,1-12.142-13.493,55.443,55.443,0,0,1-6.6-11.425,98.582,98.582,0,0,1-4.63-12.335c-1.469-4.6-2.752-9.262-3.991-13.768-1.044-3.793-2.03-7.377-3.11-10.893a107.814,107.814,0,0,0-5.5-14.305c-3.032-6.175-7.5-12.711-14.049-20.569-2.526-3.028-5.239-6.145-7.863-9.161-3.356-3.856-6.827-7.844-10.123-11.885a132.909,132.909,0,0,1-11.013-15.289,113.76,113.76,0,0,1-9.538-20.65c-.742-2.014-1.459-4.019-2.168-6-1.7-4.746-3.3-9.229-5.109-13.5a77.436,77.436,0,0,0-5.862-11.351,46.739,46.739,0,0,0-11.512-12.738,36.546,36.546,0,0,0-8.653-4.7,69.518,69.518,0,0,0-10.9-3.12c-4.055-.876-8.285-1.567-12.765-2.3-4.177-.682-8.5-1.388-12.776-2.271-72.13-15.257-142.467-27.436-192.979-33.415-20.137-2.388-37.345-3.829-51.144-4.282-17.012-.589-33.168-1.895-47.422-3.048-14.6-1.18-30.2-2.373-46.272-2.855a57.725,57.725,0,0,1-13.939-2.3A70.656,70.656,0,0,1,81.738,227.4a43.728,43.728,0,0,1-8.1-5.2,29.011,29.011,0,0,1-3.841-3.774A67.959,67.959,0,0,1,58.552,197.9a74.73,74.73,0,0,1-4.27-24.443v-3.142q.273-5.382.536-10.816c1-20.45,2.04-41.6,4.078-60.934A32.571,32.571,0,0,1,62.92,86.1a27.27,27.27,0,0,1,8.826-9.214,23.755,23.755,0,0,1,8.287-3.017,53.78,53.78,0,0,1,6.8-.481,83.65,83.65,0,0,1,19.287,2.773c4,.971,7.9,2.093,11.683,3.177,2.156.619,4.264,1.224,6.312,1.778,19.67,5.495,38.682,12.049,56.47,18.291,16.645,5.5,36.046,11.718,55.553,15.886,34.38,7.451,74.048,11.341,121.274,11.892,15.615.19,31.437.286,47.027.286,43.214,0,87.216-.653,129.77-1.284,42.659-.633,86.771-1.287,130.2-1.287,13.346,0,26.722.1,39.658.19,42.153.429,78.864,4.139,112.231,11.341,34.041,7.405,63.315,18.966,85.016,28.211,12.333,5.253,24.61,10.83,36.482,16.223,13.534,6.147,27.529,12.5,41.717,18.434,27.747,11.586,54.534,23.661,80.439,35.338,13.319,6,27.092,12.213,40.937,18.33h.09a8.113,8.113,0,0,0,1.87-.542,24.873,24.873,0,0,0,3.395-2.035,45.734,45.734,0,0,0,7.67-7.167,50.26,50.26,0,0,0,3.553-4.8,35.4,35.4,0,0,1,6.169-7.431,41.56,41.56,0,0,1,8.02-5.872,40.554,40.554,0,0,1,20.136-5.388,38.759,38.759,0,0,1,19.874,5.587c9.136,5.405,18.8,11.884,27.135,17.534,9.717,6.689,17.689,12.1,23.7,16.089,1.867,1.248,3.961,2.576,6.179,3.982,3.313,2.1,7.067,4.483,10.8,7.069,7.669,5.318,13.356,10.4,17.894,15.99a51.029,51.029,0,0,1,8.746,15.084c7.306,19.888,13.283,39.019,19.381,62.032,4.336,16.366,8.4,33.3,12.7,51.226q1.542,6.42,3.161,13.147h0a66.457,66.457,0,0,1,1.859,16.306,104.452,104.452,0,0,1-1.3,15.784c-.615,4.048-1.407,8.144-2.5,12.891-.232,1.249-.495,2.43-.727,3.472-.229,1.024-.425,1.908-.559,2.69a27.849,27.849,0,0,1-1.221,4.369,48.545,48.545,0,0,1-2.044,4.893,107.2,107.2,0,0,1-7.133,12.628c-7.056,10.982-16.9,23.319-28.457,35.679l-.375.387c-.119.124-.219.247-.328.379-.141.172-.293.358-.5.573-.379.51-.9,1.125-1.494,1.837-.337.4-.694.825-1.063,1.276l-1.077,1.3c-1.981,2.4-4.448,5.38-7.311,8.975-5.186,6.355-11.522,14.251-18.858,23.393l-7.517,9.364c-5.819,7.274-11.993,15-18.3,22.894-16.156,20.215-32.863,41.118-47.081,58.8-15.517,19.383-24.676,30.748-29.7,36.854-.711.87-1.358,1.633-1.92,2.3-.6.706-1.1,1.3-1.483,1.788-5.2,6.013-11.034,13.545-17.208,21.52l-3.542,4.57a350.662,350.662,0,0,1-23.919,28.223,245.906,245.906,0,0,1-41.025,33.867,117.613,117.613,0,0,1-18.33,10.036c-7.788,3.17-14.372,4.724-20.729,4.892ZM680.512,511.3a181.861,181.861,0,0,1,21.379,9.412,268.865,268.865,0,0,0-24.654-12C678.269,509.557,679.35,510.411,680.512,511.3Z" transform="translate(-51.782 -71.886)" fill="#a855f7" stroke="#a855f7" stroke-miterlimit="10" stroke-width="3"/><path d="M776.812,619.075c-.738-2.761-1.476-6-2.306-9.426-1.107-5.142-2.213-10.76-3.6-16.283a105.9,105.9,0,0,0-4.888-15.9,111.183,111.183,0,0,0-11.067-20.186,74.354,74.354,0,0,0-15.861-17.044,199.243,199.243,0,0,0-32.831-19.519c-11.158-5.428-22.5-10.284-34.029-15.806l-6.548,14.663c11.9,5.713,23.24,10.474,33.937,15.711s20.75,10.759,30.341,18a58.906,58.906,0,0,1,12.357,13.426,95.348,95.348,0,0,1,9.407,17.234,54.657,54.657,0,0,1,2.766,8.379c1.292,4.761,2.49,10.093,3.6,15.52s2.306,10.76,3.6,15.711Z" transform="translate(-51.782 -71.886)" fill="#a855f7" stroke="#a855f7" stroke-miterlimit="10" stroke-width="3"/><path d="M679.754,522.1a5.642,5.642,0,0,1-.109,2.208c.819.372,1.652.731,2.464,1.108a5.552,5.552,0,0,1,.7-1.2Q681.272,523.162,679.754,522.1Z" transform="translate(-51.782 -71.886)" fill="#a855f7" stroke="#a855f7" stroke-miterlimit="10" stroke-width="3"/><path d="M997.126,809.414c-7.759-.088-15.922-1.748-24.963-5.075a165.782,165.782,0,0,1-22.651-10.5,231.086,231.086,0,0,1-53.135-39.975,94.614,94.614,0,0,1-8.342-9.666c-2.915-3.944-5.744-8-8.128-11.443-2.47-3.614-4.984-7.406-7.414-11.073-3.03-4.57-6.162-9.3-9.276-13.777-3.85-5.524-7.689-10.608-11.412-15.108a114.156,114.156,0,0,0-14.966-14.218,164.434,164.434,0,0,0-17.38-12.153c-4.706-2.914-10.714-5.134-16.509-7.1-1.159-.394-2.334-.783-3.52-1.177a138.975,138.975,0,0,1-15.616-5.889,46.9,46.9,0,0,1-12.008-7.6,23.7,23.7,0,0,1-6.031-9.047,53.908,53.908,0,0,1-2.416-8.634l-.256-1.274c-.257-1.286-.478-2.4-.755-3.467a19.924,19.924,0,0,0-1.433-4.081l-.221-.414,5.066-2.955.121.651c.545,2.941.952,5.667,1.245,8.337a4.616,4.616,0,0,0,5.212,4.087,3.326,3.326,0,0,0,3.093-3.981c-.405-3.712-1.014-7.6-1.808-11.547l-.781-3.878,1.648,3.577a34.111,34.111,0,0,1,1.468,3.836c.355,1.316.65,2.556.933,3.74l.276,1.151c.139.675.266,1.316.388,1.937A46.524,46.524,0,0,0,779,628.72a11.976,11.976,0,0,0,1.5,3.209,3.686,3.686,0,0,0,.681.805c.1.092.194.187.291.287a30.4,30.4,0,0,0,6.059,4.1,55.41,55.41,0,0,0,7.879,3.5c2.842,1.09,5.829,2.1,8.991,3.158s6.436,2.167,9.734,3.414a80.211,80.211,0,0,1,12.9,6.228A190.4,190.4,0,0,1,845.8,666.5a120.025,120.025,0,0,1,17.035,16.25c6.152,7.273,11.8,15.49,18.014,24.7l2.9,4.388c4.646,7.027,9.035,13.664,13.223,19.4a90.884,90.884,0,0,0,9.451,11.466,219.877,219.877,0,0,0,49.786,37.437,145.9,145.9,0,0,0,20.687,9.683c7.425,2.724,14.355,4.163,20.043,4.163h1.014a43.126,43.126,0,0,0,15.5-3.773,97.282,97.282,0,0,0,15.971-8.815,229.071,229.071,0,0,0,38.563-31.834,325.459,325.459,0,0,0,22.837-27c1.949-2.484,3.865-4.954,5.752-7.385,5.382-6.936,10.466-13.489,15.381-19.2.313-.457.88-1.129,1.6-1.981.277-.328.575-.682.888-1.059,1.1-1.423,2.5-3.157,4.15-5.142l2.471-3.06c2.81-3.479,6.159-7.623,9.882-12.264l9.28-11.568c7.922-9.872,16.912-21.076,26.224-32.707,27.4-34.321,56.008-70.024,71.2-88.84,3.126-3.9,5.77-7.117,7.7-9.465.811-.988,1.506-1.835,2.075-2.533l.4-.49c.356-.435.636-.776.915-1.064l.554-.572a269.25,269.25,0,0,0,19.878-23.566,160.719,160.719,0,0,0,11.216-17.274,73.387,73.387,0,0,0,3.292-7.175c.138-.479.26-.937.355-1.293.084-.313.148-.551.191-.686.353-1.935.819-4.153,1.372-6.53s1.112-4.973,1.657-7.7a95.641,95.641,0,0,0,1.835-17.519,52.3,52.3,0,0,0-1.369-12.64l-2.511-10.472c-4.716-19.686-8.789-36.686-13.257-53.6-5.918-22.3-11.744-40.991-18.891-60.611a31.785,31.785,0,0,0-4.274-8.169,51.577,51.577,0,0,0-6.3-7.264,105.766,105.766,0,0,0-16.07-12.229c-1.107-.7-2.218-1.388-3.319-2.074-2.7-1.678-5.247-3.264-7.662-4.882-5.787-3.847-13.155-8.84-23.889-16.189-9.593-6.569-18.737-12.49-26.445-17.125a23.5,23.5,0,0,0-12.494-3.554,26.669,26.669,0,0,0-10.065,2.061,28.757,28.757,0,0,0-8.259,5.248,21.687,21.687,0,0,0-3.6,4.275,59.793,59.793,0,0,1-6.884,8.743,55.245,55.245,0,0,1-9.394,8.162,30.931,30.931,0,0,1-7.584,3.674,15.47,15.47,0,0,1-10.84-.4c-13.9-6.144-27.683-12.366-41.014-18.383-27.061-12.212-52.621-23.748-80.146-35.217-14.569-6.088-28.763-12.551-42.49-18.8-11.709-5.332-23.818-10.845-35.808-15.955-31.056-13.351-56.458-21.8-82.364-27.4-32.237-6.934-68.014-10.513-109.375-10.94-12.874-.093-26.187-.19-39.465-.19-43.214,0-87.217.652-129.771,1.284-42.659.633-86.77,1.287-130.2,1.287-15.637,0-31.525-.1-47.223-.286-49.058-.68-88.5-4.556-124.124-12.2-19.523-4.2-38.12-10.106-57.037-16.294q-5.957-1.949-11.879-3.92c-14.278-4.733-29.042-9.626-43.616-13.594-2.078-.57-4.166-1.163-6.25-1.754-3.763-1.07-7.655-2.175-11.355-3.1A67.28,67.28,0,0,0,87.928,88.62,37.451,37.451,0,0,0,83.19,89a8.013,8.013,0,0,0-2.863,1.078,12.46,12.46,0,0,0-2.555,2.369,15.276,15.276,0,0,0-3.033,7.741c-2.189,20.97-3.288,44.492-4.35,67.239l-.168,3.582a19.69,19.69,0,0,0-.091,2.357,60.38,60.38,0,0,0,3.385,19.265A52.715,52.715,0,0,0,82.1,208.478a14.074,14.074,0,0,0,3.044,2.675,33.732,33.732,0,0,0,5.186,3.006,62.34,62.34,0,0,0,13.01,4.636,44.485,44.485,0,0,0,7.661,1.13c16.447.384,32,1.641,47.048,2.858s30.6,2.475,46.733,2.95c14.323.454,31.96,1.9,52.42,4.288,17.657,2.064,38.237,4.993,62.913,8.953,49.563,8.046,98.831,17.906,131.434,24.76,4.012.892,8.157,1.559,12.547,2.266,2.126.341,4.276.687,6.435,1.064a102.705,102.705,0,0,1,19.637,5.071,49.681,49.681,0,0,1,12.288,6.825,66.8,66.8,0,0,1,11.983,12.18,84.863,84.863,0,0,1,8.071,13.506,205.666,205.666,0,0,1,7.6,19.137c.964,2.69,1.874,5.23,2.835,7.753a91.87,91.87,0,0,0,7.431,15.822c4.273,6.961,10.039,13.923,15.632,20.408q1.819,2.115,3.688,4.256c4.8,5.518,9.762,11.224,14.314,17.288a98.04,98.04,0,0,1,10.1,16.075c4.142,8.355,6.758,17.3,8.885,25.03l.686,2.5a202.6,202.6,0,0,0,6.49,20.869,52.181,52.181,0,0,0,6.3,11.989,69.129,69.129,0,0,0,15.3,15.608c4.775,3.51,10.349,6.6,18.637,10.331,3.866,1.765,8.148,3.554,12.681,5.448l3.354,1.4q3.368,1.406,6.787,2.815c14.395,5.949,29.281,12.1,43.159,20.254l.4.235-.851,1.552-.4-.218a179.18,179.18,0,0,0-24.412-11.031l-.121-.066c-1.638-1.25-3.119-2.437-4.525-3.625a4.126,4.126,0,0,0-4.312-.741,4.756,4.756,0,0,0-2.978,3.48,3.446,3.446,0,0,0,1.352,3.257c.829.7,1.75,1.448,2.9,2.354l.1.079.047.12a4.057,4.057,0,0,0,.6,1.06l.43.538-.641.217a3.682,3.682,0,0,0-2.178,2.013l-.189.411-.406-.175c-4.689-2.016-9.509-4.022-14.169-5.961q-3.056-1.272-6.106-2.546-2.61-1.105-5.107-2.151c-6.652-2.792-12.934-5.429-18.715-8.337a87.929,87.929,0,0,1-20.3-13.591,84.448,84.448,0,0,1-12.142-13.493,55.443,55.443,0,0,1-6.6-11.425,98.582,98.582,0,0,1-4.63-12.335c-1.469-4.6-2.752-9.262-3.991-13.768-1.044-3.793-2.03-7.377-3.11-10.893a107.814,107.814,0,0,0-5.5-14.305c-3.032-6.175-7.5-12.711-14.049-20.569-2.526-3.028-5.239-6.145-7.863-9.161-3.356-3.856-6.827-7.844-10.123-11.885a132.909,132.909,0,0,1-11.013-15.289,113.76,113.76,0,0,1-9.538-20.65c-.742-2.014-1.459-4.019-2.168-6-1.7-4.746-3.3-9.229-5.109-13.5a77.436,77.436,0,0,0-5.862-11.351,46.739,46.739,0,0,0-11.512-12.738,36.546,36.546,0,0,0-8.653-4.7,69.518,69.518,0,0,0-10.9-3.12c-4.055-.876-8.285-1.567-12.765-2.3-4.177-.682-8.5-1.388-12.776-2.271-72.13-15.257-142.467-27.436-192.979-33.415-20.137-2.388-37.345-3.829-51.144-4.282-17.012-.589-33.168-1.895-47.422-3.048-14.6-1.18-30.2-2.373-46.272-2.855a57.725,57.725,0,0,1-13.939-2.3A70.656,70.656,0,0,1,82.738,227.4a43.728,43.728,0,0,1-8.1-5.2,29.011,29.011,0,0,1-3.841-3.774A67.959,67.959,0,0,1,59.552,197.9a74.73,74.73,0,0,1-4.27-24.443v-3.142q.273-5.382.536-10.816c1-20.45,2.04-41.6,4.078-60.934A32.571,32.571,0,0,1,63.92,86.1a27.27,27.27,0,0,1,8.826-9.214,23.755,23.755,0,0,1,8.287-3.017,53.78,53.78,0,0,1,6.8-.481,83.65,83.65,0,0,1,19.287,2.773c4,.971,7.9,2.093,11.683,3.177,2.156.619,4.264,1.224,6.312,1.778,19.67,5.495,38.682,12.049,56.47,18.291,16.645,5.5,36.046,11.718,55.553,15.886,34.38,7.451,74.048,11.341,121.274,11.892,15.615.19,31.437.286,47.027.286,43.214,0,87.216-.653,129.77-1.284,42.659-.633,86.771-1.287,130.2-1.287,13.346,0,26.722.1,39.658.19,42.153.429,78.864,4.139,112.231,11.341,34.041,7.405,63.315,18.966,85.016,28.211,12.333,5.253,24.61,10.83,36.482,16.223,13.534,6.147,27.529,12.5,41.717,18.434,27.747,11.586,54.534,23.661,80.439,35.338,13.319,6,27.092,12.213,40.937,18.33h.09a8.113,8.113,0,0,0,1.87-.542,24.873,24.873,0,0,0,3.395-2.035,45.734,45.734,0,0,0,7.67-7.167,50.26,50.26,0,0,0,3.553-4.8,35.4,35.4,0,0,1,6.169-7.431,41.56,41.56,0,0,1,8.02-5.872,40.554,40.554,0,0,1,20.136-5.388,38.759,38.759,0,0,1,19.874,5.587c9.136,5.405,18.8,11.884,27.135,17.534,9.717,6.689,17.689,12.1,23.7,16.089,1.867,1.248,3.961,2.576,6.179,3.982,3.313,2.1,7.067,4.483,10.8,7.069,7.669,5.318,13.356,10.4,17.894,15.99a51.029,51.029,0,0,1,8.746,15.084c7.306,19.888,13.283,39.019,19.381,62.032,4.336,16.366,8.4,33.3,12.7,51.226q1.542,6.42,3.161,13.147h0a66.457,66.457,0,0,1,1.859,16.306,104.452,104.452,0,0,1-1.3,15.784c-.615,4.048-1.407,8.144-2.5,12.891-.232,1.249-.495,2.43-.727,3.472-.229,1.024-.425,1.908-.559,2.69a27.849,27.849,0,0,1-1.221,4.369,48.545,48.545,0,0,1-2.044,4.893,107.2,107.2,0,0,1-7.133,12.628c-7.056,10.982-16.9,23.319-28.457,35.679l-.375.387c-.119.124-.219.247-.328.379-.141.172-.293.358-.5.573-.379.51-.9,1.125-1.494,1.837-.337.4-.694.825-1.063,1.276l-1.077,1.3c-1.981,2.4-4.448,5.38-7.311,8.975-5.186,6.355-11.522,14.251-18.858,23.393l-7.517,9.364c-5.819,7.274-11.993,15-18.3,22.894-16.156,20.215-32.863,41.118-47.081,58.8-15.517,19.383-24.676,30.748-29.7,36.854-.711.87-1.358,1.633-1.92,2.3-.6.706-1.1,1.3-1.483,1.788-5.2,6.013-11.034,13.545-17.208,21.52l-3.542,4.57a350.662,350.662,0,0,1-23.919,28.223,245.906,245.906,0,0,1-41.025,33.867,117.613,117.613,0,0,1-18.33,10.036c-7.788,3.17-14.372,4.724-20.729,4.892ZM681.512,511.3a181.861,181.861,0,0,1,21.379,9.412,268.865,268.865,0,0,0-24.654-12C679.269,509.557,680.35,510.411,681.512,511.3Z" transform="translate(-51.782 -71.886)" fill="#a855f7" stroke="#a855f7" stroke-miterlimit="10" stroke-width="3"/><path d="M777.812,619.075c-.738-2.761-1.476-6-2.306-9.426-1.107-5.142-2.213-10.76-3.6-16.283a105.9,105.9,0,0,0-4.888-15.9,111.183,111.183,0,0,0-11.067-20.186,74.354,74.354,0,0,0-15.861-17.044,199.243,199.243,0,0,0-32.831-19.519c-11.158-5.428-22.5-10.284-34.029-15.806l-6.548,14.663c11.9,5.713,23.24,10.474,33.937,15.711s20.75,10.759,30.341,18a58.906,58.906,0,0,1,12.357,13.426,95.348,95.348,0,0,1,9.407,17.234,54.657,54.657,0,0,1,2.766,8.379c1.292,4.761,2.49,10.093,3.6,15.52s2.306,10.76,3.6,15.711Z" transform="translate(-51.782 -71.886)" fill="#a855f7" stroke="#a855f7" stroke-miterlimit="10" stroke-width="3"/><path d="M680.754,522.1a5.642,5.642,0,0,1-.109,2.208c.819.372,1.652.731,2.464,1.108a5.552,5.552,0,0,1,.7-1.2Q682.272,523.162,680.754,522.1Z" transform="translate(-51.782 -71.886)" fill="#a855f7" stroke="#a855f7" stroke-miterlimit="10" stroke-width="3"/><path d="M998.126,809.414c-7.759-.088-15.922-1.748-24.963-5.075a165.782,165.782,0,0,1-22.651-10.5,231.086,231.086,0,0,1-53.135-39.975,94.614,94.614,0,0,1-8.342-9.666c-2.915-3.944-5.744-8-8.128-11.443-2.47-3.614-4.984-7.406-7.414-11.073-3.03-4.57-6.162-9.3-9.276-13.777-3.85-5.524-7.689-10.608-11.412-15.108a114.156,114.156,0,0,0-14.966-14.218,164.434,164.434,0,0,0-17.38-12.153c-4.706-2.914-10.714-5.134-16.509-7.1-1.159-.394-2.334-.783-3.52-1.177a138.975,138.975,0,0,1-15.616-5.889,46.9,46.9,0,0,1-12.008-7.6,23.7,23.7,0,0,1-6.031-9.047,53.908,53.908,0,0,1-2.416-8.634l-.256-1.274c-.257-1.286-.478-2.4-.755-3.467a19.924,19.924,0,0,0-1.433-4.081l-.221-.414,5.066-2.955.121.651c.545,2.941.952,5.667,1.245,8.337a4.616,4.616,0,0,0,5.212,4.087,3.326,3.326,0,0,0,3.093-3.981c-.405-3.712-1.014-7.6-1.808-11.547l-.781-3.878,1.648,3.577a34.111,34.111,0,0,1,1.468,3.836c.355,1.316.65,2.556.933,3.74l.276,1.151c.139.675.266,1.316.388,1.937A46.524,46.524,0,0,0,780,628.72a11.976,11.976,0,0,0,1.5,3.209,3.686,3.686,0,0,0,.681.805c.1.092.194.187.291.287a30.4,30.4,0,0,0,6.059,4.1,55.41,55.41,0,0,0,7.879,3.5c2.842,1.09,5.829,2.1,8.991,3.158s6.436,2.167,9.734,3.414a80.211,80.211,0,0,1,12.9,6.228A190.4,190.4,0,0,1,846.8,666.5a120.025,120.025,0,0,1,17.035,16.25c6.152,7.273,11.8,15.49,18.014,24.7l2.9,4.388c4.646,7.027,9.035,13.664,13.223,19.4a90.884,90.884,0,0,0,9.451,11.466,219.877,219.877,0,0,0,49.786,37.437,145.9,145.9,0,0,0,20.687,9.683c7.425,2.724,14.355,4.163,20.043,4.163h1.014a43.126,43.126,0,0,0,15.5-3.773,97.282,97.282,0,0,0,15.971-8.815,229.071,229.071,0,0,0,38.563-31.834,325.459,325.459,0,0,0,22.837-27c1.949-2.484,3.865-4.954,5.752-7.385,5.382-6.936,10.466-13.489,15.381-19.2.313-.457.88-1.129,1.6-1.981.277-.328.575-.682.888-1.059,1.1-1.423,2.5-3.157,4.15-5.142l2.471-3.06c2.81-3.479,6.159-7.623,9.882-12.264l9.28-11.568c7.922-9.872,16.912-21.076,26.224-32.707,27.4-34.321,56.008-70.024,71.2-88.84,3.126-3.9,5.77-7.117,7.7-9.465.811-.988,1.506-1.835,2.075-2.533l.4-.49c.356-.435.636-.776.915-1.064l.554-.572a269.25,269.25,0,0,0,19.878-23.566,160.719,160.719,0,0,0,11.216-17.274,73.387,73.387,0,0,0,3.292-7.175c.138-.479.26-.937.355-1.293.084-.313.148-.551.191-.686.353-1.935.819-4.153,1.372-6.53s1.112-4.973,1.657-7.7a95.641,95.641,0,0,0,1.835-17.519,52.3,52.3,0,0,0-1.369-12.64l-2.511-10.472c-4.716-19.686-8.789-36.686-13.257-53.6-5.918-22.3-11.744-40.991-18.891-60.611a31.785,31.785,0,0,0-4.274-8.169,51.577,51.577,0,0,0-6.3-7.264,105.766,105.766,0,0,0-16.07-12.229c-1.107-.7-2.218-1.388-3.319-2.074-2.7-1.678-5.247-3.264-7.662-4.882-5.787-3.847-13.155-8.84-23.889-16.189-9.593-6.569-18.737-12.49-26.445-17.125a23.5,23.5,0,0,0-12.494-3.554,26.669,26.669,0,0,0-10.065,2.061,28.757,28.757,0,0,0-8.259,5.248,21.687,21.687,0,0,0-3.6,4.275,59.793,59.793,0,0,1-6.884,8.743,55.245,55.245,0,0,1-9.394,8.162,30.931,30.931,0,0,1-7.584,3.674,15.47,15.47,0,0,1-10.84-.4c-13.9-6.144-27.683-12.366-41.014-18.383-27.061-12.212-52.621-23.748-80.146-35.217-14.569-6.088-28.763-12.551-42.49-18.8-11.709-5.332-23.818-10.845-35.808-15.955-31.056-13.351-56.458-21.8-82.364-27.4-32.237-6.934-68.014-10.513-109.375-10.94-12.874-.093-26.187-.19-39.465-.19-43.214,0-87.217.652-129.771,1.284-42.659.633-86.77,1.287-130.2,1.287-15.637,0-31.525-.1-47.223-.286-49.058-.68-88.5-4.556-124.124-12.2-19.523-4.2-38.12-10.106-57.037-16.294q-5.957-1.949-11.879-3.92c-14.278-4.733-29.042-9.626-43.616-13.594-2.078-.57-4.166-1.163-6.25-1.754-3.763-1.07-7.655-2.175-11.355-3.1A67.28,67.28,0,0,0,88.928,88.62,37.451,37.451,0,0,0,84.19,89a8.013,8.013,0,0,0-2.863,1.078,12.46,12.46,0,0,0-2.555,2.369,15.276,15.276,0,0,0-3.033,7.741c-2.189,20.97-3.288,44.492-4.35,67.239l-.168,3.582a19.69,19.69,0,0,0-.091,2.357,60.38,60.38,0,0,0,3.385,19.265A52.715,52.715,0,0,0,83.1,208.478a14.074,14.074,0,0,0,3.044,2.675,33.732,33.732,0,0,0,5.186,3.006,62.34,62.34,0,0,0,13.01,4.636,44.485,44.485,0,0,0,7.661,1.13c16.447.384,32,1.641,47.048,2.858s30.6,2.475,46.733,2.95c14.323.454,31.96,1.9,52.42,4.288,17.657,2.064,38.237,4.993,62.913,8.953,49.563,8.046,98.831,17.906,131.434,24.76,4.012.892,8.157,1.559,12.547,2.266,2.126.341,4.276.687,6.435,1.064a102.705,102.705,0,0,1,19.637,5.071,49.681,49.681,0,0,1,12.288,6.825,66.8,66.8,0,0,1,11.983,12.18,84.863,84.863,0,0,1,8.071,13.506,205.666,205.666,0,0,1,7.6,19.137c.964,2.69,1.874,5.23,2.835,7.753a91.87,91.87,0,0,0,7.431,15.822c4.273,6.961,10.039,13.923,15.632,20.408q1.819,2.115,3.688,4.256c4.8,5.518,9.762,11.224,14.314,17.288a98.04,98.04,0,0,1,10.1,16.075c4.142,8.355,6.758,17.3,8.885,25.03l.686,2.5a202.6,202.6,0,0,0,6.49,20.869,52.181,52.181,0,0,0,6.3,11.989,69.129,69.129,0,0,0,15.3,15.608c4.775,3.51,10.349,6.6,18.637,10.331,3.866,1.765,8.148,3.554,12.681,5.448l3.354,1.4q3.368,1.406,6.787,2.815c14.395,5.949,29.281,12.1,43.159,20.254l.4.235-.851,1.552-.4-.218a179.18,179.18,0,0,0-24.412-11.031l-.121-.066c-1.638-1.25-3.119-2.437-4.525-3.625a4.126,4.126,0,0,0-4.312-.741,4.756,4.756,0,0,0-2.978,3.48,3.446,3.446,0,0,0,1.352,3.257c.829.7,1.75,1.448,2.9,2.354l.1.079.047.12a4.057,4.057,0,0,0,.6,1.06l.43.538-.641.217a3.682,3.682,0,0,0-2.178,2.013l-.189.411-.406-.175c-4.689-2.016-9.509-4.022-14.169-5.961q-3.056-1.272-6.106-2.546-2.61-1.105-5.107-2.151c-6.652-2.792-12.934-5.429-18.715-8.337a87.929,87.929,0,0,1-20.3-13.591,84.448,84.448,0,0,1-12.142-13.493,55.443,55.443,0,0,1-6.6-11.425,98.582,98.582,0,0,1-4.63-12.335c-1.469-4.6-2.752-9.262-3.991-13.768-1.044-3.793-2.03-7.377-3.11-10.893a107.814,107.814,0,0,0-5.5-14.305c-3.032-6.175-7.5-12.711-14.049-20.569-2.526-3.028-5.239-6.145-7.863-9.161-3.356-3.856-6.827-7.844-10.123-11.885a132.909,132.909,0,0,1-11.013-15.289,113.76,113.76,0,0,1-9.538-20.65c-.742-2.014-1.459-4.019-2.168-6-1.7-4.746-3.3-9.229-5.109-13.5a77.436,77.436,0,0,0-5.862-11.351,46.739,46.739,0,0,0-11.512-12.738,36.546,36.546,0,0,0-8.653-4.7,69.518,69.518,0,0,0-10.9-3.12c-4.055-.876-8.285-1.567-12.765-2.3-4.177-.682-8.5-1.388-12.776-2.271-72.13-15.257-142.467-27.436-192.979-33.415-20.137-2.388-37.345-3.829-51.144-4.282-17.012-.589-33.168-1.895-47.422-3.048-14.6-1.18-30.2-2.373-46.272-2.855a57.725,57.725,0,0,1-13.939-2.3A70.656,70.656,0,0,1,83.738,227.4a43.728,43.728,0,0,1-8.1-5.2,29.011,29.011,0,0,1-3.841-3.774A67.959,67.959,0,0,1,60.552,197.9a74.73,74.73,0,0,1-4.27-24.443v-3.142q.273-5.382.536-10.816c1-20.45,2.04-41.6,4.078-60.934A32.571,32.571,0,0,1,64.92,86.1a27.27,27.27,0,0,1,8.826-9.214,23.755,23.755,0,0,1,8.287-3.017,53.78,53.78,0,0,1,6.8-.481,83.65,83.65,0,0,1,19.287,2.773c4,.971,7.9,2.093,11.683,3.177,2.156.619,4.264,1.224,6.312,1.778,19.67,5.495,38.682,12.049,56.47,18.291,16.645,5.5,36.046,11.718,55.553,15.886,34.38,7.451,74.048,11.341,121.274,11.892,15.615.19,31.437.286,47.027.286,43.214,0,87.216-.653,129.77-1.284,42.659-.633,86.771-1.287,130.2-1.287,13.346,0,26.722.1,39.658.19,42.153.429,78.864,4.139,112.231,11.341,34.041,7.405,63.315,18.966,85.016,28.211,12.333,5.253,24.61,10.83,36.482,16.223,13.534,6.147,27.529,12.5,41.717,18.434,27.747,11.586,54.534,23.661,80.439,35.338,13.319,6,27.092,12.213,40.937,18.33h.09a8.113,8.113,0,0,0,1.87-.542,24.873,24.873,0,0,0,3.395-2.035,45.734,45.734,0,0,0,7.67-7.167,50.26,50.26,0,0,0,3.553-4.8,35.4,35.4,0,0,1,6.169-7.431,41.56,41.56,0,0,1,8.02-5.872,40.554,40.554,0,0,1,20.136-5.388,38.759,38.759,0,0,1,19.874,5.587c9.136,5.405,18.8,11.884,27.135,17.534,9.717,6.689,17.689,12.1,23.7,16.089,1.867,1.248,3.961,2.576,6.179,3.982,3.313,2.1,7.067,4.483,10.8,7.069,7.669,5.318,13.356,10.4,17.894,15.99a51.029,51.029,0,0,1,8.746,15.084c7.306,19.888,13.283,39.019,19.381,62.032,4.336,16.366,8.4,33.3,12.7,51.226q1.542,6.42,3.161,13.147h0a66.457,66.457,0,0,1,1.859,16.306,104.452,104.452,0,0,1-1.3,15.784c-.615,4.048-1.407,8.144-2.5,12.891-.232,1.249-.495,2.43-.727,3.472-.229,1.024-.425,1.908-.559,2.69a27.849,27.849,0,0,1-1.221,4.369,48.545,48.545,0,0,1-2.044,4.893,107.2,107.2,0,0,1-7.133,12.628c-7.056,10.982-16.9,23.319-28.457,35.679l-.375.387c-.119.124-.219.247-.328.379-.141.172-.293.358-.5.573-.379.51-.9,1.125-1.494,1.837-.337.4-.694.825-1.063,1.276l-1.077,1.3c-1.981,2.4-4.448,5.38-7.311,8.975-5.186,6.355-11.522,14.251-18.858,23.393l-7.517,9.364c-5.819,7.274-11.993,15-18.3,22.894-16.156,20.215-32.863,41.118-47.081,58.8-15.517,19.383-24.676,30.748-29.7,36.854-.711.87-1.358,1.633-1.92,2.3-.6.706-1.1,1.3-1.483,1.788-5.2,6.013-11.034,13.545-17.208,21.52l-3.542,4.57a350.662,350.662,0,0,1-23.919,28.223,245.906,245.906,0,0,1-41.025,33.867,117.613,117.613,0,0,1-18.33,10.036c-7.788,3.17-14.372,4.724-20.729,4.892ZM682.512,511.3a181.861,181.861,0,0,1,21.379,9.412,268.865,268.865,0,0,0-24.654-12C680.269,509.557,681.35,510.411,682.512,511.3Z" transform="translate(-51.782 -71.886)" fill="#a855f7" stroke="#a855f7" stroke-miterlimit="10" stroke-width="3"/></svg>