<?xml version="1.0" encoding="utf-8"?>
<!-- Generator: Adobe Illustrator 22.0.1, SVG Export Plug-In . SVG Version: 6.00 Build 0)  -->
<svg version="1.1" id="Layer_1" xmlns="http://www.w3.org/2000/svg" xmlns:xlink="http://www.w3.org/1999/xlink" x="0px" y="0px"
	 viewBox="0 0 1254.9 739" style="enable-background:new 0 0 1254.9 739;" xml:space="preserve">
<style>
                    path, polyline, polygon, line, circle {
                        stroke: #a855f7 !important;
                        stroke-width: 3.5px !important;
                        fill: none !important;
                        stroke-linecap: round !important;
                        stroke-linejoin: round !important;
                        filter: drop-shadow(0px 0px 5px #a855f7) !important;
                    }
                </style>
<style type="text/css">
	.st0{fill:none;stroke:#A855F7;stroke-width:3.5;stroke-linecap:round;stroke-linejoin:round;stroke-miterlimit:10;}
</style>
<title>imsa_petit_le_mans</title>
<path class="st0" d="M608.9,433.9c10.5,4.8,20.6,8.8,30.1,13.3c9.5,4.4,18.4,9,26.9,15.2c4.3,3.2,8,7,11,11.3
	c3.3,4.6,6.1,9.4,8.3,14.5c1,2.3,1.8,4.7,2.4,7c1.2,4,2.2,8.5,3.2,13.1c1,4.6,2.1,9,3.2,13.3 M609.7,433.9
	c10.5,4.8,20.6,8.8,30.1,13.3c9.5,4.4,18.4,9,26.9,15.2c4.3,3.2,8,7,11,11.3c3.3,4.6,6.1,9.4,8.3,14.5c1,2.3,1.8,4.7,2.4,7
	c1.2,4,2.2,8.5,3.2,13.1c1,4.6,2.1,9,3.2,13.3 M699.5,521.7 M610.6,433.9c10.5,4.8,20.6,8.8,30.1,13.3c9.5,4.4,18.4,9,26.9,15.2
	c4.3,3.2,8,7,11,11.3c3.3,4.6,6.1,9.4,8.3,14.5c1,2.3,1.8,4.7,2.4,7c1.2,4,2.2,8.5,3.2,13.1c1,4.6,2.1,9,3.2,13.3 M616,434.7
	l-0.2,0.4l-0.4-0.2c-4.2-1.7-8.4-3.4-12.6-5c-1.8-0.7-3.6-1.4-5.4-2.1c-1.5-0.6-3.1-1.2-4.5-1.8c-5.9-2.4-11.5-4.6-16.6-7
	c-6.5-3-12.6-6.8-18-11.4c-4-3.4-7.6-7.2-10.8-11.3c-2.4-3-4.4-6.2-5.9-9.7c-1.6-3.3-3-6.8-4.1-10.4c-1.3-3.9-2.4-7.8-3.5-11.6
	c-0.9-3.2-1.8-6.2-2.7-9.1c-1.4-4.1-3-8.2-4.9-12c-2.7-5.2-6.6-10.7-12.5-17.3c-2.3-2.5-4.6-5.2-7-7.7c-3-3.2-6.1-6.6-9-10
	c-3.5-4-6.8-8.3-9.8-12.9c-3.4-5.5-6.3-11.3-8.4-17.4c-0.6-1.7-1.3-3.4-1.9-5.1c-1.5-4-2.9-7.8-4.5-11.3c-1.5-3.3-3.2-6.5-5.2-9.6
	c-2.7-4.1-6.2-7.8-10.2-10.7c-2.4-1.7-5-3-7.7-4c-3.2-1.1-6.3-2-9.7-2.6c-3.6-0.7-7.3-1.3-11.3-1.9c-3.7-0.6-7.5-1.1-11.3-1.9
	c-64-12.8-126.4-23.1-171.2-28.2c-17.9-2-33.2-3.2-45.4-3.6c-15.1-0.5-29.5-1.6-42.1-2.5c-13-1-26.8-2-41.1-2.4
	c-4.2-0.2-8.3-0.8-12.3-1.9c-4.3-1.1-8.4-2.6-12.4-4.6c-2.5-1.2-5-2.6-7.2-4.4c-1.3-1-2.4-2-3.4-3.2c-4.4-5.2-7.7-11.1-10-17.3
	c-2.4-6.5-3.7-13.4-3.7-20.5v-2.6c0.2-3,0.4-6.1,0.5-9.1c0.9-17.2,1.8-35,3.6-51.3c0.5-3.7,1.6-7.3,3.5-10.5
	c1.9-3.2,4.6-5.8,7.8-7.7c2.3-1.3,4.7-2.1,7.3-2.5c2-0.3,4-0.4,6.1-0.4c5.8,0.2,11.5,1,17.1,2.4c3.5,0.8,7,1.8,10.3,2.6
	c1.9,0.5,3.8,1.1,5.6,1.5c17.5,4.7,34.4,10.2,50.1,15.4c14.8,4.7,32,9.8,49.3,13.3c30.5,6.2,65.7,9.6,107.6,10
	c13.9,0.2,27.9,0.3,41.7,0.3c38.3,0,77.4-0.5,115.1-1.1c37.9-0.5,77-1.1,115.5-1.1c11.9,0,23.7,0.1,35.2,0.2
	c37.4,0.4,70,3.5,99.6,9.6c30.2,6.2,56.2,16,75.4,23.8c11,4.4,21.8,9.1,32.4,13.7c12,5.2,24.4,10.5,37,15.5
	c24.7,9.7,48.4,19.9,71.3,29.8c11.8,5.1,24,10.3,36.3,15.5h0.1c0.5-0.1,1.1-0.3,1.6-0.4c1.1-0.5,2.1-1.1,3-1.8
	c2.5-1.8,4.8-3.8,6.8-6.1c1.2-1.3,2.2-2.6,3.2-4c1.5-2.3,3.4-4.4,5.4-6.2c2.2-1.9,4.5-3.6,7.2-4.9c5.4-3,11.6-4.6,17.9-4.6
	s12.3,1.7,17.7,4.7c8.1,4.6,16.7,10,24.1,14.8c8.6,5.6,15.7,10.2,21,13.5c1.6,1.1,3.5,2.2,5.4,3.3c2.9,1.8,6.3,3.8,9.6,6
	c6.8,4.5,11.9,8.8,15.9,13.4c3.4,3.8,6,8.1,7.8,12.7c6.5,16.8,11.8,32.8,17.2,52.3c3.8,13.8,7.4,28,11.2,43.1
	c0.9,3.6,1.8,7.3,2.8,11.1l0,0c1.2,4.5,1.7,9.1,1.6,13.7c0,4.5-0.5,8.9-1.2,13.3c-0.5,3.4-1.3,6.8-2.2,10.9c-0.2,1.1-0.5,2-0.6,2.9
	c-0.2,0.9-0.4,1.6-0.5,2.3c-0.3,1.2-0.6,2.5-1.1,3.7c-0.5,1.4-1.1,2.8-1.8,4.1c-1.8,3.7-4,7.2-6.3,10.6c-6.3,9.2-15,19.7-25.3,30
	l-0.4,0.4c-0.1,0.1-0.2,0.2-0.3,0.4c-0.1,0.2-0.3,0.3-0.5,0.4c-0.4,0.4-0.8,1-1.4,1.6c-0.3,0.4-0.6,0.7-0.9,1.1l-1,1.1
	c-1.7,2-4,4.6-6.5,7.6c-4.6,5.4-10.2,12-16.8,19.7l-6.7,7.9c-5.2,6.1-10.6,12.6-16.2,19.3c-14.3,17-29.2,34.6-41.8,49.5
	c-13.8,16.3-21.9,25.9-26.4,31.1c-0.6,0.7-1.2,1.4-1.7,1.9c-0.5,0.6-1,1.1-1.4,1.5c-4.6,5.1-9.8,11.4-15.2,18.1l-3.2,3.9
	c-6.6,8.3-13.7,16.2-21.2,23.8c-11,10.7-23.2,20.3-36.4,28.5c-5.2,3.2-10.6,6.1-16.2,8.4c-6.9,2.6-12.8,4-18.4,4.1l-0.9,0
	c-6.9-0.1-14.1-1.5-22.1-4.3c-6.9-2.5-13.6-5.4-20.1-8.9c-17.3-9-33.3-20.4-47.1-33.6c-2.6-2.5-5.2-5.3-7.4-8.2
	c-2.6-3.3-5.1-6.8-7.3-9.7c-2.2-3.1-4.4-6.2-6.6-9.3c-2.7-3.9-5.4-7.8-8.2-11.6c-3.4-4.7-6.8-9-10.2-12.7
	c-4.1-4.4-8.5-8.3-13.2-11.9c-4.9-3.7-10.1-7.1-15.4-10.3c-4.2-2.5-9.5-4.3-14.7-6c-1-0.4-2.1-0.7-3.1-1c-4.7-1.4-9.3-3.1-13.9-4.9
	c-3.9-1.6-7.4-3.8-10.7-6.4c-2.4-2.1-4.2-4.7-5.3-7.6c-0.9-2.4-1.6-4.8-2.2-7.3l-0.3-1.1c-0.3-1.1-0.5-2-0.6-2.9
	c-0.3-1.2-0.7-2.4-1.3-3.4l-0.2-0.4 M611.5,433.9c10.5,4.8,20.6,8.8,30.1,13.3c9.5,4.4,18.4,9,26.9,15.2c4.3,3.2,8,7,11,11.3
	c3.3,4.6,6.1,9.4,8.3,14.5c1,2.3,1.8,4.7,2.4,7c1.2,4,2.2,8.5,3.2,13.1c1,4.6,2.1,9,3.2,13.3"/>
</svg>
