<svg id="Layer_1" data-name="Layer 1" xmlns="http://www.w3.org/2000/svg" viewBox="0 0 1024 768">
<style>
                    path, polyline, polygon, line, circle {
                        stroke: #a855f7 !important;
                        stroke-width: 3.5px !important;
                        fill: none !important;
                        stroke-linecap: round !important;
                        stroke-linejoin: round !important;
                        filter: drop-shadow(0px 0px 5px #) !important;
                    }
                </style>

<title>Watkins_Glen_International_Circuit_Map</title>
<path d="M998.5 508.5 L990.5 490.5 L975.5 478.5 L959.5 473.5 L785.5 472.5 L770.5 467.5 L758.5 450.5 L755.5 440.5 L757.5 421.5 L763.5 405.5 L773.5 395.5 L883.5 323.5 L906.5 303.5 L920.5 264.5 L919.5 235.5 L896.5 200.5 L879.5 190.5 L854.5 182.5 L746.5 187.5 L341.5 188.5 L314.5 198.5 L195.5 314.5 L98.5 325.5 L81.5 332.5 L71.5 341.5 L62.5 355.5 L53.5 388.5 L25.5 535.5 L33.5 549.5 L47.5 558.5 L187.5 569.5 L189.5 574.5 L267.5 574.5 L360.5 583.5 L432.5 584.5 L447.5 575.5 L459.5 552.5 L467.5 425.5 L483.5 400.5 L528.5 387.5 L669.5 361.5 L690.5 365.5 L702.5 382.5 L622.5 539.5 L624.5 571.5 L639.5 585.5 L963.5 568.5 L984.5 559.5 L991.5 551.5 L998.5 530.5 L998.5 508.5" />
</svg>