<svg viewBox="0 0 400 300" xmlns="http://www.w3.org/2000/svg"><path d="M137.1,236.6 L137.2,239.2 L137.3,240.9 L137.7,245.5 L138.3,249.1 L139.6,253.7 L140.9,256.7 L142.3,259.2 L144.3,261.9 L146.8,264.9 L149.5,267.6 L155.3,272.2 L161.2,275.8 L165.0,277.6 L169.1,279.1 L173.1,280.5 L177.3,281.4 L181.5,282.1 L186.2,282.5 L193.4,282.5 L196.5,77.5 L196.7,79.5 L196.9,80.4 L197.3,81.4 L197.9,82.3 L198.9,83.2 L199.6,83.6 L200.9,84.2 L284.1,107.0 L280.4,78.8 L280.0,75.8 L279.4,73.3 L278.6,70.9 L277.6,68.5 L276.4,66.1 L275.0,63.9 L273.4,61.6 L271.8,59.7 L270.2,58.0 L268.6,56.3 L266.5,54.5 L263.8,52.5 L261.4,51.0 L258.7,49.6 L255.2,47.8 L251.9,46.4 L248.8,45.4 L246.1,44.7 L243.3,44.0 L240.5,43.4 L237.2,43.0 L234.8,42.7 L232.2,42.5 L229.5,42.5 L226.9,42.5 L188.9,42.9 L185.7,43.0 L183.1,43.1 L180.4,43.4 L177.6,43.8 L174.5,44.4 L171.0,45.4 L168.8,46.1 L166.0,47.1 L163.5,48.1 L160.3,49.7 L157.6,51.1 L154.6,53.0 L152.5,54.6 L149.9,56.8 L147.9,58.8 L146.1,60.8 L144.5,62.9 L143.0,65.0 L141.8,67.2 L140.9,69.0 L140.1,71.0 L139.3,73.2 L138.7,75.2 L138.3,77.1 L138.0,79.4 L137.7,82.0 L137.6,83.9 L137.2,91.8 L196.5,257.8 L194.1,255.8 L193.1,255.1 L192.2,254.6 L191.5,254.4 L190.4,254.2 L189.7,254.2 L189.0,254.2 L163.3,257.0 L161.7,257.2 L160.0,257.3 L158.6,257.2 L157.0,257.1 L155.4,256.7 L153.8,256.3 L152.3,255.6 L150.9,254.9 L149.5,253.9 L148.1,252.5 L146.4,250.5 L144.5,247.0 L204.6,118.8 L204.7,124.2 L205.4,167.4 L205.8,200.1 L205.7,206.6 L206.0,208.4 L206.3,209.2 L206.9,209.7 L207.3,210.0 L208.1,210.4 L209.9,210.5 L224.3,210.1 L230.4,209.9 L232.7,210.2 L235.0,210.9 L236.8,211.7 L238.5,212.9 L239.3,213.9 L240.0,214.9 L240.4,216.0 L240.9,217.3 L242.1,219.3 L242.9,220.1 L244.0,220.9 L246.3,221.8 L247.6,222.2 L249.0,222.3 L252.1,222.4 L259.0,222.0 L265.8,221.7 L267.3,221.6 L268.4,221.8 L269.3,222.0 L270.0,222.4 L270.6,222.7 L271.1,223.1 L271.6,223.6 L272.2,224.3 L272.6,224.9 L273.0,225.6 L273.4,226.5 L273.8,227.5 L274.4,229.2 L274.9,231.0 L275.1,232.0 L275.2,233.2 L275.3,234.8 L275.2,236.3 L275.0,237.8 L273.3,246.5 L271.9,253.5 L271.1,257.4 L270.9,258.3 L270.6,259.3 L270.1,260.6 L269.7,261.6 L269.3,262.5 L268.6,264.0 L267.6,265.6 L266.7,266.8 L265.1,268.6 L263.4,270.1 L261.8,271.4 L260.2,272.9 L256.3,275.3 L253.9,276.4 L251.4,277.4 L248.7,278.3 L245.5,279.1 L243.5,279.4 L241.3,279.8 L236.2,280.4 L203.5,281.7 L200.0,281.3 L199.0,280.5 L198.9,280.2 L198.6,279.7 L198.5,279.1 L198.4,278.2 L199.3,263.2 L199.0,261.5 L198.5,260.2 L197.7,259.1 L196.5,257.8 L195.4,257.0 L194.7,256.8 L194.1,256.6 L193.4,256.5 L192.5,256.6 L191.6,256.8 L190.3,257.2 L174.5,262.1 L172.3,262.6 L169.9,263.1 L168.7,263.2 L166.9,263.3 L164.6,263.3 L162.7,263.1 L160.8,262.8 L159.2,262.5 L157.6,262.0 L155.8,261.3 L154.1,260.7 L152.4,259.7 L150.0,258.1 L148.4,256.8 L146.5,254.9 L144.4,252.0 L141.4,247.2 L139.8,243.8 L139.2,242.5 L138.8,241.1 L138.3,238.6 L137.8,235.5 L137.3,232.0 L137.2,227.8 L137.2,226.1 L137.1,222.9 L137.1,220.0 L137.0,216.4 L136.9,208.2 L136.9,204.0 L136.8,199.7 L136.7,195.5 L136.7,194.0 L149.5,76.4 L151.0,76.2 L152.6,75.7 L154.0,75.0 L155.3,74.2 L156.2,73.1 L157.1,71.1 L200.9,84.2 L202.1,84.7 L203.0,85.2 L203.6,85.9 L203.9,86.8 L204.0,87.8 L204.1,93.0 L205.8,200.1 L205.9,201.7 L206.1,202.8 L206.7,204.2 L207.8,205.6 L209.2,206.8 L210.9,208.0 L212.6,208.9 L214.3,209.4 L215.9,209.9 L217.8,210.2 L219.5,210.2 L224.3,210.1 L141.1,248.3 L142.3,251.4 L145.3,257.4 L146.7,259.7 L148.2,261.6 L149.9,263.6 L151.6,265.2 L153.6,267.1 L155.6,268.7 L158.1,270.6 L160.3,272.0 L162.5,273.2 L164.7,274.3 L166.8,275.2 L169.0,276.1 L171.6,277.0 L174.1,277.7 L176.7,278.5 L179.6,279.0 L182.4,279.5 L184.5,279.8 L186.9,280.0 L193.2,280.1 L236.5,282.1 L242.0,281.7 L246.8,280.9 L250.8,280.0 L254.6,278.8 L259.2,277.0 L262.4,275.4 L264.9,274.0 L267.4,272.5 L269.7,270.8 L271.9,269.1 L276.1,265.5 L278.6,262.6 L280.8,259.9 L282.7,256.3 L284.7,252.0 L285.4,249.8 L285.9,247.9 L286.3,245.6 L286.4,243.4 L286.3,238.6 L236.2,279.7 L241.0,279.3 L244.7,278.6 L247.4,278.1 L249.2,277.7 L251.2,277.1 L254.3,275.9 L256.1,275.2 L258.9,273.8 L261.8,272.3 L264.6,270.6 L267.7,268.7 L270.6,266.5 L273.3,264.0 L275.2,261.8 L277.0,259.4 L278.7,256.7 L280.1,254.1 L281.1,251.8 L281.7,249.6 L282.4,247.0 L282.8,244.6 L283.2,241.2 L285.9,201.3 L283.7,81.9 L283.4,77.3 L283.1,75.1 L282.7,72.8 L282.2,71.1 L281.7,69.5 L280.8,67.5 L280.0,65.8 L278.7,63.5 L277.1,61.1 L276.0,59.7 L274.2,57.7 L272.0,55.4 L269.4,53.2 L267.2,51.4 L264.9,49.9 L263.4,48.9 L261.9,47.9 L258.9,46.3 L256.5,45.1 L252.9,43.6 L250.0,42.6 L247.0,41.8 L243.7,41.1 L240.5,40.6 L236.2,40.2 L233.2,40.1 L230.1,40.0 L189.5,40.4 L184.8,40.4 L181.9,40.5 L178.7,40.8 L175.0,41.4 L171.3,42.3 L167.9,43.3 L164.5,44.6 L161.4,45.8 L157.9,47.4 L155.1,49.1 L152.3,50.9 L150.0,52.5 L147.9,54.2 L145.9,56.2 L144.4,57.9 L142.0,60.9 L139.8,64.1 L137.7,68.0 L136.8,70.2 L136.0,72.8 L135.2,76.3 L134.8,78.9 L134.8,81.5 L134.8,84.0 L134.8,85.5 L134.8,85.5 L134.8,92.6 L135.1,102.3 L135.5,120.2 L135.7,135.2 L135.8,141.2 L136.5,194.0 L138.7,86.8 L138.9,84.8 L139.3,82.7 L140.5,80.6 L141.3,79.2 L142.7,78.1 L143.8,77.4 L145.0,77.0 L146.5,76.6 L149.5,76.4 L138.9,92.6 L139.2,91.8 L139.8,91.0 L141.0,90.4 L143.0,89.9 L147.4,89.8 L150.6,89.5 L151.5,89.1 L152.3,88.8 L154.0,87.8 L155.4,86.6 L247.9,90.0 L248.2,90.9 L249.4,93.9 L251.5,96.5 L253.3,97.3 L254.9,97.6 L256.6,97.2 L258.2,96.6 L259.0,95.4 L259.2,93.8 L259.3,91.6 L258.1,87.6 L255.5,81.8 L254.3,80.2 L253.1,79.3 L251.6,78.8 L250.2,78.5 L248.8,78.7 L247.5,79.0 L246.5,79.6 L245.7,80.2 L245.3,81.2 L245.3,82.4 L245.7,84.1 L246.9,87.4 L247.9,90.0 L248.2,90.9 L250.0,91.5 L251.4,91.6 L252.7,91.0 L253.4,90.0 L253.4,88.8 L252.2,86.4 L251.3,85.5 L250.0,85.2 L248.5,85.5 L247.3,86.3 L246.9,87.4 L157.4,83.7 L157.5,83.1 L157.6,82.3 L157.6,80.7 L156.9,74.8 L156.8,73.9 L156.9,73.0 L156.9,72.0 L157.1,71.1 L157.4,70.0 L157.6,69.2 L158.1,68.0 L158.7,66.7 L159.1,65.9 L159.6,65.0 L160.1,64.3 L160.7,63.5 L161.5,62.6 L162.3,61.8 L163.3,60.9 L164.2,60.2 L165.3,59.3 L166.9,58.3 L168.2,57.7 L169.5,57.1 L172.1,56.1 L178.4,53.8 L182.0,52.5 L182.3,52.4 L182.6,52.3 L183.2,52.2 L183.8,52.1 L184.5,52.1 L185.1,52.0 L185.7,52.1 L186.3,52.1 L186.9,52.3 L187.4,52.4 L187.8,52.5 L188.4,52.7 L188.8,52.9 L190.2,53.6 L191.5,54.4 L192.9,55.4 L193.8,56.3 L194.5,57.2 L195.0,57.9 L195.3,58.5 L195.7,59.2 L196.0,60.2 L196.2,61.2 L196.3,62.5 L196.3,65.6 L196.3,69.4 L196.5,77.5 L196.5,77.5 L196.5,79.5 L196.4,80.6 L196.1,81.7 L195.7,82.5 L195.3,83.2 L194.8,84.0 L194.1,84.8 L193.4,85.5 L192.4,86.2 L191.0,87.0 L189.3,88.0 L172.3,97.4 L168.3,99.5 L167.0,100.4 L165.6,101.4 L164.7,102.6 L164.0,103.8 L163.5,105.1 L163.3,106.2 L163.5,107.4 L163.7,108.3 L164.1,109.3 L164.5,110.1 L165.1,110.9 L166.0,111.9 L166.4,112.3 L167.0,112.8 L168.2,113.5 L169.2,114.2 L170.3,114.7 L171.6,115.1 L173.0,115.5 L174.8,115.8 L176.5,115.9 L177.6,115.9 L178.6,115.8 L180.1,115.5 L181.8,115.1 L183.1,114.6 L184.9,113.7 L190.2,110.8 L191.9,110.1 L193.0,109.7 L194.2,109.5 L195.4,109.5 L196.7,109.7 L197.7,110.0 L198.6,110.4 L199.3,110.7 L200.2,111.3 L200.9,111.8 L201.5,112.4 L202.1,113.1 L202.7,113.7 L203.1,114.4 L203.5,115.1 L203.8,115.9 L204.1,116.7 L204.4,117.8 L204.6,118.8 L136.7,194.0 L136.7,191.2 L136.6,184.4 L136.2,153.3 L135.7,120.3 L135.3,91.9 L135.8,90.4 L136.6,89.7 L137.9,89.3 L141.2,89.1 L144.6,89.1 L147.3,89.1 L148.8,89.0 L149.5,89.0 L150.7,88.8 L151.6,88.6 L152.7,88.2 L153.8,87.7 L154.7,87.1 L155.4,86.6 L156.2,85.9 L156.7,85.2 L157.0,84.7 L157.3,84.1 L157.4,83.7 Z" fill="none" stroke="#a855f7" stroke-width="3.5" stroke-linecap="round" stroke-linejoin="round"/></svg>