<svg viewBox="0 0 400 300" xmlns="http://www.w3.org/2000/svg">
  <path d="M147.6,240.5 L147.7,239.0 L147.9,237.1 L148.1,234.5 L148.3,232.3 L148.6,228.8 L148.8,226.4 L149.1,223.4 L149.4,220.3 L149.6,218.3 L149.8,215.4 L150.1,212.0 L150.3,210.0 L150.5,206.7 L150.7,204.7 L150.9,202.9 L151.1,200.6 L151.4,197.2 L151.5,195.4 L151.7,193.6 L152.1,188.4 L152.4,185.4 L152.5,183.6 L152.7,182.0 L152.9,179.7 L153.1,177.2 L153.2,175.3 L153.5,172.1 L153.9,168.0 L154.3,163.4 L154.6,159.1 L154.7,158.6 L154.9,156.1 L155.1,153.4 L155.4,149.5 L155.5,148.6 L155.7,146.2 L155.9,144.4 L156.1,141.4 L156.2,140.5 L156.5,138.5 L156.9,137.1 L157.1,136.7 L157.8,135.8 L158.1,135.5 L159.0,135.0 L159.6,134.9 L159.8,134.8 L160.9,134.6 L161.6,134.1 L161.8,133.6 L161.9,133.4 L162.2,132.5 L162.2,132.1 L162.2,131.5 L162.2,130.9 L162.1,130.3 L162.0,129.9 L161.8,128.9 L161.6,128.1 L161.3,127.2 L161.2,126.6 L160.7,124.8 L160.4,123.8 L160.0,121.9 L159.7,120.6 L159.3,118.5 L159.0,116.6 L158.9,114.6 L158.8,113.3 L158.8,110.2 L158.8,109.5 L158.8,107.8 L158.9,105.6 L159.1,103.3 L159.2,101.4 L159.4,99.6 L160.0,96.1 L160.8,92.5 L160.8,92.3 L161.9,89.1 L163.0,86.5 L164.4,83.6 L164.8,82.9 L165.7,81.6 L166.9,79.8 L168.7,77.5 L170.5,75.6 L170.7,75.5 L173.1,73.3 L174.5,72.2 L176.9,70.6 L179.1,69.3 L181.6,68.0 L185.6,66.3 L188.0,65.5 L191.5,64.6 L194.1,64.0 L196.2,63.7 L199.6,63.2 L201.9,62.9 L204.6,62.7 L208.7,62.3 L210.8,62.2 L214.9,61.8 L217.2,61.6 L219.2,61.5 L220.9,61.4 L223.7,61.3 L227.4,61.1 L229.5,61.0 L231.2,60.9 L234.0,60.8 L236.2,60.7 L237.6,60.7 L239.0,60.6 L241.3,60.5 L243.0,60.1 L244.3,59.7 L245.0,59.4 L246.1,58.6 L246.5,58.0 L246.8,57.5 L247.6,56.0 L248.6,54.9 L249.2,54.5 L250.1,54.0 L250.3,54.0 L251.3,53.6 L253.0,53.1 L254.1,52.9 L255.1,52.7 L255.9,52.6 L257.2,52.4 L259.6,51.8 L261.1,51.3 L261.6,51.2 L262.9,50.8 L264.3,50.3 L265.6,49.9 L267.9,49.1 L269.5,48.4 L270.8,47.9 L272.6,47.2 L274.6,46.6 L276.4,46.0 L277.4,45.6 L279.7,44.9 L281.0,44.5 L282.4,44.2 L284.9,44.1 L287.2,44.5 L288.5,44.9 L291.3,46.8 L292.7,48.6 L293.6,50.5 L294.2,52.2 L294.5,53.4 L294.9,55.9 L295.0,57.5 L295.3,59.9 L295.4,61.7 L295.5,63.4 L295.6,65.1 L295.8,68.1 L296.0,70.4 L296.4,73.9 L296.6,77.6 L296.6,78.6 L296.3,80.6 L295.7,82.3 L294.8,83.7 L294.1,84.5 L293.3,85.3 L290.8,86.9 L288.9,87.8 L287.0,88.8 L284.9,89.8 L282.9,91.0 L281.5,91.7 L279.7,92.7 L278.2,93.4 L276.4,94.4 L274.4,95.5 L272.7,96.5 L270.8,97.6 L268.4,98.9 L265.8,100.4 L264.3,101.3 L262.4,102.3 L261.1,103.1 L259.7,103.9 L257.2,105.4 L255.0,106.8 L250.9,109.9 L249.1,111.4 L248.0,112.3 L244.8,115.0 L242.5,117.0 L240.1,119.1 L238.6,120.4 L237.2,121.6 L234.5,123.9 L232.6,125.6 L230.7,127.2 L229.2,128.5 L227.7,129.8 L225.1,132.2 L222.4,134.5 L218.8,137.6 L216.1,139.9 L215.5,140.5 L212.7,142.9 L210.7,144.7 L209.3,145.8 L207.3,147.6 L205.6,149.1 L203.2,151.1 L201.2,152.9 L198.8,155.1 L198.4,155.4 L197.3,156.4 L196.2,157.7 L195.0,159.6 L194.5,161.2 L194.4,162.8 L194.4,165.1 L194.4,166.5 L194.3,168.0 L193.8,170.6 L193.5,171.7 L192.9,173.1 L192.4,173.9 L191.0,175.9 L189.9,177.1 L187.7,179.4 L187.1,180.3 L185.9,182.9 L185.1,185.6 L184.8,187.7 L184.6,189.5 L184.4,192.4 L184.2,194.8 L183.8,198.3 L183.8,198.7 L183.4,202.5 L183.2,204.8 L182.9,207.9 L182.9,208.7 L182.5,212.8 L182.2,215.8 L182.0,217.6 L181.8,219.9 L181.6,222.7 L181.4,225.0 L181.2,227.3 L180.9,229.7 L180.6,233.1 L180.3,236.2 L180.1,239.2 L179.9,240.8 L179.7,243.2 L179.5,245.5 L179.2,248.1 L179.1,250.0 L178.8,252.5 L178.6,255.3 L178.2,259.2 L178.1,260.3 L178.0,262.0 L177.7,264.8 L177.5,267.2 L177.3,269.2 L176.9,273.7 L176.5,278.1 L176.2,281.0 L176.0,282.9 L175.6,286.6 L175.3,289.4 L175.0,291.0 L174.5,294.0 L174.1,295.4 L173.7,296.7 L173.0,298.5 L171.6,300.7 L170.4,301.9 L168.7,303.0 L167.4,303.6 L165.3,304.0 L164.1,304.1 L163.0,304.0 L161.0,303.6 L159.6,303.1 L158.3,302.5 L156.8,301.6 L155.4,300.7 L154.1,299.5 L152.7,298.0 L152.4,297.6 L151.1,295.8 L150.1,294.0 L148.9,291.7 L147.6,287.9 L146.7,284.0 L146.3,281.8 L146.1,279.2 L146.0,276.1 L145.9,274.0 L145.9,271.4 L146.0,268.6 L146.0,265.2 L146.1,263.9 L146.1,262.0 L146.2,259.8 L146.3,257.7 L146.5,255.5 L146.6,252.8 L146.7,251.7 L147.1,246.8 L147.3,244.3 Z"
    fill="none"
    stroke="#FF6600"
    stroke-width="4"
    stroke-linecap="round"
    stroke-linejoin="round"/>
</svg>