<svg viewBox="0 0 400 300" xmlns="http://www.w3.org/2000/svg"><path d="M82.0,170.5 L85.3,163.2 L88.0,158.5 L90.0,154.5 L92.6,150.0 L95.0,146.9 L96.9,144.4 L99.6,141.1 L102.1,138.2 L105.0,135.2 L108.4,132.1 L111.1,130.0 L113.9,127.9 L116.7,125.8 L120.7,123.3 L123.3,121.4 L125.8,120.1 L128.7,118.6 L132.3,116.8 L136.3,115.3 L140.2,113.9 L144.4,112.5 L148.7,111.2 L153.1,110.2 L158.2,109.3 L163.3,108.4 L166.3,108.2 L168.8,107.8 L172.8,107.4 L177.7,107.0 L181.7,106.9 L185.6,106.9 L189.3,107.0 L192.6,107.1 L197.2,107.5 L200.6,108.0 L204.9,108.7 L208.3,109.6 L212.7,111.0 L216.6,112.4 L220.7,113.8 L224.3,115.2 L227.6,116.6 L231.1,118.3 L234.4,120.1 L237.7,122.1 L241.4,124.3 L244.1,126.4 L247.4,128.9 L251.5,132.3 L254.8,135.5 L257.9,139.2 L261.4,144.1 L263.7,147.9 L265.8,152.0 L267.7,156.0 L269.2,160.8 L269.9,164.0 L270.7,167.7 L271.0,170.2 L270.9,174.5 L270.7,178.6 L270.1,182.9 L269.7,185.9 L269.5,188.4 L268.1,193.1 L267.0,196.4 L266.1,198.9 L264.6,202.0 L263.3,204.5 L261.3,207.9 L259.0,212.2 L256.8,215.5 L254.2,218.6 L251.6,222.3 L249.4,225.4 L246.2,229.5 L244.3,231.8 L240.9,236.0 L238.7,238.7 L236.0,241.7 L232.6,244.9 Z" fill="none" stroke="#f97316" stroke-width="3.5" stroke-linecap="round" stroke-linejoin="round"/></svg>