<svg xmlns="http://w3.org" viewBox="0 0 800 600" width="100%" height="100%">
  <path d="M 264.58 367.57 L 272.99 268.70 L 276.81 227.25 L 277.22 225.56 L 278.41 224.59 L 279.88 224.36 L 281.69 224.59 L 283.39 224.72 L 284.97 224.59 L 286.04 223.74 L 286.89 222.54 L 287.10 221.46 L 287.10 220.26 L 281.15 197.65 L 280.31 191.49 L 279.98 185.93 L 280.41 179.88 L 282.64 150.41 L 283.50 145.59 L 284.55 141.10 L 286.15 136.28 L 288.27 131.08 L 290.70 126.00 L 294.31 120.31 L 298.02 115.62 L 303.02 110.29 L 308.43 105.57 L 314.48 101.24 L 320.95 97.50 L 328.26 93.86 L 335.59 91.32 L 343.66 89.04 L 352.79 87.45 L 362.13 86.60 L 398.52 83.48 L 443.09 80.81 L 445.74 80.58 L 447.12 79.84 L 448.29 78.63 L 449.76 73.43 L 450.40 71.99 L 451.46 71.02 L 453.27 70.43 L 459.31 69.33 L 465.89 67.89 L 475.23 64.87 L 516.93 50.85 L 520.54 50.00 L 523.94 50.00 L 527.22 50.62 L 529.55 51.56 L 531.80 52.90 L 533.91 54.36 L 536.56 57.25 L 538.05 59.54 L 539.11 62.33 L 539.65 65.46 L 541.44 85.27 L 544.85 119.11 L 544.74 122.13 L 544.20 124.08 L 543.36 125.77 L 541.98 126.98 L 539.43 128.67 L 512.16 143.41 L 489.99 155.84 L 476.18 163.45 L 469.50 167.32 L 461.97 172.63 L 456.55 176.76 L 451.89 180.86 L 427.69 201.65 L 410.51 217.23 L 374.21 249.12 L 352.36 268.34 L 349.38 271.37 L 348.22 273.29 L 348.00 275.21 L 348.00 277.52 L 348.75 282.60 L 348.97 285.36 L 348.97 289.36 L 348.65 291.54 L 347.79 294.31 L 346.51 297.56 L 344.40 300.85 L 341.53 304.23 L 338.25 307.00 L 335.59 309.05 L 334.21 310.64 L 333.16 312.79 L 332.19 316.79 L 329.97 335.04 L 327.64 354.50 L 309.60 528.96 L 308.85 535.24 L 308.11 538.16 L 306.62 541.16 L 304.60 543.59 L 302.27 545.77 L 298.99 547.92 L 295.38 549.26 L 291.24 550.00 L 287.73 549.74 L 284.45 549.03 L 280.63 547.56 L 276.92 545.87 L 274.16 543.95 L 270.86 541.41 L 267.15 537.41 L 264.60 533.80 L 262.38 529.93 L 260.46 525.34 L 258.67 520.27 L 257.29 515.06 L 256.64 510.60 L 255.91 503.83 L 255.80 497.07 L 255.69 490.66 L 255.37 477.97 L 255.15 466.85 L 255.37 454.77 L 256.75 438.96 L 261.95 388.92 L 264.58 367.57" fill="none" stroke="#e10600" stroke-width="4.5" stroke-linecap="round" stroke-linejoin="round" />
</svg>