<svg viewBox="0 0 400 300" xmlns="http://www.w3.org/2000/svg">
  <path d="M302.4,146.1 L303.9,147.9 L307.4,151.9 L309.3,154.1 L312.6,158.0 L313.6,159.2 L316.0,161.9 L318.6,165.0 L322.4,169.4 L326.2,173.9 L328.7,176.8 L330.7,179.2 L333.6,182.5 L335.7,185.0 L338.8,188.6 L342.1,192.5 L344.4,195.2 L344.6,195.5 L346.7,197.9 L350.2,202.1 L352.1,204.3 L353.8,206.3 L355.9,208.8 L358.7,212.0 L361.9,215.7 L365.3,219.8 L367.2,222.1 L369.5,224.8 L371.8,227.6 L375.2,232.0 L377.7,238.6 L378.0,241.9 L377.7,244.5 L376.3,250.1 L374.9,253.9 L373.7,255.6 L370.8,258.0 L367.4,259.2 L365.5,259.4 L361.5,259.1 L360.1,258.6 L357.3,257.0 L356.0,255.9 L355.5,255.3 L354.3,253.7 L351.8,250.0 L350.3,247.4 L348.6,244.3 L347.0,241.4 L345.9,239.6 L344.9,238.0 L341.9,233.8 L340.3,231.9 L337.8,229.4 L336.0,228.1 L331.4,226.0 L327.6,225.4 L323.5,225.2 L319.8,224.4 L315.8,222.3 L314.1,220.9 L311.7,217.6 L311.6,217.4 L310.3,213.8 L309.4,210.8 L308.7,208.1 L308.6,207.8 L307.6,204.3 L306.6,202.0 L303.5,198.2 L302.7,197.4 L299.6,195.5 L296.4,194.4 L293.8,194.0 L288.8,193.7 L283.6,193.1 L281.6,192.5 L279.8,191.8 L277.7,190.6 L276.2,189.5 L273.9,187.3 L272.3,185.3 L271.8,184.5 L270.3,181.2 L269.9,178.6 L270.0,176.8 L270.4,175.0 L271.7,171.8 L272.5,169.8 L273.4,167.5 L274.4,165.0 L275.3,162.7 L276.0,160.3 L276.3,157.6 L275.8,154.6 L274.3,151.2 L272.7,149.0 L270.5,147.1 L267.5,145.3 L264.5,143.9 L261.7,142.6 L257.4,141.0 L252.9,139.9 L249.0,139.3 L246.3,139.1 L242.6,139.1 L241.2,139.1 L237.7,139.4 L233.7,140.4 L229.3,142.0 L225.0,144.2 L222.4,145.7 L219.6,147.7 L217.9,149.2 L214.1,153.5 L212.1,156.2 L210.6,158.3 L208.4,161.2 L206.3,164.0 L202.6,168.6 L199.4,172.4 L196.8,174.7 L195.0,175.6 L191.9,176.3 L189.1,176.8 L184.4,177.6 L183.6,177.7 L177.7,178.5 L175.7,178.6 L174.4,178.6 L171.8,178.4 L170.6,178.2 L168.2,177.1 L166.5,175.4 L165.4,173.4 L164.7,170.9 L164.3,167.7 L164.0,165.6 L163.6,163.0 L163.2,161.2 L162.8,159.6 L162.1,156.5 L161.8,154.8 L160.9,150.7 L160.2,147.5 L159.5,144.5 L159.1,142.5 L158.2,137.9 L157.2,133.1 L156.7,130.3 L156.0,126.4 L155.8,124.0 L155.9,120.9 L156.4,117.7 L157.6,113.9 L158.3,112.0 L159.7,109.1 L161.0,106.3 L161.8,104.5 L162.2,103.4 L162.5,102.1 L162.6,101.0 L162.4,99.6 L162.1,98.8 L161.2,97.6 L159.4,96.6 L158.7,96.6 L157.9,96.6 L156.9,96.9 L156.1,97.3 L155.1,98.0 L154.8,98.4 L153.6,100.0 L153.0,101.0 L152.4,102.3 L151.3,104.4 L150.7,105.6 L149.9,107.0 L148.6,109.2 L146.9,112.0 L144.1,116.2 L142.6,118.5 L142.2,119.0 L140.5,121.4 L139.3,123.0 L136.2,126.1 L134.1,127.8 L131.8,129.6 L128.1,131.6 L124.8,132.8 L121.9,133.3 L117.5,133.8 L113.4,134.1 L108.1,134.0 L105.6,133.7 L102.1,133.2 L98.0,132.2 L94.5,131.2 L90.7,129.9 L85.6,127.9 L82.6,126.7 L79.8,125.3 L77.5,124.0 L75.5,122.7 L72.4,120.5 L70.1,118.6 L66.4,114.8 L64.7,112.8 L62.2,109.1 L61.1,107.4 L59.0,103.1 L57.5,99.5 L56.6,97.3 L55.6,95.1 L54.4,92.3 L53.1,89.3 L52.1,87.2 L49.4,82.0 L45.3,77.2 L42.8,75.7 L40.7,75.1 L37.8,74.7 L36.4,74.7 L33.0,74.8 L29.3,75.4 L26.9,76.1 L24.3,77.1 L22.8,77.9 L21.6,78.8 L19.5,81.4 L19.0,82.4 L18.5,83.7 L18.0,86.4 L18.0,87.8 L18.2,89.4 L18.9,92.1 L19.6,93.6 L21.2,96.4 L22.3,97.8 L23.9,99.5 L25.7,101.3 L27.4,102.8 L31.0,105.6 L33.1,107.2 L37.4,110.4 L39.1,111.5 L41.2,112.9 L43.1,114.2 L46.7,116.5 L48.5,117.6 L51.5,119.4 L53.3,120.5 L57.2,122.6 L59.6,123.9 L63.8,126.1 L65.8,127.1 L68.8,128.6 L74.0,131.0 L78.5,132.9 L82.6,134.4 L84.8,135.2 L87.3,136.1 L90.6,137.2 L93.6,138.3 L97.3,139.5 L101.5,140.9 L106.2,142.5 L106.5,142.6 L111.0,144.1 L115.0,145.5 L117.9,146.4 L120.2,147.2 L121.7,147.7 L126.3,149.3 L129.2,150.2 L133.5,151.7 L137.0,152.8 L141.9,154.5 L147.4,156.3 L150.0,157.2 L152.9,158.2 L156.7,159.4 L161.1,160.9 L165.7,162.5 L166.3,162.7 L171.3,163.8 L174.2,163.6 L179.1,162.3 L181.7,161.3 L185.1,159.9 L187.3,158.9 L192.9,155.8 L198.8,151.7 L203.2,148.1 L206.1,145.4 L207.6,144.0 L211.1,140.6 L214.2,137.7 L218.0,133.8 L221.8,130.1 L223.6,128.3 L224.9,127.0 L226.7,125.4 L228.5,124.0 L229.9,123.2 L231.3,122.6 L233.2,122.1 L234.7,122.0 L235.3,122.1 L236.6,122.5 L237.5,123.1 L239.1,124.5 L240.8,125.5 L241.5,125.8 L242.9,125.9 L244.5,125.7 L246.0,125.2 L247.0,124.6 L247.7,124.1 L248.7,123.1 L249.5,122.3 L251.2,120.8 L252.5,119.7 L254.0,118.9 L256.8,117.9 L258.1,117.6 L260.6,117.4 L264.4,117.5 L269.3,118.4 L272.5,119.4 L277.0,121.3 L279.4,122.7 L280.9,123.6 L284.7,126.5 L287.5,129.1 L289.0,130.6 L291.1,132.8 L292.6,134.5 L295.2,137.6 L297.0,139.7 Z"
    fill="none"
    stroke="#FF6600"
    stroke-width="4"
    stroke-linecap="round"
    stroke-linejoin="round"/>
</svg>