<svg id="Layer_1" data-name="Layer 1" xmlns="http://www.w3.org/2000/svg" viewBox="0 0 421 211">
<style>
                    path, polyline, polygon, line, circle {
                        stroke: #ffcc00 !important;
                        stroke-width: 3.5px !important;
                        fill: none !important;
                        stroke-linecap: round !important;
                        stroke-linejoin: round !important;
                        filter: drop-shadow(0px 0px 5px #ffe600) !important;
                    }
                </style>

<title>la Sarthe</title>
<path d="M322.0 25.5 L315.0 25.5 L311.0 27.5 L307.0 27.5 L267.0 38.5 L257.0 44.5 L252.0 44.5 L250.0 46.5 L249.0 49.5 L246.0 50.5 L239.0 55.5 L223.0 63.5 L218.0 67.5 L211.0 71.5 L209.0 71.5 L183.0 86.5 L178.0 91.5 L174.0 91.5 L169.0 95.5 L160.0 99.5 L153.0 103.5 L148.0 107.5 L139.0 111.5 L130.0 116.5 L125.0 120.5 L117.0 124.5 L102.0 139.5 L98.0 145.5 L98.0 148.5 L103.0 155.5 L108.0 160.5 L113.0 160.5 L116.0 163.5 L116.0 167.5 L120.0 171.5 L123.0 172.5 L130.0 179.5 L134.0 179.5 L139.0 184.5 L141.0 185.5 L157.0 185.5 L174.0 182.5 L177.0 181.5 L180.0 178.5 L183.0 177.5 L185.0 174.5 L200.0 166.5 L206.0 166.5 L213.0 163.5 L217.0 163.5 L221.0 166.5 L226.0 166.5 L230.0 164.5 L232.0 159.5 L239.0 156.5 L241.0 156.5 L249.0 161.5 L254.0 160.5 L265.0 149.5 L270.0 146.5 L279.0 138.5 L292.0 133.5 L296.0 130.5 L302.0 128.5 L303.0 125.5 L297.0 117.5 L297.0 113.5 L303.0 110.5 L305.0 105.5 L309.0 99.5 L316.0 83.5 L322.0 60.5 L323.0 46.5 L322.0 25.5" />
</svg>