<svg viewBox="0 0 400 300" xmlns="http://www.w3.org/2000/svg"><path d="M289.4,78.4 L275.6,81.4 L270.8,82.5 L252.8,87.0 L244.3,89.1 L237.0,90.9 L235.3,91.2 L233.6,91.5 L231.8,91.6 L230.1,91.5 L228.3,91.2 L226.7,90.8 L225.1,90.2 L223.6,89.4 L222.3,88.4 L221.2,87.4 L220.3,86.3 L219.4,85.1 L211.9,73.5 L201.1,56.9 L197.0,50.6 L192.4,43.6 L188.4,37.5 L187.7,36.5 L186.9,35.2 L185.9,34.0 L185.3,33.5 L184.5,33.1 L183.7,32.9 L182.8,32.7 L181.8,32.8 L181.0,32.9 L180.2,33.2 L179.4,33.7 L178.4,34.6 L177.1,36.1 L170.8,43.8 L127.0,91.7 L124.3,94.7 L119.5,100.6 L101.4,132.9 L99.7,136.5 L98.3,140.2 L97.6,142.7 L97.0,146.6 L96.8,150.0 L96.7,159.1 L96.8,167.4 L96.9,169.4 L97.5,181.3 L97.9,188.6 L211.9,73.5 L203.7,64.0 L198.8,57.9 L195.7,54.3 L187.8,45.3 L186.6,43.8 L186.0,42.5 L185.7,41.3 L185.7,40.2 L185.4,39.1 L185.0,38.2 L184.3,37.6 L183.1,37.4 L182.2,37.5 L181.3,37.9 L178.0,41.7 L155.7,65.7 L132.5,90.7 L130.0,93.4 L126.3,97.5 L123.2,101.0 L121.5,103.2 L120.2,105.6 L115.5,114.4 L112.0,120.5 L109.6,123.8 L108.6,125.2 L104.0,133.3 L102.7,135.9 L101.1,139.8 L100.0,143.5 L99.7,145.7 L99.5,147.2 L99.4,150.1 L99.4,157.0 L99.5,162.5 L99.8,168.0 L100.0,170.5 L102.1,184.7 L102.6,187.3 L103.1,188.9 L103.7,190.0 L104.8,191.1 L106.0,191.9 L107.5,192.4 L109.3,192.5 L111.0,192.1 L112.6,191.5 L114.0,190.4 L115.4,188.8 L116.2,187.1 L117.0,184.9 L117.2,183.4 L117.5,179.2 L201.6,150.8 L202.3,152.6 L202.7,154.7 L205.5,182.7 L205.7,186.0 L205.7,188.9 L205.2,194.1 L204.6,198.3 L203.5,202.8 L201.5,208.8 L193.6,231.3 L191.4,237.5 L189.2,243.6 L187.4,248.6 L186.9,250.0 L186.7,251.4 L186.5,252.8 L186.6,254.2 L186.9,255.6 L187.3,256.8 L187.9,258.1 L188.7,259.4 L189.7,260.6 L190.8,261.7 L192.1,262.6 L193.6,263.4 L195.0,264.0 L196.5,264.6 L198.1,265.0 L199.7,265.5 L201.4,265.8 L203.1,266.0 L204.7,266.1 L206.3,266.2 L208.3,266.2 L211.9,266.0 L222.3,264.9 L252.3,260.5 L276.0,257.6 L279.7,257.2 L285.5,256.4 L293.9,255.2 L298.1,254.6 L302.6,254.0 L303.9,253.6 L305.1,253.1 L306.2,252.4 L307.0,251.6 L307.6,250.7 L313.0,242.6 L317.1,236.0 L318.3,233.9 L319.2,232.0 L319.9,230.1 L320.8,227.6 L321.4,225.6 L322.4,221.2 L323.2,216.3 L327.8,142.6 L329.4,139.0 L329.9,137.3 L329.9,136.0 L329.6,134.7 L328.8,133.5 L327.5,132.6 L325.8,132.1 L323.1,131.9 L320.9,131.8 L319.3,131.5 L317.8,130.9 L316.4,130.0 L315.3,128.9 L314.7,127.6 L313.7,124.1 L313.0,119.4 L313.0,119.4 L312.6,115.4 L312.7,111.2 L313.4,107.4 L313.8,104.2 L313.7,100.8 L313.3,97.9 L312.4,93.7 L311.1,90.0 L311.1,90.0 L309.6,87.5 L307.9,85.4 L305.5,83.2 L303.2,81.5 L300.8,80.1 L298.9,79.3 L296.7,78.7 L294.1,78.2 L292.0,78.1 L289.4,78.4 L323.2,216.3 L323.6,210.9 L323.7,205.5 L323.7,198.4 L323.7,192.8 L324.1,188.1 L324.6,180.0 L324.8,174.6 L324.6,169.5 L323.9,160.9 L323.8,157.5 L324.0,154.7 L324.6,152.2 L325.5,148.8 L327.8,142.6 L117.5,179.2 L116.7,176.8 L115.5,172.3 L114.9,168.6 L114.4,164.1 L114.4,159.6 L114.5,157.6 L114.5,155.9 L115.3,151.0 L116.9,143.9 L117.7,140.1 L118.2,138.7 L118.7,137.4 L119.5,136.2 L120.5,135.0 L121.7,134.1 L123.0,133.1 L124.6,132.4 L126.2,131.8 L127.9,131.4 L129.6,131.2 L131.3,131.2 L133.1,131.4 L171.5,138.7 L180.4,140.5 L188.3,142.0 L191.9,142.9 L195.1,144.3 L197.5,145.9 L199.1,147.4 L200.3,148.7 L201.6,150.8 L97.9,188.6 L98.3,191.2 L99.1,192.9 L100.0,194.1 L101.1,195.2 L102.6,196.1 L104.4,196.8 L106.5,197.3 L109.0,197.4 L111.6,197.0 L114.0,196.5 L116.1,195.7 L117.8,194.7 L119.0,193.5 L119.9,192.3 L120.5,190.9 L120.9,189.5 L121.0,188.1 L120.6,186.7 L117.5,179.2 Z" fill="none" stroke="#a855f7" stroke-width="3.5" stroke-linecap="round" stroke-linejoin="round"/></svg>