<?xml version="1.0" encoding="utf-8"?>
<!-- Generator: Adobe Illustrator 22.0.1, SVG Export Plug-In . SVG Version: 6.00 Build 0)  -->
<svg version="1.1" id="Layer_1" xmlns="http://www.w3.org/2000/svg" xmlns:xlink="http://www.w3.org/1999/xlink" x="0px" y="0px"
	 viewBox="0 0 1152 825.2" style="enable-background:new 0 0 1152 825.2;" xml:space="preserve">
<style type="text/css">
	
		.st0{opacity:0.35;clip-path:url(#SVGID_2_);fill:none;stroke:#8B5CF6;stroke-width:32;stroke-linecap:round;stroke-linejoin:round;stroke-miterlimit:10;}
	
		.st1{clip-path:url(#SVGID_4_);fill:none;stroke:#FFFFFF;stroke-width:16;stroke-linecap:round;stroke-linejoin:round;stroke-miterlimit:10;}
	
		.st2{clip-path:url(#SVGID_6_);fill:none;stroke:#8B5CF6;stroke-width:7;stroke-linecap:round;stroke-linejoin:round;stroke-miterlimit:10;}
</style>
<g>
	<defs>
		<rect id="SVGID_1_" width="1152" height="825.2"/>
	</defs>
	<clipPath id="SVGID_2_">
		<use xlink:href="#SVGID_1_"  style="overflow:visible;"/>
	</clipPath>
	<polyline class="st0" points="426,547.2 580.8,519.9 735.5,492.6 890.3,465.3 1007,448.8 1062.3,423 1094.9,381.4 1099.6,340.7 
		1069.6,306.1 1019.1,291.1 962.4,309 917.6,348.8 897.3,392.3 875.7,428 828.1,452.4 776.5,453.5 744.6,431.2 726.2,394.6 
		730.3,350 749.2,298.8 781.1,253.2 827.3,221.2 903.3,199.8 979.3,178.4 1042.3,151.3 1087.2,111.5 1091.9,70.8 1055.5,45.3 
		994.8,40.1 915.4,42.1 815.2,39.8 715.1,37.5 635.7,39.5 579,57.5 552.2,86.2 475.2,147.6 368,218.4 260.9,289.1 153.7,359.9 
		117.7,382.2 96.3,374 69.9,382.6 63.1,411.8 94.9,434.1 135.7,438.8 165.7,473.4 150.7,524 118.8,569.5 77.2,604.7 52.4,645 
		66.9,682.3 116.3,713.5 171.4,731.7 240.5,739.5 300.6,740.8 287.4,779.1 328.8,787.7 382.8,754.3 414.6,708.8 423.7,647.3 
		426.5,595 426,547.2 	"/>
</g>
<g>
	<defs>
		<rect id="SVGID_3_" width="1152" height="825.2"/>
	</defs>
	<clipPath id="SVGID_4_">
		<use xlink:href="#SVGID_3_"  style="overflow:visible;"/>
	</clipPath>
	<polyline class="st1" points="426,547.2 580.8,519.9 735.5,492.6 890.3,465.3 1007,448.8 1062.3,423 1094.9,381.4 1099.6,340.7 
		1069.6,306.1 1019.1,291.1 962.4,309 917.6,348.8 897.3,392.3 875.7,428 828.1,452.4 776.5,453.5 744.6,431.2 726.2,394.6 
		730.3,350 749.2,298.8 781.1,253.2 827.3,221.2 903.3,199.8 979.3,178.4 1042.3,151.3 1087.2,111.5 1091.9,70.8 1055.5,45.3 
		994.8,40.1 915.4,42.1 815.2,39.8 715.1,37.5 635.7,39.5 579,57.5 552.2,86.2 475.2,147.6 368,218.4 260.9,289.1 153.7,359.9 
		117.7,382.2 96.3,374 69.9,382.6 63.1,411.8 94.9,434.1 135.7,438.8 165.7,473.4 150.7,524 118.8,569.5 77.2,604.7 52.4,645 
		66.9,682.3 116.3,713.5 171.4,731.7 240.5,739.5 300.6,740.8 287.4,779.1 328.8,787.7 382.8,754.3 414.6,708.8 423.7,647.3 
		426.5,595 426,547.2 	"/>
</g>
<g>
	<defs>
		<rect id="SVGID_5_" width="1152" height="825.2"/>
	</defs>
	<clipPath id="SVGID_6_">
		<use xlink:href="#SVGID_5_"  style="overflow:visible;"/>
	</clipPath>
	<polyline class="st2" points="426,547.2 580.8,519.9 735.5,492.6 890.3,465.3 1007,448.8 1062.3,423 1094.9,381.4 1099.6,340.7 
		1069.6,306.1 1019.1,291.1 962.4,309 917.6,348.8 897.3,392.3 875.7,428 828.1,452.4 776.5,453.5 744.6,431.2 726.2,394.6 
		730.3,350 749.2,298.8 781.1,253.2 827.3,221.2 903.3,199.8 979.3,178.4 1042.3,151.3 1087.2,111.5 1091.9,70.8 1055.5,45.3 
		994.8,40.1 915.4,42.1 815.2,39.8 715.1,37.5 635.7,39.5 579,57.5 552.2,86.2 475.2,147.6 368,218.4 260.9,289.1 153.7,359.9 
		117.7,382.2 96.3,374 69.9,382.6 63.1,411.8 94.9,434.1 135.7,438.8 165.7,473.4 150.7,524 118.8,569.5 77.2,604.7 52.4,645 
		66.9,682.3 116.3,713.5 171.4,731.7 240.5,739.5 300.6,740.8 287.4,779.1 328.8,787.7 382.8,754.3 414.6,708.8 423.7,647.3 
		426.5,595 426,547.2 	"/>
</g>
</svg>
