<svg viewBox="0 0 400 300" xmlns="http://www.w3.org/2000/svg">
  <path d="M252.8,259.5 L254.0,258.2 L255.5,256.6 L256.7,255.1 L258.5,253.2 L260.6,250.8 L262.1,249.2 L265.0,245.9 L267.4,243.2 L268.6,241.9 L269.8,240.6 L270.8,239.5 L271.6,238.6 L272.9,237.0 L273.6,235.5 L274.0,233.9 L273.9,232.9 L273.8,232.3 L273.4,231.0 L272.7,229.8 L271.6,228.7 L270.5,227.9 L270.0,227.7 L269.0,227.3 L268.3,227.1 L267.0,226.9 L264.8,227.0 L262.7,227.4 L260.0,228.7 L258.5,229.7 L256.7,231.1 L256.3,231.4 L254.2,233.5 L252.4,235.2 L251.1,236.3 L247.7,237.8 L244.8,238.0 L241.6,237.3 L240.4,236.8 L238.5,235.8 L237.0,234.9 L234.8,232.9 L233.4,231.1 L231.8,227.5 L231.3,225.6 L230.8,222.4 L230.6,220.4 L230.4,217.6 L230.1,212.7 L229.9,209.3 L229.8,206.8 L229.6,202.0 L229.5,200.0 L229.4,197.7 L229.2,192.8 L229.1,190.2 L228.9,185.8 L228.8,183.7 L228.8,181.2 L228.7,178.6 L228.5,175.0 L228.4,171.4 L228.3,167.4 L228.2,165.1 L228.0,161.1 L227.9,155.9 L227.8,153.0 L227.7,150.6 L227.6,147.7 L227.5,144.7 L227.4,142.7 L227.2,137.2 L227.1,135.0 L227.0,131.2 L226.9,129.6 L226.9,127.9 L226.8,126.1 L226.7,123.8 L226.7,121.8 L226.6,120.6 L226.6,118.9 L226.7,117.9 L226.9,116.7 L227.2,115.2 L227.4,114.6 L227.8,113.6 L228.4,112.5 L229.1,111.7 L229.3,111.6 L230.1,111.1 L231.5,110.7 L232.7,110.6 L234.2,110.6 L235.7,110.6 L237.4,110.6 L239.4,110.6 L242.3,110.6 L243.3,110.6 L244.7,110.6 L246.3,110.6 L248.0,110.6 L250.4,110.6 L252.2,110.5 L253.8,110.4 L255.2,110.2 L257.8,109.5 L259.7,108.8 L262.5,107.4 L264.0,106.5 L266.7,104.5 L268.0,103.4 L270.4,100.6 L271.6,98.8 L273.2,96.1 L274.0,94.2 L274.6,92.3 L274.9,90.8 L275.1,88.7 L275.0,87.4 L274.6,86.1 L274.5,85.9 L273.9,84.7 L273.4,84.1 L273.0,83.7 L271.9,83.2 L270.9,82.9 L270.2,82.6 L269.4,82.3 L268.7,81.7 L268.2,81.2 L267.8,80.6 L267.5,79.6 L267.4,78.8 L267.3,78.5 L267.7,76.8 L268.1,75.8 L268.6,74.8 L269.4,73.4 L270.5,71.5 L270.8,70.7 L271.3,69.3 L271.5,68.5 L271.6,67.8 L271.5,66.6 L271.3,65.5 L271.1,65.0 L270.5,64.1 L270.1,63.6 L268.7,63.0 L266.9,62.8 L265.7,62.9 L265.3,62.9 L262.3,63.0 L260.9,63.0 L259.1,63.0 L258.0,63.1 L256.3,63.1 L254.5,63.1 L252.7,63.2 L252.1,63.2 L249.4,63.2 L247.4,63.3 L244.6,63.3 L242.8,63.3 L241.2,63.3 L239.5,63.3 L237.0,63.3 L234.9,63.3 L232.3,63.3 L230.6,63.3 L227.8,63.2 L225.4,63.1 L222.3,62.6 L220.6,62.3 L218.3,61.8 L216.8,61.3 L214.8,60.6 L212.4,59.6 L211.0,58.9 L207.4,56.6 L205.7,55.0 L204.2,53.4 L202.0,50.6 L200.8,48.7 L200.0,47.2 L198.9,44.9 L197.5,41.8 L196.7,40.2 L195.8,38.3 L195.1,36.6 L194.1,34.5 L193.0,32.5 L191.8,30.6 L190.5,28.9 L188.3,26.5 L186.4,24.8 L184.2,23.1 L182.3,21.8 L179.3,20.3 L174.7,18.6 L172.5,18.1 L169.1,17.4 L167.3,17.0 L166.1,16.8 L165.3,16.7 L164.5,16.5 L163.6,16.4 L162.7,16.4 L162.1,16.5 L160.7,17.3 L160.0,18.1 L159.8,18.3 L159.2,19.5 L158.9,20.4 L158.7,21.8 L158.4,22.7 L158.2,23.6 L157.7,24.8 L157.0,26.4 L156.3,27.8 L156.1,28.2 L155.3,29.9 L154.5,31.5 L153.9,32.9 L152.7,35.4 L151.6,37.6 L150.4,39.7 L149.0,42.2 L147.3,45.0 L146.0,47.3 L145.0,49.1 L144.2,50.7 L143.1,52.7 L142.2,54.4 L140.0,58.6 L139.4,59.7 L137.2,63.9 L134.9,68.8 L133.8,71.4 L133.5,72.0 L131.8,76.6 L130.5,80.3 L130.0,82.0 L129.5,84.0 L128.5,87.5 L127.3,91.6 L126.5,94.5 L126.2,95.6 L125.7,97.4 L125.3,99.3 L124.4,103.1 L123.7,106.9 L123.2,109.6 L122.8,112.2 L122.4,114.5 L121.7,120.1 L121.5,122.2 L121.3,124.5 L121.1,127.9 L121.0,129.3 L120.9,132.4 L120.8,134.2 L120.7,137.1 L120.7,139.1 L120.7,141.3 L120.7,146.4 L120.8,150.6 L120.8,152.8 L120.8,155.8 L120.8,159.3 L120.9,162.5 L120.9,164.7 L120.9,167.0 L120.9,172.7 L120.9,175.7 L120.9,179.3 L120.9,182.2 L120.9,186.0 L120.9,190.3 L120.9,192.1 L120.8,195.4 L120.8,197.8 L120.8,200.9 L120.8,203.3 L120.8,205.3 L120.8,208.0 L120.7,210.2 L120.7,213.0 L120.7,215.4 L120.7,219.9 L120.7,223.2 L120.6,227.3 L120.6,230.4 L120.6,230.7 L120.5,235.0 L120.5,239.1 L120.4,243.0 L120.4,246.3 L120.3,249.9 L120.3,249.1 L120.3,252.5 L120.3,254.9 L120.3,256.6 L120.2,258.4 L120.2,259.8 L120.2,261.3 L120.3,262.2 L120.3,263.1 L120.4,263.8 L120.5,264.5 L120.6,265.3 L121.1,266.5 L121.5,267.4 L121.8,268.0 L122.4,268.8 L123.2,269.5 L124.0,270.0 L125.5,270.4 L126.5,270.5 L127.5,270.7 L129.2,271.5 L130.8,272.7 L132.2,273.8 L133.2,274.6 L134.7,275.4 L136.7,276.1 L138.6,276.3 L141.8,276.3 L144.2,276.4 L146.6,276.4 L149.6,276.3 L152.1,276.3 L153.1,276.2 L154.8,276.2 L159.5,276.1 L162.2,276.0 L163.5,276.0 L166.7,275.9 L169.9,275.8 L172.4,275.7 L175.8,275.6 L178.1,275.5 L181.0,275.5 L183.2,275.4 L187.3,275.4 L190.5,275.4 L192.8,275.5 L195.3,275.5 L199.0,275.6 L201.6,275.6 L203.7,275.6 L206.3,275.5 L208.9,275.5 L210.8,275.5 L213.4,275.4 L216.0,275.4 L222.1,275.3 L223.0,275.2 L226.3,275.0 L228.4,274.9 L230.4,274.7 L233.6,274.1 L237.9,272.7 L242.0,270.4 L244.0,269.0 L246.2,267.1 L248.0,265.2 L251.5,261.1 Z"
    fill="none"
    stroke="#FF6600"
    stroke-width="4"
    stroke-linecap="round"
    stroke-linejoin="round"/>
</svg>