<svg viewBox="0 0 400 300" xmlns="http://www.w3.org/2000/svg"><path d="M118.7,138.0 L124.3,193.0 L125.5,196.9 L126.4,199.5 L128.0,202.2 L138.8,214.7 L148.9,222.9 L152.5,225.1 L157.4,227.1 L162.3,227.4 L167.5,227.3 L173.0,226.5 L176.4,225.8 L180.7,223.4 L183.0,221.4 L184.9,218.8 L186.0,215.2 L185.3,212.4 L183.7,210.2 L180.7,207.8 L176.2,205.4 L164.3,199.5 L161.2,197.7 L159.2,196.1 L157.3,194.5 L156.0,192.7 L155.2,190.8 L154.6,188.2 L140.2,115.6 L140.3,113.5 L141.3,111.7 L143.2,110.0 L145.3,108.5 L147.8,107.3 L150.4,106.5 L151.8,106.3 L214.0,102.3 L217.4,102.4 L220.0,103.0 L222.3,103.8 L224.6,105.0 L226.8,106.8 L228.9,109.0 L229.9,111.1 L230.5,113.5 L230.8,118.2 L230.5,121.9 L229.7,125.1 L228.7,127.4 L226.8,130.7 L224.1,133.6 L221.2,135.9 L218.0,138.0 L215.6,138.7 L212.8,139.0 L210.9,139.2 L208.4,139.0 L205.9,138.7 L203.6,138.0 L200.9,136.8 L198.8,135.6 L191.0,129.4 L189.2,128.3 L187.8,128.0 L185.7,127.8 L184.0,127.9 L181.1,128.0 L175.3,129.2 L171.5,130.2 L170.0,131.1 L168.6,132.6 L167.9,134.1 L167.5,135.4 L167.6,136.9 L177.2,161.1 L178.1,162.7 L179.4,163.6 L180.9,164.4 L182.5,164.8 L184.7,165.3 L187.5,165.5 L191.5,165.9 L194.1,166.2 L196.9,166.6 L198.8,167.1 L200.5,167.7 L202.5,169.0 L204.1,170.2 L204.8,171.2 L205.6,172.7 L206.2,174.3 L209.1,207.2 L209.8,209.8 L210.8,211.9 L212.0,213.7 L213.4,215.3 L215.3,217.0 L258.8,246.3 L261.7,247.6 L264.5,248.5 L268.1,248.7 L271.9,248.2 L274.2,247.4 L276.8,245.5 L278.1,244.0 L279.4,241.7 L280.2,238.6 L280.2,235.8 L279.0,232.6 L277.0,230.4 L274.7,228.8 L246.6,213.4 L245.3,212.3 L243.9,210.6 L242.7,208.6 L242.3,206.9 L242.3,204.8 L242.6,202.4 L243.2,200.5 L244.5,198.6 L246.3,196.9 L248.5,195.3 L251.3,194.0 L254.4,192.3 L257.0,190.7 L259.4,188.9 L261.4,187.0 L262.7,185.0 L263.6,183.0 L264.1,180.8 L264.3,178.6 L264.3,177.3 L259.3,77.0 L258.8,75.2 L258.4,74.1 L257.6,73.1 L256.1,72.0 L254.8,71.5 L253.0,71.0 L251.4,70.7 L249.5,70.7 L246.7,71.1 L243.8,72.0 L204.6,85.4 L201.3,85.9 L198.9,86.1 L196.1,85.9 L193.9,85.5 L191.8,85.0 L189.0,83.8 L187.5,82.8 L186.4,81.9 L185.4,80.7 L184.4,78.6 L183.9,76.9 L182.6,69.1 L181.4,67.1 L179.7,65.4 L177.3,63.8 L174.2,62.6 L171.9,61.8 L168.7,61.3 L165.9,61.0 L163.6,60.9 L135.2,61.4 L132.3,61.5 L129.4,61.9 L126.8,62.7 L125.4,63.3 L124.3,64.5 L115.2,82.3 L114.4,84.5 L114.3,86.2 L114.1,91.1 L114.4,95.8 L118.7,138.0 Z" fill="none" stroke="#3b82f6" stroke-width="3.5" stroke-linecap="round" stroke-linejoin="round"/></svg>