<svg viewBox="0 0 400 300" xmlns="http://www.w3.org/2000/svg"><path d="M195.6,129.4 L195.4,129.7 L195.3,129.9 L195.2,130.1 L195.0,130.3 L194.9,130.4 L194.7,130.6 L194.5,130.8 L194.3,131.0 L194.1,131.1 L193.9,131.3 L193.6,131.4 L193.4,131.5 L193.1,131.6 L192.8,131.7 L192.5,131.8 L192.2,131.9 L191.9,131.9 L191.6,132.0 L191.2,132.1 L190.9,132.1 L190.5,132.1 L190.2,132.1 L189.9,132.1 L189.6,132.1 L189.3,132.1 L188.9,132.1 L188.7,132.1 L188.4,132.1 L188.2,132.0 L188.0,132.0 L187.8,132.0 L187.6,132.0 L187.4,131.9 L187.2,131.8 L187.0,131.8 L186.9,131.7 L186.7,131.7 L186.6,131.6 L186.4,131.5 L186.1,131.4 L182.9,129.6 L181.2,128.6 L181.0,128.5 L180.8,128.4 L180.6,128.4 L180.4,128.3 L180.2,128.2 L180.0,128.2 L179.8,128.1 L179.6,128.1 L179.3,128.0 L179.1,128.0 L178.8,128.0 L178.5,127.9 L178.2,127.9 L178.0,127.9 L177.7,127.9 L177.5,127.9 L177.2,127.9 L177.0,127.9 L176.7,127.9 L176.4,128.0 L176.2,128.0 L176.0,128.0 L175.7,128.1 L175.4,128.1 L175.2,128.2 L175.0,128.3 L174.7,128.4 L174.5,128.5 L174.2,128.6 L174.0,128.7 L173.7,128.8 L173.5,128.9 L173.2,129.1 L172.9,129.2 L172.7,129.4 L172.6,129.4 L172.4,129.6 L172.3,129.7 L172.1,129.9 L171.9,130.0 L171.8,130.2 L171.7,130.4 L171.5,130.6 L171.4,130.8 L171.2,131.0 L171.0,131.4 L170.8,131.8 L170.5,132.3 L217.0,48.1 L218.4,47.6 L219.7,47.2 L220.4,47.0 L221.1,46.9 L221.5,46.7 L222.1,46.6 L222.5,46.5 L222.9,46.4 L223.5,46.3 L224.0,46.2 L224.6,46.2 L225.0,46.1 L226.3,46.1 L228.1,46.0 L231.6,45.9 L380.7,172.6 L380.6,172.6 L380.5,172.8 L380.4,172.8 L380.3,172.9 L379.3,173.7 L379.2,173.8 L379.2,173.8 L379.2,173.8 L379.1,173.9 L379.1,173.9 L379.0,174.0 L379.0,174.0 L379.0,174.1 L378.9,174.1 L378.9,174.2 L378.8,174.2 L378.8,174.3 L378.8,174.3 L378.7,174.4 L378.7,174.5 L378.7,174.5 L378.6,174.6 L378.6,174.7 L378.6,174.7 L378.6,174.8 L378.5,174.9 L378.5,174.9 L378.5,175.0 L378.5,175.1 L378.5,175.1 L378.5,175.2 L378.4,175.3 L378.4,175.3 L378.4,175.4 L378.4,175.5 L378.4,175.5 L378.4,175.6 L378.4,175.7 L378.4,175.7 L378.4,175.8 L378.4,175.9 L378.4,176.0 L378.4,176.1 L378.5,176.1 L378.5,176.2 L378.5,176.3 L378.5,176.4 L378.5,176.5 L378.5,176.6 L378.6,176.7 L378.6,176.8 L378.6,176.9 L378.7,176.9 L378.7,177.0 L378.7,177.1 L378.8,177.2 L378.8,177.3 L378.9,177.3 L378.9,177.4 L379.0,177.5 L379.0,177.5 L379.1,177.6 L379.1,177.6 L379.2,177.7 L379.3,177.8 L379.3,177.8 L379.4,177.9 L379.5,178.0 L379.6,178.0 L379.7,178.1 L379.9,178.3 L380.1,178.4 L380.2,178.5 L381.4,179.2 L384.2,180.8 L385.0,181.3 L385.3,181.4 L385.6,181.6 L385.9,181.8 L386.2,182.1 L386.5,182.3 L386.8,182.5 L387.0,182.7 L387.2,182.9 L387.4,183.1 L387.6,183.3 L387.8,183.6 L388.1,183.9 L388.3,184.3 L388.6,184.7 L389.0,185.5 L391.7,191.1 L398.5,205.2 L398.8,205.8 L408.5,225.8 L170.9,281.2 L170.6,280.4 L170.4,279.7 L170.3,278.9 L170.2,278.2 L170.2,277.3 L170.3,276.5 L170.4,275.8 L170.6,275.2 L170.8,274.5 L171.2,274.0 L171.5,273.4 L171.9,272.8 L172.3,272.3 L172.8,271.6 L173.3,271.2 L173.9,270.6 L174.3,270.3 L174.9,269.9 L175.4,269.5 L170.1,200.4 L170.0,198.6 L169.8,196.9 L169.5,195.6 L169.2,194.5 L169.0,193.8 L168.6,193.0 L167.1,190.9 L166.7,190.1 L166.4,189.3 L166.2,188.2 L165.4,181.1 L165.1,179.3 L164.9,178.8 L164.7,178.4 L164.4,178.0 L163.3,176.5 L163.2,176.0 L163.2,175.7 L163.2,175.3 L163.4,175.0 L163.7,174.5 L164.2,174.2 L164.7,174.0 L165.6,173.8 L166.2,173.7 L166.8,173.7 L167.4,173.8 L167.8,174.0 L168.3,174.2 L169.0,174.7 L169.4,176.2 L169.0,174.7 L165.9,168.3 L169.4,176.2 L170.2,179.1 L170.3,179.7 L172.2,187.5 L172.5,188.2 L172.8,188.7 L173.3,189.1 L174.3,189.6 L165.4,181.1 L165.6,179.8 L165.8,179.4 L166.2,179.1 L166.7,178.9 L167.1,178.8 L167.6,178.7 L168.2,178.7 L168.7,178.8 L169.0,178.9 L169.5,179.1 L169.8,179.3 L170.3,179.7 L177.1,202.9 L176.9,205.1 L176.4,207.7 L175.5,211.2 L175.0,212.5 L174.3,213.7 L173.8,214.5 L173.4,214.9 L173.0,215.2 L172.3,215.5 L170.3,216.1 L169.5,216.4 L168.7,216.8 L167.6,217.6 L166.7,218.4 L165.7,219.4 L165.2,220.2 L164.2,221.8 L163.6,223.4 L163.0,224.7 L162.9,225.6 L162.9,226.5 L163.2,226.9 L163.5,227.3 L164.0,227.7 L164.7,228.0 L165.6,228.2 L166.4,228.2 L167.3,228.0 L168.3,227.7 L168.7,227.3 L168.9,227.0 L169.5,226.3 L169.7,226.1 L170.0,225.8 L170.3,225.6 L170.6,225.2 L171.2,224.8 L171.9,224.3 L172.6,223.9 L173.5,223.4 L174.5,222.8 L176.2,221.8 L165.4,181.1 L164.9,180.5 L164.5,180.2 L163.9,180.0 L163.4,179.9 L162.8,179.9 L162.3,180.0 L161.8,180.1 L161.4,180.4 L161.1,180.7 L160.8,181.2 L186.4,221.2 L186.4,220.7 L186.7,220.2 L188.4,217.9 L188.9,217.0 L189.1,216.4 L189.3,215.7 L189.4,213.0 L189.4,212.7 L189.7,212.3 L190.0,212.0 L190.2,211.9 L190.6,211.8 L191.5,211.5 L191.7,211.3 L191.9,211.0 L191.8,210.1 L191.9,209.8 L192.0,209.4 L192.3,209.2 L195.8,208.2 L196.3,208.1 L196.7,208.2 L197.0,208.4 L202.9,214.0 L207.5,218.3 L207.8,218.7 L207.9,219.1 L207.7,219.9 L207.2,220.5 L206.7,220.7 L206.0,220.6 L204.9,220.5 L203.7,220.5 L201.9,220.9 L199.3,221.7 L197.0,222.4 L195.4,222.6 L194.8,222.6 L194.3,222.4 L194.1,222.1 L193.8,221.0 L193.8,218.9 L193.7,216.0 L193.8,215.4 L194.1,215.0 L194.7,214.6 L195.4,214.4 L195.7,214.4 L196.4,214.4 L197.4,214.6 L199.0,215.0 L199.9,215.5 L200.6,216.1 L200.7,216.5 L200.7,216.9 L200.3,217.4 L199.5,217.8 L198.6,218.0 L197.0,218.2 L196.6,218.5 L196.1,219.2 L196.1,220.0 L196.3,220.4 L197.0,220.6 L197.4,220.6 L198.1,220.6 L202.9,219.4 L203.9,219.1 L204.5,218.9 L204.8,218.6 L204.7,218.2 L204.6,217.8 L201.3,214.7 L199.2,212.8 L198.3,212.6 L197.3,212.6 L195.3,213.0 L193.2,213.3 L192.3,213.6 L192.0,214.0 L191.7,214.5 L191.5,215.1 L190.8,218.7 L190.7,219.3 L190.5,220.4 L190.4,221.4 L190.6,222.0 L190.8,222.5 L191.0,222.9 L190.8,223.2 L190.5,223.4 L190.2,223.5 L189.7,223.5 L189.2,223.5 L188.8,223.4 L188.3,223.2 L187.8,223.0 L187.5,222.7 L187.0,222.4 L186.5,221.7 L186.4,221.2 L170.3,158.1 L169.0,154.9 L168.9,154.7 L168.8,154.5 L168.7,154.3 L168.6,154.1 L168.5,154.0 L168.5,153.9 L168.4,153.8 L168.3,153.7 L168.2,153.6 L168.1,153.6 L168.0,153.5 L168.0,153.4 L167.9,153.3 L167.8,153.3 L167.7,153.2 L167.6,153.1 L167.5,153.1 L167.4,153.0 L167.3,153.0 L167.2,152.9 L167.2,152.9 L167.1,152.9 L167.0,152.8 L166.8,152.8 L166.7,152.7 L166.5,152.7 L166.4,152.6 L165.3,152.3 L165.1,152.3 L165.0,152.3 L164.9,152.2 L164.8,152.2 L164.7,152.1 L164.5,152.1 L164.4,152.0 L164.3,152.0 L164.2,151.9 L164.1,151.8 L164.0,151.8 L163.9,151.7 L163.8,151.6 L163.7,151.6 L163.6,151.5 L163.5,151.4 L163.4,151.3 L163.3,151.1 L163.2,151.0 L163.1,150.9 L163.0,150.8 L163.0,150.7 L162.9,150.6 L162.8,150.5 L162.8,150.4 L162.8,150.3 L162.7,150.1 L162.6,149.9 L162.6,149.8 L182.3,204.5 L181.2,199.4 L181.0,198.8 L181.0,198.4 L180.9,198.0 L180.9,197.7 L180.9,197.1 L180.9,196.6 L181.0,196.1 L181.1,195.6 L181.2,194.8 L181.9,192.0 L182.0,191.6 L182.1,191.1 L182.2,190.5 L182.2,190.0 L182.3,189.1 L182.3,188.7 L182.2,188.3 L182.2,188.0 L182.1,187.6 L182.0,187.2 L181.9,186.8 L181.5,185.8 L180.3,182.5 L175.4,170.5 L173.7,166.3 L170.3,158.1 L162.6,149.8 L161.0,144.2 L161.0,144.1 L161.0,144.1 L160.9,144.0 L160.9,143.9 L160.8,143.8 L160.8,143.8 L160.7,143.7 L160.6,143.6 L160.6,143.6 L160.5,143.5 L160.4,143.5 L160.3,143.4 L160.3,143.3 L160.2,143.3 L160.1,143.2 L160.0,143.2 L159.9,143.2 L159.8,143.1 L159.7,143.1 L159.6,143.0 L159.5,143.0 L159.4,143.0 L231.6,45.9 L234.2,45.8 L235.4,45.8 L236.8,45.8 L237.6,45.7 L238.1,45.7 L238.5,45.6 L238.9,45.6 L239.2,45.5 L239.5,45.4 L239.8,45.4 L240.1,45.3 L240.3,45.2 L240.6,45.1 L241.0,45.0 L241.3,44.8 L241.6,44.6 L242.0,44.5 L242.3,44.3 L242.6,44.1 L242.9,43.9 L243.1,43.7 L243.3,43.5 L243.6,43.3 L243.8,43.1 L244.0,42.9 L244.1,42.7 L244.3,42.5 L244.5,42.2 L244.7,41.9 L244.8,41.7 L245.0,41.4 L245.1,41.2 L245.2,41.0 L245.2,40.8 L245.3,40.7 L245.3,40.5 L245.3,40.4 L245.3,40.4 L245.3,40.2 L245.3,39.9 L245.3,39.6 L245.4,38.8 L245.4,38.6 L245.4,38.4 L245.4,38.1 L245.4,37.9 L245.5,37.8 L245.5,37.6 L245.5,37.3 L245.6,37.1 L245.7,36.9 L245.7,36.7 L245.8,36.5 L245.9,36.3 L246.0,36.0 L246.1,35.8 L246.3,35.6 L246.4,35.4 L246.5,35.3 L246.6,35.1 L246.7,34.9 L246.8,34.8 L246.9,34.6 L247.1,34.5 L247.3,34.3 L247.4,34.2 L247.5,34.1 L247.7,34.0 L248.0,33.8 L248.2,33.7 L248.3,33.6 L248.5,33.5 L248.7,33.4 L248.9,33.3 L249.1,33.1 L249.4,33.0 L252.6,31.3 L254.6,30.3 L255.5,29.9 L182.8,264.2 L183.3,263.7 L183.7,263.4 L184.2,262.9 L184.5,262.6 L184.7,262.4 L184.9,262.1 L185.2,261.7 L185.5,261.3 L185.8,260.9 L186.0,260.4 L186.3,259.8 L186.5,259.3 L186.6,258.9 L186.7,258.4 L186.8,257.9 L186.8,257.5 L186.8,256.3 L186.6,254.9 L186.2,251.4 L185.8,249.0 L185.6,248.0 L185.4,247.1 L185.1,246.4 L184.6,245.5 L184.3,245.1 L184.0,244.7 L183.7,244.3 L183.5,244.1 L183.2,243.9 L182.9,243.6 L182.6,243.4 L182.0,242.9 L181.1,242.3 L180.3,241.8 L177.2,240.0 L177.2,240.0 L176.5,239.6 L175.8,239.2 L175.3,238.9 L174.9,238.7 L174.5,238.4 L174.2,238.1 L173.9,237.9 L173.6,237.6 L173.3,237.3 L173.0,237.0 L172.7,236.7 L172.5,236.4 L172.2,236.1 L171.9,235.7 L171.7,235.4 L171.5,235.2 L171.3,234.9 L171.1,234.6 L171.0,234.2 L170.8,233.9 L170.7,233.5 L170.6,233.1 L170.5,232.7 L170.4,232.3 L170.3,231.9 L170.3,231.5 L170.3,231.1 L170.2,230.7 L170.2,230.4 L170.2,230.0 L170.3,229.7 L170.3,229.4 L170.4,229.0 L170.4,228.7 L170.5,228.3 L170.6,228.0 L170.7,227.6 L170.9,227.3 L171.0,227.0 L171.2,226.6 L171.4,226.2 L171.7,225.9 L171.9,225.5 L172.2,225.2 L172.4,224.9 L172.7,224.6 L173.0,224.2 L173.3,223.9 L173.6,223.7 L173.9,223.4 L174.2,223.2 L174.5,223.0 L174.7,222.8 L175.1,222.5 L175.4,222.3 L175.8,222.1 L176.2,221.8 L176.9,221.4 L332.6,68.1 L339.8,83.1 L340.1,83.7 L348.1,100.5 L169.8,133.8 L167.8,137.4 L167.0,138.7 L166.7,139.1 L166.7,139.3 L166.6,139.3 L166.5,139.4 L166.4,139.5 L166.3,139.6 L166.2,139.6 L166.1,139.7 L166.0,139.7 L165.9,139.8 L165.7,139.8 L165.6,139.9 L165.5,139.9 L165.3,139.9 L165.2,140.0 L165.0,140.0 L164.9,140.0 L164.8,140.0 L164.6,140.0 L164.5,140.0 L164.4,140.0 L164.3,140.0 L164.1,140.0 L164.0,140.0 L163.9,140.0 L163.7,140.0 L163.6,140.0 L163.5,139.9 L163.3,139.9 L163.2,139.8 L163.1,139.8 L163.0,139.8 L162.9,139.7 L162.8,139.6 L162.6,139.6 L162.4,139.5 L162.2,139.3 L162.0,139.1 L161.9,138.8 L160.9,99.7 L161.7,95.9 L162.2,93.5 L162.8,91.2 L163.3,89.4 L163.6,88.3 L163.7,87.9 L163.9,87.6 L164.0,87.1 L164.4,86.4 L165.1,85.1 L165.6,84.1 L166.1,83.3 L166.5,82.6 L166.9,81.7 L167.3,81.1 L167.5,80.8 L167.7,80.5 L167.9,80.2 L168.1,80.1 L168.3,79.8 L156.9,141.1 L157.0,141.0 L157.0,140.9 L157.0,140.8 L157.0,140.8 L157.0,140.8 L157.1,140.8 L157.1,140.7 L157.1,140.7 L157.2,140.6 L157.3,140.5 L157.3,140.4 L157.4,140.4 L157.5,140.3 L157.6,140.2 L158.0,139.9 L159.9,138.8 L160.0,138.7 L160.1,138.6 L160.3,138.5 L160.4,138.4 L160.4,138.3 L160.5,138.1 L160.6,137.9 L160.6,137.7 L160.6,137.6 L160.7,137.4 L160.7,137.2 L160.6,137.1 L160.6,137.0 L160.6,136.9 L160.5,136.8 L160.5,136.7 L160.4,136.7 L160.4,136.6 L160.3,136.5 L176.9,221.4 L179.9,219.7 L180.5,219.3 L181.1,218.9 L181.4,218.7 L181.7,218.4 L182.1,218.0 L182.4,217.7 L182.7,217.3 L183.0,216.9 L183.2,216.5 L183.4,216.1 L183.6,215.6 L183.8,215.3 L183.9,214.9 L184.0,214.6 L184.0,214.3 L184.1,214.1 L184.1,213.7 L184.1,213.3 L184.0,212.8 L183.9,212.3 L183.8,211.6 L183.7,211.0 L183.2,208.7 L182.3,204.5 L170.3,158.1 L170.0,157.8 L169.8,157.6 L169.6,157.4 L169.0,157.2 L168.6,157.1 L168.0,157.0 L167.5,157.0 L167.1,157.0 L166.7,157.1 L166.3,157.2 L166.0,157.4 L165.7,157.5 L165.3,157.8 L165.1,158.0 L165.0,158.3 L164.9,158.7 L164.9,159.1 L165.1,162.0 L165.3,163.5 L165.2,165.0 L164.8,166.1 L164.5,167.0 L164.3,167.5 L163.6,168.5 L161.1,173.7 L160.8,174.5 L160.6,175.6 L160.5,176.7 L160.8,181.2 L162.2,205.3 L162.3,205.9 L162.4,206.2 L162.7,206.7 L163.1,207.1 L163.6,207.5 L164.3,207.8 L165.1,208.1 L165.8,208.2 L166.6,208.2 L167.3,208.1 L168.1,207.8 L168.5,207.4 L168.9,206.9 L169.2,206.2 L169.3,205.5 L170.1,200.4 L171.0,201.7 L171.8,202.4 L172.3,202.7 L172.5,202.9 L173.0,203.0 L175.7,203.0 L177.1,202.9 L175.4,170.5 L174.9,169.3 L174.4,167.9 L174.1,166.9 L173.9,166.3 L173.7,165.7 L173.3,164.7 L172.8,162.8 L172.1,160.4 L171.9,159.7 L171.8,159.3 L171.4,158.0 L171.2,157.7 L170.2,155.0 L168.4,150.3 L168.2,149.8 L168.2,149.8 L168.1,149.7 L168.1,149.7 L168.1,149.6 L168.0,149.6 L168.0,149.5 L167.9,149.5 L167.9,149.4 L167.8,149.4 L167.7,149.4 L167.7,149.3 L167.6,149.3 L167.5,149.2 L167.5,149.2 L167.4,149.2 L167.3,149.2 L167.2,149.1 L167.1,149.1 L167.0,149.1 L166.8,149.0 L166.2,148.9 L165.9,148.8 L165.6,148.7 L165.5,148.6 L165.4,148.6 L165.3,148.6 L165.2,148.6 L165.2,148.5 L165.1,148.5 L165.1,148.5 L165.0,148.4 L164.9,148.4 L164.9,148.4 L164.8,148.3 L164.8,148.3 L164.7,148.3 L164.7,148.2 L164.6,148.2 L164.6,148.1 L164.5,148.1 L164.5,148.1 L164.5,148.0 L164.4,148.0 L164.4,147.9 L164.4,147.9 L164.4,147.8 L164.3,147.5 L164.2,147.1 L164.1,146.7 L164.0,146.1 L163.6,144.9 L163.2,143.6 L163.1,143.2 L161.9,138.8 L161.7,138.6 L159.4,143.0 L158.4,142.8 L158.2,142.8 L158.1,142.8 L158.0,142.7 L157.9,142.7 L157.8,142.7 L157.7,142.6 L157.6,142.6 L157.5,142.5 L157.4,142.4 L157.3,142.4 L157.2,142.3 L157.1,142.2 L157.1,142.1 L157.0,142.0 L157.0,142.0 L156.9,141.9 L156.9,141.8 L156.9,141.7 L156.9,141.7 L160.2,136.5 L160.1,136.4 L159.9,136.3 L159.8,136.2 L159.7,136.1 L159.6,136.0 L159.5,135.9 L159.4,135.7 L159.3,135.5 L159.2,135.3 L159.1,135.1 L159.1,134.8 L159.0,134.6 L159.0,134.5 L159.1,134.3 L159.1,133.4 L159.2,130.8 L159.2,129.3 L159.3,127.7 L160.9,99.7 L161.2,98.6 L161.4,97.5 L161.9,96.1 L162.2,95.1 L162.7,93.6 L163.2,92.2 L164.7,88.8 L165.1,88.1 L165.5,87.4 L165.8,86.7 L166.2,86.1 L167.6,83.7 L168.3,82.5 L168.7,82.0 L169.0,81.7 L169.4,81.2 L169.9,80.7 L170.4,80.2 L171.0,79.7 L171.4,79.4 L171.8,79.0 L172.2,78.8 L172.7,78.4 L173.3,78.1 L173.8,77.8 L174.3,77.6 L174.9,77.3 L186.8,72.3 L187.3,72.1 L189.1,71.2 L189.6,70.8 L189.8,70.4 L189.9,70.0 L189.8,69.3 L189.4,66.0 L189.5,65.5 L189.7,65.2 L190.3,64.8 L190.9,64.3 L199.2,59.7 L190.7,190.7 L191.4,197.3 L191.5,197.8 L191.7,198.1 L191.8,198.4 L193.1,199.9 L194.4,200.9 L194.8,201.2 L195.4,201.4 L196.0,201.5 L196.6,201.5 L197.3,201.4 L197.7,201.3 L198.2,201.0 L198.5,200.7 L198.7,200.4 L198.8,200.0 L198.8,199.7 L198.6,199.4 L198.2,199.1 L197.7,198.8 L196.2,198.1 L195.8,197.9 L195.6,197.7 L195.4,197.5 L195.2,197.3 L195.1,197.1 L195.1,196.7 L193.3,188.0 L193.3,187.7 L193.5,187.5 L193.7,187.3 L193.9,187.1 L194.2,187.0 L194.5,186.9 L194.7,186.9 L202.2,186.4 L202.6,186.4 L202.9,186.5 L203.2,186.6 L203.5,186.7 L203.8,186.9 L204.0,187.2 L204.1,187.4 L204.2,187.7 L204.2,188.3 L204.2,188.7 L204.1,189.1 L204.0,189.4 L203.8,189.8 L203.4,190.2 L203.1,190.4 L202.7,190.7 L202.4,190.8 L202.1,190.8 L201.8,190.8 L201.5,190.8 L201.2,190.8 L201.0,190.7 L200.6,190.5 L200.4,190.4 L199.4,189.7 L199.2,189.5 L199.1,189.5 L198.8,189.5 L198.6,189.5 L198.2,189.5 L197.5,189.6 L197.1,189.7 L196.9,189.9 L196.7,190.0 L196.7,190.2 L196.6,190.4 L196.6,190.6 L197.8,193.5 L197.9,193.7 L198.0,193.8 L198.2,193.9 L198.4,193.9 L198.7,194.0 L199.0,194.0 L199.5,194.1 L199.8,194.1 L200.2,194.1 L200.4,194.2 L200.6,194.3 L200.8,194.4 L201.0,194.6 L201.1,194.7 L201.2,194.9 L201.3,195.1 L201.6,199.0 L201.7,199.4 L201.8,199.6 L202.0,199.8 L202.1,200.0 L202.4,200.2 L207.6,203.8 L208.0,203.9 L208.3,204.0 L208.7,204.0 L209.2,204.0 L209.5,203.9 L209.8,203.7 L210.0,203.5 L210.1,203.2 L210.2,202.8 L210.2,202.5 L210.1,202.1 L209.8,201.8 L209.5,201.6 L206.2,199.8 L206.0,199.6 L205.8,199.4 L205.7,199.2 L205.6,199.0 L205.6,198.8 L205.7,198.5 L205.7,198.2 L205.9,198.0 L206.1,197.8 L206.4,197.6 L206.7,197.4 L207.1,197.2 L207.4,197.0 L207.7,196.8 L207.9,196.6 L208.1,196.4 L208.2,196.1 L208.3,195.8 L208.3,195.6 L208.3,195.4 L207.7,183.3 L207.6,183.1 L207.6,183.0 L207.5,182.9 L207.3,182.7 L207.1,182.7 L206.9,182.6 L206.7,182.6 L206.5,182.6 L206.2,182.6 L205.8,182.7 L201.1,184.3 L200.7,184.4 L200.4,184.4 L200.1,184.4 L199.8,184.4 L199.5,184.3 L199.2,184.1 L199.0,184.0 L198.9,183.9 L198.8,183.8 L198.6,183.5 L198.6,183.3 L198.4,182.4 L198.3,182.1 L198.1,181.9 L197.8,181.7 L197.4,181.6 L197.1,181.5 L196.7,181.4 L196.4,181.4 L196.1,181.4 L192.7,181.4 L192.4,181.5 L192.0,181.5 L191.7,181.6 L191.5,181.7 L191.4,181.8 L190.3,184.0 L190.2,184.2 L190.2,184.4 L190.2,185.0 L190.2,185.6 L190.7,190.7 L160.3,136.5 L160.2,136.5 L174.3,189.6 L175.1,190.0 L175.3,190.2 L175.5,190.4 L175.8,190.7 L176.0,191.0 L176.2,191.3 L176.5,192.2 L162.8,160.2 L162.6,160.1 L162.4,159.8 L161.9,157.4 L169.6,157.4 L168.3,156.7 L167.5,156.2 L166.8,155.8 L166.2,155.5 L165.5,155.2 L164.6,154.9 L163.6,154.6 L163.4,154.5 L162.5,154.3 L161.8,154.2 L186.9,70.8 L187.1,70.7 L187.2,70.7 L187.3,70.6 L187.4,70.6 L187.5,70.5 L187.5,70.5 L187.6,70.4 L187.7,70.4 L187.8,70.3 L187.8,70.2 L187.9,70.2 L187.9,70.1 L188.0,70.1 L188.0,70.0 L188.0,70.0 L188.0,69.9 L188.1,69.8 L188.1,69.8 L188.1,69.7 L188.1,69.7 L188.1,69.6 L188.1,69.5 L188.1,69.5 L188.1,69.4 L188.1,69.3 L188.1,69.3 L188.1,69.2 L188.1,69.1 L188.1,69.1 L188.1,69.0 L188.0,68.8 L187.2,66.4 L187.1,66.3 L187.1,66.3 L187.1,66.2 L187.1,66.1 L187.1,66.0 L187.1,66.0 L187.1,65.9 L187.1,65.8 L187.1,65.8 L187.1,65.7 L187.1,65.6 L187.1,65.6 L187.1,65.5 L187.2,65.4 L187.2,65.4 L187.2,65.3 L187.2,65.3 L187.3,65.2 L187.3,65.2 L187.4,65.1 L187.4,65.0 L187.5,65.0 L187.5,64.9 L187.6,64.9 L187.6,64.8 L187.7,64.7 L187.8,64.7 L187.8,64.6 L187.9,64.6 L187.9,64.6 L188.0,64.5 L188.1,64.5 L188.1,64.4 L188.2,64.4 L188.3,64.4 L188.4,64.3 L188.4,64.3 L199.2,59.7 L200.9,59.0 L202.6,58.2 L203.7,57.7 L204.5,57.4 L205.1,57.0 L205.8,56.6 L206.3,56.3 L206.8,56.0 L207.3,55.6 L207.7,55.3 L208.1,54.9 L208.5,54.5 L210.1,53.0 L211.8,51.3 L158.9,103.8 L158.9,102.7 L159.1,101.7 L159.2,101.1 L159.3,100.3 L159.4,99.5 L159.6,98.5 L159.8,97.7 L160.2,96.4 L160.6,95.1 L161.3,92.5 L161.6,91.8 L162.0,90.7 L162.5,89.5 L163.1,88.1 L163.8,86.6 L164.6,85.2 L165.3,84.0 L166.0,82.8 L166.6,81.8 L166.9,81.4 L167.2,81.0 L167.4,80.7 L167.7,80.4 L167.9,80.1 L168.3,79.8 L168.6,79.4 L169.1,79.0 L169.6,78.6 L170.1,78.2 L170.5,77.9 L170.8,77.7 L171.2,77.5 L171.5,77.3 L172.0,77.0 L172.5,76.8 L173.8,76.2 L156.9,141.7 L156.9,141.1 L157.0,140.1 L157.1,138.6 L157.2,136.9 L157.4,132.7 L157.6,128.0 L157.8,123.4 L158.2,116.7 L158.9,103.8 L165.9,168.3 L165.5,168.1 L165.1,168.0 L164.7,168.1 L164.3,168.2 L163.9,168.4 L163.6,168.5 L198.4,182.4 L198.0,181.3 L197.7,180.7 L197.5,180.4 L197.4,180.3 L197.2,180.2 L197.0,180.1 L196.7,180.1 L196.4,180.0 L196.1,180.0 L195.7,180.0 L191.6,180.2 L191.0,180.2 L190.7,180.3 L190.4,180.5 L189.8,180.7 L189.1,181.1 L188.6,181.5 L188.4,181.7 L188.2,182.0 L188.1,182.2 L188.1,182.4 L188.0,182.6 L189.5,196.5 L189.5,197.0 L189.6,197.1 L189.8,197.3 L190.3,197.7 L191.1,198.3 L191.8,198.9 L193.1,199.9 L202.9,214.0 L203.0,214.3 L202.9,214.5 L202.6,214.7 L202.4,214.8 L202.0,214.8 L201.6,214.8 L201.3,214.7 L195.3,213.0 L195.0,213.2 L195.0,213.4 L195.0,213.6 L195.1,213.8 L195.2,214.0 L195.4,214.3 L195.7,214.4 L193.8,218.9 L193.6,218.5 L193.3,218.3 L192.9,218.1 L192.3,218.0 L191.8,218.1 L191.3,218.2 L191.1,218.4 L190.8,218.7 L202.1,225.6 L202.7,225.5 L203.2,225.6 L203.5,225.7 L203.8,225.8 L204.0,226.1 L204.0,226.5 L204.0,226.8 L193.6,229.8 L193.5,229.5 L193.4,229.3 L193.6,228.9 L194.2,228.4 L194.5,228.0 L197.5,228.7 L196.9,228.3 L195.6,227.2 L195.2,226.8 L193.8,228.3 L194.2,228.4 L194.4,228.4 L194.8,228.7 L196.1,230.1 L189.8,233.7 L189.1,234.2 L188.1,234.6 L186.3,234.9 L185.7,234.9 L185.4,234.7 L185.2,234.5 L183.3,227.6 L183.4,227.3 L183.7,227.1 L184.4,226.9 L184.8,226.8 L186.4,226.6 L189.4,212.7 L189.2,212.3 L189.3,210.6 L189.5,210.4 L189.4,210.3 L189.3,210.1 L189.4,209.1 L189.6,208.9 L194.7,207.4 L195.0,207.4 L195.8,207.5 L196.7,208.2 L204.0,226.8 L203.3,227.3 L200.9,228.6 L199.8,229.1 L199.3,229.2 L198.8,229.1 L197.5,228.7 L196.8,228.6 L196.3,228.8 L196.0,229.3 L196.1,230.1 L196.4,230.5 L196.3,230.9 L195.8,231.4 L189.8,233.7 L188.7,234.1 L188.0,234.4 L187.3,234.5 L186.7,234.3 L186.3,234.0 L184.8,227.8 L184.9,227.4 L185.2,227.1 L185.5,226.8 L186.4,226.6 L191.3,225.6 L191.9,225.6 L192.3,225.8 L192.4,226.1 L192.5,226.5 L192.2,226.8 L191.8,226.9 L187.6,227.7 L187.2,228.0 L186.9,228.2 L186.8,228.5 L186.9,228.7 L187.8,231.9 L188.0,232.1 L188.3,232.3 L188.8,232.4 L189.4,232.4 L193.5,230.8 L193.8,230.6 L193.9,230.4 L193.8,230.1 L193.6,229.8 L193.3,229.6 L192.8,229.6 L192.5,229.6 L191.1,230.2 L190.5,230.4 L190.0,230.5 L189.6,230.4 L189.2,230.1 L189.0,229.6 L189.1,229.2 L189.3,229.0 L189.7,228.7 L193.3,228.4 L193.8,228.3 L194.0,228.3 L194.5,228.0 L194.9,227.7 L195.3,227.1 L195.2,226.8 L194.7,226.0 L194.7,225.5 L194.9,225.3 L195.2,225.0 L195.8,225.0 L196.3,225.0 L196.7,225.2 L198.1,226.4 L198.6,226.5 L199.1,226.7 L199.7,226.6 L200.3,226.5 L202.1,225.6 L195.8,207.5 L197.1,207.7 L198.1,208.0 L198.8,208.3 L206.7,215.7 L207.3,216.4 L208.1,217.3 L208.3,217.6 L209.1,218.8 L210.1,220.6 L210.1,221.0 L209.9,221.4 L209.6,221.8 L209.4,222.0 L206.9,222.4 L206.2,222.5 L205.3,222.1 L204.1,222.0 L202.3,221.9 L200.9,221.7 L199.3,221.7 L202.9,219.4 L203.5,219.4 L203.8,219.5 L204.0,219.8 L203.9,220.1 L203.7,220.5 L190.7,219.3 L191.4,222.1 L191.7,222.4 L191.9,222.6 L192.2,224.1 L192.1,224.5 L191.8,224.6 L187.8,225.0 L187.7,224.8 L187.4,223.7 L187.5,222.7 L189.4,212.7 L189.8,210.5 L189.9,210.3 L190.2,210.2 L192.3,209.2 L159.3,127.7 L159.3,126.9 L159.3,126.9 L159.4,125.2 L160.4,103.7 L160.4,102.8 L160.5,102.1 L160.7,101.1 L160.9,99.7 L182.3,204.5 L182.5,201.9 L182.2,198.1 L182.1,197.2 L182.1,196.6 L182.3,196.0 L182.6,195.5 L183.0,195.1 L183.6,194.6 L184.3,194.1 L184.8,193.8 L184.9,193.7 L185.0,193.5 L185.1,193.0 L184.9,186.1 L184.8,185.3 L184.6,182.3 L184.4,181.6 L184.3,180.9 L184.0,180.0 L183.7,179.3 L183.4,178.7 L182.8,178.0 L182.4,177.4 L181.8,176.6 L181.1,176.0 L178.8,173.5 L178.4,173.0 L178.1,172.6 L177.7,172.0 L177.5,171.6 L175.2,165.8 L174.4,163.6 L173.5,160.7 L172.8,158.9 L172.8,158.5 L172.8,158.1 L172.9,157.7 L173.1,157.3 L173.1,157.1 L173.1,156.9 L173.1,156.7 L173.0,156.5 L172.7,156.2 L172.1,155.4 L171.8,155.1 L171.5,154.7 L171.0,153.9 L170.7,153.2 L170.4,152.5 L170.2,152.1 L169.9,151.2 L169.7,150.5 L169.6,150.0 L169.4,149.7 L169.2,149.6 L168.9,149.5 L168.7,149.5 L168.4,149.6 L168.1,149.7 L164.2,151.0 L164.0,151.1 L163.8,151.2 L163.7,151.6 L163.4,154.1 L163.4,154.4 L163.4,154.5 L162.8,156.2 L162.7,156.7 L162.8,157.3 L163.2,159.5 L163.2,159.8 L163.1,159.9 L162.8,160.2 L162.6,160.5 L162.1,166.2 L161.7,167.3 L161.5,168.1 L161.0,172.3 L160.7,174.1 L160.6,175.6 L179.8,188.9 L182.1,187.6 L184.2,186.6 L184.5,186.5 L184.6,186.3 L184.9,186.1 L176.5,192.2 L176.6,191.2 L176.6,191.0 L176.6,190.8 L176.7,190.6 L176.8,190.4 L176.9,190.3 L177.7,189.8 L177.1,202.9 L177.2,202.0 L177.1,200.7 L177.0,196.4 L176.5,192.2 L174.3,189.6 L175.4,189.9 L175.9,189.9 L176.3,189.9 L176.7,189.9 L177.0,189.9 L177.3,189.9 L177.7,189.8 L178.0,189.7 L178.4,189.6 L178.8,189.4 L179.1,189.2 L179.5,189.0 L179.8,188.9 L180.1,188.7 L180.4,188.4 L180.7,188.2 L180.8,188.0 L181.0,187.8 L181.1,187.6 L181.2,187.4 L181.3,187.2 L181.4,187.0 L181.4,186.8 L181.5,186.7 L181.5,186.5 L181.5,186.3 L181.5,186.2 L181.5,186.0 L181.5,185.9 L181.5,185.8 L165.2,165.0 L165.4,167.2 L165.6,167.7 L165.9,168.3 L245.6,54.6 L245.9,54.3 L246.3,53.9 L246.5,53.6 L246.8,53.4 L247.2,53.2 L247.7,53.1 L248.1,53.0 L248.6,52.9 L249.0,52.9 L249.5,53.0 L250.2,53.1 L250.8,53.2 L251.4,53.5 L253.1,54.6 L253.7,55.0 L253.9,55.3 L254.1,55.6 L254.3,55.9 L254.4,56.2 L254.4,56.6 L254.4,57.0 L254.2,57.4 L253.9,57.8 L253.4,58.2 L252.0,59.1 L160.7,151.5 L160.5,151.3 L160.4,151.0 L159.8,150.0 L158.3,146.2 L157.8,144.9 L157.1,144.2 L156.8,143.5 L156.7,142.8 L156.9,141.7 L161.7,138.6 L160.5,136.8 L168.7,136.4 L168.7,137.8 L168.6,138.3 L167.2,143.4 L167.2,144.0 L167.4,144.8 L168.2,147.9 L168.2,148.1 L168.0,148.2 L166.2,148.9 L163.2,149.9 L163.1,150.1 L162.9,150.6 L175.4,269.5 L182.8,264.2 L173.8,76.2 L186.9,70.8 L217.0,48.1 L217.7,47.9 L218.1,47.8 L218.4,47.7 L218.7,47.6 L219.0,47.6 L219.3,47.6 L219.6,47.5 L219.9,47.5 L220.2,47.5 L220.5,47.5 L220.9,47.5 L221.2,47.5 L221.5,47.5 L221.9,47.5 L222.1,47.5 L222.3,47.5 L222.6,47.6 L222.8,47.6 L223.0,47.6 L223.2,47.6 L223.4,47.7 L223.6,47.7 L223.9,47.8 L224.1,47.8 L224.4,47.9 L224.7,48.0 L225.1,48.2 L225.3,48.3 L225.6,48.4 L225.8,48.5 L226.0,48.7 L226.2,48.8 L226.4,48.9 L226.5,49.0 L226.6,49.1 L226.8,49.2 L227.0,49.4 L227.1,49.5 L227.3,49.7 L227.4,49.8 L227.5,50.0 L227.6,50.2 L227.7,50.3 L227.9,50.5 L228.0,50.7 L228.1,50.9 L228.1,51.1 L228.2,51.4 L228.3,51.6 L228.3,51.8 L228.4,52.1 L228.4,52.3 L228.4,52.5 L228.4,52.6 L228.4,52.8 L228.4,53.0 L228.3,53.2 L228.3,53.4 L228.2,53.6 L228.2,53.8 L228.1,54.0 L228.0,54.2 L227.9,54.4 L227.8,54.6 L227.6,54.8 L227.5,55.0 L227.3,55.2 L227.1,55.4 L226.4,56.0 L211.8,51.3 L212.4,50.8 L212.9,50.4 L213.4,50.0 L214.0,49.6 L214.5,49.3 L215.1,49.0 L215.5,48.8 L215.7,48.6 L216.0,48.5 L216.3,48.4 L216.6,48.3 L216.7,48.2 L216.9,48.1 L217.0,48.1 L226.4,56.0 L225.4,56.9 L224.3,57.8 L223.4,58.6 L222.2,59.4 L221.2,60.2 L220.0,60.9 L218.7,61.9 L216.7,63.0 L214.7,64.3 L213.1,65.2 L211.7,65.9 L210.6,66.5 L206.7,68.5 L205.5,69.1 L204.5,69.7 L202.1,71.2 L202.1,71.2 L201.5,71.5 L201.2,71.8 L201.0,72.0 L200.9,72.1 L200.8,72.2 L200.7,72.4 L200.5,72.6 L200.5,72.7 L200.4,72.8 L200.3,73.0 L200.2,73.2 L200.2,73.4 L200.1,73.6 L200.1,73.7 L200.1,73.9 L200.1,74.0 L200.1,74.1 L200.1,74.3 L200.1,74.4 L200.1,74.5 L200.1,74.6 L200.2,74.7 L200.2,74.9 L200.3,75.0 L200.3,75.1 L200.4,75.2 L200.4,75.3 L200.5,75.4 L200.5,75.5 L200.7,75.7 L200.9,75.9 L201.1,76.1 L201.2,76.3 L201.4,76.4 L201.6,76.5 L201.8,76.7 L202.0,76.8 L202.2,76.9 L202.5,77.0 L202.8,77.1 L203.1,77.2 L203.4,77.3 L203.7,77.4 L204.0,77.4 L204.4,77.5 L204.7,77.5 L205.0,77.5 L205.4,77.6 L205.9,77.6 L206.4,77.5 L206.9,77.5 L207.5,77.5 L208.1,77.4 L208.8,77.4 L209.5,77.3 L210.5,77.1 L211.4,76.9 L212.3,76.7 L212.9,76.5 L213.6,76.3 L214.2,76.1 L214.6,75.9 L215.1,75.7 L215.7,75.4 L216.6,75.0 L217.3,74.6 L218.0,74.2 L218.8,73.7 L218.8,73.7 L220.6,72.6 L226.8,68.4 L232.3,64.8 L234.6,63.1 L236.9,61.4 L239.9,59.1 L245.6,54.6 L245.6,54.6 L245.8,54.5 L245.9,54.4 L246.0,54.4 L246.2,54.3 L246.3,54.2 L246.4,54.2 L246.6,54.1 L246.7,54.1 L246.9,54.0 L247.1,54.0 L247.2,54.0 L247.4,54.0 L247.6,53.9 L247.9,53.9 L248.1,53.9 L248.3,53.9 L248.5,53.9 L248.6,53.9 L248.8,54.0 L248.9,54.0 L249.0,54.0 L249.2,54.0 L249.3,54.0 L249.3,54.1 L249.4,54.1 L249.5,54.1 L249.6,54.2 L249.7,54.2 L249.8,54.2 L249.9,54.3 L250.0,54.4 L252.0,55.7 L252.6,56.1 L252.7,56.2 L252.8,56.3 L252.9,56.4 L253.0,56.5 L253.1,56.6 L253.1,56.7 L253.2,56.9 L253.2,57.0 L253.3,57.2 L253.3,57.3 L253.3,57.5 L253.3,57.6 L253.2,57.8 L253.2,57.9 L253.1,58.0 L253.0,58.2 L252.8,58.3 L252.6,58.6 L252.2,58.9 L252.0,59.1 L252.0,59.1 L244.1,65.1 L240.2,68.1 L236.6,70.9 L228.8,77.0 L228.5,77.2 L227.7,77.8 L226.8,78.7 L225.2,80.0 L217.3,86.7 L208.4,94.2 L203.7,98.3 L202.8,99.1 L202.8,99.1 L202.7,99.2 L202.6,99.3 L202.5,99.4 L202.4,99.5 L202.3,99.6 L202.2,99.7 L202.2,99.8 L202.1,99.9 L202.0,100.0 L202.0,100.1 L201.9,100.2 L201.8,100.3 L201.8,100.5 L201.7,100.6 L201.6,100.7 L201.6,100.8 L201.5,101.0 L201.5,101.1 L201.5,101.2 L201.4,101.3 L201.4,101.4 L201.4,101.5 L201.4,101.6 L201.4,101.7 L201.4,101.9 L201.4,102.0 L201.4,102.1 L201.4,102.3 L201.4,102.4 L201.4,102.5 L201.5,102.6 L201.5,102.7 L201.5,102.8 L201.6,102.9 L201.7,103.1 L201.7,103.2 L201.8,103.3 L201.9,103.4 L202.0,103.5 L202.1,103.6 L202.1,103.7 L202.2,103.8 L202.3,103.9 L203.3,104.6 L203.4,104.7 L203.6,104.8 L203.7,104.9 L203.8,105.0 L203.9,105.1 L204.0,105.2 L204.1,105.3 L204.2,105.5 L204.3,105.6 L204.4,105.7 L204.5,105.9 L204.6,106.0 L204.7,106.2 L204.7,106.3 L204.8,106.4 L204.8,106.6 L204.8,106.7 L204.9,106.9 L204.9,107.1 L204.9,107.2 L204.9,107.4 L204.9,107.6 L204.9,107.8 L204.9,108.0 L204.9,108.2 L204.9,108.3 L204.9,108.5 L204.8,108.7 L204.8,108.8 L204.7,109.0 L204.7,109.1 L204.6,109.3 L204.6,109.3 L201.4,116.5 L198.9,122.1 L196.1,128.4 L195.6,129.4 L170.5,132.3 L169.8,133.8 L169.0,135.9 L168.7,136.4 L168.1,138.0 L168.0,138.3 L166.2,142.8 L166.2,142.8 L166.1,143.0 L166.0,143.1 L166.0,143.2 L165.9,143.2 L165.9,143.3 L165.8,143.4 L165.7,143.5 L165.6,143.5 L165.5,143.6 L165.4,143.6 L165.3,143.7 L165.2,143.7 L165.1,143.7 L164.9,143.7 L164.8,143.8 L164.7,143.8 L164.6,143.8 L164.5,143.8 L164.4,143.8 L164.3,143.7 L164.1,143.7 L163.2,143.6 L159.8,143.1 L159.4,143.0 L187.3,72.1 L187.5,72.0 L187.7,71.8 L187.8,71.7 L187.9,71.6 L188.0,71.5 L188.1,71.3 L188.1,71.2 L188.2,71.0 L188.2,70.7 L188.2,70.4 L188.3,70.1 L188.2,69.8 L188.2,69.6 L188.1,69.1 L381.3,169.5 L381.4,169.9 L381.4,170.1 L381.5,170.3 L381.5,170.5 L381.5,170.7 L381.5,170.8 L381.5,170.9 L381.5,170.9 L381.5,171.0 L381.5,171.1 L381.5,171.2 L381.4,171.3 L381.4,171.4 L381.4,171.5 L381.3,171.7 L381.2,171.8 L381.1,172.0 L381.0,172.1 L380.9,172.2 L380.8,172.4 L380.7,172.5 L380.7,172.6 Z" fill="none" stroke="#3b82f6" stroke-width="3.5" stroke-linecap="round" stroke-linejoin="round"/></svg>