<svg viewBox="0 0 400 300" xmlns="http://www.w3.org/2000/svg"><path d="M179.4,138.3 L178.8,136.8 L178.2,135.5 L177.6,134.4 L176.9,133.4 L176.2,132.6 L174.6,131.1 L171.3,128.1 L170.6,127.5 L169.8,126.9 L169.1,126.5 L168.1,126.0 L167.3,125.7 L166.2,125.5 L165.0,125.3 L163.5,125.2 L321.1,132.0 L346.0,127.3 L230.9,149.2 L231.3,146.9 L231.7,145.0 L232.2,143.7 L233.0,142.3 L233.9,140.9 L235.2,139.5 L236.6,138.2 L237.9,137.2 L239.5,136.2 L240.9,135.4 L242.4,134.7 L244.0,134.0 L246.0,133.2 L247.7,132.7 L249.3,132.4 L250.7,132.3 L251.9,132.2 L253.0,132.2 L254.1,132.3 L255.1,132.5 L256.2,132.8 L257.4,133.2 L261.8,134.9 L267.6,137.2 L311.5,129.5 L312.0,130.1 L312.4,130.8 L312.8,131.2 L313.2,131.6 L313.9,132.1 L314.5,132.3 L315.3,132.6 L316.0,132.7 L316.9,132.7 L317.7,132.6 L318.8,132.4 L321.1,132.0 L160.5,133.0 L171.4,149.4 L354.6,123.1 L386.6,89.5 L171.4,149.4 L173.3,152.3 L173.9,153.5 L174.2,154.3 L174.7,155.4 L174.9,156.5 L175.1,157.7 L175.1,158.9 L174.9,160.1 L174.7,161.3 L174.3,162.9 L173.5,164.7 L172.3,167.4 L171.7,168.6 L171.0,169.7 L170.2,170.7 L169.5,171.5 L168.9,172.0 L168.2,172.4 L167.3,172.9 L160.2,175.8 L58.8,168.1 L76.8,180.2 L120.4,209.8 L159.5,236.3 L385.9,75.8 L372.8,79.4 L358.1,83.3 L335.0,88.9 L320.7,92.0 L300.6,96.0 L277.4,100.0 L254.7,103.2 L248.8,103.9 L242.4,104.7 L242.0,104.8 L241.4,104.8 L228.8,106.1 L222.8,106.7 L220.5,106.9 L213.6,107.6 L208.3,108.1 L196.0,109.3 L196.0,109.3 L184.4,110.4 L181.1,110.8 L180.1,110.9 L179.5,111.1 L179.1,111.3 L178.7,111.7 L178.4,112.1 L178.3,112.6 L178.3,113.0 L178.3,113.5 L178.6,113.9 L178.9,114.5 L181.0,116.7 L197.7,137.2 L199.0,138.9 L199.4,139.3 L199.6,140.4 L199.7,141.1 L199.7,141.7 L199.5,142.2 L199.3,142.8 L199.0,143.2 L198.6,143.7 L198.1,144.1 L197.6,144.3 L197.0,144.5 L196.4,144.6 L195.7,144.7 L194.8,144.6 L190.9,144.4 L346.0,127.3 L348.3,126.9 L349.5,126.6 L350.4,126.4 L351.1,126.1 L351.8,125.7 L352.4,125.3 L352.9,124.8 L354.6,123.1 L181.0,116.7 L185.3,121.4 L188.4,124.9 L193.2,130.8 L197.7,137.2 L159.5,236.3 L163.4,238.7 L167.0,240.7 L170.3,242.3 L171.2,242.7 L171.9,242.9 L172.6,243.0 L173.2,243.0 L173.8,242.8 L174.1,242.7 L174.6,242.5 L175.1,242.1 L175.4,241.7 L175.5,241.2 L175.5,240.5 L175.4,239.9 L175.2,239.0 L174.3,236.5 L173.0,233.3 L386.6,89.5 L394.2,81.6 L396.1,79.4 L396.7,78.5 L397.0,77.8 L397.2,77.0 L397.1,76.3 L396.8,75.5 L396.5,74.9 L395.9,74.5 L395.3,74.2 L394.7,74.0 L394.0,73.9 L393.3,73.9 L392.5,74.0 L391.1,74.4 L385.9,75.8 L160.2,175.8 L157.6,176.8 L156.0,177.4 L155.1,177.8 L154.3,178.0 L153.2,178.2 L152.0,178.3 L150.7,178.3 L149.3,178.3 L147.1,178.1 L144.9,177.8 L143.1,177.4 L140.7,176.8 L138.5,176.1 L136.7,175.4 L135.3,174.8 L134.1,174.2 L132.8,173.4 L131.5,172.4 L130.7,171.7 L129.9,170.8 L128.8,169.5 L173.0,233.3 L167.1,218.2 L167.1,218.2 L166.1,215.6 L165.7,214.3 L165.4,213.0 L165.3,211.8 L165.3,210.7 L165.3,209.4 L165.5,208.1 L165.9,206.7 L166.4,205.3 L166.9,204.0 L167.6,202.8 L168.3,201.6 L169.1,200.4 L170.0,199.3 L171.1,198.2 L172.2,197.3 L173.6,196.4 L175.1,195.5 L176.9,194.5 L180.4,192.7 L267.6,137.2 L273.2,139.4 L274.4,139.9 L275.2,140.2 L275.9,140.3 L276.6,140.4 L277.2,140.3 L278.0,140.2 L278.8,139.9 L279.9,139.4 L282.7,137.9 L284.8,136.5 L286.6,135.1 L288.2,133.8 L290.3,131.8 L190.9,144.4 L188.0,144.3 L186.3,144.2 L185.1,144.1 L184.4,143.9 L183.7,143.7 L183.1,143.5 L182.5,143.1 L181.7,142.5 L181.2,142.0 L180.8,141.4 L180.4,140.6 L179.4,138.3 L290.3,131.8 L291.3,130.7 L292.2,129.6 L293.0,128.6 L293.9,127.5 L294.7,126.7 L295.7,125.9 L296.8,125.4 L298.0,125.0 L299.3,124.6 L300.8,124.4 L302.1,124.3 L303.6,124.4 L304.8,124.7 L306.0,125.0 L306.8,125.3 L307.6,125.7 L308.4,126.2 L309.0,126.6 L309.7,127.2 L310.2,127.8 L310.9,128.6 L311.5,129.5 L180.4,192.7 L198.6,183.1 L201.1,181.6 L202.4,180.8 L203.7,180.0 L204.9,179.0 L205.9,178.0 L206.7,176.9 L207.5,175.8 L208.2,174.2 L208.9,172.7 L209.5,171.3 L220.2,161.8 L222.6,161.0 L224.0,160.5 L225.2,159.9 L226.3,159.1 L227.3,158.3 L228.3,157.4 L229.0,156.5 L229.6,155.5 L230.0,154.3 L230.3,153.2 L230.6,151.6 L230.9,149.2 L209.5,171.3 L210.1,169.9 L210.7,168.6 L211.5,167.3 L212.3,166.2 L213.3,165.1 L214.6,164.0 L216.1,163.3 L217.8,162.6 L220.2,161.8 L240.9,135.4 L241.5,135.0 L242.0,134.5 L242.4,133.9 L242.8,133.2 L243.1,132.5 L243.4,131.7 L243.5,131.0 L243.5,130.2 L243.4,129.4 L243.1,128.5 L241.2,123.1 L239.3,117.8 L239.0,117.2 L238.7,116.8 L238.3,116.4 L237.8,116.1 L237.3,115.9 L236.6,115.7 L235.8,115.6 L235.3,115.4 L234.9,115.1 L234.3,114.7 L234.1,114.3 L233.8,113.9 L233.6,113.2 L233.4,112.1 L232.8,109.3 L232.7,108.9 L232.5,108.4 L232.1,107.8 L231.6,107.3 L230.9,107.0 L230.2,106.7 L229.5,106.6 L228.5,106.5 L227.4,106.4 L226.2,106.5 L222.8,106.7 L163.5,125.2 L161.0,125.0 L160.3,125.0 L159.6,125.0 L159.0,125.0 L158.6,125.2 L158.2,125.4 L157.9,125.7 L157.6,126.0 L157.4,126.3 L157.3,126.7 L157.3,127.1 L157.3,127.5 L157.4,127.9 L157.5,128.4 L157.9,129.0 L160.5,133.0 L128.8,169.5 L126.0,165.8 L123.9,163.4 L122.0,161.1 L120.2,158.8 L117.9,156.2 L115.3,153.4 L111.5,149.2 L92.2,147.7 L66.7,159.2 L66.0,159.5 L65.2,159.9 L64.6,160.3 L64.0,160.8 L63.6,161.4 L63.3,162.0 L63.0,162.7 L62.8,163.5 L62.8,164.5 L62.8,165.3 L62.9,166.1 L63.2,166.9 L63.4,167.6 L63.8,168.1 L64.3,168.8 L64.8,169.3 L65.5,169.9 L66.8,170.8 L68.7,172.1 L74.8,176.1 L77.9,178.2 L84.8,182.9 L98.9,192.6 L114.1,202.9 L125.4,210.7 L129.8,213.6 L135.6,217.5 L136.4,218.1 L139.1,220.0 L141.5,222.0 L146.7,226.0 L150.6,228.8 L160.1,235.3 L166.0,239.4 L170.3,242.3 L248.8,103.9 L247.9,104.1 L247.3,104.3 L246.8,104.6 L246.2,105.0 L245.8,105.4 L245.5,105.9 L245.3,106.4 L245.3,107.0 L245.3,107.6 L245.5,108.3 L245.9,109.0 L246.5,109.9 L251.8,118.2 L253.0,120.1 L254.4,122.3 L257.2,125.9 L259.6,128.3 L262.9,131.5 L267.5,135.1 L268.4,135.9 L271.9,138.5 L272.7,139.1 L273.2,139.4 L199.4,139.3 L201.8,142.0 L202.1,144.6 L200.0,146.6 L195.7,147.4 L186.1,146.6 L181.6,144.9 L179.4,138.3 L254.1,132.3 L259.6,128.3 L120.4,209.8 L159.5,236.3 L163.4,238.7 L167.0,240.7 L171.2,242.7 L171.9,242.9 L172.6,243.0 L173.2,243.0 L173.8,242.8 L174.6,242.5 L175.1,242.1 L175.4,241.7 L175.5,241.2 L175.5,240.5 L175.4,239.9 L175.2,239.0 L174.3,236.5 L173.0,233.3 L167.1,218.2 L166.1,215.6 L165.7,214.3 L165.4,213.0 L165.3,211.8 L165.3,210.7 L165.3,209.4 L165.5,208.1 L165.9,206.7 L166.4,205.3 L166.9,204.0 L167.6,202.8 L168.3,201.6 L169.1,200.4 L170.0,199.3 L171.1,198.2 L172.2,197.3 L173.6,196.4 L175.1,195.5 L176.9,194.5 L180.4,192.7 L198.6,183.1 L201.1,181.6 L202.4,180.8 L203.7,180.0 L204.9,179.0 L205.9,178.0 L206.7,176.9 L207.5,175.8 L208.2,174.2 L208.9,172.7 L209.5,171.3 L210.1,169.9 L210.7,168.6 L211.5,167.3 L212.3,166.2 L213.3,165.1 L214.6,164.0 L216.1,163.3 L217.8,162.6 L220.2,161.8 L222.6,161.0 L224.0,160.5 L225.2,159.9 L226.3,159.1 L227.3,158.3 L228.3,157.4 L229.0,156.5 L229.6,155.5 L230.0,154.3 L230.3,153.2 L230.6,151.6 L230.9,149.2 L231.3,146.9 L231.7,145.0 L232.2,143.7 L233.0,142.3 L233.9,140.9 L235.2,139.5 L236.6,138.2 L237.9,137.2 L239.5,136.2 L240.9,135.4 L244.0,134.0 L246.0,133.2 L247.7,132.7 L249.3,132.4 L250.7,132.3 L251.9,132.2 L253.0,132.2 L254.1,132.3 L255.1,132.5 L256.2,132.8 L257.4,133.2 L261.8,134.9 L267.6,137.2 L268.0,137.2 L268.4,137.0 L268.6,136.7 L268.6,136.2 L268.4,135.9 L267.5,135.1 L262.9,131.5 L259.6,128.3 L257.2,125.9 L254.4,122.3 L253.0,120.1 L251.8,118.2 L246.5,109.9 L245.9,109.0 L245.5,108.3 L245.3,107.6 L245.3,107.0 L245.2,106.5 L244.9,106.0 L244.6,105.8 L244.2,105.5 L243.8,105.3 L243.3,105.1 L242.9,105.0 L242.5,104.9 L242.0,104.8 L241.4,104.8 L228.8,106.1 L222.8,106.7 L220.5,106.9 L213.6,107.6 L208.3,108.1 L196.0,109.3 L184.4,110.4 L181.1,110.8 L180.1,110.9 L179.5,111.1 L179.1,111.3 L178.7,111.7 L178.4,112.1 L178.3,112.6 L178.3,113.0 L178.3,113.5 L178.6,113.9 L178.9,114.5 L181.0,116.7 L185.3,121.4 L188.4,124.9 L193.2,130.8 L197.7,137.2 L199.0,138.9 L199.6,140.4 L199.7,141.1 L199.7,141.7 L199.5,142.2 L199.3,142.8 L199.0,143.2 L198.6,143.7 L198.1,144.1 L197.6,144.3 L197.0,144.5 L196.4,144.6 L195.7,144.7 L194.8,144.6 L190.9,144.4 L188.0,144.3 L186.3,144.2 L185.1,144.1 L184.4,143.9 L183.7,143.7 L183.1,143.5 L182.5,143.1 L181.7,142.5 L181.2,142.0 L180.8,141.4 L180.4,140.6 L179.4,138.3 L178.8,136.8 L178.2,135.5 L177.6,134.4 L176.9,133.4 L176.2,132.6 L174.6,131.1 L171.3,128.1 L170.6,127.5 L169.8,126.9 L169.1,126.5 L168.1,126.0 L167.3,125.7 L166.2,125.5 L165.0,125.3 L163.5,125.2 L161.0,125.0 L160.3,125.0 L159.6,125.0 L159.0,125.0 L158.6,125.2 L158.2,125.4 L157.9,125.7 L157.6,126.0 L157.4,126.3 L157.3,126.7 L157.3,127.1 L157.3,127.5 L157.4,127.9 L157.5,128.4 L157.9,129.0 L160.5,133.0 L171.4,149.4 L173.3,152.3 L173.9,153.5 L174.2,154.3 L174.7,155.4 L174.9,156.5 L175.1,157.7 L175.1,158.9 L174.9,160.1 L174.7,161.3 L174.3,162.9 L173.5,164.7 L172.3,167.4 L171.7,168.6 L171.0,169.7 L170.2,170.7 L169.5,171.5 L168.9,172.0 L168.2,172.4 L167.3,172.9 L160.2,175.8 L157.6,176.8 L156.0,177.4 L155.1,177.8 L154.3,178.0 L153.2,178.2 L152.0,178.3 L150.7,178.3 L149.3,178.3 L147.1,178.1 L144.9,177.8 L143.1,177.4 L140.7,176.8 L138.5,176.1 L136.7,175.4 L135.3,174.8 L134.1,174.2 L132.8,173.4 L131.5,172.4 L130.7,171.7 L129.9,170.8 L128.8,169.5 L126.0,165.8 L123.9,163.4 L122.0,161.1 L120.2,158.8 L117.9,156.2 L115.3,153.4 L111.5,149.2 L109.0,146.6 L108.1,145.9 L107.3,145.3 L106.7,145.0 L106.0,144.7 L105.3,144.6 L104.6,144.4 L103.8,144.4 L101.9,144.6 L100.6,144.9 L99.1,145.2 L97.3,145.8 L95.6,146.4 L92.2,147.7 L61.1,159.7 L57.8,160.9 L57.1,161.2 L56.6,161.5 L56.2,161.8 L55.8,162.1 L55.6,162.5 L55.4,162.8 L55.3,163.3 L55.2,163.6 L55.2,164.1 L55.2,164.4 L55.4,164.9 L55.5,165.3 L55.9,165.8 L56.5,166.4 L58.8,168.1 L76.8,180.2 L120.4,209.8 Z" fill="none" stroke="#3b82f6" stroke-width="3.5" stroke-linecap="round" stroke-linejoin="round"/></svg>