<svg viewBox="0 0 400 300" xmlns="http://www.w3.org/2000/svg"><path d="M179.5,138.4 L178.9,136.9 L178.3,135.6 L177.6,134.5 L176.9,133.5 L176.2,132.8 L174.6,131.2 L171.4,128.2 L170.6,127.6 L169.8,127.0 L169.1,126.6 L168.2,126.1 L167.3,125.8 L166.2,125.6 L165.0,125.4 L163.5,125.3 L231.0,149.3 L231.3,147.0 L231.8,145.1 L232.3,143.8 L233.1,142.4 L234.0,141.0 L235.3,139.6 L236.7,138.3 L237.9,137.3 L239.5,136.3 L241.0,135.5 L242.4,134.8 L244.1,134.1 L246.0,133.3 L247.8,132.8 L249.3,132.5 L250.7,132.4 L251.9,132.3 L253.1,132.3 L254.1,132.4 L255.2,132.6 L256.3,132.9 L257.5,133.3 L261.8,135.0 L267.7,137.3 L311.6,129.6 L312.0,130.2 L312.4,130.9 L312.8,131.3 L313.3,131.7 L313.9,132.2 L314.6,132.4 L315.3,132.7 L316.0,132.8 L316.9,132.8 L317.8,132.7 L318.9,132.5 L321.2,132.1 L171.5,149.5 L173.3,152.4 L173.9,153.6 L174.3,154.4 L174.7,155.5 L175.0,156.6 L175.1,157.8 L175.1,159.0 L175.0,160.2 L174.8,161.4 L174.3,163.0 L173.6,164.8 L172.4,167.5 L171.7,168.7 L171.0,169.8 L170.3,170.8 L169.5,171.6 L168.9,172.1 L168.3,172.5 L167.4,173.0 L160.3,175.9 L386.0,75.9 L372.8,79.5 L358.1,83.4 L335.0,89.0 L320.8,92.1 L300.6,96.1 L277.4,100.1 L254.7,103.3 L248.9,104.0 L242.5,104.8 L242.1,104.9 L241.4,104.9 L228.9,106.2 L222.9,106.8 L220.5,107.0 L213.7,107.7 L208.3,108.2 L196.0,109.4 L196.0,109.4 L184.5,110.5 L181.1,110.9 L180.2,111.0 L179.5,111.2 L179.1,111.4 L178.7,111.8 L178.5,112.2 L178.3,112.7 L178.3,113.1 L178.4,113.6 L178.6,114.0 L179.0,114.6 L181.1,116.8 L197.8,137.3 L199.1,139.0 L199.5,139.4 L199.7,140.5 L199.7,141.2 L199.7,141.8 L199.6,142.3 L199.3,142.9 L199.0,143.3 L198.6,143.8 L198.1,144.2 L197.7,144.4 L197.1,144.6 L196.4,144.7 L195.7,144.8 L194.8,144.7 L190.9,144.5 L346.0,127.4 L348.3,127.0 L349.5,126.7 L350.4,126.5 L351.2,126.2 L351.8,125.8 L352.4,125.4 L353.0,124.9 L354.6,123.2 L159.6,236.4 L163.4,238.8 L167.0,240.8 L170.3,242.4 L171.3,242.8 L172.0,243.0 L172.6,243.1 L173.3,243.1 L173.8,242.9 L174.1,242.8 L174.6,242.6 L175.1,242.2 L175.5,241.8 L175.6,241.3 L175.6,240.6 L175.5,240.0 L175.2,239.1 L174.4,236.6 L173.0,233.4 L386.7,89.6 L394.2,81.7 L396.1,79.5 L396.7,78.6 L397.1,77.9 L397.2,77.1 L397.2,76.4 L396.9,75.6 L396.5,75.0 L396.0,74.6 L395.4,74.3 L394.7,74.1 L394.1,74.0 L393.3,74.0 L392.6,74.1 L391.2,74.5 L386.0,75.9 L160.3,175.9 L157.7,176.9 L156.0,177.5 L155.1,177.9 L154.3,178.1 L153.3,178.3 L152.0,178.4 L150.7,178.4 L149.3,178.4 L147.1,178.2 L144.9,177.9 L143.2,177.5 L140.8,176.9 L138.5,176.2 L136.7,175.5 L135.3,174.9 L134.1,174.3 L132.8,173.5 L131.6,172.5 L130.7,171.8 L130.0,170.9 L128.9,169.6 L167.1,218.3 L166.1,215.7 L165.7,214.4 L165.5,213.1 L165.3,211.9 L165.3,210.8 L165.4,209.5 L165.6,208.2 L165.9,206.8 L166.4,205.4 L166.9,204.1 L167.6,202.9 L168.3,201.7 L169.2,200.5 L170.1,199.4 L171.2,198.3 L172.3,197.4 L173.7,196.5 L175.1,195.6 L177.0,194.6 L180.5,192.8 L267.7,137.3 L273.2,139.5 L274.5,140.0 L275.3,140.3 L275.9,140.4 L276.6,140.5 L277.3,140.4 L278.0,140.3 L278.8,140.0 L280.0,139.5 L282.7,138.0 L284.8,136.6 L286.7,135.2 L288.3,133.9 L290.4,131.9 L190.9,144.5 L188.0,144.4 L186.3,144.3 L185.2,144.2 L184.4,144.0 L183.8,143.8 L183.2,143.6 L182.5,143.2 L181.7,142.6 L181.3,142.1 L180.8,141.5 L180.4,140.7 L179.5,138.4 L290.4,131.9 L291.3,130.8 L292.2,129.7 L293.0,128.7 L293.9,127.6 L294.7,126.8 L295.8,126.0 L296.8,125.5 L298.0,125.1 L299.3,124.7 L300.8,124.5 L302.2,124.4 L303.6,124.5 L304.9,124.8 L306.1,125.1 L306.9,125.4 L307.6,125.8 L308.4,126.3 L309.0,126.7 L309.7,127.3 L310.3,127.9 L310.9,128.7 L311.6,129.6 L180.5,192.8 L198.6,183.2 L201.2,181.7 L202.5,180.9 L203.8,180.1 L204.9,179.1 L205.9,178.1 L206.8,177.0 L207.5,175.9 L208.3,174.3 L209.0,172.8 L209.5,171.4 L220.3,161.9 L222.6,161.1 L224.0,160.6 L225.2,160.0 L226.4,159.2 L227.4,158.4 L228.3,157.5 L229.0,156.6 L229.6,155.6 L230.1,154.4 L230.3,153.3 L230.6,151.7 L231.0,149.3 L209.5,171.4 L210.1,170.0 L210.7,168.7 L211.5,167.4 L212.3,166.3 L213.4,165.2 L214.7,164.1 L216.2,163.4 L217.9,162.7 L220.3,161.9 L241.0,135.5 L241.5,135.1 L242.1,134.6 L242.5,134.0 L242.9,133.3 L243.2,132.6 L243.4,131.8 L243.5,131.1 L243.6,130.3 L243.5,129.5 L243.2,128.6 L241.3,123.2 L239.4,117.9 L239.0,117.3 L238.8,116.9 L238.4,116.5 L237.8,116.2 L237.4,116.0 L236.7,115.8 L235.9,115.7 L235.4,115.5 L234.9,115.2 L234.4,114.8 L234.1,114.4 L233.9,114.0 L233.6,113.3 L233.4,112.2 L232.9,109.4 L232.7,109.0 L232.5,108.5 L232.1,107.9 L231.6,107.4 L231.0,107.1 L230.2,106.8 L229.6,106.7 L228.5,106.6 L227.5,106.5 L226.3,106.6 L222.9,106.8 L163.5,125.3 L161.1,125.1 L160.4,125.1 L159.6,125.1 L159.1,125.1 L158.6,125.3 L158.2,125.5 L157.9,125.8 L157.7,126.1 L157.5,126.4 L157.4,126.8 L157.3,127.2 L157.3,127.6 L157.4,128.0 L157.6,128.5 L157.9,129.1 L160.5,133.1 L128.9,169.6 L126.0,165.9 L124.0,163.5 L122.0,161.2 L120.2,158.9 L118.0,156.3 L115.4,153.5 L111.5,149.3 L92.3,147.8 L66.7,159.3 L66.1,159.6 L65.3,160.0 L64.7,160.4 L64.1,160.9 L63.7,161.5 L63.3,162.1 L63.0,162.8 L62.9,163.7 L62.8,164.6 L62.9,165.4 L63.0,166.2 L63.2,167.0 L63.5,167.7 L63.8,168.2 L64.3,168.9 L64.8,169.4 L65.6,170.0 L66.8,170.9 L68.8,172.2 L74.9,176.2 L77.9,178.3 L84.8,183.0 L99.0,192.7 L114.1,203.0 L125.4,210.8 L129.8,213.7 L135.7,217.6 L136.4,218.2 L139.2,220.1 L141.5,222.1 L146.8,226.1 L150.7,228.9 L160.1,235.4 L166.1,239.5 L170.3,242.4 L248.9,104.0 L247.9,104.2 L247.4,104.4 L246.8,104.7 L246.3,105.1 L245.9,105.5 L245.6,106.0 L245.4,106.5 L245.3,107.1 L245.4,107.7 L245.6,108.4 L246.0,109.1 L246.5,110.0 L251.8,118.3 L253.0,120.2 L254.5,122.4 L257.3,126.0 L259.7,128.4 L263.0,131.6 L267.5,135.2 L268.5,136.0 L271.9,138.6 L272.7,139.2 L273.2,139.5 L199.5,139.4 L201.9,142.1 L202.1,144.7 L200.0,146.7 L195.7,147.5 L186.2,146.7 L181.7,145.0 L179.5,138.4 L120.5,209.9 L159.6,236.4 L163.4,238.8 L167.0,240.8 L171.3,242.8 L172.0,243.0 L172.6,243.1 L173.3,243.1 L173.8,242.9 L174.6,242.6 L175.1,242.2 L175.5,241.8 L175.6,241.3 L175.6,240.6 L175.5,240.0 L175.2,239.1 L174.4,236.6 L173.0,233.4 L167.1,218.3 L166.1,215.7 L165.7,214.4 L165.5,213.1 L165.3,211.9 L165.3,210.8 L165.4,209.5 L165.6,208.2 L165.9,206.8 L166.4,205.4 L166.9,204.1 L167.6,202.9 L168.3,201.7 L169.2,200.5 L170.1,199.4 L171.2,198.3 L172.3,197.4 L173.7,196.5 L175.1,195.6 L177.0,194.6 L180.5,192.8 L198.6,183.2 L201.2,181.7 L202.5,180.9 L203.8,180.1 L204.9,179.1 L205.9,178.1 L206.8,177.0 L207.5,175.9 L208.3,174.3 L209.0,172.8 L209.5,171.4 L210.1,170.0 L210.7,168.7 L211.5,167.4 L212.3,166.3 L213.4,165.2 L214.7,164.1 L216.2,163.4 L217.9,162.7 L220.3,161.9 L222.6,161.1 L224.0,160.6 L225.2,160.0 L226.4,159.2 L227.4,158.4 L228.3,157.5 L229.0,156.6 L229.6,155.6 L230.1,154.4 L230.3,153.3 L230.6,151.7 L231.0,149.3 L231.3,147.0 L231.8,145.1 L232.3,143.8 L233.1,142.4 L234.0,141.0 L235.3,139.6 L236.7,138.3 L237.9,137.3 L239.5,136.3 L241.0,135.5 L244.1,134.1 L246.0,133.3 L247.8,132.8 L249.3,132.5 L250.7,132.4 L251.9,132.3 L253.1,132.3 L254.1,132.4 L255.2,132.6 L256.3,132.9 L257.5,133.3 L261.8,135.0 L267.7,137.3 L268.0,137.3 L268.5,137.1 L268.6,136.8 L268.6,136.3 L268.5,136.0 L267.5,135.2 L263.0,131.6 L259.7,128.4 L257.3,126.0 L254.5,122.4 L253.0,120.2 L251.8,118.3 L246.5,110.0 L246.0,109.1 L245.6,108.4 L245.4,107.7 L245.3,107.1 L245.2,106.6 L245.0,106.1 L244.6,105.9 L244.2,105.6 L243.9,105.4 L243.4,105.2 L243.0,105.1 L242.5,105.0 L242.1,104.9 L241.4,104.9 L228.9,106.2 L222.9,106.8 L220.5,107.0 L213.7,107.7 L208.3,108.2 L196.0,109.4 L184.5,110.5 L181.1,110.9 L180.2,111.0 L179.5,111.2 L179.1,111.4 L178.7,111.8 L178.5,112.2 L178.3,112.7 L178.3,113.1 L178.4,113.6 L178.6,114.0 L179.0,114.6 L181.1,116.8 L185.3,121.5 L188.4,125.0 L193.2,130.9 L197.8,137.3 L199.1,139.0 L199.7,140.5 L199.7,141.2 L199.7,141.8 L199.6,142.3 L199.3,142.9 L199.0,143.3 L198.6,143.8 L198.1,144.2 L197.7,144.4 L197.1,144.6 L196.4,144.7 L195.7,144.8 L194.8,144.7 L190.9,144.5 L188.0,144.4 L186.3,144.3 L185.2,144.2 L184.4,144.0 L183.8,143.8 L183.2,143.6 L182.5,143.2 L181.7,142.6 L181.3,142.1 L180.8,141.5 L180.4,140.7 L179.5,138.4 L178.9,136.9 L178.3,135.6 L177.6,134.5 L176.9,133.5 L176.2,132.8 L174.6,131.2 L171.4,128.2 L170.6,127.6 L169.8,127.0 L169.1,126.6 L168.2,126.1 L167.3,125.8 L166.2,125.6 L165.0,125.4 L163.5,125.3 L161.1,125.1 L160.4,125.1 L159.6,125.1 L159.1,125.1 L158.6,125.3 L158.2,125.5 L157.9,125.8 L157.7,126.1 L157.5,126.4 L157.4,126.8 L157.3,127.2 L157.3,127.6 L157.4,128.0 L157.6,128.5 L157.9,129.1 L160.5,133.1 L171.5,149.5 L173.3,152.4 L173.9,153.6 L174.3,154.4 L174.7,155.5 L175.0,156.6 L175.1,157.8 L175.1,159.0 L175.0,160.2 L174.8,161.4 L174.3,163.0 L173.6,164.8 L172.4,167.5 L171.7,168.7 L171.0,169.8 L170.3,170.8 L169.5,171.6 L168.9,172.1 L168.3,172.5 L167.4,173.0 L160.3,175.9 L157.7,176.9 L156.0,177.5 L155.1,177.9 L154.3,178.1 L153.3,178.3 L152.0,178.4 L150.7,178.4 L149.3,178.4 L147.1,178.2 L144.9,177.9 L143.2,177.5 L140.8,176.9 L138.5,176.2 L136.7,175.5 L135.3,174.9 L134.1,174.3 L132.8,173.5 L131.6,172.5 L130.7,171.8 L130.0,170.9 L128.9,169.6 L126.0,165.9 L124.0,163.5 L122.0,161.2 L120.2,158.9 L118.0,156.3 L115.4,153.5 L111.5,149.3 L109.1,146.7 L108.2,146.0 L107.4,145.4 L106.7,145.1 L106.0,144.8 L105.4,144.7 L104.7,144.5 L103.8,144.5 L101.9,144.7 L100.6,145.0 L99.2,145.3 L97.4,145.9 L95.6,146.5 L92.3,147.8 L61.1,159.8 L57.8,161.0 L57.1,161.3 L56.6,161.6 L56.2,161.9 L55.9,162.3 L55.6,162.6 L55.5,162.9 L55.3,163.4 L55.2,163.7 L55.2,164.2 L55.3,164.5 L55.4,165.0 L55.6,165.4 L56.0,165.9 L56.5,166.5 L58.9,168.2 L120.5,209.9 Z" fill="none" stroke="#3b82f6" stroke-width="3.5" stroke-linecap="round" stroke-linejoin="round"/></svg>