<svg viewBox="0 0 400 300" xmlns="http://www.w3.org/2000/svg"><path d="M125.3,51.9 L137.0,56.3 L145.3,61.1 L151.8,67.0 L154.6,70.6 L157.7,75.3 L160.1,82.7 L161.1,88.5 L161.5,96.2 L160.0,105.0 L159.2,122.0 L158.2,131.4 L157.9,139.0 L158.2,146.2 L158.8,155.4 L160.6,164.5 L162.5,172.6 L167.2,181.8 L173.5,190.4 L183.6,198.7 L194.3,203.6 L209.2,208.2 L222.7,210.2 L234.3,210.7 L246.5,209.9 L260.1,207.7 L277.4,201.3 L290.5,187.9 L294.9,186.1 L299.4,186.4 L304.8,189.8 L306.5,193.5 L305.3,198.3 Z" fill="none" stroke="#a855f7" stroke-width="3.5" stroke-linecap="round" stroke-linejoin="round"/></svg>