<svg viewBox="0 0 400 300" xmlns="http://www.w3.org/2000/svg"><path d="M222.1,274.4 L221.7,274.6 L221.3,274.7 L220.7,274.9 L220.0,275.1 L219.3,275.2 L218.2,275.4 L217.3,275.5 L216.5,275.6 L215.6,275.7 L214.5,275.7 L213.4,275.6 L212.2,275.5 L211.2,275.4 L210.0,275.2 L208.8,275.0 L206.7,274.5 L204.8,273.9 L202.9,273.3 L201.0,272.5 L197.8,271.1 L194.6,269.5 L191.0,267.3 L187.8,265.3 L184.9,263.1 L179.6,258.9 L173.7,254.2 L149.8,235.1 L144.9,231.3 L141.4,228.8 L137.9,226.4 L134.8,224.6 L131.4,222.7 L127.2,220.5 L122.8,218.5 L118.2,216.7 L114.3,215.5 L111.3,214.6 L108.4,213.8 L105.3,213.1 L100.6,212.1 L60.6,203.2 L59.9,203.0 L59.2,202.8 L58.5,202.4 L58.0,202.0 L57.8,201.6 L57.6,201.2 L57.6,200.6 L57.7,200.0 L57.9,199.5 L58.4,198.6 L59.2,197.4 L60.2,195.9 L61.2,194.6 L62.3,193.3 L63.5,192.1 L64.6,191.1 L67.7,188.4 L70.1,186.6 L72.7,184.6 L74.7,183.3 L75.9,182.6 L76.5,182.2 L76.9,182.1 L77.4,182.0 L77.8,181.9 L78.2,181.9 L78.7,181.9 L79.2,181.9 L79.7,182.0 L80.1,182.1 L80.4,182.3 L80.9,182.5 L81.4,182.8 L82.1,183.3 L82.8,183.8 L83.3,184.2 L83.7,184.4 L84.2,184.6 L84.7,184.7 L85.2,184.8 L85.7,184.8 L86.3,184.7 L86.8,184.6 L87.2,184.4 L87.7,184.2 L88.7,183.7 L199.2,123.1 L200.5,122.2 L202.1,120.8 L203.3,119.5 L204.3,118.3 L205.0,117.3 L205.4,116.6 L206.0,115.5 L206.4,114.6 L206.8,113.6 L207.0,112.4 L207.1,112.0 L207.2,110.8 L207.4,108.9 L207.4,107.8 L207.8,87.2 L207.6,85.3 L207.5,84.0 L207.0,82.8 L206.8,82.1 L206.0,81.0 L205.1,79.9 L203.2,77.5 L202.3,76.2 L201.7,75.1 L201.1,74.0 L200.7,72.9 L200.2,71.7 L199.9,70.3 L199.6,68.8 L199.4,67.2 L199.2,65.2 L199.2,63.7 L199.2,61.7 L199.6,59.2 L200.1,57.9 L200.9,56.6 L201.7,55.1 L202.9,53.5 L204.5,51.8 L206.3,50.1 L207.9,48.9 L209.4,47.8 L210.3,47.2 L211.9,46.3 L213.3,45.6 L214.7,45.0 L216.3,44.3 L217.1,44.0 L218.6,43.5 L220.7,42.9 L222.9,42.3 L225.3,41.8 L227.8,41.4 L229.6,41.2 L231.8,41.0 L234.2,41.0 L235.8,41.1 L237.9,41.1 L239.8,41.3 L241.3,41.5 L243.1,41.7 L244.3,41.9 L246.3,42.4 L247.5,42.8 L249.5,43.4 L251.1,44.0 L253.0,44.9 L255.3,46.2 L256.8,47.2 L258.5,48.5 L259.9,49.7 L261.4,51.1 L263.0,52.9 L264.4,54.6 L265.9,56.6 L268.1,59.7 L270.9,63.8 L273.7,68.1 L276.7,72.6 L278.2,75.4 L279.6,78.1 L280.8,80.9 L281.9,83.5 L282.9,86.1 L283.8,89.6 L284.5,92.4 L284.9,94.6 L285.4,98.2 L285.7,102.3 L289.5,146.4 L289.9,150.7 L290.0,156.2 L289.8,160.1 L289.5,163.4 L289.1,165.8 L288.3,170.4 L287.5,173.8 L286.4,177.6 L284.6,182.5 L256.1,254.5 L255.3,255.6 L254.7,256.1 L254.1,256.5 L253.3,256.8 L252.7,256.9 L252.0,257.0 L251.3,256.9 L250.4,256.7 L249.4,256.4 L248.5,255.8 L248.0,255.4 L247.5,254.5 L247.1,253.4 L246.5,250.3 L244.8,242.2 L243.0,234.8 L242.7,233.4 L242.7,232.7 L242.7,232.3 L242.7,231.5 L243.1,229.3 L247.9,205.7 L249.3,200.8 L249.8,198.4 L249.9,196.4 L249.9,194.5 L249.0,167.5 L247.9,138.7 L247.9,137.2 L248.1,136.1 L248.5,135.2 L248.9,134.4 L249.7,133.5 L250.6,132.8 L251.6,132.2 L253.0,131.4 L254.3,130.7 L255.5,129.9 L256.5,129.2 L257.5,128.5 L258.3,127.7 L259.2,126.8 L260.1,125.8 L260.9,124.6 L261.8,123.3 L262.5,121.8 L263.0,120.4 L263.2,119.0 L263.4,117.5 L263.5,115.0 L263.4,110.8 L263.2,107.9 L262.8,104.7 L261.9,99.9 L260.7,95.4 L259.8,92.4 L257.8,87.4 L257.0,85.6 L255.9,83.5 L254.8,81.6 L253.5,79.9 L252.3,78.4 L250.5,76.8 L248.4,75.3 L246.4,74.3 L244.9,73.6 L243.6,73.2 L242.1,72.8 L240.9,72.6 L239.6,72.5 L238.4,72.5 L237.1,72.5 L236.0,72.6 L234.6,72.8 L233.4,73.1 L232.3,73.5 L231.1,74.0 L230.0,74.7 L229.1,75.3 L228.3,76.0 L227.6,76.9 L227.1,77.6 L226.7,78.4 L226.4,79.2 L226.3,80.1 L226.3,80.9 L226.4,81.8 L226.7,82.8 L227.2,83.6 L228.0,84.6 L231.4,88.0 L232.8,89.5 L233.8,90.8 L234.8,92.1 L235.7,93.6 L236.8,95.7 L237.3,96.8 L237.8,98.4 L238.2,99.9 L238.5,101.7 L238.6,103.5 L238.6,105.8 L238.2,107.8 L237.7,109.5 L236.9,111.6 L230.0,127.1 L228.7,130.2 L227.8,132.8 L227.1,135.7 L226.8,137.8 L226.6,140.0 L226.7,143.2 L227.0,158.6 L227.4,172.3 L228.1,207.4 L228.0,209.0 L227.9,210.4 L227.7,211.3 L227.4,212.1 L227.1,212.9 L226.6,213.6 L226.1,214.2 L225.4,215.0 L224.7,215.5 L223.9,216.2 L215.8,221.5 L214.3,222.7 L213.3,223.7 L212.8,224.3 L212.4,225.0 L212.0,225.7 L211.7,226.5 L211.4,227.6 L211.2,228.4 L211.1,229.5 L211.0,230.6 L210.9,232.1 L210.9,233.9 L210.9,235.8 L211.1,237.9 L211.4,240.5 L211.9,243.3 L212.7,246.7 L213.8,250.5 L215.0,253.8 L216.7,258.0 L222.8,271.2 L223.0,271.8 L223.1,272.2 L223.2,272.6 L223.2,273.0 L223.2,273.2 L223.1,273.4 L223.0,273.6 L222.8,273.9 L222.5,274.1 L222.1,274.4 L75.9,182.6 L78.8,179.8 L79.6,179.0 L80.5,178.4 L81.6,177.9 L83.0,177.2 L84.3,176.7 L85.3,176.4 L86.2,176.2 L87.5,175.9 L88.3,175.7 L88.9,175.7 L89.6,175.7 L90.5,175.7 L91.6,175.7 L92.5,175.6 L93.7,175.5 L94.8,175.2 L95.9,174.9 L96.7,174.5 L97.9,173.8 L152.6,143.8 L161.8,139.1 L167.4,136.2 L188.6,124.6 L191.1,123.1 L192.4,122.3 L193.5,121.5 L194.9,120.3 L195.8,119.4 L196.6,118.5 L197.6,117.2 L198.5,115.9 L199.2,114.6 L199.7,113.3 L200.2,111.8 L200.6,110.5 L201.1,107.9 L202.8,99.1 L203.1,97.2 L203.3,96.1 L203.3,94.9 L203.2,93.7 L203.2,92.5 L203.0,91.7 L202.9,90.6 L201.0,80.9 L199.6,76.6 L199.0,74.1 L198.6,71.9 L198.3,69.8 L198.1,66.8 L198.1,65.1 L198.4,63.2 L198.8,61.2 L199.6,59.2 Z" fill="none" stroke="#ec4899" stroke-width="3.5" stroke-linecap="round" stroke-linejoin="round"/></svg>