<svg viewBox="0 0 400 300" xmlns="http://www.w3.org/2000/svg"><path d="M306.8,121.7 L324.9,142.6 L343.7,164.1 L344.7,165.5 L345.2,166.8 L345.3,168.4 L345.0,169.9 L338.2,185.7 L337.4,187.4 L336.5,188.5 L335.1,189.3 L333.1,190.0 L306.5,191.5 L289.3,193.1 L235.5,199.7 L233.8,200.1 L232.6,200.9 L231.9,201.7 L231.5,202.6 L231.4,203.7 L231.7,205.1 L232.4,206.0 L233.4,206.8 L246.1,214.5 L248.5,216.1 L250.2,217.9 L252.5,221.5 L253.6,224.6 L254.1,227.4 L254.4,231.0 L254.4,234.9 L254.2,238.4 L253.8,241.5 L253.1,244.4 L252.1,247.8 L250.8,251.1 L248.3,256.3 L244.4,262.0 L241.9,264.5 L239.6,265.3 L237.2,265.3 L235.3,264.9 L233.7,264.1 L188.2,226.6 L185.7,224.7 L181.7,223.6 L178.8,223.5 L175.3,223.9 L172.5,225.1 L161.6,231.0 L155.5,233.8 L152.6,234.8 L148.9,235.4 L144.7,235.5 L140.8,235.3 L135.1,234.3 L129.6,232.1 L125.3,229.4 L121.9,226.3 L119.7,224.0 L117.7,220.8 L116.2,217.1 L116.1,214.9 L116.6,212.6 L117.3,211.1 L118.7,209.5 L120.5,208.6 L122.1,208.1 L149.8,203.1 L229.1,188.9 L267.6,181.9 L286.2,178.8 L304.4,175.3 L306.9,174.3 L308.8,172.8 L310.3,170.9 L311.2,169.0 L311.5,167.0 L311.2,164.6 L309.5,162.2 L308.0,160.8 L306.3,159.9 L304.2,159.5 L300.7,159.5 L259.1,163.0 L311.2,164.6 L310.8,161.5 L310.2,159.4 L308.9,156.1 L307.4,153.3 L306.4,151.8 L305.0,150.2 L303.7,148.9 L302.0,147.7 L299.9,146.6 L298.4,146.2 L297.1,146.1 L295.5,146.2 L293.6,146.5 L122.1,208.1 L124.3,208.7 L126.2,209.2 L128.4,209.1 L134.6,208.5 L135.6,208.4 L136.3,208.6 L137.0,209.0 L137.9,210.4 L138.4,210.9 L139.1,211.2 L140.2,211.0 L157.1,206.4 L169.7,202.7 L251.3,187.5 L257.6,185.7 L267.6,181.9 L306.8,121.7 L307.6,123.8 L308.1,125.5 L308.9,130.6 L309.7,134.3 L310.4,138.8 L310.7,142.6 L310.7,144.4 L310.6,145.1 L310.3,145.9 L309.5,146.5 L308.6,147.0 L306.6,147.9 L303.7,148.9 L274.5,159.2 L269.1,160.7 L265.1,161.6 L259.1,163.0 L338.2,185.7 L338.4,184.3 L338.2,183.1 L337.7,181.8 L337.1,180.8 L336.1,180.2 L334.9,180.1 L330.9,180.2 L300.8,181.4 L286.2,178.8 L308.9,130.6 L308.6,133.7 L308.5,136.6 L308.4,138.3 L308.2,139.3 L307.8,140.3 L307.2,141.3 L306.3,142.1 L305.1,142.9 L303.7,143.4 L301.4,144.0 L293.6,146.5 L293.6,146.5 L291.4,147.4 L288.6,148.3 L259.7,157.8 L258.3,158.3 L256.3,158.7 L252.6,159.2 L249.1,159.6 L243.8,160.0 L240.5,160.6 L232.5,162.0 L158.0,167.7 L152.5,168.1 L143.5,168.8 L133.7,170.2 L122.5,172.6 L115.4,173.4 L104.2,175.4 L259.1,163.0 L232.7,165.1 L104.2,175.4 L100.4,175.5 L98.3,175.3 L96.5,174.8 L94.8,173.8 L93.7,172.7 L92.9,171.3 L92.4,169.8 L92.3,168.3 L92.6,166.2 L93.2,164.4 L93.9,163.0 L94.7,162.0 L95.9,161.0 L97.2,160.3 L98.8,159.9 L100.6,159.9 L103.4,160.5 L108.7,162.4 L110.7,162.9 L112.4,162.8 L113.6,162.5 L114.7,161.5 L115.3,160.2 L115.8,158.3 L115.6,156.5 L114.9,154.6 L113.8,152.6 L110.1,147.7 L108.1,145.0 L106.7,142.3 L105.4,139.2 L104.8,135.8 L104.3,132.8 L104.3,128.6 L104.5,123.9 L105.1,116.8 L106.0,113.3 L107.4,109.3 L109.4,105.2 L111.9,101.2 L114.4,98.2 L117.5,95.2 L121.7,92.3 L125.5,90.4 L129.6,88.7 L148.1,82.7 L164.4,77.0 L189.3,66.8 L193.0,65.0 L203.7,59.9 L207.2,58.4 L208.4,58.0 L209.6,57.9 L210.5,57.9 L211.8,58.1 L212.9,58.7 L213.8,59.4 L214.2,60.2 L214.6,61.5 L214.9,63.0 L216.9,74.1 L223.2,107.5 L224.2,111.6 L225.4,114.5 L226.9,117.0 L228.9,119.6 L231.1,122.1 L233.6,124.2 L236.8,126.3 L240.9,128.1 L246.1,129.1 L250.8,129.3 L254.8,128.6 L257.9,127.9 L261.1,126.5 L264.2,124.5 L267.0,122.2 L269.0,120.0 L270.7,117.8 L272.9,115.5 L275.7,113.6 L279.0,112.0 L282.4,110.9 L286.6,110.4 L290.5,110.8 L294.2,111.7 L297.8,113.5 L301.4,115.9 L304.4,118.9 L306.8,121.7 L70.7,114.3 L70.9,111.7 L68.7,108.7 L71.7,103.8 L75.4,99.9 L77.6,92.3 L78.6,81.8 L80.1,77.6 L83.4,73.6 L92.6,72.1 L95.8,72.3 L100.4,71.6 L105.0,68.0 L107.1,62.3 L108.1,57.8 L106.0,48.6 L101.2,40.9 L93.3,32.6 L87.3,29.6 L83.3,29.6 L78.8,31.8 L76.3,34.2 L78.7,40.1 L87.3,43.1 L90.5,47.3 L94.2,55.7 L98.1,62.0 L92.2,66.6 L54.5,67.1 L47.3,63.9 L44.1,58.7 L39.0,55.4 L34.5,57.3 L33.6,60.8 L34.9,66.7 L46.5,71.8 L65.4,72.3 L69.2,75.2 L71.1,83.1 L69.4,89.3 L65.5,95.1 L64.0,99.0 L62.7,102.6 L61.9,110.9 L63.4,113.9 L66.2,115.8 L68.2,116.4 L70.7,114.3 Z" fill="none" stroke="#f97316" stroke-width="3.5" stroke-linecap="round" stroke-linejoin="round"/></svg>