<svg viewBox="0 0 400 300" xmlns="http://www.w3.org/2000/svg">
  <path d="M64.0,51.3 L69.9,52.2 L75.5,53.1 L79.4,53.8 L83.6,54.5 L86.7,55.0 L92.3,55.9 L96.6,56.6 L104.7,57.9 L108.0,58.4 L112.9,59.2 L117.9,59.9 L121.3,60.4 L124.7,60.9 L133.3,62.2 L138.1,62.9 L145.0,64.0 L149.0,64.6 L157.8,65.9 L161.0,66.3 L165.0,66.8 L174.5,67.9 L180.9,68.7 L188.7,69.5 L194.2,70.2 L204.9,71.4 L212.3,72.3 L220.3,73.2 L229.1,74.2 L233.8,74.8 L237.6,75.2 L245.1,76.2 L252.2,77.1 L258.8,78.0 L266.4,79.0 L271.6,79.7 L275.9,80.3 L281.1,81.0 L291.9,82.3 L300.5,83.5 L304.3,84.0 L315.3,85.4 L320.5,86.1 L323.4,86.5 L329.2,87.2 L336.9,88.2 L338.9,88.6 L344.0,89.7 L345.9,90.3 L349.9,92.4 L351.0,93.3 L352.9,95.3 L353.9,97.1 L354.7,99.1 L355.1,101.1 L355.2,102.7 L355.1,104.3 L354.9,105.5 L354.6,107.1 L354.4,108.3 L354.1,110.4 L354.0,111.9 L354.1,113.4 L354.4,114.5 L355.0,115.8 L355.9,117.3 L356.8,118.3 L358.5,119.6 L360.2,120.6 L361.3,121.4 L362.5,122.4 L364.2,124.5 L365.0,126.8 L365.2,129.1 L365.2,131.2 L364.9,133.2 L364.1,136.8 L363.4,139.2 L362.7,141.6 L361.1,146.0 L360.1,148.6 L358.7,152.0 L357.2,155.2 L354.9,159.6 L353.4,162.4 L351.0,166.4 L347.6,171.9 L346.1,174.2 L343.9,177.6 L341.8,180.6 L337.6,187.2 L334.7,191.9 L333.0,194.7 L330.1,199.5 L328.1,203.0 L324.6,209.0 L322.5,212.5 L318.4,219.4 L316.0,223.4 L311.9,230.0 L308.0,236.3 L305.4,240.4 L302.9,244.1 L299.3,249.3 L295.7,254.5 L292.6,258.9 L290.4,261.9 L287.9,265.7 L285.7,270.2 L285.3,271.6 L285.1,273.4 L285.1,275.0 L285.3,276.1 L285.6,277.1 L286.2,278.2 L286.8,278.9 L287.8,279.9 L288.9,280.7 L290.5,281.5 L292.1,282.4 L293.9,283.5 L295.7,285.4 L296.1,286.3 L296.4,287.5 L296.5,288.4 L296.1,290.5 L295.0,292.2 L294.0,293.2 L292.3,294.6 L290.3,296.0 L288.2,297.5 L286.7,298.5 L283.8,300.6 L280.4,303.2 L278.7,304.4 L276.4,305.7 L274.8,306.2 L273.8,306.3 L272.2,306.4 L271.1,306.3 L269.6,305.9 L268.5,305.3 L266.8,303.7 L266.0,302.2 L265.5,301.1 L265.0,299.0 L264.9,297.5 L265.0,294.3 L265.3,291.0 L265.8,288.1 L266.1,286.4 L266.7,283.4 L267.1,281.0 L267.5,278.7 L268.3,274.2 L269.2,269.4 L269.6,267.0 L270.6,261.9 L272.1,254.5 L272.5,252.3 L273.3,247.9 L274.0,243.8 L275.0,237.7 L275.1,234.4 L274.6,228.6 L272.6,223.5 L270.9,221.1 L267.5,218.0 L262.8,214.9 L260.7,213.5 L258.3,211.5 L255.3,208.7 L252.8,205.7 L251.1,203.2 L249.1,199.9 L247.8,197.7 L246.3,195.6 L244.4,193.4 L240.2,189.6 L233.6,186.1 L230.3,185.1 L227.0,184.4 L220.2,183.9 L215.9,183.8 L211.8,183.7 L206.1,182.7 L203.0,181.7 L200.1,180.2 L198.6,179.0 L196.5,176.8 L193.6,172.6 L192.7,170.9 L191.4,167.9 L190.7,166.2 L188.1,160.4 L185.2,156.0 L183.7,154.5 L179.6,151.2 L176.9,149.5 L172.8,147.2 L169.5,145.5 L166.4,144.0 L159.3,141.0 L154.5,139.2 L148.8,137.5 L143.6,136.0 L137.6,134.6 L135.2,134.1 L128.5,132.9 L124.8,132.3 L118.7,131.4 L115.0,130.9 L105.8,129.8 L102.0,129.3 L98.6,129.0 L90.0,128.0 L83.0,127.3 L74.7,126.3 L71.8,126.0 L68.6,125.6 L65.5,125.2 L60.1,123.9 L56.6,122.1 L54.5,120.2 L53.4,118.9 L52.1,117.0 L51.3,115.1 L50.9,113.4 L50.4,110.6 L50.2,108.0 L50.2,106.3 L50.3,104.0 L50.5,100.7 L50.7,97.0 L50.9,93.5 L51.0,91.3 L50.9,88.6 L50.5,85.0 L49.8,82.5 L49.4,81.6 L47.7,79.9 L46.6,79.3 L45.1,79.0 L44.2,79.0 L43.0,79.2 L42.3,79.5 L41.4,80.0 L40.1,81.1 L38.2,82.6 L36.2,84.0 L34.5,84.7 L33.0,85.1 L31.3,85.3 L29.8,85.3 L28.5,85.2 L26.7,84.9 L23.8,84.3 L21.6,83.9 L19.0,83.5 L17.3,83.2 L14.9,82.9 L12.9,82.6 L11.8,82.4 L10.5,82.1 L8.4,81.1 L7.4,80.4 L6.2,78.5 L6.0,78.1 L5.4,76.0 L5.2,74.6 L5.2,72.7 L5.4,71.4 L5.5,70.5 L6.1,68.2 L7.0,65.9 L8.6,62.9 L10.8,60.0 L11.9,58.9 L14.6,56.5 L16.0,55.4 L18.8,53.7 L21.0,52.6 L23.6,51.6 L28.1,50.3 L30.5,49.8 L33.6,49.4 L36.8,49.1 L41.7,49.0 L44.7,49.1 L46.8,49.3 L49.8,49.5 L55.9,50.2 L60.3,50.8 Z"
    fill="none"
    stroke="#FF6600"
    stroke-width="4"
    stroke-linecap="round"
    stroke-linejoin="round"/>
</svg>