<svg xmlns="http://w3.org" viewBox="0 0 800 600" width="100%" height="100%">
  <path d="M 180.18 59.82 L 352.04 83.69 L 407.78 91.00 L 466.49 96.28 L 494.79 99.81 L 567.80 110.11 L 695.04 129.01 L 721.28 134.29 L 725.76 136.06 L 728.13 138.08 L 729.33 141.34 L 729.64 144.33 L 724.85 175.83 L 725.46 178.60 L 726.97 181.11 L 740.36 188.37 L 744.24 190.40 L 746.30 193.66 L 746.30 196.70 L 743.63 216.35 L 739.45 233.96 L 732.91 251.05 L 725.46 266.42 L 667.05 365.56 L 597.01 475.53 L 592.52 483.06 L 591.92 487.59 L 592.83 491.38 L 594.94 494.16 L 615.79 506.97 L 617.85 509.00 L 618.15 512.26 L 616.69 515.03 L 613.12 518.29 L 574.05 547.76 L 570.17 549.52 L 566.90 550.00 L 563.92 548.99 L 556.77 544.45 L 555.57 541.46 L 555.57 535.43 L 573.44 395.99 L 573.19 391.71 L 571.38 387.71 L 568.71 384.40 L 564.53 381.41 L 543.68 368.55 L 536.23 361.77 L 531.75 357.23 L 527.27 348.69 L 522.48 336.09 L 517.75 328.56 L 512.36 323.28 L 506.42 319.49 L 498.36 315.96 L 433.96 306.14 L 426.81 303.90 L 422.38 300.11 L 420.27 297.60 L 418.50 294.07 L 410.15 268.18 L 407.48 263.11 L 403.30 258.36 L 392.88 252.06 L 345.19 226.38 L 331.44 220.62 L 311.50 215.81 L 151.73 192.64 L 148.46 191.42 L 146.70 189.39 L 145.19 186.13 L 144.89 181.86 L 142.22 140.81 L 138.94 112.41 L 137.74 109.15 L 135.37 106.85 L 132.10 105.36 L 127.92 105.84 L 123.44 109.90 L 117.75 118.44 L 114.47 120.95 L 110.60 122.44 L 106.16 122.23 L 101.08 119.93 L 95.14 117.16 L 89.45 115.40 L 62.36 112.41 L 57.88 110.91 L 55.76 109.15 L 54.00 105.84 L 53.70 102.58 L 55.46 94.79 L 59.34 84.49 L 64.42 75.89 L 71.87 65.59 L 80.54 58.54 L 91.56 52.99 L 101.68 50.27 L 111.50 50.00 L 125.80 51.76 L 180.18 59.82" fill="none" stroke="#e10600" stroke-width="4.5" stroke-linecap="round" stroke-linejoin="round" />
</svg>