<svg viewBox="0 0 400 300" xmlns="http://www.w3.org/2000/svg">
  <path d="M167.5,110.5 L172.5,113.6 L175.6,115.6 L181.0,119.0 L184.8,121.4 L188.9,124.0 L193.5,126.8 L197.0,128.9 L200.5,131.0 L206.7,134.6 L211.8,137.5 L218.5,141.0 L223.2,143.4 L227.6,145.7 L230.6,147.3 L236.1,150.7 L238.2,152.6 L239.1,153.6 L239.7,154.7 L240.3,156.3 L240.5,157.7 L240.3,159.2 L239.8,160.6 L238.9,162.1 L238.0,163.2 L236.6,164.7 L235.2,166.1 L234.1,167.2 L233.0,168.2 L231.5,169.8 L229.5,172.1 L227.3,176.0 L226.3,179.3 L226.2,180.0 L226.0,183.3 L226.0,186.4 L225.7,190.4 L224.0,196.5 L223.1,198.4 L221.6,200.9 L217.8,204.9 L215.0,206.9 L211.1,209.2 L206.7,211.2 L203.0,212.4 L198.9,213.4 L195.3,214.0 L191.2,214.3 L187.0,214.3 L181.4,213.6 L177.2,212.7 L172.0,210.8 L168.9,209.4 L168.0,208.9 L163.7,206.5 L160.8,204.8 L153.7,200.3 L149.1,197.4 L145.2,194.9 L142.6,193.2 L139.9,191.5 L134.8,188.2 L132.7,186.9 L129.0,184.7 L125.9,182.9 L120.2,179.9 L116.6,178.2 L110.0,176.2 L102.1,176.0 L97.8,176.7 L91.8,179.2 L85.0,183.2 L82.9,184.2 L80.5,185.0 L75.0,185.8 L72.0,185.6 L68.1,184.6 L64.2,182.7 L62.1,181.2 L59.5,179.4 L56.2,176.5 L52.4,173.5 L50.0,172.2 L46.3,170.8 L41.7,170.0 L34.7,170.7 L30.5,172.0 L25.2,174.4 L21.7,176.8 L19.1,179.4 L17.2,181.8 L15.1,185.7 L14.5,187.5 L14.0,189.8 L13.9,191.5 L13.9,194.0 L14.2,195.7 L14.8,198.0 L16.1,200.4 L18.7,202.9 L20.5,203.8 L23.4,204.6 L26.2,204.9 L29.6,205.0 L30.8,205.0 L35.3,205.1 L37.2,205.1 L41.2,205.4 L45.3,205.9 L48.1,206.3 L52.7,207.0 L55.4,207.5 L58.8,208.2 L62.9,209.1 L65.7,209.7 L69.3,210.4 L76.1,211.0 L79.3,211.0 L86.7,210.8 L90.3,210.6 L94.7,210.4 L98.8,210.2 L104.7,210.0 L109.6,210.0 L114.6,209.9 L120.7,209.8 L127.2,209.7 L130.7,209.7 L135.4,209.7 L140.1,210.0 L143.5,210.4 L149.3,211.7 L150.5,212.0 L155.8,213.7 L160.0,215.2 L166.5,217.5 L171.1,219.0 L177.6,221.0 L185.4,223.3 L192.6,224.8 L201.6,226.1 L205.7,226.5 L211.2,226.6 L217.5,226.5 L225.1,226.0 L229.8,225.5 L234.4,224.8 L241.1,223.5 L244.9,222.6 L253.1,220.2 L257.6,218.7 L264.6,216.3 L269.9,214.5 L275.3,212.7 L284.4,209.6 L288.5,208.1 L293.0,206.5 L295.5,205.5 L301.6,203.0 L305.6,201.3 L311.2,198.8 L312.4,198.2 L317.6,195.8 L321.2,194.1 L327.2,191.2 L331.9,188.8 L335.2,187.1 L338.2,185.4 L341.7,183.4 L345.2,181.1 L347.8,179.0 L349.2,177.7 L350.5,176.1 L351.2,174.9 L351.9,173.8 L352.5,170.9 L352.3,169.6 L351.7,168.4 L350.2,166.5 L350.0,166.3 L348.4,164.8 L347.3,163.9 L346.1,163.0 L344.9,162.0 L343.6,160.8 L341.4,158.3 L340.0,156.1 L339.5,154.7 L339.1,151.8 L339.4,149.2 L339.8,148.1 L340.4,146.7 L340.9,145.8 L342.0,144.3 L343.1,143.2 L344.2,142.4 L345.3,141.8 L347.1,141.0 L348.6,140.7 L350.3,140.4 L352.2,140.4 L355.1,140.3 L358.0,140.3 L359.7,140.1 L361.9,139.6 L366.0,137.7 L370.0,133.8 L372.0,130.6 L373.3,127.5 L373.7,125.6 L373.8,124.4 L373.8,123.3 L372.2,121.5 L370.9,120.8 L369.8,120.0 L369.4,119.0 L369.4,117.2 L370.0,114.7 L370.7,111.9 L371.5,109.4 L372.2,107.4 L372.7,106.0 L373.5,103.6 L373.4,100.6 L373.0,99.8 L372.3,99.1 L371.3,98.3 L369.9,97.5 L368.7,97.0 L367.3,96.5 L365.5,96.1 L363.5,95.7 L362.6,95.7 L360.6,95.5 L358.6,95.4 L355.6,95.3 L353.6,95.3 L350.7,95.2 L348.5,95.1 L346.2,95.1 L343.7,95.0 L341.0,94.9 L338.4,94.8 L335.0,94.7 L331.1,94.6 L327.5,94.5 L322.4,94.3 L319.5,94.3 L314.2,94.1 L310.8,94.1 L308.0,94.0 L303.1,93.9 L297.5,93.8 L290.9,93.6 L288.0,93.6 L282.1,93.4 L278.7,93.4 L271.4,93.2 L265.6,93.1 L262.1,93.0 L258.2,92.8 L252.3,92.6 L248.7,92.5 L242.0,92.3 L237.1,92.1 L232.3,91.9 L223.3,91.6 L217.4,91.4 L212.4,91.2 L211.6,91.2 L206.5,91.0 L198.0,90.7 L191.5,90.5 L185.4,90.3 L179.7,90.1 L172.3,89.8 L168.3,89.7 L163.5,89.6 L157.7,89.5 L153.3,89.4 L149.7,89.3 L145.7,89.3 L139.9,89.1 L135.4,89.0 L128.7,88.9 L122.8,88.8 L116.1,88.7 L109.8,88.6 L106.2,88.5 L99.1,88.2 L95.8,88.0 L92.1,87.7 L85.4,87.0 L79.0,86.4 L73.0,85.8 L69.1,85.5 L67.6,85.5 L64.6,85.7 L62.6,85.9 L61.1,86.3 L60.0,86.6 L58.5,87.5 L57.8,88.1 L57.2,89.0 L56.8,89.9 L56.7,90.9 L56.8,92.7 L57.2,93.8 L57.6,94.5 L58.3,95.7 L59.4,96.9 L60.1,97.5 L61.1,98.3 L63.1,99.8 L64.7,100.6 L65.1,100.9 L67.8,102.4 L69.6,103.5 L71.0,104.4 L72.5,105.4 L76.9,107.8 L80.3,108.9 L85.0,109.3 L89.9,108.4 L93.6,107.0 L99.6,104.2 L102.4,102.9 L106.2,101.1 L108.9,99.8 L115.8,97.5 L118.9,97.0 L123.7,96.5 L129.0,96.3 L135.7,96.7 L141.0,97.9 L144.9,99.1 L150.5,101.1 L155.6,103.4 L158.3,104.9 L162.3,107.1 Z"
    fill="none"
    stroke="#FF6600"
    stroke-width="4"
    stroke-linecap="round"
    stroke-linejoin="round"/>
</svg>