<svg viewBox="0 0 400 300" xmlns="http://www.w3.org/2000/svg"><path d="M322.5,114.8 L318.5,120.4 L317.7,120.9 L316.7,121.2 L315.7,121.3 L314.6,121.1 L307.9,118.3 L307.5,118.0 L307.2,117.5 L307.2,117.1 L307.3,116.6 L307.6,116.3 L308.0,116.0 L308.5,115.9 L309.0,115.8 L312.3,116.5 L312.9,116.6 L313.4,116.9 L313.8,117.2 L314.0,117.5 L314.3,118.0 L314.5,118.4 L314.8,118.6 L315.2,118.8 L315.7,118.8 L316.2,118.8 L316.6,118.6 L316.9,118.3 L322.4,109.8 L322.7,109.3 L322.7,108.8 L322.6,108.3 L322.2,107.9 L321.5,107.6 L321.1,107.5 L320.6,107.5 L320.1,107.7 L319.8,107.9 L319.5,108.1 L319.3,108.4 L316.0,113.5 L315.3,114.1 L314.5,114.4 L313.5,114.6 L312.5,114.5 L311.6,114.2 L310.9,113.6 L310.4,113.0 L310.3,112.2 L310.6,111.5 L314.7,106.3 L315.1,105.7 L315.7,105.3 L316.4,105.0 L317.2,104.9 L318.0,104.7 L318.6,104.4 L319.0,103.9 L319.1,103.4 L319.0,102.8 L318.3,102.1 L318.1,101.8 L318.1,101.4 L318.3,101.0 L318.6,100.7 L319.0,100.5 L319.5,100.4 L320.1,100.4 L320.6,100.5 L322.5,101.6 L322.9,102.0 L323.1,102.5 L323.2,103.0 L323.1,103.5 L323.0,104.0 L323.1,104.6 L323.5,105.1 L324.0,105.5 L325.4,106.3 L326.1,106.8 L326.7,107.3 L327.0,108.0 L326.9,108.6 L326.7,109.3 L322.5,114.8 L-17.0,192.9 L-4.7,200.9 L-2.1,202.6 L-2.1,202.6 L-1.3,203.2 L-0.7,203.7 L-0.3,204.1 L0.0,204.6 L0.3,205.2 L0.5,206.0 L0.7,206.7 L0.7,207.4 L0.6,208.0 L0.5,208.5 L0.4,209.0 L-5.2,224.7 L-5.4,225.2 L-5.7,225.7 L-6.0,226.1 L-6.3,226.5 L-6.6,226.8 L-6.9,227.1 L-7.3,227.3 L-7.7,227.6 L-8.1,227.8 L-8.6,228.0 L-9.1,228.1 L-9.5,228.2 L-9.9,228.3 L-10.3,228.3 L-10.7,228.3 L-11.1,228.3 L-11.5,228.3 L-11.9,228.3 L-12.3,228.2 L-12.6,228.1 L-12.9,228.1 L-13.2,227.9 L-13.4,227.8 L-13.7,227.6 L-14.1,227.5 L-14.4,227.2 L-14.6,226.9 L-14.8,226.6 L-15.1,226.2 L-15.2,225.9 L-15.4,225.5 L-15.5,225.0 Z" fill="none" stroke="#ec4899" stroke-width="3.5" stroke-linecap="round" stroke-linejoin="round"/></svg>