<svg viewBox="0 0 400 300" xmlns="http://www.w3.org/2000/svg"><path d="M236.0,180.8 L207.5,219.7 L202.2,223.5 L195.3,225.9 L187.8,226.4 L180.4,225.0 L133.6,205.5 L130.4,203.1 L128.6,200.0 L128.1,196.6 L129.2,193.3 L131.2,191.1 L133.9,189.4 L137.3,188.3 L141.0,188.0 L164.3,192.9 L168.2,193.6 L171.7,195.2 L174.5,197.3 L176.2,200.0 L178.0,203.4 L179.3,205.6 L181.5,207.5 L184.5,208.7 L187.9,209.1 L191.2,208.6 L194.2,207.3 L196.3,205.4 L235.2,145.2 L237.1,142.1 L237.4,138.6 L236.2,135.3 L233.6,132.5 L228.9,130.4 L225.7,129.7 L222.4,129.7 L219.3,130.4 L216.7,131.8 L214.8,133.8 L213.3,135.9 L190.0,171.6 L185.4,175.5 L179.3,178.1 L172.3,179.1 L165.3,178.4 L158.9,176.1 L154.0,172.4 L151.0,167.8 L150.3,162.7 L152.0,157.7 L180.9,120.6 L183.7,117.0 L187.8,114.0 L192.9,112.1 L198.6,111.2 L204.2,109.8 L208.3,107.3 L211.0,104.0 L212.0,100.2 L211.2,96.4 L206.6,91.5 L205.2,89.0 L205.0,86.3 L206.0,83.7 L208.2,81.5 L211.3,79.9 L215.0,79.2 L218.7,79.4 L222.2,80.4 L235.7,88.0 L238.6,90.8 L240.3,94.1 L240.7,97.7 L239.8,101.1 L239.0,105.1 L240.0,109.0 L242.7,112.5 L246.7,115.2 L256.1,121.3 L261.4,124.2 L265.2,128.1 L267.2,132.6 L267.1,137.4 L265.0,142.0 L236.0,180.8 Z" fill="none" stroke="#ec4899" stroke-width="3.5" stroke-linecap="round" stroke-linejoin="round"/></svg>