<svg viewBox="0 0 400 300" xmlns="http://www.w3.org/2000/svg">
  <path d="M102.1,207.5 L101.9,204.1 L102.1,198.6 L102.3,195.6 L102.5,192.2 L103.1,187.5 L103.7,182.8 L104.4,179.0 L105.8,173.2 L106.8,169.6 L107.3,167.7 L108.0,165.7 L108.6,164.1 L109.6,162.2 L112.1,160.1 L113.8,159.4 L117.1,158.7 L119.8,158.4 L122.2,158.2 L125.6,157.9 L129.2,157.6 L131.3,157.3 L137.8,156.2 L142.6,155.1 L145.4,154.4 L150.5,153.1 L154.1,152.2 L157.5,151.4 L160.5,150.6 L166.0,149.2 L169.1,148.6 L173.9,147.9 L177.6,147.6 L182.4,147.1 L187.8,145.6 L192.8,143.3 L199.6,139.9 L202.5,138.7 L206.2,137.3 L211.2,136.0 L216.8,135.0 L223.2,134.2 L226.8,133.8 L235.9,131.4 L238.3,130.3 L241.8,127.9 L244.9,124.9 L246.3,122.8 L247.5,120.5 L248.4,116.7 L248.6,112.5 L248.2,109.7 L247.3,106.5 L246.1,103.8 L243.6,99.5 L241.0,96.2 L239.7,94.7 L236.5,90.2 L235.6,87.6 L235.5,85.0 L236.3,81.4 L238.2,77.6 L238.8,76.6 L240.3,74.5 L242.9,71.2 L244.8,69.1 L247.7,65.9 L249.3,64.0 L252.8,59.2 L255.7,54.8 L257.5,52.4 L259.3,50.0 L262.0,46.7 L264.2,44.0 L264.6,43.6 L267.5,40.7 L268.4,40.0 L269.6,39.5 L271.3,39.4 L273.0,39.9 L274.5,40.9 L275.5,42.2 L275.8,42.7 L276.7,45.1 L277.5,48.2 L278.1,50.1 L278.8,52.3 L280.3,56.0 L282.1,59.7 L282.3,60.1 L282.4,60.1 L283.8,62.0 L284.9,63.2 L285.8,63.8 L287.5,64.6 L288.9,64.5 L289.5,64.1 L289.6,63.9 L290.0,62.9 L290.0,62.3 L290.0,61.7 L289.7,60.6 L289.6,60.2 L288.6,58.3 L287.8,57.2 L287.1,56.5 L286.1,55.4 L285.4,54.7 L283.8,53.0 L282.7,51.4 L282.0,49.6 L282.0,47.8 L282.4,46.4 L283.2,45.2 L283.9,44.4 L286.1,42.9 L290.0,40.9 L291.9,40.2 L293.5,39.6 L296.4,38.8 L298.0,38.6 L299.3,38.5 L302.1,39.6 L303.1,40.9 L303.6,41.9 L304.2,43.8 L304.7,46.3 L304.8,48.3 L304.8,50.2 L304.7,53.5 L304.5,55.5 L304.0,59.3 L303.8,61.6 L303.5,64.3 L303.1,68.0 L302.8,70.4 L302.4,74.4 L302.1,77.3 L301.6,80.2 L300.0,86.5 L299.1,89.5 L297.5,93.9 L296.2,97.3 L293.8,103.1 L291.1,109.0 L288.6,113.5 L283.0,120.7 L277.8,125.0 L274.3,127.1 L271.4,128.7 L265.0,131.6 L259.1,134.6 L256.1,136.1 L252.1,138.2 L245.6,141.3 L239.7,143.9 L236.6,145.2 L229.6,147.6 L226.3,148.6 L221.7,149.7 L216.4,150.6 L211.2,151.2 L207.9,151.6 L205.3,151.8 L203.1,152.1 L201.3,152.3 L199.5,152.8 L197.9,153.6 L196.4,155.5 L195.0,157.9 L194.2,158.8 L193.1,159.4 L191.2,159.8 L190.7,159.9 L188.1,159.6 L187.0,159.4 L185.0,158.9 L184.8,158.8 L182.7,158.5 L178.4,158.7 L177.1,159.0 L174.5,159.3 L171.5,159.8 L168.6,160.2 L165.9,160.6 L163.3,160.9 L157.8,161.6 L153.0,162.1 L146.4,162.8 L143.1,163.1 L138.1,163.5 L133.7,163.7 L128.5,164.8 L125.9,166.3 L123.3,168.8 L120.3,172.9 L118.6,175.9 L117.3,179.1 L115.6,185.1 L115.2,187.8 L114.7,191.1 L114.4,199.3 L115.1,203.9 L115.2,204.2 L119.5,209.9 L122.6,217.3 L123.8,221.3 L127.0,238.9 L127.2,242.2 L127.2,245.4 L126.5,248.8 L125.5,250.1 L123.3,252.8 L123.2,256.9 L123.7,260.0 L123.8,260.4 L124.4,262.6 L126.0,267.1 L127.3,269.8 L129.0,272.8 L130.4,274.9 L132.2,277.2 L134.5,279.7 L136.5,281.4 L139.0,283.0 L142.9,285.2 L144.7,286.1 L146.3,287.1 L148.3,288.9 L148.9,289.9 L149.3,291.0 L149.3,291.8 L149.2,292.8 L149.0,293.8 L148.2,295.5 L147.4,296.5 L145.6,297.4 L144.7,297.7 L143.0,298.1 L138.8,298.5 L136.7,298.5 L134.3,298.5 L132.3,298.3 L130.9,298.0 L129.1,297.5 L127.8,296.6 L127.1,295.7 L126.4,294.3 L125.5,291.2 L125.0,288.5 L124.1,285.6 L122.5,282.7 L120.2,279.3 L118.8,277.3 L117.1,274.6 L115.2,270.9 L112.5,264.0 L111.3,260.2 L110.4,257.2 L109.5,254.1 L107.8,248.2 L107.3,246.4 L105.6,239.4 L104.7,235.3 L103.7,228.7 L103.3,225.0 L102.8,218.5 L102.4,213.2 Z"
    fill="none"
    stroke="#FF6600"
    stroke-width="4"
    stroke-linecap="round"
    stroke-linejoin="round"/>
</svg>