<svg xmlns="http://w3.org" viewBox="0 0 800 600" width="100%" height="100%">
  <path d="M 457.85 147.69 L 457.03 142.55 L 458.18 137.92 L 461.15 131.58 L 463.96 127.13 L 472.71 116.04 L 517.17 55.66 L 520.26 51.31 L 524.84 50.00 L 530.42 51.60 L 534.30 54.80 L 537.10 59.83 L 537.68 65.48 L 537.81 70.17 L 538.26 73.99 L 540.57 78.56 L 543.25 82.05 L 548.25 89.08 L 551.63 95.30 L 552.95 99.07 L 554.65 101.30 L 557.33 102.05 L 560.43 101.13 L 562.74 98.73 L 563.44 95.30 L 561.91 92.39 L 557.99 89.53 L 546.39 74.79 L 544.74 71.25 L 544.70 67.82 L 545.61 65.20 L 546.85 62.74 L 552.29 59.94 L 560.71 57.77 L 565.30 56.06 L 570.00 54.17 L 576.52 51.89 L 583.62 51.37 L 587.38 53.26 L 588.78 59.08 L 587.46 93.13 L 582.22 128.15 L 576.77 150.43 L 570.70 166.32 L 560.30 184.48 L 548.33 199.85 L 530.99 218.76 L 506.19 233.96 L 491.41 241.21 L 462.93 254.52 L 443.77 261.15 L 415.50 267.84 L 397.30 270.69 L 387.64 272.52 L 385.99 275.32 L 385.86 277.78 L 385.28 280.63 L 384.05 283.43 L 379.96 284.86 L 374.18 285.83 L 367.78 282.18 L 364.27 281.95 L 313.34 288.63 L 288.03 292.29 L 264.75 295.94 L 258.31 296.91 L 254.02 297.66 L 250.93 300.86 L 246.06 310.45 L 241.93 319.77 L 238.63 329.08 L 237.18 335.71 L 235.65 347.25 L 235.53 367.01 L 235.74 371.93 L 237.18 375.30 L 240.07 378.55 L 246.47 383.24 L 250.76 387.18 L 252.62 391.41 L 253.36 397.52 L 260.63 439.57 L 262.48 446.94 L 263.06 449.28 L 262.90 452.42 L 261.04 454.94 L 256.95 457.79 L 252.87 459.79 L 251.92 462.65 L 252.70 468.65 L 257.37 482.30 L 261.62 492.58 L 265.95 500.70 L 273.38 511.32 L 282.71 520.75 L 289.56 524.69 L 297.24 528.29 L 301.08 530.00 L 303.02 532.18 L 305.25 538.86 L 304.17 542.40 L 300.71 544.46 L 285.31 548.51 L 276.72 549.89 L 271.07 550.00 L 266.03 549.26 L 262.86 546.86 L 260.91 544.86 L 260.83 540.17 L 260.09 536.40 L 258.60 531.78 L 249.94 521.09 L 243.58 510.87 L 238.63 503.21 L 233.38 488.70 L 221.78 448.31 L 218.61 435.28 L 216.38 421.34 L 213.49 401.01 L 211.22 374.55 L 211.22 357.30 L 211.96 344.10 L 213.40 330.39 L 215.96 320.85 L 218.85 312.28 L 220.26 307.03 L 220.96 302.40 L 220.63 295.37 L 220.50 291.03 L 221.91 288.46 L 225.50 286.75 L 234.25 284.63 L 242.05 284.29 L 252.74 282.98 L 267.64 281.09 L 280.85 278.75 L 314.45 268.86 L 333.23 263.72 L 350.45 260.92 L 362.25 259.95 L 371.46 256.64 L 398.08 244.01 L 409.76 239.21 L 426.81 235.39 L 441.05 233.39 L 454.63 231.10 L 462.27 228.42 L 471.55 222.59 L 479.60 214.19 L 484.14 207.11 L 486.17 199.68 L 485.84 191.91 L 484.52 184.60 L 481.63 176.54 L 477.79 168.89 L 471.76 164.20 L 465.98 158.78 L 463.18 156.32 L 460.57 153.69 L 457.85 147.69" fill="none" stroke="#e10600" stroke-width="4.5" stroke-linecap="round" stroke-linejoin="round" />
</svg>