<svg id="svg2383" xmlns="http://www.w3.org/2000/svg" xmlns:xlink="http://www.w3.org/1999/xlink" viewBox="0 0 1366.511 825.709">
<style>
                    path, polyline, polygon, line, circle {
                        stroke: #f97316 !important;
                        stroke-width: 3.5px !important;
                        fill: none !important;
                        stroke-linecap: round !important;
                        stroke-linejoin: round !important;
                        filter: drop-shadow(0px 0px 5px #f97316) !important;
                    }
                </style>

<defs><clipPath id="clip-path" transform="translate(-14.747 -46.142)"><ellipse cx="-134.44" cy="49.049" rx="540.057" ry="1285.776" transform="translate(-104.003 -90.785) rotate(-57.676)" /></clipPath></defs><title>motogp_dutch_tt</title><path id="path3194" d="M323.687,434.205c-99.6-62.922-196.963-123.76-295.8-188.128-5.227-3.4-8.511-16.295-6.58-22.133,12.566-38,22.245-64.451,35.293-100.794,3.7-10.3,14.33-16.916,20.936-20.039C114.8,85.5,150.951,70.452,186.105,54.06c6.793-3.167,19.4-2.02,26.32.6,7.835,2.964,16.909,9.49,21.534,16.15,5.345,7.7,8,18.714,8.375,28.414a79.714,79.714,0,0,1-5.982,32.3c-3.5,8.841-8.9,19.566-16.749,23.927-10.1,5.609-24.8,6.665-37.087,5.982-16.426-.913-33.21-8.92-48.752-8.375-7.189.253-14.564,5.195-19.441,10.768-3.5,4-4.938,10.826-3.888,15.552,1.342,6.042,10.192,13.555,16.749,15.254,24.632,6.383,47.613,11.676,74.474,13.459,24.6,1.633,50.2-5.5,74.174,0,73.1,16.771,145.924,32.465,217.738,52.64,47.424,13.323,92.708,31.095,139.676,46.06C667.63,317.748,699.548,327,733.74,337.9c13.249,4.221,19.939,16.777,24.227,26.918,4.586,10.848,8.717,24.543,16.749,33.8,10.312,11.882,24.357,21.46,39.181,25.722,17.079,4.91,37.188,4.37,55.332.3,44.067-9.887,83.851-25.467,128.011-37.685,15.168-4.2,28.125-2.677,38.283,1.794,8.929,3.93,19.755,12,22.432,20.936,15.157,50.58,34.994,93.29,52.939,140.573,21.092,55.577,41.1,109.657,58.024,164.8,3.456,11.264,23.371,22.528,31.105,21.834,46.67-4.187,82.788-15.387,131.9-18.544,6.719-.432,18.53.614,23.628,4.786,8.062,6.6,16.705,15.914,18.544,25.721,2.947,15.715.065,35.841-5.982,51.444-6.316,16.3-18.468,32.106-31.105,44.266-8.5,8.178-20.851,13.5-32.3,16.749-12.476,3.535-26.592,5.983-39.48,3.589-60.09-11.164-121.751-25.25-179.455-44.266-12.483-4.113-21.754-15.648-31.105-25.123-50.467-51.141-102.1-102.271-148.349-156.724-9.977-11.746-13.488-27.95-20.338-41.873-5.512-11.2-9.557-23.467-16.749-33.5-7.962-11.105-18.273-20.892-28.713-29.909-24.653-21.291-48.8-45.679-76.567-61.015-14.111-7.794-33.1-11.814-49.051-8.374-70.982,15.3-142.352,50.511-211.757,64.6-9.156,1.859-17.309-9.912-23.927-16.75-5.346-5.524-3.651-13.854-9.87-17.048-8.537-4.383-21.051-1.712-31.7-3.29-10.882-1.612-25.208-6.824-34.993-11.664C375.344,466.461,349.705,450.642,323.687,434.205Z" transform="translate(-14.747 -46.142)"   stroke-linejoin="round" /><path id="path2406" d="M323.687,434.205c-99.6-62.922-196.963-123.76-295.8-188.128-5.227-3.4-8.511-16.295-6.58-22.133,12.566-38,22.245-64.451,35.293-100.794,3.7-10.3,14.33-16.916,20.936-20.039C114.8,85.5,150.951,70.452,186.105,54.06c6.793-3.167,19.4-2.02,26.32.6,7.835,2.964,16.909,9.49,21.534,16.15,5.345,7.7,8,18.714,8.375,28.414a79.714,79.714,0,0,1-5.982,32.3c-3.5,8.841-8.9,19.566-16.749,23.927-10.1,5.609-24.8,6.665-37.087,5.982-16.426-.913-33.21-8.92-48.752-8.375-7.189.253-14.564,5.195-19.441,10.768-3.5,4-4.938,10.826-3.888,15.552,1.342,6.042,10.192,13.555,16.749,15.254,24.632,6.383,47.613,11.676,74.474,13.459,24.6,1.633,50.2-5.5,74.174,0,73.1,16.771,145.924,32.465,217.738,52.64,47.424,13.323,92.708,31.095,139.676,46.06C667.63,317.748,699.548,327,733.74,337.9c13.249,4.221,19.939,16.777,24.227,26.918,4.586,10.848,8.717,24.543,16.749,33.8,10.312,11.882,24.357,21.46,39.181,25.722,17.079,4.91,37.188,4.37,55.332.3,44.067-9.887,83.851-25.467,128.011-37.685,15.168-4.2,28.125-2.677,38.283,1.794,8.929,3.93,19.755,12,22.432,20.936,15.157,50.58,34.994,93.29,52.939,140.573,21.092,55.577,41.1,109.657,58.024,164.8,3.456,11.264,23.371,22.528,31.105,21.834,46.67-4.187,82.788-15.387,131.9-18.544,6.719-.432,18.53.614,23.628,4.786,8.062,6.6,16.705,15.914,18.544,25.721,2.947,15.715.065,35.841-5.982,51.444-6.316,16.3-18.468,32.106-31.105,44.266-8.5,8.178-20.851,13.5-32.3,16.749-12.476,3.535-26.592,5.983-39.48,3.589-60.09-11.164-121.751-25.25-179.455-44.266-12.483-4.113-21.754-15.648-31.105-25.123-50.467-51.141-102.1-102.271-148.349-156.724-9.977-11.746-13.488-27.95-20.338-41.873-5.512-11.2-9.557-23.467-16.749-33.5-7.962-11.105-18.273-20.892-28.713-29.909-24.653-21.291-48.8-45.679-76.567-61.015-14.111-7.794-33.1-11.814-49.051-8.374-70.982,15.3-142.352,50.511-211.757,64.6-9.156,1.859-17.309-9.912-23.927-16.75-5.346-5.524-3.651-13.854-9.87-17.048-8.537-4.383-21.051-1.712-31.7-3.29-10.882-1.612-25.208-6.824-34.993-11.664C375.344,466.461,349.705,450.642,323.687,434.205Z" transform="translate(-14.747 -46.142)"   stroke-linejoin="round" /><g clip-path="url(#clip-path)"><g id="layer1"><g id="g3608"><g id="g3324"><path id="path3322" d="M868.148,679.1a23.927,23.927,0,0,1-47.854.072V679.1a23.927,23.927,0,1,1,47.854-.072Z" transform="translate(-14.747 -46.142)"   stroke-linecap="round" stroke-linejoin="round" /><g id="text3252" style="isolation:isolate"><text transform="translate(807.823 646.478)" font-size="40" font-family="TimesNewRomanPSMT, Times New Roman" style="isolation:isolate">15</text></g></g><path id="path3561" d="M871.392,666.281l-6.978-10.471,30.974-13.081Z" transform="translate(-14.747 -46.142)"  stroke-linecap="round" /></g><g id="g3615"><g id="g3317"><path id="path3315" d="M830.436,606.36a23.928,23.928,0,0,1-47.855.072v-.072a23.928,23.928,0,0,1,47.855-.072Z" transform="translate(-14.747 -46.142)"   stroke-linecap="round" stroke-linejoin="round" /><g id="text3256" style="isolation:isolate"><text transform="translate(770.736 573.5)" font-size="40" font-family="TimesNewRomanPSMT, Times New Roman" style="isolation:isolate">16</text></g></g><path id="path3563" d="M835.813,596.215l-6.979-10.471,30.975-13.081Z" transform="translate(-14.747 -46.142)"  stroke-linecap="round" /></g></g></g></svg>