<svg id="Layer_1" data-name="Layer 1" xmlns="http://www.w3.org/2000/svg" viewBox="0 0 937.498 407.977">
<style>
                    path, polyline, polygon, line, circle {
                        stroke: #f97316 !important;
                        stroke-width: 3.5px !important;
                        fill: none !important;
                        stroke-linecap: round !important;
                        stroke-linejoin: round !important;
                        filter: drop-shadow(0px 0px 5px #f97316) !important;
                    }
                </style><title>motogp_thai_gp</title><path d="M947.961,179.59c-.178.1-.545.29-.723.39-.663-8.98-6.456-17.03-13.783-21.86-8.129-5.24-17.843-6.91-27.23-8.24-49.5-7.6-99.1-14.62-148.822-20.54q-38.571-4.4-77.144-8.7c-20.466-2.45-41.082-4.25-61.241-8.75-22.428-4.62-44.627-10.35-66.946-15.5C493.781,82.84,435.589,68.88,377.357,55.08a67.2,67.2,0,0,1-8.752-2.911,4.989,4.989,0,0,1-1.475-.348,68.564,68.564,0,0,0-9.386-2.883,4.912,4.912,0,0,1-.778-.18c-3.01-.69-6.051-1.245-9.105-1.763q3.375,1.416,6.752,2.825c-3.01-.72-5.941-1.82-9.05-2.01-.4-.13-1.188-.38-1.584-.51l-.03-.81a20.991,20.991,0,0,1-4.406-.38l-.465-.05c-.585-.26-1.763-.78-2.357-1.04l-.436-.06c-4.178-.29-8.179-1.57-12.258-2.44-35.448-8.34-70.995-16.28-106.522-24.29-6.7-1.43-13.872-3-20.546-.58-5.109,1.74-9.07,5.91-11.338,10.77-46,95.96-90.669,192.57-135.692,289a42.12,42.12,0,0,1-3.125,5.207,5.763,5.763,0,0,1,.16,1.477c.692.3,1.484.64,1.965.846-1.594,2.04-.6,3.41,1.426,4.36.534-1,1.079-2,1.614-3-.693-.3-2.08-.91-2.773-1.22.208-.67.624-2,.832-2.67.782.33,1.564.69,2.337,1.06.406,1.35-.951,3.84,1.416,3.93,1.455-.22,1.772-1.82,1.564-3.04l.654.84c5.555-13.43,12.208-26.39,18.189-39.64,39.24-84.2,78.411-168.44,118.5-252.24,1.5-3.38,3.882-6.77,7.625-7.76,6.228-1.51,12.545.55,18.634,1.8,116.088,25.77,231.541,54.32,347.371,81.21,20.744,4.88,41.419,10.14,62.38,14.01,19.348,3.39,38.924,5.14,58.42,7.45,26.774,3.12,53.578,5.99,80.352,9.19,48,5.84,95.878,12.7,143.664,20.11,8.218,1.4,17.021,3.78,22.714,10.35,5.258,6,6.486,14.53,5.3,22.22-1.217,7.88-4.643,16.03-11.446,20.56-6.892,4.65-15.565,4.94-23.546,4.29-191.459-26.9-382.68-55.5-574.218-81.78-7.535-1.07-15.159-2.27-22.783-1.48-18.437,1.59-35.508,10.71-49.36,22.75-25.626,22.67-48.726,48.01-73.292,71.81-15.764,15.45-32,30.46-46.726,46.96a26.434,26.434,0,0,0-6.318,11.94c-1.98,8.55-2.2,18.16,2.426,25.92,4.971,8.56,13.9,13.64,22.7,17.37,16.179,7.15,32.279,16.58,50.449,16.73,16.942-.48,34.349-5.07,47.785-15.91,6.219-4.98,9.912-12.25,13.684-19.12,9.268-17.18,17.6-34.84,26.775-52.07,2.782-5.14,5.02-10.64,8.713-15.23,9.753-12.41,24.5-20.02,39.726-22.98,11.178-1.94,22.536-.36,33.695.88,58.776,7.29,117.622,14.15,176.309,22.23a80.33,80.33,0,0,1,19.536,4.66c7.991,2.9,13.506,10.61,15.387,18.76,5.357,34.72,12.8,69.09,17.457,103.92a25.34,25.34,0,0,1-1.624,12.39c-6.981,18.41-29.794,28.35-47.944,21.42-7.921-3.38-13.446-10.31-19.3-16.37a219.347,219.347,0,0,0-24.4-21.48,86.579,86.579,0,0,0-42.359-17.52c-20.427-2.5-41.32,2.5-59.282,12.38C399.339,369,388.863,377.38,377.1,383.6c-11.9,6.4-25.091,11.85-38.815,11.18-4.178-.03-8.367.13-12.545.27,3.911.18,7.832.34,11.753.26l-.029.38c-28.953-.29-57.9.95-86.808,2.63C181.918,402.06,113.4,409,44.78,414.47c-5.436.42-10.892,1.05-16.357.74a8.715,8.715,0,0,1-7.892-5.73c-.772-2.44.188-4.95.931-7.26,2.3-6.52,4.386-13.13,7.327-19.4,6.961-14.98,13.991-29.92,20.942-44.9a37.938,37.938,0,0,1,1.977-3.713,5.552,5.552,0,0,1-.4-1.529l-.618.072c.191-.13.394-.229.591-.343a5.7,5.7,0,0,1,.43-2.618l-1.278-.539c-.376.82-.743,1.65-1.119,2.49-.693-.3-2.079-.89-2.772-1.18.415-.91.841-1.82,1.267-2.72-.573-.28-1.145-.556-1.718-.833a4.354,4.354,0,0,1-2.7,1.859c-.043.033-.079.072-.123.1l.03.8a5.741,5.741,0,0,1-.654,3.28c-7.05,14.97-14.02,29.98-21.031,44.96-3.654,7.72-6.317,15.87-8.971,23.98l-.109-.229a4.628,4.628,0,0,1-1.978,2.579c.27.631.535,1.264.79,1.9.733,2.98.723,6.22,2.406,8.9,2.733,4.86,7.852,7.75,13.16,8.82,1.564.09,3.119.22,4.673.41,3.723-.16,7.387-1.08,11.13-1.11,92.006-7.28,183.913-17.22,276.246-19.01,11.249-.21,22.626.23,33.716-2.09,11.792-2.36,22.8-7.6,33.15-13.65,11.486-6.62,22.041-14.84,34.121-20.41,20.626-10.19,45.439-12.98,67.164-4.7,13.783,5.03,25.12,14.73,36,24.34,6.327,5.6,11.753,12.14,17.892,17.94,5.456,5.07,12.12,9.11,19.546,10.28,18.784,3.62,39.359-5.63,49.033-22.34,3.971-7.07,6.238-15.47,4.822-23.58-4.5-33.5-11.6-66.57-16.832-99.94a36.614,36.614,0,0,0-12.665-23.71c-6.5-5.37-14.951-7.08-22.873-9.12-42.646-6.02-85.4-11.2-128.147-16.45-23.5-2.72-46.924-6.12-70.47-8.33-23.626-2.46-48.518,6.54-64.311,24.64-4.4,4.9-7.387,10.82-10.288,16.69-10.2,19.06-19.348,38.68-29.765,57.63-2.673,4.71-5.366,9.63-9.684,13.02-9.525,7.6-21.377,11.71-33.339,13.16a50.737,50.737,0,0,1-21.823-1.06c-13.2-3.56-25.17-10.39-37.676-15.77-7.862-3.57-16.248-9.46-17.565-18.74-.584-7.14-.218-15.31,4.782-20.9,12.783-14.45,26.844-27.65,40.666-41.07,26.547-25.43,51.321-52.73,78.768-77.2,15.714-13.79,36.617-23.61,57.826-20.45,194.548,26.6,388.74,55.71,583.189,83,12.377,1.25,26.358-1.46,34.636-11.6,5.119-5.62,6.762-13.23,9.218-20.14A66.551,66.551,0,0,1,947.961,179.59Z" transform="translate(-10.552 -16.393)"/><polygon points="25.988 327.231 34.163 331.381 49.727 300.109 41.553 295.96 25.988 327.231"/></svg>