<svg id="Layer_1" data-name="Layer 1" xmlns="http://www.w3.org/2000/svg" viewBox="0 0 1278.083 646.438">
<style>
                    path, polyline, polygon, line, circle {
                        stroke: #f97316 !important;
                        stroke-width: 3.5px !important;
                        fill: none !important;
                        stroke-linecap: round !important;
                        stroke-linejoin: round !important;
                        filter: drop-shadow(0px 0px 5px #f97316) !important;
                    }
                </style><title>motogp_german_gp</title><path d="M566.432,302.493l-.507.385a1.932,1.932,0,0,1-1.739,1.3c-.332.241-.668.477-1,.712,1.32.606,1.606,2.4,3.039,2.909l.44-1.12c.55-.46,1.65-1.39,2.2-1.85A5.559,5.559,0,0,1,566.432,302.493Z" transform="translate(-0.936 -0.723)"/><path d="M1279,344.01c-1.85-33.87-8.34-67.8-21.74-99.11-24.48-55.93-64.98-102.5-95.07-155.22-3.82-6.65-6.94-13.91-12.54-19.32-9.77-9.96-22.98-15.33-35.71-20.38-29.24-11.65-58.3-23.76-87.47-35.6-12.87-5.06-25.62-11.34-39.57-12.7l-.19.27c-.09-.07-.27-.22-.36-.29l-.14-.08c-2.72-1.59-6.18-.39-9.21-.85-3.89.41-8.02-.66-11.69.9l-.03.14c-.1-.04-.28-.12-.37-.16-19.6,2.36-37.12,12.05-54.34,21.03C847.14,56.03,789.18,98.46,728.49,136.35c-14.61,8.7-32.24,7.22-48.51,6.64-135.04-6-270.5-7.28-404.91-22.89-31.82-3.22-63.32-8.89-95.03-13.01-19.24-2.32-38.6-4.4-58.01-4.07-19.81,1.19-39.2,6.35-57.73,13.3a107.219,107.219,0,0,0-51.02,46C6.15,175.72.25,190.58,1,206.03c-.02,16.69,1.96,33.33,4.64,49.78C28.9,354.22,49.3,453.35,76.23,550.85c4.28,14.8,8.48,29.89,16.46,43.2,5.47,9.15,13.88,17.17,24.52,19.64,14.07,3.36,28.45-1.52,41.2-7.28,20.86-9.77,39.71-23.21,58.21-36.78,115.99-85.64,233.64-168.98,351.95-251.37.142.2.407.573.563.783a4.737,4.737,0,0,1,.793-.868l-.016-.025,2.44-1.72c.02.02.038.041.058.06.421-.315.839-.636,1.262-.948.55-.473,1.107-.938,1.665-1.4a2.946,2.946,0,0,0-.275-.139l1.852-1.26a4.629,4.629,0,0,1,4.755-4.073c.14,0,.274.01.408.02.948-.608,1.919-1.19,2.785-1.877,103.7-72.32,209.78-141.15,317.17-207.84,11.54-6.95,23.28-14.85,36.92-16.71,11.87.66,24.32,3.45,33.85,10.95,8.11,7.66,11.97,18.84,13.17,29.71.39,10.42-2.03,21.35-8,30.01-12.19,13.88-26.63,26-36.21,42.01-16.11,27.01-27.83,58.1-25.76,90.01,1.19,16.82,6.26,33.12,12.37,48.75a50.06,50.06,0,0,0,11.42,17.5,113.651,113.651,0,0,0,43.15,27.13c11.94,4.2,24.35,7.27,35.66,13.1a78.759,78.759,0,0,1,32.79,30.14c5.22,8.37,9.39,18.31,7.71,28.34-.8,11.35-2.63,23.17-9.43,32.66-5.94,9.6-16.03,15.49-26.08,19.98-11.63,5.14-24.97,5.87-37.27,2.97-10.58-2.87-17.57-12.67-21.56-22.34-5.04-13.62-9.24-27.67-10.73-42.16a85.053,85.053,0,0,0-3.8-22.11c-4.2-13.17-11.86-24.95-20.84-35.33a168.508,168.508,0,0,0-42.16-34.81c-14.16-8.25-29.07-15.07-43.75-22.3a47.574,47.574,0,0,0-25.36-4.9c-13.99.87-27.03,6.76-39.2,13.33-18.51,10.42-37.57,21.02-51.74,37.2-11.12,12.31-18.89,28.18-19.52,44.93-1.01,14.89,3.28,29.54,9.13,43.08,14.22,33.35,27.61,67.17,45.23,98.92,6.79,11.18,15.25,21.24,24.02,30.91,8.9,9.52,18.37,18.86,29.98,25.04,24.69,14.26,50.99,27.6,79.78,30.48,23.97,2.95,49.01,2.67,71.95-5.76,10.56-3.89,20.48-9.28,30.28-14.77a352.9,352.9,0,0,0,49.01-33.8c29.55-25.15,59.47-49.86,88.37-75.75,26.85-23.72,52.45-48.85,76.98-74.96,13.87-14.81,27.04-30.27,41.16-44.85,6.86-7.58,14.04-15.08,18.89-24.17A54.035,54.035,0,0,0,1279,344.01Zm-17.57,20.52c-5,9.47-12.74,17.05-19.9,24.88-12.11,12.61-23.49,25.9-35.42,38.69a1115.723,1115.723,0,0,1-81.48,79.52c-28.38,25.36-57.74,49.58-86.72,74.24a342.5,342.5,0,0,1-49.44,33.59c-10.37,5.69-20.95,11.26-32.42,14.4-14.93,4.21-30.62,5.01-46.04,3.96-12.83-.98-25.75-2.49-38.01-6.61-17.45-5.75-33.81-14.31-49.64-23.54-12.24-6.51-21.68-16.97-30.89-27.08-7.96-9.21-15.82-18.73-21.29-29.68-15.23-28.42-27.22-58.4-39.84-88.02-5.99-13.48-11.09-28.03-9.66-43.01,1.11-14.18,8.39-27.2,18.13-37.31,13.26-14.04,30.44-23.3,47.07-32.7,10.87-5.79,22.55-11.13,35.08-11.48a35.943,35.943,0,0,1,18.31,4.43c18.43,9.24,37.56,17.45,54.36,29.58,13.54,9.86,25.77,21.72,35.12,35.67,6.86,10.39,11.52,22.44,12.1,34.96,1.22,16.62,5.9,32.74,11.61,48.32,4.55,11.66,12.6,22.52,23.92,28.3,11.11,4.82,23.71,5.42,35.59,3.71,11.79-1.88,22.86-7.05,32.73-13.64,10.6-7.02,18.27-17.83,22.76-29.61,3.53-9.98,4.2-20.65,5.16-31.1-.13-5.78-1.81-11.4-3.36-16.92a96.748,96.748,0,0,0-23.62-33.81c-9.48-8.64-20.9-14.9-32.81-19.53-11.12-4.4-22.88-7-33.8-11.93a102.741,102.741,0,0,1-25.52-16.37c-5.22-4.55-10.06-9.86-12.63-16.39-5.39-13.48-9.88-27.45-11.57-41.92-2.41-20.9,2.59-41.96,10.62-61.17,5.97-13.61,12.73-27.14,22.54-38.44,5.18-6.13,10.95-11.74,16.45-17.58,4.68-5.03,9.99-9.7,13.03-15.99,6.52-13.12,8.97-28.54,5.3-42.85-2.568-11.486-8.807-21.732-16.341-30.643a5.229,5.229,0,0,1-.519-.612c-.45-.524-.9-1.046-1.36-1.56a4.365,4.365,0,0,1-1.09-.981,5.175,5.175,0,0,1-3.142-1.435,2.2,2.2,0,0,1-.24-.274,4.5,4.5,0,0,1-2.665-1.3,5.606,5.606,0,0,1-.56.036,4.692,4.692,0,0,1-3.192-1.132,5.3,5.3,0,0,1-2.741-.1c.484.227.971.447,1.45.683-6.74-2.03-13.52-4.05-20.52-4.98a33.861,33.861,0,0,0-4.81-.25l-.044-.852q-2.052-.07-4.107-.045l.291,1.057c-2.95-.47-5.86.64-8.68,1.34-16.45,5-30.59,15.11-45.11,23.97C779.86,159.73,677.22,226.65,576.7,296.66c-2.38,1.81-5.18,3.15-7.13,5.45,3.3-.26,1.26,2.77-.44,2.62-.5,3.1,2.9,4.11,4.38,1.45a19.569,19.569,0,0,1,2.18,3.34c-.62.27-1.86.82-2.48,1.09l.38,1.43c2.74,1.29.36,3.53-1.3,4.32-.92-2.4-2.23-3.81-4.3-1.55.17.55.5,1.64.67,2.19a20.738,20.738,0,0,0-3.37-4.47c.89-.63,1.79-1.26,2.7-1.88-.65-2.23-3.29-3.67-4.4-.97a15.653,15.653,0,0,1-2.57-2.77c.346-.374.942-1,1.438-1.531-.864.577-1.754,1.12-2.678,1.619.066.066.122.137.19.2-.03.35-.09,1.06-.12,1.42Q396.335,422.185,235.52,539.61c-19.66,14.29-38.86,29.24-59.36,42.32.066-.116.15-.221.22-.334a4.847,4.847,0,0,1-.85.266,4.477,4.477,0,0,1-2.147,1.033,4.267,4.267,0,0,1-.492.276,4.4,4.4,0,0,1-1.618.908,4.5,4.5,0,0,1-1.736.777,4.556,4.556,0,0,1-2.684,1.118c-.461.513-.913,1.032-1.393,1.526-3.46,3.09-7.9,4.72-11.99,6.81-10.09,4.5-21.19,8.91-32.43,6.87-10.2-2.06-16.44-11.48-20.62-20.25-7.63-16.57-11.78-34.44-16.58-51.97C59.42,437.97,40.33,345.68,18.62,254.03a294.412,294.412,0,0,1-4.59-50.02c-.24-9.08,2.67-17.87,6.15-26.14A94.127,94.127,0,0,1,68.99,128.5c20.12-7.39,41.37-13.19,62.99-12.4,36.99,1.2,73.45,8.08,110.04,13.13,147.2,19.49,295.9,20.47,444.01,27.06,17.01.94,35.15.02,50.01-9.25C800.72,106.58,862.43,60.99,930.9,26.87c15.95-8.41,33.91-14.57,52.18-12.7,14.68,1.27,27.91,8.22,41.47,13.38,25.83,10.57,51.62,21.26,77.53,31.63,7.97,3.32,16.15,6.2,23.86,10.14,8.01,4.08,15.87,9.59,20.05,17.8,23.72,44.34,55.71,83.5,80.91,126.93,9.42,16.52,18.35,33.46,24.45,51.52,8.54,24.92,13.08,51.11,14.55,77.39A40.736,40.736,0,0,1,1261.43,364.53Z" transform="translate(-0.936 -0.723)"/><rect x="512.998" y="305.756" width="103.333" height="12.656" transform="translate(-78.743 370.284) rotate(-34.169)"  stroke-miterlimit="10"/><polygon points="146.398 86.611 146.398 86.611 146.398 86.611 146.398 86.611 146.398 86.611"   stroke-miterlimit="10"/></svg>