
<svg xmlns="http://www.w3.org/2000/svg"
     viewBox="0 0 1600 1200">

    <rect width="100%" height="100%" fill="#f5f5f5"/>

    <path
        d="M995.83,857.85 L943.54,878.42 L918.75,888.42 L894.39,898.21 L837.36,921.17 L772.99,947.14 L755.28,954.27 L750.65,956.31 L746.69,958.26 L742.89,960.45 L740.43,962.02 L737.89,963.74 L723.98,974.65 L717.41,979.77 L690.79,1000.45 L688.27,1002.72 L686.43,1004.52 L684.79,1006.19 L683.16,1008.16 L681.92,1009.87 L679.55,1013.16 L677.03,1016.43 L675.37,1018.15 L673.37,1020.01 L671.80,1021.25 L669.21,1023.04 L650.81,1034.35 L649.46,1035.30 L648.24,1036.36 L647.04,1037.49 L646.03,1038.63 L645.12,1039.79 L643.97,1041.51 L642.89,1043.49 L642.35,1044.40 L641.48,1045.46 L640.80,1046.23 L639.71,1047.00 L638.20,1047.68 L636.34,1048.18 L634.42,1048.36 L632.88,1048.35 L631.35,1048.28 L628.07,1047.86 L624.32,1047.51 L622.76,1047.56 L621.20,1047.75 L619.13,1048.23 L617.40,1048.81 L609.37,1052.15 L605.32,1053.96 L604.48,1054.31 L602.64,1054.64 L601.88,1054.62 L600.96,1054.50 L599.72,1054.23 L598.28,1053.79 L594.41,1052.08 L588.79,1049.24 L580.79,1045.02 L576.68,1042.52 L573.80,1040.60 L570.14,1037.94 L568.14,1036.28 L563.93,1032.64 L560.21,1029.15 L559.36,1028.44 L558.40,1027.71 L557.61,1027.32 L556.66,1026.91 L556.21,1026.78 L555.71,1026.64 L555.18,1026.53 L554.58,1026.41 L554.23,1026.36 L553.80,1026.33 L553.37,1026.32 L552.90,1026.34 L552.35,1026.40 L551.92,1026.49 L551.48,1026.62 L550.26,1027.04 L549.43,1027.38 L548.69,1027.75 L547.86,1028.26 L546.80,1028.98 L545.28,1030.22 L543.97,1031.50 L532.79,1045.05 L531.38,1046.51 L529.70,1047.99 L527.41,1049.58 L523.50,1051.84 L519.97,1053.44 L516.08,1055.05 L513.84,1055.84 L504.95,1058.56 L497.99,1060.48 L495.38,1061.01 L493.07,1061.26 L490.74,1061.43 L488.65,1061.45 L486.23,1061.34 L483.81,1061.11 L480.79,1060.57 L477.90,1059.75 L454.79,1052.16 L452.42,1051.44 L448.06,1050.43 L442.17,1049.38 L437.07,1048.79 L432.98,1048.51 L411.51,1047.39 L409.37,1047.36 L407.69,1047.47 L406.21,1047.69 L404.65,1048.08 L398.57,1049.92 L395.57,1050.59 L393.34,1050.80 L391.36,1050.73 L389.54,1050.51 L386.91,1049.86 L385.10,1049.09 L382.71,1047.73 L380.15,1046.31 L377.43,1044.66 L376.11,1043.71 L375.10,1042.83 L374.10,1041.86 L373.16,1040.81 L372.31,1039.65 L370.13,1036.20 L368.33,1034.12 L367.04,1033.10 L365.61,1032.25 L363.96,1031.49 L356.11,1028.35 L353.95,1027.38 L352.83,1026.71 L351.78,1025.94 L350.67,1024.76 L349.91,1023.65 L349.26,1022.30 L348.03,1019.28 L346.94,1017.84 L345.80,1016.91 L344.70,1016.27 L343.48,1015.76 L342.11,1015.36 L340.20,1015.00 L308.73,1011.74 L306.37,1011.37 L304.90,1010.95 L303.13,1010.31 L301.64,1009.49 L300.96,1009.00 L300.06,1008.26 L299.27,1007.47 L298.61,1006.65 L298.16,1005.80 L297.94,1005.06 L297.78,1003.95 L297.61,1001.39 L297.13,998.83 L296.65,997.49 L296.25,996.79 L294.75,994.90 L293.35,993.78 L292.10,992.98 L290.68,992.19 L288.86,991.36 L257.26,977.34 L242.37,970.91 L229.55,965.18 L226.08,963.52 L222.74,961.69 L219.43,959.71 L216.12,957.46 L212.50,954.66 L193.30,939.54 L175.98,925.86 L170.99,921.97 L169.48,920.51 L168.71,919.60 L167.88,918.47 L167.11,916.84 L166.62,915.23 L166.44,913.05 L164.91,902.60 L165.00,900.42 L165.26,899.24 L165.87,897.73 L166.44,896.55 L167.55,894.81 L176.33,881.64 L178.21,878.33 L179.10,876.31 L179.70,874.45 L180.35,871.53 L182.71,861.58 L183.79,858.25 L184.28,855.79 L184.55,853.12 L184.76,851.45 L184.95,849.74 L185.15,847.04 L185.00,844.22 L184.52,840.96 L183.40,832.23 L182.54,827.87 L182.16,824.29 L181.48,821.58 L180.46,817.47 L179.22,813.93 L177.62,810.15 L176.09,806.39 L174.72,803.85 L172.77,800.28 L167.29,792.05 L164.71,788.55 L161.61,784.20 L155.23,775.52 L152.87,771.83 L147.81,763.72 L144.68,758.73 L142.48,755.19 L138.37,748.36 L136.89,746.13 L135.51,744.26 L133.75,741.97 L131.32,739.36 L127.89,736.27 L125.53,734.42 L122.93,732.54 L118.92,730.02 L111.94,726.40 L110.02,725.64 L107.00,724.44 L104.02,723.38 L100.77,722.37 L96.71,721.18 L75.51,715.09 L72.74,714.26 L71.15,713.66 L69.18,712.70 L67.60,711.68 L66.61,710.81 L65.84,709.95 L64.96,708.45 L64.57,707.21 L64.43,705.69 L64.57,704.70 L64.78,703.76 L65.34,702.56 L66.19,701.39 L67.32,700.24 L68.84,699.16 L70.89,698.01 L73.12,697.18 L75.79,696.39 L92.71,692.00 L104.02,689.04 L115.33,686.00 L125.31,682.95 L129.89,681.19 L133.18,679.72 L138.70,676.19 L141.71,674.44 L144.85,672.66 L147.65,671.30 L150.63,670.08 L154.28,668.62 L160.27,666.13 L163.33,664.51 L168.00,661.63 L187.00,648.74 L192.95,645.04 L197.95,642.31 L203.37,639.64 L210.05,636.12 L214.35,633.53 L220.89,628.91 L224.44,626.07 L228.92,621.54 L231.36,618.09 L234.69,612.87 L239.00,606.03 L240.63,603.60 L243.27,599.58 L243.83,598.57 L244.30,597.41 L244.60,596.13 L244.62,595.20 L243.66,580.76 L244.05,579.03 L244.59,577.74 L245.29,576.51 L246.36,575.15 L247.88,573.67 L249.96,572.28 L252.22,571.21 L253.88,570.57 L258.36,568.73 L260.03,567.95 L261.34,567.12 L262.39,566.20 L263.37,565.13 L264.41,563.67 L265.20,562.36 L265.80,560.99 L265.81,559.69 L265.42,558.75 L264.68,557.77 L263.55,556.81 L262.22,555.95 L260.52,554.85 L259.58,554.09 L258.69,552.97 L258.22,551.95 L258.02,550.76 L258.17,549.60 L258.48,548.61 L259.25,547.49 L260.33,546.55 L261.55,545.69 L265.93,542.87 L270.77,539.99 L275.32,537.60 L286.29,532.37 L295.87,527.78 L298.13,526.56 L300.52,525.12 L304.65,522.20 L316.81,513.15 L321.65,509.98 L332.25,503.60 L342.99,497.02 L348.69,493.48 L350.66,492.08 L352.33,490.75 L365.27,479.05 L366.97,477.30 L368.12,475.86 L368.83,474.75 L369.68,473.20 L370.26,471.62 L370.67,470.20 L370.87,468.60 L370.91,467.34 L370.76,466.00 L370.49,464.68 L370.10,463.49 L369.64,462.24 L366.07,453.25 L364.84,450.09 L363.99,447.55 L362.36,443.93 L361.81,443.08 L361.17,442.39 L360.49,441.72 L359.63,441.11 L358.84,440.66 L357.90,440.20 L356.75,439.79 L355.84,439.48 L354.52,439.15 L353.15,438.90 L351.60,438.71 L350.03,438.68 L347.94,438.73 L345.98,438.79 L342.02,438.95 L340.10,439.02 L338.34,439.00 L337.00,438.87 L335.56,438.65 L334.37,438.40 L333.42,438.12 L332.19,437.72 L330.77,437.21 L320.02,433.17 L316.73,431.72 L305.39,426.31 L303.20,425.12 L301.93,424.21 L301.24,423.49 L300.79,422.74 L300.34,422.01 L300.03,421.36 L299.93,420.72 L299.87,420.11 L299.92,419.37 L300.02,418.66 L300.50,417.30 L301.09,416.48 L302.30,415.42 L303.44,414.71 L305.34,413.82 L307.45,413.09 L316.29,410.39 L323.29,408.03 L325.96,407.10 L328.70,406.16 L331.95,404.90 L334.29,403.91 L335.58,403.32 L336.74,402.76 L343.42,399.17 L345.96,397.78 L348.00,396.61 L349.23,395.85 L350.45,394.99 L351.50,394.04 L352.39,393.05 L353.19,391.88 L353.65,391.13 L353.98,390.38 L354.29,389.47 L354.40,388.60 L354.42,388.49 L354.72,384.92 L354.83,383.97 L355.16,383.02 L355.49,382.16 L356.08,381.36 L356.62,380.57 L357.49,379.58 L358.18,378.86 L367.84,368.75 L368.82,367.84 L369.84,366.92 L370.87,366.16 L371.92,365.43 L372.78,364.88 L373.70,364.31 L374.95,363.67 L376.10,363.09 L377.59,362.51 L379.30,361.87 L381.53,361.24 L383.50,360.76 L387.33,359.94 L388.55,359.75 L389.75,359.64 L391.03,359.58 L392.26,359.56 L393.50,359.61 L394.57,359.68 L399.26,360.21 L403.91,360.82 L405.32,361.11 L406.48,361.37 L407.58,361.66 L408.59,361.96 L409.65,362.33 L411.13,362.86 L421.89,367.15 L423.66,367.94 L445.80,377.87 L447.20,378.54 L448.87,379.36 L450.08,380.16 L450.89,380.79 L451.78,381.77 L452.41,382.56 L452.97,383.55 L454.67,386.67 L455.36,387.59 L456.42,388.52 L457.02,388.88 L457.78,389.30 L458.73,389.65 L459.69,389.93 L461.18,390.23 L462.04,390.31 L463.08,390.36 L464.13,390.24 L465.06,390.01 L465.74,389.70 L466.38,389.30 L467.41,388.47 L468.18,387.66 L470.47,385.03 L471.61,384.01 L472.58,383.24 L473.59,382.64 L474.46,382.20 L475.58,381.77 L476.98,381.31 L478.42,380.94 L479.94,380.65 L481.72,380.39 L483.71,380.16 L485.31,380.02 L488.57,379.72 L491.39,379.51 L498.10,379.13 L507.64,378.81 L518.31,378.44 L528.51,378.12 L532.52,377.98 L535.63,377.93 L537.25,377.99 L538.87,378.08 L540.37,378.21 L541.94,378.39 L543.60,378.62 L544.87,378.81 L561.34,381.42 L566.94,382.34 L568.94,382.63 L570.45,382.73 L571.68,382.75 L572.96,382.68 L574.45,382.48 L575.94,382.12 L577.32,381.64 L578.78,380.98 L579.97,380.27 L580.89,379.57 L582.88,377.35 L585.08,374.96 L587.73,372.04 L589.30,369.09 L589.95,367.25 L590.13,366.30 L590.27,364.93 L590.26,363.34 L590.11,361.64 L589.75,358.84 L589.53,356.04 L589.71,354.54 L590.05,353.58 L590.67,352.72 L591.38,352.05 L592.48,351.32 L594.05,350.54 L595.90,349.86 L597.66,349.29 L600.18,348.50 L603.70,347.45 L609.19,345.94 L615.36,344.38 L617.77,343.78 L627.51,341.50 L634.43,340.02 L640.00,338.85 L647.03,337.52 L651.50,336.74 L655.26,336.11 L659.99,335.43 L672.00,333.80 L706.93,329.07 L711.16,328.30 L713.84,327.62 L715.56,327.01 L718.02,326.00 L720.76,324.62 L749.54,310.92 L754.76,308.75 L756.33,308.25 L757.90,307.90 L759.92,307.60 L761.37,307.44 L765.13,307.26 L767.23,307.38 L768.43,307.54 L769.85,307.82 L771.32,308.34 L772.69,308.90 L774.05,309.65 L775.61,310.90 L776.45,311.84 L777.05,312.72 L778.13,315.31 L778.63,316.91 L779.72,320.36 L780.02,322.41 L780.14,324.54 L779.88,326.65 L779.27,331.24 L778.55,336.19 L777.93,340.89 L777.76,345.80 L777.97,349.81 L778.44,354.49 L779.23,364.03 L779.86,367.51 L780.63,370.58 L781.88,373.54 L785.42,380.24 L787.47,383.38 L789.18,385.55 L790.24,386.67 L791.45,387.82 L795.18,390.81 L799.84,394.13 L804.02,396.98 L806.48,398.41 L810.33,400.23 L818.83,403.81 L823.74,405.86 L827.13,406.92 L838.56,409.94 L864.89,416.90 L869.50,418.04 L872.96,418.62 L876.68,418.99 L880.06,419.09 L884.43,419.02 L913.33,418.34 L918.77,418.41 L928.07,419.01 L946.13,420.34 L967.52,421.93 L975.66,422.53 L981.41,423.19 L996.47,425.85 L1016.24,429.50 L1018.47,430.02 L1020.78,430.60 L1023.20,431.30 L1025.74,432.09 L1028.77,433.19 L1030.44,433.85 L1032.08,434.54 L1034.72,435.74 L1037.19,436.97 L1045.56,441.59 L1048.47,443.08 L1051.57,444.55 L1055.11,446.07 L1058.87,447.47 L1064.19,449.23 L1082.08,454.56 L1088.25,456.23 L1089.46,456.50 L1090.64,456.73 L1092.07,456.92 L1093.39,457.06 L1095.11,457.13 L1096.90,457.12 L1099.07,457.02 L1101.81,456.83 L1110.38,455.87 L1113.59,455.23 L1117.67,453.99 L1121.89,452.58 L1129.51,449.93 L1136.92,447.31 L1142.86,444.96 L1148.08,442.50 L1163.68,434.83 L1170.99,430.75 L1174.52,428.57 L1178.81,426.16 L1183.04,424.49 L1186.45,423.55 L1189.52,422.97 L1197.76,422.01 L1222.09,419.45 L1232.53,418.62 L1236.76,418.05 L1242.70,416.91 L1249.25,415.79 L1252.10,415.47 L1253.18,415.45 L1254.29,415.51 L1256.47,415.97 L1257.63,416.34 L1258.57,416.72 L1259.66,417.28 L1260.57,417.86 L1261.39,418.54 L1262.08,419.21 L1262.78,420.25 L1263.03,421.08 L1263.06,421.14 L1263.18,422.95 L1262.79,424.88 L1261.99,426.86 L1260.61,428.77 L1259.20,430.03 L1257.13,431.29 L1247.01,436.66 L1240.60,439.64 L1237.18,441.11 L1233.89,442.80 L1231.21,444.49 L1228.54,446.24 L1224.60,448.38 L1219.45,450.51 L1215.99,452.20 L1211.97,454.21 L1208.79,455.47 L1206.30,456.33 L1204.85,456.81 L1201.80,457.91 L1200.24,458.64 L1199.15,459.48 L1198.45,460.28 L1198.10,460.79 L1197.83,461.51 L1197.68,462.17 L1197.77,463.27 L1198.01,464.01 L1198.35,464.66 L1198.79,465.17 L1199.33,465.69 L1200.20,466.32 L1200.88,466.69 L1201.61,467.02 L1202.34,467.26 L1203.17,467.46 L1204.73,467.68 L1206.29,467.72 L1207.67,467.62 L1209.01,467.34 L1210.15,466.99 L1210.86,466.68 L1211.60,466.30 L1212.48,465.68 L1213.01,465.16 L1213.44,464.63 L1214.34,463.05 L1215.75,460.66 L1217.21,458.77 L1218.22,457.71 L1219.28,456.93 L1220.35,456.21 L1223.06,454.70 L1230.81,450.77 L1233.37,449.53 L1234.97,448.89 L1237.31,448.20 L1239.83,447.56 L1276.52,440.02 L1281.07,439.33 L1286.07,438.87 L1289.63,438.61 L1298.67,437.95 L1300.67,437.76 L1302.93,437.41 L1304.18,437.08 L1305.13,436.75 L1306.73,436.16 L1308.33,435.43 L1311.41,433.91 L1325.32,426.76 L1327.94,425.13 L1331.21,422.79 L1333.05,421.23 L1339.76,414.83 L1341.90,412.54 L1342.73,411.27 L1343.08,410.42 L1343.30,409.74 L1343.43,409.08 L1343.39,408.31 L1343.34,407.74 L1343.22,406.96 L1343.06,406.10 L1342.71,404.97 L1341.16,400.03 L1340.79,398.31 L1340.80,397.27 L1340.90,396.54 L1341.16,395.55 L1341.54,394.73 L1342.57,393.42 L1343.71,392.26 L1347.44,388.71 L1355.10,381.46 L1356.12,380.48 L1357.80,379.10 L1359.24,378.26 L1360.35,377.75 L1361.74,377.24 L1363.30,376.77 L1365.51,376.39 L1367.60,376.12 L1369.54,376.10 L1372.15,376.31 L1374.54,376.70 L1375.97,377.09 L1378.30,377.81 L1388.80,381.33 L1391.31,382.04 L1393.48,382.48 L1395.93,382.88 L1398.43,383.23 L1404.69,384.02 L1407.79,384.45 L1410.79,384.95 L1427.98,388.33 L1432.58,389.65 L1434.61,390.48 L1436.56,391.43 L1438.71,392.64 L1440.36,393.81 L1441.67,394.85 L1443.15,396.27 L1446.75,399.85 L1448.57,401.43 L1450.35,402.77 L1452.13,403.78 L1454.68,404.91 L1457.27,405.79 L1460.04,406.59 L1462.85,407.33 L1465.20,407.81 L1466.38,407.99 L1467.60,408.08 L1470.38,408.14 L1475.36,408.28 L1478.22,408.55 L1479.65,408.79 L1480.82,409.02 L1481.73,409.29 L1482.59,409.59 L1484.07,410.24 L1485.30,410.93 L1486.91,411.87 L1502.67,423.33 L1507.89,427.44 L1509.17,428.80 L1510.24,430.15 L1510.95,431.36 L1511.40,432.36 L1511.70,433.32 L1511.83,434.56 L1511.86,436.09 L1511.68,437.21 L1511.40,438.38 L1511.12,439.26 L1510.46,440.50 L1509.89,441.40 L1508.93,442.63 L1506.33,445.86 L1503.02,450.51 L1500.81,454.56 L1498.85,458.43 L1497.68,460.80 L1497.03,462.45 L1496.71,463.45 L1496.56,464.57 L1496.56,465.13 L1496.65,465.96 L1496.95,466.88 L1497.29,467.61 L1497.84,468.46 L1498.82,469.37 L1499.73,470.18 L1503.52,472.72 L1506.87,474.86 L1509.66,476.17 L1513.51,477.58 L1516.40,478.24 L1518.42,478.60 L1522.44,479.07 L1526.59,479.51 L1531.52,480.17 L1533.18,480.51 L1534.89,480.99 L1536.21,481.57 L1537.37,482.19 L1538.68,483.13 L1539.73,484.21 L1540.44,485.31 L1540.84,486.35 L1543.20,501.30 L1544.38,508.48 L1544.43,509.31 L1544.34,510.20 L1544.04,511.33 L1543.71,512.17 L1543.26,512.90 L1542.63,513.63 L1541.56,514.75 L1540.51,515.57 L1538.85,516.56 L1536.76,517.39 L1534.69,517.99 L1532.40,518.37 L1529.55,518.58 L1525.51,518.57 L1509.82,518.13 L1497.72,517.33 L1485.75,516.60 L1482.49,516.70 L1480.16,516.94 L1478.12,517.42 L1476.88,517.80 L1475.62,518.32 L1474.45,518.92 L1473.49,519.57 L1472.62,520.36 L1471.82,521.18 L1471.21,522.14 L1470.03,525.28 L1469.11,527.27 L1468.44,528.64 L1467.50,529.91 L1466.42,531.06 L1463.35,533.71 L1453.25,542.01 L1449.80,544.91 L1448.60,546.12 L1447.80,547.13 L1444.24,552.36 L1441.10,557.80 L1440.33,559.47 L1439.92,560.51 L1439.56,562.04 L1439.49,563.92 L1439.65,565.09 L1439.93,566.45 L1441.34,573.00 L1441.81,575.86 L1441.81,578.15 L1441.73,579.43 L1441.16,584.91 L1441.11,587.16 L1442.11,600.20 L1441.76,602.44 L1441.44,603.31 L1441.14,603.85 L1440.49,604.70 L1439.86,605.39 L1438.86,606.30 L1432.69,610.97 L1430.48,612.51 L1428.94,613.31 L1427.56,613.99 L1425.41,614.86 L1422.77,615.61 L1419.08,616.38 L1409.46,617.78 L1401.59,619.05 L1398.90,619.76 L1396.47,620.64 L1394.34,621.64 L1392.39,622.73 L1389.16,624.85 L1378.89,631.66 L1372.35,636.02 L1369.15,638.40 L1366.66,640.59 L1364.30,643.19 L1353.17,658.25 L1351.50,660.42 L1349.75,662.46 L1347.43,664.64 L1344.49,666.93 L1341.25,669.05 L1338.86,670.41 L1336.43,671.66 L1333.67,672.92 L1331.57,673.67 L1329.43,674.28 L1325.09,675.48 L1322.78,676.22 L1320.43,677.10 L1315.93,679.36 L1310.24,682.37 L1307.85,683.58 L1304.94,684.83 L1301.16,686.04 L1298.34,686.75 L1294.55,687.54 L1288.03,688.42 L1284.03,688.85 L1279.30,689.46 L1272.70,690.53 L1269.46,691.11 L1265.83,691.88 L1236.46,698.91 L1232.95,699.60 L1229.43,700.20 L1221.87,701.16 L1217.34,701.52 L1213.18,701.70 L1209.21,701.77 L1206.48,701.62 L1204.46,701.39 L1202.48,701.00 L1200.04,700.34 L1198.22,699.77 L1196.17,698.93 L1193.32,697.51 L1185.52,693.05 L1182.52,691.39 L1178.63,689.56 L1176.03,688.57 L1174.62,688.17 L1173.21,687.83 L1171.76,687.58 L1170.31,687.38 L1168.98,687.26 L1167.57,687.29 L1166.51,687.33 L1165.15,687.47 L1162.34,687.99 L1159.53,688.80 L1156.69,689.80 L1151.11,692.20 L1141.50,696.34 L1128.93,701.86 L1125.83,703.41 L1124.91,704.03 L1124.19,704.66 L1123.47,705.35 L1122.96,705.98 L1122.54,706.65 L1122.25,707.31 L1122.08,708.03 L1122.04,708.73 L1122.24,709.47 L1122.54,710.15 L1123.00,710.97 L1123.50,711.72 L1124.32,712.55 L1125.25,713.24 L1129.87,716.64 L1133.45,719.05 L1136.87,721.04 L1138.71,721.87 L1140.41,722.61 L1144.21,723.97 L1149.52,725.50 L1155.58,727.06 L1171.10,730.66 L1188.81,734.21 L1191.37,734.77 L1193.22,735.35 L1194.52,735.95 L1195.59,736.55 L1196.76,737.45 L1197.90,738.44 L1204.12,744.43 L1205.01,745.51 L1205.73,746.43 L1206.82,748.30 L1210.95,757.65 L1211.59,759.84 L1211.87,762.20 L1211.84,763.82 L1211.64,765.22 L1211.32,766.63 L1210.92,768.09 L1210.38,769.55 L1209.70,770.78 L1208.46,772.70 L1207.32,774.12 L1206.09,775.38 L1204.53,776.81 L1203.20,777.83 L1201.48,779.05 L1199.88,780.04 L1197.98,781.08 L1195.70,782.14 L1192.62,783.36 L1158.38,795.33 L1157.06,795.79 L1151.32,798.01 L1038.02,841.63 L995.83,857.85"
        fill="none"
        stroke="#22c55e"
        stroke-width="5"
        stroke-linecap="round"
        stroke-linejoin="round"/>
</svg>
