<svg xmlns="http://w3.org" viewBox="0 0 800 600" width="100%" height="100%">
  <path d="M 529.20 129.00 L 438.47 221.59 L 419.64 240.12 L 410.57 247.13 L 401.74 253.71 L 382.05 267.22 L 377.93 267.76 L 375.31 266.35 L 373.98 263.08 L 374.86 258.39 L 377.58 248.04 L 381.94 238.99 L 390.59 223.27 L 391.28 219.52 L 391.07 214.80 L 389.45 209.64 L 385.93 204.85 L 382.33 201.69 L 377.99 199.47 L 373.01 198.46 L 369.58 198.60 L 348.73 201.69 L 339.25 204.27 L 330.83 206.96 L 324.64 210.77 L 321.23 213.89 L 319.77 217.13 L 319.70 221.96 L 320.70 226.64 L 324.87 230.60 L 330.46 232.24 L 340.43 231.73 L 345.93 231.95 L 349.13 233.47 L 352.16 236.96 L 352.77 241.03 L 351.96 251.09 L 350.22 266.02 L 346.02 290.28 L 343.75 302.60 L 341.68 313.17 L 339.74 320.29 L 331.55 345.02 L 324.29 368.85 L 321.86 376.23 L 321.42 379.93 L 321.14 383.45 L 322.18 388.07 L 323.85 391.99 L 326.36 395.99 L 330.02 399.51 L 332.62 401.18 L 343.58 406.41 L 356.69 412.44 L 360.49 415.27 L 362.55 418.54 L 363.53 421.45 L 363.69 424.97 L 363.36 426.93 L 362.11 431.29 L 357.98 435.29 L 341.59 443.97 L 319.93 456.21 L 309.61 462.97 L 299.30 470.31 L 283.34 484.80 L 274.88 493.12 L 267.02 502.82 L 259.41 512.70 L 252.50 522.94 L 239.96 544.22 L 235.97 548.29 L 231.47 549.93 L 227.58 550.00 L 223.29 548.69 L 219.65 545.97 L 217.14 542.30 L 216.24 537.98 L 216.33 533.80 L 217.95 529.62 L 224.59 522.90 L 278.15 469.36 L 284.46 463.04 L 286.84 459.34 L 289.07 454.29 L 290.65 448.37 L 290.97 440.41 L 289.72 433.33 L 286.03 422.28 L 285.11 416.62 L 285.11 407.25 L 286.75 399.65 L 310.33 325.99 L 320.58 293.88 L 324.06 281.31 L 323.41 277.13 L 320.86 272.27 L 319.01 270.20 L 316.57 268.85 L 276.11 250.94 L 271.47 246.95 L 268.97 242.99 L 267.55 238.27 L 267.23 231.73 L 268.23 227.44 L 270.59 222.68 L 276.13 215.56 L 310.54 173.94 L 344.63 132.42 L 348.31 129.48 L 353.02 126.06 L 359.38 123.05 L 383.91 116.00 L 492.19 87.56 L 493.54 86.25 L 493.70 84.14 L 492.73 80.66 L 491.82 76.44 L 492.56 73.47 L 497.18 70.74 L 515.52 62.39 L 526.98 59.15 L 566.25 50.00 L 571.96 50.00 L 577.18 52.58 L 581.05 56.83 L 583.00 60.72 L 583.76 64.42 L 583.72 69.91 L 581.98 75.10 L 530.04 128.17 L 530.04 128.17 L 529.20 129.00" fill="none" stroke="#22c55e" stroke-width="4.5" stroke-linecap="round" stroke-linejoin="round" />
</svg>