<svg viewBox="0 0 400 300" xmlns="http://www.w3.org/2000/svg"><path d="M266.6,212.7 L264.5,211.8 L262.8,210.6 L261.0,209.0 L259.9,207.6 L258.7,205.5 L258.2,203.1 L258.4,200.7 L263.1,187.7 L266.7,180.8 L270.6,174.3 L275.0,168.0 L287.1,154.1 L294.0,146.9 L298.2,141.5 L301.1,137.3 L302.5,134.5 L303.3,131.5 L303.6,126.3 L303.2,121.9 L301.1,116.4 L298.5,111.7 L294.8,107.5 L290.7,103.9 L284.7,100.1 L278.7,97.3 L271.6,94.8 L265.3,93.7 L257.9,92.8 L249.6,92.5 L239.5,92.8 L213.1,95.1 L187.3,98.1 L167.7,101.3 L153.4,104.1 L142.5,106.7 L133.5,109.3 L127.1,111.7 L123.5,113.6 L119.5,116.1 L115.7,118.8 L113.0,121.3 L110.9,123.9 L109.5,126.2 L108.7,127.9 L108.1,129.9 L107.8,131.2 L107.9,132.4 L108.3,133.6 L109.2,135.5 L110.6,138.1 L112.3,140.7 L113.7,142.2 L116.6,144.2 L121.2,146.6 L126.8,148.8 L130.4,149.9 L133.3,150.5 L136.0,150.9 L139.4,150.9 L163.4,150.1 L169.7,150.1 L175.9,150.4 L181.7,151.0 L184.9,151.6 L187.6,152.4 L190.0,153.4 L192.7,154.9 L194.0,155.9 L195.1,157.2 L196.1,159.0 L196.9,161.3 L197.7,165.2 L198.3,170.0 L198.3,173.7 L192.3,205.5 L189.5,220.6 L179.2,257.6 L177.1,265.6 L171.1,286.5 L170.3,289.0 Z" fill="none" stroke="#22c55e" stroke-width="3.5" stroke-linecap="round" stroke-linejoin="round"/></svg>