<svg viewBox="0 0 400 300" xmlns="http://www.w3.org/2000/svg"><path d="M241.9,137.6 L243.2,137.2 L243.9,137.0 L244.6,136.6 L245.2,136.2 L245.8,135.8 L246.2,135.4 L246.4,135.0 L246.7,134.6 L246.8,134.2 L246.9,133.8 L246.8,133.4 L246.7,132.9 L246.5,132.3 L246.2,131.7 L245.8,131.1 L260.5,137.3 L258.2,138.5 L246.9,145.0 L144.4,201.0 L145.0,199.7 L146.0,197.8 L146.6,196.5 L146.8,196.0 L146.9,195.7 L146.9,195.4 L146.9,195.1 L146.8,194.9 L146.8,194.7 L146.7,194.5 L146.5,194.2 L146.2,193.9 L145.9,193.6 L145.5,193.3 L145.2,193.0 L144.8,192.9 L144.3,192.7 L143.8,192.5 L141.8,192.0 L129.9,188.6 L128.4,188.2 L127.8,188.0 L127.2,187.7 L126.7,187.4 L126.3,187.2 L126.0,186.9 L125.7,186.5 L125.3,186.1 L125.1,185.8 L124.9,185.3 L124.7,184.7 L124.7,184.0 L124.6,183.4 L124.7,182.8 L124.7,182.4 L124.9,182.0 L125.1,181.7 L125.4,181.3 L125.8,180.8 L126.4,180.3 L126.8,180.0 L128.3,178.9 L132.2,175.9 L141.1,169.1 L149.8,162.2 L151.9,160.6 L152.9,159.8 L153.9,159.1 L155.1,158.3 L156.3,157.6 L157.0,157.2 L157.7,156.9 L158.6,156.5 L159.8,156.1 L161.2,155.8 L162.1,155.5 L163.1,155.4 L164.2,155.2 L166.8,154.7 L188.2,151.1 L191.9,150.5 L211.5,147.2 L212.3,147.0 L223.7,140.4 L229.3,139.9 L232.6,139.6 L241.9,138.6 L243.1,138.5 L243.9,138.6 L244.6,138.7 L245.4,139.0 L245.9,139.2 L246.4,139.5 L246.8,139.8 L247.1,140.3 L247.4,140.8 L247.5,141.3 L247.5,141.7 L247.4,142.3 L247.3,142.5 L247.2,142.8 L246.7,143.4 L245.7,144.1 L237.5,149.4 L236.3,150.2 L235.5,150.7 L234.6,151.2 L231.8,152.7 L231.0,153.2 L230.3,153.6 L229.8,154.0 L229.1,154.6 L228.3,155.3 L227.4,156.0 L222.0,159.5 L200.1,173.8 L194.9,177.0 L193.0,178.3 L183.1,186.1 L272.9,133.9 L271.7,133.6 L270.9,133.3 L270.2,133.2 L269.5,133.3 L268.8,133.4 L267.9,133.6 L267.1,133.8 L266.0,134.3 L262.5,135.7 L166.8,191.1 L165.7,188.1 L165.5,187.8 L165.3,187.6 L165.1,187.6 L164.9,187.6 L164.5,187.6 L164.0,187.7 L163.5,187.9 L162.8,188.2 L162.4,188.3 L161.8,188.6 L161.1,188.9 L160.5,189.3 L159.8,189.8 L158.9,190.5 L158.5,190.8 L158.0,191.4 L157.3,192.4 L156.8,193.3 L262.5,135.7 L260.4,136.6 L260.4,136.6 L259.9,136.9 L259.4,136.9 L258.9,136.9 L258.2,136.7 L257.7,136.5 L256.1,135.8 L247.2,131.1 L257.7,136.5 L257.2,135.8 L256.3,135.3 L248.1,130.9 L245.2,129.1 L244.6,128.8 L243.9,128.4 L243.3,128.4 L263.1,136.2 L260.9,137.2 L260.9,137.2 L260.5,137.3 L259.5,137.5 L259.1,137.5 L258.6,137.4 L258.0,137.3 L257.2,137.1 L255.2,136.2 L252.2,134.7 L248.0,132.4 L245.8,131.1 L244.3,130.1 L242.4,128.7 L241.3,127.8 L241.3,127.8 L239.1,125.9 L69.4,93.3 L62.6,90.3 L413.5,55.0 L383.4,67.1 L349.4,80.8 L340.1,84.5 L337.6,85.6 L335.5,86.6 L333.5,87.8 L332.2,88.6 L330.9,89.5 L323.5,95.3 L320.1,98.0 L237.5,149.4 L237.1,149.5 L236.8,149.5 L236.6,149.4 L236.3,149.3 L236.0,149.2 L235.6,149.1 L235.2,149.2 L234.9,149.2 L234.6,149.3 L234.2,149.5 L234.0,149.6 L233.7,150.0 L230.7,153.1 L229.8,154.0 L241.8,127.4 L239.5,125.4 L239.5,125.4 L237.3,123.4 L237.2,123.3 L237.0,123.2 L236.8,123.1 L236.4,123.1 L236.1,123.0 L235.8,123.0 L235.5,122.9 L235.2,122.9 L247.2,131.1 L243.3,128.4 L242.9,128.2 L241.8,127.4 L260.5,137.3 L258.2,138.2 L249.1,142.2 L248.4,142.5 L245.7,144.1 L320.1,98.0 L306.0,108.9 L304.7,110.1 L303.7,111.1 L302.9,111.9 L302.0,113.0 L301.3,113.9 L300.1,115.6 L298.8,117.3 L298.8,117.3 L297.9,118.3 L296.8,119.2 L296.0,119.9 L294.6,120.8 L284.9,126.8 L284.2,127.3 L283.6,127.9 L282.9,128.5 L282.4,129.1 L281.9,129.7 L281.3,130.6 L280.7,131.6 L280.5,132.1 L280.0,132.7 L279.6,133.1 L279.1,133.5 L278.3,133.8 L277.3,134.1 L276.3,134.2 L275.5,134.2 L274.7,134.2 L272.9,133.9 L270.9,133.7 L270.1,133.8 L269.3,133.9 L268.2,134.1 L267.3,134.4 L263.1,136.2 L181.5,136.2 L180.2,135.8 L177.9,135.3 L174.8,134.7 L172.1,134.4 L170.0,134.3 L158.6,133.7 L157.5,133.7 L156.6,133.7 L155.8,133.8 L155.0,134.1 L151.8,135.0 L150.2,135.4 L149.0,135.5 L148.0,135.5 L147.0,135.3 L145.6,135.0 L144.7,134.6 L143.4,133.9 L142.1,133.1 L140.6,132.2 L139.9,131.7 L139.4,131.3 L138.9,130.8 L138.4,130.2 L137.9,129.6 L136.8,127.8 L135.8,126.7 L135.2,126.1 L134.4,125.7 L133.5,125.3 L129.4,123.6 L128.3,123.1 L127.7,122.8 L127.1,122.4 L126.5,121.7 L126.1,121.2 L125.8,120.4 L125.1,118.9 L124.6,118.1 L124.0,117.6 L123.4,117.3 L122.7,117.0 L122.0,116.8 L121.0,116.6 L121.0,116.6 L104.4,114.9 L103.1,114.7 L102.4,114.5 L101.4,114.1 L100.6,113.7 L100.3,113.4 L99.8,113.0 L99.4,112.6 L99.0,112.2 L98.8,111.7 L98.7,111.3 L98.6,110.8 L98.5,109.4 L98.3,108.1 L98.0,107.3 L97.8,107.0 L97.0,106.0 L96.3,105.4 L95.6,105.0 L94.9,104.6 L93.9,104.1 L77.2,96.7 L69.4,93.3 L212.3,147.0 L215.0,146.6 L215.7,146.4 L216.2,146.3 L216.5,146.1 L216.9,145.8 L217.2,145.6 L217.5,145.2 L217.7,144.9 L217.9,144.4 L218.6,143.3 L218.8,143.0 L219.1,142.6 L219.4,142.3 L219.6,142.0 L220.0,141.8 L220.2,141.7 L220.8,141.4 L221.8,141.0 L223.2,140.5 L239.1,125.9 L237.1,124.1 L236.7,123.7 L236.2,123.3 L235.7,123.1 L235.2,122.9 L235.0,122.8 L234.7,122.7 L234.5,122.7 L234.1,122.6 L234.0,122.6 L233.7,122.6 L233.5,122.6 L233.3,122.6 L233.0,122.6 L232.7,122.7 L232.5,122.7 L231.9,122.9 L231.4,123.1 L231.0,123.3 L230.6,123.6 L230.0,124.0 L229.2,124.6 L228.5,125.3 L228.5,125.3 L222.6,132.5 L221.9,133.2 L221.0,134.0 L219.8,134.8 L217.7,136.0 L215.9,136.9 L213.8,137.7 L212.6,138.1 L207.9,139.6 L204.3,140.6 L202.9,140.9 L201.7,141.0 L200.4,141.1 L199.3,141.1 L198.1,141.0 L196.8,140.9 L195.2,140.6 L193.7,140.2 L181.5,136.2 L167.9,192.2 L167.6,192.0 L167.4,191.8 L167.1,191.6 L166.9,191.4 L166.8,191.1 L166.7,190.8 L166.7,190.4 L167.4,188.6 L167.9,187.6 L168.5,186.6 L169.1,185.7 L170.9,183.7 L171.9,182.7 L172.5,181.9 L172.9,181.3 L173.1,180.9 L173.2,180.5 L173.2,179.7 L173.2,179.1 L172.9,178.3 L172.5,177.6 L172.0,177.0 L171.4,176.5 L170.5,175.9 L169.6,175.5 L168.6,175.2 L167.7,175.0 L166.7,174.9 L165.5,174.8 L164.0,174.9 L160.2,175.2 L156.5,175.6 L153.7,176.1 L151.6,176.5 L150.1,176.9 L148.8,177.3 L147.8,177.6 L147.3,177.9 L146.7,178.2 L146.2,178.6 L145.8,179.0 L145.5,179.4 L145.3,179.7 L145.2,179.9 L145.1,180.2 L145.1,180.4 L145.1,180.6 L145.1,180.8 L145.3,181.0 L145.5,181.4 L145.7,181.8 L145.9,182.0 L146.3,182.3 L147.0,182.6 L147.8,182.9 L148.3,183.1 L148.7,183.2 L149.1,183.3 L149.6,183.2 L153.1,183.1 L154.0,183.1 L154.9,183.2 L155.7,183.3 L156.2,183.3 L156.5,183.5 L156.9,183.6 L157.3,183.8 L157.5,184.0 L157.6,184.2 L157.8,184.4 L157.9,184.7 L158.0,185.3 L158.1,186.0 L158.1,186.5 L157.2,191.1 L156.8,193.3 L155.3,198.6 L155.0,199.8 L154.2,202.8 L154.0,203.1 L223.2,140.5 L223.7,140.4 L224.9,140.1 L229.1,139.4 L232.9,138.9 L240.6,137.7 L241.9,137.6 L242.9,137.5 L243.6,137.5 L244.2,137.5 L245.0,137.7 L245.6,137.9 L246.3,138.1 L246.9,138.3 L247.5,138.7 L248.3,139.3 L248.7,139.7 L249.0,140.4 L249.2,141.0 L249.2,141.5 L249.2,142.0 L249.1,142.2 L249.0,142.6 L248.8,143.2 L248.6,143.5 L248.2,143.9 L247.8,144.3 L247.6,144.4 L246.9,145.0 L244.4,146.6 L228.4,157.2 L224.1,159.9 L206.3,171.4 L202.5,173.9 L191.1,181.3 L189.5,182.4 L186.5,184.2 L183.1,186.1 L178.2,188.5 L173.8,190.4 L170.1,191.9 L169.3,192.1 L168.9,192.2 L168.6,192.3 L168.2,192.2 L167.9,192.2 L212.3,147.0 L213.0,146.9 L213.3,146.8 L213.5,146.7 L213.5,146.6 L213.6,146.5 L213.6,146.4 L213.6,146.2 L213.0,144.5 L212.9,144.3 L213.0,144.2 L213.0,144.0 L213.1,143.9 L213.2,143.7 L213.4,143.6 L213.6,143.4 L214.0,143.1 L214.4,142.9 L214.7,142.8 L215.2,142.6 L219.5,141.4 L223.2,140.5 L142.7,204.5 L144.4,201.0 L139.8,210.8 L141.1,208.1 L141.9,206.2 L142.5,204.8 L142.7,204.5 L154.0,203.1 L153.7,204.1 L152.5,206.5 L152.5,206.5 L151.6,208.3 L149.9,211.7 L149.3,212.9 Z" fill="none" stroke="#22c55e" stroke-width="3.5" stroke-linecap="round" stroke-linejoin="round"/></svg>