<svg id="Layer_1" data-name="Layer 1" xmlns="http://www.w3.org/2000/svg" viewBox="0 0 421 211">
<style>
                    path, polyline, polygon, line, circle {
                        stroke: #ffcc00 !important;
                        stroke-width: 3.5px !important;
                        fill: none !important;
                        stroke-linecap: round !important;
                        stroke-linejoin: round !important;
                        filter: drop-shadow(0px 0px 5px #ffe600) !important;
                    }
                </style>

<title>Circuit_Paul_Ricard</title>
<path d="M87.5 28.0 L84.5 35.0 L84.5 40.0 L95.5 40.0 L99.5 43.0 L99.5 52.0 L101.5 54.0 L111.5 60.0 L123.5 65.0 L132.5 71.0 L145.5 83.0 L154.5 88.0 L160.5 88.0 L169.5 82.0 L194.5 100.0 L259.5 151.0 L262.5 152.0 L264.5 150.0 L264.5 141.0 L269.5 135.0 L275.5 135.0 L287.5 145.0 L293.5 148.0 L298.5 149.0 L307.5 149.0 L314.5 147.0 L321.5 143.0 L324.5 143.0 L327.5 146.0 L327.5 153.0 L315.5 169.0 L313.5 173.0 L313.5 180.0 L319.5 185.0 L328.5 185.0 L334.5 181.0 L336.5 177.0 L336.5 140.0 L331.5 132.0 L327.5 129.0 L265.5 106.0 L248.5 95.0 L245.5 92.0 L243.5 88.0 L241.5 87.0 L238.5 87.0 L232.5 92.0 L229.5 92.0 L215.5 86.0 L112.5 47.0 L109.5 44.0 L105.5 34.0 L98.5 27.0 L96.5 26.0 L89.5 26.0 L87.5 28.0" />
</svg>