<svg viewBox="0 0 400 300" xmlns="http://www.w3.org/2000/svg"><path d="M292.2,144.7 L293.1,145.0 L294.0,145.3 L294.8,145.6 L295.5,145.9 L296.3,146.3 L297.0,146.7 L297.8,147.1 L298.5,147.7 L299.2,148.2 L299.9,148.6 L300.5,149.2 L301.2,149.7 L301.7,150.1 L302.3,150.7 L302.9,151.2 L303.5,151.8 L304.0,152.5 L304.5,153.3 L251.4,205.6 L250.8,205.6 L250.3,205.5 L250.1,205.5 L249.9,205.4 L249.7,205.2 L249.5,205.0 L249.0,204.3 L248.6,203.6 L248.4,203.0 L248.3,202.7 L248.2,202.1 L248.2,201.5 L248.4,197.2 L248.4,196.9 L248.3,196.6 L248.1,196.4 L247.9,196.1 L247.6,195.9 L247.3,195.7 L246.6,195.5 L245.9,195.2 L244.5,194.9 L243.4,194.7 L242.7,194.6 L241.9,194.6 L241.5,194.6 L241.1,194.8 L240.8,195.0 L240.6,195.2 L240.3,195.4 L240.1,195.7 L239.8,196.4 L239.6,196.9 L239.5,197.3 L239.5,197.6 L239.5,197.9 L239.6,198.3 L239.8,198.7 L242.1,201.7 L243.9,203.7 L244.0,204.0 L244.1,204.2 L244.2,204.4 L244.2,204.8 L244.2,205.1 L244.0,205.5 L243.9,205.8 L243.6,206.2 L243.3,206.6 L243.0,206.8 L242.7,207.0 L242.3,207.2 L242.1,201.7 L242.2,202.1 L242.2,202.3 L242.2,202.5 L242.1,202.8 L241.8,203.1 L241.5,203.4 L241.2,203.5 L240.8,203.7 L240.3,203.7 L239.8,203.7 L239.2,203.7 L237.8,203.6 L233.5,195.2 L234.0,194.3 L234.2,194.0 L234.6,193.6 L235.0,193.2 L235.7,192.7 L237.3,191.8 L238.2,191.3 L251.0,194.5 L253.0,195.1 L256.9,196.2 L257.2,196.4 L257.7,196.6 L258.0,196.7 L258.2,196.9 L258.3,197.1 L258.3,197.4 L258.2,197.6 L258.1,197.7 L258.0,197.9 L253.8,201.1 L253.6,201.3 L253.5,201.5 L253.4,201.6 L253.5,201.8 L253.5,201.9 L253.5,202.0 L254.2,203.0 L254.4,203.3 L254.5,203.5 L254.5,203.8 L254.5,204.0 L254.4,204.2 L254.3,204.3 L254.2,204.5 L254.0,204.6 L253.9,204.7 L253.6,204.9 L252.7,205.2 L251.4,205.6 L249.6,206.0 L243.8,207.0 L242.3,207.2 L235.4,208.4 L234.7,208.5 L234.2,208.5 L233.8,208.5 L233.4,208.4 L233.1,208.3 L233.0,208.2 L232.8,208.1 L232.7,207.8 L231.9,206.0 L231.8,205.5 L231.8,205.2 L231.9,205.1 L232.1,204.9 L232.3,204.9 L232.5,204.9 L235.8,205.5 L236.8,205.6 L237.1,205.6 L237.5,205.6 L237.9,205.5 L238.2,205.3 L238.4,205.2 L238.6,205.0 L238.7,204.7 L238.7,204.5 L238.7,204.3 L238.7,204.1 L238.5,204.0 L238.4,203.9 L238.2,203.8 L237.8,203.6 L236.9,203.4 L236.0,203.2 L235.5,203.1 L235.1,202.9 L234.5,202.6 L234.1,202.2 L233.7,201.8 L233.4,201.2 L233.2,200.9 L233.1,200.6 L233.0,200.1 L232.9,199.6 L232.9,198.8 L232.9,198.3 L233.1,197.1 L233.5,195.2 L233.4,194.2 L233.3,194.1 L233.2,193.9 L233.0,193.7 L232.8,193.6 L232.4,193.5 L232.1,193.5 L231.7,193.5 L231.5,193.6 L231.2,193.7 L231.0,193.9 L230.9,194.3 L230.9,196.5 L230.9,196.8 L230.7,197.0 L230.6,197.2 L230.3,197.3 L229.8,197.4 L229.4,197.4 L229.0,197.3 L228.7,197.0 L227.1,194.9 L226.2,193.3 L226.2,193.0 L226.2,192.7 L226.3,192.5 L226.5,192.3 L226.7,192.2 L227.1,192.1 L227.6,192.0 L228.4,191.8 L229.2,191.7 L231.1,191.6 L231.9,191.6 L235.2,191.5 L236.9,191.5 L238.2,191.3 L239.1,191.3 L240.1,191.3 L241.1,191.5 L242.1,191.8 L245.8,192.9 L251.0,194.5 L119.8,106.3 L120.2,106.1 L121.5,105.4 L122.6,104.9 L123.5,104.5 L124.5,104.1 L125.5,103.7 L126.5,103.4 L127.1,103.1 L127.6,102.7 L227.1,194.9 L225.4,192.6 L225.2,192.3 L225.1,192.0 L225.0,191.8 L225.0,191.4 L225.2,190.9 L225.5,190.6 L225.9,190.3 L226.8,189.9 L229.1,189.6 L232.0,189.3 L232.6,189.3 L233.8,189.5 L234.3,189.5 L235.6,189.5 L237.0,189.5 L239.3,189.4 L239.6,189.5 L239.7,189.6 L240.0,189.8 L241.8,190.9 L242.2,191.1 L242.4,191.2 L242.7,191.3 L246.7,192.6 L247.0,192.7 L251.0,194.5 L234.3,167.8 L236.6,169.4 L236.9,169.5 L237.3,169.5 L237.6,169.6 L238.0,169.9 L238.4,170.2 L238.7,170.6 L239.0,171.1 L239.1,171.7 L238.8,172.5 L238.7,173.1 L238.7,173.9 L238.9,174.6 L239.3,175.3 L239.8,175.9 L240.4,176.4 L241.2,176.9 L242.0,177.2 L242.7,177.5 L243.8,177.6 L244.6,177.6 L245.4,177.6 L246.2,177.5 L246.8,177.5 L247.2,177.6 L247.7,177.7 L248.6,178.3 L249.6,179.0 L251.3,180.3 L256.8,184.1 L263.8,189.0 L264.1,189.2 L264.5,189.2 L264.9,189.2 L265.9,188.3 L266.7,187.6 L266.9,187.2 L266.8,186.9 L266.5,186.7 L259.8,182.0 L250.6,175.7 L250.1,175.3 L249.9,174.8 L250.0,174.4 L250.1,173.9 L250.1,173.4 L250.0,172.8 L249.9,172.2 L249.7,171.8 L249.1,171.2 L248.7,170.7 L247.9,170.2 L247.1,169.9 L246.3,169.6 L245.4,169.4 L244.6,169.4 L243.9,169.3 L243.2,169.5 L242.3,169.6 L241.5,169.8 L240.8,169.8 L240.1,169.6 L239.8,169.4 L239.3,169.1 L238.8,168.7 L238.7,168.4 L238.6,168.1 L236.0,166.3 L235.1,167.1 L234.3,167.8 L114.4,111.5 L114.0,111.1 L113.9,111.0 L113.8,110.8 L113.7,110.5 L113.6,110.2 L113.7,110.0 L113.7,109.8 L113.8,109.6 L113.9,109.4 L114.1,109.2 L114.3,109.0 L114.5,108.8 L119.8,106.3 L85.0,99.7 L87.4,99.5 L89.1,99.3 L90.2,99.1 L91.2,98.9 L92.5,98.4 L94.2,97.7 L95.9,96.9 L97.0,96.2 L97.9,95.4 L98.5,94.9 L99.1,94.2 L99.4,93.7 L99.6,93.4 L99.7,93.1 L99.7,92.8 L99.6,92.5 L99.3,92.3 L99.0,92.1 L94.5,101.3 L94.3,101.2 L94.2,101.1 L94.1,101.0 L94.0,100.9 L94.0,100.7 L93.9,100.5 L93.9,100.2 L94.0,100.0 L94.2,99.8 L94.3,99.7 L94.5,99.5 L94.8,99.4 L95.0,99.3 L95.4,99.3 L96.0,99.1 L40.7,88.4 L41.7,88.6 L42.2,88.7 L42.7,88.8 L43.2,88.8 L43.6,88.8 L44.1,88.8 L44.5,88.7 L44.9,88.6 L45.3,88.6 L45.7,88.5 L46.3,88.3 L48.2,87.6 L51.4,86.6 L51.8,86.5 L52.2,86.4 L52.6,86.4 L53.0,86.4 L53.5,86.5 L54.1,86.6 L54.6,86.8 L54.9,86.9 L57.8,88.1 L58.2,88.2 L58.5,88.3 L58.9,88.3 L59.3,88.3 L59.8,88.3 L60.2,88.2 L60.7,87.9 L61.1,87.6 L61.5,87.2 L61.9,86.4 L62.4,85.3 L62.6,84.4 L62.7,84.2 L62.6,83.8 L62.6,83.5 L62.5,83.1 L62.3,82.8 L62.1,82.5 L61.7,82.2 L61.3,82.0 L60.4,81.7 L45.7,90.6 L45.5,90.4 L45.4,90.3 L45.4,90.2 L45.3,90.1 L45.3,89.9 L45.2,89.8 L45.2,89.6 L45.3,89.3 L45.3,89.0 L45.4,88.8 L45.6,88.7 L45.8,88.5 L46.3,88.3 L58.7,97.7 L59.7,98.1 L60.5,98.5 L61.3,98.8 L62.2,99.0 L63.1,99.2 L64.0,99.3 L65.2,99.5 L66.5,99.7 L67.7,99.8 L69.1,100.0 L70.3,100.1 L71.5,100.1 L72.4,100.1 L73.2,100.1 L74.1,100.1 L75.0,100.1 L76.5,100.0 L79.4,99.9 L83.1,99.9 L84.5,99.9 L85.7,99.9 L87.0,100.0 L88.4,100.1 L89.6,100.2 L90.5,100.3 L91.6,100.5 L92.6,100.8 L93.4,100.9 L94.3,101.2 L94.5,101.3 L95.6,101.6 L96.2,101.8 L96.7,102.0 L97.2,102.2 L97.7,102.4 L98.2,102.6 L98.6,102.8 L99.3,103.2 L101.4,104.3 L79.4,99.9 L85.0,99.7 L91.8,99.4 L96.0,99.1 L98.9,98.9 L113.6,98.2 L114.9,98.1 L115.8,98.0 L117.0,98.0 L118.1,98.0 L119.0,98.1 L120.3,98.2 L121.4,98.4 L122.5,98.6 L125.7,99.4 L94.2,97.7 L93.9,97.9 L93.8,98.0 L93.7,98.1 L93.6,98.2 L93.5,98.3 L93.5,98.5 L93.5,98.6 L93.4,98.7 L93.4,98.8 L93.5,98.9 L93.5,98.9 L93.6,99.0 L93.6,99.0 L93.8,99.1 L93.9,99.1 L94.2,99.2 L94.6,99.2 L96.0,99.1 L83.9,101.4 L92.1,98.6 L94.2,97.7 L70.2,104.8 L70.7,104.9 L71.3,105.0 L71.8,105.1 L72.3,105.1 L72.9,105.1 L73.6,105.1 L74.1,105.1 L74.7,105.1 L75.1,105.0 L75.7,104.9 L76.2,104.8 L76.7,104.7 L77.1,104.6 L77.6,104.5 L78.0,104.3 L78.4,104.2 L78.8,104.0 L79.3,103.8 L79.8,103.5 L80.4,103.2 L80.8,103.0 L81.7,102.5 L82.7,101.9 L83.0,101.7 L83.5,101.5 L83.9,101.4 L84.3,101.2 L84.7,101.1 L85.1,101.0 L85.6,100.9 L86.2,100.7 L86.7,100.6 L87.2,100.5 L87.7,100.5 L88.0,100.4 L88.5,100.4 L89.1,100.3 L89.6,100.3 L89.9,100.3 L90.5,100.3 L91.8,99.4 L91.2,99.5 L90.7,99.6 L90.2,99.7 L89.7,99.8 L89.3,99.9 L88.8,100.0 L88.4,100.1 L87.9,100.2 L87.3,100.3 L86.1,100.7 L83.9,101.4 L244.2,204.4 L243.9,204.7 L243.5,204.9 L242.8,205.4 L242.5,205.6 L242.4,205.8 L242.3,205.9 L242.4,206.1 L242.5,206.4 L242.7,207.0 L292.2,144.7 L299.5,146.7 L300.0,146.8 L300.4,147.0 L300.7,147.2 L301.0,147.4 L301.2,147.7 L301.5,148.1 L304.5,153.3 L158.3,108.3 L159.1,108.7 L159.6,109.0 L160.1,109.4 L160.4,109.7 L160.7,110.1 L161.1,110.7 L162.0,111.9 L162.2,112.2 L162.4,112.5 L162.6,112.7 L162.8,112.9 L163.1,113.2 L163.4,113.4 L163.8,113.6 L164.1,113.8 L164.5,114.0 L164.8,114.2 L165.3,114.3 L165.7,114.5 L166.3,114.6 L166.7,114.7 L167.1,114.8 L167.4,114.8 L167.8,114.9 L168.5,114.8 L169.3,114.8 L170.0,114.7 L170.6,114.5 L171.3,114.4 L171.8,114.2 L172.5,114.0 L173.0,113.8 L173.5,113.6 L173.8,113.4 L174.9,112.8 L179.5,109.9 L181.7,108.5 L182.2,108.2 L182.5,108.0 L182.9,107.8 L183.2,107.7 L183.6,107.5 L183.9,107.4 L184.2,107.3 L184.5,107.2 L184.8,107.2 L185.1,107.1 L185.5,107.1 L186.0,107.1 L186.4,107.1 L186.7,107.2 L187.0,107.2 L187.3,107.3 L187.7,107.5 L188.1,107.7 L188.4,107.9 L188.6,108.0 L188.9,108.2 L189.1,108.4 L189.6,108.9 L191.9,111.8 L192.3,112.2 L192.7,112.6 L193.0,113.0 L193.4,113.3 L193.9,113.7 L194.4,114.0 L194.9,114.3 L207.0,120.3 L213.9,123.4 L166.4,110.5 L166.9,110.5 L167.3,110.5 L167.6,110.5 L167.9,110.4 L168.2,110.3 L168.5,110.1 L168.8,109.8 L169.2,109.3 L169.4,109.0 L169.6,108.8 L169.9,108.6 L170.2,108.4 L170.5,108.3 L170.8,108.2 L171.1,108.2 L171.4,108.1 L171.6,108.1 L171.9,108.1 L172.1,108.2 L172.4,108.2 L172.7,108.3 L179.5,109.9 L191.7,113.2 L193.1,113.6 L194.9,114.3 L306.9,168.9 L306.8,169.5 L306.7,169.9 L306.5,170.2 L306.2,170.4 L306.0,170.6 L305.6,170.8 L305.2,170.9 L304.7,170.9 L304.2,170.9 L303.8,170.9 L303.4,170.8 L303.1,170.7 L302.7,170.5 L299.1,168.6 L298.6,168.3 L298.2,168.0 L297.9,167.7 L297.6,167.3 L297.3,166.9 L297.0,166.4 L296.8,166.0 L296.7,165.6 L296.6,165.3 L296.6,164.8 L61.9,86.4 L62.7,84.7 L62.9,84.5 L63.0,84.2 L63.3,84.0 L63.6,83.8 L63.9,83.7 L64.4,83.6 L64.7,83.5 L65.1,83.4 L65.5,83.4 L66.0,83.4 L66.3,83.4 L66.6,83.4 L67.1,83.5 L127.6,102.7 L128.0,102.4 L128.2,102.1 L128.5,101.8 L128.8,101.5 L129.0,101.3 L129.2,101.1 L129.6,101.0 L130.0,100.9 L130.4,100.8 L130.8,100.9 L131.3,100.9 L328.0,202.9 L327.2,202.5 L326.5,202.1 L326.2,202.0 L326.0,201.9 L325.7,201.8 L325.5,201.8 L325.3,201.8 L325.0,201.8 L324.6,201.9 L323.7,202.2 L334.7,162.0 L335.0,162.2 L335.1,162.5 L335.2,162.6 L335.2,162.8 L335.2,163.0 L335.2,163.1 L335.1,163.3 L335.0,163.5 L334.8,163.7 L334.6,163.8 L333.4,164.5 L333.1,164.7 L332.9,164.9 L332.8,165.1 L332.7,165.3 L332.6,165.5 L332.5,165.8 L332.5,166.1 L332.5,166.5 L332.8,168.4 L333.3,171.5 L333.4,172.4 L333.4,173.3 L333.2,174.4 L332.4,176.6 L329.3,183.3 L328.6,184.9 L328.2,185.8 L326.4,190.2 L326.2,190.6 L326.2,191.0 L326.2,191.3 L326.4,191.7 L327.8,193.6 L327.8,193.7 L327.9,193.9 L328.0,194.0 L328.0,194.2 L328.0,194.3 L327.9,194.5 L327.9,194.6 L327.7,194.9 L323.7,202.2 L323.2,203.2 L320.9,206.8 L320.8,206.9 L320.6,207.1 L320.5,207.2 L320.2,207.3 L320.0,207.3 L319.8,207.3 L319.6,207.2 L319.4,207.1 L319.2,207.0 L319.0,206.7 L318.2,205.8 L317.5,205.1 L317.2,204.8 L316.9,204.6 L316.6,204.5 L316.2,204.4 L315.7,204.3 L315.3,204.4 L315.0,204.5 L314.6,204.7 L314.3,204.9 L314.1,205.1 L311.1,207.7 L310.4,208.3 L309.8,208.7 L309.4,209.0 L308.9,209.2 L308.7,209.3 L308.3,209.4 L307.7,209.5 L307.2,209.6 L299.6,210.6 L298.6,210.7 L298.2,210.8 L297.8,210.9 L297.6,211.0 L297.4,211.1 L297.2,211.3 L297.0,211.6 L296.8,211.8 L296.8,211.9 L296.7,212.2 L296.7,212.5 L296.8,212.7 L296.8,212.8 L297.0,213.0 L297.2,213.2 L297.5,213.3 L297.7,213.4 L298.0,213.5 L298.3,213.6 L299.5,213.8 L309.6,215.5 L310.1,215.5 L310.7,215.5 L311.2,215.4 L311.7,215.3 L312.2,215.1 L312.6,214.9 L312.9,214.7 L313.2,214.4 L313.4,214.2 L313.6,213.8 L313.8,213.5 L313.9,213.1 L314.4,211.3 L314.5,210.9 L314.7,210.6 L314.9,210.4 L315.2,210.1 L315.5,209.9 L315.8,209.8 L316.1,209.7 L316.6,209.6 L317.2,209.6 L317.5,209.6 L318.0,209.7 L318.5,209.9 L319.8,210.4 L320.8,210.9 L322.3,211.5 L322.6,211.7 L323.0,211.8 L323.6,211.9 L324.1,212.0 L324.7,212.1 L325.8,212.1 L326.5,212.1 L326.8,212.0 L327.5,211.9 L327.8,211.8 L328.4,211.7 L329.0,211.5 L329.5,211.2 L330.1,210.9 L330.6,210.5 L331.1,210.2 L331.4,209.8 L331.7,209.3 L331.9,209.0 L332.0,208.6 L332.1,208.2 L332.1,207.7 L332.0,207.4 L331.9,207.1 L331.7,206.7 L331.6,206.5 L331.4,206.2 L331.1,205.9 L330.8,205.6 L328.5,203.6 L328.3,203.4 L328.2,203.3 L328.1,203.2 L328.1,203.0 L328.0,202.9 L328.0,202.7 L328.1,202.6 L328.2,202.3 L328.4,201.9 L333.0,193.9 L335.2,190.0 L335.5,189.3 L335.8,188.4 L335.9,187.4 L337.3,170.1 L337.5,168.6 L337.9,167.5 L338.7,166.0 L339.1,164.9 L339.5,163.8 L339.7,162.7 L339.8,161.7 L339.8,160.7 L339.5,159.0 L339.2,157.8 L339.1,157.4 L338.5,156.0 L331.8,159.7 L332.6,160.0 L333.5,160.2 L334.4,160.2 L335.3,160.1 L336.1,159.8 L336.5,159.7 L336.9,159.5 L337.5,159.0 L338.0,158.5 L338.4,157.9 L338.6,157.3 L338.6,156.6 L334.7,162.0 L336.0,162.1 L336.5,162.2 L336.9,162.2 L337.2,162.1 L337.6,162.0 L337.9,161.9 L338.3,161.8 L338.6,161.6 L339.1,161.3 L339.8,160.7 L320.8,210.9 L326.0,201.9 L317.2,209.6 L317.8,209.0 L317.9,208.9 L318.6,208.4 L318.8,208.2 L319.6,207.2 L337.5,168.6 L337.1,168.0 L336.7,167.7 L336.5,167.6 L336.1,167.4 L335.5,167.2 L335.1,167.2 L334.6,167.2 L334.2,167.3 L333.9,167.5 L333.5,167.8 L332.8,168.4 L328.0,194.3 L329.0,194.6 L329.4,194.7 L329.8,194.8 L330.2,194.8 L330.6,194.8 L331.0,194.8 L331.4,194.7 L332.0,194.5 L332.4,194.3 L333.0,193.9 L134.4,95.1 L137.0,94.5 L137.5,92.0 L154.7,100.2 L156.2,100.3 L157.1,100.4 L157.9,100.4 L158.6,100.2 L159.1,100.1 L159.7,99.8 L160.2,99.5 L160.7,99.1 L160.9,98.7 L161.1,98.5 L161.2,98.0 L161.3,97.7 L161.2,97.4 L161.2,97.2 L161.0,96.9 L160.7,96.4 L160.1,96.0 L159.5,95.7 L159.1,95.6 L158.6,95.5 L155.4,95.0 L153.1,94.7 L142.9,93.1 L139.3,92.5 L138.4,92.3 L137.5,92.0 L137.0,91.8 L136.4,91.5 L136.0,91.1 L135.7,90.9 L135.4,90.6 L135.1,90.3 L132.7,87.3 L132.1,86.8 L131.7,86.5 L131.2,86.3 L130.6,86.1 L123.8,84.8 L116.8,83.7 L110.1,82.3 L96.1,79.1 L95.4,78.9 L92.5,78.4 L91.8,78.3 L89.9,78.2 L89.4,78.2 L88.9,78.2 L88.4,78.3 L85.9,79.5 L85.6,79.6 L85.3,79.7 L84.9,79.7 L84.5,79.6 L68.7,73.3 L62.0,70.7 L61.0,70.3 L60.5,70.2 L59.8,70.3 L59.3,70.4 L59.0,70.7 L58.8,70.9 L58.6,71.3 L58.5,71.6 L58.6,72.3 L58.6,72.8 L58.8,73.2 L59.3,74.4 L59.6,74.7 L59.9,75.0 L60.3,75.2 L60.8,75.4 L62.4,76.0 L83.7,81.4 L89.9,82.9 L90.7,83.1 L91.6,83.3 L92.9,83.4 L94.5,83.4 L100.3,83.4 L100.8,83.4 L101.3,83.5 L101.7,83.7 L102.1,83.9 L102.2,84.1 L102.3,84.4 L102.4,84.6 L102.5,86.8 L137.0,94.5 L137.8,94.7 L138.8,94.9 L139.5,95.2 L142.5,96.2 L154.7,100.2 L142.5,96.2 L143.3,95.3 L143.5,95.1 L143.5,94.8 L142.9,93.1 L306.9,168.9 L306.8,184.1 L306.8,184.1 L306.8,184.9 L306.7,185.5 L306.7,186.1 L306.6,186.8 L306.4,187.4 L306.3,188.1 L306.0,188.8 L305.7,189.4 L305.2,190.0 L304.8,190.6 L304.2,191.4 L303.6,192.0 L303.1,192.5 L302.6,192.9 L302.0,193.3 L301.3,193.8 L300.7,194.2 L300.1,194.5 L299.4,194.8 L298.8,195.1 L298.0,195.4 L297.1,195.6 L295.9,195.9 L294.6,196.1 L293.2,196.2 L291.7,196.3 L290.3,196.3 L288.7,196.1 L287.4,195.9 L286.2,195.5 L284.9,195.1 L283.6,194.5 L282.2,193.8 L281.2,193.1 L280.4,192.5 L279.8,192.0 L279.2,191.3 L278.7,190.7 L278.3,190.2 L278.1,189.7 L278.0,189.3 L278.0,188.9 L278.0,188.5 L278.1,188.0 L278.3,187.3 L278.6,186.5 L279.0,185.7 L279.4,184.9 L280.2,183.8 L281.1,182.5 L282.2,181.2 L283.1,180.1 L283.1,180.1 L284.2,179.0 L285.4,177.8 L292.2,171.1 L293.3,170.1 L293.9,169.6 L294.3,169.1 L294.8,168.5 L295.1,168.1 L295.5,167.5 L295.8,167.0 L296.1,166.4 L296.3,165.8 L296.6,164.8 L296.6,164.8 L296.5,163.8 L296.5,163.1 L296.4,162.2 L296.3,161.6 L296.0,161.0 L295.6,160.3 L295.2,159.7 L294.7,159.2 L294.3,158.8 L293.8,158.4 L293.4,158.1 L292.9,157.9 L292.5,157.7 L292.1,157.6 L291.6,157.5 L291.2,157.4 L290.6,157.3 L290.1,157.2 L289.6,157.2 L288.9,157.2 L288.4,157.3 L287.9,157.4 L287.2,157.5 L286.5,157.7 L286.1,157.9 L285.5,158.1 L284.8,158.4 L284.8,158.4 L283.7,158.9 L282.6,159.3 L281.0,160.0 L279.4,160.5 L278.1,160.9 L276.8,161.3 L275.6,161.6 L274.4,161.8 L273.1,162.1 L271.7,162.3 L270.1,162.5 L268.6,162.7 L267.0,162.8 L265.3,162.8 L263.8,162.9 L262.1,162.9 L260.6,162.8 L259.3,162.7 L258.0,162.6 L256.6,162.4 L255.3,162.2 L253.7,161.9 L252.2,161.6 L250.7,161.2 L249.0,160.7 L247.6,160.2 L246.2,159.7 L244.8,159.0 L243.3,158.2 L241.8,157.4 L240.3,156.4 L238.9,155.5 L237.7,154.7 L237.7,154.7 L236.9,154.0 L236.0,153.3 L235.3,152.8 L234.5,152.3 L233.7,151.8 L232.8,151.4 L232.0,151.0 L231.2,150.8 L230.3,150.5 L229.5,150.4 L228.5,150.3 L227.5,150.2 L226.2,150.2 L225.1,150.3 L224.1,150.4 L223.5,150.5 L222.9,150.7 L222.3,150.9 L221.1,151.3 L220.0,151.8 L219.1,152.4 L218.4,152.8 L218.1,152.9 L217.9,153.1 L217.5,153.5 L217.0,154.0 L216.6,154.5 L216.3,155.0 L216.1,155.3 L216.0,155.6 L215.9,156.3 L215.9,157.1 L215.9,157.1 L215.8,161.6 L215.8,161.6 L215.7,163.7 L215.7,164.2 L215.6,164.5 L215.5,164.9 L215.4,165.1 L215.3,165.2 L215.1,165.4 L215.0,165.5 L214.8,165.6 L214.5,165.8 L214.3,165.8 L214.1,165.9 L213.8,165.9 L213.5,165.9 L213.2,165.9 L213.0,165.8 L212.7,165.8 L211.9,165.5 L211.2,165.1 L208.1,163.4 L208.1,163.4 L201.0,159.5 L174.9,144.9 L172.6,143.6 L131.6,121.0 L115.1,111.9 L114.4,111.5 L14.7,79.0 L13.4,78.4 L12.2,77.8 L11.3,77.4 L11.0,77.2 L10.6,76.9 L10.4,76.7 L10.0,76.4 L9.8,76.0 L9.6,75.6 L9.4,75.2 L9.3,74.9 L9.3,74.4 L9.3,74.1 L9.3,73.7 L9.4,73.1 L9.9,70.7 L9.9,70.3 L9.9,69.8 L9.9,69.3 L9.7,68.8 L9.5,68.3 L9.1,67.7 L8.7,67.3 L8.3,66.9 L7.9,66.6 L7.4,66.3 L6.8,66.0 L6.2,65.7 L5.7,65.5 L5.1,65.3 L4.6,65.2 L4.1,65.1 L3.4,65.0 L2.9,65.0 L2.3,65.0 L1.7,65.0 L1.1,65.0 L-7.8,59.3 L-6.3,56.1 L-6.0,55.6 L-5.8,55.2 L-5.6,54.8 L-5.2,54.4 L-4.8,54.1 L-4.2,53.7 L-3.7,53.5 L-2.8,53.1 L-2.0,52.8 L-1.2,52.6 L-0.1,52.5 L0.9,52.5 L1.6,52.5 L2.1,52.6 L2.7,52.7 L3.4,52.9 L4.2,53.1 L5.3,53.5 L6.4,54.0 L7.9,54.7 L9.3,55.5 L10.7,56.3 L12.1,57.3 L13.5,58.4 L13.5,58.4 L14.5,59.5 L15.9,61.1 L17.1,62.9 L18.1,64.5 L19.0,66.1 L19.9,67.8 L20.3,68.4 L20.6,68.9 L21.0,69.4 L21.4,69.8 L21.8,70.2 L22.4,70.7 L23.0,71.0 L23.7,71.4 L24.8,71.8 L26.0,72.3 L27.4,72.6 L131.3,100.9 L158.3,108.3 L166.4,110.5 L174.9,112.8 L213.9,123.4 L292.2,144.7 L265.9,188.3 L258.3,183.1 L246.6,175.0 L242.2,172.0 L235.1,167.1 L123.8,115.5 L118.0,112.1 L117.0,111.6 L116.8,111.4 L116.7,111.2 L116.5,111.0 L116.4,110.7 L116.4,110.5 L116.4,110.1 L116.5,109.7 L116.6,109.4 L116.7,109.0 L116.9,108.8 L117.1,108.5 L117.3,108.2 L117.5,108.0 L119.8,106.3 L101.4,104.3 L99.4,103.4 L98.6,103.1 L97.6,103.0 L96.7,102.9 L95.9,103.0 L95.4,103.0 L95.0,103.1 L94.6,103.2 L94.3,103.4 L87.5,107.1 L86.3,107.7 L85.5,108.0 L84.8,108.1 L84.1,108.3 L83.1,108.4 L82.1,108.5 L81.0,108.5 L80.3,108.4 L79.6,108.3 L78.9,108.1 L78.1,107.8 L70.2,104.8 L69.0,104.4 L68.2,104.0 L67.6,103.7 L66.5,103.1 L65.3,102.3 L64.2,101.5 L63.1,100.6 L62.1,99.9 L61.0,99.1 L60.1,98.5 L58.7,97.7 L292.2,171.1 L292.9,169.3 L292.9,168.4 L292.8,167.6 L292.5,166.9 L292.1,166.3 L291.7,165.7 L291.0,165.1 L290.4,164.6 L289.6,164.2 L288.6,163.8 L287.5,163.5 L286.5,163.4 L285.0,163.3 L283.8,163.3 L278.2,163.2 L265.3,162.8 L58.7,97.7 L56.2,96.3 L49.4,92.5 L47.9,91.7 L46.4,91.0 L45.7,90.6 L45.1,90.3 L43.8,89.7 L42.7,89.2 L41.7,88.8 L40.7,88.4 L39.7,87.9 L38.6,87.5 L37.5,87.1 L36.4,86.8 L35.1,86.4 L33.5,86.0 L31.5,85.4 L29.2,84.7 L26.6,83.9 L23.8,82.8 L21.0,81.7 L18.7,80.8 L17.3,80.1 L16.0,79.6 L14.7,79.0 L222.3,150.9 L218.2,152.2 L216.6,152.6 L207.6,156.4 L204.8,157.5 L203.5,157.9 L202.9,158.0 L202.4,158.0 L201.8,158.0 L201.4,157.9 L200.7,157.6 L199.4,157.0 L196.3,155.4 L194.4,154.3 L194.0,154.0 L193.7,153.8 L193.6,153.6 L193.4,153.2 L193.2,152.8 L193.0,152.1 L192.8,151.6 L192.7,151.1 L192.6,150.6 L192.4,150.2 L192.3,150.1 L192.3,150.0 L192.0,149.8 L191.7,149.7 L191.1,149.3 L190.5,149.1 L175.6,142.4 L169.6,139.7 L163.3,136.9 L162.8,136.6 L161.0,135.7 L156.1,132.6 L151.7,130.2 L144.1,126.1 L142.2,125.1 L141.0,124.5 L140.1,124.1 L138.9,123.6 L136.4,122.4 L135.1,121.8 L131.7,119.9 L123.8,115.5 L121.0,114.1 L118.1,113.0 L115.1,111.9 L148.2,139.1 L136.1,131.8 L135.7,131.7 L135.1,131.6 L134.5,131.7 L130.8,132.9 L130.3,133.1 L129.9,133.4 L129.6,133.8 L129.3,134.2 L129.2,134.5 L129.1,135.0 L129.1,135.3 L129.2,135.7 L129.4,136.0 L129.7,136.4 L130.0,136.7 L136.7,140.9 L137.1,141.0 L137.4,141.1 L137.9,141.1 L138.2,141.1 L138.6,140.9 L138.9,140.6 L139.1,140.3 L139.3,139.9 L139.4,139.7 L139.3,139.5 L139.3,139.3 L139.1,139.2 L133.6,135.6 L133.4,135.4 L133.3,135.2 L133.3,135.0 L133.4,134.8 L133.5,134.7 L133.6,134.5 L133.8,134.3 L134.2,134.1 L134.5,133.9 L134.9,133.9 L135.4,133.8 L135.9,133.9 L136.3,134.0 L136.7,134.1 L144.9,138.6 L145.1,138.7 L145.2,138.8 L145.3,139.0 L145.4,139.1 L145.8,143.4 L145.9,143.6 L146.1,143.8 L146.3,144.0 L146.6,144.0 L146.8,144.0 L147.1,144.0 L147.4,143.9 L147.6,143.7 L149.0,142.3 L149.1,142.1 L149.3,141.8 L149.3,141.5 L149.3,141.3 L149.2,140.5 L149.1,140.2 L148.8,139.6 L148.7,139.5 L148.4,139.2 L148.2,139.1 L228.1,211.2 L227.2,209.0 L223.9,204.8 L223.1,203.0 L222.7,202.1 L221.4,198.1 L219.8,195.3 L218.9,193.9 L218.3,191.0 L217.5,190.4 L216.1,190.4 L214.7,191.0 L209.1,193.6 L204.8,196.2 L202.9,197.3 L201.9,198.3 L201.5,198.7 L197.8,203.8 L197.0,204.7 L196.5,205.2 L192.8,206.8 L188.0,207.3 L187.4,208.4 L187.9,210.4 L189.7,211.6 L191.8,212.9 L197.0,213.5 L200.6,214.2 L202.1,214.6 L203.7,215.1 L206.1,216.1 L210.7,217.5 L213.9,217.3 L216.8,216.8 L218.2,216.3 L224.5,215.3 L230.9,215.2 L231.2,215.2 L233.5,214.7 L218.2,216.3 L216.9,215.5 L215.2,211.1 L214.1,209.7 L211.4,207.6 L210.1,207.0 L209.2,206.6 L206.5,207.0 L203.8,207.6 L201.0,208.5 L199.5,209.0 L197.8,209.7 L198.3,210.9 L199.9,212.4 L201.6,214.2 L202.1,214.6 L197.0,204.7 L198.7,204.6 L201.4,203.7 L202.4,201.7 L203.8,198.8 L205.1,197.9 L206.9,197.4 L208.7,197.3 L210.2,197.7 L210.8,198.1 L210.9,198.9 L210.5,199.9 L210.8,201.5 L201.9,198.3 L204.0,197.8 L205.1,197.9 L206.2,198.0 L207.2,199.1 L208.3,200.2 L210.0,201.2 L210.8,201.5 L211.6,201.8 L212.7,202.2 L213.6,202.5 L216.5,204.0 L218.7,205.5 L221.3,206.8 L222.6,207.5 L223.5,208.0 L224.9,208.8 L226.7,209.8 L228.1,211.2 L230.9,215.2 L223.1,203.0 L221.0,202.3 L217.9,200.9 L214.7,198.6 L211.6,197.0 L208.9,196.3 L206.8,196.0 L204.8,196.2 L212.7,202.2 L214.8,201.6 L216.0,201.7 L216.8,202.1 L221.4,205.5 L222.6,207.5 L210.1,207.0 L210.9,206.6 L212.4,206.7 L215.6,207.8 L218.9,207.9 L220.9,208.1 L223.7,208.5 L224.9,208.8 L230.9,180.7 L229.9,180.4 L229.3,180.2 L229.3,180.2 L229.2,180.1 L229.2,180.0 L229.1,179.9 L229.1,179.8 L229.4,179.1 L229.4,179.1 L229.4,179.0 L229.5,179.0 L229.6,179.0 L229.7,178.9 L229.9,179.0 L230.0,179.0 L230.1,179.0 L230.1,179.1 L230.3,179.3 L230.4,179.3 L230.5,179.3 L230.6,179.4 L230.8,179.3 L230.8,179.3 L230.9,179.2 L230.9,179.2 L230.9,179.1 L230.9,178.9 L230.9,178.8 L230.9,178.7 L230.9,178.7 L231.0,178.6 L231.1,178.6 L231.2,178.6 L231.5,178.6 L231.6,178.6 L231.7,178.6 L231.8,178.6 L231.8,178.5 L231.8,178.4 L231.8,178.4 L231.8,178.3 L231.8,178.3 L231.7,178.2 L231.5,178.1 L231.4,178.0 L231.4,178.0 L231.3,177.9 L231.3,177.8 L231.3,177.7 L231.4,177.6 L232.3,177.0 L232.4,177.0 L232.4,176.9 L232.3,176.8 L232.3,176.6 L232.2,176.5 L232.2,176.4 L232.2,176.4 L232.3,176.3 L232.9,176.1 L233.1,176.1 L233.2,176.1 L233.3,176.1 L233.3,176.2 L233.4,176.3 L233.5,176.4 L233.6,176.4 L233.7,176.5 L233.9,176.4 L234.1,176.4 L234.2,176.4 L234.4,176.5 L234.5,176.5 L234.6,176.6 L234.9,177.0 L234.9,177.1 L234.9,177.2 L234.8,177.3 L234.7,177.3 L234.6,177.4 L234.4,177.4 L234.1,177.5 L234.0,177.5 L233.9,177.5 L233.8,177.6 L233.4,178.1 L232.9,178.8 L232.4,179.4 L231.5,180.6 L231.4,180.6 L231.3,180.7 L231.2,180.7 L231.1,180.7 L231.0,180.7 L230.9,180.7 L233.4,178.1 L233.0,178.1 L232.8,178.2 L232.7,178.2 L232.6,178.3 L232.5,178.3 L232.5,178.4 L232.5,178.5 L232.5,178.5 L232.6,178.6 L232.9,178.8 L233.2,179.0 L233.3,179.1 L233.3,179.2 L233.3,179.2 L233.3,179.3 L233.2,179.4 L233.1,179.4 L232.7,179.4 L232.4,179.4 L320.8,206.9 L321.6,204.9 L321.6,204.7 L322.4,203.4 L322.5,203.2 L322.5,203.0 L322.6,202.7 L322.6,201.7 L322.6,201.6 L322.7,201.4 L322.8,201.2 L326.4,194.9 L326.4,194.8 L326.5,194.7 L326.5,194.6 L326.4,194.5 L326.1,194.1 L325.1,192.6 L324.9,192.4 L324.9,192.2 L324.9,192.0 L325.2,191.3 L329.3,183.3 L327.8,193.6 L327.7,192.6 L327.6,192.3 L327.9,189.7 L328.0,187.7 L328.2,185.8 L330.6,159.0 L334.7,162.0 L338.6,156.6 L338.5,156.0 L338.3,155.5 L337.9,155.0 L337.4,154.5 L336.8,154.2 L336.1,153.9 L335.4,153.6 L334.6,153.5 L333.8,153.5 L333.1,153.6 L332.3,153.7 L331.6,154.0 L331.0,154.3 L330.4,154.8 L330.0,155.2 L329.7,155.8 L329.5,156.3 L329.5,156.9 L329.5,156.9 L329.5,157.5 L329.8,158.0 L330.1,158.6 L330.6,159.0 L331.1,159.4 L331.8,159.7 L327.9,189.7 L329.0,187.4 L329.1,187.0 L336.0,172.1 L337.5,168.6 L192.6,150.6 L192.2,149.3 L192.0,149.1 L191.6,148.8 L178.8,143.1 L166.5,137.6 L162.9,135.9 L159.2,133.9 L157.9,132.9 L157.2,132.5 L146.0,126.2 L145.3,125.8 L144.8,125.6 L144.3,125.5 L142.3,124.8 L140.1,124.1 L114.4,111.5 L106.9,107.3 L101.4,104.3 L119.8,106.3 L118.3,107.0 L117.4,107.3 L116.5,107.6 L115.0,107.9 L113.5,108.1 L111.9,108.2 L110.5,108.2 L109.9,108.1 L109.2,108.0 L108.2,107.7 L106.9,107.3 L125.7,99.4 L126.5,99.8 L127.3,100.2 L127.6,100.4 L127.9,100.7 L128.1,101.0 L128.2,101.3 L128.3,101.7 L128.1,102.1 L127.9,102.4 L127.6,102.7 L27.4,72.6 L60.4,81.7 L67.1,83.5 L99.0,92.1 L99.4,92.2 L121.0,98.1 L125.7,99.4 L131.3,100.9 L155.4,95.0 L154.0,97.7 L153.9,97.8 L153.7,98.0 L153.5,98.1 L153.3,98.1 L153.0,98.0 L152.6,97.9 L148.6,96.4 L148.4,96.2 L148.3,96.0 L148.3,95.8 L148.4,95.6 L148.7,95.4 L149.1,95.3 L149.7,95.4 L151.6,95.7 L152.0,95.8 L152.2,95.7 L152.4,95.7 L152.6,95.5 L152.8,95.2 L153.1,94.7 L246.6,175.0 L245.8,175.5 L244.8,175.7 L243.8,175.6 L242.8,175.3 L242.1,174.8 L241.6,174.1 L241.5,173.4 L241.7,172.6 L242.2,172.0 L243.0,171.6 L243.9,171.3 L244.8,171.3 L245.8,171.5 L246.6,171.9 L247.1,172.4 L247.5,173.1 L247.5,173.8 L247.2,174.4 L246.6,175.0 L306.8,161.9 L306.9,168.9 L304.5,153.3 L304.9,154.0 L305.2,154.8 L305.6,155.7 L305.9,156.6 L306.2,157.4 L306.4,158.2 L306.6,159.0 L306.7,159.6 L306.8,160.4 L306.8,161.2 L306.8,161.9 Z" fill="none" stroke="#22c55e" stroke-width="3.5" stroke-linecap="round" stroke-linejoin="round"/></svg>