<svg viewBox="0 0 400 300" xmlns="http://www.w3.org/2000/svg"><path d="M245.5,20.6 L246.4,21.6 L247.1,22.5 L247.3,23.0 L247.4,23.6 L247.4,24.3 L247.2,24.9 L247.0,25.4 L246.5,26.1 L246.0,26.7 L245.2,27.3 L240.6,29.9 L239.7,30.5 L239.0,31.3 L238.5,31.9 L238.1,32.6 L237.7,33.5 L237.5,34.6 L237.5,35.6 L237.5,36.9 L238.7,43.8 L240.5,55.0 L240.8,58.4 L240.7,61.8 L240.2,65.6 L237.2,73.5 L226.0,97.6 L223.2,103.7 L221.9,106.9 L215.5,122.6 L214.8,124.3 L214.6,125.7 L214.7,126.8 L215.3,128.0 L220.5,135.2 L220.6,135.4 L220.9,136.0 L221.1,136.6 L221.1,137.2 L221.0,137.6 L220.9,138.2 L220.7,138.7 L220.1,139.7 L205.6,166.2 L203.8,169.6 L195.7,182.7 L195.2,183.2 L194.5,183.7 L193.9,184.1 L193.1,184.5 L192.4,184.6 L191.6,184.5 L190.7,184.2 L190.0,183.9 L189.5,183.5 L188.5,182.4 L185.9,179.2 L183.4,176.5 L182.2,175.6 L181.2,174.9 L180.1,174.5 L178.7,174.0 L176.9,173.9 L175.4,174.1 L174.1,174.5 L172.9,175.1 L171.7,175.9 L170.8,176.7 L160.1,185.9 L157.6,188.1 L155.3,189.8 L153.8,190.7 L152.2,191.4 L151.3,191.8 L149.9,192.2 L147.9,192.6 L146.0,192.9 L118.5,196.4 L115.0,196.9 L113.2,197.3 L112.1,197.7 L111.3,198.0 L110.6,198.5 L109.9,199.0 L108.9,200.0 L108.5,200.7 L108.2,201.4 L108.0,202.5 L108.0,203.3 L108.2,204.0 L108.5,204.7 L109.1,205.4 L109.9,206.0 L110.7,206.4 L111.6,206.8 L112.8,207.2 L113.7,207.4 L118.1,208.2 L154.5,214.2 L156.5,214.4 L158.5,214.3 L160.4,214.0 L162.3,213.5 L164.0,212.8 L165.5,211.9 L166.5,211.3 L167.5,210.4 L168.3,209.4 L169.1,208.2 L169.8,206.9 L170.2,205.5 L172.0,199.0 L172.4,197.8 L173.0,196.6 L173.8,195.6 L174.8,194.8 L175.9,194.1 L177.2,193.6 L178.2,193.3 L179.8,193.0 L182.1,192.9 L183.4,193.1 L185.0,193.3 L186.9,193.9 L191.7,195.8 L195.3,197.5 L200.5,199.9 L201.8,200.3 L203.2,200.8 L205.3,201.3 L207.3,201.8 L209.4,202.0 L213.4,202.1 L215.7,201.9 L216.9,201.8 L219.3,201.4 L220.6,201.0 L222.7,200.4 L224.7,199.6 L226.5,198.9 L228.9,197.6 L230.8,196.3 L232.3,195.1 L233.6,193.6 L234.7,192.0 L235.3,190.8 L235.8,189.4 L236.0,187.7 L235.9,186.0 L235.6,185.0 L235.2,183.8 L234.7,182.6 L234.2,181.8 L233.4,180.7 L232.5,179.7 L231.4,178.5 L223.0,171.3 L222.2,170.4 L221.9,170.1 L221.7,169.7 L221.5,169.2 L221.4,168.8 L221.4,168.1 L221.5,167.5 L221.8,166.6 L222.6,165.1 L239.3,136.1 L247.4,122.1 L248.5,119.6 L249.4,116.3 L249.9,112.8 L254.7,49.9 L255.7,44.5 L257.1,40.6 L259.8,35.1 L261.4,31.4 L262.7,27.2 L263.5,23.1 L263.8,19.5 L263.8,15.9 L262.9,9.7 L261.9,5.6 L261.4,4.1 L259.2,-0.8 Z" fill="none" stroke="#22c55e" stroke-width="3.5" stroke-linecap="round" stroke-linejoin="round"/></svg>