<svg xmlns="http://w3.org" viewBox="0 0 800 600" width="100%" height="100%">
  <path d="M 417.11 330.83 L 498.47 392.86 L 539.95 424.93 L 542.55 425.83 L 544.99 425.64 L 546.93 424.59 L 548.06 422.98 L 548.55 420.87 L 549.21 399.06 L 549.84 394.48 L 550.82 392.00 L 552.60 389.33 L 555.37 385.94 L 559.26 382.60 L 563.77 380.12 L 568.65 378.69 L 573.66 378.35 L 579.35 378.69 L 584.53 380.45 L 588.58 382.94 L 591.98 386.13 L 598.47 393.24 L 604.79 399.06 L 612.08 404.55 L 619.85 408.99 L 627.46 412.37 L 635.57 414.67 L 643.51 416.43 L 652.60 417.15 L 662.16 417.15 L 669.77 416.10 L 677.25 414.29 L 684.69 411.81 L 692.14 408.80 L 698.47 405.27 L 702.52 402.79 L 706.08 401.02 L 709.47 399.97 L 712.90 399.78 L 716.46 400.49 L 719.85 402.45 L 722.78 405.08 L 724.73 407.75 L 725.85 410.42 L 726.83 413.61 L 727.46 418.01 L 727.46 423.54 L 726.51 427.60 L 725.05 431.51 L 722.95 435.57 L 721.00 438.43 L 705.42 458.80 L 700.25 466.06 L 695.24 474.03 L 690.20 483.43 L 687.92 488.92 L 686.97 492.26 L 686.47 495.46 L 686.97 498.66 L 688.09 501.51 L 689.70 504.33 L 692.47 507.72 L 696.03 510.72 L 700.90 514.07 L 705.91 516.55 L 710.95 517.98 L 715.47 518.51 L 720.02 518.32 L 724.73 517.26 L 729.11 515.69 L 733.46 513.73 L 736.72 511.59 L 739.62 509.29 L 742.06 506.47 L 744.66 503.28 L 746.77 499.18 L 748.38 495.84 L 749.34 492.11 L 749.84 488.39 L 750.00 485.01 L 749.67 410.76 L 749.67 405.61 L 749.34 401.73 L 748.71 398.16 L 747.10 393.24 L 745.29 388.09 L 743.21 384.18 L 740.44 380.12 L 736.88 376.02 L 732.83 371.77 L 728.45 368.24 L 724.56 365.57 L 720.84 363.61 L 717.25 362.03 L 688.09 350.68 L 653.40 337.56 L 620.02 325.15 L 580.31 310.45 L 544.99 296.99 L 540.61 295.04 L 536.56 292.74 L 506.90 272.37 L 501.53 268.65 L 498.96 265.79 L 490.53 252.86 L 488.25 250.75 L 485.02 248.79 L 481.76 248.27 L 479.35 248.27 L 476.75 249.51 L 474.64 251.09 L 463.31 261.73 L 460.87 263.49 L 458.11 264.02 L 455.20 263.49 L 422.95 251.46 L 321.00 213.34 L 279.82 197.74 L 156.82 151.84 L 128.12 141.05 L 125.22 139.62 L 122.78 137.66 L 121.50 135.90 L 120.02 133.79 L 118.40 131.12 L 117.28 128.45 L 110.79 113.04 L 109.01 110.03 L 107.23 106.65 L 104.46 103.11 L 101.89 99.20 L 99.29 96.38 L 94.25 91.76 L 89.40 87.89 L 85.02 85.22 L 79.98 83.07 L 75.47 81.83 L 72.54 81.49 L 69.30 82.02 L 66.05 83.07 L 63.47 84.69 L 60.87 86.98 L 59.42 88.75 L 58.43 91.08 L 50.82 113.56 L 50.00 116.57 L 50.00 118.00 L 50.66 119.95 L 52.11 121.38 L 54.38 122.06 L 58.76 121.91 L 73.99 119.43 L 78.37 119.43 L 82.75 119.95 L 86.47 121.53 L 89.07 123.68 L 91.35 126.16 L 92.63 128.45 L 93.92 131.46 L 94.41 133.94 L 94.58 136.08 L 94.25 138.90 L 92.80 147.59 L 92.80 149.73 L 93.29 152.02 L 94.25 154.17 L 96.19 155.93 L 99.12 158.42 L 116.62 168.87 L 130.89 176.84 L 143.84 182.33 L 155.20 187.10 L 161.04 190.15 L 167.36 193.49 L 174.15 198.12 L 183.08 204.13 L 194.91 213.68 L 204.30 220.60 L 210.13 226.46 L 218.07 234.77 L 221.50 237.25 L 226.18 239.92 L 243.70 249.66 L 249.04 251.80 L 253.26 252.14 L 257.15 251.61 L 261.04 250.22 L 264.59 247.89 L 267.03 245.41 L 269.63 241.88 L 271.88 239.06 L 274.81 236.73 L 277.71 235.67 L 280.97 235.15 L 285.19 235.15 L 289.57 235.49 L 293.46 236.73 L 295.87 238.34 L 313.39 251.80 L 336.56 269.70 L 362.81 289.02 L 388.09 308.68 L 417.11 330.83" fill="none" stroke="#22c55e" stroke-width="4.5" stroke-linecap="round" stroke-linejoin="round" />
</svg>