<svg viewBox="0 0 400 300" xmlns="http://www.w3.org/2000/svg"><path d="M195.9,294.8 L196.6,292.7 L198.0,288.8 L200.5,281.8 L202.3,276.8 L203.4,274.9 L203.9,274.2 L204.7,273.2 L206.1,271.8 L206.9,271.0 L207.9,270.2 L209.1,269.3 L210.5,268.4 L212.9,267.0 L214.8,266.3 L218.4,265.1 L221.8,264.0 L223.5,263.6 L225.8,262.9 L226.6,262.6 L227.3,262.0 L227.9,261.3 L228.1,260.8 L228.9,258.6 L229.5,255.8 L230.0,253.8 L230.5,252.6 L231.2,251.0 L233.1,247.7 L234.7,245.3 L236.6,243.0 L239.0,240.7 L243.0,237.5 L247.0,234.4 L250.8,231.6 L251.5,230.8 L252.7,229.7 L254.1,228.4 L255.2,226.9 L256.2,225.4 L257.1,224.1 L258.3,222.2 L259.2,220.5 L260.3,218.4 L261.0,216.8 L262.2,214.2 L262.6,212.9 L262.9,211.8 L263.2,210.4 L263.3,209.3 L263.2,208.0 L263.1,206.9 L262.9,205.7 L262.5,204.5 L261.7,202.9 L260.5,201.4 L259.2,199.8 L257.3,197.9 L255.6,196.3 L253.1,194.4 L249.4,191.9 L247.3,190.6 L244.5,189.1 L229.1,181.0 L185.8,158.0 L174.0,152.2 L172.3,151.6 L169.2,150.9 L167.0,150.5 L164.7,150.2 L162.8,150.1 L161.0,150.1 L158.8,150.2 L157.3,150.5 L155.6,150.8 L152.7,151.7 L149.4,152.8 L144.9,154.5 L140.3,156.5 L132.3,159.8 L129.7,160.9 L127.2,162.2 L126.6,162.5 L124.8,163.5 L123.0,164.9 L121.7,165.9 L120.3,167.3 L117.7,170.7 L116.7,172.2 L115.4,173.8 L112.3,179.2 L109.9,183.1 L108.4,185.3 L107.8,186.5 L107.4,187.8 L107.4,189.0 L107.5,190.1 L107.7,191.0 L108.1,191.8 L108.6,192.6 L109.2,193.1 L112.7,195.4 L116.3,197.9 L116.7,198.3 L117.0,198.6 L117.2,199.2 L117.2,199.8 L117.1,200.4 L116.8,201.5 L112.6,213.7 L111.1,218.7 L108.6,226.2 L106.1,234.1 L104.0,240.4 L101.3,248.1 L100.2,252.3 L99.1,257.0 L98.3,260.7 L97.9,264.0 L97.2,269.1 L117.7,170.7 L118.9,169.5 L119.9,168.4 L121.8,166.9 L123.0,166.1 L123.9,165.6 L125.6,164.7 L130.4,162.5 L133.8,161.2 L136.2,160.3 L138.7,159.4 L140.4,159.0 L141.6,158.7 L143.0,158.5 L145.0,158.2 L146.7,158.0 L148.1,157.9 L149.4,158.0 L151.0,158.1 L152.6,158.4 L154.6,158.7 L158.6,159.1 L159.7,159.2 L160.6,159.2 L161.6,159.1 L162.4,158.9 L163.4,158.7 L164.6,158.3 L166.8,157.3 L168.8,156.4 L169.9,156.0 L170.8,155.8 L171.7,155.7 L172.4,155.7 L173.3,155.7 L174.1,155.8 L174.7,156.0 L177.2,157.4 L180.1,158.8 L208.0,173.7 L220.2,180.2 L245.9,193.8 L248.1,195.2 L250.8,197.0 L253.2,199.0 L255.0,200.7 L256.6,202.6 L257.4,203.8 L258.1,205.3 L258.7,206.9 L259.0,207.9 L259.2,209.4 L259.4,210.8 L259.4,212.4 L259.1,214.0 L258.8,215.7 L258.4,217.6 L258.0,218.9 L257.6,220.1 L257.1,221.3 L256.3,222.9 L255.2,224.5 L254.5,225.7 L252.8,227.9 L251.7,229.4 L247.0,234.4 L117.7,170.7 L118.7,167.7 L122.2,163.4 L150.1,140.8 L172.3,151.6 L150.1,140.8 L155.7,136.0 L156.6,135.5 L158.0,135.2 L159.2,135.3 L160.3,135.5 L161.6,136.3 L162.5,137.0 L164.1,138.5 L166.1,140.7 L168.8,144.0 L169.6,144.9 L170.3,145.5 L170.9,146.0 L171.8,146.6 L188.8,154.8 L206.7,164.4 L230.6,177.2 L231.8,178.0 L233.9,179.2 L237.2,181.4 L242.9,185.3 L250.1,189.7 L253.2,191.8 L255.5,193.5 L257.8,195.3 L259.2,196.7 L260.3,198.2 L260.8,199.5 L261.2,201.0 L261.7,202.9 L231.3,97.7 L232.7,99.6 L233.6,101.7 L233.9,104.8 L233.6,107.0 L232.6,109.6 L231.6,111.0 L230.4,112.3 L228.6,113.7 L226.7,114.8 L224.4,115.6 L222.3,116.0 L220.2,116.2 L218.0,116.1 L216.2,115.7 L214.4,115.3 L212.2,114.3 L210.8,113.4 L209.2,112.0 L204.2,106.7 L197.2,99.4 L195.9,97.8 L195.3,96.3 L194.8,95.3 L194.6,94.1 L194.4,92.7 L194.4,91.4 L194.7,90.0 L195.1,88.6 L195.8,87.4 L196.5,86.4 L197.4,85.3 L198.5,84.2 L199.7,83.3 L201.0,82.6 L202.3,82.0 L203.9,81.4 L205.2,81.1 L206.7,80.9 L208.3,80.8 L210.1,80.9 L211.6,81.1 L213.1,81.6 L214.3,82.0 L216.1,82.7 L217.4,83.5 L218.7,84.5 L231.3,97.7 L201.3,100.2 L201.4,100.9 L201.6,101.8 L202.1,102.7 L203.0,103.6 L208.9,109.1 L210.6,110.6 L212.2,111.7 L214.2,112.8 L215.2,113.4 L217.5,114.2 L219.4,114.4 L221.3,114.4 L223.5,114.1 L225.5,113.4 L227.3,112.5 L228.7,111.4 L230.0,110.0 L230.8,108.6 L231.2,107.4 L231.5,105.9 L231.6,104.8 L231.4,103.0 L230.9,101.6 L229.9,100.0 L228.6,98.3 L227.0,96.9 L224.8,95.1 L222.9,93.3 L221.6,91.9 L220.5,90.2 L219.4,88.7 L218.3,87.5 L216.9,86.4 L215.0,85.3 L213.1,84.7 L211.5,84.4 L209.8,84.3 L208.7,84.4 L207.8,84.7 L206.8,85.2 L205.9,86.1 L205.4,86.9 L204.9,88.0 L204.8,88.9 L204.8,90.2 L205.3,91.2 L205.9,91.9 L206.8,92.5 L207.8,92.8 L209.1,92.9 L210.5,93.0 L212.3,93.1 L213.5,93.4 L214.5,93.8 L215.4,94.3 L216.1,95.1 L216.9,96.2 L218.1,98.4 L218.9,99.2 L219.8,99.6 L221.3,100.1 L222.4,100.4 L223.7,101.1 L224.5,101.8 L225.0,102.7 L225.1,103.7 L225.1,104.8 L224.7,106.3 L224.1,107.3 L223.5,107.8 L222.7,108.4 L221.7,108.7 L220.6,108.9 L218.5,108.9 L217.3,108.5 L216.5,108.1 L215.4,107.4 L214.7,106.6 L214.1,105.6 L213.8,104.7 L213.1,102.6 L212.4,100.6 L211.7,99.4 L210.6,98.4 L209.6,97.9 L208.5,97.5 L207.1,97.2 L205.9,97.1 L204.4,97.4 L203.2,97.8 L202.3,98.4 L201.6,99.2 L201.3,100.2 L213.9,56.0 L218.2,59.3 L218.6,60.1 L218.7,61.2 L218.1,61.9 L217.1,62.4 L216.1,62.4 L215.3,62.1 L211.0,58.5 L210.4,57.9 L210.4,57.3 L210.6,56.7 L211.2,56.1 L212.2,55.7 L213.1,55.7 L213.9,56.0 L218.1,61.9 L217.9,62.6 L217.2,63.1 L216.1,63.3 L214.9,63.1 L213.6,62.5 L209.5,59.1 L208.8,58.1 L208.7,57.0 L209.1,56.0 L209.8,55.2 L210.8,54.6 L212.0,54.2 L212.9,54.4 L213.6,54.8 L213.9,56.0 Z" fill="none" stroke="#a855f7" stroke-width="3.5" stroke-linecap="round" stroke-linejoin="round"/></svg>