<svg viewBox="0 0 400 300" xmlns="http://www.w3.org/2000/svg"><path d="M206.0,19.2 L202.7,19.1 L198.6,19.0 L195.0,19.0 L188.2,19.5 L182.1,20.1 L178.8,20.7 L175.1,21.6 L171.6,22.5 L168.6,23.7 L165.9,24.9 L163.8,26.0 L161.7,27.4 L159.5,29.3 L157.8,31.1 L156.0,33.2 L154.7,35.2 L153.8,37.1 L153.0,39.1 L152.3,41.5 L151.9,43.6 L151.9,45.4 L151.9,48.2 L152.2,51.2 L152.6,53.9 L153.3,56.7 L154.2,59.1 L155.6,62.9 L157.7,67.5 L184.7,130.2 L188.5,139.0 L190.8,144.5 L203.6,173.9 L205.8,178.6 L207.2,181.6 L208.0,183.6 L208.9,186.0 L209.5,188.4 L209.9,191.0 L210.2,193.8 L210.3,196.5 L210.3,199.0 L210.0,201.3 L208.8,204.9 L207.7,207.7 L206.2,210.1 L203.9,212.8 L202.0,214.6 L199.9,216.4 L197.1,218.4 L194.3,220.0 L175.4,229.0 L170.1,231.6 L165.8,234.2 L164.2,235.4 L162.9,236.7 L161.9,237.9 L160.8,239.8 L159.9,241.1 L159.3,242.9 L159.0,244.4 L158.8,245.9 L159.0,247.4 L159.3,249.0 L159.9,250.7 L160.6,252.0 L161.4,253.3 L162.7,254.9 L163.9,256.2 L165.5,257.6 L167.3,258.7 L169.1,259.5 L171.1,260.2 L173.9,260.8 L175.9,261.0 L178.1,260.9 L180.1,260.7 L182.6,260.4 L185.0,259.8 L187.2,259.2 L189.1,258.4 L190.6,257.5 L194.3,255.2 L195.8,253.8 L201.5,249.6 L226.6,227.6 L232.7,221.9 L234.1,220.2 L236.7,217.3 L238.2,215.4 L239.5,213.2 L240.9,210.7 L242.3,207.6 L243.3,204.8 L244.1,201.5 L244.3,199.1 L244.3,196.5 L244.0,193.2 L243.8,190.3 L243.4,187.5 L243.0,185.2 L242.2,181.1 L238.9,168.9 L235.5,156.6 L235.7,154.4 L236.1,153.4 L236.5,152.6 L237.4,151.6 L238.4,151.1 L239.8,150.7 L241.4,150.6 L243.3,150.7 L244.5,151.1 L245.9,151.8 L247.6,153.1 L248.9,154.8 L254.9,162.2 L256.2,163.8 L257.3,165.3 L258.2,166.6 L259.3,168.5 L259.8,169.8 L263.1,177.9 L263.8,179.0 L264.7,180.2 L266.1,181.7 L267.7,182.9 L269.8,184.1 L271.8,184.9 L273.3,185.2 L275.7,185.2 L278.8,184.8 L281.6,183.8 L283.7,182.2 L285.2,180.7 L286.1,179.5 L286.8,177.7 L287.0,176.2 L287.4,173.8 L287.5,172.3 L287.7,165.8 L287.6,158.5 L287.3,155.0 L286.9,151.0 L286.5,149.0 L285.7,146.7 L285.1,145.1 L284.2,142.7 L283.0,140.1 L282.2,138.7 L272.9,122.7 L271.9,120.5 L270.8,118.1 L270.1,115.7 L269.6,113.0 L269.5,111.3 L269.4,109.2 L269.8,107.1 L270.3,104.9 L270.8,103.5 L272.0,100.7 L273.6,97.6 L276.5,92.5 L283.1,80.3 L283.8,78.2 L284.7,75.6 L285.1,73.4 L285.3,71.9 L285.4,67.9 L285.4,66.3 L285.2,65.2 L284.8,63.7 L284.1,62.2 L283.3,60.6 L282.3,59.1 L281.1,57.5 L279.3,55.9 L277.4,54.5 L275.3,53.0 L273.2,52.0 L270.9,51.0 L268.1,50.2 L265.8,49.7 L263.7,49.4 L261.7,49.2 L258.3,49.2 L255.4,49.4 L252.8,49.7 L249.7,50.0 L247.3,50.4 L239.6,51.9 L232.7,53.3 L231.1,53.6 L229.2,53.6 L228.0,53.6 L226.4,53.3 L225.5,52.9 L224.5,52.2 L223.9,51.4 L223.5,50.5 L223.4,49.4 L223.5,48.2 L223.8,47.3 L224.3,46.5 L228.0,41.7 L229.7,39.0 L230.3,37.6 L230.8,36.4 L231.0,34.9 L231.0,33.7 L230.9,32.1 L230.7,31.1 L230.4,30.1 L229.9,29.0 L229.4,28.0 L228.8,27.1 L227.9,26.1 L227.0,25.2 L226.1,24.3 L224.3,23.2 L222.5,22.2 L220.8,21.6 L219.2,21.1 L217.8,20.6 L214.7,19.8 L212.1,19.5 L210.0,19.4 L206.0,19.2 L184.3,124.7 L185.1,126.3 L186.2,128.3 L187.3,130.1 L188.5,132.0 L189.9,134.4 L190.9,136.7 L191.8,139.0 L193.1,141.8 L193.9,143.7 L194.9,146.1 L198.7,155.2 L202.8,164.7 L206.7,173.8 L209.4,179.8 L209.8,181.0 L210.3,182.3 L210.7,184.0 L210.9,185.5 L211.1,187.2 L211.3,189.2 L211.1,192.1 L210.7,194.6 L210.3,196.5 L160.6,196.4 L160.8,196.0 L160.8,195.7 L160.5,195.0 L160.0,194.4 L158.7,193.8 L157.7,193.5 L155.5,193.2 L154.0,193.1 L152.8,193.2 L151.7,193.5 L150.7,194.0 L149.8,194.7 L149.3,195.1 L148.9,195.9 L148.6,196.7 L148.4,197.9 L149.2,207.0 L150.7,218.5 L150.7,219.9 L150.5,220.6 L150.1,221.3 L149.4,222.0 L148.5,222.5 L141.3,225.1 L140.6,225.5 L140.0,226.1 L139.6,226.8 L139.4,227.4 L139.6,228.2 L140.0,228.8 L140.7,229.6 L141.5,230.2 L142.4,230.6 L143.4,230.8 L144.3,230.7 L145.4,230.4 L146.4,229.9 L153.9,226.0 L154.7,225.4 L155.3,224.7 L155.7,224.0 L156.0,223.1 L156.2,222.3 L156.2,220.8 L156.3,217.0 L156.4,216.4 L156.7,216.0 L157.0,215.8 L157.4,215.6 L157.9,215.6 L158.4,215.6 L158.7,215.8 L159.0,216.2 L159.1,216.6 L159.3,217.0 L159.4,217.9 L159.7,219.9 L160.0,220.6 L160.5,221.1 L161.3,221.5 L162.0,221.6 L162.8,221.4 L163.4,221.2 L163.9,220.6 L164.2,220.1 L164.5,219.4 L164.7,218.4 L164.7,217.2 L164.5,215.8 L163.8,211.5 L163.9,210.6 L164.1,209.7 L164.5,209.0 L165.1,208.2 L168.1,205.0 L168.5,204.4 L168.6,203.7 L168.6,202.9 L168.3,202.2 L168.0,201.6 L167.4,201.0 L166.6,200.5 L166.0,200.3 L165.1,200.2 L162.6,200.0 L160.7,200.1 L160.0,200.0 L159.6,199.8 L159.2,199.5 L159.0,199.2 L158.9,198.8 L158.9,198.4 L159.1,198.0 L159.9,197.2 L160.6,196.4 L149.8,194.7 L151.4,191.8 L151.9,191.0 L152.2,190.6 L152.6,190.3 L153.2,190.3 L158.8,191.3 L160.0,191.7 L161.0,192.2 L161.6,193.4 L161.7,193.8 L161.8,194.4 L161.8,194.9 L161.6,195.5 L161.2,195.9 L160.6,196.4 L161.6,193.4 L162.3,194.8 L162.9,195.9 L163.2,196.6 L163.6,197.3 L163.9,197.7 L164.5,198.5 L167.4,201.0 L195.0,19.0 L189.1,20.4 L186.6,21.1 L183.3,22.3 L179.8,23.8 L177.0,25.3 L174.3,27.0 L173.2,28.0 L171.8,29.1 L170.8,30.7 L169.6,32.7 L168.2,35.3 L162.3,46.2 L161.2,48.3 L160.3,50.4 L159.3,52.6 L159.0,54.2 L158.5,56.5 L158.1,58.4 L158.1,60.1 L158.2,61.3 L158.5,62.5 L159.9,66.5 Z" fill="none" stroke="#ec4899" stroke-width="3.5" stroke-linecap="round" stroke-linejoin="round"/></svg>