<svg viewBox="0 0 400 300" xmlns="http://www.w3.org/2000/svg"><path d="M160.3,93.3 L221.5,80.8 L229.5,80.3 L233.9,82.3 L236.2,87.2 L240.2,101.3 L239.2,108.7 L234.6,113.7 L227.5,115.7 L219.5,119.0 L214.9,123.0 L214.9,128.3 L218.1,136.2 L235.1,169.6 L235.9,178.4 L231.7,183.5 L226.4,183.9 L218.7,182.4 L206.7,179.4 L195.8,180.9 L190.7,185.0 L190.7,188.8 L194.6,193.7 L209.3,206.4 L213.1,212.6 L210.7,217.8 L205.8,221.0 L198.9,220.9 L192.3,218.4 L187.5,212.3 L176.3,181.5 L176.3,175.6 L179.0,170.4 L187.7,158.4 L187.2,154.7 L183.0,152.4 L172.5,149.3 L169.3,146.3 L169.3,142.2 L180.5,127.7 L180.8,122.8 L177.3,118.5 L157.6,105.2 L154.2,100.4 L154.2,96.3 L160.3,93.3 Z" fill="none" stroke="#f97316" stroke-width="3.5" stroke-linecap="round" stroke-linejoin="round"/></svg>