<svg viewBox="0 0 400 300" xmlns="http://www.w3.org/2000/svg"><path d="M189.1,88.5 L189.3,85.7 L189.7,84.1 L190.3,82.8 L191.8,81.1 L193.5,79.9 L195.7,78.9 L197.9,78.5 L199.7,78.4 L201.5,78.4 L202.7,78.6 L204.9,79.5 L206.7,80.4 L208.3,81.5 L209.7,82.6 L174.7,127.2 L176.0,128.6 L177.7,129.8 L179.5,130.7 L181.5,131.3 L184.0,131.4 L185.9,131.1 L187.8,130.4 L189.8,129.2 L191.3,127.4 L192.3,125.8 L214.8,180.7 L216.0,182.1 L217.3,183.3 L228.4,190.9 L231.1,192.4 L233.5,193.3 L235.6,193.6 L238.2,193.3 L235.8,233.7 L232.4,234.3 L228.9,234.7 L188.2,235.7 L184.6,235.5 L180.0,234.7 L246.5,224.0 L239.9,227.1 L237.1,228.1 L234.3,228.9 L231.0,229.6 L227.7,229.9 L199.5,230.2 L189.9,230.3 L187.4,230.2 L185.0,229.9 L182.6,229.3 L179.9,228.3 L177.4,226.9 L175.8,225.5 L174.1,223.8 L173.0,222.0 L172.2,220.0 L159.9,185.8 L120.9,77.5 L116.6,66.2 L115.0,62.8 L113.2,59.0 L110.8,54.3 L107.4,48.3 L103.8,42.5 L171.9,184.9 L183.6,182.5 L185.1,182.4 L186.0,182.8 L186.4,183.8 L187.2,186.5 L187.0,187.9 L186.1,188.8 L184.8,189.2 L183.2,189.9 L182.4,190.6 L182.4,191.6 L183.0,193.1 L186.2,199.5 L186.4,201.2 L185.6,202.2 L184.6,202.3 L183.1,202.0 L180.8,201.4 L178.7,201.7 L177.7,202.5 L177.7,203.2 L178.5,204.1 L181.3,206.6 L182.0,207.7 L181.6,208.7 L180.6,209.4 L179.3,209.3 L178.0,208.9 L177.1,207.7 L175.0,201.8 L175.0,200.7 L175.5,199.7 L177.1,197.4 L177.1,196.7 L176.3,196.2 L174.2,195.7 L173.6,195.1 L173.6,194.3 L175.8,191.5 L175.8,190.6 L175.2,189.8 L171.4,187.2 L170.8,186.3 L170.8,185.5 L171.9,184.9 L180.6,144.2 L181.5,145.5 L182.7,146.3 L184.2,146.8 L185.7,146.9 L187.3,146.5 L188.4,146.0 L189.3,145.1 L189.8,144.1 L190.2,142.3 L173.1,64.4 L171.7,61.8 L171.1,60.0 L170.9,58.2 L171.1,56.3 L171.6,54.2 L172.7,52.4 L173.8,51.0 L259.2,127.8 L262.2,129.3 L264.2,130.4 L266.2,131.9 L268.1,133.8 L269.3,135.2 L270.1,136.4 L270.9,137.7 L273.2,143.3 L273.7,144.9 L273.6,146.7 L273.2,148.0 L272.6,149.1 L271.5,149.9 L270.1,150.8 L268.5,151.5 L194.7,107.3 L194.8,103.8 L194.5,100.8 L193.9,98.1 L192.9,95.5 L192.1,93.8 L189.1,88.5 L235.8,233.7 L230.4,237.3 L225.8,239.5 L222.2,240.7 L217.7,241.9 L212.6,242.7 L207.8,242.9 L203.3,242.8 L199.7,242.4 L196.5,241.8 L192.9,240.9 L189.6,239.7 L186.1,238.4 L182.9,236.7 L180.0,234.7 L247.1,184.6 L248.9,183.3 L250.7,182.3 L252.5,181.7 L254.3,181.5 L256.4,181.5 L258.4,181.8 L260.4,182.5 L262.4,183.5 L264.4,185.1 L265.7,186.5 L266.9,188.0 L268.0,190.0 L268.8,192.1 L269.1,193.7 L269.4,195.6 L269.3,197.3 L269.0,199.0 L268.3,201.2 L267.3,202.9 L265.3,205.6 L263.8,207.4 L211.3,200.2 L211.1,201.8 L211.3,203.5 L211.8,205.0 L212.8,206.2 L214.3,207.3 L216.0,208.1 L217.8,208.5 L219.7,208.4 L221.3,208.1 L223.3,207.3 L224.5,206.5 L246.5,224.0 L241.3,229.1 L235.8,233.7 L180.0,234.7 L177.4,232.8 L174.7,230.2 L173.0,228.5 L171.5,226.6 L169.8,223.9 L168.2,220.5 L166.9,217.1 L165.6,213.4 L145.7,158.0 L126.8,105.2 L124.5,98.9 L103.8,42.5 L149.6,28.6 L147.4,30.3 L145.8,31.9 L144.7,33.5 L143.9,35.1 L143.4,37.0 L143.3,38.7 L143.6,40.8 L144.0,42.4 L136.7,5.7 L166.7,11.6 L166.7,11.6 L169.0,12.3 L170.1,13.1 L171.0,14.3 L171.3,15.7 L171.1,16.8 L170.5,17.6 L169.1,19.0 L166.8,20.3 L173.8,51.0 L189.0,36.9 L189.1,88.5 L173.1,64.4 L202.0,40.1 L209.7,82.6 L189.0,36.9 L190.4,35.9 L192.1,35.4 L194.1,35.2 L195.8,35.2 L197.5,35.7 L199.1,36.5 L200.4,37.5 L201.5,38.8 L202.0,40.1 L190.2,142.3 L192.3,125.8 L174.7,127.2 L180.6,144.2 L144.0,42.4 L174.7,127.2 L166.8,20.3 L152.8,26.9 L149.6,28.6 L238.2,193.3 L247.1,184.6 L263.8,207.4 L246.5,224.0 L192.3,125.8 L194.7,107.3 L224.5,206.5 L238.2,193.3 L214.8,180.7 L211.3,200.2 L268.5,151.5 L231.7,160.3 L231.7,160.3 L229.3,161.2 L227.2,162.2 L225.1,163.4 L223.1,164.8 L221.2,166.4 L219.6,168.1 L218.4,169.7 L217.2,171.8 L216.2,174.4 L215.4,177.5 L214.8,180.7 L228.2,115.3 L259.2,127.8 L212.7,99.6 L213.6,102.3 L214.5,104.3 L215.5,105.9 L217.0,107.8 L218.7,109.5 L220.6,111.1 L222.9,112.6 L225.9,114.2 L228.2,115.3 L209.7,82.6 L212.7,99.6 L165.6,213.4 L159.9,185.8 Z" fill="none" stroke="#f97316" stroke-width="3.5" stroke-linecap="round" stroke-linejoin="round"/></svg>