<svg viewBox="0 0 400 300" xmlns="http://www.w3.org/2000/svg"><path d="M102.1,187.7 L90.8,168.9 L89.7,167.4 L88.6,165.8 L87.5,164.3 L86.8,163.5 L86.2,162.6 L85.5,161.5 L84.6,160.0 L77.2,147.0 L70.8,136.3 L70.1,135.1 L69.6,133.9 L69.3,132.6 L69.2,131.3 L69.3,130.0 L69.5,128.7 L69.9,127.4 L70.5,126.3 L71.1,125.3 L71.9,124.4 L72.8,123.5 L73.8,122.8 L74.9,122.1 L76.1,121.6 L77.2,121.2 L78.3,121.0 L79.5,120.9 L80.7,120.8 L81.9,120.9 L83.3,121.1 L84.7,121.5 L86.0,122.1 L87.2,122.8 L98.1,128.9 L110.3,135.8 L111.5,136.4 L112.8,137.0 L114.1,137.4 L115.5,137.6 L117.0,137.7 L118.4,137.6 L119.8,137.3 L121.1,136.9 L122.4,136.4 L123.6,135.7 L124.6,134.8 L125.6,133.9 L126.4,132.8 L127.0,131.5 L127.4,130.1 L127.7,128.7 L127.9,127.2 L127.9,125.7 L127.6,107.7 L127.6,106.3 L127.6,105.0 L127.8,103.6 L128.1,102.2 L128.6,100.9 L129.1,99.6 L129.9,98.3 L130.8,97.0 L131.7,95.8 L132.9,94.7 L138.8,88.9 L164.5,63.4 L171.9,55.9 L172.8,55.1 L173.9,54.3 L175.1,53.7 L176.4,53.3 L177.7,53.0 L179.1,52.8 L180.4,52.8 L181.7,52.9 L182.9,53.2 L184.1,53.6 L185.3,54.1 L186.3,54.7 L187.3,55.5 L194.6,61.4 L196.8,63.3 L197.8,64.1 L198.6,64.9 L199.3,65.9 L199.9,66.9 L200.3,68.0 L200.6,69.1 L200.8,70.3 L200.8,71.4 L200.7,72.5 L200.4,73.6 L200.0,74.7 L199.5,75.8 L198.8,76.7 L198.0,77.6 L172.9,102.6 L172.3,103.2 L171.7,103.8 L171.3,104.6 L171.0,105.4 L170.8,106.3 L170.8,107.1 L171.0,108.0 L171.3,108.8 L171.7,109.5 L172.3,110.3 L173.1,110.9 L173.9,111.3 L174.9,111.7 L175.9,111.9 L176.9,111.9 L177.8,111.8 L178.8,111.5 L179.7,111.2 L225.0,94.8 L226.2,94.3 L227.4,94.0 L228.7,93.8 L230.0,93.8 L231.4,93.8 L232.6,94.1 L233.9,94.4 L235.1,94.9 L236.2,95.5 L237.3,96.3 L238.2,97.1 L239.1,98.1 L239.8,99.1 L240.3,100.3 L240.7,101.4 L240.9,102.6 L241.0,103.6 L241.0,104.6 L240.8,105.6 L240.5,106.6 L240.1,107.6 L239.6,108.6 L238.9,109.5 L238.2,110.4 L235.9,112.3 L232.0,115.4 L229.9,117.4 L228.1,119.5 L226.3,121.7 L224.7,124.0 L223.5,126.0 L222.4,128.1 L221.5,130.2 L220.6,132.4 L219.9,134.6 L219.2,137.5 L218.7,140.1 L218.5,141.2 L218.2,142.2 L217.8,143.3 L217.2,144.2 L216.5,145.2 L215.7,146.0 L214.8,146.8 L213.9,147.5 L212.8,148.1 L211.7,148.6 L209.5,149.3 L192.7,152.9 L186.4,154.2 L185.2,154.5 L184.1,154.8 L183.1,155.4 L182.1,156.0 L181.3,156.7 L180.5,157.5 L179.9,158.4 L179.4,159.3 L179.1,160.3 L178.9,161.4 L178.9,162.4 L179.0,163.4 L179.3,164.4 L179.8,165.5 L180.3,166.4 L181.0,167.3 L181.9,168.1 L184.0,170.2 L186.3,172.2 L188.2,173.8 L190.2,175.3 L192.3,176.7 L194.8,178.1 L197.3,179.5 L199.8,180.7 L202.5,181.9 L204.9,182.8 L207.5,183.6 L210.1,184.4 L211.3,184.7 L212.7,185.0 L215.9,185.6 L219.0,186.1 L222.3,186.4 L225.1,186.5 L228.0,186.5 L230.8,186.4 L233.7,186.2 L269.8,182.2 L271.4,182.1 L273.0,182.2 L274.5,182.4 L276.0,182.7 L277.5,183.1 L279.0,183.7 L280.3,184.4 L281.8,185.3 L283.1,186.3 L284.3,187.4 L285.3,188.7 L286.3,190.1 L294.7,203.9 L295.4,205.1 L295.9,206.4 L296.2,207.7 L296.4,209.0 L296.3,210.4 L296.1,211.5 L295.8,212.6 L295.4,213.7 L294.8,214.7 L294.1,215.7 L281.0,234.4 L280.3,235.3 L279.4,236.2 L278.4,237.0 L277.3,237.7 L276.1,238.2 L274.9,238.6 L273.7,238.9 L272.4,239.1 L271.2,239.1 L270.0,239.0 L268.8,238.8 L225.3,230.9 L224.1,230.9 L222.8,230.9 L221.5,231.1 L220.3,231.4 L219.1,231.8 L218.0,232.3 L216.7,233.1 L215.6,234.0 L214.6,235.0 L213.8,236.1 L213.2,237.3 L200.3,260.0 L194.7,269.9 L185.0,287.0 L183.3,289.8 L182.7,290.7 L181.9,291.5 L181.0,292.2 L180.1,292.8 L179.1,293.4 L177.8,293.9 L176.5,294.3 L175.1,294.5 L173.8,294.6 L172.4,294.5 L170.9,294.2 L169.6,293.8 L168.3,293.2 L167.0,292.5 L166.0,291.7 L165.1,290.8 L164.3,289.8 L163.6,288.7 L157.0,277.7 L102.1,187.7 L171.7,103.8 L170.7,104.4 L169.7,105.1 L168.7,106.0 L167.6,107.3 L167.3,107.9 L167.0,108.5 L166.9,109.2 L166.8,109.9 L166.9,110.7 L167.2,111.4 L167.6,112.0 L168.1,112.5 L168.6,113.0 L169.2,113.3 L169.9,113.5 L170.6,113.7 L171.3,113.7 L172.4,113.7 L173.4,113.6 L174.5,113.4 L175.6,113.0 L177.8,111.8 L139.0,111.3 L138.9,96.5 L139.0,95.6 L139.2,94.8 L139.5,93.9 L139.9,93.1 L140.4,92.3 L140.9,91.5 L141.8,90.3 L142.7,89.1 L143.3,88.5 L144.0,87.8 L158.9,72.4 L159.3,72.0 L173.5,57.7 L174.3,57.0 L175.1,56.4 L176.0,56.0 L177.0,55.6 L178.2,55.3 L179.4,55.2 L180.7,55.2 L181.9,55.4 L183.1,55.8 L184.3,56.3 L185.4,56.9 L186.3,57.7 L188.5,59.3 L189.6,60.1 L190.8,60.7 L192.1,61.1 L193.4,61.5 L194.6,61.4 L98.1,128.9 L99.5,130.9 L101.1,132.8 L102.5,134.4 L104.0,135.8 L105.6,137.0 L107.2,138.2 L108.8,139.2 L110.4,140.2 L131.0,151.3 L131.7,151.8 L135.6,153.9 L136.6,154.3 L137.6,154.7 L138.6,154.9 L139.9,155.2 L141.3,155.2 L146.2,155.5 L147.0,155.6 L147.9,155.9 L148.6,156.3 L149.3,156.8 L149.9,157.4 L150.4,158.1 L150.6,158.9 L151.2,160.2 L151.8,161.5 L152.5,162.6 L153.4,163.7 L154.3,164.7 L157.1,167.3 L158.2,168.3 L160.9,170.4 L163.8,172.4 L166.8,174.2 L169.3,175.7 L171.9,177.0 L174.6,178.2 L177.1,179.4 L179.7,180.5 L182.4,181.5 L185.1,182.4 L188.0,183.1 L191.0,183.8 L193.9,184.2 L196.9,184.6 L206.2,185.3 L207.2,185.4 L208.3,185.4 L209.3,185.2 L210.3,185.0 L211.3,184.7 L192.7,152.9 L189.8,152.1 L188.4,151.5 L187.6,150.9 L186.8,150.2 L186.1,149.2 L185.6,148.2 L185.4,147.7 L185.3,146.8 L185.3,145.9 L185.4,145.0 L185.7,144.1 L186.2,143.2 L186.8,142.4 L187.6,141.6 L188.5,141.0 L189.2,140.3 L189.9,139.5 L190.4,138.6 L190.8,137.6 L191.1,136.6 L191.2,135.6 L191.2,134.5 L190.9,133.5 L190.6,132.4 L190.1,131.6 L189.5,130.8 L188.9,130.0 L188.1,129.4 L187.1,128.8 L186.0,128.3 L184.8,128.0 L183.6,127.9 L182.4,127.8 L181.1,127.9 L179.9,128.1 L178.8,128.5 L171.4,130.5 L170.3,130.8 L169.3,131.3 L168.3,131.9 L167.5,132.6 L166.8,133.4 L166.3,134.3 L165.9,135.1 L165.6,135.9 L165.4,136.6 L165.2,137.4 L164.8,138.5 L164.3,139.4 L163.6,140.3 L162.7,141.1 L161.9,141.7 L161.0,142.2 L160.0,142.5 L159.0,142.8 L157.9,142.9 L156.8,142.9 L155.6,142.8 L154.4,142.5 L153.2,142.1 L152.1,141.5 L151.2,140.8 L150.3,140.0 L149.6,139.1 L149.0,138.3 L145.7,133.9 L140.2,126.7 L139.5,125.8 L138.7,124.4 L138.4,123.7 L137.5,121.6 L137.2,120.0 L137.0,118.4 L137.0,115.6 L136.9,97.5 L137.0,95.7 L137.3,94.0 L137.6,92.2 L138.1,90.5 L138.8,88.9 L267.0,167.5 L268.1,167.7 L268.6,167.9 L269.0,168.1 L269.4,168.5 L269.6,168.8 L269.7,169.2 L269.6,169.6 L269.5,170.1 L269.2,170.7 L268.8,171.1 L268.3,171.5 L267.6,171.7 L267.1,171.8 L248.5,174.6 L248.2,174.6 L247.9,174.5 L247.6,174.4 L247.4,174.2 L247.3,174.0 L247.3,173.7 L247.4,172.1 L247.6,171.5 L247.8,171.0 L248.2,170.5 L248.7,170.1 L249.2,169.7 L249.8,169.5 L250.8,169.2 L251.7,169.0 L252.7,168.9 L253.6,168.9 L254.2,168.9 L254.8,168.9 L255.4,168.7 L256.0,168.5 L256.6,168.2 L256.9,167.9 L257.2,167.5 L257.3,167.1 L257.3,166.7 L257.2,166.3 L256.9,165.9 L256.5,165.7 L256.1,165.5 L255.6,165.5 L255.2,165.7 L254.3,166.2 L253.8,166.5 L253.2,166.7 L252.6,166.8 L252.1,166.7 L251.7,166.5 L251.2,166.3 L250.8,166.0 L250.3,165.8 L249.8,165.7 L249.2,165.6 L248.7,165.7 L248.1,165.9 L244.8,167.9 L244.4,168.3 L244.1,168.7 L243.9,169.1 L243.7,169.6 L243.6,170.1 L243.6,170.5 L243.6,171.6 L243.5,172.2 L243.1,172.8 L242.6,173.2 L242.0,173.4 L240.1,173.8 L239.6,173.8 L239.1,173.8 L238.7,173.6 L238.4,173.4 L238.1,173.1 L237.9,172.8 L237.8,172.3 L237.7,171.7 L237.7,171.3 L237.8,170.8 L238.0,170.3 L238.2,169.6 L238.3,168.9 L238.3,168.1 L238.3,167.3 L238.3,167.0 L238.1,166.7 L237.9,166.5 L237.5,166.5 L237.2,166.5 L236.9,166.7 L235.2,168.1 L234.8,168.6 L234.4,169.0 L234.2,169.5 L234.0,170.2 L234.0,171.0 L234.2,172.4 L234.4,173.0 L234.3,173.6 L234.1,174.2 L233.7,174.7 L233.3,175.0 L232.8,175.2 L232.3,175.3 L231.8,175.3 L230.1,175.1 L229.5,175.0 L229.0,174.7 L228.6,174.4 L228.3,173.9 L228.1,173.4 L228.0,172.8 L228.1,172.3 L228.4,171.8 L229.6,170.3 L229.9,169.9 L230.3,169.5 L230.5,169.1 L230.8,168.6 L231.3,167.8 L231.7,167.3 L232.1,166.8 L234.6,164.5 L235.1,164.1 L235.8,163.7 L236.5,163.5 L237.2,163.3 L237.9,163.3 L261.2,160.7 L262.4,160.5 L263.1,160.3 L263.9,160.1 L264.5,159.9 L265.0,159.6 L265.4,159.3 L265.8,158.9 L266.2,158.5 L266.5,158.0 L266.6,157.4 L266.6,156.8 L266.6,156.1 L266.7,155.5 L267.0,154.9 L267.4,154.3 L269.7,152.5 L270.2,152.1 L270.9,151.9 L271.6,151.8 L272.3,151.8 L272.9,151.9 L273.6,152.2 L274.1,152.5 L274.6,153.0 L280.0,160.6 L280.2,161.0 L280.3,161.5 L280.3,161.8 L280.2,162.4 L279.9,162.8 L279.5,163.2 L279.0,163.5 L277.5,164.1 L276.9,164.3 L276.4,164.3 L275.8,164.3 L275.4,164.1 L274.9,163.9 L274.6,163.6 L273.1,162.3 L272.5,161.9 L271.9,161.7 L271.3,161.6 L270.7,161.7 L270.2,161.8 L269.7,162.1 L269.3,162.5 L266.5,165.8 L266.2,166.1 L266.1,166.5 L266.2,166.8 L266.3,167.2 L266.6,167.4 L267.0,167.5 L231.3,167.8 L231.0,167.3 L230.7,166.9 L230.2,166.5 L230.0,166.2 L230.0,165.9 L230.1,165.6 L230.2,165.3 L230.5,165.1 L230.9,164.9 L233.1,163.9 L233.7,163.8 L234.3,163.7 L235.0,163.7 L235.8,163.7 Z" fill="none" stroke="#3b82f6" stroke-width="3.5" stroke-linecap="round" stroke-linejoin="round"/></svg>