<svg viewBox="0 0 400 300" xmlns="http://www.w3.org/2000/svg">
  <path d="M150.0,229.6 L147.8,225.6 L145.6,221.5 L143.0,216.9 L140.2,211.7 L138.4,208.5 L135.1,202.5 L132.6,198.0 L131.2,195.4 L128.5,190.5 L126.3,186.8 L124.5,183.5 L122.4,179.8 L121.6,178.4 L119.9,175.4 L118.5,173.0 L116.5,169.4 L114.9,166.7 L113.5,164.2 L112.0,161.5 L108.5,155.4 L106.9,152.6 L104.7,148.7 L102.1,144.3 L99.5,140.0 L99.0,139.1 L97.1,135.8 L95.7,133.3 L93.6,129.2 L92.3,126.4 L91.4,124.3 L90.5,121.6 L90.1,119.8 L89.9,116.6 L90.2,114.6 L90.6,113.2 L91.6,111.3 L93.9,108.9 L95.9,107.6 L97.5,106.9 L99.6,106.4 L102.2,106.4 L105.3,107.1 L107.0,107.8 L110.2,109.6 L112.6,111.2 L114.3,112.3 L116.8,114.0 L118.7,115.2 L122.4,117.6 L122.8,117.9 L130.5,122.7 L133.9,124.1 L136.4,124.4 L137.9,124.3 L139.7,123.9 L141.8,122.9 L144.5,120.7 L146.5,117.6 L147.3,114.9 L147.6,111.7 L147.5,107.9 L147.4,103.8 L147.3,101.3 L147.3,99.5 L147.2,95.5 L147.1,92.6 L147.3,89.3 L147.7,87.1 L149.0,83.1 L150.3,80.4 L152.7,77.0 L154.3,75.0 L156.1,72.7 L157.7,71.0 L161.2,67.1 L163.2,64.9 L165.7,62.1 L168.3,59.3 L169.8,57.6 L171.3,56.0 L174.6,52.3 L176.3,50.4 L178.8,47.7 L183.3,42.7 L184.6,41.2 L188.7,36.9 L190.5,35.3 L192.2,34.2 L194.3,33.4 L196.1,33.1 L198.3,33.2 L201.1,33.7 L204.3,35.1 L206.2,36.3 L209.5,39.0 L210.7,40.1 L212.0,41.4 L214.3,44.0 L215.2,45.3 L216.6,47.7 L217.8,52.1 L217.9,54.3 L217.7,56.1 L214.9,61.2 L212.6,63.6 L211.2,64.9 L209.2,66.8 L207.6,68.3 L205.0,70.8 L203.4,72.4 L202.4,73.4 L200.8,75.1 L198.3,77.9 L195.2,81.4 L193.5,83.5 L191.8,85.9 L190.5,88.2 L190.1,89.2 L189.8,90.3 L189.6,91.9 L189.8,92.9 L190.2,93.8 L190.7,94.5 L191.1,94.9 L192.4,95.7 L193.8,96.1 L195.0,96.2 L196.0,96.1 L198.6,95.6 L200.9,94.9 L202.7,94.1 L203.9,93.7 L205.4,93.1 L207.9,92.1 L208.9,91.7 L212.3,90.3 L214.7,89.3 L216.5,88.5 L221.2,86.3 L223.3,85.3 L225.6,84.2 L228.2,83.1 L230.4,82.1 L234.4,80.4 L238.6,78.6 L241.0,77.7 L243.1,77.2 L246.5,76.8 L248.1,77.0 L250.1,77.6 L251.9,78.4 L254.2,80.2 L255.4,81.5 L256.0,82.4 L257.1,84.6 L257.7,87.0 L257.7,88.9 L257.7,89.4 L257.2,91.4 L256.6,92.9 L255.8,94.3 L253.9,96.4 L251.0,98.9 L247.6,102.6 L245.0,106.0 L243.4,108.5 L241.9,111.1 L241.0,112.7 L240.1,114.4 L238.1,119.3 L236.7,124.3 L235.3,128.5 L234.8,129.6 L232.3,133.1 L230.9,134.4 L227.1,136.4 L221.6,138.1 L218.3,138.8 L216.1,139.2 L211.2,140.1 L210.2,140.3 L206.8,140.9 L203.8,141.7 L203.1,141.9 L201.0,143.2 L199.6,144.7 L198.6,146.3 L197.9,148.1 L197.5,150.0 L197.5,151.6 L197.8,153.0 L198.9,155.4 L200.6,157.5 L201.5,158.6 L202.9,160.2 L204.4,161.6 L205.2,162.4 L206.9,163.8 L208.9,165.3 L210.8,166.6 L213.2,168.2 L217.2,170.3 L218.8,171.1 L222.6,172.7 L225.1,173.6 L230.2,175.0 L234.6,175.8 L236.9,176.1 L241.2,176.3 L244.6,176.3 L248.1,176.1 L250.8,175.9 L251.9,175.9 L256.3,175.4 L260.1,175.0 L264.8,174.4 L266.5,174.2 L272.7,173.5 L276.1,173.0 L280.9,172.2 L284.6,171.9 L288.5,172.1 L291.8,172.8 L292.6,173.1 L295.2,174.3 L297.9,176.0 L300.4,178.3 L302.3,180.4 L303.8,182.5 L305.5,185.2 L307.6,189.0 L308.9,191.8 L310.0,194.1 L311.2,197.5 L311.6,200.0 L311.8,202.1 L310.9,207.0 L309.3,210.4 L306.8,214.8 L303.8,219.1 L300.4,224.0 L297.9,227.6 L296.3,229.4 L293.4,231.5 L291.1,232.4 L287.7,233.0 L283.4,232.6 L281.8,232.4 L278.1,231.7 L274.9,231.0 L272.8,230.5 L269.1,229.6 L267.5,229.2 L262.7,228.2 L259.0,227.4 L255.2,226.6 L253.8,226.4 L247.8,225.3 L245.6,225.0 L242.9,224.8 L237.9,225.8 L235.6,227.1 L232.8,229.5 L231.1,231.6 L228.2,236.3 L227.0,238.7 L225.2,242.5 L224.6,244.0 L223.7,245.9 L222.4,248.6 L220.3,253.2 L219.0,256.0 L216.2,261.9 L214.5,265.2 L213.4,267.5 L211.4,271.2 L209.7,274.5 L206.9,279.8 L205.2,283.0 L203.8,285.4 L201.4,288.9 L199.2,291.0 L198.2,291.7 L195.5,292.8 L194.1,293.0 L192.4,293.1 L190.5,293.0 L189.7,292.8 L187.8,292.2 L184.5,290.1 L183.3,288.9 L182.0,287.4 L180.3,284.7 L178.8,282.0 L177.7,279.9 L176.1,276.8 L174.9,274.6 L172.9,270.9 L170.8,267.2 L169.5,264.8 L167.3,260.7 L165.6,257.8 L163.1,253.3 L161.7,250.8 L160.1,247.8 L157.9,243.8 L155.9,240.2 L154.3,237.2 L151.5,232.2 Z"
    fill="none"
    stroke="#FF6600"
    stroke-width="4"
    stroke-linecap="round"
    stroke-linejoin="round"/>
</svg>