<svg viewBox="0 0 400 300" xmlns="http://www.w3.org/2000/svg"><path d="M201.1,71.6 L200.0,75.1 L199.0,79.5 L198.9,80.2 L198.1,84.7 L197.9,86.5 L197.7,94.8 L197.9,107.5 L198.0,110.3 L198.4,113.0 L198.4,114.9 L200.5,149.4 L200.6,151.8 L200.8,160.5 L201.1,175.0 L201.7,193.1 L202.4,216.6 L202.5,218.8 L202.8,221.1 L203.1,222.5 L203.5,224.1 L204.1,232.1 L204.4,236.4 L206.1,240.5 L181.0,37.1 L184.5,37.1 L187.2,37.3 L190.0,37.6 L191.8,38.1 L193.9,38.7 L195.4,39.5 L196.7,40.4 L197.6,41.2 L198.5,42.1 L199.2,43.1 L199.8,44.1 L200.1,45.1 L200.3,46.0 L200.6,49.8 L206.5,264.0 L206.5,265.4 L206.2,266.9 L205.8,268.3 L205.0,269.8 L204.3,270.8 L203.4,271.9 L202.5,272.8 L201.7,273.6 L199.8,274.9 L197.6,276.0 L195.8,276.7 L192.7,277.6 L200.6,49.8 L201.1,71.6 L201.2,73.7 L201.3,79.6 L202.2,111.0 L203.6,159.8 L203.7,166.2 L203.9,173.4 L206.1,240.5 L206.4,254.7 L206.5,264.0 Z" fill="none" stroke="#a855f7" stroke-width="3.5" stroke-linecap="round" stroke-linejoin="round"/></svg>