<svg viewBox="0 0 400 300" xmlns="http://www.w3.org/2000/svg"><path d="M59.6,38.5 L59.8,41.1 L59.8,42.2 L59.6,43.8 L59.0,46.2 L58.6,48.7 L58.1,51.8 L57.6,56.9 L57.5,60.3 L57.5,64.2 L57.7,66.4 L57.9,68.7 L58.3,71.8 L59.2,75.9 L59.9,78.9 L60.4,81.2 L64.6,99.0 L64.8,100.9 L64.9,103.0 L64.6,106.6 L64.0,110.7 L64.0,112.3 L64.1,114.0 L64.3,115.7 L64.7,117.4 L67.3,127.0 L97.7,234.5 L98.6,236.7 L99.6,238.8 L100.4,239.9 L101.4,240.7 L102.5,241.4 L103.7,241.8 L105.0,241.9 L106.4,241.7 L107.9,241.3 L109.1,240.8 L117.6,236.4 L118.7,235.6 L119.8,234.7 L121.0,233.7 L125.6,229.2 L127.7,227.2 L129.4,225.7 L131.0,224.7 L133.1,223.8 L134.7,223.5 L136.2,223.5 L137.8,223.6 L139.5,224.0 L141.5,224.8 L145.1,226.7 L154.8,232.0 L156.9,233.1 L159.3,234.1 L161.8,235.1 L165.3,236.0 L169.1,236.7 L172.8,236.9 L177.4,236.9 L180.8,236.4 L183.9,235.7 L187.3,234.6 L191.2,232.7 L193.9,231.0 L196.4,229.2 L198.5,227.2 L200.3,225.3 L201.9,223.2 L203.3,221.2 L204.5,219.2 L206.1,215.5 L209.5,207.5 L213.6,197.8 L218.4,185.7 L221.1,178.8 L223.4,172.6 L226.7,162.3 L228.4,156.3 L231.3,146.8 L231.9,145.3 L232.7,144.0 L233.8,142.5 L259.7,167.5 L262.6,166.6 L263.7,166.2 L265.4,164.6 L266.6,162.9 L267.3,161.3 L267.5,159.9 L267.4,157.9 L267.1,156.8 L266.6,155.6 L264.8,153.4 L275.0,121.6 L283.2,122.0 L284.3,121.9 L285.3,121.7 L286.4,121.4 L287.4,120.6 L288.2,119.8 L291.0,115.8 L270.7,194.1 L268.3,194.1 L266.3,194.4 L264.7,194.9 L263.9,195.4 L263.1,196.2 L262.5,197.3 L262.2,199.0 L262.2,200.7 L262.3,202.8 L262.7,205.2 L279.3,128.1 L282.1,128.8 L283.0,129.2 L283.8,129.7 L284.3,130.3 L284.7,131.2 L285.0,132.0 L285.5,133.4 L285.7,133.8 L286.1,134.2 L287.2,135.2 L288.8,136.2 L266.6,168.5 L265.4,176.3 L264.7,181.3 L264.7,182.7 L264.9,183.6 L265.2,184.3 L265.9,184.8 L266.8,185.2 L267.7,185.1 L268.6,184.9 L269.5,184.4 L270.2,183.4 L272.0,178.6 L273.7,174.4 L274.3,173.2 L274.9,172.1 L279.3,128.1 L275.7,139.2 L274.8,142.3 L274.6,144.2 L274.8,145.4 L275.3,146.5 L276.3,147.1 L277.2,147.4 L278.6,147.2 L279.8,146.6 L281.1,146.0 L282.1,145.6 L283.7,145.3 L285.1,145.5 L286.9,146.2 L288.4,147.2 L263.7,166.2 L266.6,168.5 L270.8,171.1 L271.8,171.5 L272.6,171.7 L274.9,172.1 L275.5,171.6 L276.2,171.1 L278.1,170.2 L281.3,168.8 L282.6,168.0 L283.4,167.2 L283.8,166.6 L283.9,165.9 L283.9,164.3 L283.5,159.9 L283.1,157.9 L282.5,156.5 L281.5,155.6 L280.1,154.8 L278.6,154.4 L276.8,154.4 L266.6,155.6 L273.5,123.5 L276.3,124.3 L277.1,124.5 L277.8,124.9 L278.3,125.4 L278.8,126.6 L279.3,128.1 L262.7,205.2 L260.9,207.6 L259.3,208.7 L258.7,209.0 L257.5,209.2 L256.7,209.3 L255.4,209.2 L254.3,208.8 L253.1,208.3 L252.4,207.3 L251.9,206.1 L251.7,204.4 L251.9,203.0 L252.5,201.4 L254.2,198.3 L254.9,196.1 L255.2,194.0 L256.3,187.1 L257.9,176.9 L259.3,169.5 L259.7,167.5 L260.5,165.3 L264.8,153.4 L272.0,126.3 L272.7,124.8 L273.5,123.5 L100.8,119.5 L98.0,118.8 L94.6,117.9 L92.0,116.9 L89.0,115.7 L86.4,114.2 L83.8,112.4 L81.6,110.6 L80.8,109.7 L80.0,108.5 L78.8,106.6 L77.8,104.0 L76.9,101.0 L75.3,94.1 L173.8,245.9 L178.8,245.0 L183.1,243.8 L188.0,241.7 L192.5,239.1 L196.2,236.7 L199.6,233.8 L203.1,230.1 L206.0,226.6 L208.4,222.5 L210.4,218.4 L213.5,209.5 L262.2,45.5 L263.2,41.8 L263.5,39.4 L263.5,37.5 L263.2,35.6 L262.6,33.8 L261.9,32.2 L260.8,30.5 L259.6,29.4 L258.4,28.4 L256.6,27.2 L255.1,26.6 L252.9,25.9 L247.5,24.8 L233.0,22.5 L131.1,108.1 L128.6,111.3 L126.9,113.1 L125.2,114.6 L123.4,116.1 L121.2,117.5 L118.4,118.6 L115.7,119.4 L113.5,119.8 L110.2,120.1 L107.4,120.1 L104.2,119.9 L100.8,119.5 L94.2,65.7 L96.9,67.0 L98.0,67.5 L99.1,67.8 L100.7,68.1 L102.4,68.3 L103.7,68.3 L105.1,68.1 L107.6,67.5 L109.8,66.6 L111.6,65.5 L113.2,64.1 L114.3,62.8 L115.1,61.6 L115.8,60.3 L116.3,59.3 L116.6,58.2 L116.8,56.7 L116.9,55.6 L116.9,54.6 L116.5,52.6 L115.9,50.7 L115.0,49.2 L113.6,47.5 L111.7,45.5 L105.2,39.7 L204.1,24.2 L202.2,25.1 L199.9,26.4 L197.5,27.9 L194.0,30.7 L190.7,33.7 L186.7,38.1 L181.0,45.0 L173.5,54.6 L161.1,70.4 L155.9,77.0 L148.2,86.7 L131.1,108.1 L213.5,209.5 L220.9,186.3 L225.2,172.9 L228.3,162.7 L230.1,156.7 L231.3,152.1 L233.8,142.5 L235.9,134.1 L246.8,96.4 L254.3,71.0 L262.2,45.5 L58.0,113.0 L67.4,146.3 L72.2,163.2 L73.4,167.4 L91.8,232.9 L93.3,236.5 L273.5,123.5 L275.0,121.6 L276.5,119.5 L277.8,118.5 L279.4,117.7 L281.2,117.0 L283.3,116.4 L285.6,116.0 L287.4,115.8 L291.0,115.8 L291.0,115.8 L293.7,115.9 L297.5,116.1 L300.6,116.4 L303.2,116.7 L304.6,117.2 L305.6,117.8 L306.4,118.6 L307.1,119.5 L307.5,120.6 L307.6,121.8 L307.4,123.2 L306.7,124.2 L305.6,125.3 L304.1,126.3 L299.4,129.2 L291.2,134.1 L290.3,134.7 L289.4,135.3 L288.8,136.2 L288.8,136.2 L288.2,137.6 L287.8,139.0 L287.6,140.2 L287.6,141.5 L288.4,147.2 L290.1,159.0 L291.0,164.1 L291.2,166.5 L291.0,167.6 L290.8,168.5 L290.1,169.3 L289.1,170.3 L286.8,171.8 L283.6,173.9 L282.4,175.0 L281.4,176.2 L280.0,178.0 L278.7,180.3 L273.9,189.3 L272.8,191.2 L99.0,245.4 L100.5,246.8 L102.4,248.2 L104.3,249.3 L106.7,250.2 L109.3,250.2 L111.5,249.8 L113.7,248.8 L115.3,247.7 L117.1,246.0 L124.1,239.2 L125.9,237.6 L127.1,236.7 L128.6,235.9 L129.9,235.5 L131.6,235.3 L72.1,76.0 L71.8,73.7 L71.7,71.8 L71.6,69.9 L71.6,67.9 L71.8,65.8 L72.0,64.6 L72.4,63.5 L73.0,62.5 L73.9,61.5 L75.2,60.6 L76.6,59.8 L77.9,59.3 L79.1,59.1 L80.8,58.9 L82.1,59.0 L83.3,59.3 L84.7,59.8 L86.4,60.6 L88.5,61.8 L89.9,62.6 L94.2,65.7 L272.8,191.2 L273.3,192.8 L273.2,193.3 L273.0,193.9 L265.6,205.0 L259.5,213.7 L259.0,214.4 L258.3,215.0 L257.7,215.4 L256.8,215.6 L255.8,215.6 L254.4,215.4 L252.7,215.2 L250.8,214.6 L249.0,213.8 L248.1,213.1 L247.2,212.0 L246.7,211.0 L246.3,209.8 L246.3,208.1 L247.3,201.8 L253.4,176.4 L255.1,171.7 L256.4,168.4 L131.6,235.3 L133.3,235.4 L135.1,235.8 L136.8,236.5 L138.9,237.5 L145.1,241.2 L147.6,242.7 L152.2,244.4 L157.9,245.8 L161.7,246.2 L166.2,246.4 L169.9,246.3 L173.8,245.9 Z" fill="none" stroke="#3b82f6" stroke-width="3.5" stroke-linecap="round" stroke-linejoin="round"/></svg>