<svg viewBox="0 0 400 300" xmlns="http://www.w3.org/2000/svg"><path d="M-3.2,201.5 L19.7,201.4 L49.1,201.4 L101.5,201.1 L155.2,201.0 L173.7,200.9 L177.3,200.6 L180.9,200.3 L185.3,199.4 L188.9,197.8 L192.6,195.1 L195.6,192.0 L197.6,188.7 L199.2,184.1 L200.0,179.0 L200.1,175.1 L199.6,167.0 L199.2,165.0 L198.8,162.5 L197.5,156.8 L193.7,138.5 L192.5,134.2 L191.6,128.2 L190.6,122.8 L190.0,119.0 L189.8,109.6 L189.8,92.7 L188.7,89.1 L187.1,87.1 L181.9,84.8 L173.4,84.7 L170.8,84.5 L166.6,83.4 L162.0,80.7 L157.6,77.9 L152.1,74.7 L149.9,73.7 L147.7,73.1 L145.9,72.7 L143.8,72.7 L141.3,72.8 L138.1,73.7 L135.7,74.6 L132.9,77.6 L131.2,79.8 L129.3,84.1 L125.7,91.6 L14.1,204.6 L119.8,204.1 L156.3,203.9 L159.9,203.9 L245.4,229.5 L243.8,241.2 L242.8,242.9 L240.3,245.1 L235.3,248.4 L232.9,249.1 L225.5,249.7 L108.6,250.1 L159.9,203.9 L169.8,205.0 L182.2,205.0 L187.0,204.0 L192.8,199.6 L197.5,193.0 L199.4,186.9 L200.0,179.0 L262.7,203.7 L260.7,205.8 L258.2,208.4 L255.6,210.5 L246.9,216.2 L245.9,219.5 L245.4,229.5 L216.2,78.4 L215.6,81.4 L214.4,83.1 L211.0,84.4 L201.6,84.6 L181.9,84.8 L236.1,253.0 L19.3,253.8 L-9.8,254.0 L249.2,243.0 L248.8,244.8 L247.9,246.7 L246.6,248.5 L244.9,250.0 L243.1,251.2 L241.5,252.0 L239.2,252.7 L236.1,253.0 L254.8,215.0 L253.8,216.7 L253.2,218.4 L252.6,220.6 L249.2,243.0 L259.6,185.7 L261.2,187.5 L262.5,189.2 L263.3,190.8 L263.9,192.3 L264.4,194.1 L264.6,196.2 L264.6,198.2 L264.2,200.3 L263.7,201.8 L262.7,203.7 L259.4,208.6 L257.9,210.6 L256.1,213.0 L254.8,215.0 L216.9,132.1 L229.0,157.4 L230.0,159.1 L231.1,160.4 L232.4,161.7 L259.6,185.7 L190.0,119.0 L195.4,118.4 L199.5,117.4 L202.1,116.8 L207.8,115.3 L216.0,113.0 L216.0,113.0 L215.7,115.5 L215.1,118.9 L214.7,120.7 L214.4,122.8 L214.5,124.9 L214.7,126.5 L215.1,128.0 L215.7,129.5 L216.9,132.1 L215.9,32.4 L216.2,78.4 L216.2,108.6 L216.1,110.7 L216.0,113.0 L203.4,20.9 L206.1,21.2 L208.3,21.8 L209.8,22.3 L211.5,23.0 L213.1,24.1 L214.2,25.4 L214.9,27.1 L215.4,28.7 L215.7,30.4 L215.9,32.4 L149.5,31.1 L167.7,22.6 L170.9,21.8 L174.2,21.5 L196.2,21.2 L203.4,20.9 Z" fill="none" stroke="#a855f7" stroke-width="3.5" stroke-linecap="round" stroke-linejoin="round"/></svg>