<svg id="Layer_1" data-name="Layer 1" xmlns="http://www.w3.org/2000/svg" viewBox="0 0 421 211">
<style>
                    path, polyline, polygon, line, circle {
                        stroke: #ffcc00 !important;
                        stroke-width: 3.5px !important;
                        fill: none !important;
                        stroke-linecap: round !important;
                        stroke-linejoin: round !important;
                        filter: drop-shadow(0px 0px 5px #ffe600) !important;
                    }
                </style>

<title>Silverstone_Circuit_2020</title>
<path d="M86.0 44.0 L85.0 48.0 L85.0 111.0 L86.0 115.0 L92.0 127.0 L99.0 134.0 L120.0 147.0 L126.0 147.0 L128.0 146.0 L132.0 140.0 L131.0 134.0 L128.0 131.0 L123.0 129.0 L114.0 128.0 L111.0 124.0 L111.0 117.0 L112.0 115.0 L184.0 47.0 L192.0 47.0 L200.0 49.0 L210.0 55.0 L210.0 57.0 L208.0 59.0 L201.0 61.0 L196.0 61.0 L193.0 62.0 L190.0 65.0 L191.0 70.0 L207.0 93.0 L209.0 99.0 L209.0 109.0 L205.0 123.0 L205.0 130.0 L207.0 134.0 L263.0 185.0 L272.0 185.0 L283.0 180.0 L287.0 176.0 L287.0 170.0 L283.0 165.0 L283.0 163.0 L299.0 152.0 L308.0 144.0 L319.0 138.0 L329.0 135.0 L332.0 133.0 L336.0 127.0 L336.0 118.0 L334.0 114.0 L327.0 107.0 L291.0 82.0 L241.0 50.0 L235.0 44.0 L228.0 30.0 L226.0 28.0 L221.0 26.0 L215.0 27.0 L205.0 33.0 L198.0 33.0 L183.0 26.0 L176.0 26.0 L166.0 31.0 L122.0 30.0 L114.0 31.0 L93.0 36.0 L89.0 39.0 L86.0 44.0" />
</svg>