<svg viewBox="0 0 400 300" xmlns="http://www.w3.org/2000/svg">
  <path d="M380.3,138.8 L379.7,134.9 L379.4,132.9 L378.4,126.6 L378.0,123.4 L376.9,116.2 L376.4,112.1 L375.1,102.3 L374.4,97.3 L373.8,92.2 L373.4,89.2 L372.9,84.6 L372.2,78.7 L371.3,70.6 L371.1,68.6 L370.0,62.2 L369.5,59.6 L368.5,56.3 L366.6,52.9 L363.1,49.9 L360.8,49.0 L358.8,48.6 L356.0,48.0 L353.4,47.4 L350.8,46.5 L348.4,45.0 L345.1,42.3 L343.2,40.7 L342.2,39.9 L340.8,38.8 L339.1,37.8 L337.2,37.2 L335.6,37.1 L334.3,37.3 L332.0,38.4 L330.5,39.9 L329.5,41.5 L328.3,44.7 L327.8,46.5 L327.4,48.9 L327.0,53.9 L327.0,55.2 L327.2,57.3 L328.1,63.2 L328.8,66.1 L329.9,69.4 L330.4,70.8 L331.8,74.4 L332.8,76.7 L334.6,81.0 L336.0,84.3 L337.8,88.9 L338.8,91.4 L340.8,96.8 L342.3,101.8 L343.2,105.6 L343.8,108.8 L344.3,112.3 L344.4,115.2 L344.4,120.1 L343.9,124.0 L343.2,126.2 L341.1,129.6 L339.5,131.0 L337.8,132.1 L334.2,133.5 L330.4,134.5 L327.9,134.9 L323.7,135.3 L320.2,135.5 L319.6,135.5 L315.8,135.4 L313.1,135.3 L309.4,134.9 L306.8,134.7 L303.0,134.3 L299.7,134.0 L292.4,133.4 L289.6,133.2 L271.2,131.7 L266.2,131.3 L258.3,130.7 L253.2,130.3 L244.3,129.6 L239.4,129.1 L234.9,128.5 L231.7,128.0 L226.4,126.9 L222.8,125.8 L217.8,123.9 L212.8,121.5 L207.5,118.6 L203.9,116.5 L198.4,113.2 L194.7,110.9 L191.3,108.9 L188.6,107.2 L182.8,103.6 L177.0,99.8 L172.6,97.0 L166.4,92.8 L164.3,91.4 L160.4,89.0 L156.4,87.2 L153.9,86.4 L151.4,85.9 L149.4,85.7 L146.4,86.1 L145.4,86.5 L141.5,89.3 L140.4,90.4 L138.9,92.2 L137.1,94.6 L135.2,97.3 L132.5,101.5 L130.3,105.9 L128.7,109.2 L127.4,112.1 L125.7,116.2 L124.9,118.1 L123.6,120.6 L122.2,122.9 L121.4,124.0 L119.0,125.9 L118.1,126.2 L115.8,126.0 L114.7,125.5 L113.2,124.5 L112.5,123.9 L111.8,123.2 L110.0,121.4 L108.8,120.0 L108.7,119.9 L105.8,116.1 L104.9,115.0 L102.3,111.6 L100.2,109.1 L97.5,106.2 L94.4,103.2 L91.3,100.9 L89.1,99.7 L86.2,98.6 L83.2,97.9 L82.1,97.9 L79.5,98.2 L77.5,98.9 L76.1,99.7 L74.6,100.6 L73.3,101.8 L70.9,104.5 L68.8,107.4 L67.6,109.3 L65.3,113.3 L63.0,117.7 L61.7,120.5 L59.7,124.7 L58.2,127.6 L56.2,131.6 L54.2,135.3 L53.3,136.8 L49.8,142.9 L48.0,145.9 L45.9,149.5 L42.7,155.1 L39.6,160.5 L37.8,163.7 L35.9,166.9 L34.7,168.8 L30.7,174.9 L28.3,178.9 L26.3,182.3 L26.1,183.0 L25.1,186.8 L25.1,188.5 L25.5,191.4 L25.9,192.6 L26.5,194.6 L27.3,196.3 L28.1,197.8 L30.1,200.5 L32.0,202.3 L33.5,203.4 L35.1,204.4 L38.0,205.7 L39.8,206.4 L40.8,206.8 L42.8,207.4 L46.3,209.0 L48.0,210.9 L49.3,213.7 L50.1,216.8 L50.5,218.9 L51.1,222.4 L52.1,227.9 L52.6,229.2 L54.0,231.6 L56.0,233.7 L58.9,236.1 L61.0,237.8 L65.0,241.1 L66.9,242.6 L69.9,245.3 L72.0,247.3 L73.4,248.8 L75.0,250.9 L76.9,253.6 L78.6,256.3 L79.8,258.0 L82.1,260.6 L83.0,261.3 L84.8,262.0 L85.1,262.1 L86.6,261.9 L87.9,261.1 L88.5,260.4 L89.2,259.4 L89.7,258.5 L90.3,256.9 L90.6,255.8 L90.9,254.6 L91.1,254.0 L91.4,252.4 L91.8,250.3 L92.0,248.7 L92.5,245.8 L92.8,243.4 L93.3,239.4 L93.8,235.4 L94.4,231.8 L95.1,227.6 L96.1,222.9 L96.6,220.1 L97.6,215.0 L98.2,211.7 L99.2,205.6 L99.4,204.6 L100.2,200.1 L100.8,196.9 L101.6,193.0 L102.5,188.2 L103.7,182.7 L104.5,178.6 L106.8,169.7 L108.7,163.6 L109.8,160.2 L111.0,156.8 L113.4,150.2 L114.1,148.4 L116.1,143.4 L118.1,139.5 L119.9,137.4 L121.5,136.5 L122.9,136.2 L124.8,136.2 L126.6,136.8 L128.8,137.9 L130.5,139.1 L132.2,140.3 L133.5,141.4 L134.9,142.5 L138.0,145.2 L140.3,147.2 L142.3,149.0 L144.7,151.3 L147.1,153.6 L151.5,157.3 L153.4,158.9 L157.2,162.1 L160.7,164.9 L164.1,167.4 L169.0,170.4 L173.1,172.4 L180.3,174.5 L186.1,175.3 L187.6,175.5 L191.3,175.7 L196.6,176.0 L203.1,176.4 L212.5,177.1 L216.1,177.3 L221.7,177.7 L226.1,178.0 L233.1,178.4 L241.7,178.9 L247.6,179.1 L251.0,179.3 L254.3,179.3 L263.2,179.5 L267.9,179.6 L271.4,179.7 L278.0,180.1 L281.8,180.3 L286.3,180.8 L288.9,181.4 L291.6,182.8 L293.2,184.8 L293.8,186.8 L294.3,188.8 L294.9,190.9 L295.4,192.2 L296.4,194.4 L297.2,195.8 L299.1,198.3 L300.2,199.4 L302.7,201.3 L306.3,202.9 L309.7,203.7 L311.7,204.1 L314.7,204.4 L316.9,204.5 L322.2,204.6 L325.0,204.7 L329.6,204.7 L334.6,204.8 L340.1,205.1 L342.7,205.2 L347.1,205.5 L350.6,205.7 L353.7,205.9 L355.4,206.0 L363.5,206.1 L368.1,205.3 L371.2,204.1 L371.9,203.6 L374.6,201.6 L378.3,197.1 L381.2,192.3 L382.0,190.6 L383.5,186.7 L384.2,184.2 L384.7,181.3 L385.1,177.3 L385.1,171.3 L384.6,166.0 L383.9,160.8 L382.7,153.3 L382.0,149.6 Z"
    fill="none"
    stroke="#FF6600"
    stroke-width="4"
    stroke-linecap="round"
    stroke-linejoin="round"/>
</svg>