<svg xmlns="http://w3.org" viewBox="0 0 800 600" width="100%" height="100%">
  <path d="M 734.71 245.81 L 748.64 352.23 L 750.00 366.01 L 748.64 372.81 L 744.88 378.74 L 727.63 405.09 L 724.53 409.39 L 721.26 410.97 L 717.13 411.46 L 707.66 410.97 L 663.96 408.58 L 596.58 401.39 L 588.03 399.16 L 582.65 395.89 L 578.40 391.26 L 574.86 382.01 L 574.37 372.86 L 574.65 367.42 L 572.90 364.59 L 563.49 363.94 L 553.75 363.72 L 504.06 360.89 L 364.13 353.43 L 347.21 351.42 L 335.34 348.20 L 323.15 342.16 L 273.52 298.56 L 252.29 280.43 L 248.76 277.60 L 243.69 276.78 L 237.38 277.93 L 232.65 281.08 L 229.54 284.13 L 220.56 311.46 L 215.83 331.93 L 203.97 393.88 L 179.53 518.54 L 178.17 521.15 L 176.37 523.44 L 173.00 525.89 L 168.97 526.81 L 164.02 526.71 L 161.73 525.78 L 156.02 518.54 L 150.30 510.43 L 146.06 501.23 L 141.49 496.71 L 119.93 479.45 L 109.21 469.55 L 102.52 463.07 L 98.38 457.24 L 94.19 443.04 L 94.79 436.39 L 95.99 431.33 L 98.93 425.45 L 97.40 421.75 L 91.96 419.90 L 81.95 416.47 L 73.35 410.97 L 62.79 403.57 L 54.63 396.38 L 51.69 390.34 L 50.33 381.85 L 50.00 374.39 L 58.27 360.29 L 91.63 300.57 L 134.57 223.43 L 142.19 209.50 L 149.32 202.91 L 152.26 200.52 L 162.06 198.56 L 170.71 203.89 L 181.65 211.51 L 226.66 258.71 L 230.69 260.78 L 234.01 259.96 L 237.11 254.08 L 254.85 219.35 L 278.58 179.18 L 282.93 172.70 L 287.12 171.17 L 294.69 174.55 L 299.04 177.11 L 425.31 250.16 L 445.93 258.06 L 460.25 260.72 L 638.32 271.23 L 645.23 269.87 L 654.21 265.68 L 661.62 260.45 L 666.35 251.80 L 667.55 243.58 L 666.19 224.03 L 661.07 197.47 L 645.61 154.57 L 641.42 145.42 L 638.59 137.86 L 637.07 128.60 L 637.07 116.74 L 639.68 90.33 L 644.20 79.94 L 650.40 73.68 L 655.63 73.19 L 660.36 74.44 L 665.59 80.48 L 668.42 84.18 L 671.14 87.94 L 676.04 92.08 L 687.30 97.63 L 696.77 100.24 L 708.64 99.10 L 714.73 101.55 L 717.84 105.90 L 719.63 112.87 L 724.42 171.45 L 734.71 245.81" fill="none" stroke="#e10600" stroke-width="4.5" stroke-linecap="round" stroke-linejoin="round" />
</svg>