<svg viewBox="0 0 400 300" xmlns="http://www.w3.org/2000/svg"><path d="M292.6,66.3 L297.1,68.3 L299.4,69.9 L306.3,76.1 L310.2,80.0 L313.0,83.3 L315.0,87.4 L315.6,90.4 L314.1,94.5 L312.4,96.8 L310.5,98.5 L307.4,100.3 L302.5,101.2 L297.0,101.4 L282.8,99.9 L267.8,97.5 L251.8,97.1 L241.0,98.0 L232.5,99.5 L216.5,102.5 L208.3,104.9 L201.8,108.1 L116.3,157.1 L112.3,159.9 L109.2,163.0 L107.5,166.2 L107.1,169.7 L108.5,174.9 L112.7,179.4 L117.9,182.2 L148.5,199.2 L152.4,200.9 L157.1,202.0 L162.3,202.6 L167.7,202.7 L174.5,202.2 L179.1,201.1 L185.1,199.0 L191.1,196.3 L196.9,192.6 L214.0,174.2 L238.1,149.0 L240.2,145.5 L240.9,142.0 L240.4,140.4 L238.8,139.1 L235.4,137.9 L232.0,137.3 L227.1,138.0 L223.1,139.5 L218.3,142.8 L213.7,146.8 L200.7,158.4 L197.1,162.1 L194.5,165.4 L189.8,172.8 L186.6,175.8 L183.0,178.2 L178.1,180.8 L172.1,182.5 L167.8,183.0 L163.0,182.8 L157.9,181.7 L154.1,180.5 L150.2,178.2 L147.7,175.8 L146.2,172.8 L145.7,169.6 L146.1,166.3 L147.5,163.3 L152.5,158.0 L157.1,154.4 L170.4,146.6 L211.4,125.7 L224.1,120.2 L231.0,117.6 L237.0,115.7 L243.3,114.5 L250.0,114.2 L257.1,114.7 L262.4,115.5 L267.5,117.7 L271.7,120.0 L274.5,122.5 L276.1,124.8 L277.3,128.0 L278.2,131.3 L277.8,134.9 L276.2,138.6 L240.5,177.6 L237.2,181.0 L235.2,184.2 L233.5,187.8 L232.9,190.4 L231.0,196.2 L229.5,199.1 L226.8,202.3 L224.3,204.5 L223.9,204.9 L218.7,207.6 L182.9,223.4 L177.3,225.3 L172.0,226.2 L168.3,226.3 L164.5,226.0 L161.4,225.4 L159.0,224.6 L110.2,199.5 L101.0,194.6 L96.9,193.5 L92.1,193.8 L82.8,197.8 L78.3,198.7 L74.7,198.3 L72.5,197.7 L69.0,195.3 L64.2,190.1 L62.8,183.4 L64.3,177.0 L66.1,172.3 L70.5,164.6 L73.4,161.6 L76.6,159.3 L83.4,154.2 L166.7,106.8 L183.3,97.5 L194.4,92.1 L221.1,80.6 L245.3,72.4 L260.3,67.3 L268.0,65.3 L273.5,64.3 L278.8,63.9 L283.0,64.0 L288.0,64.8 L292.6,66.3 Z" fill="none" stroke="#3b82f6" stroke-width="3.5" stroke-linecap="round" stroke-linejoin="round"/></svg>