<svg viewBox="0 0 400 300" xmlns="http://www.w3.org/2000/svg"><path d="M331.4,204.8 L330.5,205.5 L329.5,206.2 L328.7,206.5 L327.6,206.8 L326.1,207.4 L325.4,207.7 L324.8,208.0 L323.8,208.6 L322.9,209.4 L322.3,210.1 L321.9,210.8 L321.5,211.4 L321.4,212.0 L321.4,212.6 L321.5,213.1 L321.6,213.7 L322.0,214.9 L153.1,180.3 L153.7,180.6 L154.0,180.8 L155.0,181.6 L155.5,182.2 L155.9,182.6 L156.1,183.2 L156.2,183.6 L156.0,184.1 L155.8,184.4 L155.5,184.7 L155.1,184.9 L154.4,185.0 L153.7,185.1 L151.8,184.9 L149.7,184.5 L147.6,184.5 L146.1,184.6 L144.9,184.8 L142.7,185.2 L141.6,185.5 L140.8,186.0 L129.1,192.6 L128.6,193.0 L128.1,193.4 L127.9,193.9 L127.9,194.4 L128.1,195.1 L128.6,195.7 L129.3,196.1 L133.5,198.4 L134.0,198.6 L134.7,198.8 L135.4,198.8 L136.1,198.8 L137.0,198.8 L137.7,198.6 L138.5,198.3 L139.3,198.0 L140.1,197.5 L142.4,195.0 L145.7,191.5 L146.0,191.1 L146.1,190.6 L146.0,190.4 L145.8,190.2 L145.3,190.0 L144.9,189.9 L144.2,190.0 L143.6,190.3 L143.0,190.7 L142.4,191.2 L140.6,192.8 L140.1,193.3 L139.8,193.8 L139.1,194.8 L138.7,195.2 L138.2,195.5 L137.5,195.9 L136.7,196.1 L136.1,196.2 L135.5,196.1 L134.8,196.0 L134.3,195.8 L133.7,195.5 L133.4,195.2 L133.2,194.8 L133.1,194.3 L133.2,193.9 L133.4,193.5 L134.0,192.8 L134.7,192.3 L136.5,191.2 L142.1,188.4 L143.8,187.6 L144.7,187.3 L145.5,187.0 L146.4,186.9 L147.3,186.8 L148.3,186.9 L149.0,187.0 L149.7,187.3 L150.3,187.6 L150.6,187.9 L150.9,188.3 L151.0,188.7 L151.1,189.1 L151.1,189.6 L150.9,190.1 L146.0,195.4 L145.6,195.9 L145.3,196.3 L145.1,196.8 L145.0,197.2 L144.7,198.0 L144.5,198.4 L144.2,198.8 L143.8,199.1 L143.8,199.1 L143.0,199.5 L138.2,201.7 L137.4,201.9 L136.7,202.0 L136.2,202.1 L135.7,202.0 L135.2,201.9 L134.9,201.8 L128.3,198.4 L127.0,197.7 L126.5,197.6 L125.8,197.6 L124.6,198.2 L123.9,198.3 L123.5,198.3 L123.2,198.2 L122.7,197.8 L122.0,197.1 L121.8,196.2 L122.0,195.4 L122.3,194.7 L122.9,193.7 L123.3,193.3 L123.7,192.9 L124.6,192.2 L136.0,185.8 L138.2,184.5 L139.7,183.8 L143.4,182.2 L146.7,181.1 L148.7,180.4 L149.8,180.2 L150.5,180.0 L151.2,180.0 L151.8,180.0 L152.5,180.1 L153.1,180.3 L150.4,14.6 L145.5,9.2 L102.4,229.1 L101.0,228.5 L100.0,227.9 L98.2,226.6 L97.1,225.6 L96.1,224.4 L95.5,223.6 L95.0,222.8 L94.6,221.9 L94.4,221.0 L94.2,219.3 L94.4,217.8 L94.7,216.4 L95.3,215.2 L99.3,208.4 L217.2,176.2 L211.1,185.8 L196.7,208.3 L271.1,176.8 L270.6,175.2 L270.0,173.7 L269.1,172.4 L268.1,171.2 L266.6,170.0 L265.0,168.9 L263.7,168.2 L262.4,167.6 L260.2,166.8 L258.5,166.4 L256.7,166.1 L255.2,165.9 L245.1,165.4 L243.9,165.4 L242.2,165.3 L240.6,165.4 L238.1,165.6 L235.6,166.0 L233.7,166.3 L232.0,166.7 L229.8,167.4 L227.9,168.1 L226.3,168.8 L224.9,169.5 L223.2,170.5 L221.7,171.5 L219.9,173.0 L218.6,174.4 L217.2,176.2 L186.8,84.9 L185.9,77.9 L185.1,71.6 L184.9,70.1 L283.2,234.6 L285.1,233.9 L286.8,233.1 L287.7,232.5 L288.6,231.8 L289.3,231.0 L289.7,230.2 L290.0,229.3 L290.1,228.5 L290.0,227.7 L289.7,226.9 L288.7,225.1 L285.6,219.2 L282.4,212.7 L280.7,209.2 L279.8,207.1 L196.7,208.3 L196.1,209.4 L195.8,209.9 L195.1,210.9 L194.3,211.9 L193.5,212.7 L192.6,213.4 L191.1,214.3 L189.5,215.0 L188.0,215.5 L185.9,216.0 L183.8,216.3 L182.4,216.3 L180.9,216.3 L179.5,216.1 L177.8,215.9 L176.2,215.5 L174.5,214.9 L172.9,214.2 L170.5,213.3 L168.2,212.5 L166.9,212.3 L165.4,212.1 L163.5,212.0 L161.3,212.1 L159.2,212.4 L157.4,212.9 L155.6,213.4 L154.2,214.2 L152.8,215.0 L151.6,216.1 L171.7,13.3 L175.4,14.5 L179.5,16.1 L183.2,17.6 L188.1,19.9 L190.8,21.2 L193.1,22.5 L195.3,23.7 L198.5,25.6 L202.6,28.4 L215.1,37.7 L230.9,49.5 L233.0,51.1 L320.1,232.0 L317.1,233.3 L277.6,250.8 L277.6,250.8 L275.7,251.6 L274.4,252.0 L273.5,252.2 L272.1,252.3 L270.7,252.3 L269.4,252.3 L268.0,252.0 L266.5,251.6 L265.4,251.1 L264.4,250.5 L263.5,249.7 L262.7,249.0 L262.3,248.2 L262.0,247.4 L261.9,246.6 L262.0,245.7 L262.2,244.9 L262.6,244.1 L263.1,243.5 L263.8,242.8 L264.6,242.2 L265.2,241.8 L266.4,241.3 L267.8,240.7 L322.0,214.9 L325.3,223.4 L105.2,201.5 L107.4,199.3 L110.1,197.1 L113.0,195.0 L117.1,192.3 L121.4,189.5 L125.9,186.8 L127.8,185.6 L129.8,184.5 L132.1,183.4 L134.4,182.4 L137.4,181.1 L139.3,180.4 L141.0,179.8 L152.4,176.0 L151.6,216.1 L144.0,223.6 L140.6,227.0 L136.9,230.8 L133.6,234.1 L154.6,9.9 L156.0,9.9 L157.0,10.1 L158.3,10.5 L160.4,11.1 L164.4,12.3 L170.2,14.1 L173.8,15.3 L177.3,16.5 L180.0,17.7 L183.1,19.0 L185.9,20.4 L187.2,21.3 L188.3,21.9 L189.5,22.5 L191.0,23.0 L192.7,23.5 L193.8,24.1 L195.1,24.8 L197.5,26.1 L199.8,27.7 L202.2,29.4 L204.6,31.3 L209.6,34.9 L210.8,35.8 L227.6,48.6 L231.9,51.8 L233.3,52.8 L234.4,53.8 L235.2,54.4 L237.0,55.6 L238.0,56.1 L238.8,56.5 L240.5,57.6 L243.3,59.5 L245.1,60.7 L246.9,61.9 L251.8,65.2 L253.6,66.5 L254.5,67.3 L255.1,68.1 L255.6,68.8 L256.6,70.7 L257.0,71.6 L257.3,72.5 L257.3,73.1 L257.3,73.7 L257.3,74.9 L257.4,76.4 L257.4,77.2 L257.6,78.0 L257.9,78.9 L258.3,80.2 L259.0,81.3 L259.5,82.1 L260.1,82.8 L264.4,87.3 L268.9,91.7 L269.9,92.7 L271.2,93.6 L274.1,95.6 L278.4,98.5 L281.3,100.5 L283.4,102.1 L285.2,103.5 L287.2,105.4 L289.9,108.6 L292.5,112.6 L294.9,116.0 L246.0,58.3 L247.0,58.7 L248.5,59.3 L249.8,60.0 L250.9,60.6 L252.0,61.2 L253.0,62.1 L253.6,62.6 L254.4,63.4 L255.1,64.2 L255.9,65.1 L256.6,66.4 L257.6,68.1 L258.1,69.7 L258.5,71.0 L258.7,72.2 L259.1,73.8 L259.4,75.0 L259.6,75.8 L259.8,76.5 L260.3,77.4 L261.0,78.3 L261.5,78.9 L262.0,79.5 L263.7,81.3 L263.7,81.3 L268.3,85.8 L282.0,99.5 L285.1,102.4 L286.5,103.7 L287.6,104.8 L288.7,106.0 L289.6,107.0 L290.5,108.0 L291.4,109.3 L292.2,110.5 L293.6,112.8 L294.9,116.0 L298.7,124.5 L312.3,154.9 L329.6,193.7 L330.8,196.1 L331.7,198.2 L233.0,51.1 L236.3,53.7 L237.6,54.6 L238.1,54.9 L239.2,55.5 L241.9,56.7 L243.5,57.3 L246.0,58.3 L145.5,9.2 L144.2,7.6 L144.2,7.0 L144.5,6.5 L144.8,6.1 L145.3,5.8 L146.8,5.6 L148.3,6.0 L149.8,6.4 L149.8,6.4 L157.9,8.7 L166.0,11.2 L171.7,13.3 L325.3,223.4 L325.8,225.0 L326.0,226.0 L325.9,226.9 L325.7,227.4 L325.4,228.1 L325.1,228.6 L324.7,229.1 L324.2,229.7 L323.6,230.1 L323.1,230.5 L322.4,230.9 L320.1,232.0 L133.6,234.1 L132.7,235.0 L132.0,235.6 L130.6,236.5 L129.6,236.9 L128.6,237.3 L127.6,237.6 L126.5,237.8 L124.9,237.9 L123.4,237.9 L121.6,237.7 L119.8,237.1 L118.4,236.5 L118.4,236.5 L104.4,230.0 L102.4,229.1 L143.8,199.1 L143.7,199.4 L143.4,199.9 L142.7,200.8 L141.6,201.7 L140.7,202.2 L139.6,202.7 L138.4,203.0 L137.3,203.3 L136.6,203.4 L136.0,203.4 L135.4,203.4 L134.3,203.2 L133.2,202.9 L130.4,201.9 L129.5,201.7 L128.7,201.7 L127.4,201.8 L125.5,200.9 L124.4,200.4 L124.1,199.5 L124.1,198.9 L123.9,198.6 L123.5,198.3 L152.4,176.0 L163.9,172.2 L170.0,170.2 L172.8,169.2 L175.4,168.0 L177.7,167.0 L180.0,165.8 L183.1,163.9 L186.3,161.8 L188.1,160.3 L189.5,158.9 L190.8,157.7 L192.0,156.3 L194.5,153.1 L201.1,143.7 L204.6,138.7 L205.3,137.5 L206.1,136.1 L206.6,134.8 L206.9,133.7 L207.1,132.5 L207.1,131.5 L207.0,130.3 L206.7,128.8 L206.1,127.2 L205.0,125.2 L99.3,208.4 L100.8,206.2 L102.1,204.6 L103.8,202.8 L105.2,201.5 L205.0,125.2 L191.6,102.9 L190.2,99.7 L189.1,96.8 L188.6,94.9 L188.1,92.9 L187.4,89.5 L186.8,84.9 L190.1,68.2 L192.1,68.7 L194.0,68.9 L195.6,69.0 L196.5,69.0 L197.5,68.9 L198.2,68.7 L198.7,68.6 L199.1,68.4 L199.7,68.0 L200.1,67.6 L200.5,67.2 L200.8,66.6 L200.9,66.2 L200.8,65.5 L200.7,65.0 L200.4,64.5 L199.0,62.6 L197.7,60.9 L195.4,58.4 L192.7,55.4 L192.0,54.6 L191.3,54.0 L188.7,52.1 L186.1,50.3 L185.4,49.9 L184.5,49.2 L183.3,48.0 L182.2,46.7 L174.3,37.9 L154.6,15.6 L152.9,13.7 L152.2,12.8 L152.0,12.1 L152.1,11.5 L152.4,11.0 L152.9,10.5 L153.7,10.1 L154.6,9.9 L155.9,9.7 L157.2,9.7 L158.9,10.0 L160.5,10.4 L162.9,11.1 L165.4,11.9 L168.0,12.6 L171.7,13.3 L190.1,68.2 L193.4,68.3 L194.2,68.2 L195.1,68.0 L195.6,67.7 L196.1,67.3 L196.4,66.8 L196.5,66.3 L196.4,65.8 L196.2,65.4 L195.8,64.9 L193.8,63.1 L179.9,47.6 L168.4,34.8 L150.4,14.6 L184.9,70.1 L184.9,69.6 L185.1,69.2 L185.3,68.9 L185.6,68.6 L186.0,68.4 L186.6,68.1 L187.5,68.0 L188.4,68.0 L189.0,68.1 L190.1,68.2 L283.2,234.6 L284.2,233.6 L284.9,232.7 L285.5,231.7 L285.7,231.1 L285.7,230.5 L285.8,229.9 L285.7,229.3 L285.3,228.0 L282.5,218.2 L280.7,211.5 L279.8,207.1 L279.8,207.1 L279.2,205.5 L278.0,201.4 L273.9,187.5 L271.1,176.8 L267.8,240.7 L269.1,240.2 L277.2,237.0 L282.2,235.0 L283.2,234.6 L331.7,198.2 L332.5,199.9 L332.8,200.8 L332.9,201.4 L332.9,202.0 L332.8,202.5 L332.5,203.3 L332.1,204.1 L331.4,204.8 Z" fill="none" stroke="#22c55e" stroke-width="3.5" stroke-linecap="round" stroke-linejoin="round"/></svg>