<svg xmlns="http://w3.org" viewBox="0 0 800 600" width="100%" height="100%">
  <path d="M 338.83 103.02 L 311.33 54.96 L 311.03 52.80 L 312.25 50.89 L 314.80 50.00 L 317.63 50.78 L 326.68 55.34 L 348.65 65.89 L 359.22 72.39 L 370.21 80.53 L 380.07 88.78 L 387.89 97.31 L 429.89 147.39 L 432.84 150.19 L 437.91 153.35 L 446.96 159.20 L 450.93 163.14 L 454.28 168.48 L 456.43 173.33 L 457.86 178.78 L 459.08 188.84 L 459.78 192.40 L 461.00 195.69 L 463.34 200.01 L 484.09 233.21 L 497.30 254.30 L 500.96 262.17 L 503.29 268.03 L 506.04 277.44 L 522.62 335.29 L 548.04 423.13 L 553.93 444.25 L 554.24 447.68 L 553.62 451.48 L 551.60 454.53 L 548.64 457.09 L 544.88 459.11 L 542.65 461.27 L 541.12 463.80 L 539.90 467.63 L 540.10 471.44 L 545.19 494.20 L 545.09 498.14 L 544.28 501.70 L 541.53 505.63 L 538.27 508.30 L 480.32 548.35 L 476.67 549.89 L 473.01 550.00 L 469.14 548.87 L 465.98 546.57 L 463.75 543.28 L 462.84 539.97 L 462.63 536.41 L 463.75 533.09 L 465.77 529.66 L 468.73 527.26 L 494.05 511.62 L 496.80 508.82 L 498.31 506.01 L 498.93 502.72 L 498.62 498.65 L 488.14 467.88 L 484.89 455.31 L 477.47 416.52 L 473.81 394.27 L 473.01 390.47 L 471.17 386.40 L 468.73 383.08 L 465.07 379.52 L 461.00 376.85 L 456.53 375.07 L 451.84 374.32 L 436.69 373.29 L 430.90 373.94 L 425.61 375.45 L 420.24 377.74 L 415.86 380.68 L 410.77 385.37 L 407.52 390.07 L 403.97 396.81 L 389.62 432.68 L 376.81 464.59 L 374.06 469.55 L 370.81 472.97 L 366.35 475.51 L 361.86 476.78 L 357.71 476.91 L 353.53 476.02 L 349.98 474.38 L 344.07 470.55 L 340.20 468.90 L 335.53 468.15 L 330.86 468.66 L 326.58 470.03 L 322.92 472.60 L 320.59 475.51 L 317.73 479.45 L 294.25 516.31 L 291.92 518.47 L 289.06 520.01 L 285.61 520.76 L 281.75 520.52 L 278.40 518.98 L 262.52 507.41 L 253.18 500.56 L 250.84 497.52 L 248.40 493.82 L 246.98 490.26 L 245.96 486.05 L 245.76 481.74 L 246.46 476.53 L 248.09 472.08 L 250.22 466.37 L 253.39 457.71 L 258.87 447.92 L 264.88 439.40 L 274.02 429.12 L 289.27 414.23 L 298.22 407.25 L 305.85 402.80 L 345.10 382.33 L 350.78 378.77 L 356.18 374.56 L 361.16 369.87 L 365.42 364.77 L 369.39 359.43 L 374.68 349.67 L 378.96 340.25 L 388.71 318.52 L 390.43 313.80 L 391.46 308.72 L 391.65 302.36 L 390.64 296.64 L 384.85 281.75 L 378.54 265.36 L 370.92 244.89 L 368.98 237.28 L 367.16 228.25 L 366.04 219.86 L 365.32 212.74 L 363.08 179.81 L 363.50 177.65 L 364.82 176.11 L 366.85 175.60 L 370.30 176.11 L 373.87 176.11 L 376.31 175.60 L 377.93 173.82 L 378.34 171.80 L 377.33 169.13 L 364.82 148.66 L 338.83 103.02" fill="none" stroke="#3b82f6" stroke-width="4.5" stroke-linecap="round" stroke-linejoin="round" />
</svg>