<svg id="Layer_1" data-name="Layer 1" xmlns="http://www.w3.org/2000/svg" viewBox="0 0 421 211">
<style>
                    path, polyline, polygon, line, circle {
                        stroke: #06b6d4 !important;
                        stroke-width: 3.5px !important;
                        fill: none !important;
                        stroke-linecap: round !important;
                        stroke-linejoin: round !important;
                        filter: drop-shadow(0px 0px 5px #0ea5e9) !important;
                    }
                </style>

<title>spa-francorchamps</title>
<path d="M340.5 60.5 L313.5 29.5 L306.5 28.5 L295.5 33.5 L292.5 33.5 L285.5 26.5 L282.5 25.5 L254.5 35.5 L221.5 49.5 L188.5 60.5 L172.5 70.5 L152.5 86.5 L148.5 88.5 L138.5 90.5 L131.5 96.5 L126.5 105.5 L96.5 135.5 L85.5 155.5 L80.5 171.5 L83.5 172.5 L125.5 145.5 L140.5 133.5 L143.5 132.5 L145.5 135.5 L144.5 138.5 L145.5 140.5 L151.5 140.5 L184.5 132.5 L206.5 120.5 L214.5 118.5 L234.5 123.5 L248.5 130.5 L259.5 142.5 L271.5 161.5 L280.5 170.5 L289.5 177.5 L304.5 184.5 L308.5 185.5 L320.5 185.5 L326.5 180.5 L334.5 167.5 L333.5 160.5 L328.5 156.5 L309.5 147.5 L305.5 143.5 L304.5 136.5 L307.5 130.5 L307.5 124.5 L303.5 119.5 L276.5 110.5 L264.5 108.5 L254.5 103.5 L249.5 97.5 L247.5 88.5 L247.5 82.5 L248.5 77.5 L255.5 71.5 L288.5 63.5 L308.5 55.5 L310.5 53.5 L316.5 53.5 L325.5 65.5 L331.5 70.5 L336.5 70.5 L340.5 67.5 L340.5 60.5" />
</svg>