<svg viewBox="0 0 400 300" xmlns="http://www.w3.org/2000/svg"><path d="M171.1,167.2 L176.7,170.5 L187.3,176.2 L189.6,177.2 L191.2,177.4 L192.5,177.2 L193.7,176.8 L194.4,176.1 L195.1,174.7 L194.9,170.2 L194.4,166.8 L193.9,165.4 L192.7,162.6 L181.5,140.9 L168.7,116.0 L154.2,88.6 L293.7,122.2 L297.6,122.9 L302.0,124.0 L304.2,125.0 L306.3,126.1 L308.9,127.7 L311.2,129.6 L313.6,132.0 L315.3,134.5 L316.7,137.3 L317.4,139.4 L317.9,142.1 L318.0,144.5 L317.9,146.8 L317.6,149.2 L317.2,151.6 L316.6,153.7 L315.8,155.5 L314.4,157.8 L312.7,160.2 L310.5,162.6 L307.9,164.9 L303.5,167.8 L47.5,132.1 L51.1,127.0 L54.1,124.2 L56.8,122.3 L60.2,120.5 L64.1,119.0 L69.6,117.8 L74.6,117.4 L80.9,117.7 L87.1,118.1 L200.8,32.3 L187.4,40.3 L184.2,43.0 L182.1,45.5 L180.9,47.3 L180.0,49.2 L179.4,50.9 L179.0,52.5 L178.7,54.0 L178.8,56.5 L180.6,84.9 L180.9,86.9 L181.1,88.2 L181.4,89.6 L182.0,91.6 L182.6,93.2 L183.7,95.5 L184.7,97.3 L186.1,99.2 L187.6,101.1 L189.6,103.1 L191.7,104.8 L194.0,106.6 L196.6,108.1 L199.6,109.6 L202.6,110.8 L205.9,111.8 L209.2,112.6 L214.7,113.3 L219.2,113.9 L293.7,122.2 L303.5,167.8 L259.6,195.8 L236.4,210.9 L216.2,224.3 L216.2,224.3 L189.2,241.6 L162.2,259.2 L156.7,262.6 L154.0,263.6 L151.9,264.0 L149.3,263.8 L146.9,263.2 L144.7,262.0 L143.3,260.7 L142.0,258.9 L141.6,257.0 L142.0,254.5 L142.9,252.4 L142.9,252.4 L168.7,211.7 L169.8,209.4 L170.6,206.8 L171.2,204.3 L171.4,201.6 L171.2,198.9 L170.9,196.6 L170.2,194.4 L169.0,192.0 L167.4,189.3 L165.9,187.2 L164.4,185.6 L129.6,149.9 L129.6,149.9 L126.8,147.7 L124.2,146.1 L120.7,144.6 L116.9,143.5 L113.2,142.9 L109.4,142.6 L105.7,142.9 L101.4,143.7 L98.1,144.6 L95.9,145.4 L93.3,146.6 L89.4,148.9 L86.5,150.9 L83.6,153.6 L81.4,156.1 L79.2,159.3 L79.2,159.3 L77.7,162.1 L60.1,202.2 L60.1,202.2 L58.4,205.3 L57.6,206.5 L56.5,207.6 L55.0,208.6 L53.4,209.5 L51.6,210.1 L49.8,210.5 L47.5,210.7 L44.9,210.6 L42.6,210.2 L42.6,210.2 L40.0,209.2 L20.0,197.5 L20.0,197.5 L17.0,195.4 L15.3,193.7 L14.6,192.4 L14.0,190.7 L13.9,188.2 L14.4,186.2 L15.5,184.3 L15.5,184.3 L47.5,132.1 L47.5,132.1 L48.6,130.9 L49.8,130.2 L51.7,130.0 L54.0,130.4 L56.6,131.5 L59.0,132.5 L60.7,132.9 L62.8,133.1 L64.2,132.9 L65.9,132.4 L67.3,131.6 L69.0,130.2 L81.3,120.1 L82.5,119.2 L83.9,118.7 L85.4,118.3 L87.1,118.1 L87.1,118.1 L117.2,120.3 L117.2,120.3 L119.8,120.6 L122.2,121.2 L124.5,122.1 L127.2,123.8 L127.2,123.8 L171.1,167.2 L184.6,180.5 L184.6,180.5 L186.9,182.6 L188.4,183.4 L189.8,184.0 L191.4,184.4 L193.1,184.6 L195.3,184.5 L197.8,183.9 L199.4,183.4 L201.0,182.3 L202.6,180.7 L203.3,179.0 L203.7,177.1 L203.7,175.2 L203.1,173.4 L202.3,171.7 L202.3,171.7 L159.4,89.8 L282.6,143.0 L269.9,133.1 L268.6,131.7 L268.3,130.9 L268.4,130.6 L268.5,130.3 L269.0,130.0 L270.0,129.7 L272.4,129.7 L273.7,129.8 L274.3,130.3 L274.6,131.4 L275.6,133.5 L276.0,133.9 L277.0,134.1 L279.0,134.4 L284.3,134.7 L285.4,134.6 L285.8,134.3 L285.9,134.0 L285.8,133.3 L285.2,133.1 L280.3,131.7 L279.5,131.3 L279.4,131.0 L279.3,130.5 L279.4,130.1 L279.9,129.9 L280.5,129.8 L283.4,130.1 L288.2,131.1 L290.4,131.8 L291.3,132.3 L291.7,132.8 L291.8,133.2 L291.8,133.9 L291.8,134.7 L291.7,135.9 L291.8,136.6 L292.4,137.9 L293.8,141.0 L295.9,142.7 L297.1,143.4 L298.2,144.0 L299.0,144.1 L300.3,143.7 L301.2,143.2 L301.8,142.3 L301.8,141.5 L301.1,140.6 L299.6,139.6 L296.3,137.5 L295.5,136.8 L295.3,136.0 L295.5,135.2 L296.1,134.8 L296.8,134.5 L297.9,134.4 L298.8,134.8 L302.7,138.1 L304.6,140.6 L305.0,141.9 L305.1,142.6 L304.7,143.9 L304.0,144.8 L302.7,145.9 L301.1,146.4 L299.3,146.6 L297.5,146.6 L296.6,146.0 L295.5,144.8 L286.6,137.6 L285.1,136.9 L283.8,136.9 L282.5,137.3 L281.9,137.8 L281.5,138.4 L281.6,139.3 L282.3,140.0 L283.6,140.4 L286.4,140.9 L287.1,141.1 L287.6,141.4 L287.7,141.9 L287.8,142.7 L289.0,144.8 L290.4,146.4 L292.6,147.9 L294.1,149.0 L294.9,149.1 L295.4,149.0 L296.7,148.7 L299.0,148.6 L300.0,149.1 L300.3,149.6 L300.6,150.4 L300.4,151.1 L299.8,152.2 L299.1,152.7 L298.0,153.1 L296.7,153.0 L295.4,152.7 L294.4,152.1 L282.6,143.0 Z" fill="none" stroke="#f97316" stroke-width="3.5" stroke-linecap="round" stroke-linejoin="round"/></svg>