<svg viewBox="0 0 400 300" xmlns="http://www.w3.org/2000/svg"><path d="M164.8,168.9 L101.3,119.4 L94.6,112.2 L93.2,108.5 L93.7,106.6 L94.0,105.2 L96.7,103.8 L101.6,102.1 L113.5,102.1 L120.2,103.0 L123.3,105.4 L124.6,110.6 L129.6,121.2 L131.8,123.3 L136.7,124.3 L146.6,125.8 L173.5,127.4 L178.8,126.7 L180.7,125.5 L181.4,123.9 L180.7,120.6 L177.8,119.2 L153.1,112.1 L149.3,110.3 L148.5,108.6 L148.4,106.4 L149.0,104.4 L151.3,103.2 L154.3,102.8 L168.9,104.5 L192.7,109.3 L203.7,112.8 L208.4,115.5 L210.2,117.8 L210.8,120.0 L210.9,123.3 L210.8,127.2 L210.5,133.2 L210.9,137.1 L213.7,143.4 L220.9,158.7 L231.5,167.7 L237.3,171.0 L242.8,174.1 L247.2,174.3 L253.5,172.5 L258.2,169.9 L261.1,165.4 L261.1,161.7 L257.6,156.8 L250.1,152.1 L233.5,141.3 L229.3,137.7 L228.4,133.7 L229.6,129.8 L232.5,127.7 L236.0,126.1 L241.6,126.0 L246.0,127.9 L265.5,144.4 L275.1,157.1 L277.3,163.4 L277.4,167.0 L275.4,173.5 L272.1,178.1 L265.5,183.7 L257.6,185.9 L248.3,187.0 L239.5,186.8 L234.8,184.1 L229.7,178.1 L185.1,141.7 L177.2,138.6 L171.0,138.6 L164.2,140.5 L161.1,143.1 L159.4,146.0 L159.9,150.5 L163.3,153.7 L170.0,156.1 L183.8,158.6 L187.6,159.3 L189.7,161.0 L190.6,163.5 L191.1,167.3 L197.0,178.0 L203.9,185.8 L215.0,193.6 L222.5,199.0 L226.3,199.7 L229.1,199.1 L235.3,197.6 L246.9,197.1 L251.9,199.4 L253.8,202.3 L254.8,206.3 L254.2,209.6 L251.1,215.1 L247.5,217.8 L242.2,219.8 L235.7,219.3 L229.1,217.4 L224.1,214.6 L164.8,168.9 Z" fill="none" stroke="#f97316" stroke-width="3.5" stroke-linecap="round" stroke-linejoin="round"/></svg>