<svg viewBox="0 0 400 300" xmlns="http://www.w3.org/2000/svg"><path d="M238.3,221.4 L169.3,189.5 L168.6,188.8 L168.2,188.0 L168.0,187.0 L168.1,186.0 L176.7,150.9 L185.7,114.0 L186.9,108.8 L187.9,104.1 L188.5,99.8 L188.7,98.6 L193.8,57.2 L194.0,56.3 L194.3,55.5 L194.8,54.8 L195.4,54.1 L196.1,53.5 L196.8,53.0 L197.6,52.6 L198.5,52.4 L199.4,52.2 L200.3,52.2 L201.4,52.3 L202.4,52.7 L203.4,53.2 L204.3,53.8 L205.0,54.6 L205.6,55.5 L206.0,56.5 L206.2,57.5 L206.3,58.6 L206.1,59.6 L205.3,65.0 L203.6,76.7 L199.6,103.4 L191.8,155.2 L190.7,162.6 L190.2,166.6 L190.4,169.4 L190.8,171.3 L191.7,173.5 L193.2,175.6 L214.5,196.9 L216.5,198.9 L217.6,199.6 L218.8,199.9 L220.1,199.9 L221.4,199.5 L222.6,198.8 L223.6,198.1 L224.3,196.9 L227.4,190.0 L227.9,187.7 L227.9,186.5 L227.9,185.4 L227.5,182.6 L226.5,180.2 L224.7,177.9 L222.2,176.0 L209.6,170.0 L207.7,168.2 L207.2,167.3 L206.7,166.4 L204.9,162.0 L204.7,160.5 L204.8,159.0 L208.8,128.5 L209.8,120.5 L210.1,119.6 L210.6,118.8 L211.1,118.0 L211.9,117.4 L212.7,116.9 L213.6,116.5 L214.5,116.3 L231.8,113.4 L234.0,113.3 L235.4,113.5 L236.3,113.7 L237.9,114.5 L239.4,115.7 L240.3,116.9 L241.0,118.3 L241.5,120.4 L241.3,122.5 L240.7,124.3 L239.6,125.8 L234.2,130.7 L232.6,132.5 L232.1,133.4 L231.6,134.3 L230.9,136.2 L230.4,138.5 L230.3,141.0 L230.7,144.2 L231.5,146.7 L232.4,148.6 L235.4,153.3 L236.8,155.5 L237.8,157.4 L238.6,160.1 L238.8,162.7 L239.5,181.7 L240.0,187.5 L240.2,189.3 L240.8,196.7 L241.4,207.0 L242.1,218.0 L242.2,219.5 L242.0,220.3 L241.5,221.0 L240.8,221.5 L239.9,221.8 L239.1,221.7 L238.3,221.4 L149.2,262.9 L161.5,213.1 L166.2,193.7 L167.2,189.7 L168.1,186.0 L212.0,101.1 L213.7,70.6 L214.2,63.6 L220.4,34.2 L208.2,33.8 L194.7,33.4 L187.9,34.6 L188.4,39.3 L187.3,39.6 L183.7,70.9 L180.3,105.9 L161.3,100.4 L155.8,167.4 L110.5,164.4 L110.4,165.1 L108.7,175.3 L98.4,177.9 L103.3,197.2 L114.1,200.8 L120.1,213.3 L133.7,223.4 L144.4,235.0 L126.7,267.6 L161.1,278.2 L167.7,263.7 L173.8,261.8 L188.2,251.0 L216.8,239.8 L249.5,236.8 L251.9,219.0 L249.8,197.0 L250.6,185.7 L254.8,163.2 L254.9,143.4 L256.3,117.4 L271.3,114.6 L270.9,105.2 L270.5,99.2 L273.0,90.3 L264.4,85.0 L260.6,86.3 L257.8,87.5 L256.1,101.2 L212.0,101.1 L259.6,100.2 L258.6,100.2 L257.8,99.9 L257.5,99.1 L257.6,98.0 L258.8,90.2 L259.1,89.6 L259.8,89.0 L263.5,87.7 L264.6,87.8 L265.7,88.1 L266.7,88.7 L267.9,89.6 L268.9,90.6 L269.4,91.6 L269.4,92.5 L269.3,93.4 L267.3,102.9 L266.8,104.0 L266.1,104.6 L265.2,104.9 L264.2,104.9 L242.8,104.8 L242.3,104.5 L242.1,103.9 L242.1,103.3 L242.4,102.8 L242.9,102.6 L243.5,102.5 L262.3,102.7 L263.0,102.4 L263.9,101.9 L264.8,101.1 L265.5,100.1 L265.9,99.2 L266.1,98.3 L266.9,92.5 L266.7,91.8 L266.2,91.3 L265.4,91.1 L264.8,91.1 L262.0,91.5 L261.6,91.9 L261.4,92.6 L261.4,93.4 L261.7,94.1 L263.4,97.1 L263.5,97.9 L263.3,98.6 L262.9,99.3 L262.3,99.6 L259.6,100.2 L146.2,172.9 L153.5,173.5 L154.3,173.9 L154.8,174.6 L154.5,175.5 L154.1,176.5 L151.1,182.2 L147.1,187.4 L142.2,192.2 L136.5,196.5 L135.6,197.1 L134.4,197.7 L133.1,197.6 L132.0,196.9 L131.3,196.1 L131.1,195.2 L129.9,191.1 L126.1,178.5 L125.5,175.9 L125.6,174.4 L126.4,172.9 L127.8,171.8 L129.5,171.4 L131.3,171.4 L131.9,171.4 L146.2,172.9 L144.3,173.0 L146.2,172.9 L148.3,173.3 L150.1,174.5 L151.4,176.2 L152.0,178.1 L151.9,180.2 L151.1,182.2 L149.7,183.7 L147.8,184.7 L145.6,185.0 L143.5,184.6 L141.8,183.6 L140.5,182.2 L139.8,180.4 L139.6,178.5 L140.0,176.7 L141.0,175.1 L142.5,173.8 L144.3,173.0 L141.0,175.1 L139.4,175.8 L138.2,176.1 L136.8,176.0 L135.5,175.6 L134.5,175.0 L133.8,174.2 L133.1,173.0 L132.6,172.4 L131.9,171.4 L133.8,174.2 L134.5,181.6 L135.6,188.8 L135.9,190.3 L136.5,196.5 L129.9,191.1 L131.0,191.8 L132.0,192.2 L133.1,192.1 L134.1,191.8 L134.8,191.3 L135.3,190.8 L135.9,190.3 L126.1,178.5 L134.5,181.6 L142.0,184.3 L135.6,188.8 L136.1,187.3 L136.9,186.0 L137.9,185.0 L139.6,184.4 L140.5,184.2 L142.0,184.3 L143.5,184.6 L240.2,189.3 L241.4,192.7 L242.3,195.7 L242.5,198.6 L244.6,220.4 L244.4,223.2 L243.4,224.9 L242.1,225.8 L240.0,226.3 L238.7,226.3 L232.2,224.4 L230.9,223.9 L229.7,223.2 L227.9,221.6 L221.0,215.8 L217.5,213.7 L168.9,191.0 L167.9,190.3 L167.2,189.7 L166.5,188.6 L166.2,187.3 L166.1,185.8 L166.5,181.1 L167.0,178.4 L167.7,176.0 L173.0,160.6 L176.7,150.9 Z" fill="none" stroke="#f97316" stroke-width="3.5" stroke-linecap="round" stroke-linejoin="round"/></svg>