<svg viewBox="0 0 400 300" xmlns="http://www.w3.org/2000/svg"><path d="M236.0,223.3 L167.0,191.3 L166.3,190.6 L165.9,189.8 L165.8,188.8 L165.8,187.8 L174.4,152.7 L183.4,115.8 L184.7,110.6 L185.6,105.9 L186.3,101.6 L186.4,100.4 L191.5,59.0 L191.7,58.2 L192.1,57.4 L192.5,56.6 L193.1,55.9 L193.8,55.3 L194.5,54.8 L195.4,54.5 L196.2,54.2 L197.1,54.0 L198.0,54.0 L199.1,54.2 L200.2,54.5 L201.1,55.0 L202.0,55.7 L202.7,56.4 L203.3,57.3 L203.7,58.3 L204.0,59.4 L204.0,60.4 L203.9,61.5 L203.1,66.8 L201.3,78.5 L197.3,105.2 L189.5,157.1 L188.4,164.4 L188.0,168.4 L188.1,171.3 L188.5,173.1 L189.4,175.3 L190.9,177.4 L212.2,198.7 L214.2,200.8 L215.3,201.5 L216.6,201.8 L217.9,201.7 L219.1,201.3 L220.4,200.7 L221.3,199.9 L222.1,198.8 L225.2,191.9 L225.6,189.5 L225.6,188.3 L225.7,187.2 L225.2,184.4 L224.2,182.0 L222.4,179.7 L220.0,177.8 L207.3,171.8 L205.5,170.0 L205.0,169.1 L204.5,168.2 L202.6,163.9 L202.5,162.3 L202.5,160.9 L206.5,130.3 L207.5,122.4 L207.8,121.5 L208.3,120.6 L208.9,119.9 L209.6,119.2 L210.4,118.7 L211.3,118.4 L212.2,118.1 L229.5,115.3 L231.8,115.1 L233.1,115.4 L234.0,115.5 L235.7,116.4 L237.1,117.5 L238.0,118.7 L238.7,120.1 L239.2,122.2 L239.0,124.4 L238.4,126.1 L237.3,127.7 L231.9,132.5 L230.4,134.3 L229.8,135.3 L229.3,136.2 L228.6,138.0 L228.1,140.3 L228.0,142.9 L228.4,146.0 L229.2,148.6 L230.1,150.4 L233.2,155.2 L234.6,157.4 L235.5,159.2 L236.3,162.0 L236.5,164.6 L237.2,183.5 L237.7,189.3 L237.9,191.2 L238.5,198.5 L239.1,208.9 L239.8,219.8 L239.9,221.3 L239.7,222.1 L239.2,222.8 L238.5,223.3 L237.7,223.6 L236.8,223.5 L236.0,223.3 L209.7,102.9 L211.5,72.4 L211.9,65.4 L218.1,36.1 L206.0,35.7 L192.4,35.2 L185.6,36.5 L186.1,41.2 L185.0,41.4 L181.4,72.8 L178.0,107.8 L159.0,102.2 L153.5,169.2 L108.2,166.2 L108.1,166.9 L106.4,177.1 L96.2,179.7 L101.0,199.0 L111.8,202.6 L117.8,215.1 L131.4,225.3 L142.1,236.9 L124.4,269.5 L158.8,280.0 L165.4,265.5 L171.5,263.6 L185.9,252.8 L214.5,241.7 L247.2,238.6 L249.7,220.8 L247.6,198.8 L248.3,187.6 L252.5,165.1 L252.6,145.3 L254.1,119.2 L269.0,116.4 L268.7,107.0 L268.2,101.0 L270.7,92.1 L262.1,86.8 L258.3,88.2 L255.5,89.3 L253.8,103.0 L209.7,102.9 L257.3,102.1 L256.3,102.1 L255.5,101.7 L255.2,100.9 L255.3,99.8 L256.5,92.0 L256.8,91.4 L257.5,90.8 L261.2,89.6 L262.3,89.7 L263.4,90.0 L264.5,90.5 L265.7,91.4 L266.6,92.4 L267.1,93.4 L267.1,94.4 L267.0,95.2 L265.0,104.7 L264.5,105.8 L263.8,106.4 L262.9,106.7 L261.9,106.7 L240.5,106.6 L240.1,106.3 L239.9,105.7 L239.8,105.1 L240.1,104.7 L240.6,104.4 L241.3,104.3 L260.0,104.5 L260.7,104.3 L261.6,103.8 L262.5,102.9 L263.2,102.0 L263.6,101.0 L263.9,100.1 L264.6,94.4 L264.4,93.6 L263.9,93.2 L263.1,93.0 L262.5,92.9 L259.8,93.3 L259.3,93.7 L259.1,94.4 L259.1,95.3 L259.4,95.9 L261.1,99.0 L261.2,99.7 L261.0,100.5 L260.6,101.1 L260.0,101.5 L257.3,102.1 L143.9,174.7 L151.2,175.4 L152.0,175.7 L152.5,176.4 L152.2,177.4 L151.8,178.3 L148.8,184.0 L144.8,189.2 L139.9,194.0 L134.2,198.3 L133.4,198.9 L132.1,199.5 L130.8,199.5 L129.7,198.8 L129.0,197.9 L128.8,197.0 L127.6,192.9 L123.8,180.3 L123.2,177.7 L123.3,176.2 L124.1,174.7 L125.6,173.6 L127.2,173.2 L129.0,173.2 L129.6,173.3 L143.9,174.7 L142.0,174.9 L143.9,174.7 L146.0,175.2 L147.8,176.3 L149.1,178.0 L149.8,180.0 L149.7,182.1 L148.8,184.0 L147.4,185.5 L145.5,186.5 L143.4,186.8 L141.2,186.4 L139.6,185.4 L138.3,184.0 L137.5,182.3 L137.3,180.4 L137.7,178.5 L138.7,176.9 L140.2,175.6 L142.0,174.9 L138.7,176.9 L137.1,177.7 L135.9,177.9 L134.5,177.8 L133.2,177.4 L132.2,176.9 L131.5,176.0 L130.8,174.8 L130.3,174.2 L129.6,173.3 L127.6,192.9 L128.7,193.7 L129.8,194.0 L130.8,194.0 L131.9,193.6 L132.5,193.2 L133.1,192.7 L133.6,192.1 L133.3,190.6 L133.8,189.2 L134.6,187.9 L135.6,186.9 L137.3,186.2 L138.3,186.1 L139.7,186.1 L141.2,186.4 L237.9,191.2 L239.1,194.5 L240.0,197.6 L240.3,200.5 L242.4,222.3 L242.1,225.1 L241.2,226.7 L239.8,227.6 L237.7,228.1 L236.4,228.1 L230.0,226.2 L228.6,225.8 L227.4,225.1 L225.7,223.4 L218.7,217.7 L215.2,215.6 L166.6,192.9 L165.6,192.2 L164.9,191.5 L164.3,190.4 L163.9,189.1 L163.9,187.6 L164.2,182.9 L164.7,180.2 L165.4,177.9 L170.7,162.4 L174.4,152.7 Z" fill="none" stroke="#f97316" stroke-width="3.5" stroke-linecap="round" stroke-linejoin="round"/></svg>