<svg viewBox="0 0 400 300" xmlns="http://www.w3.org/2000/svg">
  <path d="M58.4,198.0 L60.3,199.5 L62.0,200.8 L65.8,203.7 L69.2,206.2 L71.9,208.3 L74.0,209.9 L76.9,212.1 L81.2,215.4 L85.3,218.6 L89.3,221.7 L94.9,225.9 L96.9,227.5 L99.7,229.7 L105.2,233.8 L107.3,235.4 L110.2,237.7 L114.4,240.9 L118.1,243.7 L120.8,245.7 L124.5,248.6 L126.9,250.5 L129.0,252.2 L131.6,254.2 L134.1,256.0 L137.0,258.3 L139.5,260.3 L141.5,262.0 L143.4,263.6 L145.7,265.5 L147.5,266.9 L148.2,267.4 L150.2,268.4 L152.3,268.9 L153.5,268.9 L155.6,268.3 L156.8,267.2 L157.3,266.4 L157.7,264.8 L157.7,264.5 L157.7,263.3 L157.6,262.2 L157.4,261.1 L157.3,260.1 L156.9,257.8 L156.5,256.0 L156.1,254.6 L155.3,252.8 L155.0,252.2 L153.9,249.8 L153.2,248.3 L152.0,245.7 L151.6,244.7 L149.9,240.2 L148.9,237.0 L148.3,234.3 L148.1,230.3 L148.4,227.4 L148.9,224.8 L149.8,221.7 L151.8,217.5 L154.5,213.6 L156.2,211.7 L157.9,210.2 L159.7,208.7 L165.0,205.2 L168.8,203.2 L171.4,201.9 L173.7,200.6 L177.1,198.8 L180.3,196.6 L181.0,196.0 L185.8,192.3 L188.8,189.5 L191.3,185.7 L192.8,183.0 L194.5,180.1 L195.5,178.2 L198.7,173.8 L201.7,171.0 L207.1,168.3 L210.2,166.4 L212.7,163.6 L214.3,160.6 L215.2,158.5 L215.9,155.6 L216.5,153.3 L217.4,149.4 L218.3,147.2 L220.2,143.7 L221.0,142.6 L225.2,138.6 L229.9,135.7 L233.5,134.1 L237.0,133.4 L241.3,133.5 L244.9,134.5 L247.8,135.6 L250.0,136.6 L253.6,138.6 L254.5,139.1 L260.9,141.4 L263.9,141.8 L266.1,141.6 L268.9,140.4 L271.4,138.9 L274.0,137.0 L275.7,135.4 L277.2,133.5 L279.1,131.1 L280.4,129.7 L281.6,128.3 L283.5,126.2 L285.7,124.6 L289.4,123.2 L292.5,123.3 L293.2,123.4 L296.5,124.6 L298.5,125.9 L300.6,127.7 L300.9,127.9 L303.4,130.5 L304.9,131.4 L307.3,132.1 L309.8,132.3 L311.1,132.2 L313.5,131.9 L317.4,131.4 L319.7,130.9 L322.0,130.4 L325.4,129.5 L329.0,128.5 L334.8,126.8 L337.0,125.9 L339.5,124.8 L343.8,122.7 L346.9,120.6 L349.5,118.1 L351.5,116.0 L354.4,112.7 L355.7,111.1 L357.4,109.0 L361.4,104.1 L363.8,101.0 L366.0,98.4 L368.3,95.5 L370.1,93.4 L371.7,91.4 L374.0,88.5 L375.6,86.5 L378.2,83.4 L380.0,81.2 L382.7,77.9 L384.4,76.0 L386.5,73.6 L388.3,71.5 L389.2,70.2 L390.4,67.9 L390.6,67.4 L391.2,65.9 L391.3,64.2 L391.2,63.3 L390.7,62.4 L390.0,61.6 L389.2,61.1 L388.1,60.6 L387.2,60.4 L386.4,60.3 L385.7,60.3 L384.6,60.3 L383.2,60.5 L382.1,60.6 L381.5,60.7 L380.2,61.0 L377.7,61.7 L375.6,62.4 L374.1,62.9 L370.8,64.1 L369.5,64.6 L366.5,65.7 L364.4,66.5 L360.7,67.8 L354.8,69.9 L352.4,70.7 L348.4,72.1 L345.8,72.9 L343.4,73.7 L341.1,74.5 L337.2,75.6 L332.8,76.9 L330.0,77.7 L327.4,78.4 L324.8,79.2 L318.6,80.8 L315.9,81.5 L312.9,82.3 L306.5,83.9 L302.8,84.9 L297.8,86.1 L295.6,86.6 L293.0,87.2 L289.1,88.1 L283.2,89.4 L278.9,90.3 L277.0,90.7 L272.3,91.7 L268.5,92.4 L265.8,93.0 L261.0,93.9 L256.3,94.7 L249.0,96.0 L246.2,96.5 L242.1,97.2 L238.2,97.8 L235.1,98.3 L229.4,99.1 L225.9,99.5 L220.5,100.1 L213.4,100.9 L209.8,101.2 L206.2,101.6 L200.8,102.1 L197.2,102.4 L192.0,102.9 L190.2,103.1 L172.5,104.8 L168.1,105.3 L165.7,106.0 L163.9,106.9 L162.8,107.7 L162.1,108.5 L161.6,109.2 L161.3,110.3 L161.3,112.8 L161.8,114.6 L162.5,115.9 L163.0,116.9 L164.2,118.7 L165.7,120.5 L167.0,121.9 L167.8,122.6 L170.4,125.1 L171.6,126.2 L174.1,128.6 L176.9,131.5 L179.0,134.1 L180.1,135.8 L181.3,138.6 L181.8,141.1 L181.9,142.5 L181.7,143.7 L181.1,145.7 L180.4,146.8 L179.6,147.8 L178.8,148.6 L177.8,149.1 L176.6,149.5 L175.2,149.6 L173.6,149.7 L172.5,149.7 L170.7,149.4 L168.5,148.5 L166.8,147.6 L164.7,145.7 L162.4,143.0 L161.2,141.1 L159.6,138.1 L158.1,135.2 L156.9,133.1 L155.3,131.1 L154.3,130.1 L152.0,127.9 L150.7,126.8 L149.0,125.9 L146.9,125.1 L144.7,124.8 L143.4,124.9 L141.1,125.7 L139.4,127.0 L138.4,128.4 L138.2,129.6 L138.3,130.8 L138.5,131.6 L139.3,133.8 L140.0,135.0 L140.5,135.7 L141.5,137.2 L143.7,140.2 L146.0,143.1 L147.7,145.1 L148.7,146.4 L150.6,148.9 L151.2,149.8 L152.7,152.2 L153.6,154.1 L154.6,157.0 L155.6,160.6 L155.8,162.1 L156.0,165.2 L155.8,169.7 L154.8,173.9 L152.9,178.1 L149.3,182.7 L146.3,185.0 L144.2,186.0 L140.3,187.8 L136.5,189.0 L134.9,189.4 L130.5,189.6 L126.1,189.2 L122.4,188.4 L116.3,186.1 L111.6,183.4 L108.2,180.5 L104.7,176.1 L102.6,173.2 L101.2,170.5 L99.7,167.8 L98.1,165.1 L95.5,160.9 L92.5,157.2 L90.0,154.7 L87.8,153.0 L85.2,151.5 L83.3,150.7 L79.3,150.1 L75.6,150.4 L71.5,151.6 L68.9,152.8 L65.9,154.3 L64.5,154.9 L60.7,156.7 L58.0,158.0 L55.5,159.1 L54.7,159.4 L51.9,160.6 L48.5,161.9 L45.1,163.3 L42.2,164.5 L39.7,165.6 L37.5,166.7 L35.3,168.1 L34.0,169.2 L32.7,170.6 L31.6,172.6 L31.4,175.0 L31.6,176.0 L31.7,176.6 L32.3,177.8 L32.8,178.6 L34.0,180.1 L34.9,181.2 L35.1,181.4 L36.6,182.8 L38.5,184.3 L40.9,186.0 L42.1,186.8 L43.7,187.8 L45.6,189.0 L47.3,190.1 L49.0,191.1 L52.8,193.7 Z"
    fill="none"
    stroke="#FF6600"
    stroke-width="4"
    stroke-linecap="round"
    stroke-linejoin="round"/>
</svg>