<svg viewBox="0 0 400 300" xmlns="http://www.w3.org/2000/svg"><path d="M244.1,208.4 L252.2,202.6 L258.0,198.8 L263.1,196.7 L268.5,195.2 L274.1,195.1 L278.4,196.5 L281.6,198.7 L283.9,202.3 L284.6,206.1 L283.1,209.7 L280.9,212.4 L277.7,214.3 L274.1,215.6 L234.4,230.1 L230.5,230.5 L226.5,229.9 L223.7,228.2 L221.5,226.3 L71.6,80.0 L69.0,76.4 L68.2,73.2 L68.8,69.7 L70.1,67.0 L73.1,64.7 L77.6,63.2 L82.5,62.2 L88.5,61.6 L92.8,61.6 L98.8,62.2 L107.9,63.6 L116.4,65.5 L124.1,67.8 L131.5,71.2 L137.9,74.5 L143.5,78.7 L149.3,83.9 L153.7,89.1 L157.2,94.0 L159.8,99.8 L162.1,105.9 L162.8,112.4 L163.2,119.9 L162.5,138.1 L162.8,142.9 L164.0,146.8 L166.8,149.8 L170.7,152.0 L217.0,169.8 L221.5,170.3 L225.4,169.5 L228.6,167.7 L231.4,165.0 L232.9,161.4 L232.7,158.2 L231.0,155.0 L224.3,148.2 L220.3,145.9 L215.7,144.5 L210.0,143.7 L205.2,142.6 L201.6,140.7 L198.8,138.2 L187.2,127.5 L185.9,124.5 L185.5,121.2 L186.4,118.2 L189.4,115.8 L193.2,114.0 L197.7,113.4 L201.8,113.8 L206.3,115.1 L210.0,117.0 L213.2,119.3 L263.1,169.2 L264.4,171.6 L264.7,174.8 L263.6,177.7 L261.4,180.5 L258.2,182.3 L254.3,183.5 L250.7,184.2 L228.6,185.2 L223.9,186.2 L220.0,188.6 L218.1,191.9 L217.7,196.1 L218.9,199.5 L225.0,205.9 L228.2,208.4 L231.2,210.0 L234.2,210.5 L237.8,210.4 L240.8,209.8 L244.1,208.4 Z" fill="none" stroke="#f97316" stroke-width="3.5" stroke-linecap="round" stroke-linejoin="round"/></svg>