<svg viewBox="0 0 400 300" xmlns="http://www.w3.org/2000/svg"><path d="M7.4,285.8 L15.4,282.9 L22.9,277.9 L33.0,270.8 L144.2,212.1 L156.5,205.3 L162.5,201.9 L168.6,198.0 L185.5,188.2 L194.9,182.5 L197.2,180.8 L199.0,178.9 L200.6,176.9 L201.8,175.1 L202.7,173.2 L203.4,170.9 L203.8,168.7 L203.8,166.2 L203.3,164.0 L202.0,161.0 L195.3,152.3 L57.8,196.6 L59.8,199.7 L61.3,201.4 L63.9,202.7 L67.6,203.2 L71.6,202.5 L90.2,196.6 L94.2,196.3 L98.0,197.6 L100.0,199.5 L101.8,202.0 L101.7,204.2 L100.6,206.3 L98.5,208.5 L24.0,248.9 L20.4,250.0 L16.0,250.1 L12.1,249.1 L9.3,247.3 L7.7,245.3 L7.4,242.8 L10.7,228.2 L67.3,248.2 L128.1,215.7 L191.4,181.7 L194.6,179.4 L197.0,177.1 L198.6,174.9 L199.6,172.9 L200.4,170.6 L200.6,168.4 L200.6,166.4 L200.3,164.2 L199.4,161.5 L195.3,152.3 L162.5,88.3 L161.7,87.2 L160.8,86.1 L159.8,85.2 L158.1,84.4 L155.9,83.6 L153.9,83.2 L152.1,83.3 L150.2,83.6 L148.5,84.3 L146.8,85.2 L145.5,86.2 L144.3,87.8 L143.2,89.6 L136.6,121.4 L136.5,124.9 L138.0,127.7 L140.1,129.8 L168.6,156.4 L169.9,158.8 L170.2,161.3 L169.2,163.5 L167.6,165.2 L163.2,167.8 L136.6,182.1 L130.2,183.4 L125.8,183.2 L121.2,182.1 L118.0,180.1 L114.3,176.8 L112.2,170.9 L111.7,119.3 L111.1,116.4 L109.1,113.8 L105.9,112.1 L103.1,110.5 L101.2,110.0 L99.0,109.8 L97.3,109.9 L95.4,110.2 L92.0,111.3 L88.3,112.8 L10.2,154.9 L6.8,157.2 L3.8,160.6 L-21.0,194.1 L-21.3,198.5 L-20.6,202.7 L-18.2,206.1 L-15.3,208.6 L-11.8,210.4 L-7.0,211.7 L-3.2,211.6 L0.5,211.2 L3.8,209.8 L10.5,206.2 L17.0,202.7 L21.4,200.3 L31.5,195.0 L34.5,193.3 L296.6,134.4 L299.2,132.6 L301.0,131.4 L302.7,130.7 L304.4,130.2 L306.2,130.2 L307.6,130.6 L308.6,131.3 L309.3,132.5 L309.6,133.7 L309.1,134.8 L308.4,135.7 L307.3,136.3 L306.2,136.7 L293.5,141.4 L292.2,141.5 L291.0,141.3 L290.1,140.8 L289.4,140.2 L241.4,93.3 L240.5,92.2 L240.3,91.1 L240.5,90.0 L240.9,89.2 L241.8,88.4 L243.3,87.9 L244.8,87.6 L246.8,87.4 L248.1,87.4 L250.1,87.6 L253.0,88.1 L255.7,88.7 L258.2,89.4 L260.6,90.5 L262.6,91.6 L264.4,92.9 L266.3,94.6 L267.6,96.2 L268.8,97.8 L269.6,99.7 L270.3,101.6 L270.6,103.7 L270.7,106.1 L270.5,111.9 L270.6,113.5 L270.9,114.7 L271.8,115.7 L273.1,116.4 L287.9,122.1 L289.4,122.2 L290.6,122.0 L291.6,121.4 L292.5,120.5 L293.0,119.4 L292.9,118.4 L292.4,117.3 L290.2,115.2 L289.0,114.4 L287.5,114.0 L285.7,113.7 L284.1,113.4 L283.0,112.8 L282.1,112.0 L278.4,108.5 L278.0,107.6 L277.8,106.5 L278.1,105.5 L279.1,104.8 L280.3,104.2 L281.7,104.0 L283.1,104.1 L284.5,104.6 L285.7,105.2 L286.7,105.9 L302.7,121.9 L303.1,122.7 L303.2,123.7 L302.8,124.6 L302.1,125.5 L301.1,126.1 L299.8,126.5 L298.7,126.7 L291.6,127.0 L290.1,127.3 L288.9,128.1 L288.3,129.1 L288.2,130.5 L288.5,131.6 L290.5,133.6 L291.5,134.4 L292.5,134.9 L293.4,135.1 L294.6,135.1 L295.5,134.9 L296.6,134.4 L230.2,215.8 L228.4,215.6 L226.3,214.2 L224.0,213.6 L221.2,214.0 L219.2,215.3 L218.7,218.0 L219.0,221.0 L220.5,223.6 L222.5,225.9 L227.4,228.2 L229.3,228.5 L230.0,227.8 L228.5,220.7 L229.3,220.4 L235.9,220.1 L236.8,220.7 L234.5,228.1 L234.7,229.1 L235.4,229.4 L243.9,228.7 L250.7,227.8 L255.8,226.4 L258.1,225.7 L258.7,224.4 L258.1,223.7 L251.0,222.9 L249.9,223.1 L248.3,224.8 L241.6,225.3 L241.3,224.2 L242.8,221.3 L244.9,219.3 L260.7,218.9 L267.1,221.2 L269.1,221.3 L270.3,220.7 L270.8,219.1 L265.2,213.7 L230.2,215.8 L34.5,193.3 L38.3,189.8 L40.0,186.5 L45.3,165.7 L46.1,163.0 L47.9,160.5 L50.0,158.3 L52.8,156.4 L70.0,146.4 L74.2,145.5 L78.8,145.3 L79.9,145.6 L82.2,146.1 L85.0,147.8 L86.9,150.0 L88.2,152.5 L88.4,155.8 L87.1,159.0 L57.8,196.6 L36.7,223.8 L34.9,225.4 L32.3,226.5 L11.3,225.2 L9.8,225.1 L266.5,124.9 L256.2,115.1 L247.3,106.5 L244.0,103.4 L240.8,100.3 L237.8,97.4 L235.1,95.9 L231.4,95.6 L228.3,96.6 L225.6,97.9 L224.5,100.4 L224.8,103.8 L228.1,108.1 L229.4,109.8 L261.3,140.3 L266.0,144.7 L268.3,146.9 L270.4,148.7 L274.3,149.3 L279.4,148.9 L281.4,148.2 L283.4,147.5 L284.5,146.2 L284.7,144.5 L284.2,143.0 L282.3,140.4 L273.9,131.9 L271.0,129.2 L266.5,124.9 L281.4,148.2 L278.7,148.3 L276.6,147.5 L275.2,146.0 L275.3,144.0 L276.4,142.4 L278.6,141.4 L280.8,141.5 L282.7,141.9 L284.2,143.0 L275.2,146.0 L266.6,138.6 L265.3,137.5 L246.6,121.5 L236.7,112.9 L228.1,108.1 L233.7,104.7 L237.8,102.2 L240.8,100.3 L236.7,112.9 L235.2,111.3 L235.2,109.3 L236.1,107.6 L236.8,107.3 L238.1,106.8 L241.0,106.5 L243.1,107.5 L244.2,109.5 L243.6,111.5 L241.6,113.0 L239.2,113.3 L236.7,112.9 L244.2,109.5 L245.0,111.1 L245.7,112.7 L248.9,116.1 L252.2,119.8 L268.5,135.4 L269.4,136.2 L274.0,140.1 L278.6,141.4 L271.0,129.2 L271.4,131.9 L271.0,133.8 L270.7,135.0 L269.4,136.2 L266.6,138.6 L264.1,139.9 L261.3,140.3 L263.3,138.7 L265.3,137.5 L268.5,135.4 L271.0,133.8 L246.6,121.5 L246.7,119.2 L247.3,117.3 L248.9,116.1 L251.0,115.2 L253.8,114.9 L256.2,115.1 L237.8,102.2 L241.2,105.6 L243.1,107.5 L244.0,103.4 L243.1,104.7 L241.2,105.6 L247.3,106.5 L246.2,108.3 L245.7,109.0 L245.0,111.1 L236.8,107.3 L233.7,104.7 L88.4,155.8 L90.8,152.2 L90.8,148.8 L88.6,144.8 L86.1,141.8 L83.4,140.7 L79.2,140.1 L75.0,142.1 L70.0,146.4 Z" fill="none" stroke="#f97316" stroke-width="3.5" stroke-linecap="round" stroke-linejoin="round"/></svg>