<svg viewBox="0 0 400 300" xmlns="http://www.w3.org/2000/svg"><path d="M133.7,89.3 L134.0,86.1 L136.7,52.9 L138.1,36.4 L139.6,30.7 L140.8,24.9 L141.2,23.5 L141.7,22.5 L142.4,21.4 L143.2,20.4 L143.9,19.6 L144.6,19.0 L145.6,18.3 L146.7,17.6 L147.9,17.0 L149.2,16.4 L150.5,16.0 L152.0,15.7 L154.0,15.5 L155.8,15.4 L158.3,15.3 L161.1,15.4 L163.9,15.7 L170.4,16.6 L173.6,16.5 L227.7,234.9 L217.8,226.0 L201.8,210.7 L129.7,106.5 L131.9,103.6 L132.2,102.6 L132.4,101.6 L133.7,89.3 L272.0,218.7 L272.5,225.5 L272.0,230.3 L270.9,232.9 L269.1,235.3 L266.5,237.6 L263.4,239.9 L258.6,242.2 L254.0,243.1 L249.5,243.7 L245.2,243.4 L240.2,242.4 L235.4,240.5 L231.4,238.0 L227.7,234.9 L227.7,234.9 L225.6,231.1 L224.6,227.8 L222.3,219.5 L213.3,188.7 L211.0,181.0 L240.5,71.9 L246.1,75.3 L248.6,77.2 L251.6,79.6 L253.7,81.6 L255.8,83.9 L257.6,85.9 L259.4,88.3 L260.4,89.6 L261.4,91.2 L262.6,93.4 L263.5,95.2 L264.8,98.1 L265.4,99.7 L266.0,101.9 L266.7,105.3 L266.8,107.3 L266.9,109.1 L198.7,140.7 L198.0,138.7 L197.1,137.0 L195.7,135.3 L194.6,134.2 L193.2,133.1 L191.2,131.9 L188.9,130.8 L187.1,130.2 L184.8,129.7 L182.3,129.4 L177.9,129.2 L140.7,184.6 L140.5,182.3 L140.8,180.1 L142.3,177.9 L145.0,176.4 L147.8,175.4 L151.0,175.0 L154.4,175.3 L157.6,176.1 L162.0,177.7 L192.9,189.0 L195.5,189.8 L198.2,190.2 L200.1,190.1 L203.2,189.4 L205.7,188.3 L208.9,185.8 L210.4,183.3 L211.0,181.0 L211.0,181.0 L198.7,140.7 L162.0,177.7 L192.9,189.0 L173.0,220.1 L175.9,257.8 L149.4,258.9 L140.7,184.6 L266.9,109.1 L270.7,186.2 L177.9,129.2 L142.5,127.6 L140.1,127.4 L138.1,127.0 L136.3,126.2 L134.1,124.9 L132.0,123.1 L130.5,121.2 L129.6,119.5 L129.1,117.1 L129.2,110.7 L129.7,106.5 L136.9,23.2 L270.7,186.2 L272.0,218.7 L201.8,210.7 L199.7,208.7 L198.1,207.5 L196.3,206.8 L193.6,205.8 L190.7,205.2 L188.8,205.0 L186.5,205.1 L184.2,205.3 L181.7,205.8 L180.0,206.4 L178.0,207.5 L176.4,208.7 L175.2,210.1 L174.3,211.3 L173.7,213.1 L173.1,215.3 L172.9,217.9 L173.0,220.1 L270.7,186.2 L270.1,188.8 L269.4,190.1 L267.7,191.7 L265.8,193.0 L264.8,193.8 L264.2,194.8 L264.1,196.2 L264.1,199.1 L264.2,201.6 L264.2,203.8 L264.3,205.2 L264.8,206.3 L266.4,207.8 L269.1,210.0 L270.6,212.2 L271.1,214.1 L272.0,218.7 Z" fill="none" stroke="#a855f7" stroke-width="3.5" stroke-linecap="round" stroke-linejoin="round"/></svg>