<svg id="Layer_1" data-name="Layer 1" xmlns="http://www.w3.org/2000/svg" viewBox="0 0 327.975 694.986">
<style>
                    path, polyline, polygon, line, circle {
                        stroke: #3b82f6 !important;
                        stroke-width: 3.5px !important;
                        fill: none !important;
                        stroke-linecap: round !important;
                        stroke-linejoin: round !important;
                        filter: drop-shadow(0px 0px 5px #3b82f6) !important;
                    }
                </style><title>wec_le_mans_24h</title><path d="M445.23,710.02c.33-13.74-1.53-27.4-2.44-41.09-1.55-17.01-2.2-34.13-4.85-51.02-2.76-20.34-5.61-40.65-8.3-60.99-.43-4.3-1.65-9.24,1.42-12.87,3.5-4.81,7.33-10.92,4.85-17.03-3.33-7.01-11.62-9.56-15.63-16.09-.66-6.9-2.75-13.56-4.07-20.34q-15.99-72.225-31.97-144.45c-1.09-7.34-11.61-6.41-13.85-13.16-1.7-6.24,2.21-12.03,5.33-17.09,1.58-2.27,1.21-5.16.89-7.73-7.82-48.98-15.44-98-23.31-146.97-2.55-12.5-3.74-25.34-8.02-37.42-8.83-27.43-15.58-55.75-28.47-81.66-1.57-3.29-5.15-5.66-8.87-5.01-8.96,1.08-17.6,4.24-25.65,8.25-4.95,2.47-9.67,5.68-12.83,10.32.66.24,1.98.71,2.65.95l-2.93-.12c-.84,4.79-.84,9.68-1.55,14.49-.25,2.89-2.25,4.99-4.59,6.47-.54-.14-1.61-.42-2.14-.56a7.987,7.987,0,0,1-3.97-2.29,30.406,30.406,0,0,0-10.38-6.08c-4.11-.95-7.86,1.84-11.09,4-6.26,4.93-3.71,14.13-8.16,20.11-3.97-1.56-8.82-4.08-12.74-.96-3.87,1.96-3.89,6.71-6,9.95-1.85-.14-3.65-.64-5.5-.71-3.62,1.44-6.53,4.12-9.6,6.42-7.5,5.82-16.11,9.95-23.98,15.2-3.76,2.58-8.39,4.02-11.21,7.8-8.77,10.91-11.13,25.13-14.79,38.26-4.08,14.5-5.97,29.48-7.52,44.42-.17,2.34-.67,4.73-.17,7.06.66.55,1.99,1.65,2.66,2.2l.48-3.76c.44.08,1.33.23,1.78.3a278.359,278.359,0,0,1,10.19-57.93c.084.561.178,1.127.271,1.693.108-.3.215-.6.341-.912l0-.012a5.376,5.376,0,0,1,.809-2.566c.038-.089.061-.183.105-.269A18.588,18.588,0,0,0,153,155a5.693,5.693,0,0,1,.059-.655,14.341,14.341,0,0,1,.891-4.295c2.07-5.89,4.48-11.85,8.57-16.65,2.16-2.69,5.63-3.61,8.38-5.53,7.16-4.92,14.97-8.83,22.14-13.74,2.7-1.826,5.168-4.012,7.848-5.871a4.5,4.5,0,0,1,3.813-2.244c.144-.069.282-.149.429-.215-.063.07-.131.135-.195.2.022,0,.043,0,.065,0a4.663,4.663,0,0,1,3.317,1.241c1.83-.722,3.732-1.314,4.833-3.121,2.27-2.62,1.6-7.41,5.37-8.67,2.29-.13,4.34,1.38,6.55,1.85,3.27,1.07,6.61-1.3,8.1-4.1,2.07-4.22,2.06-9.06,3.5-13.47.96-3.34,4.47-4.86,7.41-6.04,1.39-.66,2.72.64,3.98,1.12,3.4,1.98,6.6,4.31,9.9,6.46a10.084,10.084,0,0,0,8.1.5c1.98-1.68,4.49-3.06,5.4-5.66,2.6-5.64,1.31-12.06,2.93-17.92,1.19-2.61,3.76-4.24,6.05-5.82a79.25,79.25,0,0,1,25.06-9.69c2.16-.33,5.22-1.21,6.38,1.34,12.47,24.61,18.94,51.63,27.34,77.79,1.89,6.36,4.21,12.63,5.14,19.23,5.2,27.55,9.17,55.31,13.65,82.99q6.72,42.42,13.43,84.86a6.4,6.4,0,0,1-.93,5.51c-4.02,6.21-7.82,14.21-4.51,21.55,2.34,5.38,8.38,7.04,12.75,10.25,10.73,46.83,20.82,93.84,31.31,140.74,1.65,8.05,3.93,15.99,4.83,24.18,1.78,5.63,6.93,9.21,11.38,12.7,2.27,1.87,5.18,3.95,5.22,7.21-.24,6.92-7.81,11.03-7.68,18.07.28,8.67,1.95,17.23,2.99,25.83,2.57,18.98,5.24,37.93,7.74,56.92,1.78,20.68,3.32,41.38,5.04,62.07.71,7.66.3,15.36.49,23.05a31.823,31.823,0,0,1-1.23,9.89c-11.05-.61-21.61-4.25-32.09-7.51-11.82-3.36-22.68-9.24-33.72-14.51a571.206,571.206,0,0,1-63.5-36.34c-29.67-20.07-56.88-43.56-82.88-68.14-1.46-1.63-3.99-2.77-4.19-5.18-.77-6.93-1.34-13.89-2.04-20.83-11.48.75-22.96,1.58-34.45,2.24-1.91-20.05-3.65-40.26-8.79-59.79-4.63-11.64-10.39-23.01-18.25-32.82-5.25-6.59-15.16-6.01-20.43-12.51-4.13-4.72-2.89-12-.07-17.09,3.26-5.44,7.23-10.74,12.69-14.16a47.164,47.164,0,0,0,13.45-12.65c1.79-2.52,1.33-5.77,1.04-8.65-.47-3.6-.73-7.27-1.86-10.73-1.88-4.98-5.99-8.6-9.76-12.15-4.22-3.83-7.93-8.22-12.59-11.56-3.04-1.99-4.32-5.96-3.86-9.44,1.54-3.09,4.12-5.52,6.66-7.8,2.09-1.88,4.77-3.54,5.51-6.45.67-3.23.45-6.56.5-9.84.08-15.65.28-31.3.38-46.94a75.962,75.962,0,0,1,.58-11.97c.247-1.422.509-2.842.767-4.262a45.786,45.786,0,0,0-.758-6.449,6.2,6.2,0,0,1-.108-1.062q-.319,1.864-.621,3.733c.03-3.23.14-6.54-.85-9.65-.77-2.54-3.09-4.06-4.98-5.71,1.79-2.54,2.63-5.56.92-8.38-1.71-1.3-3.51-2.45-5.27-3.67-1.06-1.19-2.23-2.56-1.91-4.28.65-7.78.75-15.61,1.63-23.37l.57-.94-2.58.2c.01-.9.01-2.69.02-3.59-.7-.12-2.09-.35-2.79-.47-.1.82-.31,2.46-.41,3.28-.79,8.5-1.01,17.05-1.74,25.56-.36,5.15,4.63,8.03,8.24,10.63-1.19,1.97-3.09,4.08-2.26,6.58.75,2.65,3.86,3.33,5.44,5.35,1.08,3.35.97,6.95,1.05,10.43-.15,23.34-.47,46.67-.55,70.01-.19,1.57.25,3.6-1.22,4.68-4.18,3.8-9.01,7.45-11.17,12.85a15.191,15.191,0,0,0,4.02,13.78c6.63,5,12.2,11.21,18.26,16.85,5.46,5,5.47,13.04,5.68,19.87-3.75,6.68-10.69,10.48-16.58,14.99-6.91,6.89-13.84,15.57-13.26,25.91-.07,5.06,2.8,9.64,6.66,12.72,4.58,4.03,11.08,4.54,15.91,8.15,2.42,1.97,4.09,4.67,5.86,7.22a133.815,133.815,0,0,1,13.18,25.77c5.29,20.72,6.93,42.12,8.89,63.35,11.52-.57,23.01-1.58,34.53-2.17.6,5.68.93,11.39,1.71,17.05.66,3.65,4.21,5.56,6.61,8.02a725.521,725.521,0,0,0,57.39,49.58c29.68,23.29,62.65,42.06,96.54,58.49,8.07,3.77,16.07,7.86,24.64,10.44,10.35,3.29,20.75,6.71,31.54,8.22,2.89.14,6.83,1,8.71-1.88C446.31,723.84,445.04,716.64,445.23,710.02Z" transform="translate(-117.333 -36.992)"/><rect x="134.818" y="209.14" width="4.837" height="36.333" transform="translate(-97.567 -47.81) rotate(4.864)"/><polygon points="2.333 185.674 0 185.674 0 185.674 2.333 185.674 2.333 185.674"/></svg>