<svg id="Layer_1" data-name="Layer 1" xmlns="http://www.w3.org/2000/svg" viewBox="0 0 508.942 357.481">
<style>
                    path, polyline, polygon, line, circle {
                        stroke: #3b82f6 !important;
                        stroke-width: 3.5px !important;
                        fill: none !important;
                        stroke-linecap: round !important;
                        stroke-linejoin: round !important;
                        filter: drop-shadow(0px 0px 5px #3b82f6) !important;
                    }
                </style>

<title>wec_spa_6h</title><polyline points="59.781 60.303 4.587 55.852 2.641 54.874 1.75 52.786 2.452 50.185 4.698 48.288 13.573 43.392 34.684 31.218 46.015 26.172 58.946 21.7 71.326 18.225 82.773 16.589 147.826 10.218 151.809 9.365 157.276 6.965 167.218 2.8 172.709 1.75 179.008 2.002 184.227 2.972 189.528 4.873 198.518 9.548 201.854 10.978 205.258 11.83 210.138 12.34 249.256 13.968 274.122 14.98 282.687 16.409 288.836 17.787 298.156 20.835 355.258 39.832 442.106 68.468 462.86 75.534 465.861 77.213 468.65 79.872 470.02 83.266 470.466 87.151 470.01 91.398 470.529 94.459 471.758 97.153 474.229 100.323 477.484 102.3 499.14 110.962 502.331 113.271 504.813 115.948 506.51 120.44 506.869 124.642 507.192 195.077 506.394 198.965 504.417 202.045 501.299 204.595 497.622 205.908 493.645 205.892 490.393 204.77 487.339 202.929 485.232 200.134 483.551 196.527 483.239 192.733 484.632 163.003 483.87 159.15 482.409 156.319 480.043 153.95 476.508 151.905 445.195 143.17 432.99 138.751 396.795 122.968 376.367 113.42 372.773 111.938 368.374 111.155 364.258 111.294 359.254 112.303 354.751 114.154 350.76 116.834 347.488 120.278 338.084 132.201 335.348 137.344 333.606 142.563 332.461 148.295 332.413 153.57 333.413 160.417 335.452 165.747 339.008 172.489 360.506 204.587 379.597 233.183 382.14 238.254 383.132 242.868 382.702 247.985 381.215 252.401 378.979 255.908 375.886 258.85 372.52 260.855 366.022 263.568 362.482 265.828 359.219 269.257 357.003 273.402 355.722 277.709 355.77 282.175 356.854 285.748 358.492 290.326 375.653 330.528 376.114 333.674 375.772 336.896 374.445 340.172 372.061 343.224 368.901 345.12 350.387 351.683 339.456 355.525 335.622 355.731 331.195 355.657 327.452 354.823 323.407 353.283 319.73 351.016 315.832 347.494 313.082 343.634 309.567 338.647 304.208 331.149 299.224 321.097 295.587 311.322 292.27 297.976 288.6 276.98 287.891 265.649 288.527 256.841 293.805 212.888 294.079 206.185 293.654 199.358 292.595 192.596 290.795 186.202 288.629 179.911 283.561 170.03 278.21 161.184 265.783 140.854 262.858 136.771 259.256 133.056 254.11 129.305 248.82 126.912 233.265 123.28 216.172 119.221 194.972 113.952 187.599 111.258 179.115 107.657 171.563 103.841 165.28 100.415 136.844 83.657 135.296 82.099 134.775 80.139 135.497 78.177 137.87 75.617 139.888 72.668 140.843 70.366 140.286 68.028 138.85 66.545 136.074 65.874 112.118 64.631 59.781 60.303"   stroke-linecap="round" stroke-linejoin="round" /></svg>