<svg id="Layer_1" data-name="Layer 1" xmlns="http://www.w3.org/2000/svg" viewBox="0 0 503.57 334.438">
<style>
                    path, polyline, polygon, line, circle {
                        stroke: #3b82f6 !important;
                        stroke-width: 3.5px !important;
                        fill: none !important;
                        stroke-linecap: round !important;
                        stroke-linejoin: round !important;
                        filter: drop-shadow(0px 0px 5px #3b82f6) !important;
                    }
                </style>

<title>wec_bahrain_8h</title><polyline points="238.942 325.45 98.56 323.811 6.606 321.596 2.457 319.915 1.75 316.265 2.751 312.296 4.879 309.308 23.784 290.028 25.645 284.838 25.137 279.188 13.909 246.373 12.901 238.484 13.248 231.322 51.643 14.25 53.699 6.811 57.755 2.792 63.017 1.75 68.029 2.418 73.717 4.781 79.486 9.348 84.157 14.681 89.971 21.993 109.79 47.761 131.935 68.374 137.064 73.45 144.307 77.494 165.661 86.511 170.296 89.639 173.617 94.537 176.335 99.403 177.342 107.251 173.79 130.984 174.125 137.386 175.529 143.979 178.441 149.383 184.659 155.898 246.314 202.959 250.556 207.55 251.728 214.189 248.555 218.401 242.005 220.005 232.002 219.917 162.836 209.469 119.535 203.513 111.001 202.652 103.151 204.027 97.299 205.828 91.476 209.376 74.758 229.369 73.506 232.094 74.387 235.034 77.47 236.69 130.871 242.982 166.457 244.362 230.445 246.78 297.288 248.153 358.206 249.664 368.189 248.503 374.051 244.456 377.192 238.247 378.812 229.608 378.02 220.758 375.665 209.728 370.019 198.46 363.105 189.002 353.37 179.797 343.88 174.25 316.21 164.13 304.541 158.41 297.691 152.862 291.46 145.556 285.854 136.785 282.599 124.521 282.149 111.005 284.215 101.36 290.119 88.449 306.331 54.442 311.266 47.455 317.049 41.453 322.464 38.411 328.516 34.651 333.979 34.563 339.675 37.425 345.464 43.24 351.707 51.252 498.986 304.514 501.469 309.134 501.82 316.535 498.816 319.788 474.973 331.491 465.406 332.644 447.301 332.688 347.947 331.092 238.942 325.45"   stroke-linecap="round" stroke-linejoin="round" /></svg>