<svg id="Layer_1" data-name="Layer 1" xmlns="http://www.w3.org/2000/svg" viewBox="0 0 437.989 321.511"><title>wec_qatar_1812km</title><polyline points="201.96 316.284 92.667 314.136 50.136 313.493 43.415 311.214 37.579 306.857 34.009 301.8 32.489 296.193 32.392 288.855 35.006 282.011 39.477 276.698 92.999 247.059 96.689 243.415 100.159 237.804 101.994 230.122 100.064 221.971 96.377 215.829 91.309 211.95 51.142 190.342 46.121 186.608 42.408 182.331 39.212 177.606 37.341 172.385 2.617 66.577 1.75 61.344 3.37 54.949 5.983 49.396 10.476 44.801 15.373 42.004 44.743 33.277 49.864 33.348 55.748 35.422 60.27 38.284 64.07 42.18 66.552 47.32 88.698 115.822 91.018 119.577 94.61 121.788 98.403 122.666 101.97 121.966 105.636 120.03 108.588 116.159 109.409 112.753 109.854 107.956 122.479 17.647 124.707 12.539 128.949 7.096 134.056 3.4 140.205 1.75 146.54 2.202 151.982 4.063 156.245 6.619 159.553 10.391 162.603 16.129 163.521 19.983 164.921 28.379 168.596 38.939 172.912 48.455 178.224 57.367 185.365 66.19 190.475 71.815 200.24 80.299 203.899 84.82 206.098 90.228 206.69 95.03 206.134 100.703 192.402 148.289 192.466 153.181 193.347 157.404 196.536 161.382 200.152 164.312 206.587 167.014 215.134 165.874 227.465 162.592 243.485 155.821 257.781 147.359 269.614 137.214 279.617 126.022 287.817 114.19 294.29 99.843 323.071 33.458 327.554 28.427 334.472 23.614 341.263 20.765 350.451 19.717 385.666 20.638 390.982 22.113 395.198 24.525 399.238 27.698 403.138 33.922 426.554 77.154 427.647 81.537 427.178 86.829 426.005 91.914 422.435 97.624 366.898 161.114 363.979 166.217 362.579 172.151 363.057 178.141 365.077 183.329 433.682 288.903 436.027 295.569 436.239 301.72 433.554 308.916 430.146 313.583 425.303 317.273 418.154 319.761 201.96 316.284" fill="none" stroke="#3b82f6" stroke-linecap="round" stroke-linejoin="round" stroke-width="3.5"/></svg>