<svg id="Layer_1" data-name="Layer 1" xmlns="http://www.w3.org/2000/svg" viewBox="0 0 368.661 255.552"><title>wec_sao_paulo_6h</title><polyline points="237.925 251.075 321.757 253.44 330.591 253.677 335.947 252.911 344.527 250.156 347.271 248.256 349.754 245.105 350.813 241.582 351.132 237.465 350.647 235.126 346.657 227.149 341.621 219.06 340.522 216.126 340.323 212.657 341.052 209.417 343.876 205.227 352.706 197.16 358.16 190.318 361.318 184.973 363.532 179.887 365.194 175.135 366.405 167.787 366.786 162.02 366.308 154.64 364.486 147.327 361.42 139.731 357.59 133.203 353.113 127.626 348.687 123.164 343.47 119.003 314.553 100.265 299.824 91.614 274.84 76.894 242.809 58.47 190.611 27.285 171.785 16.048 158.581 8.141 152.435 4.471 148.423 2.592 144.365 1.875 141.406 2.082 137.617 3.301 133.83 6.379 130.664 10.318 127.457 16.406 118.047 34.657 115.023 41.973 114.013 46.763 113.158 52.734 113.198 58.622 114.642 64.234 116.004 69.556 118.436 75.187 122.027 80.964 127.905 89.144 148.791 116.483 161.815 132.756 172.965 146.63 183.995 161.492 190.232 169.435 194.893 175.521 197.378 179.537 198.5 183.538 198.825 188.865 197.977 194.383 195.482 202.308 193.067 207.374 190.507 211.222 187.696 214.505 182.31 219.965 178.513 222.357 175.069 223.675 170.383 224.559 164.386 224.534 155.64 224.132 147.684 223.579 133.297 221.776 127.481 220.552 121.74 218.78 117.738 216.146 116.158 213.301 115.8 211.53 115.706 209.417 116.158 206.704 117.644 204.138 119.629 201.564 127.856 195.446 130.638 192.837 132.377 190.685 133.67 188.215 134.559 185.855 134.983 183.096 134.696 179.07 132.384 173.739 129.488 170.286 125.925 167.855 122.622 166.674 118.572 166.073 115.09 166.66 109.189 168.596 105.252 170.758 91.639 178.468 83.697 182.166 76.939 184.347 68.573 184.927 58.554 184.347 52.576 183.683 47.302 182.729 43.199 181.165 40.807 178.692 39.481 176.831 39.392 174.416 39.458 172.464 40.518 170.229 42.414 167.82 61.148 159.01 76.959 151.29 79.131 149.794 83.296 146.409 86.138 143.021 88.023 140.077 89.815 136.31 91.296 132.756 92.557 128.533 93.522 121.607 93.343 116.058 91.803 109.774 88.946 103.034 85.812 98.831 82.241 94.273 71.036 81.597 57.685 67.315 43.207 51.344 41.345 50.048 38.949 49.166 36.349 49.136 33.386 49.646 30.434 51.409 25.805 56.253 20.391 63.676 9.186 78.678 7.357 81.714 5.494 85.727 3.966 94.461 3.085 102.245 1.875 119.488 2.154 125.408 3.533 137.408 4.339 143.366 7.505 157.93 9.462 163.917 12.051 169.29 14.812 174.789 17.957 179.527 21.94 184.089 27.342 188.758 33.326 192.988 45.844 200.545 61.787 209.433 77.121 216.704 92.979 226.174 105.06 232.809 113.276 237.911 119.531 240.627 128.31 243.351 138.925 245.885 147.094 246.992 156.795 247.67 170.923 248.072 215.445 250.196 237.925 251.075" fill="none" stroke="#3b82f6" stroke-linecap="round" stroke-linejoin="round" stroke-width="3.75"/></svg>