<?xml version="1.0" encoding="UTF-8"?><svg id="flags" xmlns="http://www.w3.org/2000/svg" xmlns:xlink="http://www.w3.org/1999/xlink" viewBox="0 0 162 116"><defs><style>.cls-1{clip-path:url(#clippath);}.cls-2{fill:none;}.cls-2,.cls-3,.cls-4,.cls-5,.cls-6{stroke-width:0px;}.cls-7{clip-path:url(#clippath-1);}.cls-8{clip-path:url(#clippath-2);}.cls-4{fill:#cf142b;}.cls-5{fill:#fff;}.cls-6{fill:#00247d;}</style><clipPath id="clippath"><rect class="cls-2" x="-.03" y="17.49" width="162.14" height="81.07"/></clipPath><clipPath id="clippath-1"><path class="cls-2" d="m-.03,17.49v40.54h189.17v40.54h-27.02L-.03,17.49Zm162.14,0h-81.07v94.58H-.03v-13.51L162.11,17.49Z"/></clipPath><clipPath id="clippath-2"><rect class="cls-2" x="-.07" y="17.46" width="162.14" height="81.07"/></clipPath></defs><g id="United_Kingdom"><path class="cls-6" d="m-.03,17.49v81.03h162.06V17.49H-.03Z"/><g class="cls-1"><path class="cls-3" d="m-.03,17.49l162.14,81.07m0-81.07L-.03,98.56"/><polygon class="cls-5" points="159.09 104.6 81.04 65.57 2.99 104.6 -3.05 92.52 65.94 58.02 -3.05 23.53 2.99 11.45 81.04 50.47 159.09 11.45 165.13 23.53 96.14 58.02 165.13 92.52 159.09 104.6"/></g><g class="cls-7"><g class="cls-8"><path class="cls-3" d="m-.03,17.49l162.14,81.07m0-81.07L-.03,98.56"/><polygon class="cls-4" points="160.3 102.18 81.04 62.55 1.78 102.18 -1.84 94.93 71.98 58.02 -1.84 21.11 1.78 13.86 81.04 53.49 160.3 13.86 163.93 21.11 90.1 58.02 163.93 94.93 160.3 102.18"/></g></g><path class="cls-3" d="m81.04,17.49v81.07M-.03,58.02h162.14"/><polygon class="cls-5" points="94.55 98.56 67.54 98.56 67.54 71.53 -.03 71.53 -.03 44.52 67.54 44.52 67.54 17.49 94.55 17.49 94.55 44.52 162.11 44.52 162.11 71.53 94.55 71.53 94.55 98.56"/><path class="cls-3" d="m81.04,17.49v81.07M-.03,58.02h162.14"/><polygon class="cls-4" points="89.15 98.56 72.94 98.56 72.94 66.12 -.03 66.12 -.03 49.92 72.94 49.92 72.94 17.49 89.15 17.49 89.15 49.92 162.11 49.92 162.11 66.12 89.15 66.12 89.15 98.56"/></g></svg>