<?xml version="1.0" encoding="UTF-8"?><svg id="flags" xmlns="http://www.w3.org/2000/svg" xmlns:xlink="http://www.w3.org/1999/xlink" viewBox="0 0 162 116"><defs><style>.cls-1{clip-path:url(#clippath);}.cls-2{fill:none;}.cls-2,.cls-3,.cls-4,.cls-5,.cls-6,.cls-7,.cls-8,.cls-9,.cls-10,.cls-11,.cls-12{stroke-width:0px;}.cls-3,.cls-4,.cls-5,.cls-12{fill-rule:evenodd;}.cls-3,.cls-9{fill:red;}.cls-4,.cls-7{fill:#fff;}.cls-5,.cls-8{fill:#ff0;}.cls-10{fill:#039;}.cls-11{fill:#060;}</style><clipPath id="clippath"><rect class="cls-2" y="4" width="162" height="108"/></clipPath></defs><g id="PORTUGAL"><g class="cls-1"><rect class="cls-9" x="64.8" y="4" width="97.2" height="108"/></g><rect class="cls-11" y="4" width="64.8" height="108"/><path class="cls-5" d="m85.93,74.75c-8.16-.25-45.56-23.59-45.82-27.31l2.07-3.44c3.71,5.39,41.95,28.1,45.7,27.29l-1.95,3.46"/><path class="cls-5" d="m41.74,43.53c-.73,1.97,9.76,8.46,22.38,16.13,12.62,7.68,23.51,12.42,24.31,11.74.05-.09.4-.69.37-.68-.15.23-.52.3-1.09.13-3.41-.98-12.31-5.07-23.32-11.75-11.01-6.68-20.6-12.84-22.09-15.45-.1-.18-.18-.51-.16-.77h-.04l-.32.55-.04.09Zm44.38,31.33c-.14.25-.4.26-.89.21-3.05-.34-12.31-4.84-23.26-11.4-12.75-7.63-23.28-14.58-22.13-16.4l.31-.55.06.02c-1.03,3.08,20.78,15.54,22.06,16.34,12.62,7.82,23.25,12.38,24.19,11.19l-.34.59"/><path class="cls-6" d="m85.61,75.17c-.12,0-.25-.01-.39-.03-3.11-.35-12.48-4.93-23.3-11.41-14.46-8.66-21.73-13.87-22.23-15.93-.05-.22-.03-.42.07-.58l.31-.55s.06-.05.09-.04l.06.02s.04.02.05.04c0,.02.01.04,0,.06-.79,2.38,12.93,10.89,21.18,15.75.43.26.73.43.85.5,12.46,7.72,23.18,12.36,24.09,11.21.03-.03.07-.04.1-.02.03.02.04.07.02.1l-.34.59s0,0,0,0c-.12.2-.31.26-.56.26Zm-45.52-28.21l-.19.34c-.08.13-.09.28-.05.46.48,2.02,7.73,7.2,22.16,15.83,10.8,6.47,20.14,11.04,23.23,11.39.48.05.7.04.81-.17,0,0,0,0,0,0l.19-.32c-2.21.67-14.07-5.19-24.02-11.35-.12-.07-.41-.24-.84-.5-14.13-8.32-21.28-13.59-21.29-15.68Zm48.07,24.58c-2.17,0-13.08-5.12-24.08-11.81-13.59-8.26-23.15-14.26-22.42-16.23,0,0,0,0,0,0l.04-.09.32-.56s.04-.04.07-.04h.04s.04.01.05.03c.01.02.02.04.02.06-.01.23.05.55.15.73,1.58,2.77,12.62,9.7,22.06,15.42,10.36,6.28,19.57,10.66,23.3,11.74.5.15.87.11,1.01-.1.01-.02.03-.03.05-.03.03,0,.06,0,.08.03.04.05.04.06-.35.75v.02s-.02.01-.03.02c-.06.05-.17.08-.33.08Zm-46.35-27.98c-.73,2,11.53,9.46,22.35,16.04,12.97,7.89,23.41,12.32,24.21,11.76h0c.09-.17.16-.29.21-.38-.22.08-.53.07-.9-.04-3.75-1.08-12.97-5.47-23.34-11.75-18.01-10.92-21.28-14.01-22.12-15.48-.08-.15-.15-.37-.17-.59l-.25.45Z"/><path class="cls-5" d="m64.85,49.69c8.16-.06,18.24-1.12,24.04-3.43l-1.25-2.03c-3.43,1.9-13.56,3.14-22.86,3.33-11-.1-18.76-1.12-22.65-3.73l-1.18,2.16c7.15,3.03,14.48,3.67,23.9,3.7"/><path class="cls-5" d="m89.22,46.31c-.2.32-3.98,1.62-9.55,2.59-3.78.58-8.7,1.07-14.85,1.07-5.84,0-10.61-.41-14.23-.9-5.85-.92-8.86-2.19-9.98-2.64.11-.21.18-.36.28-.56,3.21,1.28,6.24,2.05,9.8,2.6,3.59.48,8.3.91,14.11.9,6.12,0,10.99-.54,14.75-1.09,5.71-.92,8.83-2.11,9.27-2.66l.4.7Zm-1.1-2.06c-.62.5-3.7,1.59-9.13,2.46-3.62.52-8.23.98-14.11.99-5.59,0-10.16-.37-13.63-.88-5.51-.72-8.45-2.02-9.5-2.4.11-.18.21-.36.32-.54.82.41,3.65,1.56,9.24,2.35,3.43.49,8.01.85,13.57.84,5.86,0,10.41-.48,14.01-1,5.46-.75,8.39-2.14,8.84-2.5l.4.66"/><path class="cls-6" d="m64.7,50.05c-4.97,0-9.72-.3-14.12-.9-5.66-.89-8.72-2.13-9.88-2.6l-.12-.05s-.04-.02-.04-.04c0-.02,0-.04,0-.06.04-.09.08-.17.12-.24.05-.1.1-.2.16-.32.02-.04.06-.05.1-.04,3.08,1.23,6.09,2.02,9.78,2.59,4.42.6,9.13.9,13.99.9.04,0,.07,0,.11,0,5.01,0,9.83-.36,14.73-1.09,5.64-.91,8.79-2.09,9.22-2.63.02-.02.04-.03.07-.03.03,0,.05.02.06.04l.4.7s.01.05,0,.08c0,0,0,.01-.01.02-.32.39-4.21,1.68-9.59,2.61-4.64.71-9.64,1.07-14.86,1.08h-.11Zm-23.98-3.66l.04.02c1.15.47,4.2,1.71,9.84,2.59,4.4.6,9.14.9,14.1.9.04,0,.08,0,.11,0,5.21,0,10.21-.37,14.84-1.07,5.52-.95,9.08-2.21,9.47-2.52l-.32-.56c-.62.56-3.53,1.68-9.24,2.61-4.91.73-9.74,1.09-14.76,1.1-4.91,0-9.66-.3-14.12-.9-3.67-.57-6.68-1.36-9.75-2.58-.05.09-.09.17-.13.25-.03.05-.05.11-.08.17Zm24.05,1.39c-4.9,0-9.58-.3-13.53-.88-4.88-.64-7.72-1.72-9.08-2.24-.17-.07-.32-.12-.44-.17-.02,0-.04-.02-.05-.05s0-.05,0-.07c.11-.18.21-.36.32-.54.02-.03.07-.05.1-.03.48.24,3.19,1.49,9.22,2.35,2.72.39,7.25.84,13.44.84.04,0,.08,0,.12,0,6.38,0,11.04-.57,14-1,5.22-.72,8.28-2.07,8.8-2.48.02-.01.04-.02.06-.02.02,0,.04.02.05.04l.4.66s.01.08-.02.1c-.61.49-3.63,1.59-9.17,2.47-4.62.66-9.24.99-14.12.99h-.12Zm-22.91-3.39c.1.04.22.08.36.13,1.36.52,4.18,1.59,9.04,2.23,3.95.57,8.61.88,13.51.88.04,0,.08,0,.12,0,4.88,0,9.49-.33,14.1-.99,5.35-.85,8.33-1.9,9.04-2.4l-.32-.53c-.59.39-3.41,1.72-8.8,2.46-2.96.42-7.63.99-14.02,1h-.12c-6.2,0-10.74-.46-13.46-.85-5.82-.82-8.57-2.02-9.2-2.33-.08.13-.16.27-.24.4Z"/><path class="cls-5" d="m38.04,59.53c5.02,2.7,16.18,4.06,26.73,4.16,9.61.02,22.13-1.48,26.81-3.97l-.13-2.7c-1.46,2.29-14.88,4.49-26.79,4.4-11.9-.09-22.96-1.93-26.65-4.31l.02,2.43"/><path class="cls-5" d="m91.83,59.14v.65c-.7.84-5.12,2.11-10.65,3.01-4.21.65-9.7,1.13-16.54,1.13s-11.68-.46-15.7-1.08c-6.35-.93-10.42-2.55-11.23-3.03v-.75c2.45,1.63,9.09,2.82,11.32,3.18,3.99.61,9.14,1.07,15.61,1.07,6.81,0,12.27-.48,16.45-1.12,3.97-.57,9.62-2.06,10.74-3.06h0Zm0-2.29v.64c-.7.84-5.12,2.11-10.65,3.01-4.21.65-9.7,1.13-16.54,1.13s-11.68-.46-15.7-1.08c-6.35-.92-10.42-2.54-11.23-3.03v-.75c2.45,1.63,9.09,2.82,11.32,3.19,3.99.61,9.14,1.07,15.61,1.07,6.81,0,12.27-.48,16.45-1.13,3.97-.57,9.62-2.06,10.74-3.06"/><path class="cls-6" d="m64.64,64c-5.76,0-11.04-.36-15.71-1.08-6.08-.89-10.28-2.46-11.26-3.04-.02-.01-.04-.04-.04-.07v-.75s.02-.05.05-.07c.03-.01.06-.01.08,0,2.46,1.64,9.26,2.84,11.29,3.17,4.63.71,9.88,1.07,15.6,1.07,6.04,0,11.57-.38,16.44-1.12,3.94-.57,9.59-2.05,10.7-3.04.04-.04.13,0,.13.06v.64s0,.04-.02.05c-.73.87-5.23,2.15-10.7,3.04-4.9.75-10.47,1.13-16.55,1.13Zm-26.86-4.23c.73.41,4.63,2.05,11.17,3,4.66.72,9.94,1.08,15.69,1.08,6.07,0,11.63-.38,16.53-1.13,5.3-.86,9.83-2.13,10.58-2.96v-.45c-1.38,1-6.82,2.42-10.65,2.97-4.88.75-10.42,1.13-16.46,1.13-5.72,0-10.98-.36-15.62-1.07-2-.33-8.65-1.51-11.23-3.12v.57Zm26.86,1.94c-5.76,0-11.04-.36-15.71-1.08-6.08-.88-10.28-2.46-11.26-3.04-.02-.01-.04-.04-.04-.07v-.75s.02-.05.04-.07c.03-.01.06-.01.08,0,2.46,1.64,9.26,2.84,11.29,3.17,4.63.71,9.88,1.07,15.6,1.07,6.04,0,11.58-.38,16.44-1.12,3.94-.57,9.59-2.05,10.7-3.04.05-.04.13,0,.13.06v.64s0,.04-.02.05c-.73.87-5.23,2.15-10.7,3.03-4.9.75-10.47,1.13-16.55,1.13Zm-26.86-4.23c.73.41,4.63,2.05,11.17,3,4.66.72,9.94,1.08,15.69,1.08,6.07,0,11.63-.38,16.53-1.13,5.3-.86,9.83-2.12,10.58-2.96v-.46c-1.38,1-6.82,2.42-10.65,2.97-4.87.75-10.41,1.13-16.46,1.13-5.73,0-10.98-.36-15.62-1.08-2-.33-8.65-1.51-11.23-3.12v.57Z"/><path class="cls-5" d="m64.74,74.29c-11.55-.07-21.44-3.15-23.53-3.66l1.52,2.38c3.69,1.55,13.34,3.87,22.12,3.61,8.78-.26,16.45-.93,21.85-3.57l1.56-2.47c-3.68,1.74-16.22,3.68-23.52,3.7"/><path class="cls-5" d="m87.29,72.5c-.23.35-.46.7-.7,1.03-2.55.9-6.57,1.84-8.26,2.12-3.46.71-8.82,1.24-13.57,1.24-10.23-.15-18.6-2.15-22.54-3.86l-.32-.55.05-.08.54.21c7.01,2.51,14.87,3.51,22.33,3.69,4.74.02,9.48-.54,13.31-1.23,5.88-1.18,8.26-2.06,8.98-2.47l.19-.1h0Zm1.35-2.23s.01.01.02.02c-.17.29-.35.58-.53.88-1.36.49-5.05,1.57-10.44,2.32-3.55.48-5.76.95-12.82,1.09-13.24-.34-21.8-2.92-23.84-3.56l-.3-.58c7.67,2,15.5,3.4,24.14,3.54,6.46-.14,9.21-.61,12.73-1.09,6.28-.98,9.45-2.01,10.4-2.31-.01-.02-.03-.04-.04-.05l.68-.25"/><path class="cls-6" d="m64.76,76.97c-10.43-.15-18.68-2.18-22.57-3.87-.01,0-.03-.02-.03-.03l-.32-.55s-.01-.05,0-.08l.05-.08s.06-.04.09-.03l.54.21c6.25,2.24,13.75,3.47,22.3,3.68.07,0,.14,0,.21,0,5.14,0,9.94-.66,13.08-1.23,6.56-1.32,8.52-2.22,8.96-2.46l.19-.1s.07-.01.09.01c.02.03.03.06,0,.09-.24.36-.47.71-.7,1.04,0,.01-.02.02-.04.03-2.53.89-6.53,1.84-8.27,2.12-3.6.74-9.06,1.24-13.59,1.24Zm-22.49-3.99c5.81,2.51,15.48,3.74,22.49,3.84,4.52,0,9.97-.5,13.56-1.24,1.74-.28,5.7-1.22,8.23-2.11.17-.24.35-.5.52-.76-.58.3-2.67,1.18-8.93,2.43-3.15.56-7.96,1.23-13.11,1.23-.07,0-.14,0-.21,0-8.57-.21-16.09-1.45-22.35-3.69l-.47-.18.28.47Zm22.62,1.67c-11.82-.3-20.03-2.36-23.86-3.57-.02,0-.03-.02-.04-.04l-.3-.58s-.01-.06,0-.08c.02-.02.05-.03.08-.03,8.76,2.29,16.43,3.41,24.12,3.54,5.76-.12,8.59-.52,11.6-.94.37-.05.74-.1,1.12-.15,6.05-.94,9.23-1.94,10.27-2.27h.02s0-.03,0-.04c0-.02.02-.04.05-.05l.68-.25h0s.02,0,.02,0h0s.05.01.06.03c0,0,0,0,0,.01.02.02.03.06,0,.09-.17.29-.35.58-.53.88,0,.01-.02.03-.04.03-1.82.65-5.65,1.65-10.45,2.32-.52.07-1.01.14-1.5.21-2.84.41-5.3.76-11.33.88Zm-23.79-3.7c3.84,1.2,12.02,3.25,23.79,3.55,6.02-.12,8.47-.47,11.31-.88.48-.07.98-.14,1.5-.21,4.76-.67,8.57-1.66,10.4-2.31.15-.24.29-.48.43-.71l-.43.16s0,.03,0,.04c0,.02-.03.04-.05.05l-.11.04c-1.05.33-4.24,1.33-10.3,2.28-.38.05-.75.1-1.12.15-3.01.42-5.85.82-11.62.94-7.66-.13-15.29-1.24-24-3.5l.21.4Z"/><path class="cls-5" d="m88.78,57.39c.04,7.6-3.85,14.41-6.98,17.42-4.43,4.25-10.3,6.99-17.16,7.12-7.66.14-14.88-4.85-16.82-7.05-3.79-4.29-6.87-9.73-6.97-17.08.47-8.29,3.72-14.07,8.44-18.03,4.72-3.96,11-5.89,16.23-5.75,6.04.16,13.09,3.12,17.96,9,3.19,3.85,4.57,8.03,5.3,14.36h0Zm-24.08-26.01c14.71,0,26.81,11.97,26.81,26.65s-12.1,26.65-26.81,26.65-26.71-11.97-26.71-26.65,12-26.65,26.71-26.65"/><path class="cls-6" d="m64.78,84.84c-14.78,0-26.81-12.03-26.81-26.81s12.03-26.81,26.81-26.81,26.81,12.03,26.81,26.81-12.03,26.81-26.81,26.81Zm0-53.47c-14.7,0-26.66,11.96-26.66,26.66s11.96,26.66,26.66,26.66,26.65-11.96,26.65-26.66-11.96-26.66-26.65-26.66Zm0,52.88c-6.96,0-13.53-2.74-18.5-7.7-4.98-4.97-7.72-11.55-7.72-18.52s2.74-13.55,7.72-18.52c4.97-4.97,11.54-7.7,18.5-7.7s13.53,2.74,18.5,7.7c4.98,4.97,7.72,11.55,7.72,18.52s-2.74,13.55-7.72,18.52c-4.97,4.97-11.54,7.7-18.5,7.7Zm0-52.3c-6.92,0-13.45,2.72-18.39,7.66-4.95,4.94-7.67,11.48-7.67,18.41s2.73,13.47,7.67,18.41c4.94,4.94,11.48,7.66,18.39,7.66s13.45-2.72,18.39-7.66c4.95-4.94,7.67-11.48,7.67-18.41s-2.73-13.47-7.67-18.41c-4.94-4.94-11.48-7.66-18.39-7.66Zm.02,50.61c-6.52,0-12.68-2.56-17.33-7.22-4.66-4.66-7.23-10.82-7.23-17.35s2.57-12.69,7.23-17.35c4.66-4.65,10.81-7.22,17.33-7.22s12.67,2.56,17.33,7.22c4.66,4.66,7.23,10.82,7.23,17.35s-2.57,12.69-7.23,17.35c-4.66,4.65-10.81,7.22-17.33,7.22Zm0-48.98c-6.48,0-12.59,2.55-17.22,7.17-4.63,4.63-7.19,10.75-7.19,17.24s2.55,12.61,7.19,17.24c4.63,4.62,10.75,7.17,17.22,7.17s12.59-2.55,17.22-7.17c4.63-4.63,7.19-10.75,7.19-17.24s-2.55-12.61-7.19-17.24c-4.63-4.62-10.75-7.17-17.22-7.17Zm0,48.39c-6.36,0-12.37-2.5-16.92-7.04-4.55-4.55-7.06-10.56-7.06-16.93s2.51-12.39,7.06-16.94c4.55-4.54,10.56-7.04,16.92-7.04s12.37,2.5,16.92,7.04c4.55,4.55,7.06,10.56,7.06,16.94s-2.51,12.39-7.06,16.93c-4.55,4.54-10.56,7.04-16.92,7.04Zm0-47.8c-6.32,0-12.29,2.49-16.81,7-4.52,4.52-7.01,10.49-7.01,16.83s2.49,12.31,7.01,16.82c4.52,4.51,10.49,7,16.81,7s12.29-2.49,16.81-7c4.52-4.52,7.01-10.49,7.01-16.82s-2.49-12.31-7.01-16.83c-4.52-4.51-10.49-7-16.81-7Z"/><polygon class="cls-5" points="65.64 30.87 65.64 31.17 63.95 31.17 63.95 30.88 63.37 30.88 63.37 85.21 63.95 85.21 63.95 84.96 65.65 84.96 65.65 85.22 66.23 85.22 66.23 30.87 65.64 30.87"/><path class="cls-6" d="m65.63,84.98h-1.63s-.08-.03-.08-.08.03-.08.08-.08h1.63s.08.03.08.08-.03.08-.08.08Zm-.01-53.72h-1.62s-.08-.03-.08-.08.03-.08.08-.08h1.62s.08.03.08.08-.03.08-.08.08Z"/><path class="cls-6" d="m66.23,85.29h-.58s-.08-.03-.08-.08V30.88s0-.04.02-.05.03-.02.05-.02h.58s.08.03.08.08v54.34s0,.04-.02.05-.03.02-.05.02Zm-.51-.15h.43V30.95h-.43v54.18Zm-1.77.15h-.59s-.08-.03-.08-.08V30.89s0,0,0-.01c0-.04.03-.08.08-.08h.59s.08.03.08.08v54.34s0,.04-.02.05-.03.02-.05.02Zm-.51-.15h.43V30.95h-.43v54.18Z"/><path class="cls-5" d="m37.95,56.89c3.35-3.09,15.72-5.09,26.7-5.03,10.97.05,23.97,2.31,26.8,4.97l.03,2.3c-2.37-2.23-12.47-4.88-26.8-4.91-14.34-.03-24.75,2.7-26.72,4.97v-2.3"/><path class="cls-6" d="m91.53,59.14s-.08-.03-.08-.08v-1.99s.03-.08.08-.08.08.03.08.08v1.99s-.03.08-.08.08Zm-53.59-.08s-.08-.03-.08-.08v-1.99s.03-.08.08-.08.08.03.08.08v1.99s-.03.08-.08.08Z"/><path class="cls-5" d="m64.79,53.89c6.31-.01,12.44.6,17.3,1.54,5.01,1,8.54,2.26,9.75,3.66v.7c-1.46-1.75-6.2-3.04-9.86-3.77-4.82-.94-10.91-1.54-17.18-1.53-6.63.01-12.79.64-17.55,1.57-3.81.76-8.9,2.26-9.53,3.74v-.73c.35-1.03,4.13-2.56,9.45-3.62,4.79-.93,10.97-1.55,17.63-1.56h0Zm0-2.29c6.31-.01,12.44.6,17.3,1.54,5.01,1,8.54,2.26,9.75,3.66v.7c-1.46-1.75-6.2-3.04-9.86-3.77-4.82-.94-10.91-1.54-17.18-1.53-6.63.01-12.77.64-17.52,1.57-3.68.7-8.97,2.26-9.56,3.74v-.72c.35-1.02,4.21-2.6,9.45-3.62,4.79-.93,10.97-1.55,17.63-1.56"/><path class="cls-6" d="m37.71,59.88s-.01,0-.02,0c-.04,0-.06-.04-.06-.08v-.73s0-.02,0-.03c.38-1.1,4.37-2.65,9.5-3.67,5.11-1,11.38-1.55,17.65-1.56v.08s0-.08,0-.08c5.99-.01,12.13.54,17.31,1.55,5.24,1.05,8.62,2.32,9.79,3.69.01.01.02.03.02.05v.7s-.02.06-.05.07c-.03.01-.07,0-.09-.02-1.54-1.85-6.81-3.14-9.82-3.74-5.07-.99-11.1-1.53-16.98-1.53-.06,0-.12,0-.19,0-6.19.01-12.42.57-17.53,1.56-4.15.82-8.89,2.33-9.48,3.7-.01.03-.04.05-.07.05Zm27.26-5.46c5.9,0,11.93.54,17.01,1.53,2.94.59,8.05,1.84,9.77,3.64v-.47c-1.17-1.33-4.51-2.58-9.69-3.62-5.12-1-11.18-1.54-17.1-1.54-.06,0-.12,0-.18,0h0c-6.26.01-12.51.57-17.62,1.56-4.24.85-8.95,2.38-9.38,3.56v.43c1.13-1.53,6.38-2.93,9.44-3.53,5.13-1,11.36-1.56,17.56-1.57.06,0,.12,0,.19,0Zm-27.26,3.17s0,0-.01,0c-.04,0-.06-.04-.06-.08v-.73s0-.02,0-.03c.38-1.11,4.47-2.69,9.5-3.67,5.11-1,11.38-1.55,17.65-1.56v.08s0-.08,0-.08c.06,0,.12,0,.18,0,5.93,0,12,.55,17.13,1.55,5.24,1.05,8.62,2.32,9.79,3.69.01.01.02.03.02.05v.7s-.02.06-.05.07c-.03.01-.06,0-.09-.02-1.54-1.85-6.81-3.14-9.82-3.74-5.13-1-11.23-1.53-17.17-1.53-6.17.01-12.38.57-17.5,1.56-4.21.8-8.97,2.37-9.5,3.7-.01.03-.04.05-.07.05Zm27.26-5.46c5.9,0,11.93.54,17.01,1.53,2.94.59,8.05,1.84,9.77,3.64v-.47c-1.16-1.33-4.51-2.58-9.69-3.62-5.12-1-11.18-1.54-17.1-1.54-.06,0-.12,0-.18,0h0c-6.26.01-12.51.57-17.62,1.56-5.45,1.06-9.04,2.64-9.38,3.56v.42c1.08-1.47,6.14-2.9,9.47-3.53,5.13-1,11.35-1.56,17.53-1.57.06,0,.12,0,.19,0Z"/><path class="cls-5" d="m64.66,39.9c9.95-.05,18.63,1.39,22.6,3.43l1.45,2.5c-3.45-1.86-12.81-3.79-24.03-3.5-9.14.06-18.91,1.01-23.81,3.62l1.73-2.89c4.02-2.09,13.51-3.14,22.06-3.15"/><path class="cls-6" d="m88.49,45.39s-.05-.01-.07-.04l-.98-1.58s-.01-.08.03-.11c.03-.02.08-.01.11.02l.98,1.58s.01.08-.03.11c-.01,0-.03.01-.04.01Z"/><path class="cls-5" d="m64.79,41.97c5.67-.02,11.16.3,15.52,1.09,4.06.76,7.93,1.89,8.49,2.5l.43.76c-1.35-.88-4.7-1.86-9-2.67-4.32-.81-9.8-1.08-15.44-1.07-6.4-.02-11.38.31-15.65,1.06-4.52.85-7.65,2.05-8.42,2.63l.42-.8c1.5-.77,3.89-1.69,7.89-2.41,4.42-.81,9.44-1.05,15.77-1.08h0Zm0-2.29c5.43-.01,10.79.29,14.97,1.04,3.3.64,6.56,1.64,7.75,2.54l.63,1c-1.07-1.19-5.08-2.31-8.63-2.94-4.15-.71-9.29-1-14.72-1.04-5.7.01-10.97.36-15.05,1.11-3.9.74-6.42,1.62-7.48,2.31l.55-.83c1.47-.77,3.84-1.48,6.83-2.06,4.12-.75,9.42-1.09,15.15-1.1"/><path class="cls-6" d="m89.23,46.4s-.03,0-.04-.01c-1.32-.86-4.59-1.83-8.97-2.66-3.85-.72-9.04-1.09-15.43-1.07-.19,0-.38,0-.56,0-6.13,0-10.93.34-15.07,1.06-4.49.84-7.61,2.03-8.39,2.61-.03.02-.07.02-.1,0-.03-.02-.04-.06-.02-.09l.42-.8s.02-.03.03-.03c2.02-1.03,4.61-1.82,7.91-2.42,4-.73,8.58-1.05,15.79-1.09h0c6.12,0,11.48.36,15.53,1.09,4.14.77,7.97,1.9,8.53,2.53l.44.77s.01.07-.01.09c-.01.01-.03.02-.05.02Zm-24.03-3.9c6.21,0,11.27.36,15.04,1.07,4.14.79,7.3,1.7,8.77,2.53l-.28-.5c-.53-.58-4.39-1.71-8.43-2.46-4.04-.73-9.4-1.11-15.5-1.09h0c-7.2.04-11.77.35-15.76,1.08-3.27.59-5.84,1.37-7.85,2.39l-.27.52c1.08-.63,4.07-1.7,8.2-2.48,4.28-.75,9.26-1.08,15.67-1.06.14,0,.28,0,.42,0Zm22.94,1.83s-.04,0-.06-.03c-1.1-1.22-5.31-2.33-8.59-2.92-3.76-.65-8.57-.99-14.7-1.04-5.95.02-11.15.4-15.04,1.11-3.46.66-6.24,1.52-7.45,2.29-.03.02-.07.02-.1-.01-.03-.03-.03-.07,0-.1l.55-.83s.02-.02.03-.03c1.46-.77,3.83-1.48,6.85-2.07,3.89-.71,9.13-1.09,15.16-1.11h0c5.93-.01,11.12.35,14.99,1.04,3.54.69,6.66,1.71,7.78,2.55,0,0,.01.01.02.02l.63,1s.01.08-.02.1c-.01.01-.03.02-.05.02Zm-23.35-4.14c6.14.05,10.96.39,14.73,1.05,2.98.53,6.75,1.5,8.27,2.61l-.34-.54c-1.11-.82-4.2-1.83-7.71-2.51-3.86-.69-9.03-1.06-14.96-1.04h0c-6.02.02-11.26.4-15.14,1.1-3,.58-5.35,1.29-6.79,2.05l-.35.53c1.35-.74,3.99-1.53,7.21-2.14,3.9-.71,9.11-1.09,15.07-1.11Z"/><path class="cls-5" d="m78.07,69.14c-4.92-.92-9.85-1.05-13.29-1.01-16.58.2-21.93,3.4-22.59,4.38l-1.24-2.02c4.22-3.06,13.25-4.78,23.92-4.6,5.54.09,10.32.46,14.34,1.24l-1.14,2.02"/><path class="cls-6" d="m42.04,72.24s-.05-.01-.07-.04l-.81-1.4s0-.08.03-.11c.04-.02.08,0,.11.03l.81,1.4s0,.08-.03.11c-.01,0-.03.01-.04.01Z"/><path class="cls-5" d="m64.69,67.84c4.61.07,9.14.26,13.51,1.07l-.32.56c-4.06-.75-8.38-1.04-13.18-1.01-6.12-.05-12.31.52-17.7,2.07-1.7.47-4.51,1.57-4.8,2.47l-.32-.52c.09-.53,1.79-1.64,4.97-2.54,6.17-1.77,11.94-2.07,17.83-2.11h0Zm.21-2.32c4.78.09,9.71.31,14.51,1.26l-.33.58c-4.33-.86-8.47-1.15-14.15-1.23-6.14.01-12.65.45-18.57,2.17-1.91.56-5.21,1.76-5.32,2.71l-.32-.56c.07-.87,2.93-1.99,5.5-2.74,5.97-1.73,12.49-2.18,18.68-2.19"/><path class="cls-6" d="m42.2,73.08s-.05-.01-.06-.04l-.32-.52s-.01-.03,0-.05c.1-.6,1.9-1.72,5.02-2.59,5.9-1.69,11.4-2.06,17.84-2.11,0,0,0,0,0,0,4.37.06,9.04.24,13.52,1.08.02,0,.04.02.05.04.01.02,0,.05,0,.07l-.32.56s-.05.04-.08.04c-3.82-.71-8.12-1.03-13.16-1.01-6.76-.06-12.71.64-17.68,2.07-1.81.5-4.49,1.59-4.75,2.42,0,.03-.03.05-.06.05,0,0,0,0,0,0Zm-.24-.61l.23.37c.51-.9,3.16-1.93,4.79-2.38,4.98-1.43,10.94-2.13,17.72-2.07,5.02-.03,9.32.3,13.14,1l.24-.42c-4.44-.82-9.06-.99-13.39-1.05-6.43.04-11.92.42-17.8,2.1-3.16.89-4.78,1.97-4.91,2.45Zm-.93-1.38s-.05-.01-.06-.04l-.32-.56s-.01-.03,0-.04c.09-1.13,4.27-2.44,5.55-2.81,5.1-1.48,11.04-2.18,18.7-2.2h0c4.67.09,9.67.3,14.52,1.26.02,0,.04.02.05.04.01.02,0,.05,0,.07l-.33.58s-.05.04-.08.04c-4.6-.91-8.98-1.15-14.14-1.23-7.62.01-13.51.7-18.55,2.17-2.47.72-5.18,1.86-5.27,2.65,0,.03-.03.06-.06.06,0,0,0,0-.01,0Zm-.24-.65l.22.38c.54-1.17,4.81-2.45,5.32-2.6,5.05-1.47,10.96-2.16,18.59-2.17,5.15.08,9.52.32,14.11,1.22l.25-.44c-4.81-.94-9.76-1.15-14.39-1.24-7.64.01-13.57.71-18.66,2.19-3.22.94-5.34,1.97-5.44,2.66Z"/><path class="cls-5" d="m42.36,43.02c8.21-.11,46.15,23.18,46.26,27.47l-2.35,3.6c-1.06-4.98-39.55-27.64-45.9-27.21l1.99-3.86"/><path class="cls-6" d="m86.45,73.96s-.03,0-.04-.01c-.04-.02-.05-.07-.02-.11l1.99-3.09s.07-.05.11-.02c.04.02.05.07.02.11l-1.99,3.09s-.04.04-.06.04Zm-46.01-27.23s-.03,0-.04,0c-.04-.02-.05-.07-.03-.1l1.85-3.43s.07-.05.1-.03c.04.02.05.07.03.1l-1.85,3.43s-.04.04-.07.04Z"/><path class="cls-5" d="m40.14,46.74c1.52-1.03,12.73,3.96,24.45,11.02,11.69,7.09,22.86,15.1,21.85,16.6l-.33.52-.15.12s.2-.23-.02-.78c-.5-1.64-8.42-7.96-21.57-15.9-12.82-7.64-23.5-12.25-24.57-10.93l.34-.64h0,0Zm48.72,24.01c.96-1.9-9.43-9.73-22.31-17.35-13.18-7.47-22.68-11.87-24.41-10.56l-.39.7s.01-.05.09-.11c.32-.28.84-.26,1.07-.26,2.99.04,11.52,3.97,23.49,10.83,5.25,3.06,22.16,13.9,22.09,16.95,0,.26.02.32-.08.45l.43-.65"/><path class="cls-6" d="m85.96,75.08s-.05-.01-.06-.03c-.03-.03-.02-.08.01-.11h0s.16-.18-.04-.7c-.51-1.69-8.89-8.23-21.54-15.86-13.45-8.02-23.51-12.13-24.47-10.95-.03.03-.07.04-.1.02s-.04-.07-.03-.1l.33-.63s.02-.04.04-.05c1.63-1.06,12.84,3.98,24.52,11.03,10.52,6.38,21.44,14.02,21.94,16.28.04.17.02.31-.06.43l-.33.52s-.01.01-.02.02l-.15.12h0s0,0,0,0c-.01,0-.03.01-.05.01Zm-45.43-27.99c2.94,0,12.87,4.59,23.89,11.16,12.85,7.76,21.08,14.2,21.61,15.95.09.22.11.39.11.51l.25-.39c.05-.08.06-.18.04-.31-.48-2.19-11.63-9.97-21.87-16.18-11.42-6.89-22.76-12.03-24.35-11.04l-.19.37c.14-.05.31-.07.52-.07Zm47.9,24.39s-.03,0-.04-.01c-.03-.02-.04-.07-.02-.11l.04-.07c.03-.06.03-.11.02-.24v-.1c.06-3.04-17.18-14.04-22.06-16.89-11.92-6.83-20.47-10.78-23.45-10.82h-.06c-.24,0-.7,0-.97.24-.04.03-.06.07-.07.09-.02.03-.06.06-.1.05-.04-.01-.06-.05-.06-.09,0-.01,0-.02,0-.03l.39-.7s.01-.02.02-.02c2.08-1.57,14.47,4.87,24.5,10.55,11.63,6.88,23.41,15.34,22.34,17.46,0,0,0,0,0,0l-.39.59s-.03.05-.05.07c-.02.02-.04.03-.06.03Zm-45.51-28.39c3.01.04,11.59,4,23.53,10.84,3.45,2.01,22.21,13.69,22.13,17.02v.07s.21-.32.21-.32c.87-1.76-8.91-9.34-22.28-17.25-14.07-7.98-22.71-11.73-24.31-10.57l-.19.34c.29-.14.65-.14.86-.14h.06Zm45.94,27.66h0,0Z"/><path class="cls-4" d="m48.76,60.97c0,4.39,1.8,8.37,4.71,11.27,2.92,2.91,6.89,4.75,11.29,4.75s8.44-1.8,11.34-4.69c2.91-2.9,4.71-6.9,4.71-11.31h0v-21.38l-32.06-.04v21.4"/><path class="cls-6" d="m64.76,77.08c-4.23,0-8.26-1.7-11.35-4.77-3.06-3.05-4.74-7.07-4.74-11.33v-21.5s.09,0,.09,0l32.15.04v21.47c0,4.29-1.68,8.33-4.74,11.37-3.05,3.04-7.11,4.72-11.41,4.72Zm-15.92-37.42v21.31c0,4.22,1.67,8.19,4.69,11.21,3.05,3.04,7.04,4.72,11.23,4.72s8.26-1.66,11.28-4.67c3.02-3.01,4.68-7,4.68-11.24v-21.29l-31.88-.04Z"/><path class="cls-3" d="m49.36,61h0c0,4.21,1.74,8.04,4.53,10.81,2.8,2.78,6.65,4.51,10.86,4.51s8.08-1.72,10.86-4.49c2.78-2.77,4.51-6.6,4.51-10.81v-20.74h-30.74s-.02,20.72-.02,20.72m24.58-14.51v13.2s0,1.4,0,1.4c0,.37-.02.79-.06,1.14-.25,2.09-1.21,3.9-2.63,5.32-1.66,1.66-3.96,2.68-6.49,2.68s-4.76-1.06-6.43-2.73c-1.71-1.71-2.71-4.04-2.71-6.47v-14.59s18.34.03,18.34.03"/><path class="cls-6" d="m64.75,76.4c-4.1,0-7.97-1.61-10.91-4.53-2.93-2.92-4.55-6.77-4.55-10.85h.14s0,0,0,0c0,4.04,1.6,7.86,4.51,10.75,2.91,2.9,6.75,4.49,10.81,4.49s7.92-1.59,10.81-4.47c2.89-2.88,4.49-6.7,4.49-10.76v-20.67h-30.6s-.02,20.65-.02,20.65h-.14l.02-20.79h30.87v20.82c0,4.1-1.61,7.95-4.53,10.86-2.92,2.91-6.79,4.51-10.91,4.51Zm-.01-6.09c-2.4,0-4.7-.98-6.48-2.75-1.73-1.73-2.73-4.1-2.73-6.52v-14.65s.06,0,.06,0l18.36.03.21.14h-.16s0,13.13,0,13.13v1.4c-.01.38-.03.8-.08,1.15-.24,2.02-1.16,3.88-2.65,5.36-1.75,1.74-4.07,2.7-6.54,2.7Zm-9.08-23.78v14.52c0,2.38.98,4.72,2.69,6.42,1.75,1.75,4.02,2.71,6.39,2.71s4.72-.95,6.44-2.66c1.47-1.46,2.37-3.29,2.61-5.28.04-.34.06-.76.06-1.13v-1.4s0-13.13,0-13.13l-18.21-.03Z"/><path class="cls-10" d="m62.81,58.65h0c0,.6.23,1.14.6,1.54.37.4.88.64,1.43.64s1.06-.24,1.43-.64c.37-.39.59-.94.59-1.54v-2.91h-4.05s0,2.9,0,2.9"/><path class="cls-10" d="m62.79,65.61h0c0,.6.23,1.14.6,1.54.37.4.88.64,1.43.64s1.06-.24,1.43-.64c.37-.39.59-.94.59-1.54v-2.91h-4.05s0,2.9,0,2.9"/><path class="cls-10" d="m57.2,58.66h0c0,.6.23,1.14.6,1.54.37.4.88.64,1.43.64s1.07-.24,1.43-.64.59-.94.59-1.54v-2.91h-4.05s0,2.9,0,2.9"/><path class="cls-10" d="m68.41,58.66h0c0,.6.23,1.14.6,1.54.37.4.88.64,1.43.64s1.07-.24,1.43-.64c.37-.39.59-.94.59-1.54v-2.91h-4.05s0,2.9,0,2.9"/><path class="cls-10" d="m62.81,51.63h0c0,.6.23,1.14.6,1.54.37.4.88.64,1.43.64s1.07-.24,1.43-.64c.37-.39.59-.94.59-1.54v-2.91h-4.05s0,2.9,0,2.9"/><polyline class="cls-5" points="54.42 42.22 54.45 43.16 53.34 43.16 53.37 42.22 54.42 42.22"/><path class="cls-5" d="m51.35,45.7c.04-1.49,1.09-1.84,1.1-1.85,0,0,1.14.38,1.14,1.86h-2.24"/><path class="cls-5" d="m50.44,43.87l-.18,1.71h1.12c.01-1.42,1.07-1.65,1.1-1.65.02,0,1.08.31,1.1,1.65h1.12l-.2-1.73h-4.06"/><path class="cls-6" d="m51.44,45.66h-1.26s.2-1.85.2-1.85h4.18s.22,1.85.22,1.85h-1.26v-.07c-.03-1.3-1.04-1.58-1.05-1.58,0,0-1.01.2-1.02,1.58v.07Zm2.2-.13h.98l-.19-1.59h-1.79c.12.06.28.15.43.3.24.22.53.63.56,1.3Zm-3.31,0h.98c.02-.75.34-1.16.61-1.38.12-.09.24-.16.34-.2h-1.76s-.17,1.58-.17,1.58Z"/><path class="cls-5" d="m50.18,45.6h4.58c.1,0,.17.1.17.21s-.08.21-.17.21h-4.58c-.1,0-.18-.09-.18-.21s.08-.21.18-.21"/><path class="cls-6" d="m54.76,46.09h-4.58c-.13,0-.24-.12-.24-.28s.11-.28.24-.28h4.58c.13,0,.24.13.24.28s-.11.28-.24.28Zm-4.58-.42c-.06,0-.11.07-.11.14s.05.14.11.14h4.58c.06,0,.11-.07.11-.14s-.05-.14-.11-.14h-4.58Z"/><path class="cls-5" d="m51.84,45.59c0-.89.61-1.15.61-1.15,0,0,.63.26.64,1.15h-1.25"/><path class="cls-6" d="m53.16,45.65h-1.39v-.07c0-.92.62-1.21.68-1.21h.03s.67.29.68,1.21v.07Zm-1.25-.13h1.11c-.03-.69-.46-.95-.57-1.01-.1.05-.52.31-.54,1.01Z"/><path class="cls-5" d="m50.28,43.17h4.39c.09,0,.17.09.17.19s-.08.19-.17.19h-4.39c-.09,0-.17-.09-.17-.19s.08-.19.17-.19"/><path class="cls-6" d="m54.66,43.61h-4.39c-.13,0-.24-.12-.24-.26s.11-.26.24-.26h4.39c.13,0,.23.12.23.26s-.11.26-.23.26Zm-4.39-.38c-.05,0-.1.06-.1.12s.05.12.1.12h4.39c.05,0,.1-.06.1-.12s-.05-.12-.1-.12h-4.39Z"/><path class="cls-5" d="m50.37,43.55h4.2c.09,0,.16.09.16.19s-.07.19-.16.19h-4.2c-.09,0-.16-.09-.16-.19s.07-.19.16-.19"/><path class="cls-6" d="m54.56,44h-4.2c-.12,0-.23-.12-.23-.26s.1-.26.23-.26h4.2c.13,0,.23.12.23.26s-.1.26-.23.26Zm-4.2-.38s-.09.06-.09.12.04.12.09.12h4.2c.05,0,.09-.06.09-.12s-.04-.12-.09-.12h-4.2Z"/><path class="cls-5" d="m51.74,40.69h.32v.24h.24v-.24h.33v.24h.24v-.24h.33s0,.54,0,.54c0,.08-.07.14-.14.14h-1.17c-.08,0-.15-.06-.15-.14v-.54"/><path class="cls-6" d="m53.07,41.43h-1.19c-.12,0-.22-.1-.22-.21v-.6s.47,0,.47,0v.23h.11v-.24h.47v.24h.11v-.24h.48v.61c0,.12-.1.21-.22.21Zm-1.28-.68v.47s.04.07.09.07h1.19s.08-.02.08-.07v-.48s-.2,0-.2,0v.24h-.38v-.24h-.2v.24h-.38v-.23h-.2Z"/><polyline class="cls-5" points="52.97 41.41 53.05 43.16 51.88 43.15 51.96 41.41 52.97 41.41"/><path class="cls-6" d="m53.12,43.22h-1.3s.08-1.88.08-1.88h1.14s.08,1.88.08,1.88Zm-1.16-.14h1.02s-.07-1.6-.07-1.6h-.88s-.07,1.6-.07,1.6Z"/><path class="cls-5" d="m53.17,41.54h.32v.24h.24v-.24h.33v.24h.24v-.24h.33v.54c0,.09-.07.14-.14.14h-1.17c-.08,0-.15-.06-.15-.14v-.54"/><path class="cls-6" d="m54.52,43.23h-1.25l.04-1.07h1.11v.07h.07s.04,1.01.04,1.01Zm-1.11-.14h.97l-.03-.8h-.92l-.03.8Z"/><path class="cls-6" d="m54.48,42.28h-1.17c-.12,0-.22-.1-.22-.21v-.61h.46v.24h.1v-.24h.47v.24h.1v-.24h.47v.61c0,.12-.09.21-.21.21Zm-1.25-.68v.47s.04.07.08.07h1.17s.08-.02.08-.07v-.48h-.2v.24h-.37v-.24h-.2s0,.24,0,.24h-.37v-.23h-.19Z"/><path class="cls-5" d="m50.3,41.54h.32v.24h.24v-.24h.33v.24h.24v-.24h.33v.54c0,.09-.07.14-.15.14h-1.17c-.08,0-.15-.06-.15-.14v-.54"/><path class="cls-6" d="m51.62,42.29h-1.17c-.12,0-.22-.1-.22-.21v-.6s.07,0,.07,0h.39v.24h.1v-.24h.47v.24h.1v-.24h.47v.61c0,.12-.09.21-.21.21Zm-1.25-.68v.47s.04.07.08.07h1.17s.08-.02.08-.07v-.48h-.2v.24h-.37v-.24h-.2s0,.24,0,.24h-.37v-.24h-.19Z"/><polyline class="cls-5" points="51.55 42.22 51.59 43.16 50.47 43.16 50.51 42.22 51.55 42.22"/><path class="cls-6" d="m51.66,43.23h-1.25l.03-1.07h1.08l.09-.09.04,1.16Zm-1.11-.14h.97l-.03-.8h-.92l-.03.8Z"/><path class="cls-12" d="m52.35,41.96c0-.17.24-.17.23,0v.42h-.23v-.42"/><path class="cls-12" d="m53.79,42.57c0-.16.23-.17.22,0v.32h-.22v-.32"/><path class="cls-12" d="m50.91,42.57c0-.16.23-.17.22,0v.32h-.22v-.32"/><polyline class="cls-5" points="66.76 42.22 66.8 43.16 65.68 43.16 65.71 42.22 66.76 42.22"/><path class="cls-5" d="m63.69,45.7c.04-1.49,1.09-1.84,1.1-1.85,0,0,1.14.38,1.14,1.86h-2.24"/><path class="cls-5" d="m62.78,43.87l-.18,1.71h1.12c.01-1.42,1.07-1.65,1.1-1.65.02,0,1.08.31,1.1,1.65h1.12l-.2-1.73h-4.06"/><path class="cls-6" d="m63.78,45.66h-1.26s.2-1.85.2-1.85h4.18s.22,1.85.22,1.85h-1.26v-.07c-.03-1.29-1.04-1.58-1.05-1.58,0,0-1.01.22-1.02,1.58v.07Zm2.2-.13h.98l-.19-1.59h-1.78c.12.06.28.15.43.29.24.22.53.63.56,1.3Zm-3.31,0h.98c.02-.75.34-1.16.61-1.37.12-.1.25-.17.35-.21h-1.76s-.17,1.58-.17,1.58Z"/><path class="cls-5" d="m62.52,45.6h4.58c.1,0,.18.1.18.21s-.08.21-.18.21h-4.58c-.1,0-.18-.09-.18-.21s.08-.21.18-.21"/><path class="cls-6" d="m67.1,46.09h-4.58c-.13,0-.24-.12-.24-.28s.11-.28.24-.28h4.58c.13,0,.24.13.24.28s-.11.28-.24.28Zm-4.58-.42c-.06,0-.11.07-.11.14s.05.14.11.14h4.58c.06,0,.11-.07.11-.14s-.05-.14-.11-.14h-4.58Z"/><path class="cls-5" d="m64.19,45.59c0-.89.61-1.15.61-1.15,0,0,.63.26.64,1.15h-1.25"/><path class="cls-6" d="m65.5,45.65h-1.39v-.07c0-.92.62-1.21.68-1.21h.03s.67.29.68,1.21v.07Zm-1.25-.13h1.11c-.03-.69-.46-.95-.57-1.01-.1.05-.52.32-.55,1.01Z"/><path class="cls-5" d="m62.62,43.17h4.39c.09,0,.17.09.17.19s-.08.19-.17.19h-4.39c-.09,0-.17-.09-.17-.19s.08-.19.17-.19"/><path class="cls-6" d="m67.01,43.61h-4.39c-.13,0-.23-.12-.23-.26s.11-.26.23-.26h4.39c.13,0,.24.12.24.26s-.11.26-.24.26Zm-4.39-.38c-.05,0-.1.06-.1.12s.05.12.1.12h4.39c.05,0,.1-.06.1-.12s-.05-.12-.1-.12h-4.39Z"/><path class="cls-5" d="m62.71,43.55h4.19c.09,0,.16.09.16.19s-.07.19-.16.19h-4.19c-.09,0-.16-.09-.16-.19s.07-.19.16-.19"/><path class="cls-6" d="m66.91,44h-4.19c-.13,0-.23-.12-.23-.26s.1-.26.23-.26h4.19c.13,0,.23.12.23.26s-.1.26-.23.26Zm-4.19-.38c-.05,0-.09.06-.09.12s.04.12.09.12h4.19c.05,0,.09-.06.09-.12s-.04-.12-.09-.12h-4.19Z"/><path class="cls-5" d="m64.08,40.69h.32v.24h.24v-.24h.33v.24h.24v-.24h.33v.54c0,.08-.07.14-.15.14h-1.17c-.08,0-.15-.06-.15-.14v-.54"/><path class="cls-6" d="m65.41,41.43h-1.19c-.12,0-.22-.1-.22-.21v-.6s.47,0,.47,0v.23h.11v-.24h.48v.24h.11v-.24h.47v.61c0,.12-.09.21-.22.21Zm-1.28-.68v.47s.04.07.09.07h1.19s.08-.02.08-.07v-.48h-.2v.24h-.38v-.24h-.21v.24h-.38v-.23h-.2Z"/><polyline class="cls-5" points="65.31 41.41 65.39 43.16 64.23 43.15 64.3 41.41 65.31 41.41"/><path class="cls-6" d="m65.46,43.22h-1.3s.08-1.88.08-1.88h1.14s.08,1.88.08,1.88Zm-1.16-.14h1.02s-.07-1.6-.07-1.6h-.88s-.07,1.6-.07,1.6Z"/><path class="cls-5" d="m65.51,41.54h.32v.24h.24v-.24h.33v.24h.24v-.24h.33v.54c0,.09-.07.14-.15.14h-1.17c-.08,0-.15-.06-.15-.14v-.54"/><path class="cls-6" d="m66.87,43.23h-1.25l.04-1.07h1.11v.07h.07s.04,1.01.04,1.01Zm-1.11-.14h.97l-.03-.8h-.92l-.03.8Z"/><path class="cls-6" d="m66.83,42.28h-1.17c-.12,0-.22-.1-.22-.21v-.61s.46,0,.46,0v.23h.1v-.24h.47v.24h.1v-.24h.47v.61c0,.12-.09.21-.21.21Zm-1.25-.68v.47s.04.07.08.07h1.17s.08-.02.08-.07v-.48h-.2v.24h-.37v-.24h-.2s0,.24,0,.24h-.37v-.23h-.19Z"/><path class="cls-5" d="m62.64,41.54h.32v.24h.24v-.24h.33v.24h.24v-.24h.33v.54c0,.09-.07.14-.15.14h-1.17c-.08,0-.15-.06-.15-.14v-.54"/><path class="cls-6" d="m63.96,42.29h-1.17c-.12,0-.22-.1-.22-.21v-.6s.07,0,.07,0h.39v.24h.1v-.24h.47v.24h.1v-.24h.47v.61c0,.12-.09.21-.21.21Zm-1.25-.68v.47s.04.07.08.07h1.17s.08-.02.08-.07v-.48s-.2,0-.2,0v.24h-.37v-.24h-.2s0,.24,0,.24h-.37v-.24h-.19Z"/><polyline class="cls-5" points="63.9 42.22 63.93 43.16 62.82 43.16 62.85 42.22 63.9 42.22"/><path class="cls-6" d="m64,43.23h-1.25l.04-1.07h1.11v.07h.07s.04,1.01.04,1.01Zm-1.11-.14h.97l-.03-.8h-.92l-.03.8Z"/><path class="cls-12" d="m64.7,41.96c0-.17.24-.17.23,0v.42h-.23v-.42"/><path class="cls-12" d="m66.13,42.57c0-.16.23-.17.22,0v.32h-.22v-.32"/><path class="cls-12" d="m63.26,42.57c0-.16.23-.17.22,0v.32h-.22v-.32"/><polyline class="cls-5" points="78.97 42.22 79 43.16 77.89 43.16 77.92 42.22 78.97 42.22"/><path class="cls-5" d="m75.9,45.7c.04-1.49,1.09-1.84,1.1-1.85,0,0,1.14.38,1.14,1.86h-2.24"/><path class="cls-5" d="m74.99,43.87l-.18,1.71h1.12c.01-1.42,1.07-1.65,1.1-1.65.02,0,1.08.31,1.1,1.65h1.12l-.2-1.73h-4.06"/><path class="cls-6" d="m75.99,45.66h-1.26s.2-1.85.2-1.85h4.18s.22,1.85.22,1.85h-1.26v-.07c-.03-1.29-1.04-1.58-1.05-1.58,0,0-1.01.22-1.02,1.58v.07Zm2.2-.13h.98l-.19-1.59h-1.78c.12.06.28.15.43.29.24.22.53.63.56,1.3Zm-3.31,0h.98c.02-.75.34-1.16.61-1.37.12-.1.25-.17.35-.21h-1.76s-.17,1.58-.17,1.58Z"/><path class="cls-5" d="m74.73,45.6h4.58c.1,0,.18.1.18.21s-.08.21-.18.21h-4.58c-.1,0-.18-.09-.18-.21s.08-.21.18-.21"/><path class="cls-6" d="m79.3,46.09h-4.58c-.13,0-.24-.12-.24-.28s.11-.28.24-.28h4.58c.13,0,.24.13.24.28s-.11.28-.24.28Zm-4.58-.42c-.06,0-.11.07-.11.14s.05.14.11.14h4.58c.06,0,.11-.07.11-.14s-.05-.14-.11-.14h-4.58Z"/><path class="cls-5" d="m76.39,45.59c0-.89.61-1.15.61-1.15,0,0,.63.26.64,1.15h-1.25"/><path class="cls-6" d="m77.71,45.65h-1.39v-.07c0-.92.62-1.21.68-1.21s.7.31.71,1.21v.07Zm-1.25-.13h1.11c-.03-.68-.46-.95-.57-1.01-.1.05-.52.31-.54,1.01Z"/><path class="cls-5" d="m74.82,43.17h4.39c.09,0,.17.09.17.19s-.08.19-.17.19h-4.39c-.09,0-.17-.09-.17-.19s.08-.19.17-.19"/><path class="cls-6" d="m79.21,43.61h-4.39c-.13,0-.23-.12-.23-.26s.11-.26.23-.26h4.39c.13,0,.24.12.24.26s-.11.26-.24.26Zm-4.39-.38c-.05,0-.1.06-.1.12s.05.12.1.12h4.39c.05,0,.1-.06.1-.12s-.05-.12-.1-.12h-4.39Z"/><path class="cls-5" d="m74.92,43.55h4.19c.09,0,.16.09.16.19s-.07.19-.16.19h-4.19c-.09,0-.16-.09-.16-.19s.07-.19.16-.19"/><path class="cls-6" d="m79.11,44h-4.19c-.13,0-.23-.12-.23-.26s.1-.26.23-.26h4.19c.13,0,.23.12.23.26s-.1.26-.23.26Zm-4.19-.38c-.05,0-.09.06-.09.12s.04.12.09.12h4.19c.05,0,.09-.06.09-.12s-.04-.12-.09-.12h-4.19Z"/><path class="cls-5" d="m76.29,40.69h.32v.24h.24v-.24h.33v.24h.24v-.24h.33v.54c0,.08-.07.14-.15.14h-1.17c-.08,0-.15-.06-.15-.14v-.54"/><path class="cls-6" d="m77.62,41.43h-1.19c-.12,0-.22-.1-.22-.21v-.6s.47,0,.47,0v.23h.11v-.24h.47v.24h.11v-.24h.47v.61c0,.12-.09.21-.22.21Zm-1.28-.68v.47s.04.07.09.07h1.19s.08-.02.08-.07v-.48h-.2v.24h-.38v-.24h-.2v.24h-.38v-.23h-.2Z"/><polyline class="cls-5" points="77.52 41.41 77.59 43.16 76.43 43.15 76.51 41.41 77.52 41.41"/><path class="cls-6" d="m77.67,43.22h-1.3s.08-1.88.08-1.88h1.14s.08,1.88.08,1.88Zm-1.16-.14h1.02s-.07-1.6-.07-1.6h-.88s-.07,1.6-.07,1.6Z"/><path class="cls-5" d="m77.71,41.54h.32v.24h.24v-.24h.33v.24h.24v-.24h.33v.54c0,.09-.07.14-.15.14h-1.17c-.08,0-.15-.06-.15-.14v-.54"/><path class="cls-6" d="m79.07,43.23h-1.25l.04-1.07h1.11v.07h.07s.04,1.01.04,1.01Zm-1.11-.14h.97l-.03-.8h-.92l-.03.8Z"/><path class="cls-6" d="m79.03,42.28h-1.17c-.12,0-.22-.1-.22-.21v-.61h.46v.24h.1v-.24h.47v.24h.1v-.24h.47v.61c0,.12-.09.21-.21.21Zm-1.25-.68v.47s.04.07.08.07h1.17s.08-.02.08-.07v-.48h-.2v.24h-.37v-.24h-.2s0,.24,0,.24h-.37v-.23h-.19Z"/><path class="cls-5" d="m74.85,41.54h.32v.24h.24v-.24h.33v.24h.24v-.24h.33v.54c0,.09-.07.14-.15.14h-1.17c-.08,0-.15-.06-.15-.14v-.54"/><path class="cls-6" d="m76.17,42.29h-1.17c-.12,0-.22-.1-.22-.21v-.6s.07,0,.07,0h.39v.24h.1v-.24h.47v.24h.1v-.24h.47v.61c0,.12-.09.21-.21.21Zm-1.25-.68v.47s.04.07.08.07h1.17s.08-.02.08-.07v-.48s-.2,0-.2,0v.24h-.37v-.24h-.2s0,.24,0,.24h-.37v-.24h-.19Z"/><polyline class="cls-5" points="76.1 42.22 76.14 43.16 75.02 43.16 75.05 42.22 76.1 42.22"/><path class="cls-6" d="m76.21,43.23h-1.25l.04-1.07h1.11v.07h.07s.04,1.01.04,1.01Zm-1.11-.14h.97l-.03-.8h-.92l-.03.8Z"/><path class="cls-12" d="m76.9,41.96c0-.17.24-.17.23,0v.42h-.23v-.42"/><path class="cls-12" d="m78.34,42.57c0-.16.23-.17.22,0v.32h-.22v-.32"/><path class="cls-12" d="m75.46,42.57c0-.16.23-.17.22,0v.32h-.22v-.32"/><polyline class="cls-5" points="54.42 54.73 54.45 55.67 53.34 55.67 53.37 54.73 54.42 54.73"/><path class="cls-5" d="m51.35,58.2c.04-1.49,1.09-1.84,1.1-1.85,0,0,1.14.38,1.14,1.86h-2.24"/><path class="cls-5" d="m50.44,56.38l-.18,1.71h1.12c.01-1.41,1.07-1.65,1.1-1.65.02,0,1.08.31,1.1,1.65h1.12l-.2-1.73h-4.06"/><path class="cls-6" d="m51.44,58.17h-1.26s.2-1.85.2-1.85h4.18s.22,1.85.22,1.85h-1.26v-.07c-.03-1.3-1.04-1.58-1.05-1.58,0,0-1.01.2-1.02,1.58v.07Zm2.2-.14h.98l-.19-1.59h-1.79c.12.06.28.15.43.3.24.22.53.63.56,1.29Zm-3.31,0h.98c.02-.75.34-1.16.61-1.37.12-.1.25-.17.35-.21h-1.76s-.17,1.58-.17,1.58Z"/><path class="cls-5" d="m50.18,58.1h4.58c.1,0,.17.09.17.21s-.08.21-.17.21h-4.58c-.1,0-.18-.09-.18-.21s.08-.21.18-.21"/><path class="cls-6" d="m54.76,58.59h-4.58c-.13,0-.24-.12-.24-.28s.11-.28.24-.28h4.58c.13,0,.24.12.24.28s-.11.28-.24.28Zm-4.58-.42c-.06,0-.11.07-.11.14s.05.14.11.14h4.58c.06,0,.11-.07.11-.14s-.05-.14-.11-.14h-4.58Z"/><path class="cls-5" d="m51.84,58.09c0-.9.61-1.15.61-1.15,0,0,.63.26.64,1.15h-1.25"/><path class="cls-6" d="m53.16,58.16h-1.39v-.07c0-.74.4-1.06.57-1.16.1-.06.12-.06.14-.04.02,0,.67.29.67,1.21v.07Zm-1.25-.13h1.11c-.03-.69-.46-.95-.57-1.01-.1.05-.52.31-.54,1.01Z"/><path class="cls-5" d="m50.28,55.67h4.39c.09,0,.17.08.17.19s-.08.19-.17.19h-4.39c-.09,0-.17-.09-.17-.19s.08-.19.17-.19"/><path class="cls-6" d="m54.66,56.12h-4.39c-.13,0-.24-.12-.24-.26s.11-.26.24-.26h4.39c.13,0,.23.12.23.26s-.11.26-.23.26Zm-4.39-.38c-.05,0-.1.06-.1.12s.05.12.1.12h4.39c.05,0,.1-.06.1-.12s-.05-.12-.1-.12h-4.39Z"/><path class="cls-5" d="m50.37,56.05h4.2c.09,0,.16.09.16.19s-.07.19-.16.19h-4.2c-.09,0-.16-.09-.16-.19s.07-.19.16-.19"/><path class="cls-6" d="m54.56,56.5h-4.2c-.12,0-.23-.12-.23-.26s.1-.26.23-.26h4.2c.13,0,.23.12.23.26s-.1.26-.23.26Zm-4.2-.38s-.09.06-.09.12.04.12.09.12h4.2c.05,0,.09-.06.09-.12s-.04-.12-.09-.12h-4.2Z"/><path class="cls-5" d="m51.74,53.19h.32v.24h.24v-.24h.33v.24h.24v-.24h.33v.54c0,.08-.07.14-.15.14h-1.17c-.08,0-.15-.06-.15-.14v-.54"/><path class="cls-6" d="m53.07,53.94h-1.19c-.12,0-.22-.1-.22-.21v-.6s.47,0,.47,0v.23h.11v-.24h.47v.24h.11v-.24h.48v.61c0,.12-.09.21-.22.21Zm-1.28-.68v.47s.04.07.09.07h1.19s.08-.02.08-.07v-.48s-.2,0-.2,0v.24h-.38v-.24h-.2s0,.24,0,.24h-.38v-.23h-.2Z"/><polyline class="cls-5" points="52.97 53.92 53.05 55.66 51.88 55.66 51.96 53.92 52.97 53.92"/><path class="cls-6" d="m53.12,55.73h-1.3s.08-1.88.08-1.88h1.14s.08,1.88.08,1.88Zm-1.16-.14h1.02s-.07-1.6-.07-1.6h-.88s-.07,1.6-.07,1.6Z"/><path class="cls-5" d="m53.17,54.05h.32v.24h.24v-.24h.33v.24h.24v-.24h.33v.54c0,.08-.07.14-.14.14h-1.17c-.08,0-.15-.06-.15-.14v-.54"/><path class="cls-6" d="m54.52,55.73h-1.25l.04-1.07h1.18l.04,1.07Zm-1.11-.14h.97l-.03-.8h-.92l-.03.8Z"/><path class="cls-6" d="m54.48,54.79h-1.17c-.12,0-.22-.1-.22-.21v-.6h.46v.24h.1v-.24h.47v.24h.1v-.24h.47v.61c0,.12-.09.21-.21.21Zm-1.25-.68v.47s.04.07.08.07h1.17s.08-.02.08-.07v-.48h-.2s0,.24,0,.24h-.37v-.24h-.2s0,.24,0,.24h-.37v-.24h-.19Z"/><path class="cls-5" d="m50.3,54.05h.32v.24h.24v-.24h.33v.24h.24v-.24h.33v.54c0,.08-.07.14-.15.14h-1.17c-.08,0-.15-.06-.15-.14v-.54"/><path class="cls-6" d="m51.62,54.79h-1.17c-.12,0-.22-.1-.22-.21v-.6s.46,0,.46,0v.24h.1v-.24h.47v.24h.1v-.24h.47v.61c0,.12-.09.21-.21.21Zm-1.25-.68v.47s.04.07.08.07h1.17s.08-.02.08-.07v-.48h-.2s0,.24,0,.24h-.37v-.24h-.2s0,.24,0,.24h-.37v-.24h-.19Z"/><polyline class="cls-5" points="51.55 54.73 51.59 55.67 50.47 55.67 50.51 54.73 51.55 54.73"/><path class="cls-6" d="m51.66,55.73h-1.25l.03-1.07h1.18v.07s.04,1.01.04,1.01Zm-1.11-.14h.97l-.03-.8h-.92l-.03.8Z"/><path class="cls-12" d="m52.35,54.47c0-.17.24-.17.23,0v.42h-.23v-.42"/><path class="cls-12" d="m53.79,55.07c0-.16.23-.17.22,0v.32h-.22v-.32"/><path class="cls-12" d="m50.91,55.07c0-.16.23-.17.22,0v.32h-.22v-.32"/><polyline class="cls-5" points="76.37 69.37 75.73 70.06 74.94 69.27 75.63 68.63 76.37 69.37"/><path class="cls-5" d="m71.75,69.66c1.08-1.03,2.08-.53,2.09-.53,0,0,.54,1.08-.51,2.12l-1.57-1.59"/><path class="cls-5" d="m72.39,67.73l-1.34,1.08.79.79c1.01-.99,1.93-.41,1.94-.39.02.02.54.98-.38,1.95l.79.79,1.08-1.36-2.88-2.86"/><path class="cls-6" d="m74.19,72.05l-.89-.89.05-.05c.9-.94.38-1.85.38-1.86h0s-.86-.57-1.84.4l-.05.05-.89-.89,1.44-1.17,2.97,2.95-1.16,1.47Zm-.7-.89l.69.69.99-1.26-1.27-1.26c.04.12.09.31.1.52.01.33-.07.82-.52,1.31Zm-2.34-2.34l.69.69c.54-.51,1.06-.58,1.4-.54.16.02.3.06.4.1l-1.25-1.24-1.24,1Z"/><path class="cls-5" d="m70.99,68.76l3.24,3.24c.07.07.06.19-.03.27-.08.08-.2.09-.27.03l-3.24-3.24c-.07-.07-.06-.19.02-.27.08-.08.21-.09.27-.03"/><path class="cls-6" d="m74.04,72.41c-.06,0-.12-.02-.16-.06l-3.24-3.24c-.09-.09-.08-.26.02-.37.11-.11.28-.12.37-.03l3.24,3.24c.09.09.08.26-.03.37-.06.06-.13.09-.21.09Zm-3.16-3.62s-.08.02-.11.05c-.03.03-.05.06-.05.1,0,.03,0,.06.02.08l3.24,3.24s.12.03.18-.03c.03-.03.05-.07.05-.1,0-.03,0-.06-.02-.08l-3.24-3.24s-.04-.02-.06-.02Z"/><path class="cls-5" d="m72.17,69.93c.64-.63,1.24-.38,1.25-.38,0,0,.26.63-.36,1.26l-.88-.88"/><path class="cls-6" d="m73.05,70.91l-.98-.98.05-.05c.66-.65,1.3-.42,1.34-.38v.02s.29.68-.36,1.33l-.05.05Zm-.79-.98l.79.79c.46-.5.35-1,.31-1.11-.11-.04-.58-.15-1.1.33Z"/><path class="cls-5" d="m72.77,67.11l3.1,3.1c.06.07.06.18-.02.25-.07.07-.19.08-.25.01l-3.1-3.1c-.06-.07-.06-.18.02-.25.07-.08.19-.08.25-.02"/><path class="cls-6" d="m75.72,70.59c-.06,0-.12-.02-.16-.06l-3.1-3.1s-.06-.1-.06-.16c0-.07.03-.14.08-.19.05-.05.11-.08.17-.08.06,0,.13.02.18.06l3.1,3.1s.06.1.06.16c0,.07-.03.14-.08.19-.05.05-.12.08-.19.08Zm-3.06-3.46s0,0,0,0c-.03,0-.06.02-.08.04-.03.03-.04.06-.04.09,0,.02,0,.04.02.06l3.1,3.1s.11.03.16-.02c.03-.03.04-.06.04-.09,0-.02,0-.04-.02-.06l-3.1-3.1s-.04-.02-.07-.02Z"/><path class="cls-5" d="m72.57,67.45l2.97,2.97c.06.06.05.17-.02.25-.07.07-.19.08-.25.02l-2.97-2.97c-.06-.06-.05-.17.02-.25s.19-.08.25-.02"/><path class="cls-6" d="m75.37,70.79h0c-.06,0-.11-.02-.15-.06l-2.97-2.97c-.09-.09-.08-.24.02-.34.05-.05.12-.08.19-.08h0c.06,0,.11.02.15.06l2.97,2.97c.09.09.08.24-.02.34-.05.05-.12.08-.19.08Zm-2.91-3.32s-.07.02-.1.04c-.05.05-.06.12-.02.15l2.97,2.97s.04.02.06.02c.03,0,.07-.02.09-.04.05-.05.06-.12.02-.15l-2.97-2.97s-.04-.02-.06-.02h0Z"/><path class="cls-5" d="m75.56,66.39l.23.23-.17.17.17.17.17-.17.23.24-.17.17.17.17.17-.17.23.24-.38.38c-.06.06-.15.05-.2,0l-.82-.82c-.06-.06-.06-.15,0-.21l.38-.38"/><path class="cls-6" d="m76.13,67.93c-.05,0-.11-.02-.15-.06l-.84-.84c-.09-.09-.09-.22,0-.31l.5-.5v.14l.26.26-.17.17.08.08.17-.17.33.34-.17.17.08.08.17-.17.34.34-.43.43s-.09.06-.15.06Zm-.58-1.45l-.33.33s-.02.08,0,.11l.84.84s.07.04.11,0l.34-.34-.14-.15-.17.17-.27-.27.17-.17-.14-.15-.17.17-.27-.26.17-.17-.14-.14Z"/><polyline class="cls-5" points="75.92 67.78 74.74 69.06 73.92 68.24 75.21 67.06 75.92 67.78"/><path class="cls-6" d="m74.74,69.16l-.92-.93,1.39-1.27.8.81-1.27,1.38Zm-.72-.92l.72.73,1.09-1.19-.62-.63-1.19,1.09Z"/><path class="cls-5" d="m75.97,68.01l.23.23-.17.17.17.17.17-.17.23.24-.17.17.17.17.17-.17.23.23-.38.38c-.06.06-.15.05-.2,0l-.82-.82c-.06-.06-.06-.15,0-.21l.38-.38"/><path class="cls-6" d="m75.73,70.16l-.89-.89.79-.73.9.9h-.14l-.67.72Zm-.69-.88l.69.69.55-.59-.65-.65-.59.55Z"/><path class="cls-6" d="m76.53,69.53h0c-.06,0-.11-.02-.15-.07l-.82-.82c-.08-.08-.09-.22,0-.3l.43-.43.32.33-.17.17.07.07.17-.17.33.33-.17.17.07.07.17-.17.33.33-.43.43s-.09.06-.14.06Zm-.56-1.43l-.33.33s-.02.08,0,.11l.82.82s.04.03.06.03h0s.03,0,.05-.02l.34-.34-.14-.14-.17.17-.26-.26.17-.17-.14-.14-.17.17-.26-.26.17-.17-.13-.13Z"/><path class="cls-5" d="m73.94,65.98l.23.23-.17.17.17.17.17-.17.23.24-.17.17.17.17.17-.17.23.23-.38.38c-.06.06-.15.05-.2,0l-.82-.83c-.06-.06-.06-.15,0-.21l.38-.38"/><path class="cls-6" d="m74.5,67.5c-.05,0-.11-.02-.15-.06l-.82-.82c-.08-.08-.09-.22,0-.3l.43-.43.32.33-.17.17.07.07.17-.17.33.33-.17.17.07.07.17-.17.33.33-.43.43s-.09.06-.15.06Zm-.55-1.43l-.33.33s-.02.08,0,.11l.82.82s.07.04.11,0l.34-.34-.14-.14-.17.17-.26-.26.17-.17-.14-.14-.17.17-.26-.26.17-.17-.13-.13Z"/><polyline class="cls-5" points="74.35 67.35 73.71 68.04 72.92 67.25 73.61 66.61 74.35 67.35"/><path class="cls-6" d="m73.71,68.13l-.89-.89.79-.73.83.83-.73.79Zm-.69-.88l.69.69.55-.59-.65-.65-.59.55Z"/><path class="cls-12" d="m75.09,67.73c.11-.13.29.05.17.16l-.29.29-.16-.17.29-.29"/><path class="cls-12" d="m75.68,69.17c.11-.12.28.04.16.16l-.23.23-.16-.16.23-.23"/><path class="cls-12" d="m73.65,67.14c.11-.12.28.04.16.16l-.23.23-.16-.16.23-.23"/><polyline class="cls-5" points="78.95 54.73 78.98 55.67 77.87 55.67 77.9 54.73 78.95 54.73"/><path class="cls-5" d="m75.88,58.2c.04-1.49,1.09-1.84,1.1-1.85,0,0,1.14.38,1.14,1.86h-2.24"/><path class="cls-5" d="m74.97,56.38l-.18,1.71h1.12c.01-1.41,1.07-1.65,1.1-1.65.02,0,1.08.31,1.1,1.65h1.12l-.2-1.73h-4.06"/><path class="cls-6" d="m75.97,58.17h-1.26s.19-1.85.19-1.85h.07s4.12-.01,4.12-.01l.22,1.86h-1.26v-.07c-.03-1.3-1.04-1.58-1.05-1.58,0,0-1.01.2-1.02,1.58v.07Zm2.2-.14h.98l-.19-1.59h-1.79c.12.06.28.15.43.3.24.22.53.63.56,1.3Zm-3.31,0h.98c.02-.75.34-1.16.61-1.37.12-.1.25-.17.35-.21h-1.76s-.17,1.58-.17,1.58Z"/><path class="cls-5" d="m74.71,58.1h4.58c.1,0,.17.09.17.21s-.08.21-.17.21h-4.58c-.1,0-.18-.1-.18-.21s.08-.21.18-.21"/><path class="cls-6" d="m79.28,58.59h-4.58c-.13,0-.24-.12-.24-.28s.11-.28.24-.28h4.58c.13,0,.24.13.24.28s-.11.28-.24.28Zm-4.58-.42c-.06,0-.11.07-.11.14s.05.14.11.14h4.58c.06,0,.11-.07.11-.14s-.05-.14-.11-.14h-4.58Z"/><path class="cls-5" d="m76.37,58.09c0-.9.61-1.15.61-1.15,0,0,.63.26.64,1.15h-1.25"/><path class="cls-6" d="m77.69,58.16h-1.39v-.07c0-.78.45-1.1.59-1.18.06-.04.09-.05.12-.03h0c.15.06.67.39.67,1.2v.07Zm-1.25-.13h1.11c-.03-.68-.46-.95-.57-1.01-.1.05-.51.31-.54,1.01Z"/><path class="cls-5" d="m74.81,55.67h4.39c.09,0,.17.09.17.19s-.08.19-.17.19h-4.39c-.09,0-.17-.09-.17-.19s.08-.19.17-.19"/><path class="cls-6" d="m79.19,56.12h-4.39c-.13,0-.24-.12-.24-.26s.11-.26.24-.26h4.39c.13,0,.23.12.23.26s-.11.26-.23.26Zm-4.39-.38c-.05,0-.1.06-.1.12s.05.12.1.12h4.39c.05,0,.1-.06.1-.12s-.05-.12-.1-.12h-4.39Z"/><path class="cls-5" d="m74.9,56.05h4.2c.09,0,.16.08.16.19s-.07.19-.16.19h-4.2c-.09,0-.16-.09-.16-.19s.07-.19.16-.19"/><path class="cls-6" d="m79.09,56.5h-4.2c-.13,0-.23-.12-.23-.26s.1-.26.23-.26h4.2c.13,0,.23.12.23.26s-.1.26-.23.26Zm-4.2-.38c-.05,0-.09.06-.09.12s.04.12.09.12h4.2c.05,0,.09-.06.09-.12s-.04-.12-.09-.12h-4.2Z"/><path class="cls-5" d="m76.27,53.19h.32v.24h.24v-.24h.33v.24h.24v-.24h.33v.54c0,.08-.07.14-.14.14h-1.17c-.08,0-.15-.06-.15-.14v-.54"/><path class="cls-6" d="m77.6,53.94h-1.19c-.12,0-.22-.1-.22-.21v-.6s.47,0,.47,0v.24h.11v-.24h.48v.24h.11v-.24h.48v.61c0,.12-.09.21-.22.21Zm-1.28-.68v.47s.04.07.09.07h1.19s.08-.02.08-.07v-.48h-.21v.24h-.38v-.24h-.21s0,.24,0,.24h-.38v-.24h-.2Z"/><polyline class="cls-5" points="77.5 53.92 77.58 55.66 76.41 55.66 76.49 53.92 77.5 53.92"/><path class="cls-6" d="m77.65,55.73h-1.3s.08-1.88.08-1.88h1.14s.08,1.88.08,1.88Zm-1.16-.14h1.02s-.07-1.6-.07-1.6h-.88s-.07,1.6-.07,1.6Z"/><path class="cls-5" d="m77.69,54.05h.32v.24h.24v-.24h.33v.24h.24v-.24h.33v.54c0,.08-.07.14-.15.14h-1.17c-.08,0-.15-.06-.15-.14v-.54"/><path class="cls-6" d="m77.8,55.74l.04-1.08h1.18l.04,1.07h-1.25Zm.17-.94l-.03.8h.97s-.03-.8-.03-.8h-.92Z"/><path class="cls-6" d="m79.01,54.79h-1.17c-.12,0-.22-.1-.22-.21v-.61h.46v.24h.1v-.24h.47v.24h.1v-.24h.47v.61c0,.12-.09.21-.21.21Zm-1.25-.68v.47s.04.07.08.07h1.17s.08-.02.08-.07v-.48h-.2s0,.24,0,.24h-.37v-.24h-.2s0,.24,0,.24h-.37v-.24h-.19Z"/><path class="cls-5" d="m74.83,54.05h.32v.24h.24v-.24h.33v.24h.24v-.24h.33v.54c0,.08-.07.14-.15.14h-1.17c-.08,0-.15-.06-.15-.14v-.54"/><path class="cls-6" d="m76.15,54.79h-1.17c-.12,0-.22-.1-.22-.21v-.6s.46,0,.46,0v.23h.1v-.24h.47v.24h.1v-.24h.47v.61c0,.12-.09.21-.21.21Zm-1.25-.68v.47s.04.07.08.07h1.17s.08-.02.08-.07v-.48h-.2s0,.24,0,.24h-.37v-.24h-.2s0,.24,0,.24h-.37v-.23h-.19Z"/><polyline class="cls-5" points="76.08 54.73 76.12 55.67 75 55.67 75.04 54.73 76.08 54.73"/><path class="cls-6" d="m74.94,55.74l.03-1.08h1.18l.04,1.07h-1.25Zm.17-.94l-.03.8h.97s-.03-.8-.03-.8h-.92Z"/><path class="cls-12" d="m76.88,54.47c0-.17.24-.17.23,0v.42h-.23v-.42"/><path class="cls-12" d="m78.32,55.07c0-.16.23-.17.22,0v.32h-.22v-.32"/><path class="cls-12" d="m75.44,55.07c0-.16.23-.17.22,0v.32h-.22v-.32"/><polyline class="cls-5" points="55.93 66.6 56.62 67.24 55.83 68.02 55.19 67.34 55.93 66.6"/><path class="cls-5" d="m56.22,71.22c-1.03-1.08-.53-2.08-.53-2.09,0,0,1.08-.54,2.12.51l-1.6,1.57"/><path class="cls-5" d="m54.29,70.58l1.08,1.34.79-.79c-.99-1.01-.41-1.93-.39-1.94.02-.02.98-.54,1.95.38l.79-.79-1.36-1.08-2.86,2.88"/><path class="cls-6" d="m55.36,72.02l-1.14-1.42v-.05l2.92-2.94,1.47,1.16-.89.89-.05-.05c-.94-.9-1.85-.38-1.86-.38,0,0-.56.87.39,1.84l.05.05-.89.89Zm-.99-1.44l1,1.24.69-.69c-.51-.55-.58-1.06-.54-1.41.02-.15.06-.29.1-.39l-1.25,1.25Zm2.09-1.62c.33,0,.79.1,1.25.52l.69-.69-1.26-.99-1.26,1.27c.12-.04.29-.09.49-.1.03,0,.05,0,.08,0Z"/><path class="cls-5" d="m55.32,71.98l3.24-3.24c.07-.07.19-.06.27.03.08.08.09.2.02.27l-3.24,3.24c-.07.07-.19.06-.27-.03-.08-.08-.09-.21-.03-.27"/><path class="cls-6" d="m55.51,72.39c-.07,0-.15-.03-.21-.09-.11-.11-.12-.27-.03-.37l3.24-3.24c.09-.09.26-.08.37.03.11.11.12.27.02.37l-3.24,3.24s-.1.06-.16.06Zm3.16-3.62s-.05,0-.06.02l-3.24,3.24s-.03.12.03.18c.05.05.14.07.18.03l3.24-3.24s.03-.12-.03-.18c-.03-.03-.08-.05-.11-.05Z"/><path class="cls-5" d="m56.49,70.8c-.63-.64-.38-1.24-.38-1.25,0,0,.63-.26,1.26.36l-.88.88"/><path class="cls-6" d="m56.44,70.85c-.47-.47-.47-.93-.43-1.16.03-.17.06-.18.07-.19.03-.01.68-.27,1.34.37l.05.05-.93.93-.05-.05-.05.05Zm-.28-1.24c-.03.11-.14.59.33,1.1l.79-.79c-.51-.46-.99-.35-1.11-.31Z"/><path class="cls-5" d="m53.67,70.19l3.1-3.1c.06-.06.18-.06.25.02.07.07.08.19.02.25l-3.1,3.1c-.06.06-.18.06-.25-.02-.07-.07-.08-.19-.02-.25"/><path class="cls-6" d="m53.82,70.57s-.01,0-.01,0c-.06,0-.13-.03-.17-.08-.05-.05-.08-.12-.08-.19,0-.06.02-.12.06-.16l3.1-3.1s.11-.06.17-.06c.06,0,.13.03.17.08.1.1.11.26.02.35l-3.1,3.1s-.1.06-.16.06Zm3.06-3.46s-.05,0-.06.02l-3.1,3.1s-.02.04-.02.06c0,.03.01.07.04.09.02.02.05.04.09.04.03,0,.05,0,.07-.02l3.1-3.1s.03-.11-.02-.16c-.02-.02-.05-.04-.09-.04,0,0,0,0,0,0Z"/><path class="cls-5" d="m54,70.4l2.97-2.97c.06-.06.18-.05.25.02.07.07.08.18.02.25l-2.97,2.97c-.06.06-.17.05-.25-.02-.07-.08-.08-.19-.02-.25"/><path class="cls-6" d="m54.17,70.77c-.07,0-.14-.03-.19-.08-.1-.1-.11-.25-.02-.34h0s2.97-2.97,2.97-2.97c.09-.09.24-.08.34.02.05.05.08.12.08.19,0,.06-.02.11-.06.15l-2.97,2.97s-.09.06-.15.06h0Zm-.12-.33s-.03.11.02.15c.03.03.06.04.1.04h0s.04,0,.06-.02l2.97-2.97s.02-.04.02-.06c0-.03-.02-.07-.04-.09-.05-.05-.12-.06-.15-.02l-2.97,2.97Z"/><path class="cls-5" d="m52.95,67.41l.23-.23.17.17.17-.17-.17-.17.24-.23.17.17.17-.17-.17-.17.24-.23.38.38c.06.06.05.15,0,.2l-.82.82c-.06.06-.15.06-.21,0l-.38-.38"/><path class="cls-6" d="m53.42,67.9c-.05,0-.11-.02-.15-.06l-.4-.4v-.06l.02-.02.28-.28.17.17.08-.08-.17-.17.34-.34.17.17.08-.08-.17-.17.34-.34.43.43c.08.08.08.21,0,.3l-.84.84s-.1.07-.16.07Zm-.38-.48l.33.33s.08.02.11,0l.84-.84s.04-.07,0-.11l-.34-.34-.14.15.17.17-.27.27-.17-.17-.14.14.17.17-.27.26-.17-.17-.14.14Z"/><polyline class="cls-5" points="54.34 67.05 55.62 68.23 54.8 69.05 53.62 67.76 54.34 67.05"/><path class="cls-6" d="m54.8,69.15l-1.27-1.39.81-.8,1.38,1.27-.92.92Zm-1.08-1.38l1.09,1.19.72-.72-1.18-1.09-.63.62Z"/><path class="cls-5" d="m54.56,67l.23-.23.17.17.17-.17-.17-.17.24-.23.17.17.17-.17-.17-.17.23-.23.38.38c.06.06.05.15,0,.2l-.82.83c-.06.06-.15.06-.21,0l-.38-.38"/><path class="cls-6" d="m55.83,68.12l-.73-.79.83-.83.79.73-.89.89Zm-.55-.78l.55.59.69-.69-.59-.55-.65.65Z"/><path class="cls-6" d="m55.04,67.48c-.05,0-.11-.02-.15-.06l-.4-.4v-.06l.02-.02.28-.28.17.17.07-.07-.17-.17.33-.33.17.17.07-.07-.17-.17.33-.33.43.43s.06.09.06.15c0,.06-.02.11-.07.15l-.82.82s-.1.06-.16.06Zm-.38-.48l.33.33s.08.02.11,0l.82-.82s.03-.04.03-.06c0-.02,0-.03-.02-.05l-.34-.34-.14.14.17.17-.26.26-.17-.17-.14.14.17.17-.26.26-.17-.17-.13.13Z"/><path class="cls-5" d="m52.54,69.03l.23-.23.17.17.17-.17-.17-.17.24-.23.17.17.17-.17-.17-.17.23-.23.38.38c.06.06.05.15,0,.2l-.83.82c-.06.06-.15.06-.21,0l-.38-.38"/><path class="cls-6" d="m53.02,69.51c-.05,0-.11-.02-.15-.06l-.43-.43.33-.32.17.17.07-.07-.17-.17.33-.33.17.17.07-.07-.17-.17.33-.33.43.43s.06.09.06.14c0,.06-.02.11-.06.15l-.83.82s-.1.06-.16.06Zm-.38-.49l.33.33s.08.02.11,0l.83-.82s.03-.04.02-.06c0-.02,0-.03-.02-.05l-.34-.34-.14.14.17.17-.26.26-.17-.17-.14.14.17.17-.26.26-.17-.17-.13.13Z"/><polyline class="cls-5" points="53.91 68.62 54.59 69.26 53.81 70.05 53.17 69.36 53.91 68.62"/><path class="cls-6" d="m53.81,70.15l-.73-.79.83-.83.79.73-.89.89Zm-.55-.78l.55.59.69-.69-.59-.55-.65.65Z"/><path class="cls-12" d="m54.29,67.88c-.13-.11.05-.29.17-.17l.29.29-.16.16-.29-.29"/><path class="cls-12" d="m55.73,67.29c-.12-.11.04-.28.16-.16l.23.23-.16.16-.23-.23"/><path class="cls-12" d="m53.7,69.32c-.12-.11.04-.28.16-.16l.23.23-.16.16-.23-.23"/><path class="cls-7" d="m65.96,65.61c-.22,0-.4.18-.4.4s.18.4.4.4.4-.18.4-.4-.18-.4-.4-.4"/><path class="cls-7" d="m63.74,65.62c-.22,0-.4.18-.4.4s.18.4.4.4.4-.18.4-.4-.18-.4-.4-.4"/><path class="cls-7" d="m64.84,64.49c-.22,0-.4.18-.4.4s.18.4.4.4.4-.18.4-.4-.18-.4-.4-.4"/><path class="cls-7" d="m65.97,63.41c-.22,0-.4.18-.4.4s.18.4.4.4.4-.18.4-.4-.18-.4-.4-.4"/><path class="cls-7" d="m71.59,58.66c-.22,0-.4.18-.4.4s.18.4.4.4.4-.18.4-.4-.18-.4-.4-.4"/><path class="cls-7" d="m69.39,58.67c-.22,0-.4.18-.4.4s.18.4.4.4.4-.18.4-.4-.18-.4-.4-.4"/><path class="cls-7" d="m70.46,57.54c-.22,0-.4.18-.4.4s.18.4.4.4.4-.18.4-.4-.18-.4-.4-.4"/><path class="cls-7" d="m71.59,56.46c-.22,0-.4.18-.4.4s.18.4.4.4.4-.18.4-.4-.18-.4-.4-.4"/><path class="cls-7" d="m69.39,56.46c-.22,0-.4.18-.4.4s.18.4.4.4.4-.18.4-.4-.18-.4-.4-.4"/><path class="cls-7" d="m65.98,58.65c-.22,0-.4.18-.4.4s.18.4.4.4.4-.18.4-.4-.18-.4-.4-.4"/><path class="cls-7" d="m63.74,58.66c-.22,0-.4.18-.4.4s.18.4.4.4.4-.18.4-.4-.18-.4-.4-.4"/><path class="cls-7" d="m64.86,57.53c-.22,0-.4.18-.4.4s.18.4.4.4.4-.18.4-.4-.18-.4-.4-.4"/><path class="cls-7" d="m65.99,56.45c-.22,0-.4.18-.4.4s.18.4.4.4.4-.18.4-.4-.18-.4-.4-.4"/><path class="cls-7" d="m63.74,56.45c-.22,0-.4.18-.4.4s.18.4.4.4.4-.18.4-.4-.18-.4-.4-.4"/><path class="cls-7" d="m60.37,58.67c-.22,0-.4.18-.4.4s.18.4.4.4.4-.18.4-.4-.18-.4-.4-.4"/><path class="cls-7" d="m58.18,58.67c-.22,0-.4.18-.4.4s.18.4.4.4.4-.18.4-.4-.18-.4-.4-.4"/><path class="cls-7" d="m59.25,57.54c-.22,0-.4.18-.4.4s.18.4.4.4.4-.18.4-.4-.18-.4-.4-.4"/><path class="cls-7" d="m60.37,56.46c-.22,0-.4.18-.4.4s.18.4.4.4.4-.18.4-.4-.18-.4-.4-.4"/><path class="cls-7" d="m63.74,63.41c-.22,0-.4.18-.4.4s.18.4.4.4.4-.18.4-.4-.18-.4-.4-.4"/><path class="cls-8" d="m58.17,56.46c-.22,0-.4.18-.4.4s.18.4.4.4.4-.18.4-.4-.18-.4-.4-.4"/><path class="cls-7" d="m63.74,49.42c-.22,0-.4.18-.4.4s.18.4.4.4.4-.18.4-.4-.18-.4-.4-.4"/><path class="cls-7" d="m65.94,49.42c-.22,0-.4.18-.4.4s.18.4.4.4.4-.18.4-.4-.18-.4-.4-.4"/><path class="cls-7" d="m64.81,50.5c-.22,0-.4.18-.4.4s.18.4.4.4.4-.18.4-.4-.18-.4-.4-.4"/><path class="cls-7" d="m65.94,51.63c-.22,0-.4.18-.4.4s.18.4.4.4.4-.18.4-.4-.18-.4-.4-.4"/><path class="cls-7" d="m63.74,51.63c-.22,0-.4.18-.4.4s.18.4.4.4.4-.18.4-.4-.18-.4-.4-.4"/><path class="cls-7" d="m58.17,56.46c-.22,0-.4.18-.4.4s.18.4.4.4.4-.18.4-.4-.18-.4-.4-.4"/></g></svg>