<?xml version="1.0" encoding="UTF-8"?><svg id="flags" xmlns="http://www.w3.org/2000/svg" viewBox="0 0 162 116"><defs><style>.cls-1{fill:#fff;}.cls-1,.cls-2,.cls-3{stroke-width:0px;}.cls-2{fill:red;}.cls-3{fill:#00008b;}</style></defs><g id="AUSTRALIA"><path class="cls-3" d="m0,17.5h162v81H0V17.5Z"/><g id="Commonwealth_Star"><polygon id="Star7" class="cls-1" points="40.5 66.1 42.84 73.38 50 70.67 45.76 77.05 52.35 80.95 44.72 81.62 45.77 89.2 40.5 83.65 35.23 89.2 36.28 81.62 28.65 80.95 35.24 77.05 31 70.67 38.16 73.38 40.5 66.1"/></g><g id="Star_Alpha_Crucis"><polygon id="Star7-2" class="cls-1" points="121.5 79.21 122.62 82.68 126.02 81.39 124.01 84.43 127.14 86.29 123.51 86.6 124.01 90.21 121.5 87.57 118.99 90.21 119.49 86.6 115.86 86.29 118.99 84.43 116.98 81.39 120.38 82.68 121.5 79.21"/></g><g id="Star_Beta_Crucis"><polygon id="Star7-3" class="cls-1" points="101.25 47.15 102.37 50.62 105.77 49.33 103.76 52.37 106.89 54.22 103.26 54.54 103.76 58.15 101.25 55.51 98.74 58.15 99.24 54.54 95.61 54.22 98.74 52.37 96.73 49.33 100.13 50.62 101.25 47.15"/></g><g id="Star_Gamma_Crucis"><polygon id="Star7-4" class="cls-1" points="121.5 25.21 122.62 28.68 126.02 27.39 124.01 30.43 127.14 32.29 123.51 32.6 124.01 36.21 121.5 33.57 118.99 36.21 119.49 32.6 115.86 32.29 118.99 30.43 116.98 27.39 120.38 28.68 121.5 25.21"/></g><g id="Star_Delta_Crucis"><polygon id="Star7-5" class="cls-1" points="139.5 41.75 140.62 45.22 144.02 43.93 142.01 46.97 145.14 48.82 141.51 49.14 142.01 52.75 139.5 50.11 136.99 52.75 137.49 49.14 133.86 48.82 136.99 46.97 134.98 43.93 138.38 45.22 139.5 41.75"/></g><g id="Star_Epsilon_Crucis"><polygon id="Star5" class="cls-1" points="129.6 58 130.48 60.16 132.81 60.33 131.03 61.84 131.58 64.11 129.6 62.88 127.62 64.11 128.17 61.84 126.39 60.33 128.72 60.16 129.6 58"/></g><path id="White_Cross" class="cls-1" d="m33.75,17.5h13.5v13.5h33.75v13.5h-33.75v13.5h-13.5v-13.5H0v-13.5h33.75v-13.5Z"/><path id="White_Diagonal" class="cls-1" d="m0,17.5h9.06l71.94,35.97v4.53h-9.06L0,22.03v-4.53Z"/><g id="White_Diagonal_Flipped"><path id="White_Diagonal-2" class="cls-1" d="m81,17.5h-9.06L0,53.47v4.53h9.06L81,22.03v-4.53Z"/></g><path id="Red_Cross" class="cls-2" d="m36.45,17.5h8.1v16.2h36.45v8.1h-36.45v16.2h-8.1v-16.2H0v-8.1h36.45v-16.2Z"/><path id="Red_Diagonals" class="cls-2" d="m0,17.5l27,13.5h-6.04L0,20.52v-3.02Zm81,0h-6.04l-27,13.5h6.04l27-13.5Z"/><g id="Red_Diagonals_Rotated"><path id="Red_Diagonals-2" class="cls-2" d="m81,58l-27-13.5h6.04l20.96,10.48v3.02ZM0,58h6.04l27-13.5h-6.04L0,58Z"/></g></g></svg>