<svg xmlns="http://www.w3.org/2000/svg" id="flags" viewBox="0 0 162 116"><defs><style>.cls-1{fill:#703d29;}.cls-1,.cls-2,.cls-3,.cls-4,.cls-5,.cls-6,.cls-7,.cls-8,.cls-9{stroke-width:0px;}.cls-2{fill:#c7b37f;}.cls-3{fill:#d52b1e;}.cls-4{fill:#d0103a;}.cls-5{fill:#fedf00;}.cls-6{fill:#fff;}.cls-7{fill:#fcd900;}.cls-8{fill:#0065bd;}.cls-9{fill:#0018a8;}</style></defs><g id="ANDORRA"><rect class="cls-4" y="1.3" width="162" height="113.4"></rect><rect class="cls-5" y="1.3" width="110.16" height="113.4"></rect><rect class="cls-9" y="1.3" width="51.84" height="113.4"></rect><path class="cls-2" d="m76.04,31.83c1.95,0,2.75,1.67,4.7,1.67,1.21,0,1.91-.39,2.96-.99.73-.42,1.2-.64,2.04-.64s1.39.26,1.83,1c.25.42.46,1.24.35,1.71-.21.89-.34,1.28-.69,2.1-.17.4-.33.63-.33,1.06,0,1.04,1.41,1.39,2.37,1.41.21,0,1.97.03,3.05-1.06-.59-.03-1.24-.48-1.24-1.07,0-.66.47-1.11,1.1-1.31.12-.03.32.07.43.01.15-.08.08-.25.22-.36.31-.25.52-.41.92-.41.26,0,.42.04.63.19.11.08.15.18.29.18.29,0,.43-.18.72-.18.23,0,.38.03.58.14.17.09.17.38.36.38.1,0,.61-.21.88-.21.56,0,.86.2,1.22.63.1.11.16.35.26.35.2,0,.66.13.94.41.12.12.18.18.27.33.07.11.17.36.28.41.14.05.25.04.43.16.41.26.72.76.71,1.23,0,.16-.08.38-.12.54-.48,1.67-1.61,2.19-2.76,3.63-.49.61-.87,1.1-.87,1.88,0,.19.23.53.34.69-.06-.37.1-.82.49-.84.53-.03.94.38,1.01.9.01.12-.03.34-.08.46.29-.19.66-.32,1.01-.36.19-.02.29-.03.48-.02.85.02,1.79.5,2.36.98,1.74,1.48,1.95,3.64,1.86,4.24-.21,1.34-.08,3.75-3.49,4.72.63.27,1.06.74,1.06,1.32,0,.64-.49,1.18-1.12,1.18-.36,0-.62-.09-.87-.34-.71.71-.85,1.43-.85,2.44,0,.6.11.96.37,1.5.27.58.46.91.94,1.33.25-.38.52-.66.98-.66s.82.14,1.01.55c.05.12,0,.22.07.34.08.15.21.19.3.34.13.24,0,.44.11.69.07.16.23.18.3.34.11.25.14.42.14.69,0,.76-.69,1.31-1.45,1.31-.23,0-.35-.09-.58-.07.44.44.77.62,1.1,1.14.48.75.6,1.29.71,2.18.02.17.02.27.02.44,0,1.14-.18,1.82-.69,2.84-.49.98-.9,1.52-1.79,2.15-1.38.99-2.38,1.28-4.05,1.6-1.07.21-1.68.3-2.77.37-1.39.09-2.18.09-3.57.18-1.82.12-3.08.38-4.37,1.67.61.45,1.03.88,1.03,1.64s-.48,1.33-1.21,1.57c-.17.06-.3,0-.46.09-.19.1-.18.32-.37.44-.32.21-.58.25-.96.25-.68,0-1.15-.16-1.63-.64-.56.46-.75.88-1.37,1.24-.21.11-.31.27-.55.27-.37,0-.55-.24-.85-.46-.48-.35-.73-.58-1.12-1.03-.57.34-.92.62-1.58.62-.41,0-.66-.06-1.01-.27-.18-.11-.21-.28-.39-.39-.19-.12-.35-.07-.55-.16-.76-.33-1.26-.9-1.26-1.73,0-.73.46-1.19,1.12-1.5-1.27-1.27-2.52-1.49-4.31-1.6-1.38-.09-2.17-.09-3.55-.18-1.1-.07-1.71-.19-2.79-.37-.82-.13-1.31-.18-2.06-.53-2.59-1.21-4.24-2.87-4.58-5.7-.03-.24-.02-.38-.02-.63,0-1.48.58-2.38,1.63-3.42-.27-.06-.45.03-.71-.07-.65-.24-1.12-.69-1.12-1.39,0-.26.01-.43.14-.65.09-.16.26-.19.3-.37.05-.23-.02-.4.09-.62.07-.15.21-.17.27-.32.23-.47.51-.85,1.03-.85.45,0,.73.23.96.62.44-.2.56-.53.8-.94.41-.68.6-1.16.6-1.96,0-.56-.05-.88-.23-1.41-.13-.38-.18-.64-.46-.92-.25.25-.51.34-.87.34-.73,0-1.28-.62-1.28-1.35,0-.54.27-.94.76-1.17-.39-.34-.73-.37-1.17-.64-.66-.42-.89-.86-1.33-1.51-.28-.43-.36-.72-.5-1.21-.17-.59-.27-.94-.27-1.56,0-.16,0-.25.02-.41.16-1.24.39-2.02,1.17-3,.46-.58.78-.94,1.47-1.24.58-.25.93-.44,1.57-.44.19,0,.3,0,.49.02.29.04.48.06.73.21.1.05.27.22.27.1,0-.13-.07-.2-.07-.33,0-.53.38-1.01.9-1.01.38,0,.54.33.72.66.12-.2.18-.34.18-.57,0-.87-.47-1.31-1.01-1.99-1.18-1.47-2.66-2.16-2.66-4.05,0-.56.27-.95.76-1.24.14-.08.33,0,.47-.09.12-.07.1-.23.18-.35.12-.19.22-.27.38-.41.27-.23.51-.16.8-.37.15-.1.18-.24.3-.37.33-.4.63-.59,1.15-.59.26,0,.41,0,.65.1.08.03.24.16.26.13.05-.06.19-.21.36-.29.22-.11.31-.15.56-.15.28,0,.46.16.74.16.1,0,.13-.1.21-.16.25-.17.39-.26.7-.26s.45.1.7.25c.23.15.27.34.5.48.13.08.24.04.39.09.65.22,1.15.65,1.15,1.34,0,.37-.09.64-.37.88-.22.19-.43.16-.71.25.91.73,1.7.91,2.86.91,1.06,0,2.37-.44,2.37-1.5,0-.5-.27-.76-.47-1.22-.35-.81-.54-1.29-.54-2.17,0-.7.08-1.12.48-1.69.42-.58.93-.72,1.65-.72h0Z"></path><path class="cls-1" d="m69.76,38.23c-.09,0-.16-.01-.23-.03-.34-.11-.59-.36-.68-.68,0,0,0-.02,0-.03h0s0-.05.02-.07l1.29-1.31s.08-.03.11,0c.24.19.41.4.47.6.12.42.07.81-.15,1.1-.24.31-.58.41-.84.41Zm-.73-.71c.08.24.28.44.55.52.17.05.6.04.88-.32.24-.31.2-.68.12-.94-.05-.16-.17-.32-.35-.47l-1.2,1.22Z"></path><path class="cls-1" d="m102.41,66.69c-.19,0-.37-.03-.56-.08-.36-.1-.87-.33-1.07-.44-.69-.39-1.15-.72-1.48-1.06-.76-.79-1.26-1.74-1.51-2.89-.3-1.41,0-2.82.06-3.09.4-1.68,1.64-3.46,3.14-3.46.38,0,.64.01.89.17.13.08.24.19.35.33.11.15.18.28.23.44.1.34.06.71-.11,1.01-.15.27-.39.45-.68.53-.39.1-.81.02-1.08-.22-.17-.15-.37-.43-.31-.93.03-.24.28-.46.56-.5.31-.04.59.14.73.48.02.04,0,.09-.05.11-.04.02-.09,0-.11-.05-.11-.27-.31-.41-.55-.38-.21.03-.4.19-.42.35-.04.33.05.61.25.78.23.2.59.27.93.18.25-.06.45-.22.58-.45.14-.25.18-.58.09-.88-.04-.15-.1-.26-.2-.39-.09-.12-.19-.22-.3-.29-.21-.13-.44-.14-.8-.14-1.42,0-2.59,1.72-2.98,3.33-.06.26-.36,1.64-.06,3.01.24,1.12.72,2.04,1.46,2.81.32.33.76.64,1.44,1.03.19.11.69.33,1.03.43.31.09.62.1.96.02.38-.08.67-.3.82-.6.14-.31.12-.67-.07-1.03-.19-.36-.58-.61-.96-.62-.22,0-.51.07-.73.44,0,.02-.09.17-.09.35,0,.22.09.44.21.52.19.12.44.14.59.05.14-.08.2-.24.2-.45,0-.05.03-.09.08-.09.04,0,.09.03.09.08.01.28-.09.5-.28.61-.21.12-.52.1-.77-.06-.2-.13-.29-.43-.29-.66,0-.22.09-.4.11-.43.2-.34.5-.53.86-.53,0,0,.01,0,.02,0,.44,0,.89.3,1.11.71.21.4.24.82.07,1.18-.16.35-.5.6-.93.7-.17.04-.33.05-.48.05Z"></path><path class="cls-1" d="m86.36,79.4l-.16-.13c1.44-1.78,3.92-1.87,6.55-1.98,2.1-.08,4.73-.27,6.46-.98,2.77-1.14,3.48-2.73,3.75-3.33.03-.07.05-.12.08-.16.22-.43.47-1.39.49-2.34.01-.49-.06-1.02-.21-1.42-.46-1.32-1.13-2.08-2.47-2.8-.77-.41-1.37-.55-2.02-.48-.75.09-1.38.62-1.61.89l-.16-.13c.26-.31.93-.86,1.74-.96.68-.08,1.34.07,2.14.5,1.4.75,2.09,1.54,2.57,2.92.15.43.23.99.22,1.5-.02.87-.24,1.89-.51,2.43-.02.04-.04.09-.07.15-.28.62-1.02,2.27-3.86,3.44-1.76.73-4.42.92-6.53,1-2.58.1-5.02.2-6.4,1.9Z"></path><path class="cls-1" d="m82.23,81.57c-.99-.2-1.44-.83-1.44-1.36,0-.15,0-.29.02-.42.12-.7.6-1.22,1.12-1.74.06-.06.13-.12.19-.17.05-.05.1-.09.15-.14.14-.14.33-.25.51-.37.04-.03.09-.06.13-.08.61-.39,1.42-.74,2.49-1.07l.31-.09c.12-.04.23-.06.35-.08l.12-.02c.38-.09.76-.15,1.09-.2.1-.02.2-.03.3-.05.49-.08.94-.11,1.46-.15.15,0,.3-.02.46-.03.71-.05,1.28-.04,1.84-.03.21,0,.41,0,.62,0,.13,0,.26,0,.4,0h.1c.4,0,.81.01,1.29-.01.17,0,.32-.01.46-.02.4-.01.72-.03,1.2-.08,1.65-.19,2.73-.5,3.6-1.02,1.25-.75,2.23-2.62,1.62-4.35v-.04c-.05-.11-.12-.32-.27-.57-.06-.09-.16-.23-.23-.33l-.05-.06c-.21-.28-.45-.42-.61-.5-.5-.28-1.08-.19-1.37.2-.21.28-.27.52-.2.77l-.18.05c-.08-.3,0-.59.23-.92.34-.46,1.03-.57,1.6-.25.22.12.45.27.67.55l.05.06c.08.11.19.24.25.35.16.27.23.49.27.6v.04c.65,1.82-.37,3.78-1.69,4.57-.9.54-2,.85-3.68,1.04-.48.06-.8.07-1.21.08-.14,0-.29.01-.46.02-.48.02-.9.02-1.3.01h-.1c-.13,0-.27,0-.4,0-.21,0-.42,0-.62,0-.55-.01-1.12-.03-1.82.02-.16.01-.32.02-.46.03-.52.03-.96.06-1.44.14-.1.02-.2.03-.3.05-.33.05-.7.11-1.08.2l-.12.03c-.11.02-.22.05-.33.08l-.3.09c-1.05.32-1.86.66-2.45,1.05-.04.03-.09.06-.13.08-.17.11-.35.22-.48.34-.05.05-.1.09-.16.14-.06.05-.13.11-.18.17-.52.51-.96.99-1.07,1.64-.02.12-.02.25-.02.39,0,.46.4,1,1.29,1.18l-.04.18Z"></path><path class="cls-1" d="m82.96,40.21c-.49,0-.94-.27-1.19-.72-.25-.45-.27-.97-.03-1.37.82-1.36,2.36-.68,3.73-.04-.01-.04-.02-.07-.04-.11-.05-.17-.11-.32-.1-.62.02-.65.3-1.08.6-1.54.2-.31.41-.62.54-1.02.19-.6.24-1.05-.14-1.42-.31-.3-.68-.35-1.2-.15-.27.1-.54.26-.86.44-.83.47-1.87,1.05-3.38,1.08-1.52-.02-2.55-.61-3.39-1.08-.32-.18-.6-.34-.86-.44-.52-.2-.89-.16-1.2.15-.38.37-.34.81-.14,1.42.13.39.33.71.54,1.02.3.46.58.89.6,1.54,0,.29-.04.45-.1.62-.01.04-.02.07-.04.11,1.4-.65,2.98-1.39,3.74.04.22.43.2.97-.07,1.42-.26.43-.68.67-1.15.67s-.82-.28-.98-.77c-.12-.35-.05-.7.21-1.08l.15.1c-.23.33-.29.62-.19.91.13.41.43.64.81.64.41,0,.77-.21,1-.58.23-.39.26-.87.07-1.24-.68-1.28-2.11-.61-3.5.04l-.33.16.04-.18c.03-.13.06-.23.09-.31.05-.16.1-.29.09-.55-.02-.6-.29-1.01-.57-1.44-.21-.32-.42-.64-.56-1.06-.17-.52-.31-1.12.19-1.6.37-.36.81-.41,1.39-.19.28.11.57.27.88.45.82.46,1.83,1.03,3.3,1.05,1.46-.02,2.47-.59,3.29-1.05.31-.18.61-.34.89-.45.58-.23,1.03-.17,1.39.19.49.48.36,1.08.19,1.6-.13.42-.35.74-.56,1.06-.29.43-.56.84-.57,1.44,0,.26.04.4.09.55.03.09.06.19.09.31l.04.18-.25-.12c-1.4-.65-2.84-1.32-3.59-.07-.2.34-.19.79.03,1.18.22.4.61.63,1.03.63.39,0,.68-.23.81-.64.11-.35.01-.55-.19-.92l.16-.09c.22.4.34.65.21,1.07-.15.49-.51.77-.98.77Z"></path><path class="cls-1" d="m79.53,40.21s-.06-.01-.08-.04c-.03-.04-.02-.1.02-.13.47-.32.62-.45.67-1.08.04-.49-.14-.84-.58-1.18-.04-.03-.05-.09-.02-.13.03-.04.09-.05.13-.02.33.25.71.64.65,1.34-.05.68-.23.86-.75,1.21-.02.01-.03.02-.05.02Z"></path><path class="cls-1" d="m79.57,40.05s-.07-.02-.08-.06c-.02-.05,0-.1.05-.12.35-.14.49-.35.52-.72,0-.05.05-.09.1-.09.05,0,.09.05.09.1-.03.44-.22.71-.63.88-.01,0-.02,0-.03,0Z"></path><path class="cls-2" d="m70.05,36.05l.18.13.19.2.13.25.06.21v.28s0,.19,0,.19l-.06.21-.13.15-.15.16-.21.11-.28.06-.24.04-.25-.11-.23-.16-.14-.2-.1-.25v-.1l1.23-1.17h0Z"></path><path class="cls-1" d="m72.89,40.2c-1.4,0-2.58-.32-3.51-.96-1.03-.7-2.01-1.57-1.53-2.73.16-.4.48-.68.9-.79.47-.13,1-.02,1.39.28.26.2.41.38.47.58.12.42.07.81-.15,1.1-.32.42-.82.46-1.06.38-.32-.1-.57-.34-.66-.64-.08-.25-.04-.5.11-.7.11-.14.3-.2.49-.16.21.05.37.22.41.45,0,.05-.02.09-.07.1-.05,0-.09-.02-.1-.07-.03-.16-.14-.28-.29-.32-.13-.03-.25,0-.32.09-.11.15-.14.35-.08.54.08.24.28.44.55.53.16.05.6.04.88-.32.24-.31.2-.68.12-.94-.05-.16-.18-.33-.41-.5-.35-.27-.83-.36-1.25-.25-.37.1-.65.34-.79.69-.44,1.05.5,1.87,1.47,2.53.93.63,2.11.95,3.52.93,2.09-.02,3.7-.92,4.87-1.58.11-.06.21-.12.32-.18.29-.16.62-.13.79.07.2.24.16.59-.07.81-.03.03-.09.03-.12,0-.03-.03-.03-.09,0-.12.19-.17.18-.43.06-.58-.12-.14-.35-.15-.57-.03-.1.05-.2.11-.31.17-1.12.63-2.82,1.58-4.95,1.6-.03,0-.07,0-.1,0Z"></path><polygon class="cls-1" points="61.04 71.04 60.87 71.02 60.92 70.67 61.02 70.2 61.16 69.79 61.44 69.29 61.69 68.95 62.25 68.53 62.76 68.34 62.82 68.51 62.32 68.69 61.81 69.08 61.59 69.38 61.31 69.87 61.18 70.24 61.09 70.7 61.04 71.04"></polygon><polygon class="cls-1" points="64.04 70.86 64.01 70.7 64.39 70.61 64.65 70.48 65.01 70.19 65.35 69.74 65.57 69.21 65.64 68.91 65.68 68.47 65.85 68.48 65.81 68.94 65.73 69.26 65.49 69.84 65.12 70.32 64.73 70.63 64.44 70.78 64.04 70.86"></polygon><path class="cls-1" d="m79.45,81.76l-.04-.19.17-.03c1.01-.21,1.23-.82,1.27-1l.19.04c-.05.21-.29.92-1.42,1.15l-.17.03Z"></path><path class="cls-1" d="m86.53,79.44l-.17-.14c1.45-1.7,3.9-1.8,6.49-1.9,2.1-.08,4.73-.27,6.46-.98,2.76-1.14,3.48-2.73,3.75-3.33.03-.07.05-.12.08-.16.22-.42.46-1.39.49-2.33.01-.49-.06-1.02-.21-1.42-.29-.83-.65-1.42-1.18-1.92l.15-.16c.55.51.95,1.15,1.24,2.01.15.43.23.99.22,1.5-.02.87-.24,1.89-.51,2.43-.02.04-.04.09-.07.15-.28.62-1.02,2.27-3.86,3.44-1.77.73-4.42.92-6.54,1-2.54.1-4.94.2-6.33,1.83Z"></path><path class="cls-1" d="m100.08,69.13c-.18-.27-.37-.39-.58-.5-.55-.31-1.21.04-1.36.26l-.12-.09c.21-.28.94-.64,1.56-.3.21.12.43.26.63.55l-.13.08Z"></path><path class="cls-1" d="m102.59,66.87c-.19,0-.39-.03-.6-.09-.11-.03-.23-.07-.37-.13l.08-.21c.13.05.25.09.35.12.34.1.66.11.94.02.36-.11.63-.33.76-.62.13-.29.12-.63-.03-.99-.07-.17-.22-.36-.41-.5l.13-.17c.21.16.38.38.47.58.18.42.19.82.03,1.17-.16.35-.48.61-.9.73-.14.04-.3.07-.46.07Z"></path><path class="cls-1" d="m58.94,50.43s-.01,0-.02,0c-.05-.01-.07-.06-.06-.1.15-.62.31-1.03.67-1.74v-.02c.28-.31.53-.44.83-.59.13-.07.27-.14.42-.23.04-.02.09-.01.12.03.02.04.01.09-.03.12-.16.1-.3.17-.43.24-.28.14-.51.26-.76.54-.35.7-.51,1.1-.65,1.7,0,.04-.04.06-.08.06Z"></path><path class="cls-1" d="m69.86,38.14s-.07-.03-.08-.07c0-.05.02-.09.07-.1.44-.09.69-.35.69-.72,0-.05.04-.08.08-.08s.08.04.08.08c0,.45-.31.78-.82.88,0,0-.01,0-.02,0Z"></path><path class="cls-1" d="m101.75,55.9l-.05-.15c1.04-.28,3.46-.92,3.44-4.89,0-1.48-.47-2.68-1.38-3.56-1.14-1.11-2.62-1.38-3.24-1.36v-.16c.64-.01,2.18.26,3.35,1.41.94.91,1.42,2.15,1.43,3.67.02,4.09-2.57,4.78-3.55,5.04Z"></path><path class="cls-1" d="m102.11,55.73l-.04-.16c.85-.23,3.05-1.48,2.97-4.49-.05-1.83-.58-3.27-1.54-4.17-.72-.67-1.66-1.02-2.66-.97v-.17c1.03-.05,2.02.32,2.77,1.02,1,.93,1.55,2.41,1.59,4.29.08,3.12-2.21,4.42-3.1,4.66Z"></path><polygon class="cls-1" points="99.75 60.14 99.61 60.13 99.64 59.72 99.78 59.07 99.97 58.56 100.19 58.14 100.48 57.79 100.59 57.88 100.31 58.21 100.1 58.61 99.92 59.11 99.79 59.74 99.75 60.14"></polygon><polygon class="cls-1" points="101.41 58.25 101.19 58.22 101.21 58.08 101.41 58.11 101.66 58.09 101.95 57.99 102.13 57.85 102.3 57.6 102.4 57.35 102.43 56.97 102.58 56.98 102.54 57.4 102.42 57.67 102.23 57.96 102.01 58.12 101.68 58.24 101.41 58.25"></polygon><polygon class="cls-1" points="97.65 44.8 97.51 44.77 97.6 44.33 97.79 43.93 98.04 43.52 98.47 42.98 98.8 42.6 99.81 41.58 100.11 41.24 100.49 40.77 100.84 40.25 101.04 39.84 101.15 39.3 101.18 38.63 101.12 38.45 101.26 38.4 101.32 38.62 101.29 39.32 101.17 39.9 100.96 40.33 100.61 40.86 100.21 41.33 99.92 41.68 98.91 42.7 98.58 43.07 98.16 43.61 97.92 44 97.73 44.38 97.65 44.8"></polygon><polygon class="cls-1" points="98.1 70.94 98.07 70.8 98.47 70.72 98.76 70.57 98.91 70.41 99.02 70.23 99.1 69.93 99.11 69.72 99.25 69.73 99.24 69.95 99.15 70.3 99.02 70.5 98.83 70.69 98.5 70.86 98.1 70.94"></polygon><polygon class="cls-1" points="59.43 66.74 59.11 66.72 59.13 66.58 59.43 66.6 59.8 66.57 60.18 66.44 60.23 66.57 59.82 66.71 59.43 66.74"></polygon><polygon class="cls-1" points="60.47 58.24 60.46 58.1 60.63 58.09 60.85 58.05 61.02 57.98 61.17 57.86 61.28 57.72 61.35 57.58 61.4 57.24 61.54 57.26 61.48 57.64 61.4 57.79 61.26 57.97 61.08 58.1 60.88 58.19 60.64 58.23 60.47 58.24"></polygon><polygon class="cls-1" points="61.39 55.9 61.36 55.76 61.94 55.62 62.23 55.47 62.51 55.26 62.72 54.96 62.82 54.74 62.9 54.21 63.04 54.23 62.95 54.79 62.84 55.03 62.6 55.36 62.31 55.59 61.99 55.75 61.39 55.9"></polygon><polygon class="cls-1" points="63.97 47.12 63.79 47.11 63.8 46.97 63.96 46.98 64.21 46.92 64.5 46.78 64.76 46.54 64.94 46.29 65.07 46.06 65.18 45.74 65.31 45.79 65.2 46.12 65.06 46.37 64.86 46.64 64.57 46.9 64.26 47.05 63.97 47.12"></polygon><rect class="cls-1" x="63.83" y="45.47" width=".14" height=".25" transform="translate(-1.12 1.62) rotate(-1.44)"></rect><path class="cls-1" d="m63.84,54.37s-.06-.02-.07-.05c-.02-.04,0-.09.05-.1.19-.07.35-.18.5-.31.03-.03.08-.03.11,0,.03.03.03.08,0,.11-.17.15-.35.26-.55.34,0,0-.02,0-.03,0Z"></path><path class="cls-1" d="m102.35,65.84c-.12,0-.24-.03-.33-.09,0,0-.02,0-.03,0-.04-.01-.08-.03-.11-.06-.03-.03-.03-.08,0-.11.03-.03.08-.03.11,0,0,0,.03.01.04.02.02,0,.05.01.06.02.18.1.47.07.64-.07.09-.08.19-.22.1-.44-.02-.04,0-.09.05-.1.04-.02.09,0,.1.05.09.24.04.46-.15.62-.13.11-.31.17-.49.17Z"></path><path class="cls-1" d="m101.5,58.34c-.32,0-.66-.11-.88-.39l.13-.1c.25.32.71.38,1.03.29.25-.06.45-.22.58-.45.15-.26.18-.58.09-.88-.04-.15-.1-.26-.2-.39-.12-.16-.24-.29-.33-.34-.02-.01-.03-.02-.05-.04-.01,0-.02-.02-.04-.03l.09-.13s.03.02.04.03c.01,0,.03.02.04.03.13.09.29.28.37.38.11.15.18.28.23.44.1.34.06.71-.11,1.01-.15.27-.39.45-.68.53-.1.03-.21.04-.32.04Z"></path><path class="cls-1" d="m103.6,64.57l-.16-.03c.01-.06.02-.11.02-.17,0-.26-.11-.51-.3-.68-.02-.02-.05-.05-.08-.08-.04-.04-.08-.09-.13-.11l.07-.14c.07.03.12.09.17.15.02.02.04.05.06.07.22.2.35.49.35.8,0,.07,0,.13-.02.2Z"></path><path class="cls-1" d="m103.03,63.55c-.01-.41-.34-.73-.81-.82l.03-.16c.55.1.93.49.94.97h-.16Z"></path><path class="cls-1" d="m101.12,63.44s-.07-.05-.1-.08c-.08-.06-.16-.12-.23-.2-.7-.74-1.11-1.74-1.11-2.76,0-1.02.4-2.14.94-2.59l.1.12c-.44.37-.88,1.39-.88,2.47,0,.98.4,1.94,1.07,2.65.07.07.14.12.22.18.04.03.07.06.11.08l-.1.12Z"></path><polygon class="cls-1" points="86.41 79.35 86.3 79.23 86.76 78.82 87.08 78.57 87.68 78.21 88.24 77.94 88.64 77.83 89.43 77.65 90.34 77.51 90.36 77.67 89.46 77.81 88.68 77.99 88.29 78.09 87.75 78.35 87.17 78.71 86.86 78.94 86.41 79.35"></polygon><path class="cls-1" d="m80.95,84.14h-.03c-.8-.3-1.61-1.05-1.97-1.6l.13-.09c.34.53,1.11,1.23,1.86,1.52.75-.29,1.52-.99,1.86-1.52l.13.09c-.36.55-1.17,1.3-1.97,1.59h-.03Z"></path><path class="cls-1" d="m79.03,82.57s-.04,0-.05-.02c-.03-.03-.03-.08,0-.11.25-.27.44-.62.54-1.01.01-.04.06-.07.1-.06s.07.06.06.1c-.11.42-.31.79-.58,1.08-.02.02-.04.03-.06.03Z"></path><rect class="cls-1" x="79.33" y="81.12" width=".57" height=".16" transform="translate(-15.86 142.97) rotate(-78.47)"></rect><polygon class="cls-1" points="77.83 83.24 77.78 83.08 78.26 82.93 78.68 82.7 78.91 82.47 79.02 82.59 78.76 82.84 78.32 83.09 77.83 83.24"></polygon><path class="cls-1" d="m76.45,38.17l-.05-.02s0,.01,0,.02l-.15-.05s.03-.08.04-.11c.05-.14.1-.27.09-.51-.02-.61-.28-1.02-.56-1.46-.2-.31-.4-.63-.53-1.05-.18-.55-.33-1.18.15-1.64.45-.44,1.03-.29,1.42-.13.28.11.57.27.88.45.77.43,1.71.96,3.04,1.05,0,0,0,0,0,0h0s0,0,.01,0c0,0,0,0,0,0,.08,0,.15,0,.23,0h0s0,0,.01,0v.16s0,0-.01,0c-1.5-.02-2.54-.61-3.37-1.08-.31-.17-.58-.33-.84-.43,0,0-.02,0-.02,0-.52-.2-.89-.16-1.21.15-.38.37-.34.82-.15,1.43.13.4.34.71.54,1.02.3.46.58.88.6,1.53,0,.29-.04.45-.1.61l-.02.06Z"></path><path class="cls-1" d="m81.04,34.88v-.07s0,0,0,0v-.16c1.38-.07,2.64-.75,3.47-1.19.38-.2.66-.35.84-.39.55-.11.85-.04,1.22.3l-.11.12c-.31-.28-.67-.32-1.18-.12-.27.1-.54.26-.86.44-.83.47-1.86,1.05-3.37,1.07Z"></path><path class="cls-1" d="m101.14,63.44c-.77-.55-1.6-1.68-1.61-3.19,0-1.02.4-2.14.93-2.59l.1.12c-.44.37-.88,1.39-.88,2.47,0,1.19.61,2.39,1.54,3.06l-.09.13Z"></path><path class="cls-1" d="m80.88,84.07h-.03c-.8-.3-1.61-1.05-1.97-1.6l.13-.09c.34.53,1.11,1.23,1.86,1.52.75-.29,1.52-.99,1.86-1.52l.13.09c-.36.55-1.17,1.3-1.97,1.59h-.03Z"></path><path class="cls-1" d="m78.9,39.2s-.04,0-.06-.03c-.03-.03-.03-.08,0-.11.19-.17.16-.45.03-.61-.12-.14-.4-.15-.63-.03-.1.06-.21.11-.32.18l-.27.15s-.09,0-.11-.03c-.02-.04,0-.09.03-.11l.27-.15c.11-.06.22-.12.32-.18.3-.16.66-.13.83.07.18.21.21.59-.04.83-.02.01-.03.02-.05.02Z"></path><path class="cls-1" d="m74.61,40.18l-.03-.16c1.41-.29,2.58-.95,3.36-1.38l.08.14c-.78.44-1.97,1.1-3.4,1.4Z"></path><path class="cls-1" d="m85.81,81.47c-.44,0-.73-.3-.85-.57l.15-.06c.11.25.39.52.81.47.15-.02.27-.08.35-.19.08-.1.1-.23.08-.38,0-.04-.03-.08-.05-.13-.01-.02-.02-.04-.03-.07-.02-.04-.08-.15-.16-.21l.09-.13c.13.09.21.27.22.27,0,.02.02.04.03.06.03.06.05.11.06.17.03.19,0,.37-.11.5-.11.14-.27.23-.46.25-.04,0-.08,0-.12,0Z"></path><path class="cls-1" d="m74.54,40.1l-.03-.16c1.41-.29,2.58-.95,3.36-1.38l.08.14c-.78.44-1.97,1.1-3.4,1.4Z"></path><path class="cls-1" d="m102.31,65.84c-.13,0-.27-.04-.47-.13-.11-.05-.23-.12-.37-.2l-.1-.06c-.62-.35-1.42-.93-2.16-2.32-.2-.37-.34-.75-.44-1.15-.08-.32-.12-.59-.13-.86-.02-.49.03-.99.16-1.59.2-.95.44-1.5,1.05-2.32.27-.37.54-.67,1.15-.69v.16c-.49.01-.72.21-1.02.62-.59.82-.82,1.32-1.02,2.26-.12.59-.17,1.08-.15,1.56,0,.26.05.52.12.83.09.39.23.75.43,1.11.72,1.36,1.5,1.92,2.1,2.26l.1.06c.14.08.25.15.36.19.31.14.43.15.68.06l.06.15c-.12.05-.22.07-.33.07Z"></path><path class="cls-1" d="m62.44,50.77c-.43,0-.82-.13-1.07-.28l.08-.14c.32.19.91.36,1.54.18,1.61-.45,2.21-1.74,2.21-2.44,0-.57-.21-1.02-.64-1.39l.1-.12c.47.4.7.89.7,1.51,0,.45-.2.99-.55,1.43-.3.39-.85.9-1.78,1.16-.2.06-.4.08-.59.08Z"></path><path class="cls-1" d="m62.54,52.16c-.57,0-1.07-.15-1.53-.46-.51-.34-.85-.83-1-1.41l.15-.04c.14.54.46,1,.94,1.31.44.3.93.44,1.48.43.95-.01,1.74-.52,2.16-.99.28-.31.45-.65.45-.9,0-.36-.1-.57-.37-.76l.09-.13c.31.22.44.47.44.89,0,.29-.18.66-.49,1-.44.49-1.28,1.03-2.28,1.04-.01,0-.03,0-.04,0Z"></path><path class="cls-1" d="m63.9,54.36l-.08-.14c.17-.1.33-.22.48-.34.63-.55.9-1.07.9-1.74,0-.51-.12-.84-.4-1.1l.11-.12c.31.29.45.66.45,1.21,0,.72-.29,1.27-.96,1.86-.15.13-.32.26-.5.36Z"></path><rect class="cls-1" x="96.54" y="48.71" width=".16" height=".89"></rect><rect class="cls-1" x="96.47" y="48.49" width=".16" height="1.26"></rect><rect class="cls-1" x="96.54" y="45.76" width=".16" height="1.65"></rect><rect class="cls-1" x="96.47" y="45.39" width=".16" height="2.25"></rect><path class="cls-1" d="m81.03,72.87l-.06-.08c-.15-.2-.91-.67-1.58-.94-.5-.2-.79-.27-1.29-.36-.54-.1-.85-.1-1.44-.1-.43,0-.72.03-1.08.06-.1,0-.21.02-.33.03-.31.03-.55.06-.79.1-.29.04-.56.08-.92.1h-.05c-.59.04-.95.07-1.57.04-.68-.03-1.07-.06-1.75-.22-.65-.15-1.05-.25-1.68-.56-.61-.3-.96-.53-1.49-1.05-.05-.05-.11-.11-.15-.16l.11-.11s.1.1.15.15c.51.51.86.72,1.45,1.02.61.31,1,.4,1.64.55.67.15,1.06.18,1.72.21.6.03.96,0,1.55-.04h.05c.36-.03.62-.07.91-.11.24-.03.49-.07.8-.1.12-.01.23-.02.33-.03.37-.03.66-.07,1.09-.06.58,0,.91,0,1.47.11.51.09.82.16,1.33.37.6.24,1.32.67,1.58.93.26-.26.98-.68,1.58-.93.51-.21.82-.28,1.33-.37.55-.1.89-.1,1.47-.11.43,0,.73.03,1.1.06.1,0,.21.02.33.03.31.03.56.06.8.1.28.04.55.08.91.1h.04c.59.04.95.07,1.56.04.67-.03,1.05-.06,1.72-.21.64-.14,1.03-.24,1.64-.55.59-.3.94-.51,1.45-1.02.51-.5.74-.82,1.04-1.41l.14.07c-.31.61-.56.95-1.07,1.46-.53.52-.89.74-1.49,1.05-.63.31-1.03.41-1.68.56-.68.15-1.08.19-1.75.22-.62.03-.98,0-1.58-.04h-.03c-.36-.03-.63-.07-.92-.11-.24-.03-.48-.07-.79-.1-.12-.01-.23-.02-.33-.03-.36-.03-.65-.06-1.08-.06-.59,0-.9,0-1.44.1-.51.09-.8.16-1.29.36-.67.27-1.43.75-1.58.94l-.06.08Z"></path><rect class="cls-1" x="77.56" y="83.08" width=".46" height=".16" transform="translate(-9.7 10.27) rotate(-7.11)"></rect><polygon class="cls-1" points="85.69 82.61 85.67 82.45 86.12 82.41 86.55 82.24 86.83 82.07 87.23 81.6 87.3 81.43 87.37 81.02 87.39 80.82 87.55 80.84 87.53 81.04 87.45 81.49 87.36 81.69 86.92 82.2 86.62 82.38 86.15 82.57 85.69 82.61"></polygon><path class="cls-1" d="m99.42,46.25l-.15-.05c.12-.39.07-.79-.11-1.03-.12-.15-.29-.23-.5-.23v-.16c.26,0,.48.09.63.29.22.28.27.73.14,1.17Z"></path><path class="cls-1" d="m64.38,57.91l-.09-.14c.44-.28.74-.66.88-1.14l.15.05c-.15.51-.48.93-.94,1.23Z"></path><path class="cls-1" d="m63.9,47.2c-.35,0-.69-.14-.92-.31l.1-.13c.3.23.8.39,1.22.2.44-.2.73-.51.88-.97l.15.05c-.17.5-.49.84-.97,1.06-.15.07-.31.1-.46.1Z"></path><path class="cls-1" d="m61.96,48.62c-.09,0-.19-.02-.29-.07-.04-.02-.05-.07-.03-.11.02-.04.07-.05.11-.03.15.08.3.07.42-.01.14-.1.2-.29.16-.5-.03-.19-.25-.47-.56-.49-.04,0-.08-.04-.07-.08,0-.04.04-.08.08-.07.37.02.67.34.71.62.04.28-.04.52-.23.66-.09.06-.19.1-.3.1Z"></path><path class="cls-1" d="m62.2,74.23c-.85-.85-1.65-2.41-1.07-4.05v-.04c.05-.12.13-.34.28-.6.06-.1.16-.24.25-.35l.05-.06c.22-.29.45-.43.67-.55.59-.33,1.32-.07,1.58.26.24.3.36.77.12,1.09-.18.24-.35.21-.49.17h-.06c-.11-.03-.15-.1-.19-.16-.02-.03-.04-.05-.06-.07l.11-.12s.06.07.08.1c.04.05.05.07.09.08h.06c.14.04.21.06.33-.1.19-.25.08-.64-.12-.89-.19-.24-.82-.52-1.37-.22-.16.09-.4.22-.62.51l-.05.06c-.08.11-.18.24-.24.33-.15.25-.22.46-.25.57v.04c-.57,1.57.2,3.07,1.02,3.88l-.11.11Z"></path><path class="cls-1" d="m85.75,81.4c-.36,0-.66-.21-.82-.57-.02-.04,0-.09.04-.11.04-.02.09,0,.11.04.07.16.29.52.77.46.15-.02.27-.08.35-.19.08-.1.1-.23.08-.38-.01-.07-.04-.14-.06-.2h0s-.06-.08-.15-.18c-.03-.03-.03-.08,0-.11.03-.03.08-.03.11,0,.11.11.17.21.17.21.04.08.07.16.08.24.03.19,0,.37-.11.5s-.27.23-.46.25c-.04,0-.08,0-.11,0Z"></path><path class="cls-1" d="m98.01,47.06c-.15,0-.31-.03-.46-.1-.78-.35-1.13-1.03-1.13-2.2,0-1.38,1.18-2.61,2.03-3.51.28-.29.52-.55.68-.76l.13-.17c.51-.69.82-1.11.82-2.12,0-.82-.69-1.6-1.51-1.7l.02-.16c.9.11,1.66.96,1.66,1.86,0,1.06-.34,1.52-.85,2.21l-.13.17c-.16.22-.41.47-.69.77-.84.88-1.99,2.09-1.99,3.4,0,1.1.32,1.73,1.04,2.06.49.22,1.04-.04,1.27-.25.36-.33.4-.76.31-1.06-.09-.3-.3-.51-.56-.56-.29-.05-.45.1-.51.2-.12.17-.14.4-.04.56.07.13.21.18.39.16l.02.16c-.24.03-.44-.06-.54-.24-.12-.21-.1-.51.05-.73.15-.22.4-.31.67-.26.33.06.59.31.69.67.12.44-.01.91-.36,1.22-.19.17-.57.37-.98.37Z"></path><path class="cls-1" d="m101.35,64.31c-.18-.19-.28-.45-.28-.72,0-.57.45-1.03,1.01-1.03.49,0,.91.36.99.86l-.16.03c-.07-.42-.42-.72-.84-.72-.47,0-.85.39-.85.87,0,.23.09.44.24.61l-.12.11Z"></path><path class="cls-1" d="m99.56,50.81c-.25,0-.53-.04-.82-.12-.93-.26-1.48-.78-1.78-1.16-.34-.44-.55-.98-.55-1.43,0-.62.23-1.11.7-1.51l.1.12c-.43.37-.64.82-.64,1.39,0,.7.6,1.99,2.21,2.44.61.17,1.17.15,1.51-.06l.08.14c-.22.13-.5.2-.82.2Z"></path><path class="cls-1" d="m60.17,54.05s-.05-.04-.08-.06c-.07-.05-.15-.11-.21-.17-.1-.1-.18-.19-.27-.32-.28-.41-.49-.94-.6-1.46-.15-.75-.09-1.48-.04-1.72.14-.68.34-1.21.6-1.57.3-.42.72-.72,1.26-.9l.05.15c-.52.17-.9.45-1.18.84-.24.34-.43.85-.57,1.51-.05.23-.1.93.04,1.65.1.5.31,1,.57,1.4.08.12.16.21.25.3.05.05.13.11.19.15.03.02.06.04.09.06l-.1.13Z"></path><path class="cls-1" d="m77.36,83.21c-.09,0-.19,0-.29-.01-.51-.05-1-.42-1.09-.71l.15-.05c.06.21.49.55.95.6.65.06,1.14-.08,1.63-.5.5-.42.82-1.14.82-1.87,0-.35-.08-.85-.29-1.19-.76-1.2-1.64-1.59-2.85-2.13l.06-.15c1.2.53,2.14.95,2.93,2.19.23.37.31.9.31,1.28,0,.77-.33,1.53-.87,1.99-.44.37-.9.55-1.46.55Z"></path><path class="cls-1" d="m64.31,57.84l-.08-.14c.44-.28.97-.82.97-1.82,0-.79-.27-1.3-.95-1.84l.1-.13c.73.57,1.01,1.12,1.01,1.96,0,1.08-.57,1.66-1.05,1.96Z"></path><path class="cls-1" d="m63.99,64.2s-.04,0-.05-.02c-.03-.03-.04-.08-.01-.11.93-1.12,1.29-2.1,1.27-3.4-.03-1.51-.57-2.25-1.59-3.53-.03-.03-.02-.08.01-.11.03-.03.08-.02.11.01,1.02,1.27,1.6,2.06,1.63,3.63.03,1.34-.35,2.35-1.3,3.5-.02.02-.04.03-.06.03Z"></path><path class="cls-1" d="m83.51,40.18l-.09-.13c.17-.11.3-.29.37-.52.13-.39.11-.67-.07-.92l.13-.09c.27.36.29.66.22,1.06-.05.26-.21.41-.4.58l-.03.03-.05-.06s-.05.04-.08.06Z"></path><path class="cls-1" d="m96.6,67.1l-.16-.03c.02-.13.05-.27.07-.43.02-.17.03-.42.03-.55v-.07s0-4.09,0-4.09h.16v4.09s0,.39-.02.64c-.02.17-.05.31-.07.44Z"></path><path class="cls-1" d="m96.48,67.26l-.16-.04c.04-.19.08-.39.12-.66.02-.17.03-.42.03-.55v-.07s0-4.41,0-4.41h.16v4.41s0,.39-.02.64c-.04.28-.07.48-.12.68Z"></path><rect class="cls-1" x="96.47" y="56.37" width=".16" height="3.68"></rect><rect class="cls-1" x="96.54" y="56.66" width=".16" height="2.99"></rect><rect class="cls-1" x="96.54" y="52.86" width=".16" height="2.24"></rect><rect class="cls-1" x="96.47" y="52.59" width=".16" height="2.76"></rect><rect class="cls-1" x="96.54" y="50.56" width=".16" height=".87"></rect><rect class="cls-1" x="96.47" y="50.39" width=".16" height="1.26"></rect><path class="cls-1" d="m80.95,72.8l-.06-.08c-.15-.2-.91-.67-1.58-.94-.5-.2-.79-.27-1.29-.36-.55-.1-.85-.1-1.44-.1-.43,0-.72.03-1.08.06-.1,0-.21.02-.33.03-.31.03-.55.06-.79.09-.29.04-.56.08-.92.1h-.04c-.6.04-.96.07-1.57.04-.68-.03-1.07-.06-1.75-.22-.65-.15-1.05-.25-1.68-.56-.61-.3-.97-.53-1.49-1.05-.28-.28-.47-.49-.63-.72l.13-.09c.16.22.34.42.62.7.51.51.86.72,1.45,1.02.61.31,1,.4,1.64.55.67.15,1.06.18,1.72.21.61.03.96,0,1.56-.04h.04c.36-.03.62-.07.91-.1.24-.03.49-.07.8-.1.12-.01.23-.02.33-.03.37-.04.66-.07,1.1-.06.58,0,.91,0,1.47.11.51.09.82.16,1.33.37.6.24,1.32.67,1.58.93.26-.26.98-.68,1.58-.93.51-.21.82-.28,1.33-.37.56-.1.87-.1,1.47-.11.44,0,.73.03,1.1.06.1,0,.21.02.33.03.31.03.56.06.8.1.28.04.55.08.91.1h.05c.59.04.94.07,1.54.04.67-.03,1.05-.06,1.72-.21.64-.14,1.03-.24,1.64-.55.59-.3.94-.51,1.45-1.02.51-.5.74-.82,1.04-1.41.03-.06.06-.12.08-.17l.14.07c-.03.06-.06.12-.09.18-.31.61-.56.95-1.07,1.46-.53.52-.89.74-1.49,1.05-.63.31-1.03.41-1.68.56-.68.15-1.08.19-1.75.22-.61.03-.97,0-1.56-.04h-.05c-.36-.03-.63-.07-.92-.11-.24-.03-.48-.07-.79-.09-.12-.01-.23-.02-.33-.03-.36-.03-.65-.06-1.08-.06-.59,0-.9,0-1.44.1-.51.09-.8.16-1.29.36-.67.27-1.43.75-1.58.94l-.06.08Z"></path><path class="cls-1" d="m63.98,70.95c-.96,0-1.28-.66-1.35-.86l.15-.05c.06.18.34.75,1.2.75,0,0,.02,0,.03,0,.39,0,.81-.23,1.2-.64.35-.37.65-1.14.55-1.88l.16-.02c.11.8-.22,1.62-.59,2.02-.42.45-.88.69-1.32.69,0,0-.02,0-.03,0Z"></path><path class="cls-1" d="m65.14,70.21l-.13-.09s.05-.08.07-.11c.19-.35.24-1.07.02-1.49-.13-.24-.28-.45-.45-.62l.11-.11c.19.18.35.41.48.66.24.46.19,1.25-.02,1.64-.02.04-.05.08-.08.13Z"></path><path class="cls-1" d="m75.46,79.34c-1.42-1.56-3.77-1.66-6.26-1.76-2.11-.08-4.76-.27-6.53-1-1.15-.47-2.09-1.08-2.78-1.81l.12-.11c.68.71,1.59,1.31,2.72,1.77,1.74.72,4.37.9,6.47.99,2.53.1,4.91.19,6.38,1.81l-.12.11Z"></path><path class="cls-1" d="m80.87,79.7c-.17-.54-.58-.96-1.01-1.39l.11-.11c.45.44.87.89,1.05,1.46l-.15.05Z"></path><path class="cls-1" d="m77.5,83.35c-.09,0-.19,0-.29-.01-.53-.05-1.01-.44-1.15-.69l.14-.07c.12.22.57.57,1.02.61.65.06,1.14-.08,1.63-.5.06-.05.12-.1.17-.16l.12.11c-.06.06-.12.12-.18.17-.44.37-.9.55-1.46.55Z"></path><path class="cls-1" d="m76.14,82.66c-.53-.04-1.04-.29-1.35-.65-.03-.03-.05-.06-.08-.1l.13-.09s.05.06.07.09c.28.33.75.55,1.24.59v.16Z"></path><path class="cls-1" d="m81.03,84.21h-.03c-.8-.3-1.61-1.05-1.97-1.6l-.08-.12.13-.09.08.12c.34.53,1.11,1.23,1.86,1.52.75-.29,1.52-.99,1.86-1.52l.13.09c-.36.55-1.17,1.3-1.97,1.59h-.03Z"></path><path class="cls-1" d="m84.56,83.35c-.56,0-1.01-.17-1.46-.55-.07-.06-.13-.12-.19-.19l.12-.11c.06.06.12.12.18.17.49.41.98.56,1.63.5.46-.04.82-.35.97-.61v-.02s.09-.09.1-.15l.15.04c-.03.09-.1.18-.12.21-.17.3-.58.64-1.09.69-.1,0-.2.01-.29.01Z"></path><polygon class="cls-1" points="84.52 83.28 84.52 83.12 84.89 83.1 85.3 82.93 85.57 82.71 85.75 82.42 85.89 82.5 85.68 82.82 85.38 83.07 84.92 83.26 84.52 83.28"></polygon><path class="cls-1" d="m85.76,82.67s-.04,0-.06,0v-.16s.08,0,.12,0c.52-.02,1-.24,1.31-.6.24-.28.36-.63.34-.99-.01-.22-.05-.41-.12-.57-.11-.26-.32-.52-.56-.7l.1-.13c.26.2.49.49.61.77.08.18.12.38.13.63.02.4-.11.8-.38,1.11-.34.39-.86.63-1.42.65-.02,0-.04,0-.06,0Z"></path><path class="cls-1" d="m85.68,82.6c-.48,0-.94-.2-1.3-.57l.11-.11c.35.36.79.54,1.25.52v.16s-.04,0-.06,0Z"></path><path class="cls-1" d="m100.5,64.85c-.46-.43-.87-.97-1.23-1.65-.2-.37-.34-.75-.44-1.15-.08-.32-.12-.59-.13-.86-.02-.49.03-.99.16-1.59.19-.93.54-1.69,1.05-2.33l.06-.08c.15-.19.32-.4.48-.5l.09.13c-.14.09-.3.29-.44.47l-.06.08c-.5.62-.83,1.35-1.02,2.26-.12.59-.17,1.08-.15,1.56,0,.26.05.52.12.83.1.39.23.75.43,1.11.36.67.75,1.2,1.2,1.61l-.11.12Z"></path><path class="cls-1" d="m97.87,45.78c-.13-.19-.3-.47-.31-.76-.04-1.07,1.05-2.14,1.92-2.99.3-.29.55-.54.72-.75h.01c.76-.96,1.08-1.35,1.09-2.31,0-.64-.55-1.29-1.16-1.34v-.16c.69.05,1.32.78,1.32,1.5-.01,1.01-.36,1.44-1.12,2.39h-.01c-.18.23-.43.49-.73.78-.8.79-1.9,1.87-1.87,2.87,0,.25.16.5.28.67l-.13.09Z"></path><path class="cls-1" d="m98.09,47.13c-.15,0-.31-.03-.47-.1-.21-.1-.39-.22-.54-.37l.11-.11c.14.14.3.24.5.33.42.19.84.01,1.01-.07l.07.14c-.12.06-.38.17-.68.17Z"></path><path class="cls-1" d="m90.34,40.15l-.03-.16c.78-.14,1.48-.42,2.07-.82.97-.66,1.91-1.48,1.47-2.54-.13-.32-.39-.53-.52-.62l.09-.13c.15.1.43.33.58.69.48,1.16-.5,2.03-1.53,2.73-.61.42-1.33.7-2.13.84Z"></path><path class="cls-1" d="m92.29,38.22c-.2,0-.51-.05-.85-.4-.1-.11-.17-.2-.2-.28l.15-.06s.05.11.16.22c.29.31.55.35.74.35v.16Z"></path><path class="cls-1" d="m87.52,38.83c-.14-.07-.27-.17-.36-.26-.3-.34-.37-.73-.22-1.19.05-.14.14-.35.25-.59.29-.63.68-1.49.71-2.14.05-1.3-.4-2.17-1.3-2.51l.06-.15c.96.37,1.45,1.31,1.4,2.67-.03.69-.43,1.56-.73,2.2-.11.24-.2.44-.25.58-.14.41-.08.74.19,1.03.07.08.18.16.31.23l-.07.14Z"></path><path class="cls-1" d="m86.9,38.01s-.07-.03-.08-.07l-.04-.25.05-.26.11-.35.23-.49.21-.48.28-.74.14-.54.03-.52s.04-.08.08-.07c.04,0,.08.04.07.08l-.03.54-.15.56-.28.75-.21.48-.22.48-.11.33-.04.22.03.22s-.02.08-.07.09c0,0,0,0-.01,0Z"></path><path class="cls-1" d="m98.08,70.94s-.02,0-.03,0c-.58,0-1.25-.48-1.44-.79-.03-.03-.12-.13-.16-.23-.02-.04,0-.09.04-.1.04-.02.09,0,.1.04.03.08.11.16.13.18v.02c.16.25.78.72,1.32.72,0,0,.02,0,.03,0,.97,0,1.1-.73,1.1-.74.11-.68-.1-.85-.46-1.05,0,0-.2-.1-.43-.06-.04,0-.08-.02-.09-.07s.02-.08.07-.09c.29-.05.52.07.53.08.39.21.68.44.55,1.22,0,0-.16.87-1.26.87Z"></path><path class="cls-1" d="m59.48,66.84c-.16,0-.31-.02-.46-.06-.44-.13-.8-.42-.99-.79-.17-.33-.19-.69-.06-1.06l.15.05c-.11.33-.1.65.05.94.17.33.5.59.9.71.26.08.56.08.89,0l.04.16c-.18.05-.35.07-.52.07Z"></path><path class="cls-1" d="m60.57,58.33c-.11,0-.22-.01-.33-.04-.3-.08-.66-.35-.81-.61-.11-.19-.17-.41-.17-.62h.16c0,.19.05.38.15.54.13.22.45.47.71.54.34.09.71.02.93-.18.2-.18.29-.45.25-.78,0-.07-.03-.17-.08-.22l.11-.11c.09.09.12.23.13.32.06.49-.13.77-.3.92-.19.17-.47.26-.75.26Z"></path><path class="cls-1" d="m65.16,51.54c-.07-.16-.16-.3-.29-.42l.11-.12c.15.14.26.29.33.48l-.15.06Z"></path><path class="cls-1" d="m65.17,49.72c-.07-.12-.16-.23-.27-.3l.09-.13c.13.09.24.22.32.36l-.14.08Z"></path><path class="cls-1" d="m62.62,52.23c-.57,0-1.07-.15-1.53-.46-.55-.37-.94-.9-1.07-1.46,0-.04.02-.09.06-.1.04,0,.09.02.1.06.12.52.49,1.02,1,1.36.44.3.93.44,1.48.43.95-.01,1.74-.52,2.16-.99.17-.19.3-.39.38-.58.02-.04.06-.06.1-.04.04.02.06.06.04.1-.08.2-.22.42-.41.63-.44.49-1.28,1.03-2.28,1.04-.01,0-.03,0-.04,0Z"></path><path class="cls-1" d="m65.18,47.56c-.1-.3-.3-.59-.57-.82l.1-.12c.3.25.52.57.62.89l-.15.05Z"></path><path class="cls-1" d="m62.6,50.81c-.5,0-1.02-.15-1.25-.34-.03-.03-.04-.08,0-.11.03-.03.08-.04.11,0,.24.2,1,.41,1.61.25,1.55-.39,2.02-1.58,2.13-1.93.01-.04.06-.07.1-.05.04.01.07.06.05.1-.11.37-.61,1.63-2.24,2.04-.16.04-.33.06-.5.06Z"></path><path class="cls-1" d="m62.14,49.79s-.02,0-.02,0c-.82-.02-1.36-.49-1.44-1.26l.16-.02c.07.69.54,1.1,1.28,1.11.47,0,.89-.28,1.12-.77.3-.65.17-1.45-.33-2.03l.12-.1c.55.63.68,1.49.35,2.2-.25.54-.73.87-1.25.87Z"></path><path class="cls-1" d="m60.17,55.84s-.02,0-.02,0c-.52-.15-1.04-.44-1.53-.85-.24-.2-.44-.4-.6-.6-.03-.03-.02-.08.01-.11.03-.03.08-.02.11.01.15.19.35.39.58.58.48.4.97.67,1.47.82.04.01.07.06.05.1-.01.03-.04.06-.08.06Z"></path><path class="cls-1" d="m61.51,55.97s-.07-.03-.08-.07c0-.04.03-.08.07-.09.51-.06.91-.27,1.18-.62.24-.31.35-.72.29-1.14-.09-.69-.72-1.18-1.11-1.21-.04,0-.08-.04-.07-.09,0-.04.04-.08.09-.07.5.04,1.16.63,1.25,1.35.06.47-.06.91-.33,1.26-.29.37-.75.61-1.29.68,0,0,0,0,0,0Z"></path><path class="cls-1" d="m64.04,45.62h-.16c0-.19-.08-.39-.21-.51-.12-.11-.26-.17-.43-.16v-.16c.2,0,.39.06.54.21.17.16.26.4.26.63Z"></path><path class="cls-1" d="m64.41,40.08s-.03,0-.04-.01c-.59-.33-1.07-.88-1.31-1.52-.02-.04,0-.09.05-.1.04-.02.09,0,.1.05.23.6.68,1.12,1.24,1.43.04.02.05.07.03.11-.01.03-.04.04-.07.04Z"></path><path class="cls-1" d="m99.85,49.71c-.47,0-.9-.25-1.17-.67-.02-.04-.01-.09.03-.11.04-.02.09-.01.11.02.24.38.62.6,1.03.6,0,0,.01,0,.02,0,.65-.01.93-.38,1.03-.59.17-.35.15-.78-.06-1.07-.03-.04-.02-.09.02-.11.04-.03.09-.02.11.02.25.34.28.83.08,1.24-.21.42-.64.67-1.17.68,0,0-.02,0-.02,0Z"></path><rect class="cls-1" x="96.54" y="40.06" width=".16" height="4"></rect><path class="cls-1" d="m61.02,55.84c-.9,0-1.75-.33-2.54-.99-.13-.11-.21-.19-.29-.29-.05-.06-.11-.13-.19-.21-.1-.1-.2-.23-.34-.43-.36-.52-.63-1.19-.79-1.93-.08-.37-.12-.71-.12-1.07,0-.45.05-.82.15-1.3.37-1.8,1.67-2.87,1.82-2.99,1.23-.98,3.14-1.27,4.19-.05.55.63.68,1.49.35,2.2-.25.54-.73.87-1.25.87,0,0-.02,0-.02,0-.62-.01-1.09-.34-1.25-.88-.15-.49,0-1.01.38-1.26.37-.25.66-.24.84-.18.26.08.42.29.48.45.12.31-.01.6-.19.74-.18.14-.4.14-.58.01-.04-.03-.04-.08-.02-.11s.08-.04.11-.02c.12.09.27.08.39-.01.14-.1.23-.32.14-.55-.05-.13-.18-.29-.38-.36-.21-.07-.45-.01-.7.16-.31.21-.44.66-.31,1.08.14.47.55.76,1.1.77.47,0,.89-.28,1.12-.77.3-.65.17-1.44-.33-2.03-.99-1.14-2.8-.86-3.97.07-.52.41-1.47,1.48-1.76,2.9-.1.47-.15.83-.15,1.27,0,.35.04.68.12,1.04.16.72.42,1.37.77,1.87.13.19.22.31.32.4.08.08.14.15.2.21.08.09.15.17.27.27.81.67,1.68.99,2.59.95.56-.02,1.03-.23,1.33-.59.27-.32.39-.74.33-1.18-.06-.45-.32-.83-.71-1-.31-.14-.63-.11-.88.07-.22.16-.36.52-.31.81.03.18.13.41.46.51.2.06.37-.05.45-.19.07-.11.1-.28-.03-.41-.03-.03-.03-.08,0-.11.03-.03.08-.03.11,0,.15.16.17.4.05.6-.11.19-.36.34-.63.26-.32-.09-.53-.32-.58-.63-.06-.36.1-.78.38-.97.29-.21.68-.24,1.04-.08.44.19.74.61.8,1.12.06.49-.07.95-.36,1.31-.33.39-.84.62-1.45.65-.05,0-.1,0-.16,0Z"></path><path class="cls-1" d="m95.79,39.03s-.04,0-.06-.03c-.03-.03-.03-.08,0-.11.52-.47.72-.74.85-1.41.09-.47.02-1.22-.38-1.76-.36-.5-.84-.57-1.5-.21-.04.02-.09,0-.11-.03-.02-.04,0-.09.03-.11.72-.39,1.29-.3,1.7.26.42.59.51,1.39.4,1.89-.14.71-.36,1.01-.9,1.5-.02.01-.03.02-.05.02Z"></path><path class="cls-1" d="m97.37,40.08s-.06-.01-.07-.04c-.02-.04,0-.09.03-.11.65-.37,1.36-1.15,1.41-2.26.02-.65-.08-1.04-.39-1.5-.46-.68-1.28-.83-1.98-.37-.04.02-.09.01-.11-.02-.02-.04-.01-.09.02-.11.78-.52,1.69-.35,2.2.41.33.49.44.92.42,1.6-.05,1.18-.8,2.01-1.49,2.4-.01,0-.03.01-.04.01Z"></path><path class="cls-1" d="m98.34,46.02c-.45-.03-.9-.59-.92-1.13-.04-1.07,1.05-2.14,1.92-2.99.3-.29.55-.54.72-.75.78-.97,1.03-1.36,1.03-2.31,0-.63-.49-1.18-1.09-1.23v-.16c.69.05,1.24.68,1.24,1.39,0,.99-.28,1.42-1.06,2.41-.18.22-.43.47-.73.77-.8.79-1.9,1.87-1.87,2.87.02.5.44.95.78.98v.16Z"></path><path class="cls-1" d="m100.8,55.84c-.07,0-.13,0-.2,0-.61-.03-1.12-.26-1.45-.65-.3-.35-.43-.82-.36-1.31.06-.47.32-.86.71-1.06.36-.18.78-.18,1.12.02.42.23.55.66.49.98-.07.34-.33.59-.69.63-.27.03-.54-.11-.65-.34-.09-.18-.06-.38.08-.53.03-.03.08-.03.11,0,.03.03.03.08,0,.11-.13.13-.09.27-.05.35.07.14.26.28.49.25.29-.03.5-.22.56-.5.05-.24-.03-.6-.41-.81-.3-.17-.66-.17-.97-.01-.34.17-.57.51-.62.94-.06.44.06.86.33,1.18.3.36.77.57,1.33.59.96.04,1.94-.23,2.62-.74,1.44-1.05,1.95-2.77,1.58-5.26-.21-1.41-1.2-2.52-1.74-2.96-1.15-.92-3.03-1.19-4.07-.04-.63.7-.61,1.49-.38,1.99.23.5.67.81,1.15.81,0,0,.01,0,.02,0,.55-.01.96-.3,1.1-.77.12-.42,0-.87-.31-1.08-.23-.16-.44-.21-.64-.15-.27.08-.4.32-.43.4-.09.21-.01.41.11.51.1.08.25.12.4.01.04-.03.09-.02.11.02.03.04.02.09-.02.11-.18.13-.42.13-.6-.02-.17-.14-.28-.41-.15-.7.04-.09.2-.39.53-.49.24-.07.5,0,.77.18.37.25.52.77.38,1.26-.16.54-.63.87-1.25.88-.56,0-1.07-.33-1.32-.9-.25-.55-.28-1.41.41-2.17,1.1-1.22,3.08-.93,4.29.03.57.45,1.58,1.6,1.8,3.06.38,2.55-.15,4.32-1.64,5.41-.67.49-1.6.77-2.53.77Z"></path><path class="cls-1" d="m101,54.81c-.33,0-.79-.11-1.06-.36-.14-.13-.22-.29-.22-.48h.16c0,.13.06.25.17.36.24.22.69.33,1,.31,1.75-.07,2.74-1.47,2.72-3.84-.02-1.83-1.13-3.81-2.76-3.84-.63-.01-1.31.09-1.49.89l-.16-.03c.2-.92.99-1.03,1.64-1.02,1.72.03,2.9,2.09,2.92,4,.02,2.43-1.05,3.92-2.87,4-.02,0-.04,0-.06,0Z"></path><path class="cls-1" d="m100.27,54.55l-.04-.16.08-.02c2.27-.56,2.46-2.07,2.46-3.43,0-2.61-1.62-3.26-2.31-3.41l-.08-.02.03-.16.08.02c1.53.34,2.44,1.67,2.44,3.57,0,1.03,0,2.95-2.58,3.59l-.08.02Z"></path><path class="cls-1" d="m101.74,65.07c-.26-.2-.41-.51-.41-.84,0-.59.48-1.07,1.07-1.07s1.07.48,1.07,1.07c0,.07,0,.13-.02.2l-.16-.03c.01-.06.02-.11.02-.17,0-.5-.41-.91-.91-.91s-.91.41-.91.91c0,.28.13.54.34.71l-.1.13Z"></path><path class="cls-1" d="m101.42,64.49s-.03,0-.04,0c-.84-.46-1.26-1-1.61-1.52-.02-.04-.02-.09.02-.11.04-.02.09-.02.11.02.34.5.74,1.03,1.55,1.47.04.02.05.07.03.11-.01.03-.04.04-.07.04Z"></path><path class="cls-1" d="m97.94,70.8s-.02,0-.03,0c-.44,0-.89-.25-1.32-.69-.42-.45-.84-1.52-.47-2.51.19-.51.54-.86,1.12-1.15,1.57-.78,3.26.13,3.91.56.04.02.05.07.02.11-.02.04-.07.05-.11.02-.63-.41-2.25-1.29-3.75-.55-.55.27-.86.59-1.04,1.06-.35.92.04,1.92.44,2.34.39.42.81.64,1.2.64,0,0,.02,0,.03,0,.97,0,1.1-.73,1.1-.74.12-.72-.36-.92-.45-.96-.08-.03-.32-.04-.51.05-.1.05-.17.13-.2.23-.03.1-.04.3.05.44.02.04.01.09-.03.11-.04.02-.09.01-.11-.03-.11-.18-.11-.42-.06-.57.04-.14.14-.25.28-.32.23-.11.51-.1.63-.06.12.04.69.29.56,1.13,0,0-.16.87-1.26.87Z"></path><path class="cls-1" d="m85.61,82.53c-.46,0-.9-.18-1.25-.52-.41-.4-.66-.97-.66-1.53,0-.88.55-1.66,1.63-2.34.82-.52,1.82-.87,2.48-1.03,1.38-.33,2.24-.46,4.55-.59.33-.02.64-.03.93-.03.52-.01,1.01-.03,1.64-.09h.1c.83-.1,1.29-.14,2.17-.35,1.25-.29,2.28-.81,3.14-1.59.76-.69,1.15-1.14,1.48-2.03.28-.76.43-2.3-.31-3.46-.61-.95-1.48-1.52-2.56-1.68-.94-.14-1.72.28-2.19,1.17-.22.41-.17,1.14.02,1.49.15.27.59.71,1.14.71,0,0,.02,0,.03,0,.97,0,1.1-.73,1.1-.74.12-.72-.36-.92-.45-.96-.08-.03-.32-.04-.51.05-.1.05-.17.13-.2.23-.03.1-.04.3.05.44.02.04.01.09-.03.11-.04.02-.09.01-.11-.03-.11-.18-.11-.42-.06-.57.04-.14.14-.25.28-.32.23-.12.51-.1.63-.06.12.04.69.29.56,1.13,0,0-.16.87-1.26.87,0,0-.02,0-.03,0-.62,0-1.11-.49-1.28-.8-.21-.39-.27-1.18-.02-1.64.5-.94,1.35-1.39,2.35-1.25,1.14.16,2.04.75,2.68,1.75.77,1.2.62,2.81.32,3.6-.34.92-.76,1.41-1.52,2.1-.88.8-1.93,1.33-3.21,1.63-.89.21-1.35.26-2.19.34h-.1c-.64.08-1.13.09-1.65.1-.29,0-.59.02-.92.03-2.3.13-3.15.26-4.52.59-1.38.33-3.98,1.42-3.98,3.21,0,.52.23,1.05.61,1.42.34.33.76.49,1.21.48.52-.02,1-.24,1.31-.6.24-.28.36-.63.34-.99-.01-.22-.05-.41-.12-.57-.22-.51-.67-.83-1.19-.84-.28,0-.56.12-.76.33-.2.21-.3.5-.27.78.02.22.13.43.28.55.14.11.31.16.5.13.18-.02.32-.1.39-.22.07-.13.05-.31-.05-.52-.02-.04,0-.09.04-.11.04-.02.09,0,.11.04.16.33.11.54.05.67-.09.17-.28.28-.51.3-.24.03-.45-.03-.62-.17-.19-.15-.31-.4-.34-.66-.03-.32.08-.65.31-.9.23-.25.55-.39.88-.38.58,0,1.09.37,1.33.94.08.18.12.38.13.63.02.4-.11.8-.38,1.11-.34.39-.86.63-1.42.65-.02,0-.05,0-.07,0Z"></path><path class="cls-1" d="m84.42,83.21c-.56,0-1.02-.17-1.46-.55-.54-.45-.87-1.22-.87-1.99,0-.38.08-.91.31-1.28.78-1.24,1.73-1.66,2.93-2.19.04-.02.09,0,.11.04.02.04,0,.09-.04.11-1.22.54-2.1.93-2.85,2.13-.21.34-.29.84-.29,1.19,0,.73.31,1.44.82,1.87.49.41.97.56,1.63.5.46-.05.89-.39.95-.6.01-.04.06-.07.1-.05.04.01.07.06.05.1-.09.29-.58.66-1.09.71-.1,0-.2.01-.29.01Z"></path><path class="cls-1" d="m97.46,57.84c-.48-.3-1.04-.88-1.04-1.96,0-.8.39-1.76,1.04-1.98l.05.15c-.51.17-.93.99-.93,1.83,0,1,.53,1.54.97,1.82l-.09.14Z"></path><path class="cls-1" d="m97.78,64.2s-.05,0-.06-.03c-.95-1.15-1.33-2.16-1.3-3.5.03-1.56.61-2.36,1.63-3.63.03-.03.08-.04.11-.01.03.03.04.08.01.11-1.03,1.28-1.56,2.01-1.59,3.53-.03,1.3.34,2.28,1.27,3.4.03.03.02.08-.01.11-.02.01-.03.02-.05.02Z"></path><path class="cls-1" d="m94.11,38.94l-.09-.13c.54-.35.89-.81.99-1.33.19-.96-.03-1.74-.62-2.19-.23-.18-.52-.25-.8-.2-.32.05-.62.25-.83.56l-.09.13-.13-.09.09-.13c.23-.34.56-.57.93-.63.32-.05.65.03.92.23.65.49.89,1.32.69,2.35-.11.56-.48,1.05-1.06,1.43Z"></path><path class="cls-1" d="m65.99,39.03s-.04,0-.05-.02c-.54-.49-.76-.79-.9-1.5-.09-.42-.1-1.29.41-1.89.42-.5.99-.58,1.69-.26.04.02.06.07.04.11-.02.04-.07.06-.11.04-.64-.3-1.13-.22-1.5.22-.47.55-.45,1.37-.37,1.76.14.67.33.94.85,1.41.03.03.03.08,0,.11-.02.02-.04.03-.06.03Z"></path><path class="cls-1" d="m64.37,40.07c-.69-.39-1.44-1.22-1.49-2.4-.03-.68.09-1.11.42-1.6.51-.76,1.42-.93,2.2-.41l-.09.13c-.7-.47-1.52-.31-1.98.37-.31.46-.41.86-.39,1.5.04,1.11.76,1.9,1.41,2.26l-.08.14Z"></path><path class="cls-1" d="m63.76,47.06c-.41,0-.79-.2-.98-.37-.35-.31-.48-.78-.36-1.22.1-.36.36-.61.69-.67.28-.05.52.04.67.26.15.22.17.52.05.73-.11.18-.3.27-.54.24l.02-.16c.18.02.31-.04.39-.16.09-.15.07-.39-.04-.56-.07-.1-.22-.25-.51-.2-.27.05-.48.26-.56.56-.08.3-.05.73.31,1.06.23.21.79.47,1.27.25.72-.32,1.04-.96,1.04-2.06,0-1.31-1.15-2.52-1.99-3.4-.28-.3-.53-.56-.69-.77-.61-.82-.92-1.31-.92-2.48,0-.9.68-1.66,1.59-1.77l.02.16c-.83.1-1.45.79-1.45,1.61,0,1.07.24,1.5.89,2.38.15.21.4.46.68.76.86.9,2.03,2.13,2.03,3.51,0,1.17-.35,1.85-1.13,2.2-.15.07-.31.1-.46.1Z"></path><path class="cls-1" d="m63.49,46.05s-.05,0-.07,0l.03-.16c.07.01.14,0,.22-.07.22-.17.4-.59.41-.96.04-1.02-1.03-2.1-1.81-2.89-.27-.28-.51-.51-.68-.72l-.07-.09c-.74-.92-1.11-1.38-1.11-2.35,0-.75.7-1.31,1.35-1.36v.16c-.57.05-1.19.54-1.19,1.2,0,.91.36,1.36,1.07,2.25l.07.09c.16.2.4.44.66.71.84.85,1.89,1.92,1.86,3-.01.41-.22.88-.48,1.08-.09.07-.18.11-.28.11Z"></path><path class="cls-1" d="m59.33,66.7c-.16,0-.31-.02-.46-.06-.41-.12-.72-.38-.88-.72-.16-.34-.15-.74.03-1.15.17-.4.6-.69,1.04-.72.39-.02.74.17.95.53.02.03.12.21.11.43,0,.23-.09.53-.29.66-.25.16-.55.18-.76.06-.19-.11-.29-.32-.28-.6,0-.04.04-.08.08-.08.04,0,.08.04.08.08,0,.22.06.38.2.46.16.09.41.07.6-.05.12-.08.21-.3.22-.52,0-.15-.06-.29-.09-.35-.18-.31-.46-.47-.8-.45-.38.02-.75.28-.9.62-.16.37-.17.72-.03,1.01.14.3.42.52.78.63.28.08.6.08.95-.02.34-.1.84-.32,1.04-.43.68-.38,1.12-.7,1.44-1.03.74-.77,1.22-1.69,1.46-2.81.3-1.38,0-2.75-.06-3.01-.39-1.62-1.56-3.34-2.98-3.34-.36,0-.59,0-.8.14-.11.07-.21.17-.3.29-.1.13-.16.25-.2.39-.09.3-.05.63.09.88.13.23.33.39.58.45.34.09.7.02.93-.18.2-.18.29-.45.25-.79-.02-.17-.21-.33-.42-.36-.24-.03-.44.11-.56.38-.02.04-.06.06-.1.04-.04-.02-.06-.06-.04-.1.14-.34.41-.52.73-.48.28.04.53.26.56.5.06.49-.13.78-.31.93-.27.23-.69.32-1.08.22-.29-.08-.53-.26-.68-.53-.17-.3-.21-.66-.11-1.01.05-.17.12-.3.23-.44.1-.14.22-.25.34-.33.25-.16.51-.17.89-.17,1.5,0,2.74,1.78,3.14,3.46.06.27.37,1.67.06,3.08-.25,1.15-.74,2.1-1.5,2.89-.33.34-.78.67-1.47,1.06-.2.11-.71.34-1.07.44-.2.06-.4.09-.59.09Z"></path><path class="cls-1" d="m59.47,65.84c-.1,0-.2-.02-.32-.07l.06-.15c.24.09.36.08.68-.06.1-.05.22-.11.36-.19l.1-.06c.6-.34,1.37-.9,2.1-2.26.19-.36.33-.72.43-1.11.08-.31.11-.57.12-.83.02-.47-.03-.97-.15-1.56-.2-.94-.42-1.45-1.02-2.26-.3-.41-.53-.61-1.02-.62v-.16c.61.01.88.32,1.15.69.6.83.85,1.37,1.05,2.32.13.6.18,1.11.16,1.59,0,.27-.05.54-.13.86-.1.4-.24.78-.44,1.15-.74,1.39-1.54,1.97-2.16,2.32l-.1.06c-.14.08-.26.15-.37.2-.2.09-.34.13-.47.13Z"></path><path class="cls-1" d="m60.04,65.07l-.1-.13c.22-.17.34-.43.34-.71,0-.5-.41-.91-.91-.91s-.91.41-.91.91c0,.06,0,.11.02.17l-.16.03c-.01-.06-.02-.13-.02-.2,0-.59.48-1.07,1.07-1.07s1.07.48,1.07,1.07c0,.33-.15.63-.41.84Z"></path><path class="cls-1" d="m60.43,64.31l-.12-.11c.15-.16.24-.38.24-.61,0-.48-.38-.87-.85-.87-.41,0-.77.3-.84.72l-.16-.03c.08-.5.5-.86.99-.86.56,0,1.01.46,1.01,1.03,0,.27-.1.52-.28.72Z"></path><path class="cls-1" d="m60.64,63.44l-.09-.13c.93-.67,1.53-1.87,1.54-3.06,0-1.08-.44-2.1-.88-2.47l.1-.12c.54.46.94,1.57.94,2.59,0,1.51-.84,2.63-1.61,3.19Z"></path><path class="cls-1" d="m60.35,64.49s-.06-.02-.07-.04c-.02-.04,0-.09.03-.11.81-.44,1.21-.97,1.55-1.47.02-.04.07-.05.11-.02.04.02.05.07.02.11-.35.52-.76,1.06-1.61,1.52-.01,0-.03,0-.04,0Z"></path><path class="cls-1" d="m75.47,79.35c-1.39-1.71-3.83-1.81-6.41-1.91-2.11-.08-4.76-.27-6.53-1-2.83-1.17-3.57-2.81-3.85-3.43-.03-.06-.05-.11-.07-.15-.27-.53-.49-1.55-.51-2.41-.01-.51.07-1.06.22-1.49.47-1.37,1.17-2.15,2.56-2.9.78-.42,1.43-.57,2.12-.5.82.09,1.29.38,1.53.94l-.15.06c-.22-.51-.63-.76-1.4-.84-.66-.07-1.29.08-2.03.48-1.35.73-2.02,1.49-2.48,2.81-.14.41-.22.94-.21,1.43.02.95.27,1.92.49,2.35.02.04.05.1.07.16.27.6.99,2.2,3.76,3.34,1.74.72,4.37.9,6.47.99,2.62.1,5.1.2,6.53,1.97l-.12.1Z"></path><path class="cls-1" d="m63.84,70.8c-1.11,0-1.26-.86-1.26-.87-.14-.84.44-1.09.56-1.13.12-.04.41-.05.63.06.14.07.24.18.28.32.05.16.05.4-.06.57-.02.04-.07.05-.11.03-.04-.02-.05-.07-.03-.11.09-.15.08-.35.05-.44-.03-.1-.1-.18-.2-.23-.19-.1-.43-.08-.51-.05-.1.03-.57.24-.45.96,0,0,.13.74,1.1.74,0,0,.02,0,.03,0,.39,0,.81-.23,1.2-.64.39-.41.79-1.41.44-2.34-.18-.48-.49-.79-1.04-1.06-1.5-.74-3.12.14-3.75.55-.04.02-.09.01-.11-.02-.02-.04-.01-.09.02-.11.65-.43,2.33-1.34,3.91-.56.58.29.93.64,1.12,1.15.38.99-.05,2.06-.47,2.51-.42.45-.88.69-1.32.69,0,0-.02,0-.03,0Z"></path><path class="cls-1" d="m79.54,81.56l-.03-.16c.9-.18,1.3-.73,1.3-1.19,0-.14,0-.27-.02-.39-.11-.65-.55-1.13-1.07-1.65-.05-.05-.1-.09-.15-.13-.06-.05-.13-.11-.2-.18-.12-.12-.3-.23-.46-.33-.05-.03-.1-.06-.15-.1-.59-.38-1.4-.73-2.45-1.05l-.3-.09c-.11-.03-.22-.06-.33-.08l-.12-.03c-.38-.09-.75-.14-1.08-.2-.1-.02-.2-.03-.3-.05-.48-.08-.93-.11-1.44-.14-.15,0-.3-.02-.46-.03-.7-.05-1.27-.04-1.82-.02-.21,0-.42,0-.62,0-.13,0-.26,0-.4,0h-.1c-.4,0-.82.01-1.3-.01h-.23c-.52-.03-.87-.05-1.43-.1-1.46-.13-2.59-.35-3.68-1.04-1.32-.84-2.32-2.78-1.69-4.55v-.04c.05-.12.13-.34.28-.6.06-.1.16-.24.25-.35l.05-.06c.22-.29.45-.43.67-.55.59-.33,1.3-.07,1.58.24.25.27.32.58.23.92l-.15-.04c.08-.29.01-.54-.2-.77-.24-.27-.88-.5-1.39-.21-.16.09-.4.22-.62.51l-.05.06c-.08.11-.18.24-.24.33-.15.25-.22.46-.25.57v.04c-.61,1.7.34,3.56,1.61,4.36,1.06.68,2.17.89,3.6,1.02.56.05.91.07,1.43.09h.23c.48.03.89.03,1.29.02h.1c.13,0,.27,0,.4,0,.21,0,.41,0,.62,0,.55-.01,1.13-.03,1.83.03.16.01.32.02.46.03.52.03.97.06,1.46.15.1.02.2.03.3.05.33.05.7.11,1.09.2l.12.02c.11.02.23.05.34.08l.31.09c1.07.33,1.88.67,2.49,1.07.05.03.1.06.15.09.17.11.36.22.49.36.07.07.13.12.19.17.05.05.1.09.16.14.52.51,1,1.03,1.12,1.73.02.14.02.27.02.42,0,.53-.44,1.15-1.43,1.35Z"></path><path class="cls-1" d="m76.16,82.53s-.05,0-.07,0c-.57-.02-1.09-.26-1.42-.65-.27-.31-.4-.7-.38-1.11.01-.24.06-.45.13-.63.24-.57.75-.93,1.33-.94.33,0,.65.13.88.38.23.25.34.58.31.9-.03.26-.15.51-.34.66-.17.14-.38.19-.62.17-.23-.03-.42-.14-.51-.3-.07-.12-.11-.34.05-.67l.14.07c-.1.21-.12.39-.05.52.07.12.21.2.39.22.19.02.36-.02.5-.13.15-.12.26-.33.28-.55.03-.28-.07-.56-.27-.78-.2-.22-.47-.33-.76-.33-.51,0-.97.33-1.19.84-.07.16-.11.35-.12.57-.02.36.1.71.34.99.31.36.79.58,1.31.6.44.02.87-.15,1.21-.48.38-.37.61-.9.61-1.42,0-1.79-2.6-2.88-3.98-3.21-1.37-.33-2.22-.46-4.52-.59-.33-.02-.63-.03-.92-.03-.52-.01-1.01-.03-1.65-.09h-.1c-.84-.1-1.3-.14-2.19-.35-1.28-.3-2.33-.83-3.21-1.63-.76-.69-1.18-1.18-1.52-2.1-.29-.79-.45-2.4.32-3.6.64-1,1.54-1.58,2.68-1.75,1-.14,1.85.31,2.35,1.25.24.46.19,1.24-.02,1.64-.16.3-.66.79-1.28.8-1.14.01-1.29-.86-1.29-.87-.14-.84.44-1.09.56-1.13.12-.04.41-.05.63.06.14.07.24.18.28.32.05.16.05.4-.06.57l-.14-.08c.09-.15.08-.35.05-.44-.03-.1-.1-.18-.2-.23-.19-.1-.43-.08-.51-.05-.1.03-.57.24-.45.96,0,0,.13.74,1.1.74,0,0,.02,0,.03,0,.55,0,.99-.44,1.14-.71.19-.35.24-1.07.02-1.49-.47-.89-1.24-1.3-2.19-1.17-1.09.16-1.95.72-2.56,1.68-.74,1.15-.59,2.7-.31,3.46.33.89.72,1.35,1.48,2.03.86.78,1.89,1.3,3.14,1.59.88.2,1.34.25,2.17.34h.1c.63.08,1.12.09,1.64.1.29,0,.6.02.93.03,2.31.13,3.16.26,4.55.59.66.16,1.65.51,2.48,1.03,1.08.68,1.63,1.47,1.63,2.34,0,.56-.25,1.14-.66,1.53-.35.34-.8.52-1.25.52Z"></path><path class="cls-1" d="m67.71,38.96s-.03,0-.04-.01c-.58-.38-.95-.87-1.06-1.43-.21-1.02.04-1.86.69-2.35.27-.2.59-.28.92-.23.37.06.7.28.93.63l.09.13s.02.09-.02.11c-.04.02-.09.02-.11-.02l-.09-.13c-.21-.31-.5-.51-.83-.56-.28-.05-.56.02-.8.2-.6.45-.82,1.23-.62,2.19.1.52.45.98.99,1.33.04.02.05.07.02.11-.02.02-.04.04-.07.04Z"></path><path class="cls-1" d="m89.21,39.24c-.48,0-1.37-.16-1.9-.54-.53-.38-.71-.87-.51-1.46.05-.14.14-.35.25-.59.29-.63.68-1.49.71-2.14.05-1.27-.4-2.11-1.29-2.43-1.09-.38-2.26.28-3.2.82-.39.22-.75.43-1.05.53-.55.18-.84.2-1.32.21-.49,0-.78-.02-1.33-.21-.3-.1-.67-.31-1.05-.53-.94-.54-2.11-1.2-3.2-.82-.9.32-1.34,1.16-1.29,2.43.03.65.42,1.51.71,2.14.11.24.21.45.25.59.2.59.03,1.08-.51,1.46-.56.4-1.5.56-1.96.54-1.66-.05-2.64-.47-3.62-1.54l.12-.11c.95,1.03,1.9,1.43,3.51,1.49.44.01,1.34-.14,1.87-.51.48-.34.62-.76.45-1.28-.04-.13-.14-.34-.25-.58-.29-.64-.7-1.52-.72-2.2-.07-1.7.72-2.35,1.4-2.59,1.16-.41,2.36.28,3.33.83.38.22.74.42,1.03.52.53.18.81.2,1.28.2.48,0,.74-.02,1.27-.2.29-.1.65-.3,1.03-.52.97-.55,2.17-1.24,3.33-.83.68.24,1.47.88,1.4,2.59-.03.68-.43,1.56-.72,2.2-.11.24-.2.45-.25.58-.17.52-.03.94.45,1.28.53.37,1.42.52,1.87.51,1.61-.05,2.56-.45,3.51-1.49l.12.11c-.98,1.07-1.96,1.48-3.62,1.54-.02,0-.04,0-.06,0Z"></path><path class="cls-1" d="m79.68,81.52s-.01,0-.02,0c-.04-.01-.07-.05-.06-.1.05-.2.07-.4.07-.6,0-.35-.08-.85-.29-1.19-.77-1.22-1.66-1.68-2.83-2.19-.94-.42-1.1-.46-1.2-.48-.04,0-.07-.02-.13-.04-.04-.02-.06-.06-.05-.1.02-.04.06-.06.1-.05.05.02.07.02.1.03.11.03.27.06,1.23.49,1.2.53,2.1,1,2.9,2.26.23.37.31.9.31,1.28,0,.21-.03.43-.08.64,0,.04-.04.06-.08.06Z"></path><path class="cls-1" d="m76.23,82.6s-.05,0-.07,0c-.3-.01-.6-.09-.86-.22l.07-.14c.24.12.51.19.79.2.44.02.87-.15,1.21-.48.38-.37.61-.9.61-1.42,0-.61-.3-1.19-.9-1.72l.11-.12c.63.56.95,1.18.95,1.84,0,.56-.25,1.14-.66,1.53-.35.34-.8.52-1.25.52Z"></path><path class="cls-1" d="m76.16,81.4s-.08,0-.11,0c-.24-.03-.45-.16-.55-.34-.08-.13-.14-.37.01-.7.02-.04.06-.06.11-.04.04.02.06.07.04.11-.1.22-.1.41-.02.56.08.14.24.24.43.26.2.02.37-.02.51-.14.16-.13.26-.33.28-.55.04-.38-.16-.77-.49-.97-.04-.02-.05-.07-.03-.11s.07-.05.11-.03c.38.24.61.69.57,1.13-.02.26-.15.5-.34.66-.15.12-.32.18-.52.18Z"></path><path class="cls-1" d="m98.21,41.73l-.11-.11.15-.15c.37-.37.68-.68.98-1.03l.02-.03c.42-.5.94-1.12.94-2.14,0-.9-.7-1.75-1.44-1.75v-.16c.84,0,1.6.91,1.6,1.91,0,1.08-.57,1.75-.98,2.24l-.02.03c-.3.35-.62.67-.98,1.04l-.15.15Z"></path><path class="cls-1" d="m97.39,40.09s-.05-.01-.07-.04c-.02-.04-.01-.09.02-.11.64-.42,1.42-1.15,1.46-2.2.02-.65-.08-1.04-.39-1.5-.18-.27-.41-.47-.67-.59-.04-.02-.06-.07-.04-.11.02-.04.07-.06.11-.04.29.13.54.36.74.65.33.49.44.92.42,1.6-.04,1.12-.86,1.88-1.53,2.33-.01,0-.03.01-.04.01Z"></path><path class="cls-1" d="m95.79,39.03s-.05-.01-.06-.03c-.03-.04-.02-.09.02-.11.56-.42.76-.7.92-1.34.1-.41.08-1.21-.37-1.76-.05-.06-.1-.11-.15-.15-.03-.03-.04-.08,0-.11.03-.03.08-.04.11,0,.06.05.12.11.17.17.46.55.54,1.37.41,1.9-.17.67-.38.99-.98,1.43-.01.01-.03.02-.05.02Z"></path><path class="cls-1" d="m94.09,38.98s-.05-.01-.07-.04c-.02-.04-.01-.09.03-.11.58-.35.9-.75,1.03-1.28.22-.91,0-1.73-.62-2.19-.04-.03-.04-.08-.02-.11.03-.04.08-.04.11-.02.66.5.91,1.38.67,2.36-.18.74-.68,1.13-1.1,1.38-.01,0-.03.01-.04.01Z"></path><path class="cls-1" d="m99.4,50.84c-.19,0-.39-.03-.58-.08-.65-.18-1.2-.5-1.6-.91-.04-.04-.07-.07-.11-.1-.12-.12-.22-.21-.29-.41-.01-.04,0-.09.05-.1.04-.01.09,0,.1.05.06.16.14.24.25.35.03.03.07.07.11.11.38.39.9.7,1.52.87.53.15,1.08.07,1.54-.21.04-.02.09-.01.11.03.02.04.01.09-.03.11-.33.21-.7.31-1.08.31Z"></path><path class="cls-1" d="m59.45,65.84c-.13,0-.26-.03-.36-.09-.21-.12-.31-.34-.3-.62,0-.04.04-.08.08-.08.04,0,.08.04.08.08,0,.22.07.38.22.47.18.1.45.09.64-.03.13-.08.22-.29.22-.49,0-.18-.08-.33-.09-.35-.19-.33-.48-.52-.76-.52-.04,0-.08-.03-.08-.08,0-.04.03-.08.08-.08.34-.01.68.22.9.6.02.03.12.21.11.43,0,.26-.12.52-.29.63-.13.08-.29.13-.44.13Z"></path><path class="cls-1" d="m61.79,65.78l-.09-.13.27-.18c.21-.15.38-.3.53-.45.74-.77,1.22-1.69,1.46-2.81.3-1.38,0-2.75-.06-3.01-.4-1.67-1.6-3.1-2.78-3.32l.03-.16c1.24.23,2.49,1.71,2.91,3.44.06.27.37,1.67.06,3.08-.25,1.15-.74,2.1-1.5,2.89-.15.16-.33.31-.55.47l-.27.18Z"></path><path class="cls-1" d="m60.5,64.38l-.12-.11c.15-.16.24-.38.24-.61,0-.49-.42-.94-.88-.94v-.16c.54,0,1.04.52,1.04,1.1,0,.27-.1.52-.28.72Z"></path><path class="cls-1" d="m60.11,65.14l-.1-.13c.22-.17.34-.43.34-.71,0-.5-.47-.98-.96-.98v-.16c.58,0,1.12.55,1.12,1.14,0,.33-.15.63-.41.84Z"></path><path class="cls-1" d="m65.25,59.91s-.07-.03-.08-.06c-.15-.74-.49-1.31-.95-1.92-.03-.04-.02-.09.02-.11.04-.03.09-.02.11.02.47.63.82,1.21.98,1.99,0,.04-.02.09-.06.09,0,0-.01,0-.02,0Z"></path><path class="cls-1" d="m63.97,64.25s-.04,0-.06-.03c-.03-.03-.03-.08,0-.11.34-.32.69-.77.88-1.15.16-.33.28-.66.36-1.01,0-.04.05-.07.1-.06.04,0,.07.05.06.1-.08.36-.2.7-.37,1.04-.2.4-.56.87-.92,1.2-.02.01-.03.02-.05.02Z"></path><path class="cls-1" d="m65.18,55.27c-.13-.44-.4-.81-.86-1.17l.1-.13c.49.38.78.78.92,1.25l-.15.04Z"></path><path class="cls-1" d="m64.42,54.05s-.04,0-.06-.03c-.03-.03-.03-.08,0-.11.42-.39.71-.71.83-1.13.01-.04.06-.07.1-.05.04.01.07.06.05.1-.13.45-.43.8-.88,1.2-.02.01-.03.02-.05.02Z"></path><path class="cls-1" d="m62.1,49.7s-.07-.02-.08-.06c-.01-.04.01-.09.06-.1l.53-.14.3-.23.2-.28.18-.45.07-.36s.05-.07.09-.06c.04,0,.07.05.06.09l-.07.37-.19.49-.23.31-.35.26-.55.14s-.01,0-.02,0Z"></path><path class="cls-1" d="m60.67,54.18c-.38,0-.65-.19-.94-.48-.1-.1-.19-.23-.27-.35-.28-.41-.49-.94-.6-1.46-.15-.75-.09-1.48-.04-1.72.14-.68.34-1.21.6-1.57.23-.33.54-.59.92-.77.25-.12.48-.18.63-.22l.04.16c-.15.04-.37.1-.6.21-.36.17-.65.41-.86.72-.24.34-.43.85-.57,1.51-.05.23-.1.93.04,1.65.1.5.31,1,.57,1.4.08.12.16.24.25.33.33.33.6.5,1.06.41l.03.16c-.09.02-.18.03-.27.03Z"></path><path class="cls-1" d="m63.35,46.06s-.05,0-.08,0c-.04,0-.08-.04-.07-.09s.04-.08.09-.07c.45.04.6-.31.69-.63.01-.04.06-.07.1-.06.04.01.07.06.06.1-.05.19-.2.75-.78.75Z"></path><path class="cls-1" d="m60.84,54.81s-.09,0-.13,0c-1.24-.12-1.82-1.08-2.01-1.4-.26-.43-.45-.97-.57-1.59-.04-.18-.06-.38-.08-.59v-.1c-.04-.22-.03-.9.16-1.61.07-.27.12-.44.24-.69.1-.2.24-.47.36-.63.1-.13.22-.28.38-.42.13-.11.26-.22.4-.31,1.08-.68,2.15-.53,2.66-.04l-.11.11c-.46-.45-1.46-.58-2.46.06-.13.08-.26.19-.39.29-.15.12-.26.27-.35.39-.11.15-.26.42-.35.6-.11.24-.16.39-.23.66-.18.69-.19,1.34-.16,1.55v.1c.03.2.06.4.09.57.12.61.3,1.12.55,1.54.18.3.73,1.21,1.89,1.32.29.03.72-.05.96-.27.13-.11.2-.25.21-.41h.16c0,.21-.1.39-.26.53-.26.22-.65.31-.95.31Z"></path><path class="cls-1" d="m88.89,40.2s-.07,0-.1,0c-2.14-.02-3.83-.97-4.95-1.6-.11-.06-.21-.12-.31-.17-.22-.12-.46-.11-.58.03-.12.15-.14.41.06.58.03.03.03.08,0,.11-.03.03-.08.03-.11,0-.23-.22-.26-.57-.07-.8.17-.2.49-.23.78-.07.1.06.21.11.32.18,1.11.62,2.78,1.56,4.87,1.58,1.41.02,2.59-.3,3.52-.93.97-.66,1.91-1.48,1.47-2.54-.14-.35-.43-.59-.79-.69-.42-.11-.9-.02-1.25.25-.23.17-.36.34-.41.5-.08.26-.12.64.12.95.28.37.72.38.88.33.26-.08.46-.27.54-.52.07-.21.03-.42-.08-.57-.07-.09-.2-.13-.34-.1-.15.04-.26.15-.29.31,0,.04-.05.07-.09.06-.04,0-.07-.05-.06-.09.04-.22.2-.39.41-.44.2-.05.39.01.5.15.15.2.19.46.11.72-.09.3-.33.53-.64.62-.24.07-.73.04-1.06-.38-.22-.28-.27-.67-.15-1.09.06-.2.21-.39.47-.58.39-.3.92-.4,1.39-.28.42.11.74.39.9.79.48,1.16-.5,2.03-1.53,2.73-.94.64-2.12.96-3.51.96Z"></path><path class="cls-1" d="m92.42,38.12s-.07-.02-.08-.06c-.01-.04.01-.09.05-.1.27-.08.47-.28.55-.53.07-.21.04-.41-.08-.56-.08-.1-.13-.16-.33-.17-.04,0-.08-.04-.08-.08,0-.04.04-.08.08-.08.28.01.36.13.44.23.15.2.19.46.11.71-.1.3-.34.54-.66.64,0,0-.02,0-.02,0Z"></path><path class="cls-1" d="m98.03,54.34s-.03,0-.04-.01c-.06-.04-.12-.05-.18-.05-.09-.01-.19-.03-.34-.14-.38-.22-.86-.9-.98-1.65-.06-.4-.05-.98.38-1.45.03-.03.08-.03.11,0,.03.03.03.08,0,.11-.39.42-.4.95-.34,1.31.11.71.55,1.34.91,1.55.12.1.19.11.28.12.07,0,.14.02.23.07.04.02.05.07.03.11-.01.03-.04.04-.07.04Z"></path><path class="cls-1" d="m99.31,52.12s-.03,0-.04,0c-.87-.01-1.85-.41-2.39-.97-.36-.37-.39-.79-.38-1.07.01-.43.13-.67.44-.88l.09.13c-.26.18-.36.38-.37.76,0,.25.02.63.33.96.42.44,1.31.91,2.28.92.56,0,1.04-.13,1.48-.43.47-.32.8-.77.94-1.31l.16.04c-.15.58-.5,1.07-1,1.41-.46.31-.96.46-1.53.46Z"></path><path class="cls-1" d="m80.88,72.73l-.06-.08c-.15-.2-.91-.67-1.58-.94-.5-.2-.79-.27-1.29-.36-.55-.1-.85-.1-1.44-.1-.43,0-.72.03-1.08.06-.1,0-.21.02-.33.03-.31.03-.55.06-.79.09-.29.04-.56.08-.92.1h-.05c-.59.04-.95.07-1.57.04-.68-.03-1.07-.06-1.75-.22-.65-.15-1.05-.25-1.68-.56-.61-.3-.97-.53-1.49-1.05-.52-.51-.77-.85-1.07-1.46-.31-.62-.44-1.03-.54-1.78-.03-.25-.03-.64-.03-.64v-25.84h31.35v25.84s0,.39-.02.64c-.1.74-.23,1.16-.54,1.78-.31.61-.56.95-1.07,1.46-.53.52-.89.74-1.49,1.05-.63.31-1.03.41-1.68.56-.68.15-1.08.19-1.75.22-.61.03-.97,0-1.56-.04h-.05c-.36-.03-.63-.07-.92-.11-.24-.03-.48-.07-.79-.09-.12-.01-.23-.02-.33-.03-.36-.03-.65-.06-1.08-.06-.59,0-.9,0-1.44.1-.51.09-.8.16-1.29.36-.67.27-1.43.75-1.58.94l-.06.08Zm-4.41-1.65s.02,0,.03,0c.58,0,.91,0,1.47.11.51.09.82.16,1.33.37.6.24,1.32.67,1.58.93.26-.26.98-.68,1.58-.93.51-.21.82-.28,1.33-.37.56-.1.89-.1,1.47-.11.44,0,.73.03,1.1.06.1,0,.21.02.33.03.31.03.56.06.8.1.28.04.55.08.91.1h.05c.59.04.94.07,1.54.04.67-.03,1.05-.06,1.72-.21.64-.14,1.03-.24,1.64-.55.59-.3.94-.51,1.45-1.02.51-.5.74-.82,1.04-1.41.3-.61.42-.99.52-1.73.02-.17.03-.41.03-.54h0v-25.76h-31.03v25.68s0,.38.03.62c.1.73.22,1.12.52,1.73.3.6.53.91,1.04,1.41.51.5.86.72,1.45,1.02.61.31,1,.4,1.64.55.67.15,1.06.18,1.72.21.61.03.96,0,1.55-.04h.05c.36-.03.62-.07.91-.11.24-.03.49-.07.8-.1.12-.01.23-.02.33-.03.36-.03.64-.06,1.07-.06Z"></path><path class="cls-2" d="m62.76,69.55c0-.35.28-.63.63-.63s.63.28.63.63-.28.63-.63.63-.63-.28-.63-.63Z"></path><path class="cls-2" d="m63.39,70.23c-.37,0-.67-.3-.67-.67s.3-.67.67-.67.67.3.67.67-.3.67-.67.67Zm0-1.27c-.33,0-.59.27-.59.59s.27.59.59.59.59-.27.59-.59-.27-.59-.59-.59Z"></path><path class="cls-2" d="m58.87,65.08c0-.31.2-.57.45-.57s.45.25.45.57-.2.57-.45.57-.45-.25-.45-.57Z"></path><path class="cls-2" d="m59.32,65.69c-.27,0-.49-.27-.49-.61s.22-.61.49-.61.49.27.49.61-.22.61-.49.61Zm0-1.13c-.22,0-.41.24-.41.53s.18.53.41.53.41-.24.41-.53-.18-.53-.41-.53Z"></path><path class="cls-2" d="m61.08,53.85c0-.26.19-.47.43-.47s.43.21.43.47-.19.47-.43.47-.43-.21-.43-.47Z"></path><path class="cls-2" d="m68.84,37.23c-.03-.26.13-.49.35-.51.22-.02.42.17.44.43.03.26-.13.49-.35.51-.22.02-.42-.17-.44-.43Z"></path><path class="cls-2" d="m60.17,57.21s0,0,0,0c-.04,0-.08-.04-.07-.09v-.02c.02-.12.03-.22.07-.31.05-.12.07-.16.15-.23.07-.08.13-.12.24-.17.04-.02.09,0,.11.04.02.04,0,.09-.04.11-.09.04-.13.07-.19.13-.06.06-.07.08-.12.19-.03.07-.04.15-.05.26v.02s-.04.07-.08.07Z"></path><path class="cls-2" d="m61.36,63.98s-.04,0-.05-.02c-.03-.03-.04-.08-.01-.11.03-.04.06-.07.08-.1.05-.05.09-.1.14-.17l.03-.04c.05-.06.09-.11.14-.19.04-.06.06-.11.09-.17l.03-.06c.04-.08.07-.14.11-.21l.06-.12s.07-.06.11-.03c.04.02.05.07.03.11l-.06.12c-.03.07-.07.13-.11.22l-.03.06c-.03.06-.06.11-.1.18-.05.08-.09.13-.15.2l-.03.04c-.06.07-.1.12-.14.18-.03.03-.05.06-.08.1-.02.02-.04.03-.06.03Z"></path><path class="cls-2" d="m60.46,67.22s-.05-.01-.06-.03c-.03-.03-.02-.08.01-.11.04-.03.08-.06.11-.09.06-.05.12-.1.2-.16.12-.09.19-.14.32-.21.11-.07.17-.11.28-.17.1-.05.17-.08.25-.12.04-.02.09-.04.14-.06.04-.02.09,0,.11.04.02.04,0,.09-.04.11-.05.02-.1.04-.14.06-.08.03-.15.06-.24.11-.11.06-.17.09-.27.16-.13.08-.2.12-.31.21-.08.06-.13.1-.19.15-.03.03-.07.06-.11.09-.01.01-.03.02-.05.02Z"></path><path class="cls-2" d="m64.24,57.63s-.04,0-.06-.02l-.08-.08s-.08-.08-.13-.13l-.05-.05c-.06-.06-.1-.1-.17-.16-.06-.05-.1-.08-.15-.11-.03-.02-.06-.04-.09-.07-.04-.03-.04-.08-.02-.11.03-.04.08-.04.11-.02.03.02.06.04.09.06.05.04.1.07.16.12.08.06.12.11.18.17l.05.05c.05.05.09.09.13.14l.08.08s.03.08,0,.11c-.02.02-.04.02-.06.02Z"></path><path class="cls-2" d="m63.66,54.48v-.16c.12,0,.21-.03.35-.07.08-.02.13-.05.19-.08.03-.02.07-.03.11-.05l.07.15s-.08.04-.11.05c-.06.03-.12.06-.21.09-.15.05-.25.08-.4.08Z"></path><path class="cls-2" d="m61.49,51.78s-.03,0-.04,0c-.05-.03-.09-.05-.14-.07-.08-.04-.15-.07-.25-.14-.16-.1-.24-.17-.36-.29-.15-.14-.22-.24-.33-.41-.11-.17-.17-.27-.24-.45-.04-.1-.06-.17-.07-.25,0-.04-.02-.08-.03-.13-.01-.04.01-.09.06-.1.04-.01.09.01.1.06.01.05.03.1.04.14.02.08.03.14.07.23.07.17.12.26.23.42.11.16.17.25.31.39.12.12.19.17.34.27.09.06.15.09.23.13.04.02.09.04.14.07.04.02.05.07.03.11-.01.03-.04.04-.07.04Z"></path><path class="cls-2" d="m62.4,50.61s-.06,0-.1,0c-.17,0-.27-.01-.45-.05-.12-.03-.2-.05-.32-.1-.09-.04-.15-.07-.21-.11-.03-.02-.07-.04-.11-.06-.04-.02-.05-.07-.03-.11.02-.04.07-.05.11-.03.04.02.08.05.12.07.06.04.11.07.19.1.12.05.18.07.3.09.17.04.26.05.42.05.18,0,.23,0,.46-.04.04,0,.08.02.09.07,0,.04-.02.08-.07.09-.19.03-.27.04-.39.04Z"></path><path class="cls-2" d="m64.59,40.28s-.03,0-.04-.01c-.07-.04-.13-.07-.19-.1-.11-.06-.21-.11-.33-.2-.2-.14-.31-.22-.48-.39-.12-.12-.19-.19-.3-.34-.06-.08-.1-.15-.14-.22-.02-.04-.04-.08-.07-.12-.02-.04-.01-.09.03-.11.04-.02.09-.01.11.03.03.05.05.09.07.13.04.07.07.13.13.2.1.14.17.2.29.32.17.16.27.24.46.38.12.08.21.13.32.19.06.03.12.07.19.11.04.02.05.07.03.11-.01.03-.04.04-.07.04Z"></path><path class="cls-2" d="m66.21,39.26s-.03,0-.05-.02c-.09-.07-.18-.13-.26-.18-.15-.1-.29-.19-.45-.36-.16-.18-.25-.3-.37-.53-.06-.11-.08-.2-.11-.29-.02-.05-.03-.1-.05-.16-.02-.04,0-.09.05-.1.04-.02.09,0,.1.05.02.06.04.11.06.16.03.09.05.16.1.26.1.2.18.31.35.5.14.16.27.24.42.33.08.05.17.11.27.18.04.03.04.08.02.11-.02.02-.04.03-.06.03Z"></path><path class="cls-2" d="m67.77,39.08s-.03,0-.04-.01c-.06-.04-.12-.07-.17-.1-.1-.05-.2-.1-.31-.19-.15-.12-.23-.2-.35-.35-.09-.11-.14-.18-.22-.32-.05-.1-.08-.18-.11-.26-.02-.04-.03-.09-.05-.14-.02-.04,0-.09.04-.1.04-.02.09,0,.1.04.02.05.04.1.06.15.03.08.05.15.1.24.07.13.12.19.2.3.11.14.19.21.33.32.1.08.19.13.29.18.06.03.11.06.18.1.04.02.05.07.03.11-.01.03-.04.04-.07.04Z"></path><path class="cls-1" d="m84.37,35.63c-.01-.43-.44-.47-.6-.47-.47,0-.59.29-1.18.6-.73.39-1.05.48-1.7.49-.65,0-.97-.09-1.7-.49-.58-.31-.68-.6-1.15-.6-.25,0-.58.22-.57.62,0,0,0,.13.02.22,0,.03.05.02.06.05,0-.19.03-.3.13-.43.12-.17.33-.21.41-.21.47,0,.64.3,1.22.61.73.39,1.05.48,1.7.49.65,0,.97-.09,1.7-.49.58-.31.75-.64,1.22-.64.16,0,.28.1.33.27.03.1.01.17.02.21,0,.02.03.02.03.04.02-.08.05-.1.05-.28Z"></path><path class="cls-1" d="m81.01,36.54c-.66,0-.98-.1-1.71-.49-.21-.11-.36-.22-.5-.31-.24-.17-.42-.3-.72-.3-.07,0-.27.04-.39.2-.09.12-.13.22-.13.41h-.04s0,0-.02,0c-.01,0-.04-.02-.04-.04-.02-.09-.02-.22-.02-.22,0-.22.09-.37.17-.46.11-.12.27-.19.42-.19.3,0,.45.12.67.28.13.1.28.21.49.32.72.39,1.04.48,1.69.48.65,0,.96-.1,1.68-.48.21-.11.36-.22.49-.32.23-.17.39-.29.69-.29.14,0,.61.04.62.5,0,.13-.02.18-.03.23,0,.02-.01.03-.02.05h-.04s0,0,0,0c0,0-.02-.01-.03-.03,0-.02,0-.03,0-.06,0-.04,0-.09-.02-.15-.05-.16-.16-.25-.31-.25-.29,0-.46.13-.69.3-.14.1-.3.22-.51.34-.73.39-1.05.48-1.71.49Zm-2.92-1.14c.31,0,.49.13.74.3.13.09.29.2.49.31.72.39,1.04.48,1.68.48.66,0,.97-.1,1.69-.48.21-.11.37-.23.51-.33.23-.17.42-.31.72-.31.16,0,.29.1.35.29.02.07.02.13.02.17,0,.02,0,.03,0,.05,0,0,0,0,0,0,0,0,0-.01,0-.02.02-.05.03-.09.03-.21h0c-.01-.41-.41-.45-.58-.45-.29,0-.44.11-.67.28-.13.1-.28.21-.5.32-.73.39-1.05.48-1.71.49-.67,0-.99-.1-1.71-.49-.22-.12-.37-.23-.5-.33-.21-.16-.36-.27-.64-.27-.14,0-.29.07-.39.17-.08.08-.16.22-.16.42,0,0,0,.13.01.21,0,0,0,0,.02.01,0-.18.05-.28.13-.39.13-.18.36-.22.43-.22Z"></path><path class="cls-1" d="m66.93,71.68c.13-.14.23-.09.25-.15.02-.05-.02-.05-.07-.07-.07-.03-.15-.04-.22-.07-.07-.03-.14-.07-.21-.09-.03-.01-.1-.05-.12,0-.04.1.26.09.16.36-.02.05-.06.14-.21.3l-.67.73s-.04.05-.06.05c-.02,0-.01-.05-.01-.07v-1.04c.01-.2.03-.34.06-.43.04-.12.18-.02.21-.1.02-.05,0-.05-.08-.08-.04-.02-.12-.03-.28-.09-.09-.03-.17-.08-.25-.11-.04-.01-.11-.07-.13,0,0,.02.02.05.03.05.09.07.12.11.12.24l.02,1.88c0,.14.02.17.04.18.03.01.05,0,.1-.06l1.33-1.44h0Z"></path><path class="cls-1" d="m67.71,71.97c.09-.27.25-.11.28-.21.01-.03,0-.04-.08-.07-.15-.05-.24-.06-.34-.09-.09-.03-.19-.07-.29-.1-.02,0-.09-.04-.1.01-.03.1.29.11.2.37l-.44,1.38c-.09.27-.25.14-.28.24,0,.01,0,.04.02.04.07.02.18.04.29.08.2.06.29.11.39.14.06.02.09.01.1-.02.03-.09-.3-.05-.19-.41l.43-1.37h0Z"></path><path class="cls-1" d="m68.64,72.24c.05-.17.13-.15.23-.12.26.08.35.34.26.62-.05.17-.11.33-.51.21-.08-.02-.17-.05-.15-.12l.17-.59h0Zm-.72,1.25c-.11.37-.29.21-.32.3-.02.06.04.07.07.07.13.04.26.07.41.11.11.03.18.06.22.08.06.02.09,0,.09-.02.03-.1-.26-.06-.17-.37l.15-.5c.03-.1.02-.13.16-.09.13.04.17.08.19.22l.08.52c.03.19.06.4.27.46.1.03.3.02.32-.07,0-.02,0-.05-.03-.05-.03,0-.06,0-.08,0-.02,0-.07-.02-.08-.07-.08-.42-.18-.91-.17-.92,0-.03.09-.03.19-.08.1-.05.2-.13.26-.32.04-.13.11-.56-.46-.73-.17-.05-.36-.09-.53-.14-.16-.05-.18-.07-.3-.1-.03,0-.06,0-.07.03-.03.1.29.08.19.41l-.38,1.28h0Z"></path><path class="cls-1" d="m70.06,74.12c-.08.35-.35.14-.38.25-.02.06.03.07.08.08.11.03.2.03.37.08.18.04.26.08.37.1.08.02.13.04.14-.03.02-.08-.34-.08-.25-.44l.32-1.33c.03-.14.06-.15.17-.12l.22.05c.31.06.14.37.25.39.07.02.07-.11.07-.14l.04-.28s.01-.07-.03-.08c-.25-.06-.43-.09-.81-.18-.39-.09-.56-.15-.81-.21-.04,0-.05.03-.06.06l-.14.38s-.05.1,0,.11c.12.03.13-.38.43-.3l.22.05c.11.03.13.05.1.19l-.33,1.36h0Z"></path><path class="cls-1" d="m73.27,73.3c.1-.16.21-.13.22-.2,0-.05-.03-.05-.09-.06-.07-.01-.15-.02-.23-.03-.08-.01-.15-.04-.23-.05-.03,0-.11-.03-.12.03-.02.1.27.04.22.32,0,.05-.03.15-.15.33l-.53.84s-.03.06-.05.06c-.02,0-.02-.05-.03-.07l-.17-1.02c-.03-.19-.04-.34-.03-.43.02-.12.18-.05.19-.13,0-.05,0-.05-.09-.07-.04,0-.12-.01-.29-.04-.09-.02-.18-.05-.27-.06-.04,0-.12-.05-.13.02,0,.02.03.05.04.05.1.05.14.09.16.21l.35,1.85c.03.13.05.17.07.17.03,0,.05,0,.09-.08l1.06-1.65h0Z"></path><path class="cls-1" d="m73.42,75c0,.07,0,.1.06.13.15.06.27.16.44.19.35.06.64-.17.71-.56.06-.38-.09-.54-.36-.72-.33-.24-.47-.3-.44-.5.03-.2.17-.29.35-.26.46.08.41.64.47.65.06,0,.07-.02.08-.09l.04-.4c0-.07.02-.11-.02-.12-.03,0-.11.03-.14.02-.08-.01-.17-.15-.39-.19-.31-.05-.57.16-.63.5-.05.31.09.46.3.61.4.28.56.35.52.6-.04.24-.22.35-.43.32-.3-.05-.42-.35-.46-.65,0-.04,0-.07-.05-.08-.07-.01-.05.08-.05.12v.42Z"></path><path class="cls-1" d="m77.43,73.87c.09-.17.2-.15.2-.22,0-.05-.03-.05-.09-.05-.08,0-.15,0-.23,0-.08,0-.15-.02-.23-.03-.03,0-.11-.02-.11.04,0,.11.27.02.25.3,0,.05-.02.15-.11.35l-.44.89s-.02.06-.04.06c-.02,0-.03-.04-.03-.07l-.28-1c-.05-.19-.08-.33-.07-.42,0-.13.17-.07.18-.15,0-.05,0-.05-.1-.06-.04,0-.12,0-.3-.01-.09,0-.18-.03-.27-.03-.04,0-.12-.03-.13.04,0,.02.03.04.04.05.11.04.14.08.18.2l.54,1.81c.04.13.06.16.09.16.03,0,.04-.01.08-.09l.88-1.75h0Z"></path><path class="cls-1" d="m77.86,75.33c0,.31-.26.25-.26.37,0,.05.05.04.08.04.07,0,.15-.01.23-.01.1,0,.19.01.32.01.04,0,.1,0,.1-.04,0-.14-.35.06-.34-.52v-1.03s.01-.05.03-.05c.01,0,.03.02.05.04l1.29,1.58s.03.04.07.04c.03,0,.03-.02.03-.09v-1.7c.02-.32.25-.24.25-.33,0,0,0-.04-.05-.04-.02,0-.12.01-.29,0-.19,0-.27-.01-.31-.01-.04,0-.04.03-.04.05,0,.1.33.05.33.32v1.01c0,.08-.02.11-.03.11-.02,0-.05-.04-.08-.08l-1.08-1.34c-.05-.06-.02-.08-.1-.08-.14,0-.22.01-.29,0-.05,0-.1-.01-.15-.01-.03,0-.05.02-.05.05,0,.15.31-.05.3.53v1.15s0,0,0,0Z"></path><path class="cls-1" d="m80.49,73.97c0-.29.21-.18.21-.28,0-.04-.01-.04-.09-.04-.16,0-.25,0-.35,0-.1,0-.2-.01-.31-.01-.02,0-.09,0-.09.04,0,.11.29.02.29.3v1.45c0,.29-.2.21-.2.31,0,.02,0,.04.03.04.07,0,.19-.01.3,0,.21,0,.31.01.41.02.06,0,.09-.01.09-.04,0-.1-.31.04-.3-.33v-1.44s.01,0,.01,0Z"></path><path class="cls-1" d="m81.63,75.38c0,.36-.31.22-.3.34,0,.07.05.06.1.06.11,0,.2-.01.38-.02.18,0,.27,0,.38,0,.08,0,.13,0,.13-.06,0-.08-.35,0-.35-.37v-1.37c-.01-.15.01-.16.13-.16h.23c.31-.02.23.32.34.32.07,0,.04-.12.03-.15l-.03-.28s0-.07-.04-.07c-.25,0-.44.02-.83.02-.4,0-.58,0-.83,0-.04,0-.04.04-.04.07l-.04.4s-.02.11.04.11c.12,0,.04-.4.34-.4h.23c.11,0,.14.01.14.16v1.4s.01,0,.01,0Z"></path><path class="cls-1" d="m83.22,74.81s-.09,0-.09-.02c0-.04.01-.08.02-.11l.17-.55s.02-.04.03-.04c.01,0,0,0,.02.02l.27.53s.04.07.04.11c0,.03-.04.03-.08.03l-.37.03h0Zm.47.13c.07,0,.09.02.19.25.04.08.06.13.06.2.01.18-.18.17-.17.25,0,.04.04.03.09.03.08,0,.18-.03.3-.04.18-.01.25,0,.35-.02.07,0,.1,0,.09-.05,0-.1-.15.03-.25-.18l-.88-1.79c-.04-.09-.05-.09-.07-.09-.04,0-.04.06-.06.11l-.59,1.88c-.05.17-.19.17-.19.24,0,.04.05.03.08.03.08,0,.16-.02.24-.03.09,0,.17,0,.26,0,.06,0,.14.01.14-.05,0-.08-.3-.01-.31-.23,0-.07.02-.18.04-.24.05-.2.1-.22.15-.22l.53-.04h0Z"></path><path class="cls-1" d="m85.78,73.68c-.03-.21-.02-.21.31-.25.52-.07.36.31.48.29.06,0,.04-.11.03-.14l-.05-.3s-.03-.05-.06-.05c-.24.03-.42.07-.61.09-.41.05-.61.07-.72.08-.04,0-.06.03-.05.06.02.12.31-.02.34.25l.18,1.4c.05.37-.18.23-.16.37,0,.02.02.03.06.03.15-.02.26-.05.34-.06.12-.02.22-.02.32-.03.07,0,.13,0,.12-.06-.01-.08-.31.03-.35-.3l-.06-.44c-.02-.17-.04-.21.09-.22l.2-.03c.28-.04.25.29.33.28.06,0,.03-.11.03-.15l-.09-.53c-.01-.08-.04-.07-.06-.07-.05,0-.03.28-.26.31l-.17.02c-.12.02-.12,0-.14-.13l-.06-.42h0Z"></path><path class="cls-1" d="m86.78,74.37c.11.6.55.94,1.08.84.85-.16.88-.92.8-1.33-.12-.63-.59-.94-1.11-.84-.64.12-.9.68-.78,1.33h0Zm.3-.23c-.08-.43-.02-.87.43-.96.34-.07.73.21.86.87.09.49.02.92-.44,1.01-.48.1-.76-.49-.84-.93h0Z"></path><path class="cls-1" d="m89.19,73.08c-.04-.18.04-.2.14-.22.27-.06.47.12.54.41.04.17.07.34-.34.44-.08.02-.18.04-.19-.03l-.14-.59h0Zm0,1.44c.09.37-.15.32-.13.42.01.06.07.04.1.03.13-.03.26-.08.4-.11.11-.03.19-.03.23-.04.06-.01.08-.04.07-.06-.03-.11-.26.08-.33-.24l-.12-.51c-.02-.1-.05-.12.09-.15.13-.03.19-.02.28.1l.33.41c.12.15.25.32.46.27.11-.03.26-.13.24-.22,0-.02-.03-.04-.05-.03-.03,0-.05.03-.08.04-.02,0-.07.02-.11-.02-.28-.32-.61-.7-.61-.71,0-.03.06-.07.12-.16.06-.09.11-.22.07-.4-.03-.14-.18-.54-.76-.4-.18.04-.35.1-.53.14-.17.04-.19.03-.31.06-.03,0-.05.03-.05.06.03.11.29-.07.37.26l.31,1.29h0Z"></path><path class="cls-1" d="m91.37,74.03c.09.35-.24.28-.21.4.02.06.06.05.11.04.11-.03.19-.06.37-.11.18-.05.27-.06.37-.08.08-.02.13-.02.11-.09-.02-.08-.34.09-.43-.27l-.34-1.32c-.04-.14-.01-.16.09-.19l.22-.06c.3-.09.3.26.4.23.07-.02,0-.12,0-.16l-.1-.26s-.02-.07-.06-.06c-.24.06-.42.12-.8.22-.38.1-.56.13-.81.2-.04.01-.03.05-.02.08l.06.4s0,.11.06.09c.12-.03-.06-.39.24-.47l.22-.06c.11-.03.14-.02.17.12l.35,1.36h0Z"></path><path class="cls-1" d="m92.76,72.18c-.08-.28.15-.23.12-.33,0-.03-.02-.04-.1-.02-.15.04-.24.08-.33.11-.09.03-.2.04-.3.07-.02,0-.09.02-.08.07.03.1.3-.06.38.2l.39,1.4c.08.28-.13.25-.1.36,0,.01.01.03.04.03.07-.02.18-.06.29-.09.2-.06.3-.07.4-.1.06-.02.08-.03.07-.07-.03-.09-.28.12-.38-.24l-.39-1.39h0Z"></path><path class="cls-1" d="m93.34,72.85c.19.58.67.85,1.19.68.82-.28.75-1.03.61-1.43-.2-.61-.71-.85-1.21-.67-.61.21-.8.8-.59,1.43h0Zm.26-.27c-.14-.42-.14-.85.29-1.01.33-.12.76.11.97.74.16.48.14.91-.3,1.07-.46.16-.82-.38-.96-.8Z"></path><path class="cls-1" d="m95.53,71.21c-.07-.17.01-.2.11-.24.26-.1.48.05.59.33.07.17.11.33-.27.48-.08.03-.17.07-.2,0l-.22-.57h0Zm.2,1.42c.14.35-.1.34-.07.43.02.06.07.03.1.02.13-.05.25-.11.39-.16.11-.04.18-.06.22-.07.06-.02.07-.05.06-.07-.04-.1-.25.11-.36-.19l-.19-.49c-.04-.1-.06-.11.07-.16.13-.05.18-.04.29.06l.39.36c.14.13.29.28.49.2.1-.04.24-.17.21-.25,0-.02-.03-.03-.05-.02-.03.01-.04.04-.07.05-.02,0-.07.03-.11,0-.32-.28-.7-.61-.7-.62-.01-.03.05-.08.1-.18.05-.1.08-.23,0-.41-.05-.13-.26-.51-.81-.29-.17.07-.34.15-.51.21-.16.06-.18.06-.3.11-.03.01-.05.04-.04.06.04.1.27-.11.4.2l.49,1.24h0Z"></path><path class="cls-3" d="m66.85,41.68h13.31v13.29h-13.31v-13.29Z"></path><path id="mits" class="cls-6" d="m73.09,52.14s0,.47-.14.86q-.15.44-.29.65c-.19.29-.41.5-.62.63-.32.2-.64.31-.96.28-.89-.08-1.3-1.04-1.5-1.83-.21-.83-.82-1.28-1.21-.98-.23.18-.24.47-.05.76.2.3.66.45.66.45l-.48.6s-1.02-.13-1.22-1.2c-.08-.4.12-1.16.79-1.38.86-.29,1.41.32,1.67.84.36.71.52,2.01,1.53,1.81.55-.11.81-.91.81-1.27l.4-.43.59.19h.02s0,.01,0,.01Z"></path><path id="mits-2" class="cls-6" d="m73.92,52.14s0,.47.14.86q.15.44.29.65c.19.29.41.5.62.63.32.2.64.31.96.28.89-.08,1.3-1.04,1.5-1.83.21-.83.82-1.28,1.21-.98.23.18.24.47.05.76-.2.3-.66.45-.66.45l.48.6s1.02-.13,1.22-1.2c.08-.4-.12-1.16-.79-1.38-.86-.29-1.41.32-1.67.84-.36.71-.52,2.01-1.53,1.81-.55-.11-.81-.91-.81-1.27l-.4-.43-.59.19h-.02s0,.01,0,.01Z"></path><path class="cls-5" d="m74.7,46.49l1.74-1.89s.26-.21.26-.55l-.36.06-.08-.18-.02-.19.48-.1c0-.08,0-.14.01-.22.01-.08.03-.12.05-.2l-.53.04c.03-.09.02-.14.05-.23.02-.07.03-.1.08-.18.1-.01.19-.04.31-.05.12-.01.19,0,.3-.01.29-.54,1.49-1.03,2.34-.15.62.64.48,1.82-.32,2.13-.45.18-.82.07-1.11-.18l.32-.63c.44.26.81-.06.78-.4-.03-.43-.31-.7-.71-.73-.37-.03-.63.18-.79.5-.1.2-.05.35-.09.57-.04.24-.02.37-.09.62-.05.18-.19.39-.38.58l-1.79,1.93-6.96,7.52-.52-.48,7-7.57h0Z"></path><path class="cls-6" d="m69.58,47.15s.44,2.17,1.92,5.42c.76-.28,1.2-.45,2-.45s1.25.15,2,.45c1.49-3.25,1.92-5.42,1.92-5.42l-3.93-5.05-3.93,5.05Z"></path><path class="cls-5" d="m73.89,43.81l2.72,3.51s-.36,1.7-1.47,4.27c-.43-.1-.8-.18-1.25-.21v-7.56s0,0,0,0Z"></path><path class="cls-5" d="m73.12,43.81l-2.72,3.51s.36,1.7,1.47,4.27c.43-.1.8-.18,1.25-.21v-7.56s0,0,0,0Z"></path><path class="cls-5" d="m81.58,41.68h13.31v13.29h-13.31v-13.29Z"></path><path class="cls-3" d="m83.45,41.68h1.98v13.29h-1.98v-13.29Z"></path><path class="cls-3" d="m87.25,41.68h1.98v13.29h-1.98v-13.29Z"></path><path class="cls-3" d="m91.06,41.68h1.98v13.29h-1.98v-13.29Z"></path><path class="cls-5" d="m66.9,66.49c.04.24.12.65.35,1.07.24.38.15.37.69.97.27.3.68.55,1.01.73.33.18.57.26,1.11.4,1.06.28,1.8.29,2.68.26.69-.03,1.22-.11,1.66-.17.62-.08,1.09-.13,1.8-.16.35-.01.67-.02,1,0,.39.02.77.08,1.18.16.88.18,1.78.52,1.78.52v-13.88s-13.31,0-13.31,0v9.48s.03.46.05.62h0Z"></path><path class="cls-3" d="m68.45,68.92l.62.36.86.31v-13.21h-1.48v12.54Z"></path><path class="cls-3" d="m69.97,69.65l-.91-.33-.65-.38v-12.6s1.56,0,1.56,0v13.31Zm-1.48-.75l.6.35.79.28v-13.11h-1.4v12.47Z"></path><path class="cls-3" d="m75.84,69.52v-13.14s-1.48,0-1.48,0v13.35s1.01-.13,1.48-.16v-.05Z"></path><path class="cls-3" d="m74.32,69.78v-13.44h1.56v13.27s-.04,0-.04,0c-.46.03-1.47.16-1.48.16h-.05Zm.08-13.35v13.26c.2-.02.98-.12,1.4-.15h0s0-13.11,0-13.11h-1.4Z"></path><path class="cls-3" d="m78.8,56.39h-1.48v13.18c.48.05.98.14,1.48.27v-13.46s0,0,0,0Z"></path><path class="cls-3" d="m78.84,69.9h-.05c-.47-.14-.96-.23-1.47-.29h-.04v-13.27h1.56v13.55Zm-1.48-.36c.48.05.95.14,1.4.26v-13.36h-1.4v13.1Z"></path><path class="cls-3" d="m72.89,56.39v13.5s-.99.05-1.49,0v-13.5s1.49,0,1.49,0Z"></path><path class="cls-3" d="m72.02,69.95c-.22,0-.45,0-.62-.02h-.04s0-13.58,0-13.58h1.57s0,13.58,0,13.58h-.04s-.44.03-.88.03Zm-.57-.1c.45.04,1.22,0,1.4,0v-13.42h-1.4s0,13.42,0,13.42Z"></path><path class="cls-5" d="m94.85,66.49c-.04.24-.12.65-.35,1.07-.24.38-.15.37-.69.97-.27.3-.68.55-1.01.73-.33.18-.57.26-1.11.4-1.06.28-1.8.29-2.68.26-.69-.03-1.22-.11-1.66-.17-.62-.08-1.09-.13-1.8-.16-.35-.01-.67-.02-1,0-.39.02-.77.08-1.18.16-.88.18-1.79.52-1.79.52v-13.88s13.32,0,13.32,0v9.48s-.03.46-.05.62h0Z"></path><g id="cow"><path class="cls-3" d="m84.99,57.5s-.06.03-.1.05c-.05.05-.07.08-.13.13-.07.06-.12.08-.2.14-.04.03-.07.03-.1.07-.04.05-.01.1-.04.16-.03.07-.06.1-.11.15-.06.07-.11.1-.17.16-.07.06-.1.12-.18.16-.02.01-.03.02-.06.03-.03.01-.06,0-.09.01-.06.02-.08.09-.13.12.02.04.02.06.04.1.03.05.11.2.13.23.03.05.04.11.09.13.09.03.14.02.21.02.13.03.21.03.33.08.1.04.14.09.24.14.08.03.13.05.21.07.06.01.1.02.16.02.04,0,.06-.02.1-.03,0,0,.01,0,.02,0v.06s0,0,0,0h0s.01.01.01.01l.33.15s-.02.04-.03.06c-.02.05-.02.11-.01.14.1.31.19.5.24.52.1.04.13.14.19.24-.02.02-.04.03-.06.05-.1.1-.19.16-.27.29-.12.19-.2.2-.05.45.09.15.13.18.25.39.06.11.09.19.13.32.03.12.05.19.05.32l.16.06.11-.11.1-.19v-.15s-.04-.08-.04-.13c.01-.06.08-.05.12-.1.05-.07-.05-.12-.11-.18-.1-.11-.23-.13-.26-.3,0-.04.01-.07.06-.12.14-.14.18-.16.32-.29.04.02.1.03.16.02.05,0,.09.02.23.06.1.03.14.01.2,0l.06-.02s.02.07.02.11c0,.17-.03.49.03.57.02.03.03.05.05.09.02.04.03.06.04.11,0,.11,0,.18,0,.3,0,.11-.02.17-.04.28-.01.07-.03.12-.07.17-.05.06-.1.07-.16.11l-.02.16.18.08.21.05.11-.05s0-.06.03-.1c.02-.04.04-.07.08-.09.06-.02.12.02.15-.02.03-.04,0-.05,0-.12,0-.11-.03-.16-.05-.27-.03-.18-.03-.27-.03-.45,0-.1,0-.15.03-.25.03-.14.08-.21.11-.35.04-.16.04-.26.06-.4.51.07.94.06,1.51-.06.03,0,.12-.04.12-.04.13.11.28.2.44.26,0,.02,0,.14,0,.16,0,.05,0,.08.02.12.02.02.03.04.06.05.04,0,.07,0,.11-.03.04-.03.03-.07.04-.12,0-.02,0-.09,0-.11.06,0,.08.01.14.01.06,0,.09,0,.14,0,0,.01,0,.06,0,.08,0,.04-.01.07,0,.11.02.04.04.06.08.07.03,0,.06,0,.09-.02.05-.03.04-.08.05-.14,0-.02,0-.11,0-.13.03-.01.13-.05.17-.06,0,.04,0,.08-.02.13-.01.06-.02.09-.04.15-.03.09-.07.14-.12.22-.06.1-.09.16-.17.25-.03.04-.06.06-.09.11-.04.05-.06.09-.1.15-.05.07-.08.12-.15.17-.11.09-.19.02-.34.14l-.04.17.23.09.21.04.07-.04s0-.08.04-.12c.03-.04.07-.06.13-.07.06,0,.12,0,.17-.04.06-.05.06-.15.1-.24.14-.28.26-.42.49-.63.1-.1.18-.12.27-.23.04-.05.08-.08.09-.14,0-.05-.02-.07-.04-.11-.02-.06-.03-.16-.03-.16.25.12.16.1.2.23.04.1,0,.17.01.27.02.12.08.18.09.3.01.15-.02.23-.05.37-.02.13-.02.21-.08.32-.05.11-.09.17-.19.25-.03.03-.06.04-.1.07l-.02.17.18.06.26.07.06-.06c.03-.11,0-.26.07-.27.07-.01.11,0,.13-.05,0-.02,0-.05.02-.1.04-.31.07-.59.1-.73.04-.16.03-.19.07-.31.03-.11-.01-.05.07-.27.12-.34-.03-.38-.17-.59-.07-.11-.1-.15-.11-.24-.02-.13.03-.24.02-.45,0-.21,0-.35,0-.47.02,0,.04-.02.06-.03.19-.1.27-.14.38-.4.04-.08.05-.16.05-.24,0-.05-.01-.11-.02-.17,0-.06-.03-.1-.05-.15-.02-.05-.05-.09-.09-.14-.13-.15-.29-.18-.44-.24-.24-.09-.41-.07-.67-.09-.27-.02-.42-.03-.69-.01-.33.02-.51.08-.83.12-.31.04-.48.06-.79.07-.37,0-.72-.07-.94-.06-.4.03-.4.12-1,.17-.31.03-.62.03-.62.03l-.35-.11c.14-.05.17-.08.24-.17.04-.06.04-.11.09-.17.04-.05.07-.1.13-.16-.05-.04-.1-.06-.15-.07-.06-.01-.09,0-.15,0-.08,0-.13.02-.2.06-.06.03-.1.06-.14.1,0,0-.21-.13-.35-.2-.18-.08-.26-.12-.49-.15h0Zm.32,1.93h.01s0,0,0,0h0s0,0,0,0Z"></path><path class="cls-5" d="m89.49,59.91l.08-.15c-.07,0-.14.02-.21.02-.1,0-.16,0-.26-.02l-.16-.03.17-.16s-.05-.02-.08-.03c-.08-.03-.12-.06-.19-.11l-.14-.11.18-.03c.11-.02.16-.03.27-.06.1-.02.17-.06.24-.09.11-.05.21-.11.4-.12.17-.02.46-.02,1.26.12.47.08.68.04.85-.04.08-.04.12-.1.13-.23.01-.09-.06-.17-.11-.22-.02-.01-.05-.04-.13-.04-.04,0-.08-.04-.08-.08,0-.04.04-.08.08-.08.12,0,.19.05.23.08.13.11.18.23.17.36-.01.11-.05.27-.22.35-.2.09-.43.13-.94.05-.79-.13-1.07-.13-1.22-.12-.16.02-.25.06-.35.11-.08.04-.16.08-.27.1-.02,0-.05.01-.07.02.06.02.14.04.17.04l.16.03-.16.15s.04,0,.07,0c.13,0,.32-.04.33-.04l.16-.03-.09.18s.07-.01.12-.03c.09-.02.16-.07.24-.12.09-.06.19-.13.34-.14.24-.02.42.03.6.07.17.04.33.08.53.07h.05c.14-.01.23-.02.35-.07l.13-.04s.09,0,.1.05c.01.04,0,.09-.05.1l-.12.04c-.13.06-.25.07-.39.08h-.05c-.23.02-.41-.02-.58-.07-.18-.04-.34-.08-.55-.07-.1,0-.18.06-.26.11-.08.05-.17.11-.29.14-.11.03-.18.04-.29.05h-.14Z"></path><path class="cls-7" d="m85.02,58.1c-.09-.01-.14,0-.22.05-.08.05-.09.11-.14.19.07.02.11.06.18.04.06-.01.09-.04.12-.08.05-.06.07-.11.07-.19h-.02s0,0,0,0Z"></path><path class="cls-5" d="m84.81,58.42s-.07-.01-.1-.03c-.02,0-.04-.02-.06-.02h-.06s.04-.07.04-.07c.02-.02.03-.05.04-.07.03-.04.05-.09.11-.13.08-.05.15-.07.24-.05h.05s0,.04,0,.04c0,.09-.02.15-.08.21-.04.05-.08.08-.14.1-.02,0-.03,0-.04,0Zm-.09-.11s.01,0,.02,0c.04.01.06.02.09.02.05-.01.07-.03.1-.07.04-.04.05-.08.06-.12-.07,0-.11,0-.17.04-.04.03-.06.06-.08.1,0,0-.01.02-.02.03Z"></path><path class="cls-5" d="m87.03,61.26h0s-.08-.04-.08-.08v-.17s0-.04,0-.06c0-.06-.01-.11-.01-.15,0-.06,0-.11-.02-.18-.02-.09-.04-.14-.08-.22-.02-.05-.06-.12-.06-.12l.14-.08s.04.08.07.14c.04.1.06.15.09.25.02.08.02.15.03.21,0,.04,0,.09.01.14,0,.02,0,.04.01.06h0s0,.2,0,.2c0,.04-.04.08-.08.08Z"></path><path class="cls-5" d="m87.91,61.02s0,0-.01,0c-.04,0-.07-.05-.07-.09,0-.03,0-.07.02-.11.03-.14.06-.24.09-.34.02-.07.04-.14.06-.22s.06-.22.06-.22l.15.04s-.04.13-.06.22c-.02.09-.04.16-.07.23-.03.1-.06.2-.09.33,0,.04-.01.07-.02.1,0,.04-.04.07-.08.07Z"></path><path class="cls-5" d="m86.44,61.04s-.03,0-.04-.01c-.14-.08-.18-.28-.22-.46-.01-.07-.04-.18-.06-.2-.04,0-.07-.05-.06-.09s.06-.07.1-.06c.11.02.14.16.17.32.03.14.06.31.14.35.04.02.05.07.03.11-.01.03-.04.04-.07.04Z"></path><path class="cls-5" d="m90.78,61.27l-.09-.13.06-.04c.17-.07.3-.16.42-.28l.11.11c-.13.13-.29.24-.46.31l-.05.03Z"></path><path class="cls-5" d="m89.5,61h0s-.08-.04-.08-.08c0-.04.03-.07.07-.08.3-.07.54-.19.75-.29.18-.09.34-.16.48-.18.04,0,.08.03.09.07,0,.04-.03.08-.07.09-.11.02-.26.08-.43.16-.21.1-.47.22-.78.3h0Z"></path><path class="cls-5" d="m91.53,61.12s-.02,0-.04,0l-.19-.09c-.21-.1-.31-.21-.42-.31-.08-.08-.16-.16-.29-.23-.06-.03-.1-.07-.14-.11-.08-.07-.12-.11-.25-.09-.04,0-.09,0-.14.01-.05,0-.08-.03-.08-.08,0-.04.03-.08.08-.08.05,0,.09,0,.13-.01.2-.03.29.05.38.13.04.03.07.06.12.09.15.08.24.17.32.26.1.1.19.19.37.28l.19.1s.06.07.04.11c-.01.03-.04.04-.07.04Z"></path><path class="cls-7" d="m83.87,58.73s.07.01.11,0c.05,0,.08-.04.13-.04.04,0,.07,0,.11.02.02.02.03.03.05.06.01.03.03.05.02.08,0,.05-.05.07-.1.07-.04,0-.07-.01-.09-.04-.01-.02-.01-.04,0-.06-.05.02-.08.02-.13,0-.05-.02-.08-.04-.1-.08h0Z"></path><path class="cls-5" d="m84.19,58.96c-.06,0-.1-.02-.13-.07,0,0,0-.02-.01-.03-.03,0-.06,0-.1-.01-.06-.02-.09-.05-.13-.1l-.05-.09.1.02s.06.01.1,0c.02,0,.03,0,.05-.02.02-.01.05-.02.08-.02.05,0,.09,0,.14.03.03.02.04.04.06.07.02.03.03.06.02.1-.01.06-.07.1-.14.1Zm-.03-.22l-.02.08s0,.02,0,.03c0,.01.01.02.05.02.02,0,.05,0,.06-.03,0-.01,0-.02-.01-.04-.02-.03-.02-.04-.04-.05-.02-.01-.04-.02-.07-.01h-.01s-.03,0-.05.02c-.02,0-.04.02-.06.02.03,0,.05,0,.08,0l.08-.03Z"></path><path class="cls-8" d="m85.07,60.3c-.13-.04-.32-.13-.32-.13.05-.04.1-.04.14-.09.06-.07.06-.13.1-.21.03-.08.03-.15.11-.22.05-.04.12-.04.18-.03.06.02.12.06.14.12.02.09-.03.14-.04.24-.01.09-.05.14-.03.24.01.06.04.08.06.15,0,0-.2-.02-.33-.06h0Z"></path><path class="cls-8" d="m84.91,60.45c0-.06.04-.1.1-.1.06,0,.1.04.1.1,0,.06-.04.1-.1.1-.06,0-.1-.04-.1-.1Z"></path><path class="cls-8" d="m84.63,57.77s-.01,0-.02-.02c-.06-.05-.07-.11-.1-.18-.03-.07-.04-.11-.05-.19,0-.07,0-.1,0-.17,0-.06,0-.09,0-.15,0-.06,0-.1-.03-.15-.02-.03-.06-.05-.05-.07.02-.02.04,0,.07,0,.06,0,.1.03.15.07.06.05.09.09.11.17.03.09.04.15.07.24.01.05.02.08.05.12.03.04.05.06.08.1h0c-.05.06-.07.09-.13.14-.05.04-.09.07-.14.09h0s0,0,0,0Z"></path><path class="cls-8" d="m85.21,59.5l.36.17c.19-.1.4-.31.57-.63.14-.28.17-.43.22-.7l-.29-.09h-.06c-.09.29-.11.45-.26.69-.13.21-.28.37-.43.49l-.11.08h0Z"></path><path class="cls-8" d="m86.01,62.43c.06-.08.08-.13.15-.2.07-.08.13-.11.21-.19.03,0,.05,0,.08.01,0,.09,0,.15-.03.25-.02.08-.03.12-.06.2-.02.06-.03.1-.06.16-.02.04-.05.05-.08.08-.08-.12-.22-.21-.21-.31h0Z"></path><path class="cls-8" d="m91.36,62.73c.09.03.15.04.24.09.1.05.15.09.24.15,0,.02.02.05.01.08-.09.02-.15.03-.25.04-.08,0-.12,0-.2,0-.07,0-.11,0-.17-.02-.04-.01-.06-.03-.1-.05.09-.11.14-.27.24-.29h0Z"></path><path class="cls-8" d="m89.78,62.4c.09.03.15.04.24.09.1.05.15.09.24.15,0,.02.02.05.01.08-.09.02-.15.03-.25.04-.08,0-.12,0-.2,0-.07,0-.11,0-.17-.02-.04-.01-.06-.03-.1-.05.09-.11.14-.27.24-.29h0Z"></path><path class="cls-8" d="m86.97,62.75c.09.03.15.04.24.09.1.05.15.09.24.15,0,.02.02.05.01.08-.09.02-.15.03-.25.04-.08,0-.12,0-.2,0-.07,0-.11,0-.17-.02-.04-.01-.06-.03-.1-.05.09-.11.14-.27.24-.29h0Z"></path><path class="cls-8" d="m85.51,57.92c-.1-.05-.17-.17-.11-.26.03-.04.07-.03.09-.06.03-.04.02-.08.02-.14,0-.06-.02-.09-.03-.15-.01-.07-.02-.1-.02-.17,0-.1,0-.17.06-.25.04-.05.11-.1.13-.1.02.02,0,.08,0,.13,0,.07.02.12.05.19.03.09.08.13.11.22.03.08.06.13.07.22,0,.07,0,.12-.03.19-.03.06-.05.09-.1.14-.04.04-.07.05-.13.07-.04,0-.07,0-.1-.02h0Z"></path></g><g id="cow-2"><path class="cls-3" d="m84.99,63.43s-.06.03-.1.05c-.05.05-.07.08-.13.13-.07.06-.12.08-.2.14-.04.03-.07.03-.1.07-.04.05-.01.1-.04.16-.03.07-.06.1-.11.15-.06.07-.11.1-.17.16-.07.06-.1.12-.18.16-.02.01-.03.02-.06.03-.03.01-.06,0-.09.01-.06.02-.08.09-.13.12.02.04.02.06.04.1.03.05.11.2.13.23.03.05.04.11.09.13.09.03.14.02.21.02.13.03.21.03.33.08.1.04.14.09.24.14.08.03.13.05.21.07.06.01.1.02.16.02.04,0,.06-.02.1-.03,0,0,.01,0,.02,0v.06s0,0,0,0h0s.01.01.01.01l.33.15s-.02.04-.03.06c-.02.05-.02.11-.01.14.1.31.19.5.24.52.1.04.13.14.19.24-.02.02-.04.03-.06.05-.1.1-.19.16-.27.29-.12.19-.2.2-.05.45.09.15.13.18.25.39.06.11.09.19.13.32.03.12.05.19.05.32l.16.06.11-.11.1-.19v-.15s-.04-.08-.04-.13c.01-.06.08-.05.12-.1.05-.07-.05-.12-.11-.18-.1-.11-.23-.13-.26-.3,0-.04.01-.07.06-.12.14-.14.18-.16.32-.29.04.02.1.03.16.02.05,0,.09.02.23.06.1.03.14.01.2,0l.06-.02s.02.07.02.11c0,.17-.03.49.03.57.02.03.03.05.05.09.02.04.03.06.04.11,0,.11,0,.18,0,.3,0,.11-.02.17-.04.28-.01.07-.03.12-.07.17-.05.06-.1.07-.16.11l-.02.16.18.08.21.05.11-.05s0-.06.03-.1c.02-.04.04-.07.08-.09.06-.02.12.02.15-.02.03-.04,0-.05,0-.12,0-.11-.03-.16-.05-.27-.03-.18-.03-.27-.03-.45,0-.1,0-.15.03-.25.03-.14.08-.21.11-.35.04-.16.04-.26.06-.4.51.07.94.06,1.51-.06.03,0,.12-.04.12-.04.13.11.28.2.44.26,0,.02,0,.14,0,.16,0,.05,0,.08.02.12.02.02.03.04.06.05.04,0,.07,0,.11-.03.04-.03.03-.07.04-.12,0-.02,0-.09,0-.11.06,0,.08.01.14.01.06,0,.09,0,.14,0,0,.01,0,.06,0,.08,0,.04-.01.07,0,.11.02.04.04.06.08.07.03,0,.06,0,.09-.02.05-.03.04-.08.05-.14,0-.02,0-.11,0-.13.03-.01.13-.05.17-.06,0,.04,0,.08-.02.13-.01.06-.02.09-.04.15-.03.09-.07.14-.12.22-.06.1-.09.16-.17.25-.03.04-.06.06-.09.11-.04.05-.06.09-.1.15-.05.07-.08.12-.15.17-.11.09-.19.02-.34.14l-.04.17.23.09.21.04.07-.04s0-.08.04-.12c.03-.04.07-.06.13-.07.06,0,.12,0,.17-.04.06-.05.06-.15.1-.24.14-.28.26-.42.49-.63.1-.1.18-.12.27-.23.04-.05.08-.08.09-.14,0-.05-.02-.07-.04-.11-.02-.06-.03-.16-.03-.16.25.12.16.1.2.23.04.1,0,.17.01.27.02.12.08.18.09.3.01.15-.02.23-.05.37-.02.13-.02.21-.08.32-.05.11-.09.17-.19.25-.03.03-.06.04-.1.07l-.02.17.18.06.26.07.06-.06c.03-.11,0-.26.07-.27.07-.01.11,0,.13-.05,0-.02,0-.05.02-.1.04-.31.07-.59.1-.73.04-.16.03-.19.07-.31.03-.11-.01-.05.07-.27.12-.34-.03-.38-.17-.59-.07-.11-.1-.15-.11-.24-.02-.13.03-.24.02-.45,0-.21,0-.35,0-.47.02,0,.04-.02.06-.03.19-.1.27-.14.38-.4.04-.08.05-.16.05-.24,0-.05-.01-.11-.02-.17,0-.06-.03-.1-.05-.15-.02-.05-.05-.09-.09-.14-.13-.15-.29-.18-.44-.24-.24-.09-.41-.07-.67-.09-.27-.02-.42-.03-.69-.01-.33.02-.51.08-.83.12-.31.04-.48.06-.79.07-.37,0-.72-.07-.94-.06-.4.03-.4.12-1,.17-.31.03-.62.03-.62.03l-.35-.11c.14-.05.17-.08.24-.17.04-.06.04-.11.09-.17.04-.05.07-.1.13-.16-.05-.04-.1-.06-.15-.07-.06-.01-.09,0-.15,0-.08,0-.13.02-.2.06-.06.03-.1.06-.14.1,0,0-.21-.13-.35-.2-.18-.08-.26-.12-.49-.15h0Zm.32,1.93h.01s0,0,0,0h0s0,0,0,0Z"></path><path class="cls-5" d="m89.49,65.84l.08-.15c-.07,0-.14.02-.21.02-.1,0-.16,0-.26-.02l-.16-.03.17-.16s-.05-.02-.08-.03c-.08-.03-.12-.06-.19-.11l-.14-.11.18-.03c.11-.02.16-.03.27-.06.1-.02.17-.06.24-.09.11-.05.21-.11.4-.12.17-.02.46-.02,1.26.12.47.08.68.04.85-.04.08-.04.12-.1.13-.23.01-.09-.06-.17-.11-.22-.02-.01-.05-.04-.13-.04-.04,0-.08-.04-.08-.08,0-.04.04-.08.08-.08.12,0,.19.05.23.08.13.11.18.23.17.36-.01.11-.05.27-.22.35-.2.09-.43.13-.94.05-.79-.13-1.07-.13-1.22-.12-.16.02-.25.06-.35.11-.08.04-.16.08-.27.1-.02,0-.05.01-.07.02.06.02.14.04.17.04l.16.03-.16.15s.04,0,.07,0c.13,0,.32-.04.33-.04l.16-.03-.09.18s.07-.01.12-.03c.09-.02.16-.07.24-.12.09-.06.19-.13.34-.14.24-.02.42.03.6.07.17.04.33.08.53.07h.05c.14-.01.23-.02.35-.07l.13-.04s.09,0,.1.05c.01.04,0,.09-.05.1l-.12.04c-.13.06-.25.07-.39.08h-.05c-.23.02-.41-.02-.58-.07-.18-.04-.34-.08-.55-.07-.1,0-.18.06-.26.11-.08.05-.17.11-.29.14-.11.03-.18.04-.29.05h-.14Z"></path><path class="cls-7" d="m85.02,64.03c-.09-.01-.14,0-.22.05-.08.05-.09.11-.14.19.07.02.11.06.18.04.06-.01.09-.04.12-.08.05-.06.07-.11.07-.19h-.02s0,0,0,0Z"></path><path class="cls-5" d="m84.81,64.35s-.07-.01-.1-.03c-.02,0-.04-.02-.06-.02h-.06s.04-.07.04-.07c.02-.02.03-.05.04-.07.03-.04.05-.09.11-.13.08-.05.15-.06.24-.05h.05s0,.04,0,.04c0,.09-.02.15-.08.21-.04.05-.08.08-.14.1-.02,0-.03,0-.04,0Zm-.09-.11s.01,0,.02,0c.04.01.06.02.09.02.05-.01.07-.03.1-.07.04-.04.05-.08.06-.12-.06,0-.11,0-.17.04-.04.03-.06.06-.08.1,0,0-.01.02-.02.03Z"></path><path class="cls-5" d="m87.03,67.19h0s-.08-.04-.08-.08v-.17s0-.04,0-.06c0-.06-.01-.11-.01-.15,0-.06,0-.11-.02-.18-.02-.09-.04-.14-.08-.22-.02-.05-.06-.12-.06-.12l.14-.08s.04.08.07.14c.04.1.06.15.09.25.02.08.02.15.03.21,0,.04,0,.09.01.14,0,.02,0,.04.01.06h0s0,.2,0,.2c0,.04-.04.08-.08.08Z"></path><path class="cls-5" d="m87.91,66.95s0,0-.01,0c-.04,0-.07-.05-.07-.09,0-.03,0-.07.02-.11.03-.14.06-.24.09-.34.02-.07.04-.14.06-.22.02-.08.06-.22.06-.22l.15.04s-.04.13-.06.22c-.02.09-.04.16-.07.23-.03.1-.06.2-.09.33,0,.04-.01.07-.02.1,0,.04-.04.07-.08.07Z"></path><path class="cls-5" d="m86.44,66.97s-.03,0-.04-.01c-.14-.08-.18-.28-.22-.46-.01-.07-.04-.18-.06-.2-.04,0-.07-.05-.06-.09,0-.04.06-.07.1-.06.11.02.14.16.17.32.03.14.06.31.14.35.04.02.05.07.03.11-.01.03-.04.04-.07.04Z"></path><path class="cls-5" d="m90.78,67.2l-.09-.13.06-.04c.17-.07.3-.16.42-.28l.11.11c-.13.13-.29.24-.46.31l-.05.03Z"></path><path class="cls-5" d="m89.48,66.93h-.03s0-.02,0-.02c-.02-.01-.04-.04-.04-.07,0-.04.02-.07.06-.08.3-.07.54-.19.75-.29.18-.09.34-.16.48-.18.04,0,.08.03.09.07,0,.04-.03.08-.07.09-.11.02-.26.08-.43.16-.21.1-.47.22-.78.3h-.03Zm.02,0h0,0Z"></path><path class="cls-5" d="m91.53,67.04s-.02,0-.04,0l-.19-.09c-.21-.1-.31-.21-.42-.31-.08-.08-.16-.16-.29-.23-.06-.03-.1-.07-.14-.11-.08-.07-.12-.11-.25-.09-.04,0-.09,0-.14.01-.05,0-.08-.03-.08-.08,0-.04.03-.08.08-.08.05,0,.09,0,.13-.01.2-.03.29.05.38.13.04.03.07.06.12.09.15.08.24.17.32.26.1.1.19.19.37.28l.19.1s.06.07.04.11c-.01.03-.04.04-.07.04Z"></path><path class="cls-7" d="m83.87,64.66s.07.01.11,0c.05,0,.08-.04.13-.04.04,0,.07,0,.11.02.02.02.03.03.05.06.01.03.03.05.02.08,0,.05-.05.07-.1.07-.04,0-.07-.01-.09-.04-.01-.02-.01-.04,0-.06-.05.02-.08.02-.13,0-.05-.02-.08-.04-.1-.08h0Z"></path><path class="cls-5" d="m84.19,64.89c-.06,0-.1-.02-.13-.07,0,0,0-.02-.01-.03-.03,0-.06,0-.1-.01-.06-.02-.09-.05-.13-.1l-.05-.09.1.02s.06.01.1,0c.02,0,.03,0,.05-.02.02-.01.05-.02.08-.02.05,0,.09,0,.14.03.03.02.04.04.06.07.02.03.03.06.02.1-.01.06-.07.1-.14.1Zm-.03-.22l-.02.08s0,.02,0,.03c0,.01.01.02.05.02.02,0,.05,0,.06-.03,0-.01,0-.02-.01-.04-.02-.03-.02-.04-.04-.05-.02-.01-.04-.02-.07-.01h-.01s-.03,0-.05.02c-.02,0-.04.02-.06.02.03,0,.05,0,.08,0l.08-.03Z"></path><path class="cls-8" d="m85.07,66.22c-.13-.04-.32-.13-.32-.13.05-.04.1-.04.14-.09.06-.07.06-.13.1-.21.03-.08.03-.15.11-.22.05-.04.12-.04.18-.03.06.02.12.06.14.12.02.09-.03.14-.04.24-.01.09-.05.14-.03.24.01.06.04.08.06.15,0,0-.2-.02-.33-.06h0Z"></path><path class="cls-8" d="m84.91,66.38c0-.06.04-.1.1-.1.06,0,.1.04.1.1,0,.06-.04.1-.1.1-.06,0-.1-.04-.1-.1Z"></path><path class="cls-8" d="m84.63,63.7s-.01,0-.02-.02c-.06-.05-.07-.11-.1-.18-.03-.07-.04-.11-.05-.19,0-.07,0-.1,0-.17,0-.06,0-.09,0-.15,0-.06,0-.1-.03-.15-.02-.03-.06-.05-.05-.07.02-.02.04,0,.07,0,.06,0,.1.03.15.07.06.05.09.09.11.17.03.09.04.15.07.24.01.05.02.08.05.12.03.04.05.06.08.1h0c-.05.06-.07.09-.13.14-.05.04-.09.07-.14.09h0s0,0,0,0Z"></path><path class="cls-8" d="m85.21,65.43l.36.17c.19-.1.4-.31.57-.63.14-.28.17-.43.22-.7l-.29-.09h-.06c-.09.29-.11.45-.26.69-.13.21-.28.37-.43.49l-.11.08h0Z"></path><path class="cls-8" d="m86.01,68.36c.06-.08.08-.13.15-.2.07-.08.13-.11.21-.19.03,0,.05,0,.08.01,0,.09,0,.15-.03.25-.02.08-.03.12-.06.2-.02.06-.03.1-.06.16-.02.04-.05.05-.08.08-.08-.12-.22-.21-.21-.31h0Z"></path><path class="cls-8" d="m91.36,68.66c.09.03.15.04.24.09.1.05.15.09.24.15,0,.02.02.05.01.08-.09.02-.15.03-.25.04-.08,0-.12,0-.2,0-.07,0-.11,0-.17-.02-.04-.01-.06-.03-.1-.05.09-.11.14-.27.24-.29h0Z"></path><path class="cls-8" d="m89.78,68.33c.09.03.15.04.24.09.1.05.15.09.24.15,0,.02.02.05.01.08-.09.02-.15.03-.25.04-.08,0-.12,0-.2,0-.07,0-.11,0-.17-.02-.04-.01-.06-.03-.1-.05.09-.11.14-.27.24-.29h0Z"></path><path class="cls-8" d="m86.97,68.68c.09.03.15.04.24.09.1.05.15.09.24.15,0,.02.02.05.01.08-.09.02-.15.03-.25.04-.08,0-.12,0-.2,0-.07,0-.11,0-.17-.02-.04-.01-.06-.03-.1-.05.09-.11.14-.27.24-.29h0Z"></path><path class="cls-8" d="m85.51,63.85c-.1-.05-.17-.17-.11-.26.03-.04.07-.03.09-.06.03-.04.02-.08.02-.14,0-.06-.02-.09-.03-.15-.01-.07-.02-.1-.02-.17,0-.1,0-.17.06-.25.04-.05.11-.1.13-.1.02.02,0,.08,0,.13,0,.07.02.12.05.19.03.09.08.13.11.22.03.08.06.13.07.22,0,.07,0,.12-.03.19-.03.06-.05.09-.1.14-.04.04-.07.05-.13.07-.04,0-.07,0-.1-.02h0Z"></path></g><path class="cls-1" d="m80.23,55.03h-13.44v-13.42h13.44v13.42Zm-13.31-.13h13.18v-13.16h-13.18v13.16Z"></path><path class="cls-1" d="m94.96,55.03h-13.44v-13.42h13.44v13.42Zm-13.31-.13h13.18v-13.16h-13.18v13.16Z"></path><path class="cls-1" d="m80.23,70.36l-.09-.03s-.9-.34-1.77-.51c-.47-.09-.83-.14-1.17-.16-.29-.02-.6-.02-.99,0-.71.03-1.18.08-1.8.16l-.2.03c-.39.05-.87.12-1.47.14-.94.04-1.68,0-2.7-.26-.55-.15-.79-.23-1.12-.41-.46-.25-.81-.5-1.03-.74-.39-.44-.46-.56-.56-.73-.04-.07-.08-.14-.14-.25-.18-.32-.3-.69-.36-1.09h0c-.02-.16-.05-.6-.05-.62v-9.55s13.44,0,13.44,0v14.03Zm-3.49-.85c.17,0,.32,0,.47.01.35.02.72.07,1.19.16.72.14,1.45.4,1.7.49v-13.72s-13.18,0-13.18,0v9.42s.03.46.05.61h-.06s.06,0,.06,0c.06.39.18.74.34,1.05.07.1.11.18.15.25.09.17.15.28.54.71.21.23.54.47.99.71.32.17.55.26,1.09.4,1.01.26,1.72.3,2.67.26.59-.02,1.05-.09,1.45-.14l.2-.03c.62-.08,1.09-.13,1.81-.16.19,0,.37-.01.54-.01Z"></path><path class="cls-1" d="m81.51,70.36v-14.03s13.45,0,13.45,0v9.55s-.03.47-.05.63h-.06s.06,0,.06,0c-.06.4-.18.77-.36,1.09-.07.11-.11.18-.15.25-.09.17-.16.3-.56.73-.22.24-.56.49-1.03.74-.33.18-.57.26-1.12.41-1.02.27-1.76.3-2.7.26-.6-.02-1.08-.09-1.47-.15l-.2-.03c-.62-.08-1.09-.13-1.8-.16-.38-.02-.7-.02-.99,0-.35.02-.71.07-1.17.16-.87.17-1.77.51-1.78.51l-.09.03Zm.14-13.9v13.72c.24-.09.98-.34,1.7-.49.47-.09.84-.15,1.19-.16.3-.02.61-.02,1,0,.71.03,1.18.08,1.81.16l.2.03c.41.06.87.12,1.46.14.95.04,1.66,0,2.67-.26.54-.14.78-.23,1.09-.4.45-.24.78-.48.99-.71.38-.43.45-.54.54-.71.04-.07.08-.15.15-.25.16-.3.28-.66.34-1.05h0c.02-.15.05-.61.05-.61v-9.42s-13.19,0-13.19,0Z"></path></g></svg>