<?xml version="1.0" encoding="UTF-8" ?>
<!DOCTYPE svg PUBLIC "-//W3C//DTD SVG 1.1//EN" "http://www.w3.org/Graphics/SVG/1.1/DTD/svg11.dtd">
<svg width="132pt" height="85pt" viewBox="0 0 132 85" version="1.1" xmlns="http://www.w3.org/2000/svg">
<g id="#76aadaff">
<path fill="#76aada" opacity="1.00" d=" M 0.00 0.00 L 132.00 0.00 L 132.00 28.14 C 130.66 28.24 129.32 28.31 127.98 28.34 C 85.32 28.37 42.66 28.37 0.00 28.34 L 0.00 0.00 Z" />
<path fill="#76aada" opacity="1.00" d=" M 59.33 39.62 C 61.62 36.21 65.98 34.29 69.74 36.54 C 70.62 37.51 71.60 38.41 72.38 39.48 C 72.83 41.40 72.50 43.38 72.45 45.32 C 71.67 46.32 70.90 47.34 70.16 48.36 C 67.91 48.44 65.42 48.46 64.31 50.95 L 64.66 48.35 C 63.93 48.45 62.47 48.65 61.74 48.75 C 61.44 48.36 60.86 47.60 60.56 47.22 C 59.75 44.77 59.20 42.22 59.33 39.62 M 64.48 38.39 C 63.55 39.38 62.60 40.36 61.65 41.33 C 62.18 43.31 63.00 45.21 64.28 46.84 C 66.06 46.52 67.81 46.04 69.50 45.39 C 69.52 43.48 69.57 41.57 69.64 39.66 C 68.04 38.79 66.30 38.37 64.48 38.39 Z" />
<path fill="#76aada" opacity="1.00" d=" M 63.02 40.29 C 65.08 40.36 67.14 40.47 69.19 40.64 C 68.46 42.25 67.71 43.86 67.22 45.57 C 66.40 45.61 65.58 45.66 64.76 45.70 C 64.25 43.87 63.70 42.06 63.02 40.29 Z" />
<path fill="#76aada" opacity="1.00" d=" M 0.00 56.28 C 1.33 56.45 2.67 56.57 4.01 56.63 C 46.67 56.63 89.34 56.61 132.00 56.64 L 132.00 85.00 L 0.00 85.00 L 0.00 56.28 Z" />
</g>
<g id="#fefffeff">
<path fill="#fefffe" opacity="1.00" d=" M 0.00 28.34 C 42.66 28.37 85.32 28.37 127.98 28.34 C 129.32 28.31 130.66 28.24 132.00 28.14 L 132.00 56.64 C 89.34 56.61 46.67 56.63 4.01 56.63 C 2.67 56.57 1.33 56.45 0.00 56.28 L 0.00 28.34 M 59.33 39.62 C 59.20 42.22 59.75 44.77 60.56 47.22 C 60.86 47.60 61.44 48.36 61.74 48.75 C 62.47 48.65 63.93 48.45 64.66 48.35 L 64.31 50.95 C 65.42 48.46 67.91 48.44 70.16 48.36 C 70.90 47.34 71.67 46.32 72.45 45.32 C 72.50 43.38 72.83 41.40 72.38 39.48 C 71.60 38.41 70.62 37.51 69.74 36.54 C 65.98 34.29 61.62 36.21 59.33 39.62 Z" />
<path fill="#fefffe" opacity="1.00" d=" M 64.48 38.39 C 66.30 38.37 68.04 38.79 69.64 39.66 C 69.57 41.57 69.52 43.48 69.50 45.39 C 67.81 46.04 66.06 46.52 64.28 46.84 C 63.00 45.21 62.18 43.31 61.65 41.33 C 62.60 40.36 63.55 39.38 64.48 38.39 M 63.02 40.29 C 63.70 42.06 64.25 43.87 64.76 45.70 C 65.58 45.66 66.40 45.61 67.22 45.57 C 67.71 43.86 68.46 42.25 69.19 40.64 C 67.14 40.47 65.08 40.36 63.02 40.29 Z" />
</g>
</svg>
