<?xml version="1.0" encoding="UTF-8" ?>
<!DOCTYPE svg PUBLIC "-//W3C//DTD SVG 1.1//EN" "http://www.w3.org/Graphics/SVG/1.1/DTD/svg11.dtd">
<svg width="170pt" height="85pt" viewBox="0 0 170 85" version="1.1" xmlns="http://www.w3.org/2000/svg">
<g id="#fe0000ff">
<path fill="#fe0000" opacity="1.00" d=" M 0.00 0.00 L 0.61 0.00 C 9.35 5.59 19.23 9.25 28.35 14.23 C 25.26 14.36 21.96 14.58 19.23 12.83 C 12.87 9.46 6.29 6.51 0.00 3.02 L 0.00 0.00 Z" />
<path fill="#fe0000" opacity="1.00" d=" M 38.29 0.00 L 46.72 0.00 C 46.75 5.65 46.74 11.30 46.73 16.96 C 59.49 17.04 72.25 17.08 85.01 16.92 C 85.03 19.78 85.02 22.63 85.03 25.49 C 72.25 25.52 59.47 25.46 46.69 25.52 C 46.77 31.18 46.73 36.83 46.74 42.49 C 43.92 42.52 41.09 42.51 38.27 42.50 C 38.27 36.85 38.22 31.20 38.32 25.55 C 25.55 25.42 12.77 25.55 0.00 25.48 L 0.00 17.07 C 12.75 16.96 25.51 17.07 38.26 17.05 C 38.27 11.37 38.24 5.68 38.29 0.00 Z" />
<path fill="#fe0000" opacity="1.00" d=" M 81.60 0.00 L 84.40 0.00 C 76.49 4.81 67.90 8.39 59.74 12.76 C 56.97 14.49 53.64 14.36 50.50 14.33 C 58.36 10.14 66.44 6.40 74.33 2.28 C 76.63 1.17 78.88 -0.33 81.60 0.00 Z" />
<path fill="#fe0000" opacity="1.00" d=" M 25.03 30.03 C 27.81 28.25 31.13 28.21 34.31 28.35 C 25.24 33.45 15.67 37.63 6.48 42.53 C 4.42 42.52 2.37 42.47 0.31 42.50 C 8.50 38.23 16.83 34.26 25.03 30.03 Z" />
<path fill="#fe0000" opacity="1.00" d=" M 56.87 28.55 C 59.49 28.43 62.31 27.93 64.73 29.23 C 71.50 32.68 78.30 36.07 85.10 39.48 C 85.09 40.22 85.08 41.72 85.07 42.47 C 75.61 37.96 66.32 33.08 56.87 28.55 Z" />
</g>
<g id="#fefefeff">
<path fill="#fefefe" opacity="1.00" d=" M 0.61 0.00 L 9.81 0.00 C 18.22 4.63 26.97 8.64 35.49 13.06 C 35.45 8.71 35.48 4.35 35.43 0.00 L 38.29 0.00 C 38.24 5.68 38.27 11.37 38.26 17.05 C 25.51 17.07 12.75 16.96 0.00 17.07 L 0.00 14.22 C 6.22 14.22 12.44 14.25 18.66 14.26 C 12.60 10.70 5.85 8.36 0.00 4.45 L 0.00 3.02 C 6.29 6.51 12.87 9.46 19.23 12.83 C 21.96 14.58 25.26 14.36 28.35 14.23 C 19.23 9.25 9.35 5.59 0.61 0.00 Z" />
<path fill="#fefefe" opacity="1.00" d=" M 46.72 0.00 L 49.68 0.00 C 49.66 4.34 49.67 8.69 49.63 13.03 C 58.09 8.70 66.64 4.52 75.13 0.24 L 74.06 0.00 L 81.60 0.00 C 78.88 -0.33 76.63 1.17 74.33 2.28 C 66.44 6.40 58.36 10.14 50.50 14.33 C 53.64 14.36 56.97 14.49 59.74 12.76 C 67.90 8.39 76.49 4.81 84.40 0.00 L 84.80 0.00 C 84.87 1.61 84.98 3.22 85.07 4.83 C 78.92 8.02 72.55 10.80 66.55 14.26 C 72.69 14.27 78.83 14.19 84.97 14.24 C 84.98 14.91 85.00 16.25 85.01 16.92 C 72.25 17.08 59.49 17.04 46.73 16.96 C 46.74 11.30 46.75 5.65 46.72 0.00 Z" />
<path fill="#fefefe" opacity="1.00" d=" M 126.23 11.88 C 126.75 10.65 127.29 9.42 127.83 8.20 C 128.04 9.12 128.45 10.96 128.66 11.88 C 129.70 11.38 130.73 10.87 131.77 10.35 C 131.80 10.60 131.85 11.10 131.88 11.35 C 131.33 12.06 130.79 12.77 130.25 13.49 C 131.26 14.17 132.27 14.87 133.27 15.59 C 132.37 15.69 130.59 15.87 129.69 15.97 C 129.88 16.93 130.26 18.85 130.44 19.81 C 129.49 18.89 128.54 17.97 127.61 17.04 C 126.63 17.98 125.65 18.90 124.66 19.81 C 124.86 18.87 125.28 16.97 125.49 16.03 C 124.23 15.84 122.99 15.61 121.75 15.33 C 122.79 14.75 123.83 14.20 124.88 13.66 C 124.20 12.52 123.43 11.44 122.78 10.28 C 123.93 10.81 125.08 11.35 126.23 11.88 Z" />
<path fill="#fefefe" opacity="1.00" d=" M 0.00 25.48 C 12.77 25.55 25.55 25.42 38.32 25.55 C 38.22 31.20 38.27 36.85 38.27 42.50 C 37.31 42.49 36.35 42.48 35.40 42.48 C 35.47 38.17 35.45 33.85 35.53 29.54 C 27.84 33.56 20.03 37.32 12.31 41.27 C 10.53 42.28 8.52 42.69 6.48 42.53 C 15.67 37.63 25.24 33.45 34.31 28.35 C 31.13 28.21 27.81 28.25 25.03 30.03 C 16.83 34.26 8.50 38.23 0.31 42.50 L 0.00 42.66 L 0.00 37.88 C 6.08 34.60 12.48 31.93 18.45 28.46 C 12.30 28.33 6.15 28.48 0.00 28.44 L 0.00 25.48 Z" />
<path fill="#fefefe" opacity="1.00" d=" M 46.69 25.52 C 59.47 25.46 72.25 25.52 85.03 25.49 C 85.04 26.22 85.05 27.68 85.05 28.41 C 78.92 28.57 72.78 28.19 66.66 28.57 C 72.75 31.81 79.12 34.51 85.08 37.98 L 85.10 39.48 C 78.30 36.07 71.50 32.68 64.73 29.23 C 62.31 27.93 59.49 28.43 56.87 28.55 C 66.32 33.08 75.61 37.96 85.07 42.47 C 80.96 42.37 76.50 43.33 72.74 41.18 C 65.04 37.28 57.27 33.49 49.60 29.54 C 49.68 33.83 49.63 38.13 49.78 42.43 C 49.02 42.44 47.50 42.47 46.74 42.49 C 46.73 36.83 46.77 31.18 46.69 25.52 Z" />
<path fill="#fefefe" opacity="1.00" d=" M 145.14 29.13 C 145.59 28.02 146.06 26.92 146.53 25.82 C 146.95 26.94 147.38 28.07 147.80 29.20 C 148.91 28.68 150.02 28.18 151.13 27.68 C 150.48 28.77 149.82 29.84 149.16 30.91 C 150.14 31.65 151.13 32.37 152.10 33.13 C 151.18 33.16 149.33 33.23 148.41 33.26 C 148.74 34.52 149.07 35.79 149.40 37.05 C 148.36 36.21 147.37 35.32 146.38 34.45 C 145.70 35.10 144.35 36.41 143.67 37.07 C 143.84 36.11 144.17 34.19 144.33 33.22 C 143.42 33.19 141.61 33.13 140.70 33.09 C 141.48 32.55 143.05 31.46 143.83 30.91 C 143.10 29.88 142.37 28.85 141.66 27.82 C 142.82 28.24 143.98 28.68 145.14 29.13 Z" />
<path fill="#fefefe" opacity="1.00" d=" M 105.07 34.56 C 105.55 33.48 106.00 32.38 106.45 31.29 C 106.70 32.18 107.20 33.98 107.45 34.88 C 108.68 34.35 109.90 33.80 111.14 33.28 C 110.47 34.41 109.72 35.49 109.02 36.60 C 110.08 37.25 111.12 37.94 112.16 38.62 C 111.24 38.72 109.39 38.92 108.46 39.01 C 108.64 39.95 108.99 41.82 109.16 42.75 C 108.22 41.86 107.29 40.96 106.38 40.04 C 105.42 40.96 104.41 41.82 103.43 42.72 C 103.65 41.78 104.07 39.91 104.28 38.97 C 103.38 38.90 101.57 38.76 100.67 38.69 C 101.52 37.80 102.59 37.19 103.64 36.56 C 102.88 35.52 102.14 34.47 101.39 33.43 C 102.60 33.83 103.80 34.40 105.07 34.56 Z" />
<path fill="#fefefe" opacity="1.00" d=" M 132.84 45.01 C 134.24 44.94 135.24 44.07 136.19 43.13 C 136.85 44.37 137.87 44.98 139.25 44.96 C 137.83 45.97 137.49 47.37 138.12 48.98 C 137.61 48.65 136.60 48.00 136.10 47.67 C 135.63 47.98 134.70 48.60 134.24 48.91 C 134.49 47.33 134.40 45.84 132.84 45.01 Z" />
<path fill="#fefefe" opacity="1.00" d=" M 40.16 58.74 C 40.89 56.19 41.65 53.64 42.73 51.22 C 43.43 53.78 44.14 56.35 45.26 58.76 C 47.68 57.72 50.11 56.70 52.59 55.80 C 51.19 58.11 49.60 60.29 47.99 62.45 C 50.29 63.83 52.65 65.13 54.87 66.64 C 52.26 66.98 49.64 67.17 47.01 67.34 C 47.35 69.99 47.79 72.62 48.20 75.25 C 46.20 73.42 44.38 71.41 42.54 69.43 C 40.76 71.44 38.94 73.43 36.89 75.19 C 37.35 72.58 37.76 69.96 38.10 67.34 C 35.47 67.17 32.83 66.97 30.21 66.60 C 32.44 65.15 34.78 63.87 37.11 62.58 C 35.61 60.33 34.01 58.15 32.54 55.88 C 35.11 56.75 37.62 57.78 40.16 58.74 Z" />
<path fill="#fefefe" opacity="1.00" d=" M 127.48 64.99 C 127.95 66.16 128.39 67.33 128.80 68.52 C 129.89 67.99 131.00 67.48 132.12 66.99 C 131.57 68.10 130.93 69.16 130.21 70.17 C 131.26 70.83 132.29 71.54 133.18 72.42 C 132.30 72.47 130.54 72.57 129.67 72.62 C 129.91 73.82 130.15 75.03 130.38 76.23 C 129.40 75.41 128.45 74.55 127.50 73.70 C 126.58 74.63 125.65 75.54 124.70 76.44 C 124.91 75.49 125.33 73.58 125.53 72.63 C 124.62 72.57 122.79 72.45 121.87 72.39 C 122.78 71.49 123.90 70.85 124.99 70.19 C 124.24 69.14 123.52 68.08 122.81 67.00 C 124.00 67.51 125.18 68.04 126.35 68.58 C 126.63 67.69 127.19 65.89 127.48 64.99 Z" />
</g>
<g id="#01008cff">
<path fill="#01008c" opacity="1.00" d=" M 9.81 0.00 L 35.43 0.00 C 35.48 4.35 35.45 8.71 35.49 13.06 C 26.97 8.64 18.22 4.63 9.81 0.00 Z" />
<path fill="#01008c" opacity="1.00" d=" M 49.68 0.00 L 74.06 0.00 L 75.13 0.24 C 66.64 4.52 58.09 8.70 49.63 13.03 C 49.67 8.69 49.66 4.34 49.68 0.00 Z" />
<path fill="#01008c" opacity="1.00" d=" M 84.80 0.00 L 170.00 0.00 L 170.00 85.00 L 0.00 85.00 L 0.00 42.66 L 0.31 42.50 C 2.37 42.47 4.42 42.52 6.48 42.53 C 8.52 42.69 10.53 42.28 12.31 41.27 C 20.03 37.32 27.84 33.56 35.53 29.54 C 35.45 33.85 35.47 38.17 35.40 42.48 C 36.35 42.48 37.31 42.49 38.27 42.50 C 41.09 42.51 43.92 42.52 46.74 42.49 C 47.50 42.47 49.02 42.44 49.78 42.43 C 49.63 38.13 49.68 33.83 49.60 29.54 C 57.27 33.49 65.04 37.28 72.74 41.18 C 76.50 43.33 80.96 42.37 85.07 42.47 C 85.08 41.72 85.09 40.22 85.10 39.48 L 85.08 37.98 C 79.12 34.51 72.75 31.81 66.66 28.57 C 72.78 28.19 78.92 28.57 85.05 28.41 C 85.05 27.68 85.04 26.22 85.03 25.49 C 85.02 22.63 85.03 19.78 85.01 16.92 C 85.00 16.25 84.98 14.91 84.97 14.24 C 78.83 14.19 72.69 14.27 66.55 14.26 C 72.55 10.80 78.92 8.02 85.07 4.83 C 84.98 3.22 84.87 1.61 84.80 0.00 M 126.23 11.88 C 125.08 11.35 123.93 10.81 122.78 10.28 C 123.43 11.44 124.20 12.52 124.88 13.66 C 123.83 14.20 122.79 14.75 121.75 15.33 C 122.99 15.61 124.23 15.84 125.49 16.03 C 125.28 16.97 124.86 18.87 124.66 19.81 C 125.65 18.90 126.63 17.98 127.61 17.04 C 128.54 17.97 129.49 18.89 130.44 19.81 C 130.26 18.85 129.88 16.93 129.69 15.97 C 130.59 15.87 132.37 15.69 133.27 15.59 C 132.27 14.87 131.26 14.17 130.25 13.49 C 130.79 12.77 131.33 12.06 131.88 11.35 C 131.85 11.10 131.80 10.60 131.77 10.35 C 130.73 10.87 129.70 11.38 128.66 11.88 C 128.45 10.96 128.04 9.12 127.83 8.20 C 127.29 9.42 126.75 10.65 126.23 11.88 M 145.14 29.13 C 143.98 28.68 142.82 28.24 141.66 27.82 C 142.37 28.85 143.10 29.88 143.83 30.91 C 143.05 31.46 141.48 32.55 140.70 33.09 C 141.61 33.13 143.42 33.19 144.33 33.22 C 144.17 34.19 143.84 36.11 143.67 37.07 C 144.35 36.41 145.70 35.10 146.38 34.45 C 147.37 35.32 148.36 36.21 149.40 37.05 C 149.07 35.79 148.74 34.52 148.41 33.26 C 149.33 33.23 151.18 33.16 152.10 33.13 C 151.13 32.37 150.14 31.65 149.16 30.91 C 149.82 29.84 150.48 28.77 151.13 27.68 C 150.02 28.18 148.91 28.68 147.80 29.20 C 147.38 28.07 146.95 26.94 146.53 25.82 C 146.06 26.92 145.59 28.02 145.14 29.13 M 105.07 34.56 C 103.80 34.40 102.60 33.83 101.39 33.43 C 102.14 34.47 102.88 35.52 103.64 36.56 C 102.59 37.19 101.52 37.80 100.67 38.69 C 101.57 38.76 103.38 38.90 104.28 38.97 C 104.07 39.91 103.65 41.78 103.43 42.72 C 104.41 41.82 105.42 40.96 106.38 40.04 C 107.29 40.96 108.22 41.86 109.16 42.75 C 108.99 41.82 108.64 39.95 108.46 39.01 C 109.39 38.92 111.24 38.72 112.16 38.62 C 111.12 37.94 110.08 37.25 109.02 36.60 C 109.72 35.49 110.47 34.41 111.14 33.28 C 109.90 33.80 108.68 34.35 107.45 34.88 C 107.20 33.98 106.70 32.18 106.45 31.29 C 106.00 32.38 105.55 33.48 105.07 34.56 M 132.84 45.01 C 134.40 45.84 134.49 47.33 134.24 48.91 C 134.70 48.60 135.63 47.98 136.10 47.67 C 136.60 48.00 137.61 48.65 138.12 48.98 C 137.49 47.37 137.83 45.97 139.25 44.96 C 137.87 44.98 136.85 44.37 136.19 43.13 C 135.24 44.07 134.24 44.94 132.84 45.01 M 40.16 58.74 C 37.62 57.78 35.11 56.75 32.54 55.88 C 34.01 58.15 35.61 60.33 37.11 62.58 C 34.78 63.87 32.44 65.15 30.21 66.60 C 32.83 66.97 35.47 67.17 38.10 67.34 C 37.76 69.96 37.35 72.58 36.89 75.19 C 38.94 73.43 40.76 71.44 42.54 69.43 C 44.38 71.41 46.20 73.42 48.20 75.25 C 47.79 72.62 47.35 69.99 47.01 67.34 C 49.64 67.17 52.26 66.98 54.87 66.64 C 52.65 65.13 50.29 63.83 47.99 62.45 C 49.60 60.29 51.19 58.11 52.59 55.80 C 50.11 56.70 47.68 57.72 45.26 58.76 C 44.14 56.35 43.43 53.78 42.73 51.22 C 41.65 53.64 40.89 56.19 40.16 58.74 M 127.48 64.99 C 127.19 65.89 126.63 67.69 126.35 68.58 C 125.18 68.04 124.00 67.51 122.81 67.00 C 123.52 68.08 124.24 69.14 124.99 70.19 C 123.90 70.85 122.78 71.49 121.87 72.39 C 122.79 72.45 124.62 72.57 125.53 72.63 C 125.33 73.58 124.91 75.49 124.70 76.44 C 125.65 75.54 126.58 74.63 127.50 73.70 C 128.45 74.55 129.40 75.41 130.38 76.23 C 130.15 75.03 129.91 73.82 129.67 72.62 C 130.54 72.57 132.30 72.47 133.18 72.42 C 132.29 71.54 131.26 70.83 130.21 70.17 C 130.93 69.16 131.57 68.10 132.12 66.99 C 131.00 67.48 129.89 67.99 128.80 68.52 C 128.39 67.33 127.95 66.16 127.48 64.99 Z" />
<path fill="#01008c" opacity="1.00" d=" M 0.00 4.45 C 5.85 8.36 12.60 10.70 18.66 14.26 C 12.44 14.25 6.22 14.22 0.00 14.22 L 0.00 4.45 Z" />
<path fill="#01008c" opacity="1.00" d=" M 0.00 28.44 C 6.15 28.48 12.30 28.33 18.45 28.46 C 12.48 31.93 6.08 34.60 0.00 37.88 L 0.00 28.44 Z" />
</g>
</svg>
