<?xml version="1.0" encoding="UTF-8" ?>
<!DOCTYPE svg PUBLIC "-//W3C//DTD SVG 1.1//EN" "http://www.w3.org/Graphics/SVG/1.1/DTD/svg11.dtd">
<svg width="121pt" height="85pt" viewBox="0 0 121 85" version="1.1" xmlns="http://www.w3.org/2000/svg">
<g id="#00923fff">
<path fill="#00923f" opacity="1.00" d=" M 0.00 0.00 L 121.00 0.00 L 121.00 85.00 L 0.00 85.00 L 0.00 0.00 M 10.51 42.26 L 10.78 42.86 C 27.32 53.40 43.84 63.96 60.30 74.61 C 77.11 64.34 93.58 53.26 110.34 42.81 L 110.37 42.21 C 93.75 31.70 77.22 21.04 60.68 10.39 C 43.82 20.69 27.34 31.82 10.51 42.26 Z" />
</g>
<g id="#f8c300ff">
<path fill="#f8c300" opacity="1.00" d=" M 10.51 42.26 C 27.34 31.82 43.82 20.69 60.68 10.39 C 77.22 21.04 93.75 31.70 110.37 42.21 L 110.34 42.81 C 93.58 53.26 77.11 64.34 60.30 74.61 C 43.84 63.96 27.32 53.40 10.78 42.86 L 10.51 42.26 M 41.17 33.75 C 40.60 34.85 40.19 36.01 39.95 37.22 C 38.26 44.12 40.08 51.80 45.01 56.97 C 50.38 62.90 59.28 65.27 66.88 62.74 C 73.33 60.78 78.56 55.47 80.65 49.10 L 80.61 49.06 C 80.82 48.11 81.24 46.21 81.44 45.26 C 82.46 38.61 79.90 31.58 74.98 27.02 C 70.49 22.72 64.03 20.62 57.87 21.43 C 50.64 22.25 44.16 27.16 41.17 33.75 Z" />
</g>
<g id="#28166fff">
<path fill="#28166f" opacity="1.00" d=" M 41.17 33.75 C 44.16 27.16 50.64 22.25 57.87 21.43 C 64.03 20.62 70.49 22.72 74.98 27.02 C 79.90 31.58 82.46 38.61 81.44 45.26 C 77.34 41.73 72.62 39.01 67.66 36.89 C 67.64 36.45 67.59 35.57 67.57 35.12 C 66.50 35.53 65.40 36.57 64.23 35.73 C 56.86 33.21 48.86 32.65 41.17 33.75 Z" />
<path fill="#28166f" opacity="1.00" d=" M 39.95 37.22 C 54.37 35.01 69.86 38.97 80.61 49.06 L 80.65 49.10 C 78.56 55.47 73.33 60.78 66.88 62.74 C 59.28 65.27 50.38 62.90 45.01 56.97 C 40.08 51.80 38.26 44.12 39.95 37.22 M 66.27 41.07 L 66.11 41.74 L 66.78 41.90 L 66.94 41.23 L 66.27 41.07 M 52.01 43.03 L 52.09 43.89 L 52.91 43.82 L 52.84 42.94 L 52.01 43.03 M 60.07 45.30 C 58.62 47.99 63.40 45.31 60.07 45.30 M 44.35 47.22 C 44.58 50.50 47.40 45.64 44.35 47.22 M 42.14 49.12 L 42.09 49.86 L 42.83 49.91 L 42.88 49.17 L 42.14 49.12 M 60.04 51.32 C 58.71 54.50 63.35 51.28 60.04 51.32 M 70.47 56.13 L 70.53 56.97 C 72.29 58.47 71.79 54.00 70.47 56.13 Z" />
</g>
<g id="#a5bbbeff">
<path fill="#a5bbbe" opacity="1.00" d=" M 41.17 33.75 C 48.86 32.65 56.86 33.21 64.23 35.73 C 65.40 36.57 66.50 35.53 67.57 35.12 C 67.59 35.57 67.64 36.45 67.66 36.89 C 72.62 39.01 77.34 41.73 81.44 45.26 C 81.24 46.21 80.82 48.11 80.61 49.06 C 69.86 38.97 54.37 35.01 39.95 37.22 C 40.19 36.01 40.60 34.85 41.17 33.75 Z" />
<path fill="#a5bbbe" opacity="1.00" d=" M 66.27 41.07 L 66.94 41.23 L 66.78 41.90 L 66.11 41.74 L 66.27 41.07 Z" />
<path fill="#a5bbbe" opacity="1.00" d=" M 52.01 43.03 L 52.84 42.94 L 52.91 43.82 L 52.09 43.89 L 52.01 43.03 Z" />
<path fill="#a5bbbe" opacity="1.00" d=" M 60.07 45.30 C 63.40 45.31 58.62 47.99 60.07 45.30 Z" />
<path fill="#a5bbbe" opacity="1.00" d=" M 44.35 47.22 C 47.40 45.64 44.58 50.50 44.35 47.22 Z" />
<path fill="#a5bbbe" opacity="1.00" d=" M 42.14 49.12 L 42.88 49.17 L 42.83 49.91 L 42.09 49.86 L 42.14 49.12 Z" />
<path fill="#a5bbbe" opacity="1.00" d=" M 60.04 51.32 C 63.35 51.28 58.71 54.50 60.04 51.32 Z" />
<path fill="#a5bbbe" opacity="1.00" d=" M 70.47 56.13 C 71.79 54.00 72.29 58.47 70.53 56.97 L 70.47 56.13 Z" />
</g>
</svg>
