<?xml version="1.0" encoding="UTF-8" ?>
<!DOCTYPE svg PUBLIC "-//W3C//DTD SVG 1.1//EN" "http://www.w3.org/Graphics/SVG/1.1/DTD/svg11.dtd">
<svg width="170pt" height="85pt" viewBox="0 0 170 85" version="1.1" xmlns="http://www.w3.org/2000/svg">
<g id="#ff0000ff">
<path fill="#ff0000" opacity="1.00" d=" M 0.00 0.00 L 42.50 0.00 C 42.50 28.33 42.50 56.67 42.50 85.00 L 0.00 85.00 L 0.00 0.00 Z" />
<path fill="#ff0000" opacity="1.00" d=" M 127.50 0.00 L 170.00 0.00 L 170.00 85.00 L 127.50 85.00 C 127.50 56.67 127.50 28.33 127.50 0.00 Z" />
<path fill="#ff0000" opacity="1.00" d=" M 78.98 19.14 C 81.29 15.68 82.61 11.49 84.99 8.19 C 87.30 11.53 89.01 15.76 91.01 19.49 C 93.35 19.17 95.40 17.96 97.52 17.01 C 96.59 21.68 95.78 26.38 94.90 31.06 C 94.70 32.70 93.99 34.52 94.87 36.08 C 99.03 34.58 100.60 29.70 104.04 27.12 C 104.73 28.61 104.23 31.27 106.03 31.91 C 109.26 31.82 112.38 30.80 115.54 30.21 C 114.59 34.13 113.24 37.96 112.72 41.98 C 114.13 42.61 115.52 43.26 116.91 43.93 C 113.25 46.94 109.71 50.07 106.06 53.10 C 104.08 54.80 101.86 56.34 100.57 58.67 C 101.15 60.33 101.70 61.99 102.23 63.66 C 97.11 63.20 92.02 62.38 86.90 61.88 C 86.63 62.11 86.08 62.57 85.81 62.80 C 85.54 68.41 86.30 74.00 86.26 79.60 C 85.37 79.60 84.48 79.62 83.59 79.67 C 83.62 73.81 84.30 67.98 84.29 62.13 C 78.73 62.05 73.27 63.21 67.75 63.66 C 68.17 61.55 70.33 58.70 68.27 56.90 C 63.35 52.46 58.21 48.26 53.14 43.99 C 54.65 43.23 56.14 42.40 57.49 41.37 C 56.35 37.69 55.49 33.93 54.45 30.21 C 57.63 30.81 60.76 31.81 64.02 31.93 C 65.74 31.16 65.29 28.63 65.96 27.12 C 69.41 29.86 71.12 34.56 75.33 36.30 C 75.61 29.77 73.38 23.42 72.49 16.99 C 74.62 17.66 76.73 19.84 78.98 19.14 Z" />
</g>
<g id="#ffffffff">
<path fill="#ffffff" opacity="1.00" d=" M 42.50 0.00 L 127.50 0.00 C 127.50 28.33 127.50 56.67 127.50 85.00 L 42.50 85.00 C 42.50 56.67 42.50 28.33 42.50 0.00 M 78.98 19.14 C 76.73 19.84 74.62 17.66 72.49 16.99 C 73.38 23.42 75.61 29.77 75.33 36.30 C 71.12 34.56 69.41 29.86 65.96 27.12 C 65.29 28.63 65.74 31.16 64.02 31.93 C 60.76 31.81 57.63 30.81 54.45 30.21 C 55.49 33.93 56.35 37.69 57.49 41.37 C 56.14 42.40 54.65 43.23 53.14 43.99 C 58.21 48.26 63.35 52.46 68.27 56.90 C 70.33 58.70 68.17 61.55 67.75 63.66 C 73.27 63.21 78.73 62.05 84.29 62.13 C 84.30 67.98 83.62 73.81 83.59 79.67 C 84.48 79.62 85.37 79.60 86.26 79.60 C 86.30 74.00 85.54 68.41 85.81 62.80 C 86.08 62.57 86.63 62.11 86.90 61.88 C 92.02 62.38 97.11 63.20 102.23 63.66 C 101.70 61.99 101.15 60.33 100.57 58.67 C 101.86 56.34 104.08 54.80 106.06 53.10 C 109.71 50.07 113.25 46.94 116.91 43.93 C 115.52 43.26 114.13 42.61 112.72 41.98 C 113.24 37.96 114.59 34.13 115.54 30.21 C 112.38 30.80 109.26 31.82 106.03 31.91 C 104.23 31.27 104.73 28.61 104.04 27.12 C 100.60 29.70 99.03 34.58 94.87 36.08 C 93.99 34.52 94.70 32.70 94.90 31.06 C 95.78 26.38 96.59 21.68 97.52 17.01 C 95.40 17.96 93.35 19.17 91.01 19.49 C 89.01 15.76 87.30 11.53 84.99 8.19 C 82.61 11.49 81.29 15.68 78.98 19.14 Z" />
</g>
</svg>
