<?xml version="1.0" encoding="UTF-8" ?>
<!DOCTYPE svg PUBLIC "-//W3C//DTD SVG 1.1//EN" "http://www.w3.org/Graphics/SVG/1.1/DTD/svg11.dtd">
<svg width="512pt" height="512pt" viewBox="0 0 512 512" version="1.1" xmlns="http://www.w3.org/2000/svg">
<g id="#ffffffff">
<path fill="#ffffff" opacity="1.00" d=" M 0.00 0.00 L 512.00 0.00 L 512.00 85.33 C 341.33 85.33 170.67 85.33 0.00 85.33 L 0.00 0.00 Z" />
<path fill="#ffffff" opacity="1.00" d=" M 0.00 426.67 C 170.67 426.67 341.33 426.67 512.00 426.67 L 512.00 512.00 L 0.00 512.00 L 0.00 426.67 Z" />
</g>
<g id="#d80027ff">
<path fill="#d80027" opacity="1.00" d=" M 0.00 85.33 C 170.67 85.33 341.33 85.33 512.00 85.33 L 512.00 426.67 C 341.33 426.67 170.67 426.67 0.00 426.67 L 0.00 85.33 M 222.61 155.83 C 222.60 178.09 222.61 200.35 222.61 222.61 C 200.35 222.61 178.09 222.60 155.83 222.61 C 155.82 244.87 155.82 267.13 155.83 289.39 C 178.09 289.40 200.35 289.39 222.61 289.39 C 222.61 311.65 222.60 333.91 222.61 356.17 C 244.87 356.18 267.13 356.18 289.39 356.17 C 289.40 333.91 289.39 311.65 289.39 289.39 C 311.65 289.39 333.91 289.40 356.17 289.39 C 356.18 267.13 356.17 244.87 356.17 222.61 C 333.91 222.60 311.65 222.61 289.39 222.61 C 289.39 200.35 289.40 178.09 289.39 155.83 C 267.13 155.82 244.87 155.82 222.61 155.83 Z" />
</g>
<g id="#f0f0f0ff">
<path fill="#f0f0f0" opacity="1.00" d=" M 222.61 155.83 C 244.87 155.82 267.13 155.82 289.39 155.83 C 289.40 178.09 289.39 200.35 289.39 222.61 C 311.65 222.61 333.91 222.60 356.17 222.61 C 356.17 244.87 356.18 267.13 356.17 289.39 C 333.91 289.40 311.65 289.39 289.39 289.39 C 289.39 311.65 289.40 333.91 289.39 356.17 C 267.13 356.18 244.87 356.18 222.61 356.17 C 222.60 333.91 222.61 311.65 222.61 289.39 C 200.35 289.39 178.09 289.40 155.83 289.39 C 155.82 267.13 155.82 244.87 155.83 222.61 C 178.09 222.60 200.35 222.61 222.61 222.61 C 222.61 200.35 222.60 178.09 222.61 155.83 Z" />
</g>
</svg>
