<?xml version="1.0" encoding="UTF-8" ?>
<!DOCTYPE svg PUBLIC "-//W3C//DTD SVG 1.1//EN" "http://www.w3.org/Graphics/SVG/1.1/DTD/svg11.dtd">
<svg width="127pt" height="85pt" viewBox="0 0 127 85" version="1.1" xmlns="http://www.w3.org/2000/svg">
<g id="#0136a7ff">
<path fill="#0136a7" opacity="1.00" d=" M 0.00 0.00 L 42.33 0.00 C 42.34 14.17 42.36 28.34 42.32 42.51 C 28.21 42.47 14.11 42.57 0.00 42.47 L 0.00 0.00 M 21.05 10.67 C 20.29 13.08 19.58 15.49 18.82 17.89 C 16.22 17.92 13.62 17.91 11.02 17.84 C 13.08 19.43 15.16 20.97 17.34 22.39 C 16.63 24.94 15.68 27.40 14.77 29.88 C 16.97 28.47 19.07 26.90 21.08 25.23 C 23.22 26.76 25.33 28.35 27.45 29.92 C 26.66 27.46 25.83 25.02 24.98 22.59 C 27.07 21.03 29.19 19.50 31.22 17.86 C 28.63 17.91 26.04 17.94 23.45 17.87 C 22.77 15.43 22.06 13.00 21.05 10.67 Z" />
</g>
<g id="#ffffffff">
<path fill="#ffffff" opacity="1.00" d=" M 42.33 0.00 L 127.00 0.00 L 127.00 42.53 C 98.77 42.49 70.55 42.51 42.32 42.51 C 42.36 28.34 42.34 14.17 42.33 0.00 Z" />
<path fill="#ffffff" opacity="1.00" d=" M 21.05 10.67 C 22.06 13.00 22.77 15.43 23.45 17.87 C 26.04 17.94 28.63 17.91 31.22 17.86 C 29.19 19.50 27.07 21.03 24.98 22.59 C 25.83 25.02 26.66 27.46 27.45 29.92 C 25.33 28.35 23.22 26.76 21.08 25.23 C 19.07 26.90 16.97 28.47 14.77 29.88 C 15.68 27.40 16.63 24.94 17.34 22.39 C 15.16 20.97 13.08 19.43 11.02 17.84 C 13.62 17.91 16.22 17.92 18.82 17.89 C 19.58 15.49 20.29 13.08 21.05 10.67 Z" />
</g>
<g id="#d82618ff">
<path fill="#d82618" opacity="1.00" d=" M 0.00 42.47 C 14.11 42.57 28.21 42.47 42.32 42.51 C 70.55 42.51 98.77 42.49 127.00 42.53 L 127.00 85.00 L 0.00 85.00 L 0.00 42.47 Z" />
</g>
</svg>
