<?xml version="1.0" encoding="UTF-8" ?>
<!DOCTYPE svg PUBLIC "-//W3C//DTD SVG 1.1//EN" "http://www.w3.org/Graphics/SVG/1.1/DTD/svg11.dtd">
<svg width="134pt" height="85pt" viewBox="0 0 134 85" version="1.1" xmlns="http://www.w3.org/2000/svg">
<g id="#fe0000ff">
<path fill="#fe0000" opacity="1.00" d=" M 0.00 0.00 L 134.00 0.00 L 134.00 85.00 L 0.00 85.00 L 0.00 0.00 M 41.46 6.79 C 42.30 7.70 43.14 8.61 43.99 9.51 C 43.98 10.01 43.97 11.01 43.96 11.51 C 43.11 12.22 42.27 12.93 41.43 13.64 C 42.81 13.36 44.20 13.01 45.62 12.96 C 46.44 14.00 47.11 15.14 47.63 16.37 C 47.76 14.92 47.91 13.47 48.07 12.02 C 48.86 11.97 50.44 11.87 51.23 11.82 C 50.23 10.97 49.17 10.17 48.04 9.50 C 48.03 8.79 48.00 7.37 47.99 6.66 C 47.44 7.14 46.35 8.09 45.80 8.57 C 44.35 8.00 42.91 7.37 41.46 6.79 M 21.71 15.48 C 20.99 17.11 20.31 18.77 19.68 20.44 C 16.35 20.70 12.73 19.44 9.61 20.98 C 11.85 22.78 14.41 24.09 16.88 25.51 C 18.29 29.22 15.58 32.88 14.74 36.43 C 17.86 35.15 19.84 31.76 23.15 31.06 C 26.60 32.38 29.18 35.32 32.23 37.35 C 31.53 36.09 30.89 34.80 30.24 33.51 C 29.87 31.24 29.04 29.09 27.88 27.11 C 30.99 24.73 34.07 22.27 37.39 20.16 C 33.67 20.45 29.94 20.36 26.21 20.43 C 25.69 18.81 25.17 17.19 24.69 15.55 C 24.24 14.26 23.79 12.96 23.34 11.66 C 22.16 12.60 21.99 14.10 21.71 15.48 M 53.99 15.65 C 53.99 16.94 53.98 18.23 53.98 19.51 C 52.84 20.23 51.72 20.96 50.61 21.71 C 52.07 21.87 53.53 21.97 54.99 22.09 C 55.00 22.94 55.03 24.64 55.04 25.49 C 55.87 24.55 56.68 23.61 57.49 22.66 C 58.17 22.82 59.51 23.13 60.19 23.29 C 58.51 21.28 58.81 18.72 60.13 16.61 C 58.82 17.42 57.53 18.27 56.26 19.15 C 55.50 17.99 54.75 16.82 53.99 15.65 M 54.92 32.99 C 53.43 33.00 51.95 33.01 50.46 33.02 C 51.61 33.83 52.81 34.58 53.84 35.54 C 53.92 36.89 53.02 38.11 52.73 39.39 C 53.26 38.96 54.33 38.09 54.86 37.65 C 56.37 36.03 57.93 38.46 59.29 39.09 C 57.56 36.95 58.15 34.46 60.32 32.92 C 59.55 32.94 58.02 32.99 57.25 33.02 C 56.58 31.54 55.91 30.06 55.23 28.59 C 55.10 30.06 55.01 31.52 54.92 32.99 M 42.66 40.77 C 43.17 42.00 43.69 43.22 44.16 44.46 C 43.26 45.35 42.37 46.26 41.49 47.19 C 42.86 46.78 44.20 46.31 45.56 45.87 C 46.16 47.01 46.77 48.14 47.38 49.27 C 47.62 47.98 47.98 46.74 48.46 45.52 C 49.75 45.14 51.07 44.85 52.40 44.66 C 49.77 44.33 47.22 42.76 47.89 39.71 C 46.62 41.48 44.49 42.83 42.66 40.77 Z" />
</g>
<g id="#fffe01ff">
<path fill="#fffe01" opacity="1.00" d=" M 41.46 6.79 C 42.91 7.37 44.35 8.00 45.80 8.57 C 46.35 8.09 47.44 7.14 47.99 6.66 C 48.00 7.37 48.03 8.79 48.04 9.50 C 49.17 10.17 50.23 10.97 51.23 11.82 C 50.44 11.87 48.86 11.97 48.07 12.02 C 47.91 13.47 47.76 14.92 47.63 16.37 C 47.11 15.14 46.44 14.00 45.62 12.96 C 44.20 13.01 42.81 13.36 41.43 13.64 C 42.27 12.93 43.11 12.22 43.96 11.51 C 43.97 11.01 43.98 10.01 43.99 9.51 C 43.14 8.61 42.30 7.70 41.46 6.79 Z" />
<path fill="#fffe01" opacity="1.00" d=" M 21.71 15.48 C 21.99 14.10 22.16 12.60 23.34 11.66 C 23.79 12.96 24.24 14.26 24.69 15.55 C 25.17 17.19 25.69 18.81 26.21 20.43 C 29.94 20.36 33.67 20.45 37.39 20.16 C 34.07 22.27 30.99 24.73 27.88 27.11 C 29.04 29.09 29.87 31.24 30.24 33.51 C 30.89 34.80 31.53 36.09 32.23 37.35 C 29.18 35.32 26.60 32.38 23.15 31.06 C 19.84 31.76 17.86 35.15 14.74 36.43 C 15.58 32.88 18.29 29.22 16.88 25.51 C 14.41 24.09 11.85 22.78 9.61 20.98 C 12.73 19.44 16.35 20.70 19.68 20.44 C 20.31 18.77 20.99 17.11 21.71 15.48 Z" />
<path fill="#fffe01" opacity="1.00" d=" M 53.99 15.65 C 54.75 16.82 55.50 17.99 56.26 19.15 C 57.53 18.27 58.82 17.42 60.13 16.61 C 58.81 18.72 58.51 21.28 60.19 23.29 C 59.51 23.13 58.17 22.82 57.49 22.66 C 56.68 23.61 55.87 24.55 55.04 25.49 C 55.03 24.64 55.00 22.94 54.99 22.09 C 53.53 21.97 52.07 21.87 50.61 21.71 C 51.72 20.96 52.84 20.23 53.98 19.51 C 53.98 18.23 53.99 16.94 53.99 15.65 Z" />
<path fill="#fffe01" opacity="1.00" d=" M 54.92 32.99 C 55.01 31.52 55.10 30.06 55.23 28.59 C 55.91 30.06 56.58 31.54 57.25 33.02 C 58.02 32.99 59.55 32.94 60.32 32.92 C 58.15 34.46 57.56 36.95 59.29 39.09 C 57.93 38.46 56.37 36.03 54.86 37.65 C 54.33 38.09 53.26 38.96 52.73 39.39 C 53.02 38.11 53.92 36.89 53.84 35.54 C 52.81 34.58 51.61 33.83 50.46 33.02 C 51.95 33.01 53.43 33.00 54.92 32.99 Z" />
<path fill="#fffe01" opacity="1.00" d=" M 42.66 40.77 C 44.49 42.83 46.62 41.48 47.89 39.71 C 47.22 42.76 49.77 44.33 52.40 44.66 C 51.07 44.85 49.75 45.14 48.46 45.52 C 47.98 46.74 47.62 47.98 47.38 49.27 C 46.77 48.14 46.16 47.01 45.56 45.87 C 44.20 46.31 42.86 46.78 41.49 47.19 C 42.37 46.26 43.26 45.35 44.16 44.46 C 43.69 43.22 43.17 42.00 42.66 40.77 Z" />
</g>
</svg>
