<?xml version="1.0" encoding="UTF-8" ?>
<!DOCTYPE svg PUBLIC "-//W3C//DTD SVG 1.1//EN" "http://www.w3.org/Graphics/SVG/1.1/DTD/svg11.dtd">
<svg width="142pt" height="85pt" viewBox="0 0 142 85" version="1.1" xmlns="http://www.w3.org/2000/svg">
<g id="#002b7fff">
<path fill="#002b7f" opacity="1.00" d=" M 0.00 0.00 L 142.00 0.00 L 142.00 14.26 C 94.67 14.26 47.33 14.26 0.00 14.26 L 0.00 0.00 Z" />
<path fill="#002b7f" opacity="1.00" d=" M 37.59 38.99 C 37.28 37.23 39.36 36.20 40.79 36.39 C 42.01 36.78 43.31 36.96 44.57 36.65 C 44.93 36.61 45.66 36.52 46.02 36.48 C 46.36 37.04 47.02 38.17 47.35 38.73 C 46.31 38.35 45.27 37.99 44.22 37.64 C 43.43 37.62 41.86 37.58 41.07 37.57 C 39.90 38.08 38.73 38.59 37.57 39.10 L 37.59 38.99 Z" />
<path fill="#002b7f" opacity="1.00" d=" M 39.92 40.75 C 41.31 41.54 42.51 42.61 43.65 43.73 C 43.57 43.16 43.42 42.02 43.35 41.45 C 43.85 41.41 44.85 41.34 45.36 41.30 C 45.50 41.99 45.80 43.37 45.94 44.06 C 46.24 43.69 46.84 42.95 47.14 42.58 C 48.71 43.57 48.49 45.62 48.85 47.21 C 47.04 48.58 45.26 50.22 42.92 50.60 C 41.06 50.39 39.30 49.50 37.85 48.33 C 36.14 46.86 36.86 44.41 36.68 42.46 C 37.38 42.63 38.79 42.98 39.50 43.15 L 39.55 42.87 L 39.92 40.75 M 41.18 47.26 C 42.09 48.12 45.08 47.52 44.14 45.95 C 43.22 45.09 40.66 45.80 41.18 47.26 Z" />
<path fill="#002b7f" opacity="1.00" d=" M 0.00 70.84 C 47.33 70.84 94.67 70.84 142.00 70.84 L 142.00 85.00 L 0.00 85.00 L 0.00 70.84 Z" />
</g>
<g id="#ffffffff">
<path fill="#ffffff" opacity="1.00" d=" M 0.00 14.26 C 47.33 14.26 94.67 14.26 142.00 14.26 L 142.00 28.38 C 94.67 28.38 47.33 28.38 0.00 28.38 L 0.00 14.26 Z" />
<path fill="#ffffff" opacity="1.00" d=" M 39.56 30.66 C 47.01 27.88 53.97 35.87 53.29 43.00 C 53.60 50.09 46.08 57.57 38.94 54.18 C 29.47 50.01 29.85 34.30 39.56 30.66 M 40.79 36.39 C 39.36 36.20 37.28 37.23 37.59 38.99 L 37.70 38.02 C 36.61 38.56 35.53 39.11 34.45 39.66 C 35.10 39.98 36.39 40.63 37.03 40.95 C 37.32 43.50 33.60 41.51 33.71 43.95 C 33.88 48.14 38.45 49.58 40.94 52.23 C 41.75 52.26 43.38 52.32 44.19 52.35 C 47.17 49.53 52.34 47.63 51.54 42.60 C 50.79 42.59 49.30 42.59 48.56 42.58 L 48.41 40.59 L 50.43 40.41 C 49.27 38.79 47.60 37.65 46.02 36.48 C 45.66 36.52 44.93 36.61 44.57 36.65 C 45.62 34.12 40.59 33.67 40.79 36.39 Z" />
<path fill="#ffffff" opacity="1.00" d=" M 37.57 39.10 C 38.73 38.59 39.90 38.08 41.07 37.57 C 41.86 37.58 43.43 37.62 44.22 37.64 C 45.27 37.99 46.31 38.35 47.35 38.73 L 47.62 39.11 C 47.49 40.07 47.33 41.02 47.14 41.97 L 47.14 42.58 C 46.84 42.95 46.24 43.69 45.94 44.06 C 45.80 43.37 45.50 41.99 45.36 41.30 C 44.85 41.34 43.85 41.41 43.35 41.45 C 43.42 42.02 43.57 43.16 43.65 43.73 C 42.51 42.61 41.31 41.54 39.92 40.75 L 39.55 42.87 C 38.62 41.86 37.68 40.86 36.74 39.87 C 36.95 39.68 37.36 39.29 37.57 39.10 Z" />
<path fill="#ffffff" opacity="1.00" d=" M 41.18 47.26 C 40.66 45.80 43.22 45.09 44.14 45.95 C 45.08 47.52 42.09 48.12 41.18 47.26 Z" />
<path fill="#ffffff" opacity="1.00" d=" M 0.00 56.74 C 47.33 56.75 94.67 56.73 142.00 56.74 L 142.00 70.84 C 94.67 70.84 47.33 70.84 0.00 70.84 L 0.00 56.74 Z" />
</g>
<g id="#ce1126ff">
<path fill="#ce1126" opacity="1.00" d=" M 0.00 28.38 C 47.33 28.38 94.67 28.38 142.00 28.38 L 142.00 56.74 C 94.67 56.73 47.33 56.75 0.00 56.74 L 0.00 28.38 M 39.56 30.66 C 29.85 34.30 29.47 50.01 38.94 54.18 C 46.08 57.57 53.60 50.09 53.29 43.00 C 53.97 35.87 47.01 27.88 39.56 30.66 Z" />
<path fill="#ce1126" opacity="1.00" d=" M 40.79 36.39 C 40.59 33.67 45.62 34.12 44.57 36.65 C 43.31 36.96 42.01 36.78 40.79 36.39 Z" />
<path fill="#ce1126" opacity="1.00" d=" M 46.02 36.48 C 47.60 37.65 49.27 38.79 50.43 40.41 L 48.41 40.59 L 48.56 42.58 C 49.30 42.59 50.79 42.59 51.54 42.60 C 52.34 47.63 47.17 49.53 44.19 52.35 C 43.38 52.32 41.75 52.26 40.94 52.23 C 38.45 49.58 33.88 48.14 33.71 43.95 C 33.60 41.51 37.32 43.50 37.03 40.95 C 36.39 40.63 35.10 39.98 34.45 39.66 C 35.53 39.11 36.61 38.56 37.70 38.02 L 37.59 38.99 L 37.57 39.10 C 37.36 39.29 36.95 39.68 36.74 39.87 C 37.68 40.86 38.62 41.86 39.55 42.87 L 39.50 43.15 C 38.79 42.98 37.38 42.63 36.68 42.46 C 36.86 44.41 36.14 46.86 37.85 48.33 C 39.30 49.50 41.06 50.39 42.92 50.60 C 45.26 50.22 47.04 48.58 48.85 47.21 C 48.49 45.62 48.71 43.57 47.14 42.58 L 47.14 41.97 C 47.33 41.02 47.49 40.07 47.62 39.11 L 47.35 38.73 C 47.02 38.17 46.36 37.04 46.02 36.48 Z" />
</g>
</svg>
