<?xml version="1.0" encoding="UTF-8" ?>
<!DOCTYPE svg PUBLIC "-//W3C//DTD SVG 1.1//EN" "http://www.w3.org/Graphics/SVG/1.1/DTD/svg11.dtd">
<svg width="143pt" height="85pt" viewBox="0 0 143 85" version="1.1" xmlns="http://www.w3.org/2000/svg">
<g id="#ffffffff">
<path fill="#ffffff" opacity="1.00" d=" M 0.00 0.00 L 14.26 0.00 C 14.20 11.86 14.27 23.72 14.22 35.57 C 26.58 35.56 38.94 35.65 51.30 35.53 C 51.22 23.68 51.29 11.84 51.26 0.00 L 63.52 0.00 C 63.48 11.86 63.54 23.72 63.48 35.58 C 85.27 35.57 107.06 35.61 128.85 35.56 C 128.78 23.71 128.84 11.85 128.81 0.00 L 143.00 0.00 L 143.00 85.00 L 128.77 85.00 C 128.85 72.62 128.84 60.23 128.78 47.85 C 107.03 47.84 85.28 47.85 63.53 47.84 C 63.48 60.23 63.50 72.61 63.52 85.00 L 51.25 85.00 C 51.28 72.62 51.27 60.24 51.25 47.85 C 38.92 47.84 26.60 47.84 14.27 47.85 C 14.20 60.23 14.25 72.62 14.25 85.00 L 0.00 85.00 L 0.00 0.00 Z" />
</g>
<g id="#d00c33ff">
<path fill="#d00c33" opacity="1.00" d=" M 14.26 0.00 L 51.26 0.00 C 51.29 11.84 51.22 23.68 51.30 35.53 C 38.94 35.65 26.58 35.56 14.22 35.57 C 14.27 23.72 14.20 11.86 14.26 0.00 Z" />
<path fill="#d00c33" opacity="1.00" d=" M 63.52 0.00 L 128.81 0.00 C 128.84 11.85 128.78 23.71 128.85 35.56 C 107.06 35.61 85.27 35.57 63.48 35.58 C 63.54 23.72 63.48 11.86 63.52 0.00 Z" />
<path fill="#d00c33" opacity="1.00" d=" M 14.27 47.85 C 26.60 47.84 38.92 47.84 51.25 47.85 C 51.27 60.24 51.28 72.62 51.25 85.00 L 14.25 85.00 C 14.25 72.62 14.20 60.23 14.27 47.85 Z" />
<path fill="#d00c33" opacity="1.00" d=" M 63.53 47.84 C 85.28 47.85 107.03 47.84 128.78 47.85 C 128.84 60.23 128.85 72.62 128.77 85.00 L 63.52 85.00 C 63.50 72.61 63.48 60.23 63.53 47.84 Z" />
</g>
</svg>
