<?xml version="1.0" encoding="UTF-8" ?>
<!DOCTYPE svg PUBLIC "-//W3C//DTD SVG 1.1//EN" "http://www.w3.org/Graphics/SVG/1.1/DTD/svg11.dtd">
<svg width="127pt" height="85pt" viewBox="0 0 127 85" version="1.1" xmlns="http://www.w3.org/2000/svg">
<g id="#c60b1eff">
<path fill="#c60b1e" opacity="1.00" d=" M 0.00 0.00 L 127.00 0.00 L 127.00 21.52 C 121.01 21.13 115.00 21.37 109.00 21.33 C 72.66 21.30 36.33 21.34 0.00 21.30 L 0.00 0.00 Z" />
<path fill="#c60b1e" opacity="1.00" d=" M 42.00 28.39 C 45.38 28.50 40.45 31.33 42.00 28.39 Z" />
<path fill="#c60b1e" opacity="1.00" d=" M 33.46 32.64 C 39.30 31.05 45.49 30.89 51.30 32.70 C 49.58 34.61 47.84 36.50 46.13 38.42 C 44.95 38.42 43.76 38.43 42.58 38.43 L 42.44 41.01 C 44.18 40.52 45.92 40.05 47.67 39.57 C 47.95 39.60 48.53 39.66 48.82 39.68 C 48.39 40.69 47.97 41.70 47.54 42.70 C 47.95 44.37 48.34 46.04 48.70 47.71 C 49.38 47.68 50.74 47.61 51.43 47.57 C 51.09 51.17 51.51 55.51 48.10 57.81 C 46.55 57.67 45.00 57.56 43.45 57.46 C 43.37 56.91 43.22 55.83 43.15 55.29 C 41.65 56.06 40.19 56.97 38.57 57.46 C 37.10 57.57 35.82 56.58 34.48 56.12 C 34.57 52.52 34.42 48.92 33.69 45.39 C 32.01 45.37 30.32 45.35 28.64 45.32 C 28.49 46.05 28.19 47.52 28.04 48.25 C 27.37 47.03 26.71 45.80 26.06 44.57 C 28.59 43.98 31.16 43.59 33.76 43.44 C 33.73 41.87 33.71 40.29 33.69 38.71 C 35.57 38.21 37.46 37.69 39.35 37.21 C 36.78 36.53 34.74 34.92 33.46 32.64 M 43.16 41.58 C 41.09 43.09 45.02 46.72 45.62 44.03 C 45.06 43.13 44.51 41.21 43.16 41.58 M 45.52 46.11 C 45.62 47.57 46.25 47.85 47.42 46.96 C 47.32 45.49 46.69 45.21 45.52 46.11 Z" />
<path fill="#c60b1e" opacity="1.00" d=" M 28.64 37.22 C 29.68 36.16 30.34 36.35 30.61 37.79 C 29.58 38.84 28.92 38.66 28.64 37.22 Z" />
<path fill="#c60b1e" opacity="1.00" d=" M 54.25 37.14 C 57.25 35.65 54.28 40.53 54.25 37.14 Z" />
<path fill="#c60b1e" opacity="1.00" d=" M 50.60 43.60 C 52.93 43.61 55.25 43.63 57.57 43.66 C 57.56 45.19 57.53 46.72 57.50 48.25 C 56.69 44.72 53.22 45.42 50.53 45.30 L 50.60 43.60 Z" />
<path fill="#c60b1e" opacity="1.00" d=" M 31.91 46.02 C 33.20 49.50 28.45 50.42 26.30 51.99 C 27.28 49.29 29.58 47.51 31.91 46.02 Z" />
<path fill="#c60b1e" opacity="1.00" d=" M 52.41 48.42 C 52.45 47.84 52.52 46.68 52.56 46.10 C 54.24 47.27 55.94 48.41 57.65 49.54 C 57.70 50.15 57.81 51.38 57.86 51.99 C 56.04 50.80 54.23 49.61 52.41 48.42 Z" />
<path fill="#c60b1e" opacity="1.00" d=" M 0.00 63.69 C 42.33 63.72 84.67 63.70 127.00 63.73 L 127.00 85.00 L 0.00 85.00 L 0.00 63.69 Z" />
</g>
<g id="#fec402ff">
<path fill="#fec402" opacity="1.00" d=" M 0.00 21.30 C 36.33 21.34 72.66 21.30 109.00 21.33 C 115.00 21.37 121.01 21.13 127.00 21.52 L 127.00 63.73 C 84.67 63.70 42.33 63.72 0.00 63.69 L 0.00 21.30 M 42.00 28.39 C 40.45 31.33 45.38 28.50 42.00 28.39 M 33.46 32.64 C 34.74 34.92 36.78 36.53 39.35 37.21 C 37.46 37.69 35.57 38.21 33.69 38.71 C 33.71 40.29 33.73 41.87 33.76 43.44 C 31.16 43.59 28.59 43.98 26.06 44.57 C 26.71 45.80 27.37 47.03 28.04 48.25 C 28.19 47.52 28.49 46.05 28.64 45.32 C 30.32 45.35 32.01 45.37 33.69 45.39 C 34.42 48.92 34.57 52.52 34.48 56.12 C 35.82 56.58 37.10 57.57 38.57 57.46 C 40.19 56.97 41.65 56.06 43.15 55.29 C 43.22 55.83 43.37 56.91 43.45 57.46 C 45.00 57.56 46.55 57.67 48.10 57.81 C 51.51 55.51 51.09 51.17 51.43 47.57 C 50.74 47.61 49.38 47.68 48.70 47.71 C 48.34 46.04 47.95 44.37 47.54 42.70 C 47.97 41.70 48.39 40.69 48.82 39.68 C 48.53 39.66 47.95 39.60 47.67 39.57 C 45.92 40.05 44.18 40.52 42.44 41.01 L 42.58 38.43 C 43.76 38.43 44.95 38.42 46.13 38.42 C 47.84 36.50 49.58 34.61 51.30 32.70 C 45.49 30.89 39.30 31.05 33.46 32.64 M 28.64 37.22 C 28.92 38.66 29.58 38.84 30.61 37.79 C 30.34 36.35 29.68 36.16 28.64 37.22 M 54.25 37.14 C 54.28 40.53 57.25 35.65 54.25 37.14 M 50.60 43.60 L 50.53 45.30 C 53.22 45.42 56.69 44.72 57.50 48.25 C 57.53 46.72 57.56 45.19 57.57 43.66 C 55.25 43.63 52.93 43.61 50.60 43.60 M 31.91 46.02 C 29.58 47.51 27.28 49.29 26.30 51.99 C 28.45 50.42 33.20 49.50 31.91 46.02 M 52.41 48.42 C 54.23 49.61 56.04 50.80 57.86 51.99 C 57.81 51.38 57.70 50.15 57.65 49.54 C 55.94 48.41 54.24 47.27 52.56 46.10 C 52.52 46.68 52.45 47.84 52.41 48.42 Z" />
<path fill="#fec402" opacity="1.00" d=" M 43.16 41.58 C 44.51 41.21 45.06 43.13 45.62 44.03 C 45.02 46.72 41.09 43.09 43.16 41.58 Z" />
<path fill="#fec402" opacity="1.00" d=" M 45.52 46.11 C 46.69 45.21 47.32 45.49 47.42 46.96 C 46.25 47.85 45.62 47.57 45.52 46.11 Z" />
</g>
</svg>
