<?xml version="1.0" encoding="UTF-8" ?>
<!DOCTYPE svg PUBLIC "-//W3C//DTD SVG 1.1//EN" "http://www.w3.org/Graphics/SVG/1.1/DTD/svg11.dtd">
<svg width="170pt" height="85pt" viewBox="0 0 170 85" version="1.1" xmlns="http://www.w3.org/2000/svg">
<g id="#cf142bff">
<path fill="#cf142b" opacity="1.00" d=" M 0.00 0.00 L 0.23 0.00 C 18.85 9.61 37.74 18.71 56.39 28.26 C 52.00 28.13 47.44 28.99 43.16 27.89 C 28.75 20.75 14.36 13.55 0.00 6.31 L 0.00 0.00 Z" />
<path fill="#cf142b" opacity="1.00" d=" M 76.50 0.00 L 93.51 0.00 C 93.46 11.29 93.55 22.58 93.46 33.86 C 118.96 34.30 144.50 33.68 170.00 34.10 L 170.00 50.89 C 150.32 51.22 130.64 50.79 110.97 51.05 C 105.15 50.70 99.32 50.91 93.51 51.16 C 93.49 62.44 93.51 73.72 93.50 85.00 L 76.49 85.00 C 76.53 73.71 76.45 62.41 76.53 51.12 C 64.03 50.49 51.50 51.16 38.99 50.96 C 26.00 51.45 12.99 50.51 0.00 51.08 L 0.00 34.15 C 25.50 33.73 50.98 34.12 76.47 33.90 C 76.53 22.60 76.48 11.30 76.50 0.00 Z" />
<path fill="#cf142b" opacity="1.00" d=" M 157.19 0.00 L 169.77 0.00 C 151.29 9.46 132.67 18.66 114.09 27.91 C 109.76 28.95 105.18 28.14 100.77 28.27 C 119.57 18.83 138.43 9.52 157.19 0.00 Z" />
<path fill="#cf142b" opacity="1.00" d=" M 55.84 57.12 C 60.19 56.03 64.81 56.87 69.27 56.71 C 50.46 66.15 31.58 75.47 12.82 85.00 L 0.23 85.00 C 18.68 75.55 37.28 66.37 55.84 57.12 Z" />
<path fill="#cf142b" opacity="1.00" d=" M 113.60 56.74 C 118.00 56.87 122.57 56.01 126.86 57.12 C 141.27 64.25 155.65 71.45 170.00 78.69 L 170.00 85.00 L 169.77 85.00 C 151.15 75.39 132.26 66.29 113.60 56.74 Z" />
</g>
<g id="#ffffffff">
<path fill="#ffffff" opacity="1.00" d=" M 0.23 0.00 L 19.10 0.00 C 36.26 8.71 53.54 17.19 70.70 25.88 C 70.85 17.26 70.73 8.63 70.77 0.00 L 76.50 0.00 C 76.48 11.30 76.53 22.60 76.47 33.90 C 50.98 34.12 25.50 33.73 0.00 34.15 L 0.00 28.36 C 12.56 28.33 25.11 28.41 37.67 28.31 C 25.10 22.05 12.52 15.81 0.00 9.46 L 0.00 6.31 C 14.36 13.55 28.75 20.75 43.16 27.89 C 47.44 28.99 52.00 28.13 56.39 28.26 C 37.74 18.71 18.85 9.61 0.23 0.00 Z" />
<path fill="#ffffff" opacity="1.00" d=" M 93.51 0.00 L 99.23 0.00 C 99.26 8.63 99.18 17.25 99.28 25.88 C 116.43 17.20 133.71 8.77 150.81 0.00 L 157.19 0.00 C 138.43 9.52 119.57 18.83 100.77 28.27 C 105.18 28.14 109.76 28.95 114.09 27.91 C 132.67 18.66 151.29 9.46 169.77 0.00 L 170.00 0.00 L 170.00 9.45 C 157.65 15.84 145.04 21.76 132.75 28.27 C 145.16 28.58 157.59 28.07 170.00 28.53 L 170.00 34.10 C 144.50 33.68 118.96 34.30 93.46 33.86 C 93.55 22.58 93.46 11.29 93.51 0.00 Z" />
<path fill="#ffffff" opacity="1.00" d=" M 0.00 51.08 C 12.99 50.51 26.00 51.45 38.99 50.96 C 51.50 51.16 64.03 50.49 76.53 51.12 C 76.45 62.41 76.53 73.71 76.49 85.00 L 70.77 85.00 C 70.74 76.37 70.83 67.75 70.72 59.12 C 53.57 67.81 36.29 76.23 19.19 85.00 L 12.82 85.00 C 31.58 75.47 50.46 66.15 69.27 56.71 C 64.81 56.87 60.19 56.03 55.84 57.12 C 37.28 66.37 18.68 75.55 0.23 85.00 L 0.00 85.00 L 0.00 75.55 C 12.51 69.18 25.10 62.96 37.66 56.69 C 25.11 56.51 12.55 56.82 0.00 56.54 L 0.00 51.08 Z" />
<path fill="#ffffff" opacity="1.00" d=" M 93.51 51.16 C 99.32 50.91 105.15 50.70 110.97 51.05 C 130.64 50.79 150.32 51.22 170.00 50.89 L 170.00 56.64 C 157.51 56.70 145.03 56.53 132.54 56.73 C 144.99 63.08 157.56 69.19 170.00 75.54 L 170.00 78.69 C 155.65 71.45 141.27 64.25 126.86 57.12 C 122.57 56.01 118.00 56.87 113.60 56.74 C 132.26 66.29 151.15 75.39 169.77 85.00 L 150.90 85.00 C 133.73 76.30 116.46 67.79 99.28 59.12 C 99.17 67.75 99.26 76.37 99.23 85.00 L 93.50 85.00 C 93.51 73.72 93.49 62.44 93.51 51.16 Z" />
</g>
<g id="#00247dff">
<path fill="#00247d" opacity="1.00" d=" M 19.10 0.00 L 70.77 0.00 C 70.73 8.63 70.85 17.26 70.70 25.88 C 53.54 17.19 36.26 8.71 19.10 0.00 Z" />
<path fill="#00247d" opacity="1.00" d=" M 99.23 0.00 L 150.81 0.00 C 133.71 8.77 116.43 17.20 99.28 25.88 C 99.18 17.25 99.26 8.63 99.23 0.00 Z" />
<path fill="#00247d" opacity="1.00" d=" M 0.00 9.46 C 12.52 15.81 25.10 22.05 37.67 28.31 C 25.11 28.41 12.56 28.33 0.00 28.36 L 0.00 9.46 Z" />
<path fill="#00247d" opacity="1.00" d=" M 132.75 28.27 C 145.04 21.76 157.65 15.84 170.00 9.45 L 170.00 28.53 C 157.59 28.07 145.16 28.58 132.75 28.27 Z" />
<path fill="#00247d" opacity="1.00" d=" M 0.00 56.54 C 12.55 56.82 25.11 56.51 37.66 56.69 C 25.10 62.96 12.51 69.18 0.00 75.55 L 0.00 56.54 Z" />
<path fill="#00247d" opacity="1.00" d=" M 132.54 56.73 C 145.03 56.53 157.51 56.70 170.00 56.64 L 170.00 75.54 C 157.56 69.19 144.99 63.08 132.54 56.73 Z" />
<path fill="#00247d" opacity="1.00" d=" M 19.19 85.00 C 36.29 76.23 53.57 67.81 70.72 59.12 C 70.83 67.75 70.74 76.37 70.77 85.00 L 19.19 85.00 Z" />
<path fill="#00247d" opacity="1.00" d=" M 99.23 85.00 C 99.26 76.37 99.17 67.75 99.28 59.12 C 116.46 67.79 133.73 76.30 150.90 85.00 L 99.23 85.00 Z" />
</g>
</svg>
