<?xml version="1.0" encoding="UTF-8" ?>
<!DOCTYPE svg PUBLIC "-//W3C//DTD SVG 1.1//EN" "http://www.w3.org/Graphics/SVG/1.1/DTD/svg11.dtd">
<svg width="145pt" height="85pt" viewBox="0 0 145 85" version="1.1" xmlns="http://www.w3.org/2000/svg">
<g id="#16007eff">
<path fill="#16007e" opacity="1.00" d=" M 0.00 0.00 L 145.00 0.00 L 145.00 9.78 C 143.34 9.56 141.66 9.51 139.98 9.54 C 109.00 9.68 78.01 9.39 47.03 9.68 C 46.80 12.66 47.71 15.99 46.62 18.75 C 40.50 19.03 34.34 18.87 28.21 18.82 C 28.32 12.66 28.24 6.50 28.28 0.34 C 25.13 0.09 21.97 0.10 18.82 0.35 C 18.82 6.54 18.88 12.72 18.82 18.91 C 12.65 18.85 6.48 18.91 0.32 18.84 C 0.01 21.99 0.04 25.16 0.30 28.32 C 6.46 28.25 12.61 28.36 18.77 28.21 C 18.93 34.46 18.81 40.72 18.84 46.97 C 12.69 47.16 6.53 47.15 0.38 46.94 C -0.06 50.09 0.08 53.27 0.28 56.44 C 48.43 56.36 96.57 56.39 144.72 56.42 C 144.95 53.27 145.01 50.10 144.65 46.95 C 107.44 47.26 70.23 46.96 33.02 47.11 C 31.41 47.12 29.81 47.00 28.21 46.86 C 28.33 40.66 28.24 34.46 28.25 28.26 C 34.54 28.55 40.91 27.81 47.14 28.63 C 47.04 31.65 47.03 34.68 47.20 37.70 C 79.80 37.63 112.40 37.52 145.00 37.75 L 145.00 85.00 L 0.00 85.00 L 0.00 0.00 M 0.29 65.73 C 0.07 68.88 -0.09 72.09 0.36 75.23 C 48.49 75.09 96.62 75.18 144.75 75.18 C 144.93 72.04 144.97 68.88 144.75 65.73 C 96.59 65.75 48.44 65.77 0.29 65.73 Z" />
<path fill="#16007e" opacity="1.00" d=" M 46.91 18.88 C 77.62 18.82 108.32 18.89 139.03 18.84 C 140.76 18.81 142.50 18.86 144.23 19.04 C 144.15 22.08 144.14 25.11 144.15 28.14 C 111.75 28.52 79.32 28.24 46.91 28.28 C 47.14 25.15 47.10 22.01 46.91 18.88 Z" />
</g>
<g id="#ffffffff">
<path fill="#ffffff" opacity="1.00" d=" M 18.82 0.35 C 21.97 0.10 25.13 0.09 28.28 0.34 C 28.24 6.50 28.32 12.66 28.21 18.82 C 34.34 18.87 40.50 19.03 46.62 18.75 C 47.71 15.99 46.80 12.66 47.03 9.68 C 78.01 9.39 109.00 9.68 139.98 9.54 C 141.66 9.51 143.34 9.56 145.00 9.78 L 145.00 37.75 C 112.40 37.52 79.80 37.63 47.20 37.70 C 47.03 34.68 47.04 31.65 47.14 28.63 C 40.91 27.81 34.54 28.55 28.25 28.26 C 28.24 34.46 28.33 40.66 28.21 46.86 C 29.81 47.00 31.41 47.12 33.02 47.11 C 70.23 46.96 107.44 47.26 144.65 46.95 C 145.01 50.10 144.95 53.27 144.72 56.42 C 96.57 56.39 48.43 56.36 0.28 56.44 C 0.08 53.27 -0.06 50.09 0.38 46.94 C 6.53 47.15 12.69 47.16 18.84 46.97 C 18.81 40.72 18.93 34.46 18.77 28.21 C 12.61 28.36 6.46 28.25 0.30 28.32 C 0.04 25.16 0.01 21.99 0.32 18.84 C 6.48 18.91 12.65 18.85 18.82 18.91 C 18.88 12.72 18.82 6.54 18.82 0.35 M 46.91 18.88 C 47.10 22.01 47.14 25.15 46.91 28.28 C 79.32 28.24 111.75 28.52 144.15 28.14 C 144.14 25.11 144.15 22.08 144.23 19.04 C 142.50 18.86 140.76 18.81 139.03 18.84 C 108.32 18.89 77.62 18.82 46.91 18.88 Z" />
<path fill="#ffffff" opacity="1.00" d=" M 0.29 65.73 C 48.44 65.77 96.59 65.75 144.75 65.73 C 144.97 68.88 144.93 72.04 144.75 75.18 C 96.62 75.18 48.49 75.09 0.36 75.23 C -0.09 72.09 0.07 68.88 0.29 65.73 Z" />
</g>
</svg>
