<?xml version="1.0" encoding="UTF-8" ?>
<!DOCTYPE svg PUBLIC "-//W3C//DTD SVG 1.1//EN" "http://www.w3.org/Graphics/SVG/1.1/DTD/svg11.dtd">
<svg width="127pt" height="85pt" viewBox="0 0 127 85" version="1.1" xmlns="http://www.w3.org/2000/svg">
<g id="#ffffffff">
<path fill="#ffffff" opacity="1.00" d=" M 0.00 0.00 L 127.00 0.00 L 127.00 85.00 L 0.00 85.00 L 0.00 0.00 M 59.27 17.38 C 51.72 18.62 44.83 23.49 41.24 30.27 C 36.62 38.56 37.23 49.44 42.74 57.17 C 49.30 66.98 63.11 70.70 73.79 65.79 C 82.64 61.98 88.87 52.69 88.80 43.02 C 89.20 34.04 84.22 25.12 76.48 20.61 C 71.38 17.40 65.16 16.58 59.27 17.38 Z" />
</g>
<g id="#be0026ff">
<path fill="#be0026" opacity="1.00" d=" M 59.27 17.38 C 65.16 16.58 71.38 17.40 76.48 20.61 C 84.22 25.12 89.20 34.04 88.80 43.02 C 88.87 52.69 82.64 61.98 73.79 65.79 C 63.11 70.70 49.30 66.98 42.74 57.17 C 37.23 49.44 36.62 38.56 41.24 30.27 C 44.83 23.49 51.72 18.62 59.27 17.38 Z" />
</g>
</svg>
