<?xml version="1.0" encoding="UTF-8" ?>
<!DOCTYPE svg PUBLIC "-//W3C//DTD SVG 1.1//EN" "http://www.w3.org/Graphics/SVG/1.1/DTD/svg11.dtd">
<svg width="170pt" height="85pt" viewBox="0 0 170 85" version="1.1" xmlns="http://www.w3.org/2000/svg">
<g id="#ffffffff">
<path fill="#ffffff" opacity="1.00" d=" M 0.00 0.00 L 9.41 0.00 C 18.12 4.33 26.81 8.73 35.53 13.05 C 35.48 8.70 35.58 4.35 35.42 0.00 L 38.26 0.00 C 38.26 5.66 38.26 11.31 38.27 16.97 C 25.51 17.10 12.76 16.85 0.00 17.07 L 0.00 14.27 C 6.13 14.25 12.25 14.27 18.38 14.34 C 16.04 12.52 13.27 11.42 10.62 10.15 C 7.12 8.25 3.47 6.66 0.00 4.71 L 0.00 3.02 C 6.58 6.52 13.35 9.68 19.96 13.13 C 22.45 14.66 25.45 14.27 28.23 14.25 C 18.96 9.33 9.42 4.93 0.13 0.04 L 0.00 1.00 L 0.00 0.00 Z" />
<path fill="#ffffff" opacity="1.00" d=" M 46.74 0.00 L 49.64 0.00 C 49.63 4.34 49.63 8.68 49.63 13.01 C 50.88 12.37 52.13 11.73 53.38 11.10 C 60.59 7.55 67.71 3.83 74.98 0.42 L 74.03 0.00 L 78.83 0.00 C 69.52 4.90 59.93 9.27 50.69 14.30 C 53.24 14.22 55.98 14.64 58.33 13.37 C 67.25 8.93 76.15 4.41 85.10 0.02 C 85.04 1.61 85.00 3.21 84.97 4.80 C 83.42 5.59 81.88 6.37 80.33 7.16 C 75.79 9.60 70.87 11.38 66.61 14.33 C 72.70 14.28 78.80 14.25 84.89 14.25 C 84.93 14.92 85.01 16.26 85.05 16.93 C 72.28 17.04 59.50 17.08 46.73 16.97 C 46.74 11.31 46.73 5.66 46.74 0.00 Z" />
<path fill="#ffffff" opacity="1.00" d=" M 0.00 25.50 C 12.78 25.55 25.55 25.39 38.33 25.58 C 38.21 31.21 38.28 36.85 38.26 42.48 C 37.55 42.48 36.15 42.48 35.44 42.48 C 35.52 38.15 35.57 33.82 35.42 29.49 C 34.83 29.81 33.66 30.46 33.08 30.78 C 25.93 34.41 18.72 37.94 11.58 41.58 C 10.02 42.52 8.19 42.52 6.42 42.46 C 15.70 37.72 25.07 33.17 34.36 28.47 C 32.18 28.43 29.90 28.09 27.79 28.78 C 18.42 33.00 9.54 38.37 0.00 42.21 L 0.00 38.02 C 5.92 34.41 12.58 32.14 18.38 28.34 C 12.26 28.36 6.13 28.36 0.00 28.43 L 0.00 25.50 Z" />
<path fill="#ffffff" opacity="1.00" d=" M 46.66 25.60 C 59.45 25.36 72.23 25.56 85.02 25.50 C 85.03 26.21 85.05 27.64 85.05 28.36 C 78.93 28.45 72.80 28.33 66.67 28.34 C 67.25 28.70 67.84 29.06 68.44 29.39 C 73.69 32.02 78.82 34.92 84.29 37.07 C 84.51 37.68 84.94 38.90 85.16 39.52 C 78.34 36.13 71.54 32.72 64.77 29.27 C 62.36 27.95 59.52 28.44 56.89 28.41 C 66.19 33.21 75.65 37.71 84.97 42.48 C 81.59 42.60 78.21 42.52 74.84 42.36 C 66.56 37.79 57.93 33.88 49.56 29.48 C 49.63 33.77 49.58 38.06 49.75 42.34 C 48.99 42.39 47.49 42.49 46.73 42.53 C 46.68 36.89 46.81 31.25 46.66 25.60 Z" />
<path fill="#ffffff" opacity="1.00" d=" M 117.83 57.67 C 119.24 57.16 120.65 56.65 122.08 56.17 C 122.78 56.24 124.18 56.40 124.89 56.48 C 124.94 57.59 124.97 58.71 124.99 59.82 L 123.70 60.34 C 122.96 60.25 121.49 60.07 120.75 59.98 C 122.45 63.14 126.99 66.18 130.41 63.70 C 132.08 62.90 133.54 61.68 134.35 59.98 C 133.57 60.09 132.01 60.30 131.22 60.41 L 130.00 59.72 C 130.03 58.66 130.09 57.59 130.17 56.53 C 130.85 56.43 132.20 56.23 132.88 56.13 C 134.49 56.72 136.16 57.11 137.88 57.17 C 137.73 57.42 137.42 57.90 137.27 58.14 C 138.14 61.03 137.20 64.12 138.41 66.95 L 139.63 66.93 C 134.77 69.04 129.38 71.12 124.03 69.85 C 128.28 69.72 133.05 70.08 136.63 67.33 C 137.00 66.42 137.02 65.50 136.71 64.56 L 135.90 64.56 C 135.12 64.56 133.56 64.57 132.78 64.57 C 134.41 63.82 135.99 62.99 137.60 62.20 C 137.04 61.56 136.49 60.92 135.93 60.28 C 134.03 61.93 132.08 63.52 130.12 65.10 C 128.42 65.46 126.65 65.54 124.93 65.28 C 123.38 63.70 121.71 62.23 119.99 60.83 C 119.31 61.26 118.67 61.73 118.07 62.26 C 117.57 61.86 117.10 61.42 116.67 60.94 C 117.46 60.33 118.26 59.72 119.07 59.13 C 118.76 58.76 118.14 58.03 117.83 57.67 Z" />
<path fill="#ffffff" opacity="1.00" d=" M 127.18 59.28 L 127.92 59.35 C 128.17 59.79 128.65 60.67 128.89 61.10 C 128.22 61.11 126.88 61.12 126.20 61.12 C 126.45 60.66 126.93 59.74 127.18 59.28 Z" />
<path fill="#ffffff" opacity="1.00" d=" M 105.41 61.01 L 106.00 60.69 C 106.14 61.45 106.42 62.97 106.56 63.73 C 107.71 64.91 109.28 65.37 110.91 65.19 C 115.24 64.65 118.48 68.06 122.27 69.50 C 119.34 68.68 116.43 67.53 114.13 65.47 C 111.81 65.49 109.36 66.02 107.13 65.16 C 106.03 64.09 105.41 62.54 105.41 61.01 Z" />
</g>
<g id="#012169ff">
<path fill="#012169" opacity="1.00" d=" M 9.41 0.00 L 35.42 0.00 C 35.58 4.35 35.48 8.70 35.53 13.05 C 26.81 8.73 18.12 4.33 9.41 0.00 Z" />
<path fill="#012169" opacity="1.00" d=" M 0.00 28.43 C 6.13 28.36 12.26 28.36 18.38 28.34 C 12.58 32.14 5.92 34.41 0.00 38.02 L 0.00 28.43 Z" />
<path fill="#012169" opacity="1.00" d=" M 126.79 29.44 C 128.74 29.31 130.74 29.19 132.65 29.67 C 132.12 29.62 131.06 29.52 130.53 29.47 C 130.73 30.31 131.14 31.99 131.34 32.83 C 129.25 32.51 127.83 31.18 126.79 29.44 Z" />
<path fill="#012169" opacity="1.00" d=" M 133.65 30.76 C 134.15 30.75 135.15 30.73 135.66 30.72 C 135.67 31.34 135.68 32.58 135.69 33.19 C 135.06 33.04 133.79 32.73 133.15 32.58 C 133.27 32.13 133.52 31.22 133.65 30.76 Z" />
<path fill="#012169" opacity="1.00" d=" M 118.07 62.26 C 118.67 61.73 119.31 61.26 119.99 60.83 C 121.71 62.23 123.38 63.70 124.93 65.28 C 122.49 64.68 120.14 63.70 118.07 62.26 Z" />
<path fill="#012169" opacity="1.00" d=" M 135.93 60.28 C 136.49 60.92 137.04 61.56 137.60 62.20 C 135.99 62.99 134.41 63.82 132.78 64.57 C 132.12 64.70 130.79 64.97 130.12 65.10 C 132.08 63.52 134.03 61.93 135.93 60.28 Z" />
</g>
<g id="#c8102eff">
<path fill="#c8102e" opacity="1.00" d=" M 38.26 0.00 L 46.74 0.00 C 46.73 5.66 46.74 11.31 46.73 16.97 C 59.50 17.08 72.28 17.04 85.05 16.93 C 85.07 19.79 84.99 22.64 85.02 25.50 C 72.23 25.56 59.45 25.36 46.66 25.60 C 46.81 31.25 46.68 36.89 46.73 42.53 L 46.74 42.79 C 43.93 42.49 41.09 42.46 38.26 42.48 C 38.28 36.85 38.21 31.21 38.33 25.58 C 25.55 25.39 12.78 25.55 0.00 25.50 L 0.00 17.07 C 12.76 16.85 25.51 17.10 38.27 16.97 C 38.26 11.31 38.26 5.66 38.26 0.00 Z" />
</g>
<g id="#070a56ff">
<path fill="#070a56" opacity="1.00" d=" M 49.64 0.00 L 51.09 0.00 C 51.15 3.19 51.22 6.37 51.29 9.56 C 51.81 9.95 52.86 10.72 53.38 11.10 C 52.13 11.73 50.88 12.37 49.63 13.01 C 49.63 8.68 49.63 4.34 49.64 0.00 Z" />
</g>
<g id="#012269ff">
<path fill="#012269" opacity="1.00" d=" M 51.09 0.00 L 74.03 0.00 L 74.98 0.42 C 67.71 3.83 60.59 7.55 53.38 11.10 C 52.86 10.72 51.81 9.95 51.29 9.56 C 51.22 6.37 51.15 3.19 51.09 0.00 Z" />
<path fill="#012269" opacity="1.00" d=" M 85.13 0.00 L 170.00 0.00 L 170.00 85.00 L 0.00 85.00 L 0.00 42.64 C 2.14 42.53 4.28 42.50 6.42 42.46 C 8.19 42.52 10.02 42.52 11.58 41.58 C 18.72 37.94 25.93 34.41 33.08 30.78 C 34.34 34.59 33.65 38.67 34.60 42.53 C 35.06 38.19 34.84 33.82 35.42 29.49 C 35.57 33.82 35.52 38.15 35.44 42.48 C 36.15 42.48 37.55 42.48 38.26 42.48 C 41.09 42.46 43.93 42.49 46.74 42.79 C 48.14 42.95 49.53 43.10 50.93 43.23 C 51.28 39.58 51.36 35.90 51.19 32.23 C 58.48 35.57 65.43 39.63 72.81 42.75 C 73.32 42.66 74.33 42.46 74.84 42.36 C 78.21 42.52 81.59 42.60 84.97 42.48 C 85.04 41.49 85.10 40.51 85.16 39.52 C 84.94 38.90 84.51 37.68 84.29 37.07 L 85.57 36.90 C 82.15 33.96 77.78 32.59 73.86 30.48 C 77.56 30.21 81.28 30.13 85.00 30.13 L 84.99 28.99 C 79.47 28.92 73.91 28.38 68.44 29.39 C 67.84 29.06 67.25 28.70 66.67 28.34 C 72.80 28.33 78.93 28.45 85.05 28.36 C 85.05 27.64 85.03 26.21 85.02 25.50 C 84.99 22.64 85.07 19.79 85.05 16.93 C 85.01 16.26 84.93 14.92 84.89 14.25 L 84.75 13.21 C 80.81 12.94 76.86 13.02 72.91 12.80 C 75.27 11.38 77.82 10.30 80.11 8.78 C 80.16 8.38 80.28 7.56 80.33 7.16 C 81.88 6.37 83.42 5.59 84.97 4.80 C 85.00 3.21 85.04 1.61 85.10 0.02 L 85.13 0.00 M 123.48 15.14 C 122.66 16.43 121.99 18.11 120.06 17.47 C 119.83 18.61 119.60 19.75 119.38 20.89 C 119.82 21.39 120.70 22.39 121.14 22.89 C 121.36 23.06 121.79 23.41 122.00 23.58 C 120.28 24.28 118.78 22.86 117.34 22.21 C 116.85 22.96 116.47 23.75 116.20 24.59 C 117.09 25.63 118.39 26.16 119.53 26.87 C 119.62 28.73 119.59 30.60 119.15 32.42 C 117.53 32.43 115.91 32.44 114.30 32.44 C 114.36 38.99 114.30 45.55 114.67 52.10 C 113.27 52.82 112.01 53.75 110.84 54.80 L 109.98 54.85 C 109.23 55.50 108.48 56.14 107.73 56.78 C 105.67 56.72 102.96 57.99 104.78 60.32 L 105.41 61.01 C 105.41 62.54 106.03 64.09 107.13 65.16 C 109.36 66.02 111.81 65.49 114.13 65.47 C 116.43 67.53 119.34 68.68 122.27 69.50 C 122.71 69.58 123.59 69.76 124.03 69.85 C 129.38 71.12 134.77 69.04 139.63 66.93 L 138.41 66.95 C 139.05 66.55 140.33 65.77 140.97 65.38 C 143.28 65.63 145.61 65.67 147.92 65.42 C 149.22 63.09 150.66 60.50 150.40 57.74 C 149.19 57.30 147.96 57.31 146.69 57.80 C 146.26 54.71 142.53 53.79 140.35 52.12 C 140.88 45.56 140.56 38.97 140.75 32.40 C 139.40 32.44 138.04 32.49 136.69 32.53 C 136.56 31.03 136.37 29.54 135.99 28.08 C 136.55 27.45 137.10 26.83 137.66 26.21 C 136.14 25.43 134.40 24.75 133.73 23.03 C 134.91 22.63 136.08 22.24 137.25 21.84 C 136.68 21.38 135.53 20.46 134.96 19.99 C 135.45 19.70 136.42 19.12 136.91 18.83 C 136.48 18.04 136.05 17.24 135.62 16.45 C 132.43 16.78 127.93 12.63 125.96 16.70 C 125.13 16.18 124.30 15.66 123.48 15.14 M 74.65 43.78 C 77.83 43.99 81.17 44.50 84.25 43.43 C 81.12 43.29 77.52 42.13 74.65 43.78 Z" />
<path fill="#012269" opacity="1.00" d=" M 0.00 4.71 C 3.47 6.66 7.12 8.25 10.62 10.15 C 10.97 11.03 11.30 11.93 11.62 12.82 C 7.76 13.12 3.88 13.19 0.00 13.10 L 0.00 4.71 Z" />
</g>
<g id="#bf000aff">
<path fill="#bf000a" opacity="1.00" d=" M 78.83 0.00 L 85.13 0.00 L 85.10 0.02 C 76.15 4.41 67.25 8.93 58.33 13.37 C 55.98 14.64 53.24 14.22 50.69 14.30 C 59.93 9.27 69.52 4.90 78.83 0.00 Z" />
<path fill="#bf000a" opacity="1.00" d=" M 0.00 1.00 L 0.13 0.04 C 9.42 4.93 18.96 9.33 28.23 14.25 C 25.45 14.27 22.45 14.66 19.96 13.13 C 13.35 9.68 6.58 6.52 0.00 3.02 L 0.00 1.00 Z" />
<path fill="#bf000a" opacity="1.00" d=" M 27.79 28.78 C 29.90 28.09 32.18 28.43 34.36 28.47 C 25.07 33.17 15.70 37.72 6.42 42.46 C 4.28 42.50 2.14 42.53 0.00 42.64 L 0.00 42.21 C 9.54 38.37 18.42 33.00 27.79 28.78 Z" />
<path fill="#bf000a" opacity="1.00" d=" M 56.89 28.41 C 59.52 28.44 62.36 27.95 64.77 29.27 C 71.54 32.72 78.34 36.13 85.16 39.52 C 85.10 40.51 85.04 41.49 84.97 42.48 C 75.65 37.71 66.19 33.21 56.89 28.41 Z" />
<path fill="#bf000a" opacity="1.00" d=" M 139.94 52.65 C 141.22 53.40 142.47 54.21 143.69 55.07 C 143.18 55.87 142.14 57.46 141.63 58.26 C 140.30 58.38 139.12 57.51 137.88 57.17 C 138.55 55.66 139.25 54.15 139.94 52.65 Z" />
</g>
<g id="#111961ff">
<path fill="#111961" opacity="1.00" d=" M 66.61 14.33 C 70.87 11.38 75.79 9.60 80.33 7.16 C 80.28 7.56 80.16 8.38 80.11 8.78 C 77.82 10.30 75.27 11.38 72.91 12.80 C 76.86 13.02 80.81 12.94 84.75 13.21 L 84.89 14.25 C 78.80 14.25 72.70 14.28 66.61 14.33 Z" />
</g>
<g id="#121b62ff">
<path fill="#121b62" opacity="1.00" d=" M 11.62 12.82 C 11.30 11.93 10.97 11.03 10.62 10.15 C 13.27 11.42 16.04 12.52 18.38 14.34 C 12.25 14.27 6.13 14.25 0.00 14.27 L 0.00 13.10 C 3.88 13.19 7.76 13.12 11.62 12.82 Z" />
</g>
<g id="#fffefdff">
<path fill="#fffefd" opacity="1.00" d=" M 123.48 15.14 C 124.30 15.66 125.13 16.18 125.96 16.70 C 127.93 12.63 132.43 16.78 135.62 16.45 C 136.05 17.24 136.48 18.04 136.91 18.83 C 136.42 19.12 135.45 19.70 134.96 19.99 C 135.53 20.46 136.68 21.38 137.25 21.84 C 136.08 22.24 134.91 22.63 133.73 23.03 C 134.40 24.75 136.14 25.43 137.66 26.21 C 137.10 26.83 136.55 27.45 135.99 28.08 C 136.37 29.54 136.56 31.03 136.69 32.53 C 138.04 32.49 139.40 32.44 140.75 32.40 C 140.56 38.97 140.88 45.56 140.35 52.12 C 142.53 53.79 146.26 54.71 146.69 57.80 C 147.96 57.31 149.19 57.30 150.40 57.74 C 150.66 60.50 149.22 63.09 147.92 65.42 C 145.61 65.67 143.28 65.63 140.97 65.38 C 141.13 65.28 141.45 65.07 141.61 64.97 C 143.95 65.12 146.52 65.68 148.36 63.82 C 148.83 62.00 150.14 60.00 149.01 58.17 C 147.45 58.30 146.72 59.98 145.63 60.89 L 145.04 61.52 C 145.56 60.10 146.22 58.67 146.23 57.12 C 145.42 56.39 144.57 55.71 143.69 55.07 C 142.47 54.21 141.22 53.40 139.94 52.65 C 139.34 52.80 138.15 53.11 137.56 53.27 C 136.88 52.48 136.22 51.68 135.58 50.87 C 137.10 50.34 138.61 49.80 140.12 49.25 C 140.11 48.25 140.08 46.26 140.06 45.26 C 138.53 46.05 137.02 46.87 135.43 47.52 C 135.10 46.91 134.44 45.69 134.11 45.08 C 133.92 45.20 133.53 45.44 133.34 45.56 C 130.95 45.86 128.95 47.30 126.65 47.88 C 125.34 46.41 123.59 45.63 121.63 45.65 C 121.28 45.37 120.59 44.83 120.24 44.55 C 120.16 45.17 120.01 46.40 119.94 47.02 C 118.16 46.87 116.56 46.07 114.95 45.38 C 114.94 46.34 114.92 48.27 114.92 49.23 C 116.29 49.71 117.67 50.22 118.97 50.88 C 118.97 51.38 118.95 52.39 118.95 52.89 C 119.96 52.77 120.73 51.98 121.58 51.48 C 121.78 51.84 122.18 52.56 122.38 52.92 C 120.24 53.60 117.97 53.88 115.88 52.85 L 115.13 52.66 C 113.91 53.35 112.71 54.10 111.48 54.76 L 110.84 54.80 C 112.01 53.75 113.27 52.82 114.67 52.10 C 114.30 45.55 114.36 38.99 114.30 32.44 C 115.91 32.44 117.53 32.43 119.15 32.42 C 119.59 30.60 119.62 28.73 119.53 26.87 C 118.39 26.16 117.09 25.63 116.20 24.59 C 116.47 23.75 116.85 22.96 117.34 22.21 C 116.66 24.79 118.95 25.67 120.68 26.78 C 119.30 28.28 120.88 29.66 121.82 30.83 C 122.36 32.95 126.89 32.75 124.73 30.34 C 125.24 30.11 126.27 29.66 126.79 29.44 C 127.83 31.18 129.25 32.51 131.34 32.83 C 131.14 31.99 130.73 30.31 130.53 29.47 C 131.06 29.52 132.12 29.62 132.65 29.67 L 133.65 30.76 C 133.52 31.22 133.27 32.13 133.15 32.58 L 131.58 32.84 L 131.30 32.89 C 128.95 32.82 126.60 32.67 124.25 32.68 C 123.44 32.71 121.83 32.77 121.02 32.80 C 118.95 32.89 116.89 33.08 114.83 33.23 C 114.77 36.00 114.69 38.77 114.88 41.53 C 115.34 41.71 116.25 42.06 116.71 42.24 C 118.09 43.62 120.29 44.11 121.56 42.31 C 124.82 41.42 127.37 46.03 130.35 42.95 L 129.41 42.13 C 130.26 42.22 131.96 42.40 132.81 42.49 C 134.74 43.11 137.04 44.83 138.62 42.64 C 141.45 40.37 139.79 36.26 140.14 33.15 C 138.66 33.16 137.17 33.18 135.69 33.19 C 135.68 32.58 135.67 31.34 135.66 30.72 C 135.30 29.61 134.93 28.50 134.55 27.39 C 135.07 27.36 136.10 27.29 136.61 27.26 C 135.36 26.05 134.08 24.86 132.69 23.80 C 133.41 22.90 134.12 22.01 134.84 21.11 C 133.03 19.07 131.01 17.23 128.77 15.69 C 125.96 17.09 123.18 18.59 120.80 20.65 C 121.41 21.32 122.64 22.65 123.26 23.31 C 122.94 23.38 122.32 23.52 122.00 23.58 C 121.79 23.41 121.36 23.06 121.14 22.89 C 120.70 22.39 119.82 21.39 119.38 20.89 C 119.60 19.75 119.83 18.61 120.06 17.47 C 121.99 18.11 122.66 16.43 123.48 15.14 Z" />
<path fill="#fffefd" opacity="1.00" d=" M 123.50 50.29 C 123.66 50.19 123.98 50.01 124.13 49.91 C 126.19 50.81 128.41 50.85 130.53 50.12 C 130.88 50.18 131.58 50.31 131.93 50.37 L 131.80 51.17 C 131.65 51.40 131.35 51.87 131.20 52.10 C 130.16 53.23 128.39 53.40 127.14 52.54 C 127.04 52.87 126.82 53.54 126.71 53.87 C 125.60 53.71 124.50 53.53 123.39 53.34 C 123.42 52.57 123.47 51.05 123.50 50.29 Z" />
</g>
<g id="#d3af41ff">
<path fill="#d3af41" opacity="1.00" d=" M 120.80 20.65 C 123.18 18.59 125.96 17.09 128.77 15.69 C 131.01 17.23 133.03 19.07 134.84 21.11 C 134.12 22.01 133.41 22.90 132.69 23.80 C 129.64 22.88 126.36 22.14 123.26 23.31 C 122.64 22.65 121.41 21.32 120.80 20.65 Z" />
<path fill="#d3af41" opacity="1.00" d=" M 131.30 32.89 L 131.58 32.84 C 131.54 33.46 131.45 34.72 131.40 35.34 C 130.22 35.47 129.05 35.60 127.87 35.74 L 127.22 35.83 C 128.62 34.91 129.97 33.91 131.30 32.89 Z" />
<path fill="#d3af41" opacity="1.00" d=" M 129.43 37.98 C 130.75 38.41 132.04 38.93 133.36 39.39 C 131.14 38.77 130.17 40.37 129.41 42.13 C 128.79 42.02 127.55 41.80 126.93 41.69 C 127.92 40.99 128.38 39.85 128.65 38.72 L 129.43 37.98 Z" />
<path fill="#d3af41" opacity="1.00" d=" M 119.94 47.02 C 120.01 46.40 120.16 45.17 120.24 44.55 C 120.59 44.83 121.28 45.37 121.63 45.65 C 122.71 47.26 124.35 48.21 126.18 48.76 L 124.13 49.91 C 123.98 50.01 123.66 50.19 123.50 50.29 L 124.01 48.32 C 122.65 47.87 121.30 47.43 119.94 47.02 Z" />
<path fill="#d3af41" opacity="1.00" d=" M 131.20 52.10 C 131.35 51.87 131.65 51.40 131.80 51.17 C 131.88 51.64 132.04 52.60 132.11 53.07 C 131.09 54.12 129.39 53.71 128.16 54.38 C 129.70 55.03 131.30 55.57 132.88 56.13 C 132.20 56.23 130.85 56.43 130.17 56.53 C 130.09 57.59 130.03 58.66 130.00 59.72 L 131.22 60.41 C 130.64 60.58 129.48 60.93 128.89 61.10 C 128.65 60.67 128.17 59.79 127.92 59.35 L 129.32 59.47 C 129.05 57.70 129.69 55.53 127.93 54.35 C 125.27 54.42 125.62 57.35 126.04 59.15 L 127.18 59.28 C 126.93 59.74 126.45 60.66 126.20 61.12 C 125.58 60.93 124.32 60.54 123.70 60.34 L 124.99 59.82 C 124.97 58.71 124.94 57.59 124.89 56.48 C 124.18 56.40 122.78 56.24 122.08 56.17 C 123.64 55.44 125.90 55.66 126.71 53.87 C 126.82 53.54 127.04 52.87 127.14 52.54 C 128.39 53.40 130.16 53.23 131.20 52.10 Z" />
</g>
<g id="#003d28ff">
<path fill="#003d28" opacity="1.00" d=" M 117.34 22.21 C 118.78 22.86 120.28 24.28 122.00 23.58 C 122.32 23.52 122.94 23.38 123.26 23.31 C 126.36 22.14 129.64 22.88 132.69 23.80 C 134.08 24.86 135.36 26.05 136.61 27.26 C 136.10 27.29 135.07 27.36 134.55 27.39 C 130.84 27.43 126.75 28.93 123.58 26.23 C 122.61 26.40 121.64 26.59 120.68 26.78 C 118.95 25.67 116.66 24.79 117.34 22.21 Z" />
<path fill="#003d28" opacity="1.00" d=" M 116.95 35.72 C 118.10 36.27 118.79 37.17 119.04 38.43 C 117.39 38.15 116.69 37.25 116.95 35.72 Z" />
<path fill="#003d28" opacity="1.00" d=" M 131.93 50.37 C 132.28 48.99 133.29 48.05 134.67 47.80 C 135.44 47.90 136.98 48.11 137.76 48.21 L 137.55 48.76 C 137.06 49.28 136.07 50.34 135.58 50.87 C 136.22 51.68 136.88 52.48 137.56 53.27 C 137.24 53.39 136.60 53.64 136.29 53.77 C 135.65 52.57 133.93 50.81 132.76 52.47 L 132.11 53.07 C 132.04 52.60 131.88 51.64 131.80 51.17 L 131.93 50.37 Z" />
<path fill="#003d28" opacity="1.00" d=" M 144.23 57.20 C 145.61 57.98 144.18 61.87 142.39 61.09 C 141.92 59.63 143.36 58.22 144.23 57.20 Z" />
<path fill="#003d28" opacity="1.00" d=" M 113.08 59.87 C 113.36 60.45 113.93 61.61 114.21 62.19 C 115.59 62.81 116.77 63.76 117.64 65.00 C 117.05 64.66 115.89 63.97 115.30 63.62 C 113.81 62.94 113.02 61.49 113.08 59.87 Z" />
</g>
<g id="#047922ff">
<path fill="#047922" opacity="1.00" d=" M 120.68 26.78 C 121.64 26.59 122.61 26.40 123.58 26.23 C 126.75 28.93 130.84 27.43 134.55 27.39 C 134.93 28.50 135.30 29.61 135.66 30.72 C 135.15 30.73 134.15 30.75 133.65 30.76 L 132.65 29.67 C 130.74 29.19 128.74 29.31 126.79 29.44 C 126.27 29.66 125.24 30.11 124.73 30.34 C 124.00 30.46 122.55 30.70 121.82 30.83 C 120.88 29.66 119.30 28.28 120.68 26.78 Z" />
</g>
<g id="#060d57ff">
<path fill="#060d57" opacity="1.00" d=" M 68.44 29.39 C 73.91 28.38 79.47 28.92 84.99 28.99 L 85.00 30.13 C 81.28 30.13 77.56 30.21 73.86 30.48 C 77.78 32.59 82.15 33.96 85.57 36.90 L 84.29 37.07 C 78.82 34.92 73.69 32.02 68.44 29.39 Z" />
</g>
<g id="#02024cff">
<path fill="#02024c" opacity="1.00" d=" M 33.08 30.78 C 33.66 30.46 34.83 29.81 35.42 29.49 C 34.84 33.82 35.06 38.19 34.60 42.53 C 33.65 38.67 34.34 34.59 33.08 30.78 Z" />
</g>
<g id="#0c135dff">
<path fill="#0c135d" opacity="1.00" d=" M 49.56 29.48 C 57.93 33.88 66.56 37.79 74.84 42.36 C 74.33 42.46 73.32 42.66 72.81 42.75 C 65.43 39.63 58.48 35.57 51.19 32.23 C 51.36 35.90 51.28 39.58 50.93 43.23 C 49.53 43.10 48.14 42.95 46.74 42.79 L 46.73 42.53 C 47.49 42.49 48.99 42.39 49.75 42.34 C 49.58 38.06 49.63 33.77 49.56 29.48 Z" />
</g>
<g id="#040d44ff">
<path fill="#040d44" opacity="1.00" d=" M 121.82 30.83 C 122.55 30.70 124.00 30.46 124.73 30.34 C 126.89 32.75 122.36 32.95 121.82 30.83 Z" />
</g>
<g id="#c40e2aff">
<path fill="#c40e2a" opacity="1.00" d=" M 114.83 33.23 C 116.89 33.08 118.95 32.89 121.02 32.80 C 121.07 33.32 121.17 34.37 121.23 34.90 C 119.93 34.57 118.63 34.24 117.32 33.95 L 117.06 35.19 L 116.95 35.72 C 116.69 37.25 117.39 38.15 119.04 38.43 C 119.38 38.67 120.08 39.16 120.42 39.41 L 120.65 39.61 C 119.81 39.88 118.13 40.40 117.29 40.66 C 117.14 41.06 116.86 41.84 116.71 42.24 C 116.25 42.06 115.34 41.71 114.88 41.53 C 114.69 38.77 114.77 36.00 114.83 33.23 Z" />
</g>
<g id="#9d1627ff">
<path fill="#9d1627" opacity="1.00" d=" M 121.02 32.80 C 121.83 32.77 123.44 32.71 124.25 32.68 L 124.22 32.99 C 122.99 34.64 121.67 36.23 120.15 37.62 C 120.09 36.11 118.62 34.65 117.06 35.19 L 117.32 33.95 C 118.63 34.24 119.93 34.57 121.23 34.90 C 121.17 34.37 121.07 33.32 121.02 32.80 Z" />
</g>
<g id="#b62032ff">
<path fill="#b62032" opacity="1.00" d=" M 124.25 32.68 C 126.60 32.67 128.95 32.82 131.30 32.89 C 129.97 33.91 128.62 34.91 127.22 35.83 L 127.87 35.74 L 128.09 37.51 C 127.54 37.55 126.42 37.64 125.86 37.69 C 125.93 35.93 125.10 34.43 124.22 32.99 L 124.25 32.68 Z" />
</g>
<g id="#8b3324ff">
<path fill="#8b3324" opacity="1.00" d=" M 131.58 32.84 L 133.15 32.58 C 133.38 33.21 133.83 34.48 134.06 35.11 C 134.11 36.96 136.74 38.46 137.46 36.12 C 137.75 36.34 138.33 36.77 138.62 36.99 C 137.78 37.63 136.95 38.28 136.12 38.93 C 133.55 37.99 130.87 37.09 128.09 37.51 L 127.87 35.74 C 129.05 35.60 130.22 35.47 131.40 35.34 C 131.45 34.72 131.54 33.46 131.58 32.84 Z" />
</g>
<g id="#db0026ff">
<path fill="#db0026" opacity="1.00" d=" M 133.15 32.58 C 133.79 32.73 135.06 33.04 135.69 33.19 C 137.17 33.18 138.66 33.16 140.14 33.15 C 139.79 36.26 141.45 40.37 138.62 42.64 C 137.04 44.83 134.74 43.11 132.81 42.49 C 134.17 42.58 136.39 44.06 136.75 41.95 L 136.81 41.17 C 136.64 40.61 136.29 39.49 136.12 38.93 C 136.95 38.28 137.78 37.63 138.62 36.99 C 138.33 36.77 137.75 36.34 137.46 36.12 C 136.49 35.31 135.36 34.97 134.06 35.11 C 133.83 34.48 133.38 33.21 133.15 32.58 Z" />
</g>
<g id="#a28e35ff">
<path fill="#a28e35" opacity="1.00" d=" M 120.15 37.62 C 121.67 36.23 122.99 34.64 124.22 32.99 C 125.10 34.43 125.93 35.93 125.86 37.69 C 125.91 38.26 125.95 38.83 126.00 39.40 C 125.39 39.77 124.78 40.14 124.18 40.52 C 123.10 41.10 122.02 41.67 120.92 42.22 C 119.56 42.09 118.40 41.38 117.29 40.66 C 118.13 40.40 119.81 39.88 120.65 39.61 L 120.71 39.59 C 120.64 39.55 120.50 39.46 120.42 39.41 C 120.08 39.16 119.38 38.67 119.04 38.43 C 119.31 38.23 119.87 37.82 120.15 37.62 M 123.06 36.39 C 121.59 39.48 126.38 36.30 123.06 36.39 Z" />
</g>
<g id="#cfc848ff">
<path fill="#cfc848" opacity="1.00" d=" M 117.06 35.19 C 118.62 34.65 120.09 36.11 120.15 37.62 C 119.87 37.82 119.31 38.23 119.04 38.43 C 118.79 37.17 118.10 36.27 116.95 35.72 L 117.06 35.19 Z" />
</g>
<g id="#fee97fff">
<path fill="#fee97f" opacity="1.00" d=" M 134.06 35.11 C 135.36 34.97 136.49 35.31 137.46 36.12 C 136.74 38.46 134.11 36.96 134.06 35.11 Z" />
<path fill="#fee97f" opacity="1.00" d=" M 125.86 37.69 C 126.42 37.64 127.54 37.55 128.09 37.51 C 130.87 37.09 133.55 37.99 136.12 38.93 C 136.29 39.49 136.64 40.61 136.81 41.17 C 136.42 41.11 135.64 40.99 135.25 40.94 L 134.87 39.89 C 134.49 39.76 133.73 39.51 133.36 39.39 C 132.04 38.93 130.75 38.41 129.43 37.98 L 128.65 38.72 C 127.99 38.89 126.66 39.23 126.00 39.40 C 125.95 38.83 125.91 38.26 125.86 37.69 Z" />
<path fill="#fee97f" opacity="1.00" d=" M 143.69 55.07 C 144.57 55.71 145.42 56.39 146.23 57.12 C 146.22 58.67 145.56 60.10 145.04 61.52 C 143.93 62.70 142.77 63.84 141.61 64.97 C 141.45 65.07 141.13 65.28 140.97 65.38 C 140.33 65.77 139.05 66.55 138.41 66.95 C 137.20 64.12 138.14 61.03 137.27 58.14 C 137.42 57.90 137.73 57.42 137.88 57.17 C 139.12 57.51 140.30 58.38 141.63 58.26 C 142.14 57.46 143.18 55.87 143.69 55.07 M 144.23 57.20 C 143.36 58.22 141.92 59.63 142.39 61.09 C 144.18 61.87 145.61 57.98 144.23 57.20 M 140.27 62.04 C 138.86 62.77 138.75 63.46 139.95 64.09 C 141.38 63.34 141.49 62.66 140.27 62.04 Z" />
</g>
<g id="#3b494aff">
<path fill="#3b494a" opacity="1.00" d=" M 123.06 36.39 C 126.38 36.30 121.59 39.48 123.06 36.39 Z" />
</g>
<g id="#420910ff">
<path fill="#420910" opacity="1.00" d=" M 120.42 39.41 C 120.50 39.46 120.64 39.55 120.71 39.59 L 120.65 39.61 L 120.42 39.41 Z" />
</g>
<g id="#8a2a2aff">
<path fill="#8a2a2a" opacity="1.00" d=" M 126.00 39.40 C 126.66 39.23 127.99 38.89 128.65 38.72 C 128.38 39.85 127.92 40.99 126.93 41.69 C 125.94 41.49 125.02 41.10 124.18 40.52 C 124.78 40.14 125.39 39.77 126.00 39.40 Z" />
</g>
<g id="#8f2f2dff">
<path fill="#8f2f2d" opacity="1.00" d=" M 116.71 42.24 C 116.86 41.84 117.14 41.06 117.29 40.66 C 118.40 41.38 119.56 42.09 120.92 42.22 L 121.56 42.31 C 120.29 44.11 118.09 43.62 116.71 42.24 Z" />
</g>
<g id="#a50318ff">
<path fill="#a50318" opacity="1.00" d=" M 129.41 42.13 C 130.17 40.37 131.14 38.77 133.36 39.39 C 133.73 39.51 134.49 39.76 134.87 39.89 L 135.25 40.94 C 135.62 41.19 136.37 41.70 136.75 41.95 C 136.39 44.06 134.17 42.58 132.81 42.49 C 131.96 42.40 130.26 42.22 129.41 42.13 Z" />
</g>
<g id="#b80a18ff">
<path fill="#b80a18" opacity="1.00" d=" M 120.92 42.22 C 122.02 41.67 123.10 41.10 124.18 40.52 C 125.02 41.10 125.94 41.49 126.93 41.69 C 127.55 41.80 128.79 42.02 129.41 42.13 L 130.35 42.95 C 127.37 46.03 124.82 41.42 121.56 42.31 L 120.92 42.22 Z" />
</g>
<g id="#6b7441ff">
<path fill="#6b7441" opacity="1.00" d=" M 135.25 40.94 C 135.64 40.99 136.42 41.11 136.81 41.17 L 136.75 41.95 C 136.37 41.70 135.62 41.19 135.25 40.94 Z" />
</g>
<g id="#01004eff">
<path fill="#01004e" opacity="1.00" d=" M 74.65 43.78 C 77.52 42.13 81.12 43.29 84.25 43.43 C 81.17 44.50 77.83 43.99 74.65 43.78 Z" />
</g>
<g id="#012a9aff">
<path fill="#012a9a" opacity="1.00" d=" M 121.63 45.65 C 123.59 45.63 125.34 46.41 126.65 47.88 C 128.95 47.30 130.95 45.86 133.34 45.56 C 133.04 46.01 132.44 46.89 132.14 47.33 C 131.32 47.50 129.67 47.84 128.85 48.00 C 129.27 48.53 130.11 49.59 130.53 50.12 C 128.41 50.85 126.19 50.81 124.13 49.91 L 126.18 48.76 C 124.35 48.21 122.71 47.26 121.63 45.65 Z" />
</g>
<g id="#648036ff">
<path fill="#648036" opacity="1.00" d=" M 133.34 45.56 C 133.53 45.44 133.92 45.20 134.11 45.08 C 134.44 45.69 135.10 46.91 135.43 47.52 L 134.67 47.80 C 133.29 48.05 132.28 48.99 131.93 50.37 C 131.58 50.31 130.88 50.18 130.53 50.12 C 130.11 49.59 129.27 48.53 128.85 48.00 C 129.67 47.84 131.32 47.50 132.14 47.33 C 132.44 46.89 133.04 46.01 133.34 45.56 Z" />
</g>
<g id="#004098ff">
<path fill="#004098" opacity="1.00" d=" M 114.95 45.38 C 116.56 46.07 118.16 46.87 119.94 47.02 C 119.44 47.38 118.44 48.10 117.95 48.46 C 117.78 48.47 117.46 48.49 117.30 48.50 L 117.52 48.77 C 117.88 49.29 118.61 50.35 118.97 50.88 C 117.67 50.22 116.29 49.71 114.92 49.23 C 114.92 48.27 114.94 46.34 114.95 45.38 Z" />
<path fill="#004098" opacity="1.00" d=" M 135.43 47.52 C 137.02 46.87 138.53 46.05 140.06 45.26 C 140.08 46.26 140.11 48.25 140.12 49.25 C 138.61 49.80 137.10 50.34 135.58 50.87 C 136.07 50.34 137.06 49.28 137.55 48.76 L 138.07 48.69 L 138.19 48.27 L 137.76 48.21 C 136.98 48.11 135.44 47.90 134.67 47.80 L 135.43 47.52 Z" />
<path fill="#004098" opacity="1.00" d=" M 120.75 59.98 C 121.49 60.07 122.96 60.25 123.70 60.34 C 124.32 60.54 125.58 60.93 126.20 61.12 C 126.88 61.12 128.22 61.11 128.89 61.10 C 129.48 60.93 130.64 60.58 131.22 60.41 C 132.01 60.30 133.57 60.09 134.35 59.98 C 133.54 61.68 132.08 62.90 130.41 63.70 C 126.99 66.18 122.45 63.14 120.75 59.98 Z" />
</g>
<g id="#1e4b11ff">
<path fill="#1e4b11" opacity="1.00" d=" M 119.94 47.02 C 121.30 47.43 122.65 47.87 124.01 48.32 L 123.50 50.29 C 123.47 51.05 123.42 52.57 123.39 53.34 L 122.38 52.92 C 122.18 52.56 121.78 51.84 121.58 51.48 C 120.73 51.98 119.96 52.77 118.95 52.89 C 118.95 52.39 118.97 51.38 118.97 50.88 C 118.61 50.35 117.88 49.29 117.52 48.77 L 117.95 48.46 C 118.44 48.10 119.44 47.38 119.94 47.02 Z" />
</g>
<g id="#b3ac2aff">
<path fill="#b3ac2a" opacity="1.00" d=" M 117.30 48.50 C 117.46 48.49 117.78 48.47 117.95 48.46 L 117.52 48.77 L 117.30 48.50 Z" />
</g>
<g id="#a8a323ff">
<path fill="#a8a323" opacity="1.00" d=" M 137.76 48.21 L 138.19 48.27 L 138.07 48.69 L 137.55 48.76 L 137.76 48.21 Z" />
</g>
<g id="#b0c3d3ff">
<path fill="#b0c3d3" opacity="1.00" d=" M 132.76 52.47 C 133.93 50.81 135.65 52.57 136.29 53.77 L 135.86 53.94 C 135.08 53.57 133.53 52.83 132.76 52.47 Z" />
</g>
<g id="#c70f20ff">
<path fill="#c70f20" opacity="1.00" d=" M 111.48 54.76 C 112.71 54.10 113.91 53.35 115.13 52.66 C 115.54 53.73 115.96 54.80 116.38 55.87 L 116.04 57.14 C 114.94 57.11 113.97 57.44 113.12 58.11 C 112.58 56.99 112.03 55.88 111.48 54.76 Z" />
</g>
<g id="#0a409aff">
<path fill="#0a409a" opacity="1.00" d=" M 115.13 52.66 L 115.88 52.85 C 117.97 53.88 120.24 53.60 122.38 52.92 L 123.39 53.34 C 124.50 53.53 125.60 53.71 126.71 53.87 C 125.90 55.66 123.64 55.44 122.08 56.17 C 120.65 56.65 119.24 57.16 117.83 57.67 C 117.46 57.22 116.74 56.32 116.38 55.87 C 115.96 54.80 115.54 53.73 115.13 52.66 Z" />
</g>
<g id="#09429eff">
<path fill="#09429e" opacity="1.00" d=" M 132.11 53.07 L 132.76 52.47 C 133.53 52.83 135.08 53.57 135.86 53.94 L 136.29 53.77 C 136.60 53.64 137.24 53.39 137.56 53.27 C 138.15 53.11 139.34 52.80 139.94 52.65 C 139.25 54.15 138.55 55.66 137.88 57.17 C 136.16 57.11 134.49 56.72 132.88 56.13 C 131.30 55.57 129.70 55.03 128.16 54.38 C 129.39 53.71 131.09 54.12 132.11 53.07 Z" />
</g>
<g id="#6e83aaff">
<path fill="#6e83aa" opacity="1.00" d=" M 107.73 56.78 C 108.48 56.14 109.23 55.50 109.98 54.85 C 108.72 56.92 109.26 59.33 109.30 61.61 C 108.38 60.24 107.38 58.86 105.93 58.02 C 105.64 58.60 105.06 59.74 104.78 60.32 C 102.96 57.99 105.67 56.72 107.73 56.78 Z" />
</g>
<g id="#fff28aff">
<path fill="#fff28a" opacity="1.00" d=" M 109.98 54.85 L 110.84 54.80 L 111.48 54.76 C 112.03 55.88 112.58 56.99 113.12 58.11 C 113.56 58.42 114.42 59.04 114.86 59.35 C 115.15 58.80 115.74 57.69 116.04 57.14 L 116.38 55.87 C 116.74 56.32 117.46 57.22 117.83 57.67 C 118.14 58.03 118.76 58.76 119.07 59.13 C 118.26 59.72 117.46 60.33 116.67 60.94 C 117.10 61.42 117.57 61.86 118.07 62.26 C 120.14 63.70 122.49 64.68 124.93 65.28 C 126.65 65.54 128.42 65.46 130.12 65.10 C 130.79 64.97 132.12 64.70 132.78 64.57 C 133.56 64.57 135.12 64.56 135.90 64.56 C 135.01 65.19 134.19 65.90 133.43 66.68 C 134.23 66.84 135.83 67.17 136.63 67.33 C 133.05 70.08 128.28 69.72 124.03 69.85 C 123.59 69.76 122.71 69.58 122.27 69.50 C 118.48 68.06 115.24 64.65 110.91 65.19 C 109.28 65.37 107.71 64.91 106.56 63.73 C 108.12 63.53 109.03 62.82 109.30 61.61 C 109.26 59.33 108.72 56.92 109.98 54.85 M 110.34 57.32 C 109.54 58.25 110.73 60.25 111.93 59.56 C 112.88 58.63 111.54 56.56 110.34 57.32 M 113.08 59.87 C 113.02 61.49 113.81 62.94 115.30 63.62 C 115.89 63.97 117.05 64.66 117.64 65.00 C 116.77 63.76 115.59 62.81 114.21 62.19 C 113.93 61.61 113.36 60.45 113.08 59.87 M 118.41 65.16 C 118.17 66.51 120.48 67.65 121.55 66.85 C 122.03 65.36 119.49 64.46 118.41 65.16 M 122.28 66.51 C 122.33 69.79 129.45 70.62 128.27 66.80 C 126.28 66.54 124.28 66.53 122.28 66.51 M 129.36 67.18 C 129.66 70.53 132.26 65.53 129.36 67.18 Z" />
</g>
<g id="#01340aff">
<path fill="#01340a" opacity="1.00" d=" M 126.04 59.15 C 125.62 57.35 125.27 54.42 127.93 54.35 C 129.69 55.53 129.05 57.70 129.32 59.47 L 127.92 59.35 L 127.18 59.28 L 126.04 59.15 Z" />
</g>
<g id="#8ba562ff">
<path fill="#8ba562" opacity="1.00" d=" M 110.34 57.32 C 111.54 56.56 112.88 58.63 111.93 59.56 C 110.73 60.25 109.54 58.25 110.34 57.32 Z" />
</g>
<g id="#9e6c5eff">
<path fill="#9e6c5e" opacity="1.00" d=" M 113.12 58.11 C 113.97 57.44 114.94 57.11 116.04 57.14 C 115.74 57.69 115.15 58.80 114.86 59.35 C 114.42 59.04 113.56 58.42 113.12 58.11 Z" />
</g>
<g id="#cc8d93ff">
<path fill="#cc8d93" opacity="1.00" d=" M 104.78 60.32 C 105.06 59.74 105.64 58.60 105.93 58.02 C 105.95 58.69 105.98 60.03 106.00 60.69 L 105.41 61.01 L 104.78 60.32 Z" />
</g>
<g id="#be181dff">
<path fill="#be181d" opacity="1.00" d=" M 105.93 58.02 C 107.38 58.86 108.38 60.24 109.30 61.61 C 109.03 62.82 108.12 63.53 106.56 63.73 C 106.42 62.97 106.14 61.45 106.00 60.69 C 105.98 60.03 105.95 58.69 105.93 58.02 Z" />
</g>
<g id="#bc1e20ff">
<path fill="#bc1e20" opacity="1.00" d=" M 145.63 60.89 C 146.72 59.98 147.45 58.30 149.01 58.17 C 150.14 60.00 148.83 62.00 148.36 63.82 C 146.95 63.27 146.04 62.29 145.63 60.89 Z" />
</g>
<g id="#f5ed82ff">
<path fill="#f5ed82" opacity="1.00" d=" M 145.04 61.52 L 145.63 60.89 C 146.04 62.29 146.95 63.27 148.36 63.82 C 146.52 65.68 143.95 65.12 141.61 64.97 C 142.77 63.84 143.93 62.70 145.04 61.52 Z" />
</g>
<g id="#77975fff">
<path fill="#77975f" opacity="1.00" d=" M 140.27 62.04 C 141.49 62.66 141.38 63.34 139.95 64.09 C 138.75 63.46 138.86 62.77 140.27 62.04 Z" />
</g>
<g id="#8ea562ff">
<path fill="#8ea562" opacity="1.00" d=" M 118.41 65.16 C 119.49 64.46 122.03 65.36 121.55 66.85 C 120.48 67.65 118.17 66.51 118.41 65.16 Z" />
</g>
<g id="#88a25fff">
<path fill="#88a25f" opacity="1.00" d=" M 135.90 64.56 L 136.71 64.56 C 137.02 65.50 137.00 66.42 136.63 67.33 C 135.83 67.17 134.23 66.84 133.43 66.68 C 134.19 65.90 135.01 65.19 135.90 64.56 Z" />
</g>
<g id="#94a85fff">
<path fill="#94a85f" opacity="1.00" d=" M 122.28 66.51 C 124.28 66.53 126.28 66.54 128.27 66.80 C 129.45 70.62 122.33 69.79 122.28 66.51 Z" />
</g>
<g id="#9bae6bff">
<path fill="#9bae6b" opacity="1.00" d=" M 129.36 67.18 C 132.26 65.53 129.66 70.53 129.36 67.18 Z" />
</g>
</svg>
