<?xml version="1.0" encoding="UTF-8" ?>
<!DOCTYPE svg PUBLIC "-//W3C//DTD SVG 1.1//EN" "http://www.w3.org/Graphics/SVG/1.1/DTD/svg11.dtd">
<svg width="149pt" height="85pt" viewBox="0 0 149 85" version="1.1" xmlns="http://www.w3.org/2000/svg">
<g id="#006847ff">
<path fill="#006847" opacity="1.00" d=" M 0.00 0.00 L 49.79 0.00 C 49.79 28.33 49.79 56.67 49.79 85.00 L 0.00 85.00 L 0.00 0.00 Z" />
<path fill="#006847" opacity="1.00" d=" M 58.07 47.34 C 57.85 44.64 55.34 41.55 58.31 39.55 C 58.31 41.73 58.26 43.92 58.22 46.11 C 60.48 46.22 60.31 48.47 60.95 49.99 C 61.87 50.78 62.96 51.34 63.98 51.98 C 64.60 53.02 65.18 54.09 65.92 55.05 C 68.15 55.42 70.49 55.43 72.53 56.55 C 68.85 57.40 65.77 55.43 62.66 53.85 C 62.60 53.38 62.48 52.44 62.42 51.96 C 61.07 50.72 59.73 49.47 58.37 48.24 L 58.67 47.33 L 58.07 47.34 Z" />
<path fill="#006847" opacity="1.00" d=" M 90.28 44.99 C 90.58 43.19 90.56 41.23 91.99 39.89 C 92.16 40.51 92.51 41.77 92.69 42.39 C 91.20 43.95 89.92 45.74 90.97 47.92 C 89.43 49.67 87.91 51.45 86.95 53.59 C 85.76 53.59 84.57 53.59 83.38 53.58 C 84.83 52.13 86.46 50.86 88.31 49.97 C 88.08 47.98 89.21 46.49 90.28 44.99 Z" />
<path fill="#006847" opacity="1.00" d=" M 75.20 47.68 C 77.39 47.66 79.54 48.08 81.68 48.51 C 83.39 46.51 84.53 47.72 84.83 49.65 C 82.63 50.47 80.32 50.32 78.06 49.86 L 77.55 50.34 C 77.15 50.70 76.35 51.43 75.95 51.79 C 75.69 51.77 75.18 51.72 74.92 51.69 C 74.99 50.69 75.13 48.68 75.20 47.68 Z" />
<path fill="#006847" opacity="1.00" d=" M 65.30 51.03 C 66.83 50.73 68.37 50.47 69.92 50.26 C 70.05 50.54 70.33 51.10 70.46 51.38 C 70.70 51.88 71.18 52.88 71.41 53.38 C 70.90 53.46 69.87 53.61 69.35 53.68 C 69.46 53.18 69.67 52.20 69.77 51.70 C 68.65 51.53 66.42 51.20 65.30 51.03 Z" />
<path fill="#006847" opacity="1.00" d=" M 77.64 52.36 C 79.87 50.58 80.20 55.00 77.74 53.67 C 77.72 53.34 77.66 52.69 77.64 52.36 Z" />
<path fill="#006847" opacity="1.00" d=" M 79.23 55.02 C 80.78 53.59 82.87 56.23 80.83 57.17 C 79.23 58.50 77.12 56.01 79.23 55.02 Z" />
</g>
<g id="#ffffffff">
<path fill="#ffffff" opacity="1.00" d=" M 49.79 0.00 L 99.41 0.00 C 99.41 28.33 99.41 56.67 99.41 85.00 L 49.79 85.00 C 49.79 56.67 49.79 28.33 49.79 0.00 M 72.56 26.35 C 73.55 27.65 74.75 28.75 76.00 29.80 C 73.66 28.71 71.13 28.26 68.56 28.51 C 68.55 29.33 68.53 30.96 68.53 31.77 C 67.74 31.77 66.17 31.76 65.39 31.76 C 65.35 30.97 65.27 29.39 65.23 28.60 C 64.95 29.88 64.71 31.16 64.48 32.45 C 65.45 32.45 67.40 32.46 68.37 32.47 C 67.48 34.25 66.52 35.99 65.53 37.72 C 64.15 36.74 62.77 35.77 61.37 34.82 C 62.37 36.47 63.22 38.20 63.70 40.08 C 63.84 39.64 64.13 38.74 64.27 38.29 C 65.95 39.04 67.49 40.07 69.17 40.82 C 67.90 41.65 66.66 42.51 65.46 43.42 C 66.95 43.19 68.45 42.94 69.94 42.67 C 71.44 43.75 73.25 43.86 75.04 43.86 C 75.86 44.76 76.69 45.66 77.52 46.55 C 73.87 46.51 70.19 46.84 66.56 46.32 C 65.49 45.60 64.76 44.51 63.91 43.58 C 63.49 43.52 62.65 43.41 62.23 43.35 C 62.39 44.30 62.56 45.25 62.72 46.20 C 63.31 46.35 64.47 46.63 65.05 46.77 C 67.78 48.17 71.15 49.57 74.09 49.19 C 74.37 48.81 74.92 48.06 75.20 47.68 C 75.13 48.68 74.99 50.69 74.92 51.69 C 73.44 51.53 71.95 51.43 70.46 51.38 C 70.33 51.10 70.05 50.54 69.92 50.26 C 68.37 50.47 66.83 50.73 65.30 51.03 C 66.42 51.20 68.65 51.53 69.77 51.70 C 69.67 52.20 69.46 53.18 69.35 53.68 C 69.87 53.61 70.90 53.46 71.41 53.38 L 71.93 54.48 C 73.90 54.52 75.87 54.55 77.84 54.55 L 77.74 53.67 C 80.20 55.00 79.87 50.58 77.64 52.36 L 77.55 50.34 L 78.06 49.86 C 80.32 50.32 82.63 50.47 84.83 49.65 C 84.53 47.72 83.39 46.51 81.68 48.51 C 80.86 47.51 79.99 46.55 79.12 45.59 C 81.42 46.18 83.76 45.88 86.01 45.32 C 83.04 42.88 79.24 41.06 77.85 37.20 C 78.84 37.58 80.81 38.36 81.80 38.74 L 81.41 39.79 C 81.83 39.65 82.65 39.36 83.07 39.22 C 83.66 40.14 84.26 41.06 84.87 41.98 C 85.78 42.30 86.70 42.62 87.61 42.94 C 87.87 40.44 88.69 37.81 87.81 35.34 C 86.30 31.55 83.52 28.00 79.66 26.43 C 77.32 26.03 74.92 26.26 72.56 26.35 M 58.07 47.34 L 58.67 47.33 L 58.37 48.24 C 59.73 49.47 61.07 50.72 62.42 51.96 C 62.48 52.44 62.60 53.38 62.66 53.85 C 65.77 55.43 68.85 57.40 72.53 56.55 C 70.49 55.43 68.15 55.42 65.92 55.05 C 65.18 54.09 64.60 53.02 63.98 51.98 C 62.96 51.34 61.87 50.78 60.95 49.99 C 60.31 48.47 60.48 46.22 58.22 46.11 C 58.26 43.92 58.31 41.73 58.31 39.55 C 55.34 41.55 57.85 44.64 58.07 47.34 M 90.28 44.99 C 89.21 46.49 88.08 47.98 88.31 49.97 C 86.46 50.86 84.83 52.13 83.38 53.58 C 84.57 53.59 85.76 53.59 86.95 53.59 C 87.91 51.45 89.43 49.67 90.97 47.92 C 89.92 45.74 91.20 43.95 92.69 42.39 C 92.51 41.77 92.16 40.51 91.99 39.89 C 90.56 41.23 90.58 43.19 90.28 44.99 M 68.30 44.22 C 68.83 44.80 68.83 44.80 68.30 44.22 M 79.23 55.02 C 77.12 56.01 79.23 58.50 80.83 57.17 C 82.87 56.23 80.78 53.59 79.23 55.02 M 74.43 56.69 C 73.56 57.87 75.52 59.30 76.38 58.11 C 77.23 56.95 75.28 55.51 74.43 56.69 Z" />
<path fill="#ffffff" opacity="1.00" d=" M 66.21 38.99 C 66.73 35.98 68.98 33.71 70.08 30.92 C 72.65 32.77 69.68 36.03 69.93 38.53 C 70.71 38.51 72.27 38.47 73.04 38.45 C 72.55 38.54 71.56 38.74 71.07 38.83 C 71.26 39.89 71.65 42.00 71.84 43.06 C 70.97 41.86 70.13 40.63 69.29 39.40 C 68.52 39.30 66.98 39.09 66.21 38.99 Z" />
</g>
<g id="#ce1126ff">
<path fill="#ce1126" opacity="1.00" d=" M 99.41 0.00 L 149.00 0.00 L 149.00 85.00 L 99.41 85.00 C 99.41 56.67 99.41 28.33 99.41 0.00 Z" />
<path fill="#ce1126" opacity="1.00" d=" M 72.56 26.35 C 74.92 26.26 77.32 26.03 79.66 26.43 C 83.52 28.00 86.30 31.55 87.81 35.34 C 88.69 37.81 87.87 40.44 87.61 42.94 C 86.70 42.62 85.78 42.30 84.87 41.98 C 84.26 41.06 83.66 40.14 83.07 39.22 C 82.65 39.36 81.83 39.65 81.41 39.79 L 81.80 38.74 C 80.81 38.36 78.84 37.58 77.85 37.20 C 79.24 41.06 83.04 42.88 86.01 45.32 C 83.76 45.88 81.42 46.18 79.12 45.59 C 79.99 46.55 80.86 47.51 81.68 48.51 C 79.54 48.08 77.39 47.66 75.20 47.68 C 74.92 48.06 74.37 48.81 74.09 49.19 C 71.15 49.57 67.78 48.17 65.05 46.77 C 64.47 46.63 63.31 46.35 62.72 46.20 C 62.56 45.25 62.39 44.30 62.23 43.35 C 62.65 43.41 63.49 43.52 63.91 43.58 C 64.76 44.51 65.49 45.60 66.56 46.32 C 70.19 46.84 73.87 46.51 77.52 46.55 C 76.69 45.66 75.86 44.76 75.04 43.86 C 73.25 43.86 71.44 43.75 69.94 42.67 C 68.45 42.94 66.95 43.19 65.46 43.42 C 66.66 42.51 67.90 41.65 69.17 40.82 C 67.49 40.07 65.95 39.04 64.27 38.29 C 64.13 38.74 63.84 39.64 63.70 40.08 C 63.22 38.20 62.37 36.47 61.37 34.82 C 62.77 35.77 64.15 36.74 65.53 37.72 C 66.52 35.99 67.48 34.25 68.37 32.47 C 67.40 32.46 65.45 32.45 64.48 32.45 C 64.71 31.16 64.95 29.88 65.23 28.60 C 65.27 29.39 65.35 30.97 65.39 31.76 C 66.17 31.76 67.74 31.77 68.53 31.77 C 68.53 30.96 68.55 29.33 68.56 28.51 C 71.13 28.26 73.66 28.71 76.00 29.80 C 74.75 28.75 73.55 27.65 72.56 26.35 M 66.21 38.99 C 66.98 39.09 68.52 39.30 69.29 39.40 C 70.13 40.63 70.97 41.86 71.84 43.06 C 71.65 42.00 71.26 39.89 71.07 38.83 C 71.56 38.74 72.55 38.54 73.04 38.45 C 72.27 38.47 70.71 38.51 69.93 38.53 C 69.68 36.03 72.65 32.77 70.08 30.92 C 68.98 33.71 66.73 35.98 66.21 38.99 Z" />
<path fill="#ce1126" opacity="1.00" d=" M 68.30 44.22 C 68.83 44.80 68.83 44.80 68.30 44.22 Z" />
<path fill="#ce1126" opacity="1.00" d=" M 70.46 51.38 C 71.95 51.43 73.44 51.53 74.92 51.69 C 75.18 51.72 75.69 51.77 75.95 51.79 C 76.35 51.43 77.15 50.70 77.55 50.34 L 77.64 52.36 C 77.66 52.69 77.72 53.34 77.74 53.67 L 77.84 54.55 C 75.87 54.55 73.90 54.52 71.93 54.48 L 71.41 53.38 C 71.18 52.88 70.70 51.88 70.46 51.38 Z" />
<path fill="#ce1126" opacity="1.00" d=" M 74.43 56.69 C 75.28 55.51 77.23 56.95 76.38 58.11 C 75.52 59.30 73.56 57.87 74.43 56.69 Z" />
</g>
</svg>
