<?xml version="1.0" encoding="UTF-8" ?>
<!DOCTYPE svg PUBLIC "-//W3C//DTD SVG 1.1//EN" "http://www.w3.org/Graphics/SVG/1.1/DTD/svg11.dtd">
<svg width="117pt" height="85pt" viewBox="0 0 117 85" version="1.1" xmlns="http://www.w3.org/2000/svg">
<g id="#ef2b2dff">
<path fill="#ef2b2d" opacity="1.00" d=" M 0.00 0.00 L 31.83 0.00 C 31.83 10.60 31.83 21.20 31.83 31.80 C 21.22 31.81 10.61 31.80 0.00 31.81 L 0.00 0.00 Z" />
<path fill="#ef2b2d" opacity="1.00" d=" M 53.23 0.00 L 117.00 0.00 L 117.00 31.81 C 95.74 31.80 74.49 31.81 53.23 31.80 C 53.24 21.20 53.23 10.60 53.23 0.00 Z" />
<path fill="#ef2b2d" opacity="1.00" d=" M 0.00 53.19 C 10.61 53.20 21.22 53.19 31.83 53.20 C 31.83 63.80 31.83 74.40 31.83 85.00 L 0.00 85.00 L 0.00 53.19 Z" />
<path fill="#ef2b2d" opacity="1.00" d=" M 53.23 53.19 C 74.49 53.19 95.74 53.19 117.00 53.19 L 117.00 85.00 L 53.23 85.00 C 53.24 74.40 53.23 63.80 53.23 53.19 Z" />
</g>
<g id="#ffffffff">
<path fill="#ffffff" opacity="1.00" d=" M 31.83 0.00 L 37.27 0.00 C 37.26 12.41 37.29 24.82 37.25 37.23 C 24.84 37.25 12.42 37.23 0.00 37.24 L 0.00 31.81 C 10.61 31.80 21.22 31.81 31.83 31.80 C 31.83 21.20 31.83 10.60 31.83 0.00 Z" />
<path fill="#ffffff" opacity="1.00" d=" M 47.80 0.00 L 53.23 0.00 C 53.23 10.60 53.24 21.20 53.23 31.80 C 74.49 31.81 95.74 31.80 117.00 31.81 L 117.00 37.24 C 93.94 37.23 70.87 37.26 47.81 37.22 C 47.79 24.81 47.80 12.41 47.80 0.00 Z" />
<path fill="#ffffff" opacity="1.00" d=" M 0.00 47.76 C 12.42 47.77 24.84 47.75 37.26 47.77 C 37.28 60.18 37.26 72.59 37.27 85.00 L 31.83 85.00 C 31.83 74.40 31.83 63.80 31.83 53.20 C 21.22 53.19 10.61 53.20 0.00 53.19 L 0.00 47.76 Z" />
<path fill="#ffffff" opacity="1.00" d=" M 47.81 47.78 C 70.87 47.74 93.94 47.77 117.00 47.76 L 117.00 53.19 C 95.74 53.19 74.49 53.19 53.23 53.19 C 53.23 63.80 53.24 74.40 53.23 85.00 L 47.80 85.00 C 47.81 72.59 47.79 60.19 47.81 47.78 Z" />
</g>
<g id="#002868ff">
<path fill="#002868" opacity="1.00" d=" M 37.27 0.00 L 47.80 0.00 C 47.80 12.41 47.79 24.81 47.81 37.22 C 70.87 37.26 93.94 37.23 117.00 37.24 L 117.00 47.76 C 93.94 47.77 70.87 47.74 47.81 47.78 C 47.79 60.19 47.81 72.59 47.80 85.00 L 37.27 85.00 C 37.26 72.59 37.28 60.18 37.26 47.77 C 24.84 47.75 12.42 47.77 0.00 47.76 L 0.00 37.24 C 12.42 37.23 24.84 37.25 37.25 37.23 C 37.29 24.82 37.26 12.41 37.27 0.00 Z" />
</g>
</svg>
