<?xml version="1.0" encoding="UTF-8" ?>
<!DOCTYPE svg PUBLIC "-//W3C//DTD SVG 1.1//EN" "http://www.w3.org/Graphics/SVG/1.1/DTD/svg11.dtd">
<svg width="170pt" height="85pt" viewBox="0 0 170 85" version="1.1" xmlns="http://www.w3.org/2000/svg">
<g id="#f4edf4ff">
<path fill="#f4edf4" opacity="1.00" d=" M 0.00 0.00 L 9.53 0.00 C 18.20 4.20 26.73 8.70 35.42 12.84 C 35.39 8.56 35.36 4.28 35.37 0.00 L 38.25 0.00 C 38.28 5.61 38.34 11.23 38.33 16.84 C 25.57 17.33 12.76 17.29 0.00 16.87 L 0.00 14.08 C 6.01 14.09 12.02 14.28 18.03 14.12 C 12.22 10.61 5.93 8.03 0.00 4.75 L 0.00 2.97 C 6.35 6.45 12.95 9.45 19.41 12.72 C 21.84 14.13 24.72 14.17 27.45 14.23 C 18.64 8.88 9.13 4.80 0.01 0.01 L 0.00 1.17 L 0.00 0.00 Z" />
<path fill="#f4edf4" opacity="1.00" d=" M 46.54 0.00 L 49.61 0.00 C 49.62 4.27 49.59 8.54 49.58 12.81 C 58.05 8.52 66.66 4.52 75.01 0.00 L 79.06 0.00 C 69.75 4.67 60.27 9.09 51.18 14.19 C 53.52 14.10 55.99 14.30 58.18 13.32 C 67.28 9.06 76.07 4.14 85.25 0.06 C 85.03 1.73 84.85 3.40 84.65 5.07 C 78.55 7.94 72.51 10.96 66.54 14.10 C 72.72 14.19 78.89 14.05 85.07 14.20 C 85.06 14.96 85.05 16.48 85.05 17.25 C 72.27 16.93 59.48 17.43 46.70 16.94 C 46.58 11.29 46.81 5.64 46.54 0.00 Z" />
<path fill="#f4edf4" opacity="1.00" d=" M 126.25 14.63 C 126.60 13.14 126.97 11.65 127.36 10.17 C 127.90 11.67 128.43 13.17 128.96 14.68 C 130.62 14.77 132.28 14.86 133.94 14.97 C 132.78 15.69 131.61 16.39 130.42 17.06 C 130.57 18.78 130.76 20.50 130.95 22.22 C 129.83 21.40 128.72 20.59 127.60 19.78 C 126.38 20.58 125.24 21.48 124.04 22.31 C 124.10 21.53 124.23 19.96 124.29 19.17 C 125.98 19.32 127.68 19.42 129.38 19.54 C 129.51 18.38 129.64 17.22 129.78 16.06 C 128.95 15.46 128.14 14.85 127.33 14.23 C 126.56 14.96 125.76 15.63 124.91 16.26 C 125.22 16.78 125.83 17.84 126.14 18.36 C 125.93 18.41 125.50 18.49 125.29 18.54 C 123.89 17.35 122.53 16.12 121.17 14.90 C 122.86 14.80 124.56 14.73 126.25 14.63 Z" />
<path fill="#f4edf4" opacity="1.00" d=" M 46.64 25.53 C 59.45 25.34 72.25 25.65 85.06 25.40 C 85.06 26.14 85.06 27.62 85.07 28.36 C 78.96 28.45 72.86 28.31 66.76 28.39 C 72.71 31.87 79.14 34.42 85.13 37.82 C 84.86 39.42 84.62 41.02 84.36 42.62 C 80.28 42.42 75.85 43.22 72.19 40.96 C 64.72 37.02 57.07 33.43 49.62 29.46 C 49.61 33.82 49.62 38.18 49.61 42.54 C 48.87 42.53 47.38 42.50 46.63 42.49 C 46.68 36.84 46.68 31.18 46.64 25.53 M 57.05 28.58 C 66.15 32.76 74.83 37.80 84.03 41.76 C 83.98 40.71 83.92 39.66 83.85 38.61 C 76.63 35.80 70.05 31.58 62.94 28.54 C 60.99 28.20 59.01 28.49 57.05 28.58 Z" />
<path fill="#f4edf4" opacity="1.00" d=" M 0.00 25.52 C 12.77 25.47 25.55 25.46 38.32 25.48 C 38.34 31.15 38.25 36.82 38.36 42.50 C 37.63 42.51 36.15 42.53 35.42 42.54 C 35.36 38.24 35.35 33.95 35.44 29.66 C 25.88 33.98 16.96 39.81 6.96 43.08 L 7.90 41.56 C 16.68 37.18 25.56 32.95 34.16 28.21 C 31.09 28.26 27.91 28.37 25.18 29.93 C 17.61 33.71 10.00 37.42 2.50 41.34 C 1.66 41.76 0.82 42.19 0.00 42.65 L 0.00 37.78 C 6.04 34.53 12.32 31.74 18.35 28.46 C 12.24 28.24 6.12 28.43 0.00 28.39 L 0.00 25.52 Z" />
<path fill="#f4edf4" opacity="1.00" d=" M 142.97 29.37 C 143.47 28.20 143.92 27.01 144.37 25.83 C 144.85 27.11 145.33 28.40 145.81 29.69 C 147.15 29.66 148.50 29.63 149.85 29.61 C 148.70 30.72 147.54 31.81 146.41 32.94 C 146.96 33.95 147.50 34.97 148.04 36.00 C 145.79 34.38 143.19 34.09 141.07 36.10 C 141.29 34.81 141.70 33.53 141.64 32.21 C 140.84 31.29 139.88 30.55 138.97 29.75 C 140.31 29.73 141.65 29.60 142.97 29.37 M 142.55 33.82 C 144.71 33.83 146.30 32.85 147.11 30.82 C 146.37 30.45 144.89 29.71 144.15 29.34 C 141.68 29.71 142.58 32.13 142.55 33.82 Z" />
<path fill="#f4edf4" opacity="1.00" d=" M 107.79 30.08 C 108.24 31.36 108.63 32.67 109.17 33.92 C 110.58 34.87 112.38 34.45 113.97 34.71 C 112.82 35.77 111.41 36.64 110.65 38.04 C 110.79 39.42 111.36 40.70 111.77 42.01 C 110.55 41.25 109.35 40.44 108.08 39.77 C 106.60 40.33 105.26 41.18 103.90 41.96 C 104.35 40.60 104.83 39.24 105.31 37.89 C 104.13 36.84 102.93 35.81 101.75 34.77 C 103.25 34.64 104.74 34.53 106.24 34.43 C 106.76 32.98 107.27 31.53 107.79 30.08 M 105.10 35.42 C 105.33 36.25 105.79 37.90 106.02 38.72 C 107.27 38.74 108.53 38.75 109.79 38.77 C 110.06 37.96 110.60 36.35 110.87 35.55 C 108.99 34.40 106.97 34.11 105.10 35.42 Z" />
<path fill="#f4edf4" opacity="1.00" d=" M 125.82 65.40 C 126.40 63.81 126.99 62.24 127.61 60.67 C 128.08 62.24 128.53 63.82 128.98 65.41 C 130.73 65.52 132.49 65.60 134.24 65.67 C 133.05 66.76 131.80 67.79 130.72 69.00 C 130.57 70.73 131.42 72.31 131.80 73.95 C 130.32 73.00 128.90 71.92 127.28 71.21 C 125.88 72.01 124.60 73.00 123.28 73.92 C 123.65 72.31 124.46 70.74 124.34 69.05 C 123.25 67.78 121.94 66.75 120.69 65.64 C 122.40 65.57 124.11 65.50 125.82 65.40 M 126.94 63.97 C 126.84 64.64 126.64 65.98 126.54 66.65 C 125.85 66.60 124.47 66.49 123.78 66.43 C 125.19 67.60 125.71 69.05 125.36 70.76 C 126.35 70.71 128.33 70.59 129.32 70.54 C 129.71 69.32 130.12 68.10 130.55 66.90 C 128.81 66.68 127.92 65.21 126.94 63.97 Z" />
</g>
<g id="#01237dff">
<path fill="#01237d" opacity="1.00" d=" M 9.53 0.00 L 35.37 0.00 C 35.36 4.28 35.39 8.56 35.42 12.84 C 26.73 8.70 18.20 4.20 9.53 0.00 Z" />
<path fill="#01237d" opacity="1.00" d=" M 49.61 0.00 L 75.01 0.00 C 66.66 4.52 58.05 8.52 49.58 12.81 C 49.59 8.54 49.62 4.27 49.61 0.00 Z" />
<path fill="#01237d" opacity="1.00" d=" M 85.38 0.00 L 170.00 0.00 L 170.00 85.00 L 0.00 85.00 L 0.00 42.65 C 0.82 42.19 1.66 41.76 2.50 41.34 C 3.74 41.66 4.98 42.01 6.20 42.37 C 6.63 42.17 7.47 41.77 7.90 41.56 L 6.96 43.08 C 16.96 39.81 25.88 33.98 35.44 29.66 C 35.35 33.95 35.36 38.24 35.42 42.54 C 36.15 42.53 37.63 42.51 38.36 42.50 C 41.12 42.47 43.87 42.46 46.63 42.49 C 47.38 42.50 48.87 42.53 49.61 42.54 C 49.62 38.18 49.61 33.82 49.62 29.46 C 57.07 33.43 64.72 37.02 72.19 40.96 C 75.85 43.22 80.28 42.42 84.36 42.62 C 84.62 41.02 84.86 39.42 85.13 37.82 C 79.14 34.42 72.71 31.87 66.76 28.39 C 72.86 28.31 78.96 28.45 85.07 28.36 C 85.06 27.62 85.06 26.14 85.06 25.40 C 85.06 22.68 85.04 19.96 85.05 17.25 C 85.05 16.48 85.06 14.96 85.07 14.20 C 78.89 14.05 72.72 14.19 66.54 14.10 C 72.51 10.96 78.55 7.94 84.65 5.07 C 84.85 3.40 85.03 1.73 85.25 0.06 L 85.38 0.00 M 126.25 14.63 C 124.56 14.73 122.86 14.80 121.17 14.90 C 122.53 16.12 123.89 17.35 125.29 18.54 C 124.77 18.67 123.73 18.94 123.21 19.07 L 124.29 19.17 C 124.23 19.96 124.10 21.53 124.04 22.31 C 125.24 21.48 126.38 20.58 127.60 19.78 C 128.72 20.59 129.83 21.40 130.95 22.22 C 130.76 20.50 130.57 18.78 130.42 17.06 C 131.61 16.39 132.78 15.69 133.94 14.97 C 132.28 14.86 130.62 14.77 128.96 14.68 C 128.43 13.17 127.90 11.67 127.36 10.17 C 126.97 11.65 126.60 13.14 126.25 14.63 M 142.97 29.37 C 141.65 29.60 140.31 29.73 138.97 29.75 C 139.88 30.55 140.84 31.29 141.64 32.21 C 141.70 33.53 141.29 34.81 141.07 36.10 C 143.19 34.09 145.79 34.38 148.04 36.00 C 147.50 34.97 146.96 33.95 146.41 32.94 C 147.54 31.81 148.70 30.72 149.85 29.61 C 148.50 29.63 147.15 29.66 145.81 29.69 C 145.33 28.40 144.85 27.11 144.37 25.83 C 143.92 27.01 143.47 28.20 142.97 29.37 M 107.79 30.08 C 107.27 31.53 106.76 32.98 106.24 34.43 C 104.74 34.53 103.25 34.64 101.75 34.77 C 102.93 35.81 104.13 36.84 105.31 37.89 C 104.83 39.24 104.35 40.60 103.90 41.96 C 105.26 41.18 106.60 40.33 108.08 39.77 C 109.35 40.44 110.55 41.25 111.77 42.01 C 111.36 40.70 110.79 39.42 110.65 38.04 C 111.41 36.64 112.82 35.77 113.97 34.71 C 112.38 34.45 110.58 34.87 109.17 33.92 C 108.63 32.67 108.24 31.36 107.79 30.08 M 125.82 65.40 C 124.11 65.50 122.40 65.57 120.69 65.64 C 121.94 66.75 123.25 67.78 124.34 69.05 C 124.46 70.74 123.65 72.31 123.28 73.92 C 124.60 73.00 125.88 72.01 127.28 71.21 C 128.90 71.92 130.32 73.00 131.80 73.95 C 131.42 72.31 130.57 70.73 130.72 69.00 C 131.80 67.79 133.05 66.76 134.24 65.67 C 132.49 65.60 130.73 65.52 128.98 65.41 C 128.53 63.82 128.08 62.24 127.61 60.67 C 126.99 62.24 126.40 63.81 125.82 65.40 Z" />
<path fill="#01237d" opacity="1.00" d=" M 0.00 4.75 C 5.93 8.03 12.22 10.61 18.03 14.12 C 12.02 14.28 6.01 14.09 0.00 14.08 L 0.00 4.75 Z" />
<path fill="#01237d" opacity="1.00" d=" M 0.00 28.39 C 6.12 28.43 12.24 28.24 18.35 28.46 C 12.32 31.74 6.04 34.53 0.00 37.78 L 0.00 28.39 Z" />
</g>
<g id="#ce172dff">
<path fill="#ce172d" opacity="1.00" d=" M 38.25 0.00 L 46.54 0.00 C 46.81 5.64 46.58 11.29 46.70 16.94 C 59.48 17.43 72.27 16.93 85.05 17.25 C 85.04 19.96 85.06 22.68 85.06 25.40 C 72.25 25.65 59.45 25.34 46.64 25.53 C 46.68 31.18 46.68 36.84 46.63 42.49 C 43.87 42.46 41.12 42.47 38.36 42.50 C 38.25 36.82 38.34 31.15 38.32 25.48 C 25.55 25.46 12.77 25.47 0.00 25.52 L 0.00 16.87 C 12.76 17.29 25.57 17.33 38.33 16.84 C 38.34 11.23 38.28 5.61 38.25 0.00 Z" />
<path fill="#ce172d" opacity="1.00" d=" M 79.06 0.00 L 85.38 0.00 L 85.25 0.06 C 76.07 4.14 67.28 9.06 58.18 13.32 C 55.99 14.30 53.52 14.10 51.18 14.19 C 60.27 9.09 69.75 4.67 79.06 0.00 Z" />
<path fill="#ce172d" opacity="1.00" d=" M 0.00 1.17 L 0.01 0.01 C 9.13 4.80 18.64 8.88 27.45 14.23 C 24.72 14.17 21.84 14.13 19.41 12.72 C 12.95 9.45 6.35 6.45 0.00 2.97 L 0.00 1.17 Z" />
<path fill="#ce172d" opacity="1.00" d=" M 127.33 14.23 C 128.14 14.85 128.95 15.46 129.78 16.06 C 129.64 17.22 129.51 18.38 129.38 19.54 C 127.68 19.42 125.98 19.32 124.29 19.17 L 123.21 19.07 C 123.73 18.94 124.77 18.67 125.29 18.54 C 125.50 18.49 125.93 18.41 126.14 18.36 C 125.83 17.84 125.22 16.78 124.91 16.26 C 125.76 15.63 126.56 14.96 127.33 14.23 Z" />
<path fill="#ce172d" opacity="1.00" d=" M 25.18 29.93 C 27.91 28.37 31.09 28.26 34.16 28.21 C 25.56 32.95 16.68 37.18 7.90 41.56 C 7.47 41.77 6.63 42.17 6.20 42.37 C 4.98 42.01 3.74 41.66 2.50 41.34 C 10.00 37.42 17.61 33.71 25.18 29.93 Z" />
<path fill="#ce172d" opacity="1.00" d=" M 57.05 28.58 C 59.01 28.49 60.99 28.20 62.94 28.54 C 70.05 31.58 76.63 35.80 83.85 38.61 C 83.92 39.66 83.98 40.71 84.03 41.76 C 74.83 37.80 66.15 32.76 57.05 28.58 Z" />
<path fill="#ce172d" opacity="1.00" d=" M 142.55 33.82 C 142.58 32.13 141.68 29.71 144.15 29.34 C 144.89 29.71 146.37 30.45 147.11 30.82 C 146.30 32.85 144.71 33.83 142.55 33.82 Z" />
<path fill="#ce172d" opacity="1.00" d=" M 105.10 35.42 C 106.97 34.11 108.99 34.40 110.87 35.55 C 110.60 36.35 110.06 37.96 109.79 38.77 C 108.53 38.75 107.27 38.74 106.02 38.72 C 105.79 37.90 105.33 36.25 105.10 35.42 Z" />
<path fill="#ce172d" opacity="1.00" d=" M 126.94 63.97 C 127.92 65.21 128.81 66.68 130.55 66.90 C 130.12 68.10 129.71 69.32 129.32 70.54 C 128.33 70.59 126.35 70.71 125.36 70.76 C 125.71 69.05 125.19 67.60 123.78 66.43 C 124.47 66.49 125.85 66.60 126.54 66.65 C 126.64 65.98 126.84 64.64 126.94 63.97 Z" />
</g>
</svg>
