<?xml version="1.0" encoding="UTF-8" ?>
<!DOCTYPE svg PUBLIC "-//W3C//DTD SVG 1.1//EN" "http://www.w3.org/Graphics/SVG/1.1/DTD/svg11.dtd">
<svg width="127pt" height="85pt" viewBox="0 0 127 85" version="1.1" xmlns="http://www.w3.org/2000/svg">
<g id="#006233ff">
<path fill="#006233" opacity="1.00" d=" M 0.00 0.00 L 50.79 0.00 C 50.73 6.84 50.91 13.69 50.69 20.53 C 51.64 20.54 52.30 20.93 52.68 21.68 C 42.26 20.46 30.80 28.99 30.18 39.99 C 27.78 53.10 41.13 65.89 54.15 63.14 C 53.05 63.40 51.95 63.64 50.85 63.88 C 50.70 70.92 50.85 77.96 50.78 85.00 L 0.00 85.00 L 0.00 0.00 Z" />
<path fill="#006233" opacity="1.00" d=" M 39.17 28.32 C 41.13 24.87 46.07 24.32 49.70 23.39 C 49.88 25.04 49.85 26.73 49.64 28.39 C 46.15 28.12 42.66 28.35 39.17 28.32 Z" />
<path fill="#006233" opacity="1.00" d=" M 49.35 35.32 C 50.39 35.19 51.41 35.23 52.43 35.45 C 52.35 36.88 52.69 38.70 50.89 39.21 C 48.96 38.92 49.36 36.74 49.35 35.32 Z" />
<path fill="#006233" opacity="1.00" d=" M 32.99 36.38 C 33.78 37.35 35.21 37.69 35.81 38.80 C 35.00 39.89 33.22 39.47 32.05 39.96 C 32.24 38.74 32.55 37.54 32.99 36.38 Z" />
<path fill="#006233" opacity="1.00" d=" M 45.36 40.65 C 45.92 40.66 47.04 40.69 47.59 40.70 C 48.01 41.97 47.80 43.30 47.36 44.53 C 46.89 44.53 45.97 44.54 45.50 44.55 C 45.14 43.28 44.98 41.93 45.36 40.65 Z" />
<path fill="#006233" opacity="1.00" d=" M 49.51 40.73 C 50.62 40.73 51.96 40.34 52.49 41.73 C 52.23 42.48 51.71 43.98 51.46 44.73 C 51.03 44.62 50.18 44.40 49.76 44.28 C 49.23 43.15 49.33 41.93 49.51 40.73 Z" />
<path fill="#006233" opacity="1.00" d=" M 53.51 41.78 C 54.06 40.40 55.29 40.63 56.46 40.75 C 56.93 42.20 56.81 45.25 54.56 44.71 C 54.30 43.97 53.77 42.51 53.51 41.78 Z" />
<path fill="#006233" opacity="1.00" d=" M 32.14 42.19 C 34.18 41.44 36.34 40.96 38.47 40.56 C 38.47 41.49 38.47 43.34 38.47 44.27 C 36.60 43.23 33.21 44.02 32.14 42.19 Z" />
<path fill="#006233" opacity="1.00" d=" M 32.66 44.77 C 34.50 45.67 36.57 45.71 38.50 46.27 C 38.61 47.40 39.02 48.45 39.49 49.47 C 37.61 49.88 35.77 50.43 33.94 51.00 C 33.32 49.07 31.47 46.60 32.66 44.77 Z" />
<path fill="#006233" opacity="1.00" d=" M 49.35 46.31 C 50.37 46.22 51.38 46.26 52.39 46.42 C 52.39 47.91 52.62 49.70 50.85 50.30 C 48.96 49.84 49.34 47.77 49.35 46.31 Z" />
<path fill="#006233" opacity="1.00" d=" M 35.21 53.48 C 35.67 51.48 38.83 52.21 40.40 51.37 C 41.06 52.53 42.04 53.44 42.99 54.36 C 40.36 54.70 37.87 53.35 35.21 53.48 Z" />
<path fill="#006233" opacity="1.00" d=" M 37.80 55.75 C 39.93 56.04 42.02 56.67 44.19 56.75 C 46.77 56.30 49.23 57.47 51.81 57.12 C 51.86 58.40 51.89 59.68 51.91 60.96 C 52.40 61.04 53.39 61.19 53.89 61.27 C 53.21 61.36 52.53 61.41 51.85 61.42 C 51.58 60.35 51.21 59.32 50.75 58.34 C 48.65 58.02 50.42 60.50 49.64 61.62 C 45.35 60.71 40.42 59.53 37.80 55.75 Z" />
</g>
<g id="#dc241fff">
<path fill="#dc241f" opacity="1.00" d=" M 50.79 0.00 L 127.00 0.00 L 127.00 85.00 L 50.78 85.00 C 50.85 77.96 50.70 70.92 50.85 63.88 C 51.95 63.64 53.05 63.40 54.15 63.14 C 59.78 62.19 64.81 58.80 68.18 54.25 C 72.08 48.04 72.70 39.86 69.46 33.21 C 66.27 26.90 59.76 22.39 52.68 21.68 C 52.30 20.93 51.64 20.54 50.69 20.53 C 50.91 13.69 50.73 6.84 50.79 0.00 Z" />
<path fill="#dc241f" opacity="1.00" d=" M 51.72 23.59 C 56.07 23.71 60.31 25.61 63.49 28.58 C 62.72 30.41 63.31 31.58 65.27 32.08 C 63.72 32.50 62.96 33.43 63.00 34.87 C 64.62 34.84 66.17 34.28 67.79 34.17 C 68.43 36.09 69.61 38.07 69.33 40.13 C 67.12 39.83 64.93 38.28 62.72 38.83 C 62.55 42.71 69.15 40.01 69.45 43.07 C 67.64 44.10 61.69 42.68 63.41 46.20 C 65.34 45.79 67.27 45.39 69.20 44.97 C 69.88 46.54 68.49 48.13 68.41 49.74 C 66.02 49.87 65.16 46.20 62.74 46.51 C 62.54 47.78 62.34 49.06 62.13 50.34 C 61.71 50.73 60.88 51.52 60.46 51.92 C 60.53 52.58 60.66 53.90 60.73 54.56 C 59.03 54.43 55.97 54.54 56.07 56.96 C 58.63 56.89 61.11 56.20 63.65 55.90 C 61.65 59.08 57.41 60.32 53.89 61.27 C 53.39 61.19 52.40 61.04 51.91 60.96 C 51.89 59.68 51.86 58.40 51.81 57.12 C 49.23 57.47 46.77 56.30 44.19 56.75 L 44.22 55.04 L 42.99 54.36 C 42.04 53.44 41.06 52.53 40.40 51.37 C 40.17 50.90 39.72 49.95 39.49 49.47 C 39.02 48.45 38.61 47.40 38.50 46.27 C 38.50 45.77 38.48 44.77 38.47 44.27 C 38.47 43.34 38.47 41.49 38.47 40.56 C 38.52 36.48 38.45 32.40 38.34 28.31 L 39.17 28.32 C 42.66 28.35 46.15 28.12 49.64 28.39 C 50.18 28.38 51.26 28.35 51.81 28.34 C 51.74 26.76 51.72 25.17 51.72 23.59 M 39.67 31.02 C 38.61 33.07 41.48 33.09 42.67 32.65 C 42.61 32.15 42.47 31.13 42.40 30.62 C 41.36 30.07 40.45 30.21 39.67 31.02 M 59.05 31.40 C 57.75 33.20 61.86 33.79 62.26 32.01 C 61.70 30.85 60.05 31.35 59.05 31.40 M 43.62 33.50 C 44.08 38.45 42.60 43.78 44.64 48.45 C 47.29 53.57 55.48 52.97 57.38 47.54 C 58.45 43.05 57.55 38.32 57.90 33.73 C 53.23 33.24 48.37 33.68 43.62 33.50 M 59.13 40.88 C 57.77 42.79 60.64 43.13 61.79 42.51 C 62.86 41.19 60.08 39.28 59.13 40.88 Z" />
</g>
<g id="#e9d508ff">
<path fill="#e9d508" opacity="1.00" d=" M 30.18 39.99 C 30.80 28.99 42.26 20.46 52.68 21.68 C 59.76 22.39 66.27 26.90 69.46 33.21 C 72.70 39.86 72.08 48.04 68.18 54.25 C 64.81 58.80 59.78 62.19 54.15 63.14 C 41.13 65.89 27.78 53.10 30.18 39.99 M 39.17 28.32 L 38.34 28.31 C 38.45 32.40 38.52 36.48 38.47 40.56 C 36.34 40.96 34.18 41.44 32.14 42.19 C 33.21 44.02 36.60 43.23 38.47 44.27 C 38.48 44.77 38.50 45.77 38.50 46.27 C 36.57 45.71 34.50 45.67 32.66 44.77 C 31.47 46.60 33.32 49.07 33.94 51.00 C 35.77 50.43 37.61 49.88 39.49 49.47 C 39.72 49.95 40.17 50.90 40.40 51.37 C 38.83 52.21 35.67 51.48 35.21 53.48 C 37.87 53.35 40.36 54.70 42.99 54.36 L 44.22 55.04 L 44.19 56.75 C 42.02 56.67 39.93 56.04 37.80 55.75 C 40.42 59.53 45.35 60.71 49.64 61.62 C 50.42 60.50 48.65 58.02 50.75 58.34 C 51.21 59.32 51.58 60.35 51.85 61.42 C 52.53 61.41 53.21 61.36 53.89 61.27 C 57.41 60.32 61.65 59.08 63.65 55.90 C 61.11 56.20 58.63 56.89 56.07 56.96 C 55.97 54.54 59.03 54.43 60.73 54.56 C 60.66 53.90 60.53 52.58 60.46 51.92 C 60.88 51.52 61.71 50.73 62.13 50.34 C 62.34 49.06 62.54 47.78 62.74 46.51 C 65.16 46.20 66.02 49.87 68.41 49.74 C 68.49 48.13 69.88 46.54 69.20 44.97 C 67.27 45.39 65.34 45.79 63.41 46.20 C 61.69 42.68 67.64 44.10 69.45 43.07 C 69.15 40.01 62.55 42.71 62.72 38.83 C 64.93 38.28 67.12 39.83 69.33 40.13 C 69.61 38.07 68.43 36.09 67.79 34.17 C 66.17 34.28 64.62 34.84 63.00 34.87 C 62.96 33.43 63.72 32.50 65.27 32.08 C 63.31 31.58 62.72 30.41 63.49 28.58 C 60.31 25.61 56.07 23.71 51.72 23.59 C 51.72 25.17 51.74 26.76 51.81 28.34 C 51.26 28.35 50.18 28.38 49.64 28.39 C 49.85 26.73 49.88 25.04 49.70 23.39 C 46.07 24.32 41.13 24.87 39.17 28.32 M 32.99 36.38 C 32.55 37.54 32.24 38.74 32.05 39.96 C 33.22 39.47 35.00 39.89 35.81 38.80 C 35.21 37.69 33.78 37.35 32.99 36.38 Z" />
<path fill="#e9d508" opacity="1.00" d=" M 39.67 31.02 C 40.45 30.21 41.36 30.07 42.40 30.62 C 42.47 31.13 42.61 32.15 42.67 32.65 C 41.48 33.09 38.61 33.07 39.67 31.02 Z" />
<path fill="#e9d508" opacity="1.00" d=" M 59.05 31.40 C 60.05 31.35 61.70 30.85 62.26 32.01 C 61.86 33.79 57.75 33.20 59.05 31.40 Z" />
<path fill="#e9d508" opacity="1.00" d=" M 59.13 40.88 C 60.08 39.28 62.86 41.19 61.79 42.51 C 60.64 43.13 57.77 42.79 59.13 40.88 Z" />
</g>
<g id="#fdfcfdff">
<path fill="#fdfcfd" opacity="1.00" d=" M 43.62 33.50 C 48.37 33.68 53.23 33.24 57.90 33.73 C 57.55 38.32 58.45 43.05 57.38 47.54 C 55.48 52.97 47.29 53.57 44.64 48.45 C 42.60 43.78 44.08 38.45 43.62 33.50 M 49.35 35.32 C 49.36 36.74 48.96 38.92 50.89 39.21 C 52.69 38.70 52.35 36.88 52.43 35.45 C 51.41 35.23 50.39 35.19 49.35 35.32 M 45.36 40.65 C 44.98 41.93 45.14 43.28 45.50 44.55 C 45.97 44.54 46.89 44.53 47.36 44.53 C 47.80 43.30 48.01 41.97 47.59 40.70 C 47.04 40.69 45.92 40.66 45.36 40.65 M 49.51 40.73 C 49.33 41.93 49.23 43.15 49.76 44.28 C 50.18 44.40 51.03 44.62 51.46 44.73 C 51.71 43.98 52.23 42.48 52.49 41.73 C 51.96 40.34 50.62 40.73 49.51 40.73 M 53.51 41.78 C 53.77 42.51 54.30 43.97 54.56 44.71 C 56.81 45.25 56.93 42.20 56.46 40.75 C 55.29 40.63 54.06 40.40 53.51 41.78 M 49.35 46.31 C 49.34 47.77 48.96 49.84 50.85 50.30 C 52.62 49.70 52.39 47.91 52.39 46.42 C 51.38 46.26 50.37 46.22 49.35 46.31 Z" />
</g>
</svg>
