<?xml version="1.0" encoding="UTF-8" ?>
<!DOCTYPE svg PUBLIC "-//W3C//DTD SVG 1.1//EN" "http://www.w3.org/Graphics/SVG/1.1/DTD/svg11.dtd">
<svg width="136pt" height="85pt" viewBox="0 0 136 85" version="1.1" xmlns="http://www.w3.org/2000/svg">
<g id="#0b5089ff">
<path fill="#0b5089" opacity="1.00" d=" M 0.00 0.00 L 42.50 0.00 C 42.47 11.39 42.56 22.79 42.45 34.18 C 28.30 33.67 14.15 34.18 0.00 33.85 L 0.00 0.00 Z" />
<path fill="#0b5089" opacity="1.00" d=" M 59.50 0.00 L 136.00 0.00 L 136.00 33.81 C 110.52 34.34 85.04 33.64 59.55 34.18 C 59.44 22.78 59.53 11.39 59.50 0.00 Z" />
<path fill="#0b5089" opacity="1.00" d=" M 0.00 51.16 C 14.15 50.80 28.31 51.16 42.45 50.81 C 42.56 62.21 42.47 73.60 42.50 85.00 L 0.00 85.00 L 0.00 51.16 Z" />
<path fill="#0b5089" opacity="1.00" d=" M 59.55 50.87 C 75.04 50.80 90.53 51.29 106.02 51.07 C 116.01 50.58 126.01 51.05 136.00 51.14 L 136.00 85.00 L 59.50 85.00 C 59.53 73.62 59.44 62.25 59.55 50.87 Z" />
</g>
<g id="#ffc100ff">
<path fill="#ffc100" opacity="1.00" d=" M 42.50 0.00 L 59.50 0.00 C 59.53 11.39 59.44 22.78 59.55 34.18 C 85.04 33.64 110.52 34.34 136.00 33.81 L 136.00 51.14 C 126.01 51.05 116.01 50.58 106.02 51.07 C 90.53 51.29 75.04 50.80 59.55 50.87 C 59.44 62.25 59.53 73.62 59.50 85.00 L 42.50 85.00 C 42.47 73.60 42.56 62.21 42.45 50.81 C 28.31 51.16 14.15 50.80 0.00 51.16 L 0.00 33.85 C 14.15 34.18 28.30 33.67 42.45 34.18 C 42.56 22.79 42.47 11.39 42.50 0.00 Z" />
</g>
</svg>
