<?xml version="1.0" encoding="UTF-8" ?>
<!DOCTYPE svg PUBLIC "-//W3C//DTD SVG 1.1//EN" "http://www.w3.org/Graphics/SVG/1.1/DTD/svg11.dtd">
<svg width="128pt" height="85pt" viewBox="0 0 128 85" version="1.1" xmlns="http://www.w3.org/2000/svg">
<g id="#a51931ff">
<path fill="#a51931" opacity="1.00" d=" M 0.00 0.00 L 128.00 0.00 L 128.00 14.19 C 85.33 14.20 42.67 14.20 0.00 14.19 L 0.00 0.00 Z" />
<path fill="#a51931" opacity="1.00" d=" M 0.00 70.81 C 42.67 70.80 85.33 70.80 128.00 70.81 L 128.00 85.00 L 0.00 85.00 L 0.00 70.81 Z" />
</g>
<g id="#f4f5f8ff">
<path fill="#f4f5f8" opacity="1.00" d=" M 0.00 14.19 C 42.67 14.20 85.33 14.20 128.00 14.19 L 128.00 28.37 C 85.33 28.32 42.67 28.34 0.00 28.36 L 0.00 14.19 Z" />
<path fill="#f4f5f8" opacity="1.00" d=" M 0.00 56.63 C 42.67 56.68 85.33 56.67 128.00 56.64 L 128.00 70.81 C 85.33 70.80 42.67 70.80 0.00 70.81 L 0.00 56.63 Z" />
</g>
<g id="#2d2a4aff">
<path fill="#2d2a4a" opacity="1.00" d=" M 0.00 28.36 C 42.67 28.34 85.33 28.32 128.00 28.37 L 128.00 56.64 C 85.33 56.67 42.67 56.68 0.00 56.63 L 0.00 28.36 Z" />
</g>
</svg>
