<?xml version="1.0" encoding="UTF-8" ?>
<!DOCTYPE svg PUBLIC "-//W3C//DTD SVG 1.1//EN" "http://www.w3.org/Graphics/SVG/1.1/DTD/svg11.dtd">
<svg width="169pt" height="85pt" viewBox="0 0 169 85" version="1.1" xmlns="http://www.w3.org/2000/svg">
<g id="#e20a17ff">
<path fill="#e20a17" opacity="1.00" d=" M 0.00 0.00 L 169.00 0.00 L 169.00 85.00 L 0.00 85.00 L 0.00 0.00 M 62.49 37.85 C 59.76 48.36 66.79 60.03 77.19 62.88 C 85.69 65.57 95.26 61.94 100.66 55.05 C 100.52 54.93 100.25 54.69 100.12 54.57 C 93.28 62.34 79.44 60.57 74.22 51.77 C 68.18 43.25 72.55 30.07 82.32 26.60 C 88.78 23.81 96.05 26.23 101.06 30.71 C 96.33 23.76 87.42 19.95 79.13 21.63 C 71.08 23.18 64.15 29.78 62.49 37.85 M 107.36 32.85 C 107.33 35.26 107.40 37.67 107.47 40.08 C 105.29 40.83 103.09 41.51 100.88 42.14 C 102.54 43.99 105.29 43.97 107.46 44.90 C 107.40 47.31 107.32 49.72 107.36 52.14 C 109.35 50.56 110.40 48.19 111.92 46.21 C 114.26 47.12 116.63 47.99 119.06 48.64 C 117.78 46.54 116.25 44.60 114.68 42.70 C 115.88 40.42 117.94 38.68 118.91 36.28 C 116.55 37.05 114.23 37.93 111.90 38.78 C 110.35 36.84 109.43 34.33 107.36 32.85 Z" />
</g>
<g id="#fdfdfcff">
<path fill="#fdfdfc" opacity="1.00" d=" M 62.49 37.85 C 64.15 29.78 71.08 23.18 79.13 21.63 C 87.42 19.95 96.33 23.76 101.06 30.71 C 96.05 26.23 88.78 23.81 82.32 26.60 C 72.55 30.07 68.18 43.25 74.22 51.77 C 79.44 60.57 93.28 62.34 100.12 54.57 C 100.25 54.69 100.52 54.93 100.66 55.05 C 95.26 61.94 85.69 65.57 77.19 62.88 C 66.79 60.03 59.76 48.36 62.49 37.85 Z" />
<path fill="#fdfdfc" opacity="1.00" d=" M 107.36 32.85 C 109.43 34.33 110.35 36.84 111.90 38.78 C 114.23 37.93 116.55 37.05 118.91 36.28 C 117.94 38.68 115.88 40.42 114.68 42.70 C 116.25 44.60 117.78 46.54 119.06 48.64 C 116.63 47.99 114.26 47.12 111.92 46.21 C 110.40 48.19 109.35 50.56 107.36 52.14 C 107.32 49.72 107.40 47.31 107.46 44.90 C 105.29 43.97 102.54 43.99 100.88 42.14 C 103.09 41.51 105.29 40.83 107.47 40.08 C 107.40 37.67 107.33 35.26 107.36 32.85 Z" />
</g>
</svg>
