<?xml version="1.0" encoding="UTF-8" ?>
<!DOCTYPE svg PUBLIC "-//W3C//DTD SVG 1.1//EN" "http://www.w3.org/Graphics/SVG/1.1/DTD/svg11.dtd">
<svg width="143pt" height="85pt" viewBox="0 0 143 85" version="1.1" xmlns="http://www.w3.org/2000/svg">
<g id="#012564ff">
<path fill="#012564" opacity="1.00" d=" M 0.00 0.00 L 64.38 0.00 C 64.37 2.20 64.37 4.40 64.37 6.60 C 64.38 8.83 64.38 11.06 64.38 13.29 C 64.38 15.44 64.38 17.59 64.38 19.74 C 64.38 21.91 64.38 24.08 64.38 26.26 C 64.38 28.42 64.38 30.59 64.38 32.76 C 64.38 34.99 64.38 37.21 64.38 39.44 C 64.37 41.54 64.37 43.64 64.36 45.74 C 42.91 45.74 21.45 45.76 0.00 45.73 L 0.00 0.00 M 3.57 4.05 C 3.99 4.75 4.42 5.45 4.84 6.15 C 6.11 5.85 7.15 5.22 7.69 4.01 C 7.20 3.60 6.21 2.77 5.71 2.36 C 5.04 2.98 4.33 3.54 3.57 4.05 M 14.56 3.93 C 14.71 5.00 14.84 6.06 14.97 7.13 C 15.08 6.80 15.30 6.15 15.41 5.82 C 16.02 5.75 17.23 5.61 17.83 5.54 C 17.62 4.50 17.34 3.48 17.07 2.46 C 16.23 2.94 15.39 3.43 14.56 3.93 M 37.32 2.43 C 36.90 2.86 36.06 3.70 35.64 4.12 C 35.85 4.67 36.07 5.22 36.29 5.77 C 36.90 5.77 38.11 5.77 38.71 5.77 C 39.00 5.19 39.29 4.60 39.57 4.02 C 38.71 3.64 37.96 3.11 37.32 2.43 M 48.97 2.46 C 48.34 2.84 47.08 3.60 46.45 3.98 C 46.62 4.48 46.79 4.98 46.97 5.48 C 47.75 5.81 48.53 6.15 49.31 6.49 C 49.38 5.95 49.53 4.89 49.61 4.35 C 49.39 3.72 49.18 3.09 48.97 2.46 M 25.38 3.35 C 25.53 4.50 25.66 5.65 25.78 6.80 C 26.11 6.42 26.77 5.67 27.10 5.30 C 27.34 5.70 27.84 6.50 28.08 6.90 C 28.24 5.80 28.41 4.69 28.59 3.59 C 27.52 3.50 26.45 3.42 25.38 3.35 M 57.81 6.74 C 58.12 6.36 58.74 5.60 59.05 5.21 C 59.31 5.65 59.83 6.51 60.09 6.94 C 60.25 5.80 60.41 4.67 60.58 3.54 C 59.93 3.47 58.62 3.34 57.97 3.27 C 57.03 4.23 57.67 5.61 57.81 6.74 M 9.43 7.86 C 9.43 8.52 9.44 9.86 9.44 10.53 C 10.43 10.51 11.42 10.50 12.41 10.49 C 12.43 9.83 12.48 8.51 12.50 7.86 C 11.48 7.77 10.46 7.75 9.43 7.86 M 21.78 7.38 C 21.19 7.73 20.02 8.43 19.44 8.78 C 19.82 9.38 20.20 9.98 20.58 10.57 C 21.03 10.56 21.93 10.53 22.38 10.52 C 22.68 10.10 23.28 9.26 23.59 8.84 C 22.98 8.36 22.38 7.87 21.78 7.38 M 30.29 8.76 C 30.64 9.34 30.99 9.92 31.34 10.51 C 31.93 10.51 33.12 10.52 33.71 10.52 C 33.67 9.97 33.60 8.86 33.56 8.30 C 33.22 8.05 32.53 7.55 32.18 7.31 C 31.71 7.67 30.77 8.40 30.29 8.76 M 41.49 8.18 C 41.47 8.76 41.44 9.94 41.43 10.52 C 42.43 10.51 43.43 10.50 44.43 10.49 C 44.42 9.91 44.40 8.74 44.39 8.16 C 44.03 7.97 43.30 7.60 42.94 7.42 C 42.58 7.61 41.85 7.99 41.49 8.18 M 53.69 7.65 C 53.14 7.86 52.03 8.28 51.47 8.49 C 51.85 9.18 52.22 9.87 52.60 10.56 C 53.05 10.57 53.95 10.60 54.40 10.61 C 54.83 9.99 55.25 9.37 55.68 8.76 C 55.01 8.39 54.35 8.02 53.69 7.65 M 4.25 15.24 C 4.80 15.27 5.90 15.32 6.45 15.35 C 6.84 14.56 7.23 13.77 7.62 12.97 C 6.66 12.66 5.71 12.34 4.76 12.01 C 4.57 13.08 4.41 14.16 4.25 15.24 M 14.43 12.76 C 14.62 13.58 14.81 14.40 15.00 15.22 C 15.91 15.26 16.82 15.29 17.73 15.33 C 17.57 14.29 17.66 13.16 17.02 12.27 C 16.37 12.39 15.08 12.64 14.43 12.76 M 25.44 12.40 C 25.50 13.38 25.59 14.35 25.71 15.32 C 26.51 15.30 27.32 15.28 28.13 15.26 C 28.29 14.41 28.45 13.56 28.61 12.71 C 27.55 12.62 26.49 12.52 25.44 12.40 M 35.60 13.44 C 35.93 14.08 36.25 14.73 36.55 15.38 C 37.03 15.36 37.98 15.32 38.46 15.29 C 38.85 14.51 39.23 13.73 39.61 12.95 C 38.80 12.70 37.98 12.45 37.17 12.20 C 36.78 12.51 35.99 13.13 35.60 13.44 M 46.29 12.80 C 46.66 13.65 47.04 14.51 47.42 15.36 C 47.93 15.33 48.97 15.26 49.49 15.23 C 49.44 14.23 49.66 13.15 49.06 12.26 C 48.37 12.40 46.98 12.66 46.29 12.80 M 58.12 12.34 C 57.08 12.99 57.68 14.25 57.63 15.23 C 58.46 15.25 59.30 15.27 60.14 15.29 C 60.29 14.42 60.44 13.54 60.59 12.67 C 59.98 12.59 58.74 12.43 58.12 12.34 M 9.36 17.58 C 9.51 18.60 9.67 19.63 9.83 20.66 C 10.14 20.27 10.75 19.49 11.05 19.10 C 11.30 19.49 11.79 20.27 12.04 20.66 C 12.23 19.70 12.42 18.74 12.62 17.79 C 12.19 17.42 11.35 16.68 10.93 16.31 C 10.54 16.62 9.75 17.26 9.36 17.58 M 21.89 16.34 C 21.28 16.74 20.06 17.53 19.44 17.93 C 19.87 18.55 20.30 19.18 20.73 19.80 C 21.16 19.77 22.03 19.72 22.47 19.69 C 22.80 19.12 23.14 18.56 23.47 17.99 C 22.94 17.44 22.41 16.89 21.89 16.34 M 30.33 17.94 C 30.61 18.41 31.18 19.35 31.47 19.82 C 32.08 19.75 33.32 19.61 33.94 19.54 C 33.62 18.32 33.10 17.18 32.34 16.18 C 31.67 16.77 31.00 17.35 30.33 17.94 M 41.36 17.47 C 41.51 18.53 41.67 19.58 41.84 20.64 C 42.14 20.25 42.76 19.48 43.06 19.09 C 43.31 19.49 43.81 20.28 44.06 20.68 C 44.23 19.73 44.39 18.77 44.54 17.82 C 44.15 17.44 43.36 16.69 42.97 16.31 C 42.57 16.60 41.76 17.18 41.36 17.47 M 53.49 16.39 C 52.95 16.75 51.89 17.49 51.36 17.85 C 51.83 18.50 52.29 19.15 52.74 19.80 C 53.17 19.79 54.03 19.78 54.46 19.77 C 54.80 19.17 55.14 18.56 55.48 17.96 C 54.81 17.44 54.15 16.91 53.49 16.39 M 4.90 20.98 C 4.64 22.10 4.38 23.22 4.15 24.35 C 4.74 24.41 5.92 24.53 6.51 24.59 C 6.85 23.87 7.22 23.17 7.60 22.48 C 6.70 21.98 5.80 21.48 4.90 20.98 M 14.41 21.87 C 14.64 22.73 14.88 23.58 15.11 24.43 C 15.78 24.45 17.14 24.47 17.81 24.48 C 17.57 23.44 17.75 22.20 16.90 21.39 C 16.07 21.53 15.24 21.69 14.41 21.87 M 25.31 21.76 C 25.41 22.45 25.61 23.82 25.71 24.51 C 26.54 24.49 27.36 24.47 28.18 24.45 C 28.31 23.53 28.43 22.61 28.56 21.69 C 27.48 21.71 26.39 21.72 25.31 21.76 M 35.44 22.72 C 35.72 23.17 36.28 24.07 36.57 24.52 C 37.05 24.52 38.03 24.53 38.51 24.54 C 38.80 24.04 39.37 23.04 39.65 22.54 C 38.46 21.27 36.46 21.24 35.44 22.72 M 46.42 21.87 C 46.65 22.73 46.87 23.59 47.09 24.46 C 47.71 24.45 48.94 24.43 49.55 24.42 C 49.39 23.40 49.88 22.10 48.88 21.40 C 48.06 21.54 47.24 21.69 46.42 21.87 M 58.20 21.46 C 57.00 21.99 57.71 23.42 57.56 24.41 C 58.43 24.43 59.31 24.45 60.18 24.47 C 60.28 23.80 60.47 22.46 60.56 21.79 C 59.78 21.66 58.99 21.55 58.20 21.46 M 9.38 27.02 C 9.49 27.77 9.72 29.25 9.83 30.00 C 10.14 29.54 10.75 28.61 11.06 28.15 C 11.32 28.64 11.85 29.61 12.11 30.09 C 12.21 29.32 12.41 27.78 12.50 27.01 C 11.99 26.39 11.47 25.78 10.96 25.16 C 10.43 25.78 9.91 26.40 9.38 27.02 M 30.36 27.07 C 30.78 27.74 31.21 28.42 31.64 29.09 C 32.09 29.18 32.98 29.35 33.43 29.44 C 33.50 28.83 33.63 27.61 33.70 27.00 C 33.19 26.42 32.68 25.84 32.17 25.27 C 31.57 25.88 30.97 26.48 30.36 27.07 M 41.37 27.00 C 41.49 27.76 41.72 29.28 41.84 30.04 C 42.14 29.56 42.75 28.61 43.05 28.13 C 43.32 28.63 43.85 29.63 44.12 30.12 C 44.23 29.08 44.35 28.04 44.47 27.00 C 44.10 26.54 43.37 25.62 43.00 25.17 C 42.45 25.77 41.91 26.38 41.37 27.00 M 4.31 31.12 C 4.31 31.71 4.31 32.90 4.31 33.49 C 4.86 33.55 5.95 33.65 6.49 33.71 C 6.89 33.00 7.30 32.30 7.70 31.60 C 7.13 31.28 5.97 30.64 5.39 30.32 C 5.12 30.52 4.58 30.92 4.31 31.12 M 14.49 30.98 C 14.64 31.84 14.79 32.69 14.93 33.55 C 15.65 33.56 17.10 33.60 17.82 33.62 C 18.03 31.39 16.70 29.61 14.49 30.98 M 25.37 30.81 C 25.45 31.52 25.60 32.94 25.68 33.65 C 26.52 33.63 27.37 33.61 28.21 33.59 C 28.29 32.90 28.45 31.51 28.53 30.82 C 27.48 30.81 26.43 30.80 25.37 30.81 M 37.41 30.35 C 36.92 30.68 35.96 31.34 35.48 31.67 C 35.83 32.32 36.18 32.98 36.52 33.63 C 37.02 33.63 38.03 33.64 38.53 33.64 C 38.92 32.96 39.31 32.29 39.70 31.61 C 38.93 31.19 38.17 30.77 37.41 30.35 M 46.54 31.10 C 46.67 31.93 46.80 32.75 46.93 33.58 C 47.61 33.57 48.97 33.56 49.65 33.56 C 49.46 32.43 49.26 31.31 49.01 30.19 C 48.19 30.50 47.36 30.80 46.54 31.10 M 57.30 30.79 C 57.40 31.48 57.59 32.86 57.68 33.55 C 58.53 33.56 59.37 33.58 60.22 33.60 C 60.29 32.91 60.45 31.52 60.53 30.83 C 59.45 30.72 58.38 30.68 57.30 30.79 M 9.66 35.48 C 9.48 36.45 9.41 37.44 9.44 38.43 C 10.40 38.41 11.36 38.40 12.32 38.40 C 12.41 37.43 12.49 36.45 12.58 35.48 C 11.61 35.45 10.63 35.45 9.66 35.48 M 19.18 35.84 C 20.06 36.47 20.53 37.33 20.41 38.44 C 20.91 38.39 21.91 38.30 22.41 38.25 C 22.80 37.44 23.19 36.63 23.59 35.82 C 23.11 35.69 22.16 35.43 21.68 35.30 C 21.06 35.44 19.81 35.71 19.18 35.84 M 30.21 35.63 C 30.65 36.50 31.09 37.36 31.54 38.22 C 32.04 38.28 33.05 38.40 33.55 38.46 C 33.25 37.26 33.85 36.41 34.77 35.74 C 33.26 35.50 31.73 35.45 30.21 35.63 M 40.50 35.75 C 41.26 36.45 41.73 37.30 41.60 38.37 C 42.51 38.38 43.42 38.39 44.33 38.41 C 44.39 37.44 44.45 36.47 44.51 35.50 C 43.17 35.44 41.83 35.60 40.50 35.75 M 51.14 35.66 C 51.87 36.42 52.45 37.29 52.50 38.38 C 53.00 38.38 54.00 38.37 54.51 38.36 C 54.72 37.36 55.15 36.47 55.80 35.69 C 54.25 35.62 52.69 35.60 51.14 35.66 M 4.95 39.35 C 4.63 40.38 4.34 41.43 4.04 42.47 C 4.65 42.55 5.89 42.72 6.50 42.80 C 6.88 42.10 7.26 41.39 7.63 40.68 C 6.74 40.24 5.84 39.80 4.95 39.35 M 16.63 39.51 C 16.05 39.79 14.88 40.35 14.30 40.63 C 14.63 41.32 14.96 42.02 15.29 42.71 C 15.90 42.69 17.11 42.65 17.72 42.63 C 17.68 42.05 17.60 40.89 17.56 40.31 C 17.32 40.11 16.86 39.71 16.63 39.51 M 37.43 39.58 C 36.94 39.88 35.95 40.47 35.46 40.76 C 35.82 41.41 36.17 42.07 36.52 42.73 C 37.02 42.73 38.03 42.71 38.53 42.71 C 38.91 42.04 39.29 41.37 39.67 40.70 C 38.92 40.33 38.18 39.95 37.43 39.58 M 48.64 39.52 C 48.05 39.80 46.88 40.35 46.30 40.63 C 46.64 41.34 46.98 42.05 47.31 42.76 C 47.86 42.71 48.96 42.60 49.51 42.55 C 49.53 41.98 49.55 40.84 49.56 40.27 C 49.33 40.08 48.87 39.71 48.64 39.52 M 57.64 40.22 C 57.55 41.46 57.45 42.71 57.35 43.95 C 57.80 42.73 59.01 42.64 60.13 42.48 C 60.28 41.97 60.56 40.95 60.70 40.44 C 59.81 39.88 58.51 39.22 57.64 40.22 M 25.38 40.17 C 25.53 41.32 25.68 42.46 25.83 43.61 C 26.13 43.23 26.75 42.46 27.06 42.07 C 27.32 42.48 27.83 43.31 28.09 43.72 C 28.23 42.56 28.38 41.39 28.54 40.23 C 27.49 40.21 26.43 40.19 25.38 40.17 Z" />
</g>
<g id="#bb133eff">
<path fill="#bb133e" opacity="1.00" d=" M 64.38 0.00 L 143.00 0.00 L 143.00 6.60 C 116.79 6.59 90.58 6.59 64.37 6.60 C 64.37 4.40 64.37 2.20 64.38 0.00 Z" />
<path fill="#bb133e" opacity="1.00" d=" M 64.38 13.29 C 90.59 13.27 116.79 13.29 143.00 13.28 L 143.00 19.74 C 116.79 19.74 90.59 19.75 64.38 19.74 C 64.38 17.59 64.38 15.44 64.38 13.29 Z" />
<path fill="#bb133e" opacity="1.00" d=" M 64.38 26.26 C 90.59 26.24 116.79 26.26 143.00 26.25 L 143.00 32.77 C 116.79 32.76 90.59 32.78 64.38 32.76 C 64.38 30.59 64.38 28.42 64.38 26.26 Z" />
<path fill="#bb133e" opacity="1.00" d=" M 64.38 39.44 C 90.58 39.44 116.79 39.44 143.00 39.44 L 143.00 45.73 C 116.79 45.74 90.57 45.72 64.36 45.74 C 64.37 43.64 64.37 41.54 64.38 39.44 Z" />
<path fill="#bb133e" opacity="1.00" d=" M 0.00 52.41 C 47.67 52.38 95.33 52.40 143.00 52.40 L 143.00 59.13 C 97.01 59.14 51.02 59.12 5.03 59.14 C 3.35 59.11 1.67 59.02 0.00 58.84 L 0.00 52.41 Z" />
<path fill="#bb133e" opacity="1.00" d=" M 0.00 65.44 C 47.67 65.43 95.33 65.44 143.00 65.43 L 143.00 72.17 C 99.00 72.17 55.00 72.17 11.00 72.17 C 7.33 72.16 3.64 72.40 0.00 71.78 L 0.00 65.44 Z" />
<path fill="#bb133e" opacity="1.00" d=" M 0.00 78.57 C 47.67 78.56 95.33 78.57 143.00 78.57 L 143.00 85.00 L 0.00 85.00 L 0.00 78.57 Z" />
</g>
<g id="#ffffffff">
<path fill="#ffffff" opacity="1.00" d=" M 3.57 4.05 C 4.33 3.54 5.04 2.98 5.71 2.36 C 6.21 2.77 7.20 3.60 7.69 4.01 C 7.15 5.22 6.11 5.85 4.84 6.15 C 4.42 5.45 3.99 4.75 3.57 4.05 Z" />
<path fill="#ffffff" opacity="1.00" d=" M 14.56 3.93 C 15.39 3.43 16.23 2.94 17.07 2.46 C 17.34 3.48 17.62 4.50 17.83 5.54 C 17.23 5.61 16.02 5.75 15.41 5.82 C 15.30 6.15 15.08 6.80 14.97 7.13 C 14.84 6.06 14.71 5.00 14.56 3.93 Z" />
<path fill="#ffffff" opacity="1.00" d=" M 37.32 2.43 C 37.96 3.11 38.71 3.64 39.57 4.02 C 39.29 4.60 39.00 5.19 38.71 5.77 C 38.11 5.77 36.90 5.77 36.29 5.77 C 36.07 5.22 35.85 4.67 35.64 4.12 C 36.06 3.70 36.90 2.86 37.32 2.43 Z" />
<path fill="#ffffff" opacity="1.00" d=" M 48.97 2.46 C 49.18 3.09 49.39 3.72 49.61 4.35 C 49.53 4.89 49.38 5.95 49.31 6.49 C 48.53 6.15 47.75 5.81 46.97 5.48 C 46.79 4.98 46.62 4.48 46.45 3.98 C 47.08 3.60 48.34 2.84 48.97 2.46 Z" />
<path fill="#ffffff" opacity="1.00" d=" M 25.38 3.35 C 26.45 3.42 27.52 3.50 28.59 3.59 C 28.41 4.69 28.24 5.80 28.08 6.90 C 27.84 6.50 27.34 5.70 27.10 5.30 C 26.77 5.67 26.11 6.42 25.78 6.80 C 25.66 5.65 25.53 4.50 25.38 3.35 Z" />
<path fill="#ffffff" opacity="1.00" d=" M 57.81 6.74 C 57.67 5.61 57.03 4.23 57.97 3.27 C 58.62 3.34 59.93 3.47 60.58 3.54 C 60.41 4.67 60.25 5.80 60.09 6.94 C 59.83 6.51 59.31 5.65 59.05 5.21 C 58.74 5.60 58.12 6.36 57.81 6.74 Z" />
<path fill="#ffffff" opacity="1.00" d=" M 9.43 7.86 C 10.46 7.75 11.48 7.77 12.50 7.86 C 12.48 8.51 12.43 9.83 12.41 10.49 C 11.42 10.50 10.43 10.51 9.44 10.53 C 9.44 9.86 9.43 8.52 9.43 7.86 Z" />
<path fill="#ffffff" opacity="1.00" d=" M 21.78 7.38 C 22.38 7.87 22.98 8.36 23.59 8.84 C 23.28 9.26 22.68 10.10 22.38 10.52 C 21.93 10.53 21.03 10.56 20.58 10.57 C 20.20 9.98 19.82 9.38 19.44 8.78 C 20.02 8.43 21.19 7.73 21.78 7.38 Z" />
<path fill="#ffffff" opacity="1.00" d=" M 30.29 8.76 C 30.77 8.40 31.71 7.67 32.18 7.31 C 32.53 7.55 33.22 8.05 33.56 8.30 C 33.60 8.86 33.67 9.97 33.71 10.52 C 33.12 10.52 31.93 10.51 31.34 10.51 C 30.99 9.92 30.64 9.34 30.29 8.76 Z" />
<path fill="#ffffff" opacity="1.00" d=" M 41.49 8.18 C 41.85 7.99 42.58 7.61 42.94 7.42 C 43.30 7.60 44.03 7.97 44.39 8.16 C 44.40 8.74 44.42 9.91 44.43 10.49 C 43.43 10.50 42.43 10.51 41.43 10.52 C 41.44 9.94 41.47 8.76 41.49 8.18 Z" />
<path fill="#ffffff" opacity="1.00" d=" M 53.69 7.65 C 54.35 8.02 55.01 8.39 55.68 8.76 C 55.25 9.37 54.83 9.99 54.40 10.61 C 53.95 10.60 53.05 10.57 52.60 10.56 C 52.22 9.87 51.85 9.18 51.47 8.49 C 52.03 8.28 53.14 7.86 53.69 7.65 Z" />
<path fill="#ffffff" opacity="1.00" d=" M 64.37 6.60 C 90.58 6.59 116.79 6.59 143.00 6.60 L 143.00 13.28 C 116.79 13.29 90.59 13.27 64.38 13.29 C 64.38 11.06 64.38 8.83 64.37 6.60 Z" />
<path fill="#ffffff" opacity="1.00" d=" M 4.25 15.24 C 4.41 14.16 4.57 13.08 4.76 12.01 C 5.71 12.34 6.66 12.66 7.62 12.97 C 7.23 13.77 6.84 14.56 6.45 15.35 C 5.90 15.32 4.80 15.27 4.25 15.24 Z" />
<path fill="#ffffff" opacity="1.00" d=" M 14.43 12.76 C 15.08 12.64 16.37 12.39 17.02 12.27 C 17.66 13.16 17.57 14.29 17.73 15.33 C 16.82 15.29 15.91 15.26 15.00 15.22 C 14.81 14.40 14.62 13.58 14.43 12.76 Z" />
<path fill="#ffffff" opacity="1.00" d=" M 25.44 12.40 C 26.49 12.52 27.55 12.62 28.61 12.71 C 28.45 13.56 28.29 14.41 28.13 15.26 C 27.32 15.28 26.51 15.30 25.71 15.32 C 25.59 14.35 25.50 13.38 25.44 12.40 Z" />
<path fill="#ffffff" opacity="1.00" d=" M 35.60 13.44 C 35.99 13.13 36.78 12.51 37.17 12.20 C 37.98 12.45 38.80 12.70 39.61 12.95 C 39.23 13.73 38.85 14.51 38.46 15.29 C 37.98 15.32 37.03 15.36 36.55 15.38 C 36.25 14.73 35.93 14.08 35.60 13.44 Z" />
<path fill="#ffffff" opacity="1.00" d=" M 46.29 12.80 C 46.98 12.66 48.37 12.40 49.06 12.26 C 49.66 13.15 49.44 14.23 49.49 15.23 C 48.97 15.26 47.93 15.33 47.42 15.36 C 47.04 14.51 46.66 13.65 46.29 12.80 Z" />
<path fill="#ffffff" opacity="1.00" d=" M 58.12 12.34 C 58.74 12.43 59.98 12.59 60.59 12.67 C 60.44 13.54 60.29 14.42 60.14 15.29 C 59.30 15.27 58.46 15.25 57.63 15.23 C 57.68 14.25 57.08 12.99 58.12 12.34 Z" />
<path fill="#ffffff" opacity="1.00" d=" M 9.36 17.58 C 9.75 17.26 10.54 16.62 10.93 16.31 C 11.35 16.68 12.19 17.42 12.62 17.79 C 12.42 18.74 12.23 19.70 12.04 20.66 C 11.79 20.27 11.30 19.49 11.05 19.10 C 10.75 19.49 10.14 20.27 9.83 20.66 C 9.67 19.63 9.51 18.60 9.36 17.58 Z" />
<path fill="#ffffff" opacity="1.00" d=" M 21.89 16.34 C 22.41 16.89 22.94 17.44 23.47 17.99 C 23.14 18.56 22.80 19.12 22.47 19.69 C 22.03 19.72 21.16 19.77 20.73 19.80 C 20.30 19.18 19.87 18.55 19.44 17.93 C 20.06 17.53 21.28 16.74 21.89 16.34 Z" />
<path fill="#ffffff" opacity="1.00" d=" M 30.33 17.94 C 31.00 17.35 31.67 16.77 32.34 16.18 C 33.10 17.18 33.62 18.32 33.94 19.54 C 33.32 19.61 32.08 19.75 31.47 19.82 C 31.18 19.35 30.61 18.41 30.33 17.94 Z" />
<path fill="#ffffff" opacity="1.00" d=" M 41.36 17.47 C 41.76 17.18 42.57 16.60 42.97 16.31 C 43.36 16.69 44.15 17.44 44.54 17.82 C 44.39 18.77 44.23 19.73 44.06 20.68 C 43.81 20.28 43.31 19.49 43.06 19.09 C 42.76 19.48 42.14 20.25 41.84 20.64 C 41.67 19.58 41.51 18.53 41.36 17.47 Z" />
<path fill="#ffffff" opacity="1.00" d=" M 53.49 16.39 C 54.15 16.91 54.81 17.44 55.48 17.96 C 55.14 18.56 54.80 19.17 54.46 19.77 C 54.03 19.78 53.17 19.79 52.74 19.80 C 52.29 19.15 51.83 18.50 51.36 17.85 C 51.89 17.49 52.95 16.75 53.49 16.39 Z" />
<path fill="#ffffff" opacity="1.00" d=" M 64.38 26.26 C 64.38 24.08 64.38 21.91 64.38 19.74 C 90.59 19.75 116.79 19.74 143.00 19.74 L 143.00 26.25 C 116.79 26.26 90.59 26.24 64.38 26.26 Z" />
<path fill="#ffffff" opacity="1.00" d=" M 4.90 20.98 C 5.80 21.48 6.70 21.98 7.60 22.48 C 7.22 23.17 6.85 23.87 6.51 24.59 C 5.92 24.53 4.74 24.41 4.15 24.35 C 4.38 23.22 4.64 22.10 4.90 20.98 Z" />
<path fill="#ffffff" opacity="1.00" d=" M 14.41 21.87 C 15.24 21.69 16.07 21.53 16.90 21.39 C 17.75 22.20 17.57 23.44 17.81 24.48 C 17.14 24.47 15.78 24.45 15.11 24.43 C 14.88 23.58 14.64 22.73 14.41 21.87 Z" />
<path fill="#ffffff" opacity="1.00" d=" M 25.31 21.76 C 26.39 21.72 27.48 21.71 28.56 21.69 C 28.43 22.61 28.31 23.53 28.18 24.45 C 27.36 24.47 26.54 24.49 25.71 24.51 C 25.61 23.82 25.41 22.45 25.31 21.76 Z" />
<path fill="#ffffff" opacity="1.00" d=" M 35.44 22.72 C 36.46 21.24 38.46 21.27 39.65 22.54 C 39.37 23.04 38.80 24.04 38.51 24.54 C 38.03 24.53 37.05 24.52 36.57 24.52 C 36.28 24.07 35.72 23.17 35.44 22.72 Z" />
<path fill="#ffffff" opacity="1.00" d=" M 46.42 21.87 C 47.24 21.69 48.06 21.54 48.88 21.40 C 49.88 22.10 49.39 23.40 49.55 24.42 C 48.94 24.43 47.71 24.45 47.09 24.46 C 46.87 23.59 46.65 22.73 46.42 21.87 Z" />
<path fill="#ffffff" opacity="1.00" d=" M 58.20 21.46 C 58.99 21.55 59.78 21.66 60.56 21.79 C 60.47 22.46 60.28 23.80 60.18 24.47 C 59.31 24.45 58.43 24.43 57.56 24.41 C 57.71 23.42 57.00 21.99 58.20 21.46 Z" />
<path fill="#ffffff" opacity="1.00" d=" M 9.38 27.02 C 9.91 26.40 10.43 25.78 10.96 25.16 C 11.47 25.78 11.99 26.39 12.50 27.01 C 12.41 27.78 12.21 29.32 12.11 30.09 C 11.85 29.61 11.32 28.64 11.06 28.15 C 10.75 28.61 10.14 29.54 9.83 30.00 C 9.72 29.25 9.49 27.77 9.38 27.02 Z" />
<path fill="#ffffff" opacity="1.00" d=" M 30.36 27.07 C 30.97 26.48 31.57 25.88 32.17 25.27 C 32.68 25.84 33.19 26.42 33.70 27.00 C 33.63 27.61 33.50 28.83 33.43 29.44 C 32.98 29.35 32.09 29.18 31.64 29.09 C 31.21 28.42 30.78 27.74 30.36 27.07 Z" />
<path fill="#ffffff" opacity="1.00" d=" M 41.37 27.00 C 41.91 26.38 42.45 25.77 43.00 25.17 C 43.37 25.62 44.10 26.54 44.47 27.00 C 44.35 28.04 44.23 29.08 44.12 30.12 C 43.85 29.63 43.32 28.63 43.05 28.13 C 42.75 28.61 42.14 29.56 41.84 30.04 C 41.72 29.28 41.49 27.76 41.37 27.00 Z" />
<path fill="#ffffff" opacity="1.00" d=" M 4.31 31.12 C 4.58 30.92 5.12 30.52 5.39 30.32 C 5.97 30.64 7.13 31.28 7.70 31.60 C 7.30 32.30 6.89 33.00 6.49 33.71 C 5.95 33.65 4.86 33.55 4.31 33.49 C 4.31 32.90 4.31 31.71 4.31 31.12 Z" />
<path fill="#ffffff" opacity="1.00" d=" M 14.49 30.98 C 16.70 29.61 18.03 31.39 17.82 33.62 C 17.10 33.60 15.65 33.56 14.93 33.55 C 14.79 32.69 14.64 31.84 14.49 30.98 Z" />
<path fill="#ffffff" opacity="1.00" d=" M 25.37 30.81 C 26.43 30.80 27.48 30.81 28.53 30.82 C 28.45 31.51 28.29 32.90 28.21 33.59 C 27.37 33.61 26.52 33.63 25.68 33.65 C 25.60 32.94 25.45 31.52 25.37 30.81 Z" />
<path fill="#ffffff" opacity="1.00" d=" M 37.41 30.35 C 38.17 30.77 38.93 31.19 39.70 31.61 C 39.31 32.29 38.92 32.96 38.53 33.64 C 38.03 33.64 37.02 33.63 36.52 33.63 C 36.18 32.98 35.83 32.32 35.48 31.67 C 35.96 31.34 36.92 30.68 37.41 30.35 Z" />
<path fill="#ffffff" opacity="1.00" d=" M 46.54 31.10 C 47.36 30.80 48.19 30.50 49.01 30.19 C 49.26 31.31 49.46 32.43 49.65 33.56 C 48.97 33.56 47.61 33.57 46.93 33.58 C 46.80 32.75 46.67 31.93 46.54 31.10 Z" />
<path fill="#ffffff" opacity="1.00" d=" M 57.30 30.79 C 58.38 30.68 59.45 30.72 60.53 30.83 C 60.45 31.52 60.29 32.91 60.22 33.60 C 59.37 33.58 58.53 33.56 57.68 33.55 C 57.59 32.86 57.40 31.48 57.30 30.79 Z" />
<path fill="#ffffff" opacity="1.00" d=" M 64.38 39.44 C 64.38 37.21 64.38 34.99 64.38 32.76 C 90.59 32.78 116.79 32.76 143.00 32.77 L 143.00 39.44 C 116.79 39.44 90.58 39.44 64.38 39.44 Z" />
<path fill="#ffffff" opacity="1.00" d=" M 9.66 35.48 C 10.63 35.45 11.61 35.45 12.58 35.48 C 12.49 36.45 12.41 37.43 12.32 38.40 C 11.36 38.40 10.40 38.41 9.44 38.43 C 9.41 37.44 9.48 36.45 9.66 35.48 Z" />
<path fill="#ffffff" opacity="1.00" d=" M 19.18 35.84 C 19.81 35.71 21.06 35.44 21.68 35.30 C 22.16 35.43 23.11 35.69 23.59 35.82 C 23.19 36.63 22.80 37.44 22.41 38.25 C 21.91 38.30 20.91 38.39 20.41 38.44 C 20.53 37.33 20.06 36.47 19.18 35.84 Z" />
<path fill="#ffffff" opacity="1.00" d=" M 30.21 35.63 C 31.73 35.45 33.26 35.50 34.77 35.74 C 33.85 36.41 33.25 37.26 33.55 38.46 C 33.05 38.40 32.04 38.28 31.54 38.22 C 31.09 37.36 30.65 36.50 30.21 35.63 Z" />
<path fill="#ffffff" opacity="1.00" d=" M 40.50 35.75 C 41.83 35.60 43.17 35.44 44.51 35.50 C 44.45 36.47 44.39 37.44 44.33 38.41 C 43.42 38.39 42.51 38.38 41.60 38.37 C 41.73 37.30 41.26 36.45 40.50 35.75 Z" />
<path fill="#ffffff" opacity="1.00" d=" M 51.14 35.66 C 52.69 35.60 54.25 35.62 55.80 35.69 C 55.15 36.47 54.72 37.36 54.51 38.36 C 54.00 38.37 53.00 38.38 52.50 38.38 C 52.45 37.29 51.87 36.42 51.14 35.66 Z" />
<path fill="#ffffff" opacity="1.00" d=" M 4.95 39.35 C 5.84 39.80 6.74 40.24 7.63 40.68 C 7.26 41.39 6.88 42.10 6.50 42.80 C 5.89 42.72 4.65 42.55 4.04 42.47 C 4.34 41.43 4.63 40.38 4.95 39.35 Z" />
<path fill="#ffffff" opacity="1.00" d=" M 16.63 39.51 C 16.86 39.71 17.32 40.11 17.56 40.31 C 17.60 40.89 17.68 42.05 17.72 42.63 C 17.11 42.65 15.90 42.69 15.29 42.71 C 14.96 42.02 14.63 41.32 14.30 40.63 C 14.88 40.35 16.05 39.79 16.63 39.51 Z" />
<path fill="#ffffff" opacity="1.00" d=" M 37.43 39.58 C 38.18 39.95 38.92 40.33 39.67 40.70 C 39.29 41.37 38.91 42.04 38.53 42.71 C 38.03 42.71 37.02 42.73 36.52 42.73 C 36.17 42.07 35.82 41.41 35.46 40.76 C 35.95 40.47 36.94 39.88 37.43 39.58 Z" />
<path fill="#ffffff" opacity="1.00" d=" M 48.64 39.52 C 48.87 39.71 49.33 40.08 49.56 40.27 C 49.55 40.84 49.53 41.98 49.51 42.55 C 48.96 42.60 47.86 42.71 47.31 42.76 C 46.98 42.05 46.64 41.34 46.30 40.63 C 46.88 40.35 48.05 39.80 48.64 39.52 Z" />
<path fill="#ffffff" opacity="1.00" d=" M 57.64 40.22 C 58.51 39.22 59.81 39.88 60.70 40.44 C 60.56 40.95 60.28 41.97 60.13 42.48 C 59.01 42.64 57.80 42.73 57.35 43.95 C 57.45 42.71 57.55 41.46 57.64 40.22 Z" />
<path fill="#ffffff" opacity="1.00" d=" M 25.38 40.17 C 26.43 40.19 27.49 40.21 28.54 40.23 C 28.38 41.39 28.23 42.56 28.09 43.72 C 27.83 43.31 27.32 42.48 27.06 42.07 C 26.75 42.46 26.13 43.23 25.83 43.61 C 25.68 42.46 25.53 41.32 25.38 40.17 Z" />
<path fill="#ffffff" opacity="1.00" d=" M 0.00 45.73 C 21.45 45.76 42.91 45.74 64.36 45.74 C 90.57 45.72 116.79 45.74 143.00 45.73 L 143.00 52.40 C 95.33 52.40 47.67 52.38 0.00 52.41 L 0.00 45.73 Z" />
<path fill="#ffffff" opacity="1.00" d=" M 0.00 58.84 C 1.67 59.02 3.35 59.11 5.03 59.14 C 51.02 59.12 97.01 59.14 143.00 59.13 L 143.00 65.43 C 95.33 65.44 47.67 65.43 0.00 65.44 L 0.00 58.84 Z" />
<path fill="#ffffff" opacity="1.00" d=" M 0.00 71.78 C 3.64 72.40 7.33 72.16 11.00 72.17 C 55.00 72.17 99.00 72.17 143.00 72.17 L 143.00 78.57 C 95.33 78.57 47.67 78.56 0.00 78.57 L 0.00 71.78 Z" />
</g>
</svg>
