<?xml version="1.0" encoding="UTF-8" ?>
<!DOCTYPE svg PUBLIC "-//W3C//DTD SVG 1.1//EN" "http://www.w3.org/Graphics/SVG/1.1/DTD/svg11.dtd">
<svg width="128pt" height="85pt" viewBox="0 0 128 85" version="1.1" xmlns="http://www.w3.org/2000/svg">
<g id="#007c58ff">
<path fill="#007c58" opacity="1.00" d=" M 0.00 0.00 L 15.29 0.00 C 32.57 11.23 49.54 22.99 66.93 34.03 C 87.28 34.14 107.64 33.99 128.00 34.11 L 128.00 51.09 C 107.63 50.76 87.26 50.98 66.89 50.97 C 49.56 62.06 32.56 73.72 15.34 85.00 L 0.00 85.00 L 0.00 74.82 C 16.17 64.03 32.35 53.28 48.58 42.58 C 32.51 31.60 16.10 21.08 0.00 10.14 L 0.00 0.00 Z" />
</g>
<g id="#ffffffff">
<path fill="#ffffff" opacity="1.00" d=" M 15.29 0.00 L 25.66 0.00 C 39.78 9.47 53.96 18.85 68.14 28.22 C 88.07 28.55 108.05 28.27 128.00 28.36 L 128.00 34.11 C 107.64 33.99 87.28 34.14 66.93 34.03 C 49.54 22.99 32.57 11.23 15.29 0.00 Z" />
<path fill="#ffffff" opacity="1.00" d=" M 15.34 85.00 C 32.56 73.72 49.56 62.06 66.89 50.97 C 87.26 50.98 107.63 50.76 128.00 51.09 L 128.00 56.66 C 108.66 56.61 89.32 56.68 69.99 56.62 C 68.24 56.31 66.94 57.52 65.60 58.42 C 52.30 67.30 38.93 76.08 25.65 85.00 L 15.34 85.00 Z" />
</g>
<g id="#e23d29ff">
<path fill="#e23d29" opacity="1.00" d=" M 25.66 0.00 L 128.00 0.00 L 128.00 28.36 C 108.05 28.27 88.07 28.55 68.14 28.22 C 53.96 18.85 39.78 9.47 25.66 0.00 Z" />
</g>
<g id="#fdb515ff">
<path fill="#fdb515" opacity="1.00" d=" M 0.00 10.14 C 16.10 21.08 32.51 31.60 48.58 42.58 C 32.35 53.28 16.17 64.03 0.00 74.82 L 0.00 67.96 C 12.77 59.46 25.62 51.07 38.32 42.46 C 25.54 33.99 12.78 25.49 0.00 17.04 L 0.00 10.14 Z" />
</g>
<g id="#000000ff">
<path fill="#000000" opacity="1.00" d=" M 0.00 17.04 C 12.78 25.49 25.54 33.99 38.32 42.46 C 25.62 51.07 12.77 59.46 0.00 67.96 L 0.00 17.04 Z" />
</g>
<g id="#0c1c8dff">
<path fill="#0c1c8d" opacity="1.00" d=" M 65.60 58.42 C 66.94 57.52 68.24 56.31 69.99 56.62 C 89.32 56.68 108.66 56.61 128.00 56.66 L 128.00 85.00 L 25.65 85.00 C 38.93 76.08 52.30 67.30 65.60 58.42 Z" />
</g>
</svg>
