<?xml version="1.0" encoding="UTF-8" ?>
<!DOCTYPE svg PUBLIC "-//W3C//DTD SVG 1.1//EN" "http://www.w3.org/Graphics/SVG/1.1/DTD/svg11.dtd">
<svg width="512pt" height="512pt" viewBox="0 0 512 512" version="1.1" xmlns="http://www.w3.org/2000/svg">
<g id="#74acdfff">
<path fill="#74acdf" opacity="1.00" d=" M 0.00 0.00 L 512.00 0.00 L 512.00 170.87 C 486.66 170.47 461.31 170.82 435.97 170.70 C 290.64 170.70 145.32 170.70 0.00 170.70 L 0.00 0.00 Z" />
<path fill="#74acdf" opacity="1.00" d=" M 226.23 240.27 C 226.75 240.83 226.75 240.83 226.23 240.27 Z" />
<path fill="#74acdf" opacity="1.00" d=" M 0.00 341.17 C 15.97 341.74 31.97 341.25 47.96 341.41 C 202.64 341.41 357.32 341.41 512.00 341.41 L 512.00 512.00 L 0.00 512.00 L 0.00 341.17 Z" />
</g>
<g id="#ffffffff">
<path fill="#ffffff" opacity="1.00" d=" M 0.00 170.70 C 145.32 170.70 290.64 170.70 435.97 170.70 C 461.31 170.82 486.66 170.47 512.00 170.87 L 512.00 341.41 C 357.32 341.41 202.64 341.41 47.96 341.41 C 31.97 341.25 15.97 341.74 0.00 341.17 L 0.00 170.70 M 254.83 184.61 C 254.07 187.69 254.17 190.89 254.03 194.04 C 254.02 204.00 253.23 213.94 252.87 223.89 C 251.79 220.95 250.73 218.00 249.91 214.98 C 248.57 210.60 249.90 205.92 248.56 201.54 C 247.60 198.11 245.53 195.15 244.16 191.90 C 243.65 189.91 244.45 187.90 244.78 185.95 C 242.30 185.03 240.89 187.86 240.77 189.90 C 240.19 193.16 241.38 196.33 242.73 199.25 C 244.72 203.22 244.05 207.78 244.04 212.06 C 243.95 216.61 245.75 220.87 246.83 225.22 C 245.99 223.99 245.25 222.71 244.66 221.36 C 240.34 211.72 235.82 202.17 231.49 192.54 C 230.87 191.30 230.28 189.58 228.64 189.53 C 226.90 190.47 228.02 192.33 228.40 193.73 C 232.47 205.14 237.15 216.35 240.78 227.90 C 238.99 225.49 237.00 223.25 235.05 220.98 C 232.12 217.53 231.50 212.78 228.78 209.20 C 226.68 206.30 223.71 204.26 221.14 201.83 C 219.37 200.37 219.39 197.91 218.80 195.89 C 216.33 195.04 216.20 198.27 216.45 199.93 C 216.88 203.63 219.55 206.38 222.14 208.79 C 224.92 211.30 226.30 214.87 227.58 218.30 C 229.21 223.03 232.20 227.23 235.86 230.61 C 235.20 230.63 233.88 230.68 233.22 230.70 C 233.12 230.50 232.92 230.10 232.82 229.90 C 232.58 229.70 232.12 229.30 231.89 229.11 C 231.68 228.88 231.27 228.42 231.07 228.19 C 230.83 228.13 230.37 228.02 230.13 227.96 L 230.83 226.85 C 224.08 220.70 217.33 214.54 210.72 208.24 C 209.00 206.71 207.36 204.66 204.81 204.78 C 204.64 208.13 207.81 210.00 209.68 212.31 C 216.71 219.97 224.03 227.37 230.73 235.32 C 226.13 233.13 221.14 231.23 217.79 227.20 C 214.16 222.90 208.75 221.05 203.55 219.50 C 201.14 218.96 200.14 216.61 198.75 214.86 C 196.09 214.27 196.93 217.75 197.85 219.10 C 200.87 224.98 208.69 224.50 212.70 229.35 C 216.36 233.39 220.34 237.29 225.54 239.30 L 225.44 240.23 C 216.33 236.79 207.18 233.47 198.06 230.06 C 195.65 229.21 193.32 228.03 190.77 227.72 C 188.80 227.95 189.66 230.55 191.12 230.80 C 202.43 236.28 214.09 241.06 225.28 246.78 C 221.60 246.39 217.90 246.21 214.23 245.71 C 210.77 244.82 207.67 242.84 204.13 242.21 C 200.44 241.61 196.71 242.18 193.01 242.33 C 190.71 242.53 189.03 240.67 187.06 239.82 C 184.88 240.80 186.92 242.94 187.98 243.97 C 191.21 246.99 195.87 246.45 199.93 246.58 C 205.19 246.70 209.48 250.16 214.46 251.37 C 217.91 252.21 221.48 252.21 224.99 252.52 C 211.87 254.18 198.57 253.44 185.43 254.68 C 183.30 254.84 184.17 257.68 186.00 257.49 C 198.42 258.41 210.95 257.99 223.34 259.37 C 220.57 260.34 217.80 261.30 214.97 262.09 C 210.37 263.47 205.40 261.98 200.85 263.66 C 197.39 264.66 194.51 267.08 191.05 268.01 C 189.24 268.50 185.78 265.84 185.65 268.90 C 188.78 272.75 194.68 271.48 198.58 269.55 C 204.34 266.39 211.04 268.94 217.13 267.38 C 219.90 266.72 222.60 265.83 225.36 265.18 C 216.92 269.71 207.97 273.25 199.34 277.42 C 196.21 279.06 192.66 279.99 189.84 282.17 C 188.66 284.42 191.52 284.63 192.91 283.87 C 204.61 279.79 216.05 274.90 227.88 271.24 C 225.50 273.02 223.27 274.99 221.02 276.92 C 217.34 280.04 212.20 280.59 208.54 283.74 C 204.26 286.97 201.92 293.41 195.67 293.14 C 195.49 295.90 199.00 295.95 200.91 295.33 C 206.80 294.07 209.23 287.43 214.96 285.74 C 220.74 283.79 226.29 280.94 230.44 276.36 C 230.50 276.98 230.62 278.21 230.68 278.83 C 230.46 278.87 230.00 278.93 229.77 278.97 C 229.62 279.21 229.33 279.69 229.19 279.93 C 229.12 280.15 228.98 280.61 228.91 280.84 L 227.96 280.04 C 221.37 287.10 214.92 294.29 208.25 301.27 C 206.72 302.99 204.65 304.62 204.79 307.18 C 206.23 307.17 207.64 306.82 208.64 305.71 C 217.10 297.85 225.52 289.94 234.08 282.19 L 233.15 281.54 C 233.23 281.44 233.37 281.22 233.45 281.12 C 233.83 281.43 234.60 282.06 234.98 282.38 C 233.82 284.44 232.80 286.57 231.70 288.66 C 229.67 292.75 225.42 295.10 223.18 299.05 C 221.22 302.11 220.59 305.75 219.24 309.09 C 218.58 311.15 216.38 311.93 214.87 313.24 C 214.21 315.62 217.19 315.20 218.51 314.45 C 222.27 312.80 224.05 308.90 225.34 305.26 C 227.48 299.27 233.78 296.42 236.86 291.06 C 238.01 289.12 239.10 287.15 240.22 285.20 C 240.49 285.40 241.02 285.80 241.29 286.01 L 240.75 286.62 L 240.00 286.98 C 240.15 287.42 240.45 288.31 240.60 288.76 L 239.53 288.02 C 235.92 298.76 231.58 309.25 227.92 319.97 C 226.84 321.89 229.40 323.50 230.46 321.48 C 236.16 310.06 240.88 298.12 246.77 286.80 C 246.38 290.48 246.21 294.18 245.69 297.85 C 244.78 301.26 242.85 304.34 242.22 307.84 C 241.54 311.83 242.31 315.85 242.31 319.86 C 242.28 322.07 239.47 323.55 240.17 325.80 C 242.29 326.20 243.86 324.31 244.91 322.74 C 247.18 319.26 246.23 314.97 246.66 311.09 C 247.06 306.45 249.97 302.61 251.19 298.21 C 252.35 294.36 252.14 290.29 252.36 286.33 L 252.62 286.35 C 253.72 298.86 253.84 311.44 254.36 323.99 C 254.28 325.68 254.70 329.19 257.20 327.33 C 257.91 324.29 257.83 321.13 257.97 318.04 C 257.98 308.05 258.73 298.09 259.15 288.12 C 260.22 291.08 261.29 294.05 262.11 297.10 C 263.35 301.25 262.22 305.65 263.27 309.83 C 264.12 313.29 266.09 316.31 267.59 319.50 C 268.58 321.59 267.56 323.89 267.21 326.02 C 267.64 326.06 268.52 326.14 268.96 326.18 C 272.81 323.19 271.41 317.26 269.56 313.45 C 267.32 309.31 267.88 304.51 267.95 300.01 C 268.05 295.47 266.29 291.22 265.17 286.90 C 265.83 287.82 266.48 288.77 266.95 289.81 C 271.31 299.53 275.87 309.16 280.23 318.88 C 280.77 319.98 281.24 321.16 282.10 322.07 C 284.41 323.49 284.62 320.54 283.87 319.08 C 279.71 307.63 275.36 296.25 271.23 284.79 C 273.39 286.91 275.51 289.10 277.34 291.52 C 280.12 295.15 280.73 299.98 283.74 303.47 C 286.98 307.75 293.42 310.07 293.14 316.33 C 295.75 316.51 295.91 313.35 295.44 311.50 C 294.82 307.75 291.87 305.18 289.32 302.66 C 286.03 299.42 285.05 294.76 283.19 290.70 C 281.75 287.46 279.19 284.93 277.22 282.03 C 277.59 281.81 278.34 281.38 278.71 281.16 C 278.81 281.39 279.00 281.86 279.10 282.10 C 279.30 282.30 279.68 282.69 279.87 282.89 C 280.09 282.99 280.53 283.20 280.75 283.30 L 280.02 284.00 C 287.08 290.62 294.28 297.07 301.27 303.75 C 302.99 305.27 304.62 307.36 307.19 307.21 C 307.16 305.77 306.82 304.37 305.73 303.38 C 297.82 294.93 289.98 286.40 282.10 277.91 L 281.51 279.03 C 281.41 278.87 281.21 278.56 281.12 278.41 L 281.67 277.56 L 281.35 276.23 C 284.16 278.38 287.60 279.45 290.52 281.42 C 293.54 283.67 295.73 286.91 299.03 288.81 C 302.10 290.78 305.75 291.39 309.09 292.75 C 311.17 293.42 311.95 295.63 313.27 297.17 C 315.57 297.71 315.21 294.88 314.49 293.57 C 312.85 289.77 308.93 287.95 305.26 286.66 C 299.27 284.51 296.41 278.22 291.07 275.14 C 288.98 273.88 286.83 272.72 284.69 271.55 C 285.18 271.47 286.15 271.30 286.64 271.22 L 286.74 271.17 L 287.07 271.96 C 287.51 271.83 288.40 271.57 288.84 271.43 L 288.01 272.44 C 298.77 276.10 309.29 280.43 320.04 284.09 C 321.90 285.19 323.32 282.63 321.59 281.64 C 310.07 275.82 298.01 271.02 286.50 265.15 C 289.65 265.49 292.81 265.77 295.96 266.05 C 299.48 266.25 302.48 268.30 305.80 269.26 C 310.35 270.78 315.17 269.69 319.85 269.67 C 322.09 269.73 323.53 272.54 325.86 271.82 C 325.48 266.32 318.50 265.08 314.03 265.47 C 307.15 266.07 301.74 260.91 295.13 260.16 C 292.45 259.82 289.75 259.72 287.06 259.48 C 297.99 258.26 309.00 258.15 319.98 257.85 C 322.37 257.63 324.88 257.90 327.18 257.09 C 329.16 255.81 326.53 254.06 325.05 254.38 C 312.96 253.83 300.84 253.70 288.76 252.81 C 291.43 251.58 294.23 250.64 297.07 249.90 C 301.63 248.53 306.55 250.00 311.07 248.36 C 314.28 247.37 317.06 245.42 320.14 244.15 C 322.12 243.66 324.12 244.46 326.06 244.78 C 326.94 242.32 324.18 240.90 322.14 240.78 C 318.85 240.17 315.65 241.39 312.71 242.75 C 308.78 244.71 304.27 244.05 300.04 244.04 C 295.46 243.93 291.18 245.74 286.81 246.82 C 298.07 240.69 310.19 236.18 321.60 230.31 C 323.40 229.39 321.75 226.64 319.99 227.88 C 307.93 231.89 296.24 237.04 284.09 240.77 C 286.50 239.01 288.72 237.01 290.98 235.07 C 294.44 232.12 299.20 231.51 302.80 228.78 C 305.69 226.68 307.74 223.71 310.17 221.13 C 311.62 219.37 314.08 219.39 316.11 218.81 C 316.93 216.34 313.73 216.19 312.08 216.45 C 308.34 216.88 305.59 219.58 303.16 222.19 C 300.08 225.59 295.51 226.77 291.42 228.49 C 287.54 230.15 284.32 232.97 281.24 235.79 C 281.75 234.64 282.27 233.49 282.80 232.34 C 282.93 232.25 283.19 232.06 283.33 231.97 C 283.50 231.81 283.85 231.49 284.03 231.33 C 284.10 231.21 284.22 230.95 284.29 230.83 C 287.31 229.03 289.34 226.08 291.77 223.61 C 296.30 218.49 301.12 213.64 305.70 208.57 C 306.76 207.58 307.14 206.21 307.21 204.81 C 304.62 204.58 302.95 206.67 301.22 208.23 C 293.89 215.27 286.26 222.00 278.91 229.03 L 278.17 230.85 L 279.04 230.23 C 278.79 230.50 278.28 231.04 278.02 231.31 C 277.36 230.85 276.03 229.94 275.36 229.48 L 277.04 230.29 C 278.25 227.24 279.62 224.23 281.42 221.48 C 283.84 218.26 287.35 215.92 289.21 212.27 C 291.26 208.90 291.51 204.78 293.57 201.44 C 294.66 199.93 298.06 199.51 296.92 197.14 C 294.52 196.49 292.27 198.02 290.61 199.58 C 287.32 202.67 287.14 207.64 284.20 210.99 C 280.66 215.34 275.00 218.48 273.79 224.34 L 273.11 224.69 C 273.20 225.05 273.37 225.78 273.46 226.15 L 272.58 225.79 C 272.20 226.12 271.44 226.77 271.06 227.10 C 275.38 216.24 279.18 205.19 283.36 194.28 C 283.72 192.90 284.68 191.40 283.98 189.98 C 282.99 189.05 281.66 189.98 281.24 191.02 C 275.75 202.38 270.92 214.07 265.21 225.32 C 265.62 221.57 265.77 217.79 266.33 214.06 C 267.25 210.68 269.15 207.61 269.78 204.14 C 270.47 200.16 269.67 196.14 269.67 192.15 C 269.87 190.20 271.61 188.88 272.04 187.03 C 271.55 184.96 269.31 186.74 268.45 187.53 C 265.03 190.74 265.50 195.72 265.41 199.98 C 265.28 205.23 261.82 209.51 260.62 214.49 C 259.79 217.92 259.81 221.46 259.47 224.96 C 258.25 214.00 258.16 202.95 257.85 191.94 C 257.64 189.40 257.85 186.73 256.95 184.30 C 256.42 184.38 255.36 184.53 254.83 184.61 Z" />
</g>
<g id="#c57f17ff">
<path fill="#c57f17" opacity="1.00" d=" M 254.83 184.61 C 255.36 184.53 256.42 184.38 256.95 184.30 C 257.85 186.73 257.64 189.40 257.85 191.94 C 258.16 202.95 258.25 214.00 259.47 224.96 C 259.81 221.46 259.79 217.92 260.62 214.49 C 261.82 209.51 265.28 205.23 265.41 199.98 C 265.50 195.72 265.03 190.74 268.45 187.53 C 269.31 186.74 271.55 184.96 272.04 187.03 C 271.61 188.88 269.87 190.20 269.67 192.15 C 269.67 196.14 270.47 200.16 269.78 204.14 C 269.15 207.61 267.25 210.68 266.33 214.06 C 265.77 217.79 265.62 221.57 265.21 225.32 C 270.92 214.07 275.75 202.38 281.24 191.02 C 281.66 189.98 282.99 189.05 283.98 189.98 C 284.68 191.40 283.72 192.90 283.36 194.28 C 279.18 205.19 275.38 216.24 271.06 227.10 C 271.44 226.77 272.20 226.12 272.58 225.79 L 273.46 226.15 C 273.17 227.92 271.80 229.26 270.97 230.79 C 272.24 229.86 273.50 228.92 274.78 228.00 C 274.28 229.67 273.80 231.36 273.32 233.04 C 274.01 231.86 274.70 230.68 275.36 229.48 C 276.03 229.94 277.36 230.85 278.02 231.31 C 277.38 232.47 276.65 233.57 275.94 234.69 C 276.56 234.40 277.81 233.81 278.43 233.52 C 278.43 234.02 278.42 235.03 278.42 235.53 C 279.80 234.37 281.26 233.30 282.80 232.34 C 282.27 233.49 281.75 234.64 281.24 235.79 C 284.32 232.97 287.54 230.15 291.42 228.49 C 295.51 226.77 300.08 225.59 303.16 222.19 C 305.59 219.58 308.34 216.88 312.08 216.45 C 313.73 216.19 316.93 216.34 316.11 218.81 C 314.08 219.39 311.62 219.37 310.17 221.13 C 307.74 223.71 305.69 226.68 302.80 228.78 C 299.20 231.51 294.44 232.12 290.98 235.07 C 288.72 237.01 286.50 239.01 284.09 240.77 C 296.24 237.04 307.93 231.89 319.99 227.88 C 321.75 226.64 323.40 229.39 321.60 230.31 C 310.19 236.18 298.07 240.69 286.81 246.82 C 291.18 245.74 295.46 243.93 300.04 244.04 C 304.27 244.05 308.78 244.71 312.71 242.75 C 315.65 241.39 318.85 240.17 322.14 240.78 C 324.18 240.90 326.94 242.32 326.06 244.78 C 324.12 244.46 322.12 243.66 320.14 244.15 C 317.06 245.42 314.28 247.37 311.07 248.36 C 306.55 250.00 301.63 248.53 297.07 249.90 C 294.23 250.64 291.43 251.58 288.76 252.81 C 300.84 253.70 312.96 253.83 325.05 254.38 C 326.53 254.06 329.16 255.81 327.18 257.09 C 324.88 257.90 322.37 257.63 319.98 257.85 C 309.00 258.15 297.99 258.26 287.06 259.48 C 289.75 259.72 292.45 259.82 295.13 260.16 C 301.74 260.91 307.15 266.07 314.03 265.47 C 318.50 265.08 325.48 266.32 325.86 271.82 C 323.53 272.54 322.09 269.73 319.85 269.67 C 315.17 269.69 310.35 270.78 305.80 269.26 C 302.48 268.30 299.48 266.25 295.96 266.05 C 292.81 265.77 289.65 265.49 286.50 265.15 C 298.01 271.02 310.07 275.82 321.59 281.64 C 323.32 282.63 321.90 285.19 320.04 284.09 C 309.29 280.43 298.77 276.10 288.01 272.44 L 288.84 271.43 C 297.62 273.28 305.47 278.01 314.22 280.02 C 304.01 274.88 293.54 270.23 283.05 265.71 C 284.07 266.68 285.09 267.66 286.12 268.64 C 285.10 268.52 283.05 268.29 282.03 268.17 C 283.69 268.98 285.29 269.94 286.64 271.22 C 286.15 271.30 285.18 271.47 284.69 271.55 C 286.83 272.72 288.98 273.88 291.07 275.14 C 296.41 278.22 299.27 284.51 305.26 286.66 C 308.93 287.95 312.85 289.77 314.49 293.57 C 315.21 294.88 315.57 297.71 313.27 297.17 C 311.95 295.63 311.17 293.42 309.09 292.75 C 305.75 291.39 302.10 290.78 299.03 288.81 C 295.73 286.91 293.54 283.67 290.52 281.42 C 287.60 279.45 284.16 278.38 281.35 276.23 L 281.67 277.56 L 281.12 278.41 C 279.85 277.54 278.57 276.71 277.29 275.89 C 277.58 276.52 278.16 277.77 278.46 278.40 C 277.90 278.41 276.78 278.42 276.22 278.43 C 277.05 279.33 277.88 280.24 278.71 281.16 C 278.34 281.38 277.59 281.81 277.22 282.03 C 279.19 284.93 281.75 287.46 283.19 290.70 C 285.05 294.76 286.03 299.42 289.32 302.66 C 291.87 305.18 294.82 307.75 295.44 311.50 C 295.91 313.35 295.75 316.51 293.14 316.33 C 293.42 310.07 286.98 307.75 283.74 303.47 C 280.73 299.98 280.12 295.15 277.34 291.52 C 275.51 289.10 273.39 286.91 271.23 284.79 C 275.36 296.25 279.71 307.63 283.87 319.08 C 284.62 320.54 284.41 323.49 282.10 322.07 C 281.24 321.16 280.77 319.98 280.23 318.88 C 275.87 309.16 271.31 299.53 266.95 289.81 C 266.48 288.77 265.83 287.82 265.17 286.90 C 266.29 291.22 268.05 295.47 267.95 300.01 C 267.88 304.51 267.32 309.31 269.56 313.45 C 271.41 317.26 272.81 323.19 268.96 326.18 C 268.52 326.14 267.64 326.06 267.21 326.02 C 267.56 323.89 268.58 321.59 267.59 319.50 C 266.09 316.31 264.12 313.29 263.27 309.83 C 262.22 305.65 263.35 301.25 262.11 297.10 C 261.29 294.05 260.22 291.08 259.15 288.12 C 258.73 298.09 257.98 308.05 257.97 318.04 C 257.83 321.13 257.91 324.29 257.20 327.33 C 254.70 329.19 254.28 325.68 254.36 323.99 C 253.84 311.44 253.72 298.86 252.62 286.35 L 252.36 286.33 C 252.14 290.29 252.35 294.36 251.19 298.21 C 249.97 302.61 247.06 306.45 246.66 311.09 C 246.23 314.97 247.18 319.26 244.91 322.74 C 243.86 324.31 242.29 326.20 240.17 325.80 C 239.47 323.55 242.28 322.07 242.31 319.86 C 242.31 315.85 241.54 311.83 242.22 307.84 C 242.85 304.34 244.78 301.26 245.69 297.85 C 246.21 294.18 246.38 290.48 246.77 286.80 C 240.88 298.12 236.16 310.06 230.46 321.48 C 229.40 323.50 226.84 321.89 227.92 319.97 C 231.58 309.25 235.92 298.76 239.53 288.02 L 240.60 288.76 C 238.77 297.58 234.03 305.47 231.95 314.23 C 236.00 306.72 239.05 298.72 242.95 291.13 C 242.32 291.47 241.05 292.15 240.42 292.49 C 241.47 288.99 242.68 285.54 244.01 282.15 C 243.16 283.47 242.34 284.83 241.29 286.01 C 241.02 285.80 240.49 285.40 240.22 285.20 C 239.10 287.15 238.01 289.12 236.86 291.06 C 233.78 296.42 227.48 299.27 225.34 305.26 C 224.05 308.90 222.27 312.80 218.51 314.45 C 217.19 315.20 214.21 315.62 214.87 313.24 C 216.38 311.93 218.58 311.15 219.24 309.09 C 220.59 305.75 221.22 302.11 223.18 299.05 C 225.42 295.10 229.67 292.75 231.70 288.66 C 232.80 286.57 233.82 284.44 234.98 282.38 C 234.60 282.06 233.83 281.43 233.45 281.12 C 234.34 279.84 235.25 278.57 236.16 277.31 C 235.53 277.60 234.26 278.17 233.62 278.46 C 233.62 277.90 233.60 276.78 233.59 276.22 C 232.62 277.08 231.65 277.95 230.68 278.83 C 230.62 278.21 230.50 276.98 230.44 276.36 C 226.29 280.94 220.74 283.79 214.96 285.74 C 209.23 287.43 206.80 294.07 200.91 295.33 C 199.00 295.95 195.49 295.90 195.67 293.14 C 201.92 293.41 204.26 286.97 208.54 283.74 C 212.20 280.59 217.34 280.04 221.02 276.92 C 223.27 274.99 225.50 273.02 227.88 271.24 C 216.05 274.90 204.61 279.79 192.91 283.87 C 191.52 284.63 188.66 284.42 189.84 282.17 C 192.66 279.99 196.21 279.06 199.34 277.42 C 207.97 273.25 216.92 269.71 225.36 265.18 C 222.60 265.83 219.90 266.72 217.13 267.38 C 211.04 268.94 204.34 266.39 198.58 269.55 C 194.68 271.48 188.78 272.75 185.65 268.90 C 185.78 265.84 189.24 268.50 191.05 268.01 C 194.51 267.08 197.39 264.66 200.85 263.66 C 205.40 261.98 210.37 263.47 214.97 262.09 C 217.80 261.30 220.57 260.34 223.34 259.37 C 210.95 257.99 198.42 258.41 186.00 257.49 C 184.17 257.68 183.30 254.84 185.43 254.68 C 198.57 253.44 211.87 254.18 224.99 252.52 C 221.48 252.21 217.91 252.21 214.46 251.37 C 209.48 250.16 205.19 246.70 199.93 246.58 C 195.87 246.45 191.21 246.99 187.98 243.97 C 186.92 242.94 184.88 240.80 187.06 239.82 C 189.03 240.67 190.71 242.53 193.01 242.33 C 196.71 242.18 200.44 241.61 204.13 242.21 C 207.67 242.84 210.77 244.82 214.23 245.71 C 217.90 246.21 221.60 246.39 225.28 246.78 C 214.09 241.06 202.43 236.28 191.12 230.80 C 189.66 230.55 188.80 227.95 190.77 227.72 C 193.32 228.03 195.65 229.21 198.06 230.06 C 207.18 233.47 216.33 236.79 225.44 240.23 L 225.54 239.30 C 220.34 237.29 216.36 233.39 212.70 229.35 C 208.69 224.50 200.87 224.98 197.85 219.10 C 196.93 217.75 196.09 214.27 198.75 214.86 C 200.14 216.61 201.14 218.96 203.55 219.50 C 208.75 221.05 214.16 222.90 217.79 227.20 C 221.14 231.23 226.13 233.13 230.73 235.32 C 224.03 227.37 216.71 219.97 209.68 212.31 C 207.81 210.00 204.64 208.13 204.81 204.78 C 207.36 204.66 209.00 206.71 210.72 208.24 C 217.33 214.54 224.08 220.70 230.83 226.85 L 230.13 227.96 C 226.79 226.41 224.61 223.36 222.02 220.86 C 219.05 217.95 216.01 215.09 212.63 212.65 C 212.46 212.48 212.12 212.14 211.95 211.97 C 211.78 211.78 211.43 211.42 211.26 211.23 C 210.99 210.92 210.45 210.31 210.18 210.00 C 209.91 209.75 209.37 209.23 209.10 208.98 C 208.99 208.88 208.77 208.70 208.66 208.61 C 208.77 208.70 208.99 208.88 209.10 208.98 C 209.37 209.23 209.91 209.75 210.18 210.00 C 210.45 210.31 210.99 210.92 211.26 211.23 C 211.43 211.42 211.78 211.78 211.95 211.97 C 212.12 212.14 212.46 212.48 212.63 212.65 L 212.86 213.43 C 216.82 219.25 222.95 223.26 227.00 229.06 C 229.32 231.46 231.34 234.50 234.47 235.89 C 234.26 235.34 233.86 234.24 233.65 233.69 C 234.17 233.68 235.22 233.65 235.74 233.63 C 234.90 232.65 234.06 231.67 233.22 230.70 C 233.88 230.68 235.20 230.63 235.86 230.61 C 232.20 227.23 229.21 223.03 227.58 218.30 C 226.30 214.87 224.92 211.30 222.14 208.79 C 219.55 206.38 216.88 203.63 216.45 199.93 C 216.20 198.27 216.33 195.04 218.80 195.89 C 219.39 197.91 219.37 200.37 221.14 201.83 C 223.71 204.26 226.68 206.30 228.78 209.20 C 231.50 212.78 232.12 217.53 235.05 220.98 C 237.00 223.25 238.99 225.49 240.78 227.90 C 237.15 216.35 232.47 205.14 228.40 193.73 C 228.02 192.33 226.90 190.47 228.64 189.53 C 230.28 189.58 230.87 191.30 231.49 192.54 C 235.82 202.17 240.34 211.72 244.66 221.36 C 245.25 222.71 245.99 223.99 246.83 225.22 C 245.75 220.87 243.95 216.61 244.04 212.06 C 244.05 207.78 244.72 203.22 242.73 199.25 C 241.38 196.33 240.19 193.16 240.77 189.90 C 240.89 187.86 242.30 185.03 244.78 185.95 C 244.45 187.90 243.65 189.91 244.16 191.90 C 245.53 195.15 247.60 198.11 248.56 201.54 C 249.90 205.92 248.57 210.60 249.91 214.98 C 250.73 218.00 251.79 220.95 252.87 223.89 C 253.23 213.94 254.02 204.00 254.03 194.04 C 254.17 190.89 254.07 187.69 254.83 184.61 M 267.39 190.94 C 267.07 193.61 267.06 196.31 267.06 199.00 C 267.13 203.27 265.20 207.21 263.41 210.98 C 263.76 212.64 264.11 214.31 264.45 215.99 C 264.77 212.41 266.46 209.25 267.70 205.95 C 269.56 201.10 268.14 195.86 267.39 190.94 M 232.06 197.96 C 233.18 203.50 235.68 208.62 237.54 213.92 C 239.85 219.21 241.06 224.92 243.81 230.01 C 243.23 226.75 241.66 223.78 240.75 220.61 C 241.23 220.67 242.20 220.78 242.68 220.84 C 239.15 213.21 235.94 205.42 232.06 197.96 M 218.94 202.15 C 220.91 206.29 225.30 208.67 227.07 212.96 C 228.98 217.54 230.61 222.30 233.79 226.21 C 233.73 225.49 233.60 224.04 233.53 223.32 C 234.24 223.78 235.66 224.71 236.37 225.17 C 234.13 222.09 231.43 219.27 230.38 215.51 C 228.49 209.65 223.61 205.76 218.94 202.15 M 200.32 220.31 C 202.92 221.92 205.72 223.16 208.48 224.47 C 214.45 227.41 218.16 233.31 223.72 236.82 C 223.72 236.28 223.73 235.22 223.73 234.69 C 226.86 235.89 229.69 237.81 232.95 238.67 C 228.22 235.32 222.29 233.90 218.06 229.81 C 215.68 227.61 213.66 224.81 210.53 223.61 C 207.14 222.24 203.51 221.42 200.36 219.51 C 200.35 219.71 200.33 220.11 200.32 220.31 M 248.49 229.61 C 241.04 231.73 234.83 237.32 231.29 244.13 C 228.37 249.63 228.67 256.12 229.30 262.12 C 231.94 274.01 243.57 283.95 256.02 283.07 C 266.94 283.90 277.08 276.24 281.30 266.50 C 283.55 261.66 283.17 256.15 282.85 250.97 C 281.64 242.86 275.93 235.95 268.98 231.89 C 262.85 228.27 255.28 228.43 248.49 229.61 M 314.26 231.95 C 317.34 233.35 314.26 228.68 314.26 231.95 M 290.97 240.19 C 287.88 241.16 284.81 242.28 281.97 243.85 C 285.23 243.30 288.14 241.62 291.32 240.75 C 291.33 241.23 291.37 242.18 291.39 242.66 C 298.95 238.96 306.83 235.92 314.26 231.95 C 306.21 233.82 298.81 237.66 290.97 240.19 M 284.30 236.35 C 284.66 236.78 284.66 236.78 284.30 236.35 M 226.23 240.27 C 226.75 240.83 226.75 240.83 226.23 240.27 M 189.19 243.41 C 191.93 244.79 194.98 245.09 198.01 244.93 C 202.63 244.66 206.92 246.62 210.98 248.58 C 212.63 248.21 214.29 247.85 215.95 247.50 C 211.64 247.32 208.12 244.50 203.92 243.86 C 199.06 242.70 194.08 244.45 189.19 243.41 M 217.02 248.51 C 220.68 249.05 224.42 249.21 228.06 248.44 C 224.40 247.87 220.66 247.83 217.02 248.51 M 295.99 264.44 C 299.58 264.80 302.76 266.55 306.12 267.71 C 310.98 269.49 316.18 268.19 321.10 267.41 C 318.06 267.04 315.01 267.12 311.96 267.00 C 308.06 266.80 304.47 265.09 301.01 263.43 C 299.33 263.77 297.66 264.11 295.99 264.44 M 188.05 269.59 C 191.04 269.88 194.17 270.06 196.91 268.57 C 202.68 265.65 209.30 266.10 215.43 264.51 C 211.95 263.84 208.38 263.86 204.87 264.26 C 198.92 265.06 194.28 269.97 188.05 269.59 M 225.25 275.63 C 225.82 275.20 225.82 275.20 225.25 275.63 M 219.75 279.82 C 217.05 281.18 214.08 281.96 211.50 283.57 C 207.49 285.76 205.00 289.73 202.13 293.14 C 206.41 290.93 208.98 286.35 213.59 284.60 C 218.10 282.84 222.80 281.25 226.39 277.83 C 225.61 278.03 224.06 278.42 223.29 278.61 C 223.78 277.87 224.76 276.38 225.25 275.63 C 223.31 276.88 221.63 278.49 219.75 279.82 M 226.39 277.83 C 226.72 277.16 226.72 277.16 226.39 277.83 M 230.88 292.70 C 228.51 295.65 225.10 297.85 223.63 301.47 C 222.25 304.99 221.14 308.61 219.59 312.08 C 222.71 308.98 223.49 304.46 225.98 300.95 C 228.98 296.76 232.97 293.42 236.27 289.48 L 234.37 289.09 C 235.65 285.66 237.54 282.49 238.78 279.05 C 235.51 283.22 234.28 288.62 230.88 292.70 M 270.82 281.13 C 271.97 283.10 273.55 284.75 275.30 286.21 C 274.22 284.19 272.81 282.32 270.82 281.13 M 268.16 282.13 C 268.69 284.70 270.03 287.03 270.34 289.67 C 269.73 289.31 268.52 288.60 267.91 288.25 C 272.66 298.39 277.32 308.60 281.78 318.89 C 280.06 311.74 276.89 305.02 274.46 298.09 C 272.06 292.88 271.10 287.09 268.16 282.13 M 248.50 283.91 C 247.86 287.30 247.84 290.78 248.55 294.17 C 249.10 290.77 249.12 287.30 248.50 283.91 M 260.00 284.73 C 260.94 288.69 262.03 292.70 263.97 296.32 C 263.15 292.33 261.99 288.29 260.00 284.73 M 277.89 285.63 C 278.05 286.39 278.37 287.93 278.53 288.70 C 277.80 288.22 276.33 287.26 275.59 286.79 C 276.87 288.71 278.48 290.38 279.80 292.27 C 281.16 294.95 281.96 297.89 283.56 300.46 C 285.79 304.45 289.76 306.94 293.12 309.88 C 292.02 307.47 289.98 305.74 288.22 303.83 C 283.23 298.66 283.01 290.73 277.89 285.63 C 277.25 285.25 277.25 285.25 277.89 285.63 M 275.30 286.21 C 275.37 286.36 275.52 286.64 275.59 286.79 C 275.52 286.64 275.37 286.36 275.30 286.21 M 266.46 313.63 C 268.00 316.54 269.23 319.61 269.70 322.90 C 270.67 316.89 266.23 311.96 266.07 306.08 C 265.18 301.70 265.24 297.31 265.72 292.90 C 263.32 299.54 263.17 307.26 266.46 313.63 M 243.54 309.85 C 243.14 313.37 243.84 316.91 244.70 320.32 C 245.26 315.64 244.26 310.71 246.31 306.30 C 247.73 303.28 247.93 299.95 247.83 296.67 C 246.48 301.09 244.07 305.19 243.54 309.85 Z" />
<path fill="#c57f17" opacity="1.00" d=" M 290.61 199.58 C 292.27 198.02 294.52 196.49 296.92 197.14 C 298.06 199.51 294.66 199.93 293.57 201.44 C 291.51 204.78 291.26 208.90 289.21 212.27 C 287.35 215.92 283.84 218.26 281.42 221.48 C 279.62 224.23 278.25 227.24 277.04 230.29 L 275.36 229.48 C 277.02 226.46 278.32 223.23 280.29 220.39 C 282.34 217.47 285.35 215.38 287.36 212.43 C 289.38 209.16 290.27 205.36 291.02 201.63 C 289.61 204.02 288.49 206.56 287.21 209.02 C 284.98 213.33 281.09 216.37 278.05 220.05 C 276.73 221.57 275.54 223.27 273.79 224.34 C 275.00 218.48 280.66 215.34 284.20 210.99 C 287.14 207.64 287.32 202.67 290.61 199.58 Z" />
<path fill="#c57f17" opacity="1.00" d=" M 301.22 208.23 C 302.95 206.67 304.62 204.58 307.21 204.81 C 307.14 206.21 306.76 207.58 305.70 208.57 C 301.12 213.64 296.30 218.49 291.77 223.61 C 289.34 226.08 287.31 229.03 284.29 230.83 C 284.86 229.32 285.26 227.63 286.54 226.53 C 291.05 222.12 295.65 217.73 299.38 212.61 C 299.55 212.45 299.88 212.11 300.05 211.94 C 300.24 211.77 300.60 211.42 300.79 211.25 C 301.10 210.98 301.73 210.45 302.04 210.18 C 302.30 209.91 302.82 209.35 303.08 209.07 C 303.18 208.95 303.38 208.70 303.48 208.58 C 303.38 208.70 303.18 208.95 303.08 209.07 C 302.82 209.35 302.30 209.91 302.04 210.18 C 301.73 210.45 301.10 210.98 300.79 211.25 C 300.60 211.42 300.24 211.77 300.05 211.94 C 299.88 212.11 299.55 212.45 299.38 212.61 L 298.63 212.85 C 291.80 218.26 286.42 225.43 279.04 230.23 L 278.17 230.85 L 278.91 229.03 C 286.26 222.00 293.89 215.27 301.22 208.23 Z" />
<path fill="#c57f17" opacity="1.00" d=" M 273.11 224.69 L 273.79 224.34 L 274.31 225.00 C 274.09 225.29 273.67 225.86 273.46 226.15 C 273.37 225.78 273.20 225.05 273.11 224.69 Z" />
<path fill="#c57f17" opacity="1.00" d=" M 275.05 225.30 C 278.32 225.31 273.61 228.41 275.05 225.30 Z" />
<path fill="#c57f17" opacity="1.00" d=" M 230.13 227.96 C 230.37 228.02 230.83 228.13 231.07 228.19 L 230.55 228.23 L 230.13 227.96 Z" />
<path fill="#c57f17" opacity="1.00" d=" M 229.13 229.11 C 228.57 228.57 228.57 228.57 229.13 229.11 Z" />
<path fill="#c57f17" opacity="1.00" d=" M 231.07 228.19 C 231.27 228.42 231.68 228.88 231.89 229.11 L 231.24 228.83 L 231.07 228.19 Z" />
<path fill="#c57f17" opacity="1.00" d=" M 282.84 229.18 C 283.32 228.69 283.32 228.69 282.84 229.18 Z" />
<path fill="#c57f17" opacity="1.00" d=" M 229.13 229.11 C 229.36 229.33 229.81 229.78 230.04 230.01 C 229.81 229.78 229.36 229.33 229.13 229.11 Z" />
<path fill="#c57f17" opacity="1.00" d=" M 231.89 229.11 C 232.12 229.30 232.58 229.70 232.82 229.90 L 232.17 229.74 L 231.89 229.11 Z" />
<path fill="#c57f17" opacity="1.00" d=" M 281.99 230.03 C 282.20 229.82 282.63 229.39 282.84 229.18 C 282.63 229.39 282.20 229.82 281.99 230.03 Z" />
<path fill="#c57f17" opacity="1.00" d=" M 230.04 230.01 C 230.28 230.25 230.76 230.75 231.00 230.99 C 230.76 230.75 230.28 230.25 230.04 230.01 Z" />
<path fill="#c57f17" opacity="1.00" d=" M 232.82 229.90 C 232.92 230.10 233.12 230.50 233.22 230.70 L 232.91 230.38 L 232.82 229.90 Z" />
<path fill="#c57f17" opacity="1.00" d=" M 281.02 231.00 C 281.26 230.76 281.75 230.27 281.99 230.03 C 281.75 230.27 281.26 230.76 281.02 231.00 Z" />
<path fill="#c57f17" opacity="1.00" d=" M 284.03 231.33 C 284.10 231.21 284.22 230.95 284.29 230.83 C 284.22 230.95 284.10 231.21 284.03 231.33 Z" />
<path fill="#c57f17" opacity="1.00" d=" M 231.00 230.99 C 231.24 231.24 231.73 231.73 231.97 231.97 C 231.73 231.73 231.24 231.24 231.00 230.99 Z" />
<path fill="#c57f17" opacity="1.00" d=" M 280.04 231.98 C 280.28 231.73 280.77 231.25 281.02 231.00 C 280.77 231.25 280.28 231.73 280.04 231.98 Z" />
<path fill="#c57f17" opacity="1.00" d=" M 283.33 231.97 C 283.50 231.81 283.85 231.49 284.03 231.33 C 283.85 231.49 283.50 231.81 283.33 231.97 Z" />
<path fill="#c57f17" opacity="1.00" d=" M 231.97 231.97 C 232.20 232.20 232.66 232.66 232.89 232.89 C 232.66 232.66 232.20 232.20 231.97 231.97 Z" />
<path fill="#c57f17" opacity="1.00" d=" M 279.13 232.88 C 279.36 232.65 279.81 232.20 280.04 231.98 C 279.81 232.20 279.36 232.65 279.13 232.88 Z" />
<path fill="#c57f17" opacity="1.00" d=" M 282.80 232.34 C 282.93 232.25 283.19 232.06 283.33 231.97 C 283.19 232.06 282.93 232.25 282.80 232.34 Z" />
<path fill="#c57f17" opacity="1.00" d=" M 232.89 232.89 C 233.08 233.09 233.46 233.49 233.65 233.69 C 233.46 233.49 233.08 233.09 232.89 232.89 Z" />
<path fill="#c57f17" opacity="1.00" d=" M 278.43 233.52 C 278.60 233.36 278.95 233.04 279.13 232.88 C 278.95 233.04 278.60 233.36 278.43 233.52 Z" />
<path fill="#c57f17" opacity="1.00" d=" M 238.86 249.06 C 242.04 243.60 251.13 243.02 254.88 248.11 C 256.46 252.01 256.28 257.84 252.68 260.48 C 253.73 256.51 256.21 251.86 252.73 248.28 C 248.70 244.37 243.16 247.36 238.86 249.06 Z" />
<path fill="#c57f17" opacity="1.00" d=" M 259.27 246.18 C 263.71 243.51 270.84 244.10 273.33 249.17 C 269.16 247.37 264.15 244.70 259.90 247.88 C 256.36 251.08 258.07 256.67 260.16 260.26 C 257.16 260.60 257.27 257.02 256.90 254.97 C 256.87 251.99 255.95 247.77 259.27 246.18 Z" />
<path fill="#c57f17" opacity="1.00" d=" M 239.68 251.47 C 241.67 249.29 244.65 247.76 247.65 248.33 C 249.73 248.92 251.51 250.22 253.36 251.31 C 252.62 251.75 251.88 252.19 251.14 252.64 C 251.58 252.83 252.46 253.20 252.91 253.39 C 250.84 254.70 248.63 256.59 246.00 255.92 C 243.24 255.60 241.38 253.43 239.68 251.47 M 243.06 251.38 C 241.54 254.39 246.36 251.49 243.06 251.38 Z" />
<path fill="#c57f17" opacity="1.00" d=" M 258.62 251.79 C 260.98 249.97 263.69 247.78 266.88 248.27 C 269.16 248.48 271.02 249.91 272.73 251.33 C 270.99 253.00 269.53 255.32 267.00 255.82 C 264.38 256.78 261.94 255.09 259.72 253.94 C 260.05 253.50 260.71 252.64 261.04 252.21 C 260.43 252.10 259.22 251.90 258.62 251.79 Z" />
<path fill="#c57f17" opacity="1.00" d=" M 249.86 260.95 C 251.12 261.52 252.47 261.75 253.84 261.47 C 254.57 261.97 255.30 262.48 256.03 263.00 C 256.79 262.46 257.55 261.92 258.31 261.38 C 258.74 261.49 259.59 261.72 260.02 261.84 C 260.58 261.56 261.70 261.02 262.27 260.75 C 262.10 261.46 261.78 262.88 261.61 263.59 C 257.87 264.28 253.97 263.59 250.17 263.90 C 250.09 263.16 249.93 261.69 249.86 260.95 Z" />
<path fill="#c57f17" opacity="1.00" d=" M 251.40 270.54 C 249.40 269.54 249.93 266.51 252.04 266.05 C 254.64 265.63 257.34 265.59 259.94 266.04 C 261.75 266.42 261.64 268.36 261.80 269.79 C 259.02 272.37 254.37 273.43 251.40 270.54 M 251.83 267.03 L 251.92 267.96 C 254.63 267.99 257.33 268.00 260.04 267.99 L 260.09 267.06 C 257.34 267.04 254.58 267.03 251.83 267.03 M 251.73 269.23 C 254.13 271.46 257.82 271.49 260.22 269.24 C 257.40 269.61 254.55 269.60 251.73 269.23 Z" />
<path fill="#c57f17" opacity="1.00" d=" M 287.24 269.02 C 290.27 267.55 287.42 272.30 287.24 269.02 Z" />
<path fill="#c57f17" opacity="1.00" d=" M 290.27 270.12 C 293.28 268.57 290.51 273.38 290.27 270.12 Z" />
<path fill="#c57f17" opacity="1.00" d=" M 286.74 271.17 C 287.27 271.24 288.32 271.37 288.84 271.43 C 288.40 271.57 287.51 271.83 287.07 271.96 L 286.74 271.17 Z" />
<path fill="#c57f17" opacity="1.00" d=" M 229.77 278.97 C 230.00 278.93 230.46 278.87 230.68 278.83 L 230.28 279.21 L 229.77 278.97 Z" />
<path fill="#c57f17" opacity="1.00" d=" M 233.02 279.06 C 233.17 278.91 233.47 278.61 233.62 278.46 C 233.47 278.61 233.17 278.91 233.02 279.06 Z" />
<path fill="#c57f17" opacity="1.00" d=" M 278.46 278.40 C 278.60 278.55 278.90 278.85 279.04 279.00 C 278.90 278.85 278.60 278.55 278.46 278.40 Z" />
<path fill="#c57f17" opacity="1.00" d=" M 281.12 278.41 C 281.21 278.56 281.41 278.87 281.51 279.03 L 281.25 278.75 L 281.12 278.41 Z" />
<path fill="#c57f17" opacity="1.00" d=" M 229.19 279.93 C 229.33 279.69 229.62 279.21 229.77 278.97 L 229.80 279.61 L 229.19 279.93 Z" />
<path fill="#c57f17" opacity="1.00" d=" M 232.15 279.92 C 232.37 279.70 232.80 279.27 233.02 279.06 C 232.80 279.27 232.37 279.70 232.15 279.92 Z" />
<path fill="#c57f17" opacity="1.00" d=" M 279.04 279.00 C 279.26 279.21 279.68 279.63 279.89 279.84 C 279.68 279.63 279.26 279.21 279.04 279.00 Z" />
<path fill="#c57f17" opacity="1.00" d=" M 281.51 279.03 L 282.10 277.91 C 289.98 286.40 297.82 294.93 305.73 303.38 C 306.82 304.37 307.16 305.77 307.19 307.21 C 304.62 307.36 302.99 305.27 301.27 303.75 C 294.28 297.07 287.08 290.62 280.02 284.00 L 280.75 283.30 C 282.20 283.62 283.46 284.42 284.46 285.51 C 288.91 289.99 293.10 294.83 298.44 298.30 C 298.61 298.47 298.94 298.81 299.11 298.99 C 299.29 299.15 299.64 299.48 299.81 299.65 C 300.02 299.85 300.43 300.24 300.63 300.44 C 300.91 300.76 301.48 301.41 301.77 301.73 C 302.28 302.27 302.28 302.27 301.77 301.73 C 301.48 301.41 300.91 300.76 300.63 300.44 C 300.43 300.24 300.02 299.85 299.81 299.65 C 299.64 299.48 299.29 299.15 299.11 298.99 C 298.94 298.81 298.61 298.47 298.44 298.30 C 297.85 297.03 297.12 295.84 296.08 294.92 C 291.03 289.81 285.62 284.97 281.51 279.03 Z" />
<path fill="#c57f17" opacity="1.00" d=" M 228.91 280.84 C 228.98 280.61 229.12 280.15 229.19 279.93 L 229.18 280.43 L 228.91 280.84 Z" />
<path fill="#c57f17" opacity="1.00" d=" M 230.92 281.05 C 231.23 280.77 231.85 280.20 232.15 279.92 C 231.85 280.20 231.23 280.77 230.92 281.05 Z" />
<path fill="#c57f17" opacity="1.00" d=" M 279.89 279.84 C 280.18 280.15 280.75 280.77 281.04 281.08 C 280.75 280.77 280.18 280.15 279.89 279.84 Z" />
<path fill="#c57f17" opacity="1.00" d=" M 227.96 280.04 L 228.91 280.84 C 227.99 282.52 226.94 284.16 225.51 285.46 C 221.23 289.50 216.98 293.63 213.59 298.47 C 213.41 298.65 213.04 298.99 212.86 299.17 C 212.63 299.38 212.18 299.81 211.96 300.03 C 211.72 300.26 211.24 300.71 211.00 300.94 C 210.77 301.17 210.33 301.61 210.11 301.84 C 209.99 301.96 209.75 302.21 209.63 302.34 C 209.75 302.21 209.99 301.96 210.11 301.84 C 210.33 301.61 210.77 301.17 211.00 300.94 C 211.24 300.71 211.72 300.26 211.96 300.03 C 212.18 299.81 212.63 299.38 212.86 299.17 C 213.04 298.99 213.41 298.65 213.59 298.47 C 220.82 293.66 225.66 286.02 233.15 281.54 L 234.08 282.19 C 225.52 289.94 217.10 297.85 208.64 305.71 C 207.64 306.82 206.23 307.17 204.79 307.18 C 204.65 304.62 206.72 302.99 208.25 301.27 C 214.92 294.29 221.37 287.10 227.96 280.04 Z" />
<path fill="#c57f17" opacity="1.00" d=" M 230.17 281.83 C 230.36 281.64 230.74 281.25 230.92 281.05 C 230.74 281.25 230.36 281.64 230.17 281.83 Z" />
<path fill="#c57f17" opacity="1.00" d=" M 233.15 281.54 C 233.23 281.44 233.37 281.22 233.45 281.12 C 233.37 281.22 233.23 281.44 233.15 281.54 Z" />
<path fill="#c57f17" opacity="1.00" d=" M 278.71 281.16 C 278.81 281.39 279.00 281.86 279.10 282.10 C 279.00 281.86 278.81 281.39 278.71 281.16 Z" />
<path fill="#c57f17" opacity="1.00" d=" M 281.04 281.08 C 281.23 281.27 281.61 281.65 281.80 281.85 C 281.61 281.65 281.23 281.27 281.04 281.08 Z" />
<path fill="#c57f17" opacity="1.00" d=" M 230.17 281.83 C 229.61 282.41 229.61 282.41 230.17 281.83 Z" />
<path fill="#c57f17" opacity="1.00" d=" M 279.10 282.10 L 279.79 282.20 L 279.87 282.89 C 279.68 282.69 279.30 282.30 279.10 282.10 Z" />
<path fill="#c57f17" opacity="1.00" d=" M 281.80 281.85 C 282.36 282.41 282.36 282.41 281.80 281.85 Z" />
<path fill="#c57f17" opacity="1.00" d=" M 279.87 282.89 L 280.49 282.77 L 280.75 283.30 C 280.53 283.20 280.09 282.99 279.87 282.89 Z" />
<path fill="#c57f17" opacity="1.00" d=" M 240.00 286.98 L 240.75 286.62 C 240.71 287.15 240.64 288.22 240.60 288.76 C 240.45 288.31 240.15 287.42 240.00 286.98 Z" />
<path fill="#c57f17" opacity="1.00" d=" M 270.19 290.25 C 270.70 290.79 270.70 290.79 270.19 290.25 Z" />
</g>
<g id="#f6b40eff">
<path fill="#f6b40e" opacity="1.00" d=" M 267.39 190.94 C 268.14 195.86 269.56 201.10 267.70 205.95 C 266.46 209.25 264.77 212.41 264.45 215.99 C 264.11 214.31 263.76 212.64 263.41 210.98 C 265.20 207.21 267.13 203.27 267.06 199.00 C 267.06 196.31 267.07 193.61 267.39 190.94 Z" />
<path fill="#f6b40e" opacity="1.00" d=" M 232.06 197.96 C 235.94 205.42 239.15 213.21 242.68 220.84 C 242.20 220.78 241.23 220.67 240.75 220.61 C 241.66 223.78 243.23 226.75 243.81 230.01 C 241.06 224.92 239.85 219.21 237.54 213.92 C 235.68 208.62 233.18 203.50 232.06 197.96 Z" />
<path fill="#f6b40e" opacity="1.00" d=" M 218.94 202.15 C 223.61 205.76 228.49 209.65 230.38 215.51 C 231.43 219.27 234.13 222.09 236.37 225.17 C 235.66 224.71 234.24 223.78 233.53 223.32 C 233.60 224.04 233.73 225.49 233.79 226.21 C 230.61 222.30 228.98 217.54 227.07 212.96 C 225.30 208.67 220.91 206.29 218.94 202.15 Z" />
<path fill="#f6b40e" opacity="1.00" d=" M 287.21 209.02 C 288.49 206.56 289.61 204.02 291.02 201.63 C 290.27 205.36 289.38 209.16 287.36 212.43 C 285.35 215.38 282.34 217.47 280.29 220.39 C 278.32 223.23 277.02 226.46 275.36 229.48 C 274.70 230.68 274.01 231.86 273.32 233.04 C 273.80 231.36 274.28 229.67 274.78 228.00 C 273.50 228.92 272.24 229.86 270.97 230.79 C 271.80 229.26 273.17 227.92 273.46 226.15 C 273.67 225.86 274.09 225.29 274.31 225.00 L 273.79 224.34 C 275.54 223.27 276.73 221.57 278.05 220.05 C 281.09 216.37 284.98 213.33 287.21 209.02 M 275.05 225.30 C 273.61 228.41 278.32 225.31 275.05 225.30 Z" />
<path fill="#f6b40e" opacity="1.00" d=" M 208.66 208.61 C 208.77 208.70 208.99 208.88 209.10 208.98 C 208.99 208.88 208.77 208.70 208.66 208.61 Z" />
<path fill="#f6b40e" opacity="1.00" d=" M 303.08 209.07 C 303.18 208.95 303.38 208.70 303.48 208.58 C 303.38 208.70 303.18 208.95 303.08 209.07 Z" />
<path fill="#f6b40e" opacity="1.00" d=" M 209.10 208.98 C 209.37 209.23 209.91 209.75 210.18 210.00 C 209.91 209.75 209.37 209.23 209.10 208.98 Z" />
<path fill="#f6b40e" opacity="1.00" d=" M 302.04 210.18 C 302.30 209.91 302.82 209.35 303.08 209.07 C 302.82 209.35 302.30 209.91 302.04 210.18 Z" />
<path fill="#f6b40e" opacity="1.00" d=" M 210.18 210.00 C 210.45 210.31 210.99 210.92 211.26 211.23 C 210.99 210.92 210.45 210.31 210.18 210.00 Z" />
<path fill="#f6b40e" opacity="1.00" d=" M 300.79 211.25 C 301.10 210.98 301.73 210.45 302.04 210.18 C 301.73 210.45 301.10 210.98 300.79 211.25 Z" />
<path fill="#f6b40e" opacity="1.00" d=" M 211.26 211.23 C 211.43 211.42 211.78 211.78 211.95 211.97 C 211.78 211.78 211.43 211.42 211.26 211.23 Z" />
<path fill="#f6b40e" opacity="1.00" d=" M 300.05 211.94 C 300.24 211.77 300.60 211.42 300.79 211.25 C 300.60 211.42 300.24 211.77 300.05 211.94 Z" />
<path fill="#f6b40e" opacity="1.00" d=" M 211.95 211.97 C 212.12 212.14 212.46 212.48 212.63 212.65 C 212.46 212.48 212.12 212.14 211.95 211.97 Z" />
<path fill="#f6b40e" opacity="1.00" d=" M 299.38 212.61 C 299.55 212.45 299.88 212.11 300.05 211.94 C 299.88 212.11 299.55 212.45 299.38 212.61 Z" />
<path fill="#f6b40e" opacity="1.00" d=" M 212.63 212.65 C 216.01 215.09 219.05 217.95 222.02 220.86 C 224.61 223.36 226.79 226.41 230.13 227.96 L 230.55 228.23 L 231.07 228.19 L 231.24 228.83 L 231.89 229.11 L 232.17 229.74 L 232.82 229.90 L 232.91 230.38 L 233.22 230.70 C 234.06 231.67 234.90 232.65 235.74 233.63 C 235.22 233.65 234.17 233.68 233.65 233.69 C 233.46 233.49 233.08 233.09 232.89 232.89 C 232.66 232.66 232.20 232.20 231.97 231.97 C 231.73 231.73 231.24 231.24 231.00 230.99 C 230.76 230.75 230.28 230.25 230.04 230.01 C 229.81 229.78 229.36 229.33 229.13 229.11 C 228.57 228.57 228.57 228.57 229.13 229.11 C 229.36 229.33 229.81 229.78 230.04 230.01 C 230.28 230.25 230.76 230.75 231.00 230.99 C 231.24 231.24 231.73 231.73 231.97 231.97 C 232.20 232.20 232.66 232.66 232.89 232.89 C 233.08 233.09 233.46 233.49 233.65 233.69 C 233.86 234.24 234.26 235.34 234.47 235.89 C 231.34 234.50 229.32 231.46 227.00 229.06 C 222.95 223.26 216.82 219.25 212.86 213.43 L 212.63 212.65 Z" />
<path fill="#f6b40e" opacity="1.00" d=" M 279.04 230.23 C 286.42 225.43 291.80 218.26 298.63 212.85 L 299.38 212.61 C 295.65 217.73 291.05 222.12 286.54 226.53 C 285.26 227.63 284.86 229.32 284.29 230.83 C 284.22 230.95 284.10 231.21 284.03 231.33 C 283.85 231.49 283.50 231.81 283.33 231.97 C 283.19 232.06 282.93 232.25 282.80 232.34 C 281.26 233.30 279.80 234.37 278.42 235.53 C 278.42 235.03 278.43 234.02 278.43 233.52 C 278.60 233.36 278.95 233.04 279.13 232.88 C 279.36 232.65 279.81 232.20 280.04 231.98 C 280.28 231.73 280.77 231.25 281.02 231.00 C 281.26 230.76 281.75 230.27 281.99 230.03 C 282.20 229.82 282.63 229.39 282.84 229.18 C 283.32 228.69 283.32 228.69 282.84 229.18 C 282.63 229.39 282.20 229.82 281.99 230.03 C 281.75 230.27 281.26 230.76 281.02 231.00 C 280.77 231.25 280.28 231.73 280.04 231.98 C 279.81 232.20 279.36 232.65 279.13 232.88 C 278.95 233.04 278.60 233.36 278.43 233.52 C 277.81 233.81 276.56 234.40 275.94 234.69 C 276.65 233.57 277.38 232.47 278.02 231.31 C 278.28 231.04 278.79 230.50 279.04 230.23 Z" />
<path fill="#f6b40e" opacity="1.00" d=" M 200.32 220.31 C 200.33 220.11 200.35 219.71 200.36 219.51 C 203.51 221.42 207.14 222.24 210.53 223.61 C 213.66 224.81 215.68 227.61 218.06 229.81 C 222.29 233.90 228.22 235.32 232.95 238.67 C 229.69 237.81 226.86 235.89 223.73 234.69 C 223.73 235.22 223.72 236.28 223.72 236.82 C 218.16 233.31 214.45 227.41 208.48 224.47 C 205.72 223.16 202.92 221.92 200.32 220.31 Z" />
<path fill="#f6b40e" opacity="1.00" d=" M 248.49 229.61 C 255.28 228.43 262.85 228.27 268.98 231.89 C 275.93 235.95 281.64 242.86 282.85 250.97 C 283.17 256.15 283.55 261.66 281.30 266.50 C 277.08 276.24 266.94 283.90 256.02 283.07 C 243.57 283.95 231.94 274.01 229.30 262.12 C 228.67 256.12 228.37 249.63 231.29 244.13 C 234.83 237.32 241.04 231.73 248.49 229.61 M 238.86 249.06 C 243.16 247.36 248.70 244.37 252.73 248.28 C 256.21 251.86 253.73 256.51 252.68 260.48 C 256.28 257.84 256.46 252.01 254.88 248.11 C 251.13 243.02 242.04 243.60 238.86 249.06 M 259.27 246.18 C 255.95 247.77 256.87 251.99 256.90 254.97 C 257.27 257.02 257.16 260.60 260.16 260.26 C 258.07 256.67 256.36 251.08 259.90 247.88 C 264.15 244.70 269.16 247.37 273.33 249.17 C 270.84 244.10 263.71 243.51 259.27 246.18 M 239.68 251.47 C 241.38 253.43 243.24 255.60 246.00 255.92 C 248.63 256.59 250.84 254.70 252.91 253.39 C 252.46 253.20 251.58 252.83 251.14 252.64 C 251.88 252.19 252.62 251.75 253.36 251.31 C 251.51 250.22 249.73 248.92 247.65 248.33 C 244.65 247.76 241.67 249.29 239.68 251.47 M 258.62 251.79 C 259.22 251.90 260.43 252.10 261.04 252.21 C 260.71 252.64 260.05 253.50 259.72 253.94 C 261.94 255.09 264.38 256.78 267.00 255.82 C 269.53 255.32 270.99 253.00 272.73 251.33 C 271.02 249.91 269.16 248.48 266.88 248.27 C 263.69 247.78 260.98 249.97 258.62 251.79 M 249.86 260.95 C 249.93 261.69 250.09 263.16 250.17 263.90 C 253.97 263.59 257.87 264.28 261.61 263.59 C 261.78 262.88 262.10 261.46 262.27 260.75 C 261.70 261.02 260.58 261.56 260.02 261.84 C 259.59 261.72 258.74 261.49 258.31 261.38 C 257.55 261.92 256.79 262.46 256.03 263.00 C 255.30 262.48 254.57 261.97 253.84 261.47 C 252.47 261.75 251.12 261.52 249.86 260.95 M 251.40 270.54 C 254.37 273.43 259.02 272.37 261.80 269.79 C 261.64 268.36 261.75 266.42 259.94 266.04 C 257.34 265.59 254.64 265.63 252.04 266.05 C 249.93 266.51 249.40 269.54 251.40 270.54 Z" />
<path fill="#f6b40e" opacity="1.00" d=" M 314.26 231.95 C 314.26 228.68 317.34 233.35 314.26 231.95 Z" />
<path fill="#f6b40e" opacity="1.00" d=" M 290.97 240.19 C 298.81 237.66 306.21 233.82 314.26 231.95 C 306.83 235.92 298.95 238.96 291.39 242.66 C 291.37 242.18 291.33 241.23 291.32 240.75 C 288.14 241.62 285.23 243.30 281.97 243.85 C 284.81 242.28 287.88 241.16 290.97 240.19 Z" />
<path fill="#f6b40e" opacity="1.00" d=" M 284.30 236.35 C 284.66 236.78 284.66 236.78 284.30 236.35 Z" />
<path fill="#f6b40e" opacity="1.00" d=" M 189.19 243.41 C 194.08 244.45 199.06 242.70 203.92 243.86 C 208.12 244.50 211.64 247.32 215.95 247.50 C 214.29 247.85 212.63 248.21 210.98 248.58 C 206.92 246.62 202.63 244.66 198.01 244.93 C 194.98 245.09 191.93 244.79 189.19 243.41 Z" />
<path fill="#f6b40e" opacity="1.00" d=" M 217.02 248.51 C 220.66 247.83 224.40 247.87 228.06 248.44 C 224.42 249.21 220.68 249.05 217.02 248.51 Z" />
<path fill="#f6b40e" opacity="1.00" d=" M 243.06 251.38 C 246.36 251.49 241.54 254.39 243.06 251.38 Z" />
<path fill="#f6b40e" opacity="1.00" d=" M 295.99 264.44 C 297.66 264.11 299.33 263.77 301.01 263.43 C 304.47 265.09 308.06 266.80 311.96 267.00 C 315.01 267.12 318.06 267.04 321.10 267.41 C 316.18 268.19 310.98 269.49 306.12 267.71 C 302.76 266.55 299.58 264.80 295.99 264.44 Z" />
<path fill="#f6b40e" opacity="1.00" d=" M 188.05 269.59 C 194.28 269.97 198.92 265.06 204.87 264.26 C 208.38 263.86 211.95 263.84 215.43 264.51 C 209.30 266.10 202.68 265.65 196.91 268.57 C 194.17 270.06 191.04 269.88 188.05 269.59 Z" />
<path fill="#f6b40e" opacity="1.00" d=" M 283.05 265.71 C 293.54 270.23 304.01 274.88 314.22 280.02 C 305.47 278.01 297.62 273.28 288.84 271.43 C 288.32 271.37 287.27 271.24 286.74 271.17 L 286.64 271.22 C 285.29 269.94 283.69 268.98 282.03 268.17 C 283.05 268.29 285.10 268.52 286.12 268.64 C 285.09 267.66 284.07 266.68 283.05 265.71 M 287.24 269.02 C 287.42 272.30 290.27 267.55 287.24 269.02 M 290.27 270.12 C 290.51 273.38 293.28 268.57 290.27 270.12 Z" />
<path fill="#f6b40e" opacity="1.00" d=" M 251.83 267.03 C 254.58 267.03 257.34 267.04 260.09 267.06 L 260.04 267.99 C 257.33 268.00 254.63 267.99 251.92 267.96 L 251.83 267.03 Z" />
<path fill="#f6b40e" opacity="1.00" d=" M 251.73 269.23 C 254.55 269.60 257.40 269.61 260.22 269.24 C 257.82 271.49 254.13 271.46 251.73 269.23 Z" />
<path fill="#f6b40e" opacity="1.00" d=" M 225.25 275.63 C 225.82 275.20 225.82 275.20 225.25 275.63 Z" />
<path fill="#f6b40e" opacity="1.00" d=" M 219.75 279.82 C 221.63 278.49 223.31 276.88 225.25 275.63 C 224.76 276.38 223.78 277.87 223.29 278.61 C 224.06 278.42 225.61 278.03 226.39 277.83 C 222.80 281.25 218.10 282.84 213.59 284.60 C 208.98 286.35 206.41 290.93 202.13 293.14 C 205.00 289.73 207.49 285.76 211.50 283.57 C 214.08 281.96 217.05 281.18 219.75 279.82 Z" />
<path fill="#f6b40e" opacity="1.00" d=" M 233.59 276.22 C 233.60 276.78 233.62 277.90 233.62 278.46 C 233.47 278.61 233.17 278.91 233.02 279.06 C 232.80 279.27 232.37 279.70 232.15 279.92 C 231.85 280.20 231.23 280.77 230.92 281.05 C 230.74 281.25 230.36 281.64 230.17 281.83 C 229.61 282.41 229.61 282.41 230.17 281.83 C 230.36 281.64 230.74 281.25 230.92 281.05 C 231.23 280.77 231.85 280.20 232.15 279.92 C 232.37 279.70 232.80 279.27 233.02 279.06 C 233.17 278.91 233.47 278.61 233.62 278.46 C 234.26 278.17 235.53 277.60 236.16 277.31 C 235.25 278.57 234.34 279.84 233.45 281.12 C 233.37 281.22 233.23 281.44 233.15 281.54 C 225.66 286.02 220.82 293.66 213.59 298.47 C 216.98 293.63 221.23 289.50 225.51 285.46 C 226.94 284.16 227.99 282.52 228.91 280.84 L 229.18 280.43 L 229.19 279.93 L 229.80 279.61 L 229.77 278.97 L 230.28 279.21 L 230.68 278.83 C 231.65 277.95 232.62 277.08 233.59 276.22 Z" />
<path fill="#f6b40e" opacity="1.00" d=" M 277.29 275.89 C 278.57 276.71 279.85 277.54 281.12 278.41 L 281.25 278.75 L 281.51 279.03 C 285.62 284.97 291.03 289.81 296.08 294.92 C 297.12 295.84 297.85 297.03 298.44 298.30 C 293.10 294.83 288.91 289.99 284.46 285.51 C 283.46 284.42 282.20 283.62 280.75 283.30 L 280.49 282.77 L 279.87 282.89 L 279.79 282.20 L 279.10 282.10 C 279.00 281.86 278.81 281.39 278.71 281.16 C 277.88 280.24 277.05 279.33 276.22 278.43 C 276.78 278.42 277.90 278.41 278.46 278.40 C 278.60 278.55 278.90 278.85 279.04 279.00 C 279.26 279.21 279.68 279.63 279.89 279.84 C 280.18 280.15 280.75 280.77 281.04 281.08 C 281.23 281.27 281.61 281.65 281.80 281.85 C 282.36 282.41 282.36 282.41 281.80 281.85 C 281.61 281.65 281.23 281.27 281.04 281.08 C 280.75 280.77 280.18 280.15 279.89 279.84 C 279.68 279.63 279.26 279.21 279.04 279.00 C 278.90 278.85 278.60 278.55 278.46 278.40 C 278.16 277.77 277.58 276.52 277.29 275.89 Z" />
<path fill="#f6b40e" opacity="1.00" d=" M 226.39 277.83 C 226.72 277.16 226.72 277.16 226.39 277.83 Z" />
<path fill="#f6b40e" opacity="1.00" d=" M 230.88 292.70 C 234.28 288.62 235.51 283.22 238.78 279.05 C 237.54 282.49 235.65 285.66 234.37 289.09 L 236.27 289.48 C 232.97 293.42 228.98 296.76 225.98 300.95 C 223.49 304.46 222.71 308.98 219.59 312.08 C 221.14 308.61 222.25 304.99 223.63 301.47 C 225.10 297.85 228.51 295.65 230.88 292.70 Z" />
<path fill="#f6b40e" opacity="1.00" d=" M 270.82 281.13 C 272.81 282.32 274.22 284.19 275.30 286.21 C 273.55 284.75 271.97 283.10 270.82 281.13 Z" />
<path fill="#f6b40e" opacity="1.00" d=" M 244.01 282.15 C 242.68 285.54 241.47 288.99 240.42 292.49 C 241.05 292.15 242.32 291.47 242.95 291.13 C 239.05 298.72 236.00 306.72 231.95 314.23 C 234.03 305.47 238.77 297.58 240.60 288.76 C 240.64 288.22 240.71 287.15 240.75 286.62 L 241.29 286.01 C 242.34 284.83 243.16 283.47 244.01 282.15 Z" />
<path fill="#f6b40e" opacity="1.00" d=" M 268.16 282.13 C 271.10 287.09 272.06 292.88 274.46 298.09 C 276.89 305.02 280.06 311.74 281.78 318.89 C 277.32 308.60 272.66 298.39 267.91 288.25 C 268.52 288.60 269.73 289.31 270.34 289.67 C 270.03 287.03 268.69 284.70 268.16 282.13 M 270.19 290.25 C 270.70 290.79 270.70 290.79 270.19 290.25 Z" />
<path fill="#f6b40e" opacity="1.00" d=" M 248.50 283.91 C 249.12 287.30 249.10 290.77 248.55 294.17 C 247.84 290.78 247.86 287.30 248.50 283.91 Z" />
<path fill="#f6b40e" opacity="1.00" d=" M 260.00 284.73 C 261.99 288.29 263.15 292.33 263.97 296.32 C 262.03 292.70 260.94 288.69 260.00 284.73 Z" />
<path fill="#f6b40e" opacity="1.00" d=" M 277.89 285.63 C 277.25 285.25 277.25 285.25 277.89 285.63 Z" />
<path fill="#f6b40e" opacity="1.00" d=" M 275.30 286.21 C 275.37 286.36 275.52 286.64 275.59 286.79 C 275.52 286.64 275.37 286.36 275.30 286.21 Z" />
<path fill="#f6b40e" opacity="1.00" d=" M 277.89 285.63 C 283.01 290.73 283.23 298.66 288.22 303.83 C 289.98 305.74 292.02 307.47 293.12 309.88 C 289.76 306.94 285.79 304.45 283.56 300.46 C 281.96 297.89 281.16 294.95 279.80 292.27 C 278.48 290.38 276.87 288.71 275.59 286.79 C 276.33 287.26 277.80 288.22 278.53 288.70 C 278.37 287.93 278.05 286.39 277.89 285.63 Z" />
<path fill="#f6b40e" opacity="1.00" d=" M 266.46 313.63 C 263.17 307.26 263.32 299.54 265.72 292.90 C 265.24 297.31 265.18 301.70 266.07 306.08 C 266.23 311.96 270.67 316.89 269.70 322.90 C 269.23 319.61 268.00 316.54 266.46 313.63 Z" />
<path fill="#f6b40e" opacity="1.00" d=" M 243.54 309.85 C 244.07 305.19 246.48 301.09 247.83 296.67 C 247.93 299.95 247.73 303.28 246.31 306.30 C 244.26 310.71 245.26 315.64 244.70 320.32 C 243.84 316.91 243.14 313.37 243.54 309.85 Z" />
<path fill="#f6b40e" opacity="1.00" d=" M 212.86 299.17 C 213.04 298.99 213.41 298.65 213.59 298.47 C 213.41 298.65 213.04 298.99 212.86 299.17 Z" />
<path fill="#f6b40e" opacity="1.00" d=" M 298.44 298.30 C 298.61 298.47 298.94 298.81 299.11 298.99 C 298.94 298.81 298.61 298.47 298.44 298.30 Z" />
<path fill="#f6b40e" opacity="1.00" d=" M 211.96 300.03 C 212.18 299.81 212.63 299.38 212.86 299.17 C 212.63 299.38 212.18 299.81 211.96 300.03 Z" />
<path fill="#f6b40e" opacity="1.00" d=" M 299.11 298.99 C 299.29 299.15 299.64 299.48 299.81 299.65 C 299.64 299.48 299.29 299.15 299.11 298.99 Z" />
<path fill="#f6b40e" opacity="1.00" d=" M 211.00 300.94 C 211.24 300.71 211.72 300.26 211.96 300.03 C 211.72 300.26 211.24 300.71 211.00 300.94 Z" />
<path fill="#f6b40e" opacity="1.00" d=" M 299.81 299.65 C 300.02 299.85 300.43 300.24 300.63 300.44 C 300.43 300.24 300.02 299.85 299.81 299.65 Z" />
<path fill="#f6b40e" opacity="1.00" d=" M 210.11 301.84 C 210.33 301.61 210.77 301.17 211.00 300.94 C 210.77 301.17 210.33 301.61 210.11 301.84 Z" />
<path fill="#f6b40e" opacity="1.00" d=" M 300.63 300.44 C 300.91 300.76 301.48 301.41 301.77 301.73 C 301.48 301.41 300.91 300.76 300.63 300.44 Z" />
<path fill="#f6b40e" opacity="1.00" d=" M 209.63 302.34 C 209.75 302.21 209.99 301.96 210.11 301.84 C 209.99 301.96 209.75 302.21 209.63 302.34 Z" />
<path fill="#f6b40e" opacity="1.00" d=" M 301.77 301.73 C 302.28 302.27 302.28 302.27 301.77 301.73 Z" />
</g>
</svg>
