<?xml version="1.0" encoding="UTF-8" ?>
<!DOCTYPE svg PUBLIC "-//W3C//DTD SVG 1.1//EN" "http://www.w3.org/Graphics/SVG/1.1/DTD/svg11.dtd">
<svg width="512pt" height="512pt" viewBox="0 0 512 512" version="1.1" xmlns="http://www.w3.org/2000/svg">
<g id="#ffffffff">
<path fill="#ffffff" opacity="1.00" d=" M 0.00 0.00 L 30.95 0.00 C 50.02 18.54 68.96 37.22 88.00 55.80 C 88.00 37.20 88.00 18.60 88.00 0.00 L 104.00 0.00 C 104.00 34.67 104.00 69.33 104.00 104.00 C 69.33 104.00 34.67 104.00 0.00 104.00 L 0.00 88.00 C 17.26 87.99 34.53 88.01 51.79 87.99 C 34.52 71.06 17.44 53.94 0.00 37.19 L 0.00 24.45 C 21.26 45.69 42.66 66.81 63.97 88.00 C 72.11 87.97 80.25 88.07 88.38 87.95 C 87.91 86.99 87.33 86.11 86.63 85.32 C 57.75 57.04 28.84 28.78 0.00 0.46 L 0.00 0.00 Z" />
<path fill="#ffffff" opacity="1.00" d=" M 152.00 0.00 L 168.00 0.00 C 168.00 17.51 168.00 35.03 168.00 52.54 C 185.25 35.00 202.73 17.68 219.82 0.00 L 233.34 0.00 C 231.21 1.63 229.40 3.61 227.55 5.52 C 207.70 25.64 187.83 45.74 167.99 65.88 C 168.03 73.36 167.95 80.83 168.03 88.31 C 170.85 87.71 172.46 85.17 174.41 83.30 C 200.76 56.39 227.13 29.48 253.49 2.57 C 254.22 1.76 254.88 0.91 255.49 -0.00 L 255.80 0.00 C 256.22 10.67 255.91 21.35 255.99 32.02 C 237.53 50.67 219.05 69.31 200.62 87.99 C 219.08 88.01 237.54 88.00 256.00 88.00 C 256.00 93.33 256.00 98.67 256.00 104.00 C 221.33 104.00 186.67 104.00 152.00 104.00 C 152.00 69.33 152.00 34.67 152.00 0.00 Z" />
<path fill="#ffffff" opacity="1.00" d=" M 384.38 94.50 C 386.88 88.05 389.17 81.51 391.73 75.08 C 394.05 81.62 396.14 88.26 398.63 94.74 C 405.08 92.43 411.64 90.44 418.12 88.24 C 414.70 94.21 410.83 99.92 407.21 105.77 C 412.75 109.75 418.89 112.98 424.11 117.36 C 417.37 118.11 410.63 118.81 403.90 119.62 C 404.54 126.48 405.14 133.35 405.79 140.21 C 400.70 135.54 396.02 130.44 391.09 125.60 C 386.09 130.40 381.04 135.14 376.08 139.97 C 376.74 133.10 377.56 126.25 378.46 119.40 C 371.63 118.29 364.75 117.46 357.89 116.58 C 363.53 112.52 369.74 109.33 375.42 105.33 C 371.75 99.58 368.32 93.67 364.87 87.78 C 371.45 89.79 377.87 92.27 384.38 94.50 Z" />
<path fill="#ffffff" opacity="1.00" d=" M 0.00 152.00 C 34.67 152.00 69.33 152.00 104.00 152.00 C 104.00 186.67 104.00 221.33 104.00 256.00 C 98.67 256.00 93.33 256.00 88.00 256.00 C 88.00 237.81 88.00 219.62 88.00 201.43 C 69.99 219.62 52.00 237.82 34.00 256.00 C 29.68 256.00 25.36 256.00 21.05 255.99 C 43.32 233.55 65.55 211.06 87.93 188.73 C 88.07 181.73 88.00 174.72 87.97 167.72 C 86.71 168.04 85.39 168.40 84.54 169.47 C 56.40 197.86 28.13 226.13 0.00 254.53 L 0.00 220.97 L 0.16 221.90 C 17.94 203.86 35.87 185.98 53.70 168.00 C 35.80 167.99 17.90 168.00 0.00 168.00 L 0.00 152.00 Z" />
<path fill="#ffffff" opacity="1.00" d=" M 152.00 152.00 C 186.67 152.00 221.33 152.00 256.00 152.00 C 256.00 157.33 256.00 162.67 256.00 168.00 C 237.90 168.01 219.79 167.99 201.69 168.01 C 219.75 185.78 237.72 203.64 255.91 221.28 C 256.06 225.34 256.00 229.40 255.99 233.46 C 233.69 211.67 211.45 189.81 189.16 168.00 C 182.00 168.02 174.84 167.95 167.68 168.04 C 168.34 170.80 170.82 172.40 172.68 174.33 C 200.46 201.55 228.23 228.77 255.99 256.01 C 244.79 255.79 233.51 256.39 222.36 255.73 C 204.10 238.09 186.15 220.12 168.00 202.37 C 167.99 220.25 168.00 238.12 168.00 256.00 C 162.66 256.00 157.33 256.00 152.00 256.00 C 152.00 221.33 152.00 186.67 152.00 152.00 Z" />
<path fill="#ffffff" opacity="1.00" d=" M 472.62 158.90 C 475.80 165.15 477.10 172.25 480.38 178.44 C 486.29 175.94 492.53 174.31 498.47 171.86 C 499.05 171.51 499.71 171.52 500.36 171.64 C 495.89 177.11 492.68 183.59 488.96 189.62 C 494.93 193.23 500.78 197.05 506.67 200.80 C 499.71 201.74 492.73 202.54 485.77 203.56 C 486.58 210.41 487.32 217.28 488.04 224.15 C 482.83 219.58 478.09 214.51 473.04 209.76 C 467.93 214.56 463.08 219.61 458.01 224.45 C 458.72 217.51 459.30 210.55 460.16 203.63 C 453.64 202.52 446.99 202.22 440.48 201.16 C 440.32 201.01 440.00 200.72 439.84 200.57 C 445.60 196.97 451.32 193.31 456.91 189.47 C 453.15 183.64 449.47 177.74 445.93 171.78 C 452.58 173.91 459.17 176.24 465.82 178.38 C 468.05 171.88 470.45 165.43 472.62 158.90 Z" />
<path fill="#ffffff" opacity="1.00" d=" M 298.46 192.68 C 301.62 198.55 302.85 205.33 305.54 211.45 C 311.91 209.21 318.35 207.16 324.80 205.16 C 321.19 210.95 317.32 216.61 313.99 222.58 C 319.73 226.10 325.27 229.92 330.90 233.60 C 324.17 234.30 317.45 235.10 310.72 235.74 C 311.04 242.52 311.88 249.26 312.39 256.03 C 307.54 251.29 302.84 246.40 298.01 241.64 C 293.03 246.28 288.14 251.02 283.21 255.71 C 283.97 248.94 284.81 242.17 285.58 235.40 C 278.98 234.54 272.39 233.61 265.79 232.79 C 271.10 228.74 277.05 225.59 282.66 221.96 C 279.28 216.05 275.67 210.28 272.21 204.41 C 278.70 206.55 285.05 209.19 291.63 211.05 C 293.78 204.88 296.22 198.82 298.46 192.68 Z" />
<path fill="#ffffff" opacity="1.00" d=" M 426.50 258.05 C 428.53 261.98 430.21 266.08 432.10 270.09 C 436.44 270.59 440.78 271.07 445.12 271.56 C 442.11 274.79 438.64 277.56 435.49 280.65 C 436.43 284.95 437.30 289.27 438.19 293.58 C 434.37 291.40 430.50 289.30 426.74 287.01 C 422.76 289.07 418.93 291.39 415.04 293.59 C 415.86 289.27 416.78 284.96 417.72 280.65 C 414.51 277.58 411.13 274.69 407.98 271.56 C 412.34 271.09 416.71 270.59 421.07 270.09 C 422.91 266.09 424.77 262.10 426.50 258.05 Z" />
<path fill="#ffffff" opacity="1.00" d=" M 128.33 309.81 C 133.80 324.12 138.66 338.68 143.91 353.08 C 158.47 348.23 172.98 343.25 187.55 338.46 C 179.47 351.49 171.44 364.54 163.29 377.54 C 176.17 386.04 189.24 394.25 202.11 402.77 C 186.83 404.57 171.55 406.45 156.26 408.14 C 157.65 423.46 159.29 438.75 160.80 454.06 C 149.80 443.35 139.00 432.45 127.99 421.76 C 116.99 432.43 106.01 443.12 95.09 453.88 C 96.52 438.57 98.32 423.30 99.90 408.01 C 84.67 406.07 69.44 404.14 54.21 402.23 C 67.03 393.86 79.98 385.66 92.95 377.51 C 85.13 364.26 76.97 351.20 69.00 338.03 C 83.56 342.94 98.06 348.06 112.63 352.97 C 117.81 338.57 123.09 324.19 128.33 309.81 Z" />
<path fill="#ffffff" opacity="1.00" d=" M 384.38 388.91 C 386.88 382.58 388.52 375.89 391.51 369.79 C 393.60 376.12 396.23 382.28 398.20 388.66 C 404.88 386.82 411.31 384.21 417.91 382.11 C 414.33 387.97 410.77 393.83 407.21 399.70 C 412.95 403.44 418.88 406.90 424.50 410.82 C 417.74 411.69 410.98 412.55 404.21 413.40 C 404.92 420.22 405.67 427.04 406.40 433.87 C 401.33 429.17 396.61 424.09 391.42 419.54 C 386.71 424.39 381.92 429.18 376.96 433.78 C 377.50 427.00 378.32 420.24 378.86 413.46 C 372.22 412.76 365.61 411.91 358.98 411.18 C 364.02 406.85 370.15 403.75 375.66 399.97 C 372.24 394.04 368.30 388.44 364.98 382.45 C 371.44 384.62 377.92 386.73 384.38 388.91 Z" />
</g>
<g id="#00008bff">
<path fill="#00008b" opacity="1.00" d=" M 30.95 0.00 L 88.00 0.00 C 88.00 18.60 88.00 37.20 88.00 55.80 C 68.96 37.22 50.02 18.54 30.95 0.00 Z" />
<path fill="#00008b" opacity="1.00" d=" M 168.00 0.00 L 219.82 0.00 C 202.73 17.68 185.25 35.00 168.00 52.54 C 168.00 35.03 168.00 17.51 168.00 0.00 Z" />
<path fill="#00008b" opacity="1.00" d=" M 255.80 0.00 L 512.00 0.00 L 512.00 512.00 L 0.00 512.00 L 0.00 256.00 C 7.02 256.00 14.03 256.00 21.05 255.99 C 25.36 256.00 29.68 256.00 34.00 256.00 C 52.00 237.82 69.99 219.62 88.00 201.43 C 88.00 219.62 88.00 237.81 88.00 256.00 C 93.33 256.00 98.67 256.00 104.00 256.00 C 120.00 256.00 136.00 256.00 152.00 256.00 C 157.33 256.00 162.66 256.00 168.00 256.00 C 168.00 238.12 167.99 220.25 168.00 202.37 C 186.15 220.12 204.10 238.09 222.36 255.73 C 233.51 256.39 244.79 255.79 255.99 256.01 C 256.01 248.49 256.00 240.98 255.99 233.46 C 256.00 229.40 256.06 225.34 255.91 221.28 C 237.72 203.64 219.75 185.78 201.69 168.01 C 219.79 167.99 237.90 168.01 256.00 168.00 C 256.00 162.67 256.00 157.33 256.00 152.00 C 256.00 136.00 256.00 120.00 256.00 104.00 C 256.00 98.67 256.00 93.33 256.00 88.00 C 237.54 88.00 219.08 88.01 200.62 87.99 C 219.05 69.31 237.53 50.67 255.99 32.02 C 255.91 21.35 256.22 10.67 255.80 0.00 M 384.38 94.50 C 377.87 92.27 371.45 89.79 364.87 87.78 C 368.32 93.67 371.75 99.58 375.42 105.33 C 369.74 109.33 363.53 112.52 357.89 116.58 C 364.75 117.46 371.63 118.29 378.46 119.40 C 377.56 126.25 376.74 133.10 376.08 139.97 C 381.04 135.14 386.09 130.40 391.09 125.60 C 396.02 130.44 400.70 135.54 405.79 140.21 C 405.14 133.35 404.54 126.48 403.90 119.62 C 410.63 118.81 417.37 118.11 424.11 117.36 C 418.89 112.98 412.75 109.75 407.21 105.77 C 410.83 99.92 414.70 94.21 418.12 88.24 C 411.64 90.44 405.08 92.43 398.63 94.74 C 396.14 88.26 394.05 81.62 391.73 75.08 C 389.17 81.51 386.88 88.05 384.38 94.50 M 472.62 158.90 C 470.45 165.43 468.05 171.88 465.82 178.38 C 459.17 176.24 452.58 173.91 445.93 171.78 C 449.47 177.74 453.15 183.64 456.91 189.47 C 451.32 193.31 445.60 196.97 439.84 200.57 C 440.00 200.72 440.32 201.01 440.48 201.16 C 446.99 202.22 453.64 202.52 460.16 203.63 C 459.30 210.55 458.72 217.51 458.01 224.45 C 463.08 219.61 467.93 214.56 473.04 209.76 C 478.09 214.51 482.83 219.58 488.04 224.15 C 487.32 217.28 486.58 210.41 485.77 203.56 C 492.73 202.54 499.71 201.74 506.67 200.80 C 500.78 197.05 494.93 193.23 488.96 189.62 C 492.68 183.59 495.89 177.11 500.36 171.64 C 499.71 171.52 499.05 171.51 498.47 171.86 C 492.53 174.31 486.29 175.94 480.38 178.44 C 477.10 172.25 475.80 165.15 472.62 158.90 M 298.46 192.68 C 296.22 198.82 293.78 204.88 291.63 211.05 C 285.05 209.19 278.70 206.55 272.21 204.41 C 275.67 210.28 279.28 216.05 282.66 221.96 C 277.05 225.59 271.10 228.74 265.79 232.79 C 272.39 233.61 278.98 234.54 285.58 235.40 C 284.81 242.17 283.97 248.94 283.21 255.71 C 288.14 251.02 293.03 246.28 298.01 241.64 C 302.84 246.40 307.54 251.29 312.39 256.03 C 311.88 249.26 311.04 242.52 310.72 235.74 C 317.45 235.10 324.17 234.30 330.90 233.60 C 325.27 229.92 319.73 226.10 313.99 222.58 C 317.32 216.61 321.19 210.95 324.80 205.16 C 318.35 207.16 311.91 209.21 305.54 211.45 C 302.85 205.33 301.62 198.55 298.46 192.68 M 426.50 258.05 C 424.77 262.10 422.91 266.09 421.07 270.09 C 416.71 270.59 412.34 271.09 407.98 271.56 C 411.13 274.69 414.51 277.58 417.72 280.65 C 416.78 284.96 415.86 289.27 415.04 293.59 C 418.93 291.39 422.76 289.07 426.74 287.01 C 430.50 289.30 434.37 291.40 438.19 293.58 C 437.30 289.27 436.43 284.95 435.49 280.65 C 438.64 277.56 442.11 274.79 445.12 271.56 C 440.78 271.07 436.44 270.59 432.10 270.09 C 430.21 266.08 428.53 261.98 426.50 258.05 M 128.33 309.81 C 123.09 324.19 117.81 338.57 112.63 352.97 C 98.06 348.06 83.56 342.94 69.00 338.03 C 76.97 351.20 85.13 364.26 92.95 377.51 C 79.98 385.66 67.03 393.86 54.21 402.23 C 69.44 404.14 84.67 406.07 99.90 408.01 C 98.32 423.30 96.52 438.57 95.09 453.88 C 106.01 443.12 116.99 432.43 127.99 421.76 C 139.00 432.45 149.80 443.35 160.80 454.06 C 159.29 438.75 157.65 423.46 156.26 408.14 C 171.55 406.45 186.83 404.57 202.11 402.77 C 189.24 394.25 176.17 386.04 163.29 377.54 C 171.44 364.54 179.47 351.49 187.55 338.46 C 172.98 343.25 158.47 348.23 143.91 353.08 C 138.66 338.68 133.80 324.12 128.33 309.81 M 384.38 388.91 C 377.92 386.73 371.44 384.62 364.98 382.45 C 368.30 388.44 372.24 394.04 375.66 399.97 C 370.15 403.75 364.02 406.85 358.98 411.18 C 365.61 411.91 372.22 412.76 378.86 413.46 C 378.32 420.24 377.50 427.00 376.96 433.78 C 381.92 429.18 386.71 424.39 391.42 419.54 C 396.61 424.09 401.33 429.17 406.40 433.87 C 405.67 427.04 404.92 420.22 404.21 413.40 C 410.98 412.55 417.74 411.69 424.50 410.82 C 418.88 406.90 412.95 403.44 407.21 399.70 C 410.77 393.83 414.33 387.97 417.91 382.11 C 411.31 384.21 404.88 386.82 398.20 388.66 C 396.23 382.28 393.60 376.12 391.51 369.79 C 388.52 375.89 386.88 382.58 384.38 388.91 Z" />
<path fill="#00008b" opacity="1.00" d=" M 0.00 37.19 C 17.44 53.94 34.52 71.06 51.79 87.99 C 34.53 88.01 17.26 87.99 0.00 88.00 L 0.00 37.19 Z" />
<path fill="#00008b" opacity="1.00" d=" M 0.00 168.00 C 17.90 168.00 35.80 167.99 53.70 168.00 C 35.87 185.98 17.94 203.86 0.16 221.90 L 0.00 220.97 L 0.00 168.00 Z" />
</g>
<g id="#ff0000ff">
<path fill="#ff0000" opacity="1.00" d=" M 104.00 0.00 L 152.00 0.00 C 152.00 34.67 152.00 69.33 152.00 104.00 C 186.67 104.00 221.33 104.00 256.00 104.00 C 256.00 120.00 256.00 136.00 256.00 152.00 C 221.33 152.00 186.67 152.00 152.00 152.00 C 152.00 186.67 152.00 221.33 152.00 256.00 C 136.00 256.00 120.00 256.00 104.00 256.00 C 104.00 221.33 104.00 186.67 104.00 152.00 C 69.33 152.00 34.67 152.00 0.00 152.00 L 0.00 104.00 C 34.67 104.00 69.33 104.00 104.00 104.00 C 104.00 69.33 104.00 34.67 104.00 0.00 Z" />
<path fill="#ff0000" opacity="1.00" d=" M 233.34 0.00 L 255.49 0.00 C 254.88 0.91 254.22 1.76 253.49 2.57 C 227.13 29.48 200.76 56.39 174.41 83.30 C 172.46 85.17 170.85 87.71 168.03 88.31 C 167.95 80.83 168.03 73.36 167.99 65.88 C 187.83 45.74 207.70 25.64 227.55 5.52 C 229.40 3.61 231.21 1.63 233.34 0.00 Z" />
<path fill="#ff0000" opacity="1.00" d=" M 0.00 0.46 C 28.84 28.78 57.75 57.04 86.63 85.32 C 87.33 86.11 87.91 86.99 88.38 87.95 C 80.25 88.07 72.11 87.97 63.97 88.00 C 42.66 66.81 21.26 45.69 0.00 24.45 L 0.00 0.46 Z" />
<path fill="#ff0000" opacity="1.00" d=" M 84.54 169.47 C 85.39 168.40 86.71 168.04 87.97 167.72 C 88.00 174.72 88.07 181.73 87.93 188.73 C 65.55 211.06 43.32 233.55 21.05 255.99 C 14.03 256.00 7.02 256.00 0.00 256.00 L 0.00 254.53 C 28.13 226.13 56.40 197.86 84.54 169.47 Z" />
<path fill="#ff0000" opacity="1.00" d=" M 167.68 168.04 C 174.84 167.95 182.00 168.02 189.16 168.00 C 211.45 189.81 233.69 211.67 255.99 233.46 C 256.00 240.98 256.01 248.49 255.99 256.01 C 228.23 228.77 200.46 201.55 172.68 174.33 C 170.82 172.40 168.34 170.80 167.68 168.04 Z" />
</g>
</svg>
