<?xml version="1.0" encoding="UTF-8" ?>
<!DOCTYPE svg PUBLIC "-//W3C//DTD SVG 1.1//EN" "http://www.w3.org/Graphics/SVG/1.1/DTD/svg11.dtd">
<svg width="512pt" height="512pt" viewBox="0 0 512 512" version="1.1" xmlns="http://www.w3.org/2000/svg">
<g id="#229e45ff">
<path fill="#229e45" opacity="1.00" d=" M 0.00 0.00 L 512.00 0.00 L 512.00 512.00 L 0.00 512.00 L 0.00 0.00 M 29.24 256.49 C 106.55 306.23 184.02 355.72 261.37 405.40 C 337.99 355.74 414.52 305.91 491.16 256.28 C 414.20 206.24 337.04 156.51 260.00 106.60 C 183.05 156.52 106.29 206.72 29.24 256.49 Z" />
<path fill="#229e45" opacity="1.00" d=" M 183.35 214.38 C 186.33 211.96 191.62 214.18 191.62 218.14 C 192.42 221.81 188.71 225.49 185.05 224.17 C 180.77 223.20 180.19 216.89 183.35 214.38 M 185.45 215.43 C 182.31 216.77 183.20 223.09 186.94 222.51 C 191.13 221.90 189.86 213.75 185.45 215.43 Z" />
<path fill="#229e45" opacity="1.00" d=" M 194.11 213.65 C 196.63 213.80 199.33 213.36 201.71 214.40 C 203.67 216.17 202.49 218.77 200.56 219.98 C 201.65 221.54 202.70 223.13 203.68 224.76 C 200.23 224.58 199.06 220.88 196.35 219.34 C 196.26 221.02 196.19 222.70 196.15 224.39 C 195.61 224.39 194.54 224.40 194.01 224.41 C 194.04 220.82 194.06 217.23 194.11 213.65 M 196.33 215.39 C 196.28 216.33 196.23 217.28 196.18 218.23 C 197.66 218.21 199.14 218.20 200.62 218.18 C 200.92 215.40 198.41 215.49 196.33 215.39 Z" />
<path fill="#229e45" opacity="1.00" d=" M 206.23 214.12 C 208.91 214.59 212.80 213.74 214.21 216.78 C 215.43 219.44 215.06 223.59 211.97 224.79 C 209.87 225.12 207.72 224.94 205.60 224.96 C 205.80 221.35 206.00 217.73 206.23 214.12 M 208.27 215.79 C 208.10 218.33 207.98 220.88 207.87 223.44 C 209.22 223.37 210.54 223.15 211.83 222.76 C 212.73 221.01 212.88 218.87 212.09 217.06 C 210.85 216.52 209.55 216.18 208.27 215.79 Z" />
<path fill="#229e45" opacity="1.00" d=" M 218.00 214.91 C 220.61 215.14 223.21 215.37 225.81 215.60 C 225.77 216.05 225.70 216.95 225.66 217.40 C 223.73 217.23 221.81 217.06 219.89 216.90 C 219.85 217.45 219.75 218.57 219.70 219.13 C 221.76 219.55 224.58 218.97 225.62 221.35 C 223.59 221.31 221.57 221.19 219.55 221.05 C 219.49 221.77 219.36 223.22 219.30 223.95 C 221.52 224.40 224.63 223.58 225.71 226.20 C 222.80 226.09 219.91 225.80 217.01 225.51 C 217.33 221.98 217.67 218.44 218.00 214.91 Z" />
<path fill="#229e45" opacity="1.00" d=" M 229.30 216.21 C 230.36 216.37 231.42 216.53 232.49 216.70 C 232.76 219.19 233.02 221.69 233.28 224.19 C 234.28 221.91 235.12 219.55 236.40 217.42 C 237.15 217.43 238.66 217.45 239.41 217.46 C 238.93 221.08 238.41 224.69 237.89 228.30 C 237.40 228.22 236.42 228.06 235.93 227.99 C 236.29 225.47 236.64 222.95 236.92 220.42 C 235.76 222.84 234.75 225.32 233.71 227.79 C 233.23 227.67 232.27 227.43 231.79 227.31 C 231.52 224.58 231.25 221.86 230.88 219.14 C 230.45 221.75 230.08 224.38 229.71 227.01 C 229.21 226.97 228.21 226.89 227.71 226.86 C 228.23 223.30 228.76 219.76 229.30 216.21 Z" />
<path fill="#229e45" opacity="1.00" d=" M 248.10 221.35 C 250.29 221.86 252.56 222.34 254.43 223.67 C 252.43 223.57 250.43 223.46 248.44 223.36 C 250.03 224.55 251.71 225.65 253.35 226.81 C 251.85 226.54 250.37 226.26 248.89 225.94 C 248.67 226.40 248.22 227.32 248.00 227.78 C 249.78 228.30 251.56 228.88 252.99 230.13 C 250.77 229.92 248.58 229.53 246.40 229.09 C 246.96 226.51 247.54 223.93 248.10 221.35 Z" />
<path fill="#229e45" opacity="1.00" d=" M 261.03 222.84 C 263.65 223.81 269.12 223.81 268.05 227.97 C 267.47 231.22 263.76 230.37 261.42 230.10 C 261.11 231.33 260.81 232.56 260.51 233.79 C 260.01 233.67 259.01 233.42 258.51 233.29 C 259.34 229.81 260.18 226.32 261.03 222.84 M 262.69 224.93 C 262.47 225.82 262.05 227.60 261.84 228.49 C 263.27 228.42 264.72 228.39 266.14 228.14 C 266.36 225.97 264.19 225.64 262.69 224.93 Z" />
<path fill="#229e45" opacity="1.00" d=" M 271.92 226.17 C 274.21 227.13 276.93 227.54 278.77 229.29 C 280.64 231.50 277.96 233.52 276.07 234.32 C 276.57 236.12 277.02 237.93 277.43 239.77 C 274.10 238.60 274.46 234.51 272.13 232.33 C 271.52 233.87 270.95 235.43 270.38 236.99 L 268.42 236.29 C 269.58 232.92 270.75 229.54 271.92 226.17 M 273.29 228.58 C 273.04 229.28 272.56 230.66 272.32 231.36 C 274.23 231.71 276.83 232.96 277.50 230.19 C 276.09 229.64 274.69 229.10 273.29 228.58 Z" />
<path fill="#229e45" opacity="1.00" d=" M 283.37 232.42 C 286.50 230.64 291.37 233.19 291.10 236.98 C 290.90 239.00 289.99 241.07 288.29 242.27 C 285.56 243.76 281.31 242.22 280.73 238.99 C 280.36 236.57 281.25 233.79 283.37 232.42 M 284.35 234.30 C 282.35 235.97 281.95 240.24 285.02 240.95 C 287.62 241.37 289.17 238.35 288.86 236.13 C 288.79 234.03 285.89 232.92 284.35 234.30 Z" />
<path fill="#229e45" opacity="1.00" d=" M 292.14 244.76 C 290.27 240.59 295.32 235.01 299.59 237.56 C 301.81 238.41 302.24 240.87 302.57 242.95 C 300.37 241.81 299.04 238.17 296.20 239.09 C 294.62 240.16 293.59 242.07 293.91 244.01 C 294.49 246.10 297.08 245.90 298.70 246.57 C 298.00 245.06 297.29 243.58 296.63 242.07 C 298.29 242.80 299.92 243.58 301.54 244.40 C 300.75 245.71 300.03 247.08 299.06 248.28 C 296.38 248.43 293.24 247.43 292.14 244.76 Z" />
<path fill="#229e45" opacity="1.00" d=" M 301.70 250.84 C 303.33 247.64 304.97 244.44 306.64 241.25 C 309.05 242.82 313.05 243.59 313.41 247.02 C 312.90 248.85 311.11 249.43 309.46 249.76 C 309.76 251.57 310.03 253.40 310.30 255.22 C 309.72 254.92 308.57 254.31 308.00 254.01 C 307.73 251.69 307.48 249.23 305.79 247.45 C 305.05 248.87 304.35 250.31 303.64 251.75 C 303.16 251.52 302.19 251.07 301.70 250.84 M 306.08 246.13 C 307.38 246.76 308.69 247.39 310.01 248.01 C 310.37 247.49 311.10 246.43 311.46 245.91 C 310.31 245.28 309.17 244.62 307.97 244.10 C 307.50 244.61 306.55 245.62 306.08 246.13 Z" />
<path fill="#229e45" opacity="1.00" d=" M 312.29 256.66 C 314.19 253.69 316.05 250.70 317.91 247.71 C 320.12 249.04 322.34 250.36 324.56 251.69 L 323.66 253.30 C 322.03 252.30 320.41 251.30 318.80 250.30 C 318.48 250.78 317.84 251.74 317.52 252.22 C 318.88 253.44 321.51 253.95 321.86 255.92 C 320.19 257.07 318.38 254.55 316.60 254.20 C 316.18 254.71 315.33 255.72 314.91 256.22 C 316.29 257.74 320.69 258.25 319.56 260.84 C 316.93 259.84 314.64 258.16 312.29 256.66 Z" />
<path fill="#229e45" opacity="1.00" d=" M 325.86 256.15 C 328.41 252.66 334.49 257.12 332.37 260.76 C 331.12 259.35 330.03 257.83 328.89 256.35 C 328.49 256.68 327.70 257.33 327.30 257.66 C 328.53 259.34 330.47 260.74 330.85 262.88 C 330.85 265.54 327.63 266.95 325.55 265.39 C 322.91 264.47 322.41 261.59 322.90 259.15 C 324.82 260.73 325.17 264.34 328.20 264.18 C 329.38 261.21 323.81 259.17 325.86 256.15 Z" />
<path fill="#229e45" opacity="1.00" d=" M 335.33 261.37 C 338.57 259.33 342.81 263.59 341.43 267.07 C 339.84 265.30 338.68 262.73 335.93 262.69 C 337.02 265.25 340.68 267.76 338.80 270.73 C 336.03 273.87 330.45 269.95 331.49 266.22 C 332.92 264.54 333.20 267.00 333.76 268.03 C 334.14 269.78 336.28 269.69 337.54 270.38 C 337.14 267.31 332.41 264.31 335.33 261.37 Z" />
<path fill="#229e45" opacity="1.00" d=" M 343.34 268.23 C 346.83 265.93 351.94 269.98 350.69 273.91 C 349.97 277.43 345.48 280.22 342.37 277.62 C 338.75 275.46 339.95 269.97 343.34 268.23 M 344.39 270.09 C 342.54 271.24 341.23 274.23 343.16 275.91 C 346.30 278.71 350.93 272.59 347.73 270.11 C 346.61 269.18 345.50 269.18 344.39 270.09 Z" />
</g>
<g id="#f8e509ff">
<path fill="#f8e509" opacity="1.00" d=" M 29.24 256.49 C 106.29 206.72 183.05 156.52 260.00 106.60 C 337.04 156.51 414.20 206.24 491.16 256.28 C 414.52 305.91 337.99 355.74 261.37 405.40 C 184.02 355.72 106.55 306.23 29.24 256.49 M 228.08 168.88 C 207.47 177.07 190.12 192.68 179.24 211.96 C 178.78 211.99 177.86 212.04 177.40 212.07 C 175.02 217.24 172.79 222.49 171.11 227.93 L 172.25 227.84 C 166.33 245.55 165.52 264.94 170.19 283.04 C 175.98 306.02 190.54 326.65 210.29 339.76 C 228.84 352.25 251.80 358.01 274.05 355.69 C 295.61 353.60 316.33 343.98 331.87 328.89 C 348.97 312.47 359.67 289.59 361.26 265.94 C 363.08 242.40 355.75 218.34 341.27 199.72 C 330.07 185.13 314.62 173.83 297.30 167.64 C 275.15 159.45 249.93 159.94 228.08 168.88 Z" />
</g>
<g id="#2b49a3ff">
<path fill="#2b49a3" opacity="1.00" d=" M 228.08 168.88 C 249.93 159.94 275.15 159.45 297.30 167.64 C 314.62 173.83 330.07 185.13 341.27 199.72 C 355.75 218.34 363.08 242.40 361.26 265.94 C 359.67 289.59 348.97 312.47 331.87 328.89 C 316.33 343.98 295.61 353.60 274.05 355.69 C 251.80 358.01 228.84 352.25 210.29 339.76 C 190.54 326.65 175.98 306.02 170.19 283.04 C 165.52 264.94 166.33 245.55 172.25 227.84 C 211.46 224.07 251.60 230.40 287.67 246.23 C 312.57 257.01 335.41 272.34 355.13 290.94 C 356.89 286.02 358.34 281.00 359.51 275.91 C 334.14 253.63 305.16 234.98 273.10 223.99 C 243.08 213.53 210.90 209.93 179.24 211.96 C 190.12 192.68 207.47 177.07 228.08 168.88 M 291.45 224.88 C 292.45 226.28 292.94 227.86 292.70 229.60 C 294.33 229.02 295.99 229.15 297.57 229.82 C 297.41 227.94 298.03 226.27 299.32 224.90 C 298.41 224.75 297.49 224.61 296.58 224.47 C 296.38 223.81 295.96 222.49 295.75 221.83 C 294.66 223.31 293.43 224.72 291.45 224.88 M 183.64 238.44 C 182.78 238.53 181.07 238.70 180.21 238.79 C 180.80 239.41 181.99 240.65 182.58 241.27 C 182.39 242.45 182.20 243.62 182.01 244.80 C 183.01 244.26 184.02 243.72 185.02 243.18 C 185.93 243.77 186.84 244.36 187.75 244.96 C 187.37 242.63 188.19 240.58 189.90 239.00 C 188.82 238.83 187.75 238.67 186.67 238.50 C 186.34 237.68 185.67 236.05 185.33 235.24 C 184.77 236.30 184.20 237.37 183.64 238.44 M 287.35 252.18 C 287.70 253.43 288.01 254.68 288.34 255.95 C 288.75 255.70 289.59 255.19 290.01 254.94 C 290.50 255.26 291.47 255.90 291.96 256.22 C 292.14 254.88 292.36 253.56 292.87 252.31 C 291.96 251.58 291.05 250.84 290.17 250.09 C 289.24 250.80 288.29 251.49 287.35 252.18 M 227.76 259.00 C 226.92 259.10 225.25 259.31 224.42 259.41 C 225.20 260.27 226.00 261.13 226.79 261.99 C 226.62 262.84 226.28 264.55 226.11 265.40 C 227.12 264.90 228.14 264.40 229.16 263.91 C 230.17 264.46 231.18 265.01 232.19 265.56 C 232.07 264.69 231.83 262.95 231.71 262.08 C 232.56 261.28 233.42 260.49 234.28 259.70 C 233.43 259.55 231.74 259.25 230.90 259.10 C 230.42 258.04 229.94 256.99 229.47 255.94 C 228.89 256.95 228.32 257.97 227.76 259.00 M 263.79 268.52 C 262.95 268.62 261.27 268.81 260.42 268.90 C 261.22 269.74 262.02 270.59 262.83 271.43 C 262.62 272.23 262.22 273.82 262.02 274.62 C 264.12 273.30 266.27 273.66 268.28 274.87 C 268.11 274.08 267.78 272.51 267.61 271.73 C 268.45 270.95 269.29 270.18 270.15 269.42 C 267.84 269.09 266.12 267.77 265.22 265.62 C 264.74 266.59 264.27 267.55 263.79 268.52 M 202.48 274.36 C 202.78 275.07 203.08 275.78 203.38 276.49 C 203.97 276.45 205.15 276.36 205.75 276.32 C 205.53 275.22 205.30 274.14 205.07 273.06 C 204.20 273.49 203.34 273.92 202.48 274.36 M 193.30 278.43 C 192.52 278.49 190.96 278.61 190.18 278.67 C 191.66 280.41 192.44 282.45 191.86 284.76 C 192.80 284.26 193.75 283.76 194.70 283.28 C 195.44 283.70 196.93 284.56 197.67 284.99 C 197.56 284.10 197.34 282.33 197.22 281.44 C 198.08 280.70 198.93 279.95 199.79 279.21 C 198.95 279.03 197.25 278.67 196.41 278.50 C 195.90 277.47 195.40 276.45 194.90 275.43 C 194.36 276.43 193.83 277.43 193.30 278.43 M 256.80 277.47 C 255.75 278.21 254.68 278.94 253.61 279.66 C 253.97 280.72 254.32 281.79 254.65 282.87 C 255.72 282.89 256.80 282.93 257.87 282.98 C 258.31 281.77 258.77 280.58 259.25 279.40 C 258.76 279.35 257.78 279.24 257.29 279.19 C 257.17 278.76 256.93 277.90 256.80 277.47 M 273.14 279.69 C 273.46 280.71 273.78 281.74 274.10 282.78 C 275.20 282.90 276.30 283.04 277.41 283.20 C 277.81 281.92 278.22 280.65 278.63 279.38 C 278.20 279.35 277.34 279.29 276.91 279.26 C 276.71 278.80 276.32 277.88 276.12 277.42 C 275.13 278.18 274.14 278.94 273.14 279.69 M 178.39 288.31 C 178.75 289.49 179.08 290.66 179.40 291.86 C 180.74 291.86 182.09 291.94 183.44 292.00 C 183.82 290.79 184.24 289.59 184.66 288.40 C 183.61 287.67 182.57 286.92 181.55 286.16 C 180.50 286.89 179.45 287.61 178.39 288.31 M 213.49 286.39 C 212.57 287.06 211.65 287.74 210.74 288.41 C 211.10 289.46 211.45 290.51 211.79 291.58 C 212.86 291.60 213.94 291.63 215.02 291.68 C 215.39 290.64 215.78 289.62 216.18 288.61 C 215.27 287.87 214.37 287.14 213.49 286.39 M 261.43 288.42 C 261.69 289.22 261.95 290.03 262.20 290.85 C 262.85 290.84 264.15 290.81 264.80 290.79 C 265.05 290.02 265.31 289.26 265.58 288.50 C 265.09 288.16 264.10 287.46 263.61 287.11 C 262.88 287.55 262.15 287.99 261.43 288.42 M 333.05 286.94 C 331.98 288.39 330.55 289.41 328.83 289.93 C 329.42 290.51 330.01 291.10 330.60 291.70 C 330.45 292.44 330.16 293.93 330.02 294.68 C 330.77 294.19 331.53 293.71 332.30 293.23 C 333.14 293.70 333.98 294.18 334.82 294.67 C 334.82 292.77 335.47 291.06 336.66 289.60 C 335.98 289.52 334.61 289.36 333.93 289.28 C 333.63 288.49 333.34 287.71 333.05 286.94 M 345.48 288.34 C 344.93 288.70 343.83 289.41 343.28 289.76 C 343.44 290.60 343.61 291.44 343.78 292.29 C 344.67 292.33 345.57 292.38 346.48 292.44 C 346.55 291.86 346.69 290.69 346.76 290.10 C 346.33 289.51 345.90 288.93 345.48 288.34 M 209.54 297.14 C 208.59 297.75 207.64 298.36 206.69 298.95 C 207.08 300.07 207.44 301.20 207.80 302.33 C 208.87 302.34 209.94 302.35 211.01 302.39 C 211.39 301.30 211.78 300.23 212.18 299.17 C 211.29 298.49 210.41 297.82 209.54 297.14 M 265.58 298.60 C 264.87 298.68 263.45 298.83 262.74 298.91 C 263.23 299.45 264.21 300.55 264.70 301.10 C 264.55 301.84 264.24 303.32 264.09 304.06 C 265.00 303.64 265.91 303.22 266.82 302.81 C 267.46 303.18 268.75 303.91 269.39 304.27 C 269.29 303.51 269.10 301.99 269.01 301.24 C 269.72 300.53 270.44 299.83 271.17 299.14 C 270.44 299.04 268.99 298.85 268.26 298.75 C 267.94 298.05 267.31 296.66 266.99 295.96 C 266.64 296.62 265.93 297.94 265.58 298.60 M 332.19 298.07 C 332.27 298.76 332.43 300.14 332.51 300.83 C 333.20 300.84 334.56 300.87 335.24 300.89 C 335.67 300.11 336.11 299.34 336.56 298.58 C 336.04 298.27 335.00 297.65 334.49 297.35 C 333.72 297.58 332.95 297.82 332.19 298.07 M 330.25 305.66 C 329.80 305.68 328.90 305.72 328.45 305.74 C 328.82 307.10 329.19 308.45 329.55 309.81 C 329.95 309.58 330.76 309.11 331.16 308.88 C 331.52 309.11 332.24 309.58 332.60 309.81 C 333.05 308.62 333.52 307.44 334.01 306.28 C 333.01 305.53 332.03 304.76 331.05 304.00 C 330.85 304.41 330.45 305.25 330.25 305.66 M 227.85 307.61 C 227.02 307.71 225.34 307.91 224.51 308.01 C 225.31 308.82 226.11 309.64 226.92 310.46 C 226.72 311.28 226.33 312.90 226.14 313.71 C 228.23 312.44 230.37 312.75 232.37 313.96 C 232.21 313.19 231.88 311.66 231.71 310.89 C 232.60 310.00 233.49 309.12 234.38 308.24 C 233.54 308.12 231.86 307.87 231.02 307.74 C 230.52 306.63 230.04 305.53 229.55 304.43 C 228.98 305.49 228.42 306.55 227.85 307.61 M 300.35 307.46 C 300.09 307.90 299.55 308.77 299.28 309.20 C 299.29 309.82 299.29 311.04 299.30 311.65 C 299.91 311.60 301.13 311.48 301.75 311.43 C 302.11 310.67 302.48 309.91 302.86 309.16 C 302.02 308.59 301.19 308.03 300.35 307.46 M 313.38 308.83 C 313.47 309.77 313.54 310.71 313.61 311.65 C 314.65 311.62 315.67 311.59 316.72 311.61 C 317.02 310.74 317.34 309.89 317.66 309.03 C 317.14 308.59 316.10 307.70 315.58 307.26 C 314.84 307.78 314.12 308.31 313.38 308.83 M 323.23 307.42 C 322.56 307.94 321.90 308.47 321.23 308.99 C 321.34 309.61 321.56 310.85 321.67 311.47 C 322.59 311.47 323.52 311.49 324.45 311.51 C 324.70 310.70 324.96 309.89 325.23 309.09 C 324.56 308.54 323.89 307.98 323.23 307.42 M 285.24 308.90 C 285.33 309.55 285.51 310.87 285.59 311.52 C 286.51 311.51 287.43 311.51 288.35 311.53 C 288.50 310.90 288.81 309.64 288.96 309.01 C 288.50 308.78 287.56 308.30 287.09 308.07 C 286.63 308.28 285.70 308.69 285.24 308.90 M 312.49 319.28 C 312.82 320.42 313.14 321.57 313.47 322.73 C 313.85 322.48 314.61 321.99 315.00 321.75 C 315.39 322.03 316.19 322.58 316.58 322.85 C 316.93 321.70 317.29 320.56 317.66 319.42 C 316.84 318.76 316.02 318.09 315.23 317.42 C 314.32 318.05 313.40 318.67 312.49 319.28 M 294.70 320.93 C 294.12 322.01 293.55 323.10 292.97 324.19 C 292.13 324.26 290.44 324.39 289.59 324.46 C 290.39 325.31 291.19 326.16 292.00 327.01 C 291.82 327.88 291.47 329.61 291.30 330.48 C 292.38 329.95 293.47 329.42 294.57 328.91 C 295.29 329.35 296.74 330.25 297.47 330.70 C 297.36 329.84 297.13 328.13 297.02 327.28 C 297.80 326.40 298.60 325.54 299.38 324.66 C 298.57 324.56 296.94 324.36 296.12 324.26 C 295.64 323.14 295.17 322.04 294.70 320.93 M 315.44 326.12 C 314.70 326.73 313.96 327.34 313.22 327.96 C 313.38 329.03 313.53 330.10 313.68 331.19 C 314.69 331.15 315.71 331.13 316.73 331.12 C 317.05 330.14 317.39 329.18 317.73 328.21 C 316.96 327.52 316.20 326.82 315.44 326.12 M 265.29 330.27 C 265.21 330.88 265.05 332.10 264.97 332.72 C 265.71 332.67 267.20 332.57 267.95 332.53 C 267.61 331.40 267.28 330.28 266.94 329.16 C 266.53 329.44 265.70 329.99 265.29 330.27 Z" />
</g>
<g id="#fefefdff">
<path fill="#fefefd" opacity="1.00" d=" M 179.24 211.96 C 210.90 209.93 243.08 213.53 273.10 223.99 C 305.16 234.98 334.14 253.63 359.51 275.91 C 358.34 281.00 356.89 286.02 355.13 290.94 C 335.41 272.34 312.57 257.01 287.67 246.23 C 251.60 230.40 211.46 224.07 172.25 227.84 L 171.11 227.93 C 172.79 222.49 175.02 217.24 177.40 212.07 C 177.86 212.04 178.78 211.99 179.24 211.96 M 183.35 214.38 C 180.19 216.89 180.77 223.20 185.05 224.17 C 188.71 225.49 192.42 221.81 191.62 218.14 C 191.62 214.18 186.33 211.96 183.35 214.38 M 194.11 213.65 C 194.06 217.23 194.04 220.82 194.01 224.41 C 194.54 224.40 195.61 224.39 196.15 224.39 C 196.19 222.70 196.26 221.02 196.35 219.34 C 199.06 220.88 200.23 224.58 203.68 224.76 C 202.70 223.13 201.65 221.54 200.56 219.98 C 202.49 218.77 203.67 216.17 201.71 214.40 C 199.33 213.36 196.63 213.80 194.11 213.65 M 206.23 214.12 C 206.00 217.73 205.80 221.35 205.60 224.96 C 207.72 224.94 209.87 225.12 211.97 224.79 C 215.06 223.59 215.43 219.44 214.21 216.78 C 212.80 213.74 208.91 214.59 206.23 214.12 M 218.00 214.91 C 217.67 218.44 217.33 221.98 217.01 225.51 C 219.91 225.80 222.80 226.09 225.71 226.20 C 224.63 223.58 221.52 224.40 219.30 223.95 C 219.36 223.22 219.49 221.77 219.55 221.05 C 221.57 221.19 223.59 221.31 225.62 221.35 C 224.58 218.97 221.76 219.55 219.70 219.13 C 219.75 218.57 219.85 217.45 219.89 216.90 C 221.81 217.06 223.73 217.23 225.66 217.40 C 225.70 216.95 225.77 216.05 225.81 215.60 C 223.21 215.37 220.61 215.14 218.00 214.91 M 229.30 216.21 C 228.76 219.76 228.23 223.30 227.71 226.86 C 228.21 226.89 229.21 226.97 229.71 227.01 C 230.08 224.38 230.45 221.75 230.88 219.14 C 231.25 221.86 231.52 224.58 231.79 227.31 C 232.27 227.43 233.23 227.67 233.71 227.79 C 234.75 225.32 235.76 222.84 236.92 220.42 C 236.64 222.95 236.29 225.47 235.93 227.99 C 236.42 228.06 237.40 228.22 237.89 228.30 C 238.41 224.69 238.93 221.08 239.41 217.46 C 238.66 217.45 237.15 217.43 236.40 217.42 C 235.12 219.55 234.28 221.91 233.28 224.19 C 233.02 221.69 232.76 219.19 232.49 216.70 C 231.42 216.53 230.36 216.37 229.30 216.21 M 248.10 221.35 C 247.54 223.93 246.96 226.51 246.40 229.09 C 248.58 229.53 250.77 229.92 252.99 230.13 C 251.56 228.88 249.78 228.30 248.00 227.78 C 248.22 227.32 248.67 226.40 248.89 225.94 C 250.37 226.26 251.85 226.54 253.35 226.81 C 251.71 225.65 250.03 224.55 248.44 223.36 C 250.43 223.46 252.43 223.57 254.43 223.67 C 252.56 222.34 250.29 221.86 248.10 221.35 M 261.03 222.84 C 260.18 226.32 259.34 229.81 258.51 233.29 C 259.01 233.42 260.01 233.67 260.51 233.79 C 260.81 232.56 261.11 231.33 261.42 230.10 C 263.76 230.37 267.47 231.22 268.05 227.97 C 269.12 223.81 263.65 223.81 261.03 222.84 M 271.92 226.17 C 270.75 229.54 269.58 232.92 268.42 236.29 L 270.38 236.99 C 270.95 235.43 271.52 233.87 272.13 232.33 C 274.46 234.51 274.10 238.60 277.43 239.77 C 277.02 237.93 276.57 236.12 276.07 234.32 C 277.96 233.52 280.64 231.50 278.77 229.29 C 276.93 227.54 274.21 227.13 271.92 226.17 M 283.37 232.42 C 281.25 233.79 280.36 236.57 280.73 238.99 C 281.31 242.22 285.56 243.76 288.29 242.27 C 289.99 241.07 290.90 239.00 291.10 236.98 C 291.37 233.19 286.50 230.64 283.37 232.42 M 292.14 244.76 C 293.24 247.43 296.38 248.43 299.06 248.28 C 300.03 247.08 300.75 245.71 301.54 244.40 C 299.92 243.58 298.29 242.80 296.63 242.07 C 297.29 243.58 298.00 245.06 298.70 246.57 C 297.08 245.90 294.49 246.10 293.91 244.01 C 293.59 242.07 294.62 240.16 296.20 239.09 C 299.04 238.17 300.37 241.81 302.57 242.95 C 302.24 240.87 301.81 238.41 299.59 237.56 C 295.32 235.01 290.27 240.59 292.14 244.76 M 301.70 250.84 C 302.19 251.07 303.16 251.52 303.64 251.75 C 304.35 250.31 305.05 248.87 305.79 247.45 C 307.48 249.23 307.73 251.69 308.00 254.01 C 308.57 254.31 309.72 254.92 310.30 255.22 C 310.03 253.40 309.76 251.57 309.46 249.76 C 311.11 249.43 312.90 248.85 313.41 247.02 C 313.05 243.59 309.05 242.82 306.64 241.25 C 304.97 244.44 303.33 247.64 301.70 250.84 M 312.29 256.66 C 314.64 258.16 316.93 259.84 319.56 260.84 C 320.69 258.25 316.29 257.74 314.91 256.22 C 315.33 255.72 316.18 254.71 316.60 254.20 C 318.38 254.55 320.19 257.07 321.86 255.92 C 321.51 253.95 318.88 253.44 317.52 252.22 C 317.84 251.74 318.48 250.78 318.80 250.30 C 320.41 251.30 322.03 252.30 323.66 253.30 L 324.56 251.69 C 322.34 250.36 320.12 249.04 317.91 247.71 C 316.05 250.70 314.19 253.69 312.29 256.66 M 325.86 256.15 C 323.81 259.17 329.38 261.21 328.20 264.18 C 325.17 264.34 324.82 260.73 322.90 259.15 C 322.41 261.59 322.91 264.47 325.55 265.39 C 327.63 266.95 330.85 265.54 330.85 262.88 C 330.47 260.74 328.53 259.34 327.30 257.66 C 327.70 257.33 328.49 256.68 328.89 256.35 C 330.03 257.83 331.12 259.35 332.37 260.76 C 334.49 257.12 328.41 252.66 325.86 256.15 M 335.33 261.37 C 332.41 264.31 337.14 267.31 337.54 270.38 C 336.28 269.69 334.14 269.78 333.76 268.03 C 333.20 267.00 332.92 264.54 331.49 266.22 C 330.45 269.95 336.03 273.87 338.80 270.73 C 340.68 267.76 337.02 265.25 335.93 262.69 C 338.68 262.73 339.84 265.30 341.43 267.07 C 342.81 263.59 338.57 259.33 335.33 261.37 M 343.34 268.23 C 339.95 269.97 338.75 275.46 342.37 277.62 C 345.48 280.22 349.97 277.43 350.69 273.91 C 351.94 269.98 346.83 265.93 343.34 268.23 Z" />
<path fill="#fefefd" opacity="1.00" d=" M 185.45 215.43 C 189.86 213.75 191.13 221.90 186.94 222.51 C 183.20 223.09 182.31 216.77 185.45 215.43 Z" />
<path fill="#fefefd" opacity="1.00" d=" M 196.33 215.39 C 198.41 215.49 200.92 215.40 200.62 218.18 C 199.14 218.20 197.66 218.21 196.18 218.23 C 196.23 217.28 196.28 216.33 196.33 215.39 Z" />
<path fill="#fefefd" opacity="1.00" d=" M 208.27 215.79 C 209.55 216.18 210.85 216.52 212.09 217.06 C 212.88 218.87 212.73 221.01 211.83 222.76 C 210.54 223.15 209.22 223.37 207.87 223.44 C 207.98 220.88 208.10 218.33 208.27 215.79 Z" />
<path fill="#fefefd" opacity="1.00" d=" M 291.45 224.88 C 293.43 224.72 294.66 223.31 295.75 221.83 C 295.96 222.49 296.38 223.81 296.58 224.47 C 297.49 224.61 298.41 224.75 299.32 224.90 C 298.03 226.27 297.41 227.94 297.57 229.82 C 295.99 229.15 294.33 229.02 292.70 229.60 C 292.94 227.86 292.45 226.28 291.45 224.88 Z" />
<path fill="#fefefd" opacity="1.00" d=" M 262.69 224.93 C 264.19 225.64 266.36 225.97 266.14 228.14 C 264.72 228.39 263.27 228.42 261.84 228.49 C 262.05 227.60 262.47 225.82 262.69 224.93 Z" />
<path fill="#fefefd" opacity="1.00" d=" M 273.29 228.58 C 274.69 229.10 276.09 229.64 277.50 230.19 C 276.83 232.96 274.23 231.71 272.32 231.36 C 272.56 230.66 273.04 229.28 273.29 228.58 Z" />
<path fill="#fefefd" opacity="1.00" d=" M 284.35 234.30 C 285.89 232.92 288.79 234.03 288.86 236.13 C 289.17 238.35 287.62 241.37 285.02 240.95 C 281.95 240.24 282.35 235.97 284.35 234.30 Z" />
<path fill="#fefefd" opacity="1.00" d=" M 183.64 238.44 C 184.20 237.37 184.77 236.30 185.33 235.24 C 185.67 236.05 186.34 237.68 186.67 238.50 C 187.75 238.67 188.82 238.83 189.90 239.00 C 188.19 240.58 187.37 242.63 187.75 244.96 C 186.84 244.36 185.93 243.77 185.02 243.18 C 184.02 243.72 183.01 244.26 182.01 244.80 C 182.20 243.62 182.39 242.45 182.58 241.27 C 181.99 240.65 180.80 239.41 180.21 238.79 C 181.07 238.70 182.78 238.53 183.64 238.44 Z" />
<path fill="#fefefd" opacity="1.00" d=" M 306.08 246.13 C 306.55 245.62 307.50 244.61 307.97 244.10 C 309.17 244.62 310.31 245.28 311.46 245.91 C 311.10 246.43 310.37 247.49 310.01 248.01 C 308.69 247.39 307.38 246.76 306.08 246.13 Z" />
<path fill="#fefefd" opacity="1.00" d=" M 287.35 252.18 C 288.29 251.49 289.24 250.80 290.17 250.09 C 291.05 250.84 291.96 251.58 292.87 252.31 C 292.36 253.56 292.14 254.88 291.96 256.22 C 291.47 255.90 290.50 255.26 290.01 254.94 C 289.59 255.19 288.75 255.70 288.34 255.95 C 288.01 254.68 287.70 253.43 287.35 252.18 Z" />
<path fill="#fefefd" opacity="1.00" d=" M 227.76 259.00 C 228.32 257.97 228.89 256.95 229.47 255.94 C 229.94 256.99 230.42 258.04 230.90 259.10 C 231.74 259.25 233.43 259.55 234.28 259.70 C 233.42 260.49 232.56 261.28 231.71 262.08 C 231.83 262.95 232.07 264.69 232.19 265.56 C 231.18 265.01 230.17 264.46 229.16 263.91 C 228.14 264.40 227.12 264.90 226.11 265.40 C 226.28 264.55 226.62 262.84 226.79 261.99 C 226.00 261.13 225.20 260.27 224.42 259.41 C 225.25 259.31 226.92 259.10 227.76 259.00 Z" />
<path fill="#fefefd" opacity="1.00" d=" M 263.79 268.52 C 264.27 267.55 264.74 266.59 265.22 265.62 C 266.12 267.77 267.84 269.09 270.15 269.42 C 269.29 270.18 268.45 270.95 267.61 271.73 C 267.78 272.51 268.11 274.08 268.28 274.87 C 266.27 273.66 264.12 273.30 262.02 274.62 C 262.22 273.82 262.62 272.23 262.83 271.43 C 262.02 270.59 261.22 269.74 260.42 268.90 C 261.27 268.81 262.95 268.62 263.79 268.52 Z" />
<path fill="#fefefd" opacity="1.00" d=" M 344.39 270.09 C 345.50 269.18 346.61 269.18 347.73 270.11 C 350.93 272.59 346.30 278.71 343.16 275.91 C 341.23 274.23 342.54 271.24 344.39 270.09 Z" />
<path fill="#fefefd" opacity="1.00" d=" M 202.48 274.36 C 203.34 273.92 204.20 273.49 205.07 273.06 C 205.30 274.14 205.53 275.22 205.75 276.32 C 205.15 276.36 203.97 276.45 203.38 276.49 C 203.08 275.78 202.78 275.07 202.48 274.36 Z" />
<path fill="#fefefd" opacity="1.00" d=" M 193.30 278.43 C 193.83 277.43 194.36 276.43 194.90 275.43 C 195.40 276.45 195.90 277.47 196.41 278.50 C 197.25 278.67 198.95 279.03 199.79 279.21 C 198.93 279.95 198.08 280.70 197.22 281.44 C 197.34 282.33 197.56 284.10 197.67 284.99 C 196.93 284.56 195.44 283.70 194.70 283.28 C 193.75 283.76 192.80 284.26 191.86 284.76 C 192.44 282.45 191.66 280.41 190.18 278.67 C 190.96 278.61 192.52 278.49 193.30 278.43 Z" />
<path fill="#fefefd" opacity="1.00" d=" M 256.80 277.47 C 256.93 277.90 257.17 278.76 257.29 279.19 C 257.78 279.24 258.76 279.35 259.25 279.40 C 258.77 280.58 258.31 281.77 257.87 282.98 C 256.80 282.93 255.72 282.89 254.65 282.87 C 254.32 281.79 253.97 280.72 253.61 279.66 C 254.68 278.94 255.75 278.21 256.80 277.47 Z" />
<path fill="#fefefd" opacity="1.00" d=" M 273.14 279.69 C 274.14 278.94 275.13 278.18 276.12 277.42 C 276.32 277.88 276.71 278.80 276.91 279.26 C 277.34 279.29 278.20 279.35 278.63 279.38 C 278.22 280.65 277.81 281.92 277.41 283.20 C 276.30 283.04 275.20 282.90 274.10 282.78 C 273.78 281.74 273.46 280.71 273.14 279.69 Z" />
<path fill="#fefefd" opacity="1.00" d=" M 178.39 288.31 C 179.45 287.61 180.50 286.89 181.55 286.16 C 182.57 286.92 183.61 287.67 184.66 288.40 C 184.24 289.59 183.82 290.79 183.44 292.00 C 182.09 291.94 180.74 291.86 179.40 291.86 C 179.08 290.66 178.75 289.49 178.39 288.31 Z" />
<path fill="#fefefd" opacity="1.00" d=" M 213.49 286.39 C 214.37 287.14 215.27 287.87 216.18 288.61 C 215.78 289.62 215.39 290.64 215.02 291.68 C 213.94 291.63 212.86 291.60 211.79 291.58 C 211.45 290.51 211.10 289.46 210.74 288.41 C 211.65 287.74 212.57 287.06 213.49 286.39 Z" />
<path fill="#fefefd" opacity="1.00" d=" M 261.43 288.42 C 262.15 287.99 262.88 287.55 263.61 287.11 C 264.10 287.46 265.09 288.16 265.58 288.50 C 265.31 289.26 265.05 290.02 264.80 290.79 C 264.15 290.81 262.85 290.84 262.20 290.85 C 261.95 290.03 261.69 289.22 261.43 288.42 Z" />
<path fill="#fefefd" opacity="1.00" d=" M 333.05 286.94 C 333.34 287.71 333.63 288.49 333.93 289.28 C 334.61 289.36 335.98 289.52 336.66 289.60 C 335.47 291.06 334.82 292.77 334.82 294.67 C 333.98 294.18 333.14 293.70 332.30 293.23 C 331.53 293.71 330.77 294.19 330.02 294.68 C 330.16 293.93 330.45 292.44 330.60 291.70 C 330.01 291.10 329.42 290.51 328.83 289.93 C 330.55 289.41 331.98 288.39 333.05 286.94 Z" />
<path fill="#fefefd" opacity="1.00" d=" M 345.48 288.34 C 345.90 288.93 346.33 289.51 346.76 290.10 C 346.69 290.69 346.55 291.86 346.48 292.44 C 345.57 292.38 344.67 292.33 343.78 292.29 C 343.61 291.44 343.44 290.60 343.28 289.76 C 343.83 289.41 344.93 288.70 345.48 288.34 Z" />
<path fill="#fefefd" opacity="1.00" d=" M 209.54 297.14 C 210.41 297.82 211.29 298.49 212.18 299.17 C 211.78 300.23 211.39 301.30 211.01 302.39 C 209.94 302.35 208.87 302.34 207.80 302.33 C 207.44 301.20 207.08 300.07 206.69 298.95 C 207.64 298.36 208.59 297.75 209.54 297.14 Z" />
<path fill="#fefefd" opacity="1.00" d=" M 265.58 298.60 C 265.93 297.94 266.64 296.62 266.99 295.96 C 267.31 296.66 267.94 298.05 268.26 298.75 C 268.99 298.85 270.44 299.04 271.17 299.14 C 270.44 299.83 269.72 300.53 269.01 301.24 C 269.10 301.99 269.29 303.51 269.39 304.27 C 268.75 303.91 267.46 303.18 266.82 302.81 C 265.91 303.22 265.00 303.64 264.09 304.06 C 264.24 303.32 264.55 301.84 264.70 301.10 C 264.21 300.55 263.23 299.45 262.74 298.91 C 263.45 298.83 264.87 298.68 265.58 298.60 Z" />
<path fill="#fefefd" opacity="1.00" d=" M 332.19 298.07 C 332.95 297.82 333.72 297.58 334.49 297.35 C 335.00 297.65 336.04 298.27 336.56 298.58 C 336.11 299.34 335.67 300.11 335.24 300.89 C 334.56 300.87 333.20 300.84 332.51 300.83 C 332.43 300.14 332.27 298.76 332.19 298.07 Z" />
<path fill="#fefefd" opacity="1.00" d=" M 330.25 305.66 C 330.45 305.25 330.85 304.41 331.05 304.00 C 332.03 304.76 333.01 305.53 334.01 306.28 C 333.52 307.44 333.05 308.62 332.60 309.81 C 332.24 309.58 331.52 309.11 331.16 308.88 C 330.76 309.11 329.95 309.58 329.55 309.81 C 329.19 308.45 328.82 307.10 328.45 305.74 C 328.90 305.72 329.80 305.68 330.25 305.66 Z" />
<path fill="#fefefd" opacity="1.00" d=" M 227.85 307.61 C 228.42 306.55 228.98 305.49 229.55 304.43 C 230.04 305.53 230.52 306.63 231.02 307.74 C 231.86 307.87 233.54 308.12 234.38 308.24 C 233.49 309.12 232.60 310.00 231.71 310.89 C 231.88 311.66 232.21 313.19 232.37 313.96 C 230.37 312.75 228.23 312.44 226.14 313.71 C 226.33 312.90 226.72 311.28 226.92 310.46 C 226.11 309.64 225.31 308.82 224.51 308.01 C 225.34 307.91 227.02 307.71 227.85 307.61 Z" />
<path fill="#fefefd" opacity="1.00" d=" M 300.35 307.46 C 301.19 308.03 302.02 308.59 302.86 309.16 C 302.48 309.91 302.11 310.67 301.75 311.43 C 301.13 311.48 299.91 311.60 299.30 311.65 C 299.29 311.04 299.29 309.82 299.28 309.20 C 299.55 308.77 300.09 307.90 300.35 307.46 Z" />
<path fill="#fefefd" opacity="1.00" d=" M 313.38 308.83 C 314.12 308.31 314.84 307.78 315.58 307.26 C 316.10 307.70 317.14 308.59 317.66 309.03 C 317.34 309.89 317.02 310.74 316.72 311.61 C 315.67 311.59 314.65 311.62 313.61 311.65 C 313.54 310.71 313.47 309.77 313.38 308.83 Z" />
<path fill="#fefefd" opacity="1.00" d=" M 323.23 307.42 C 323.89 307.98 324.56 308.54 325.23 309.09 C 324.96 309.89 324.70 310.70 324.45 311.51 C 323.52 311.49 322.59 311.47 321.67 311.47 C 321.56 310.85 321.34 309.61 321.23 308.99 C 321.90 308.47 322.56 307.94 323.23 307.42 Z" />
<path fill="#fefefd" opacity="1.00" d=" M 285.24 308.90 C 285.70 308.69 286.63 308.28 287.09 308.07 C 287.56 308.30 288.50 308.78 288.96 309.01 C 288.81 309.64 288.50 310.90 288.35 311.53 C 287.43 311.51 286.51 311.51 285.59 311.52 C 285.51 310.87 285.33 309.55 285.24 308.90 Z" />
<path fill="#fefefd" opacity="1.00" d=" M 312.49 319.28 C 313.40 318.67 314.32 318.05 315.23 317.42 C 316.02 318.09 316.84 318.76 317.66 319.42 C 317.29 320.56 316.93 321.70 316.58 322.85 C 316.19 322.58 315.39 322.03 315.00 321.75 C 314.61 321.99 313.85 322.48 313.47 322.73 C 313.14 321.57 312.82 320.42 312.49 319.28 Z" />
<path fill="#fefefd" opacity="1.00" d=" M 294.70 320.93 C 295.17 322.04 295.64 323.14 296.12 324.26 C 296.94 324.36 298.57 324.56 299.38 324.66 C 298.60 325.54 297.80 326.40 297.02 327.28 C 297.13 328.13 297.36 329.84 297.47 330.70 C 296.74 330.25 295.29 329.35 294.57 328.91 C 293.47 329.42 292.38 329.95 291.30 330.48 C 291.47 329.61 291.82 327.88 292.00 327.01 C 291.19 326.16 290.39 325.31 289.59 324.46 C 290.44 324.39 292.13 324.26 292.97 324.19 C 293.55 323.10 294.12 322.01 294.70 320.93 Z" />
<path fill="#fefefd" opacity="1.00" d=" M 315.44 326.12 C 316.20 326.82 316.96 327.52 317.73 328.21 C 317.39 329.18 317.05 330.14 316.73 331.12 C 315.71 331.13 314.69 331.15 313.68 331.19 C 313.53 330.10 313.38 329.03 313.22 327.96 C 313.96 327.34 314.70 326.73 315.44 326.12 Z" />
<path fill="#fefefd" opacity="1.00" d=" M 265.29 330.27 C 265.70 329.99 266.53 329.44 266.94 329.16 C 267.28 330.28 267.61 331.40 267.95 332.53 C 267.20 332.57 265.71 332.67 264.97 332.72 C 265.05 332.10 265.21 330.88 265.29 330.27 Z" />
</g>
</svg>
