<?xml version="1.0" encoding="UTF-8" ?>
<!DOCTYPE svg PUBLIC "-//W3C//DTD SVG 1.1//EN" "http://www.w3.org/Graphics/SVG/1.1/DTD/svg11.dtd">
<svg width="512pt" height="512pt" viewBox="0 0 512 512" version="1.1" xmlns="http://www.w3.org/2000/svg">
<g id="#d52b1eff">
<path fill="#d52b1e" opacity="1.00" d=" M 0.00 0.00 L 81.07 0.00 C 81.38 54.35 81.11 108.72 81.20 163.07 C 81.22 279.38 81.16 395.69 81.23 512.00 L 0.00 512.00 L 0.00 0.00 Z" />
<path fill="#d52b1e" opacity="1.00" d=" M 443.04 0.00 L 512.00 0.00 L 512.00 512.00 L 443.91 512.00 L 443.22 511.36 C 442.94 470.26 443.18 429.13 443.10 388.02 C 443.06 258.68 443.19 129.34 443.04 0.00 Z" />
<path fill="#d52b1e" opacity="1.00" d=" M 254.12 108.04 C 255.18 105.87 256.12 103.62 257.61 101.69 C 265.37 117.50 273.36 133.20 281.18 148.98 C 282.19 151.20 284.28 153.93 287.07 152.88 C 295.81 148.50 304.03 143.07 312.83 138.77 C 307.65 164.89 302.34 190.98 297.14 217.09 C 296.26 220.54 300.76 224.04 303.63 221.48 C 315.08 209.05 326.37 196.47 337.80 184.02 C 341.14 190.13 344.30 196.34 347.71 202.41 C 349.11 204.92 352.55 204.44 354.98 204.40 C 366.41 203.37 377.34 199.59 388.28 196.36 C 386.43 209.46 381.35 221.83 379.35 234.89 C 378.82 239.31 378.44 244.66 381.88 248.08 C 385.45 249.99 389.48 250.93 393.27 252.38 C 392.75 253.13 392.15 253.83 391.49 254.46 C 371.80 270.80 352.17 287.23 332.49 303.59 C 331.08 304.77 329.56 305.85 328.36 307.26 C 326.43 313.53 325.87 320.54 328.29 326.77 C 329.50 329.96 331.12 332.97 332.56 336.07 C 308.84 333.32 285.14 330.49 261.43 327.70 C 262.48 351.33 263.61 374.95 264.71 398.57 C 259.78 398.78 254.84 398.92 249.91 399.09 C 250.49 375.26 251.12 351.43 251.69 327.60 C 228.10 330.59 204.50 333.56 180.91 336.58 C 183.71 331.21 188.35 326.38 188.40 319.96 C 188.31 316.29 188.07 312.18 185.98 309.08 C 164.45 290.10 142.84 271.20 121.33 252.19 C 125.96 250.49 130.73 249.16 135.30 247.30 C 138.98 243.59 138.24 237.70 137.50 232.99 C 134.89 220.46 129.40 208.80 125.84 196.55 C 135.62 198.72 145.13 202.01 154.97 203.96 C 158.71 204.56 163.46 205.65 166.25 202.26 C 171.05 196.73 172.96 189.41 176.71 183.22 C 186.86 194.75 197.05 206.26 207.17 217.82 C 208.57 219.31 209.80 221.35 212.00 221.68 C 214.57 222.50 217.76 219.81 216.80 217.11 C 212.11 191.27 207.27 165.46 202.66 139.61 C 210.99 144.09 219.14 148.91 227.45 153.42 C 229.54 154.62 232.04 152.97 232.87 150.97 C 239.94 136.66 247.03 122.35 254.12 108.04 Z" />
</g>
<g id="#ffffffff">
<path fill="#ffffff" opacity="1.00" d=" M 81.07 0.00 L 443.04 0.00 C 443.19 129.34 443.06 258.68 443.10 388.02 C 443.18 429.13 442.94 470.26 443.22 511.36 L 443.91 512.00 L 81.23 512.00 C 81.16 395.69 81.22 279.38 81.20 163.07 C 81.11 108.72 81.38 54.35 81.07 0.00 M 254.12 108.04 C 247.03 122.35 239.94 136.66 232.87 150.97 C 232.04 152.97 229.54 154.62 227.45 153.42 C 219.14 148.91 210.99 144.09 202.66 139.61 C 207.27 165.46 212.11 191.27 216.80 217.11 C 217.76 219.81 214.57 222.50 212.00 221.68 C 209.80 221.35 208.57 219.31 207.17 217.82 C 197.05 206.26 186.86 194.75 176.71 183.22 C 172.96 189.41 171.05 196.73 166.25 202.26 C 163.46 205.65 158.71 204.56 154.97 203.96 C 145.13 202.01 135.62 198.72 125.84 196.55 C 129.40 208.80 134.89 220.46 137.50 232.99 C 138.24 237.70 138.98 243.59 135.30 247.30 C 130.73 249.16 125.96 250.49 121.33 252.19 C 142.84 271.20 164.45 290.10 185.98 309.08 C 188.07 312.18 188.31 316.29 188.40 319.96 C 188.35 326.38 183.71 331.21 180.91 336.58 C 204.50 333.56 228.10 330.59 251.69 327.60 C 251.12 351.43 250.49 375.26 249.91 399.09 C 254.84 398.92 259.78 398.78 264.71 398.57 C 263.61 374.95 262.48 351.33 261.43 327.70 C 285.14 330.49 308.84 333.32 332.56 336.07 C 331.12 332.97 329.50 329.96 328.29 326.77 C 325.87 320.54 326.43 313.53 328.36 307.26 C 329.56 305.85 331.08 304.77 332.49 303.59 C 352.17 287.23 371.80 270.80 391.49 254.46 C 392.15 253.83 392.75 253.13 393.27 252.38 C 389.48 250.93 385.45 249.99 381.88 248.08 C 378.44 244.66 378.82 239.31 379.35 234.89 C 381.35 221.83 386.43 209.46 388.28 196.36 C 377.34 199.59 366.41 203.37 354.98 204.40 C 352.55 204.44 349.11 204.92 347.71 202.41 C 344.30 196.34 341.14 190.13 337.80 184.02 C 326.37 196.47 315.08 209.05 303.63 221.48 C 300.76 224.04 296.26 220.54 297.14 217.09 C 302.34 190.98 307.65 164.89 312.83 138.77 C 304.03 143.07 295.81 148.50 287.07 152.88 C 284.28 153.93 282.19 151.20 281.18 148.98 C 273.36 133.20 265.37 117.50 257.61 101.69 C 256.12 103.62 255.18 105.87 254.12 108.04 Z" />
</g>
</svg>
