<?xml version="1.0" encoding="UTF-8" ?>
<!DOCTYPE svg PUBLIC "-//W3C//DTD SVG 1.1//EN" "http://www.w3.org/Graphics/SVG/1.1/DTD/svg11.dtd">
<svg width="512pt" height="512pt" viewBox="0 0 512 512" version="1.1" xmlns="http://www.w3.org/2000/svg">
<g id="#000001ff">
<path fill="#000001" opacity="1.00" d=" M 0.00 0.00 L 512.00 0.00 L 512.00 170.64 C 374.33 170.79 236.66 170.66 98.98 170.70 C 65.99 170.79 32.99 170.52 0.00 170.84 L 0.00 0.00 Z" />
</g>
<g id="#ff0000ff">
<path fill="#ff0000" opacity="1.00" d=" M 0.00 170.84 C 32.99 170.52 65.99 170.79 98.98 170.70 C 236.66 170.66 374.33 170.79 512.00 170.64 L 512.00 341.31 C 496.70 341.79 481.36 341.37 466.04 341.51 C 313.02 341.51 159.99 341.52 6.97 341.51 C 4.64 341.47 2.29 341.32 0.00 341.87 L 0.00 170.84 Z" />
</g>
<g id="#ffcc00ff">
<path fill="#ffcc00" opacity="1.00" d=" M 0.00 341.87 C 2.29 341.32 4.64 341.47 6.97 341.51 C 159.99 341.52 313.02 341.51 466.04 341.51 C 481.36 341.37 496.70 341.79 512.00 341.31 L 512.00 512.00 L 0.00 512.00 L 0.00 341.87 Z" />
</g>
</svg>
