<?xml version="1.0" encoding="UTF-8" ?>
<!DOCTYPE svg PUBLIC "-//W3C//DTD SVG 1.1//EN" "http://www.w3.org/Graphics/SVG/1.1/DTD/svg11.dtd">
<svg width="512pt" height="512pt" viewBox="0 0 512 512" version="1.1" xmlns="http://www.w3.org/2000/svg">
<g id="#ffffffff">
<path fill="#ffffff" opacity="1.00" d=" M 0.00 0.00 L 123.20 0.00 C 123.18 62.06 123.18 124.13 123.15 186.19 C 82.10 186.21 41.05 186.20 0.00 186.20 L 0.00 0.00 Z" />
<path fill="#ffffff" opacity="1.00" d=" M 262.80 0.00 L 512.00 0.00 L 512.00 186.20 C 428.94 186.20 345.87 186.21 262.81 186.19 C 262.79 124.13 262.81 62.06 262.80 0.00 Z" />
<path fill="#ffffff" opacity="1.00" d=" M 0.00 325.80 C 41.04 325.80 82.08 325.79 123.12 325.81 C 123.12 387.87 123.10 449.94 123.09 512.00 L 0.00 512.00 L 0.00 325.80 Z" />
<path fill="#ffffff" opacity="1.00" d=" M 262.81 325.81 C 345.87 325.79 428.94 325.80 512.00 325.80 L 512.00 512.00 L 262.80 512.00 C 262.80 449.94 262.79 387.87 262.81 325.81 Z" />
</g>
<g id="#002f6cff">
<path fill="#002f6c" opacity="1.00" d=" M 123.20 0.00 L 262.80 0.00 C 262.81 62.06 262.79 124.13 262.81 186.19 C 345.87 186.21 428.94 186.20 512.00 186.20 L 512.00 325.80 C 428.94 325.80 345.87 325.79 262.81 325.81 C 262.79 387.87 262.80 449.94 262.80 512.00 L 123.09 512.00 C 123.10 449.94 123.12 387.87 123.12 325.81 C 82.08 325.79 41.04 325.80 0.00 325.80 L 0.00 186.20 C 41.05 186.20 82.10 186.21 123.15 186.19 C 123.18 124.13 123.18 62.06 123.20 0.00 Z" />
</g>
</svg>
