<?xml version="1.0" encoding="UTF-8" ?>
<!DOCTYPE svg PUBLIC "-//W3C//DTD SVG 1.1//EN" "http://www.w3.org/Graphics/SVG/1.1/DTD/svg11.dtd">
<svg width="512pt" height="512pt" viewBox="0 0 512 512" version="1.1" xmlns="http://www.w3.org/2000/svg">
<g id="#ffffffff">
<path fill="#ffffff" opacity="1.00" d=" M 0.00 0.00 L 61.98 0.00 C 100.01 37.17 137.97 74.42 175.99 111.60 C 176.01 74.40 176.00 37.20 176.00 0.00 L 208.00 0.00 C 208.00 69.33 208.00 138.66 208.00 208.00 C 138.66 208.00 69.33 208.00 0.00 208.00 L 0.00 176.00 C 34.55 175.99 69.10 176.01 103.64 175.99 C 69.26 142.03 34.64 108.29 0.36 74.21 L 0.00 74.81 L 0.00 48.99 C 42.63 91.34 85.30 133.67 127.96 176.00 C 143.98 175.99 159.99 176.01 176.01 175.99 C 176.00 175.33 176.00 174.00 175.99 173.34 C 117.42 115.92 58.72 58.63 0.23 1.12 L 0.00 1.97 L 0.00 0.00 Z" />
<path fill="#ffffff" opacity="1.00" d=" M 304.00 0.00 L 336.00 0.00 C 336.01 35.03 335.99 70.06 336.01 105.09 C 370.67 70.10 405.26 35.05 439.94 0.09 L 438.96 0.00 L 466.02 0.00 C 422.65 43.90 379.31 87.82 335.99 131.76 C 336.02 146.51 335.98 161.27 336.01 176.02 C 337.21 175.97 338.43 175.96 339.65 175.98 C 397.06 117.29 454.55 58.67 512.00 0.00 L 512.00 63.98 C 475.09 101.34 438.11 138.64 401.18 175.99 C 438.12 176.01 475.06 175.99 512.00 176.00 L 512.00 208.00 C 442.67 208.00 373.33 208.01 304.00 208.00 C 304.00 138.66 304.00 69.33 304.00 0.00 Z" />
<path fill="#ffffff" opacity="1.00" d=" M 0.00 304.00 C 69.33 304.00 138.66 303.99 208.00 304.00 C 208.00 373.34 208.00 442.67 208.00 512.00 L 176.00 512.00 C 175.99 475.62 176.01 439.24 175.99 402.86 C 140.00 439.20 104.07 475.59 68.07 511.91 L 69.02 512.00 L 41.98 512.00 C 86.68 467.06 131.34 422.08 176.01 377.11 C 175.99 363.40 176.01 349.70 176.00 335.99 C 174.68 336.01 173.38 336.01 172.07 335.99 C 114.71 393.67 57.33 451.31 0.00 509.02 L 0.00 444.03 C 35.76 407.99 71.61 372.03 107.39 336.01 C 71.59 335.99 35.80 336.01 0.00 336.00 L 0.00 304.00 Z" />
<path fill="#ffffff" opacity="1.00" d=" M 304.00 304.00 C 373.34 304.00 442.67 304.00 512.00 304.00 L 512.00 336.00 C 475.77 336.00 439.53 335.99 403.30 336.01 C 439.52 371.69 475.79 407.32 512.00 443.02 L 512.00 467.02 C 467.42 423.32 422.88 379.58 378.23 335.96 C 364.14 336.05 350.05 335.97 335.96 336.01 C 336.03 337.20 336.06 338.41 336.07 339.62 C 394.81 396.98 453.33 454.56 512.00 512.00 L 445.02 512.00 C 408.65 476.28 372.37 440.47 336.01 404.74 C 335.99 440.50 336.01 476.25 336.00 512.00 L 304.00 512.00 C 304.00 442.67 303.99 373.33 304.00 304.00 Z" />
</g>
<g id="#012169ff">
<path fill="#012169" opacity="1.00" d=" M 61.98 0.00 L 176.00 0.00 C 176.00 37.20 176.01 74.40 175.99 111.60 C 137.97 74.42 100.01 37.17 61.98 0.00 Z" />
<path fill="#012169" opacity="1.00" d=" M 336.00 0.00 L 438.96 0.00 L 439.94 0.09 C 405.26 35.05 370.67 70.10 336.01 105.09 C 335.99 70.06 336.01 35.03 336.00 0.00 Z" />
<path fill="#012169" opacity="1.00" d=" M 401.18 175.99 C 438.11 138.64 475.09 101.34 512.00 63.98 L 512.00 176.00 C 475.06 175.99 438.12 176.01 401.18 175.99 Z" />
<path fill="#012169" opacity="1.00" d=" M 0.00 74.81 L 0.36 74.21 C 34.64 108.29 69.26 142.03 103.64 175.99 C 69.10 176.01 34.55 175.99 0.00 176.00 L 0.00 74.81 Z" />
<path fill="#012169" opacity="1.00" d=" M 0.00 336.00 C 35.80 336.01 71.59 335.99 107.39 336.01 C 71.61 372.03 35.76 407.99 0.00 444.03 L 0.00 336.00 Z" />
<path fill="#012169" opacity="1.00" d=" M 403.30 336.01 C 439.53 335.99 475.77 336.00 512.00 336.00 L 512.00 443.02 C 475.79 407.32 439.52 371.69 403.30 336.01 Z" />
<path fill="#012169" opacity="1.00" d=" M 68.07 511.91 C 104.07 475.59 140.00 439.20 175.99 402.86 C 176.01 439.24 175.99 475.62 176.00 512.00 L 69.02 512.00 L 68.07 511.91 Z" />
<path fill="#012169" opacity="1.00" d=" M 336.01 404.74 C 372.37 440.47 408.65 476.28 445.02 512.00 L 336.00 512.00 C 336.01 476.25 335.99 440.50 336.01 404.74 Z" />
</g>
<g id="#c8102eff">
<path fill="#c8102e" opacity="1.00" d=" M 208.00 0.00 L 304.00 0.00 C 304.00 69.33 304.00 138.66 304.00 208.00 C 373.33 208.01 442.67 208.00 512.00 208.00 L 512.00 304.00 C 442.67 304.00 373.34 304.00 304.00 304.00 C 303.99 373.33 304.00 442.67 304.00 512.00 L 208.00 512.00 C 208.00 442.67 208.00 373.34 208.00 304.00 C 138.66 303.99 69.33 304.00 0.00 304.00 L 0.00 208.00 C 69.33 208.00 138.66 208.00 208.00 208.00 C 208.00 138.66 208.00 69.33 208.00 0.00 Z" />
<path fill="#c8102e" opacity="1.00" d=" M 466.02 0.00 L 512.00 0.00 L 512.00 0.00 C 454.55 58.67 397.06 117.29 339.65 175.98 C 338.43 175.96 337.21 175.97 336.01 176.02 C 335.98 161.27 336.02 146.51 335.99 131.76 C 379.31 87.82 422.65 43.90 466.02 0.00 Z" />
<path fill="#c8102e" opacity="1.00" d=" M 0.00 1.97 L 0.23 1.12 C 58.72 58.63 117.42 115.92 175.99 173.34 C 176.00 174.00 176.00 175.33 176.01 175.99 C 159.99 176.01 143.98 175.99 127.96 176.00 C 85.30 133.67 42.63 91.34 0.00 48.99 L 0.00 1.97 Z" />
<path fill="#c8102e" opacity="1.00" d=" M 172.07 335.99 C 173.38 336.01 174.68 336.01 176.00 335.99 C 176.01 349.70 175.99 363.40 176.01 377.11 C 131.34 422.08 86.68 467.06 41.98 512.00 L 0.00 512.00 L 0.00 509.02 C 57.33 451.31 114.71 393.67 172.07 335.99 Z" />
<path fill="#c8102e" opacity="1.00" d=" M 335.96 336.01 C 350.05 335.97 364.14 336.05 378.23 335.96 C 422.88 379.58 467.42 423.32 512.00 467.02 L 512.00 512.00 L 512.00 512.00 C 453.33 454.56 394.81 396.98 336.07 339.62 C 336.06 338.41 336.03 337.20 335.96 336.01 Z" />
</g>
</svg>
