<?xml version="1.0" encoding="UTF-8" ?>
<!DOCTYPE svg PUBLIC "-//W3C//DTD SVG 1.1//EN" "http://www.w3.org/Graphics/SVG/1.1/DTD/svg11.dtd">
<svg width="512pt" height="512pt" viewBox="0 0 512 512" version="1.1" xmlns="http://www.w3.org/2000/svg">
<g id="#006847ff">
<path fill="#006847" opacity="1.00" d=" M 0.00 0.00 L 170.80 0.00 C 170.89 1.35 170.95 2.70 170.97 4.06 C 170.98 173.37 170.92 342.69 171.00 512.00 L 0.00 512.00 L 0.00 0.00 Z" />
<path fill="#006847" opacity="1.00" d=" M 267.20 205.20 C 270.84 206.15 274.31 207.59 277.65 209.30 C 277.66 209.88 277.67 211.04 277.68 211.62 C 275.74 211.56 273.80 211.54 271.87 211.55 C 272.71 212.50 273.55 213.45 274.40 214.41 C 274.39 216.49 274.96 218.49 275.70 220.42 C 274.57 221.14 273.43 221.87 272.31 222.60 C 272.41 223.40 272.62 225.01 272.72 225.82 C 271.84 225.61 270.96 225.41 270.09 225.20 C 270.30 226.53 270.50 227.85 270.69 229.18 C 269.11 229.76 267.46 230.37 266.96 232.15 C 265.99 232.70 265.02 233.25 264.05 233.80 C 264.56 234.30 265.57 235.31 266.08 235.81 C 267.26 234.44 268.45 233.07 269.67 231.74 C 271.65 230.14 272.48 227.62 274.36 225.94 C 274.48 224.99 274.61 224.04 274.73 223.09 C 277.20 221.53 277.48 218.41 278.55 215.94 C 278.06 215.05 277.58 214.16 277.11 213.27 C 277.66 212.99 278.75 212.42 279.30 212.13 C 279.38 211.50 279.53 210.23 279.60 209.60 C 280.24 209.51 281.52 209.32 282.16 209.23 C 282.31 209.67 282.63 210.57 282.78 211.02 C 290.03 215.37 294.42 223.01 296.97 230.85 C 295.91 230.67 294.86 230.46 293.82 230.21 C 293.54 228.82 293.42 227.41 293.27 226.01 C 289.15 221.02 285.77 214.86 279.80 211.85 C 283.31 216.49 287.53 220.57 290.44 225.67 C 290.52 226.82 290.59 227.98 290.67 229.14 C 285.47 226.49 284.83 218.79 278.82 217.03 C 278.51 217.95 277.85 219.30 278.87 220.06 C 281.55 222.69 283.98 225.57 286.15 228.64 C 281.92 228.99 281.01 223.10 276.78 222.96 C 277.95 224.77 279.39 226.40 280.93 227.91 C 280.13 228.49 279.33 229.08 278.54 229.67 C 277.26 228.37 275.82 227.21 273.97 226.88 C 274.48 228.51 275.15 230.08 275.87 231.63 C 274.29 231.51 272.72 231.39 271.16 231.29 C 271.35 232.37 271.55 233.45 271.75 234.54 C 270.72 234.49 269.69 234.43 268.68 234.38 C 268.46 234.91 268.03 235.96 267.82 236.48 C 267.11 236.48 266.40 236.47 265.69 236.47 C 265.50 238.04 265.19 239.60 264.77 241.13 C 263.62 239.71 262.51 238.27 261.42 236.82 C 261.44 238.58 261.45 240.35 261.43 242.12 C 260.30 241.31 259.18 240.50 258.05 239.70 C 258.90 242.40 260.12 245.24 258.74 248.00 C 257.34 246.05 256.00 243.98 253.95 242.64 C 254.64 245.22 256.44 247.42 256.63 250.14 C 256.12 249.28 255.62 248.42 255.13 247.56 C 251.40 247.52 249.30 243.09 249.20 239.81 C 250.60 240.87 251.97 241.97 253.35 243.07 C 253.97 241.46 254.53 239.83 255.01 238.18 C 256.07 238.60 257.14 239.02 258.21 239.44 C 257.17 237.50 255.91 235.68 254.40 234.08 C 254.13 231.85 255.25 230.00 256.63 228.36 C 255.00 226.12 254.48 223.30 254.37 220.59 C 254.92 220.47 256.02 220.23 256.58 220.11 C 256.59 222.07 256.58 224.03 256.56 225.99 C 257.45 226.89 258.31 227.82 259.26 228.67 C 259.88 228.19 260.50 227.69 261.10 227.18 C 261.82 228.91 262.54 230.71 263.88 232.09 C 264.21 231.20 264.49 230.30 264.78 229.40 C 266.42 227.84 267.97 226.19 269.36 224.40 C 270.29 220.59 270.87 216.71 270.41 212.77 C 269.39 212.36 268.38 211.94 267.37 211.53 C 268.23 210.71 268.68 209.63 268.97 208.49 C 268.29 208.25 266.93 207.79 266.25 207.55 C 266.56 206.77 266.88 205.98 267.20 205.20 Z" />
<path fill="#006847" opacity="1.00" d=" M 253.12 214.46 C 253.49 212.83 253.92 211.22 254.46 209.64 C 255.93 211.14 257.34 212.70 258.56 214.41 C 259.48 218.31 262.24 223.12 259.06 226.62 C 258.13 222.54 258.63 218.19 256.84 214.32 C 255.60 214.37 254.36 214.42 253.12 214.46 Z" />
<path fill="#006847" opacity="1.00" d=" M 224.27 222.25 C 224.81 222.88 224.81 222.88 224.27 222.25 Z" />
<path fill="#006847" opacity="1.00" d=" M 235.65 225.39 C 235.68 225.44 235.76 225.56 235.80 225.61 C 235.76 225.56 235.68 225.44 235.65 225.39 Z" />
<path fill="#006847" opacity="1.00" d=" M 252.50 229.37 C 254.61 229.87 251.76 233.19 250.36 232.50 C 249.94 231.17 251.25 229.70 252.50 229.37 Z" />
<path fill="#006847" opacity="1.00" d=" M 232.99 232.01 C 233.32 230.69 236.46 229.88 235.42 231.97 C 234.51 232.64 232.88 235.24 231.81 234.08 C 232.11 233.56 232.70 232.53 232.99 232.01 Z" />
<path fill="#006847" opacity="1.00" d=" M 245.27 231.16 C 248.04 229.29 245.67 234.54 245.27 231.16 Z" />
<path fill="#006847" opacity="1.00" d=" M 284.34 231.15 C 285.49 231.46 286.64 231.79 287.79 232.12 C 287.69 232.91 287.48 234.50 287.38 235.29 C 288.94 237.48 290.58 239.62 292.13 241.83 C 292.35 248.30 293.66 254.77 292.55 261.25 C 292.25 258.74 292.23 256.16 291.20 253.81 L 291.21 253.62 C 291.42 250.75 291.79 247.80 291.12 244.97 C 289.47 240.06 285.13 236.40 284.34 231.15 Z" />
<path fill="#006847" opacity="1.00" d=" M 288.82 230.30 C 290.00 230.71 291.18 231.12 292.36 231.53 C 293.23 235.27 294.44 239.12 297.51 241.67 C 297.31 238.39 296.35 235.25 295.10 232.24 C 297.35 232.81 299.61 233.37 301.91 233.69 C 303.18 237.66 303.85 241.93 302.77 246.03 C 300.80 252.91 301.90 260.31 299.43 267.08 C 297.99 263.87 299.92 260.35 298.91 257.03 C 297.71 252.44 298.67 247.59 297.66 243.02 L 296.52 241.58 C 296.71 249.11 297.67 256.74 296.35 264.21 C 295.06 261.27 295.59 257.96 295.30 254.85 C 295.44 252.57 295.64 250.30 295.63 248.02 C 295.80 244.23 293.98 240.78 292.83 237.28 C 292.02 234.68 290.55 232.37 288.82 230.30 M 298.75 238.22 C 299.92 241.28 299.57 244.58 299.50 247.78 C 299.98 247.66 300.96 247.41 301.45 247.29 C 301.14 243.45 302.82 238.59 300.14 235.47 C 297.64 233.45 298.34 237.14 298.75 238.22 Z" />
<path fill="#006847" opacity="1.00" d=" M 280.05 231.53 C 284.13 233.68 283.62 239.22 287.45 241.74 C 287.70 245.61 289.25 249.28 289.24 253.18 C 286.05 250.32 287.47 244.53 283.65 241.95 C 284.30 245.33 286.02 248.52 285.76 252.03 C 283.17 248.51 283.67 241.73 278.16 241.34 L 277.16 241.11 L 277.39 240.73 C 278.04 240.63 279.35 240.44 280.00 240.34 C 278.57 238.68 277.00 237.15 275.46 235.59 C 276.38 235.47 277.30 235.34 278.23 235.23 C 279.55 238.14 281.52 240.77 284.56 242.05 C 282.75 238.68 280.15 235.55 280.05 231.53 Z" />
<path fill="#006847" opacity="1.00" d=" M 225.14 236.63 C 224.31 235.43 224.60 234.75 226.01 234.56 C 226.83 235.78 226.54 236.46 225.14 236.63 Z" />
<path fill="#006847" opacity="1.00" d=" M 223.97 239.34 C 227.46 239.40 222.46 242.29 223.97 239.34 Z" />
<path fill="#006847" opacity="1.00" d=" M 268.34 241.41 L 269.64 240.04 C 271.31 242.68 271.99 245.71 272.09 248.81 C 279.54 254.43 286.99 260.06 294.47 265.64 C 292.81 267.16 290.76 267.91 288.51 267.93 C 286.06 268.87 283.45 269.20 280.91 269.79 C 280.39 269.55 279.35 269.08 278.83 268.84 C 275.11 269.93 273.28 266.29 271.36 263.88 C 271.45 265.60 270.93 266.81 269.11 266.61 C 267.81 266.58 266.72 267.26 265.76 268.06 C 265.48 267.82 264.91 267.34 264.63 267.11 C 262.31 270.33 261.16 265.09 260.12 263.47 C 260.15 263.04 260.23 262.20 260.26 261.77 C 261.94 261.36 263.63 261.03 265.32 260.67 C 262.95 258.03 260.53 255.43 258.21 252.75 C 258.26 252.12 258.36 250.85 258.41 250.22 C 259.72 250.44 261.03 250.66 262.35 250.89 C 262.33 250.20 262.29 248.80 262.27 248.10 C 263.27 248.33 264.27 248.56 265.27 248.79 C 265.26 247.32 265.26 245.85 265.26 244.38 C 265.65 244.44 266.42 244.56 266.81 244.61 C 267.31 243.54 267.82 242.47 268.34 241.41 M 265.91 256.88 C 265.25 256.22 264.58 255.57 263.92 254.92 C 264.12 257.09 264.80 259.21 267.10 259.87 C 268.20 258.91 269.33 257.98 270.46 257.05 C 270.51 255.44 270.54 253.83 270.59 252.23 C 267.69 251.95 266.41 254.40 265.91 256.88 M 276.47 255.24 C 275.87 256.78 279.23 259.46 279.91 257.28 C 279.77 255.77 277.82 254.74 276.47 255.24 M 272.85 255.86 C 275.99 259.80 279.76 263.48 284.35 265.67 C 281.14 261.80 277.09 258.51 272.85 255.86 M 271.41 257.70 C 271.45 258.57 271.51 259.46 271.57 260.33 C 275.24 262.75 277.71 266.86 282.07 268.20 C 278.90 264.34 275.31 260.81 271.41 257.70 M 281.48 259.38 C 280.73 260.50 282.60 262.06 283.55 261.06 C 284.31 259.89 282.44 258.48 281.48 259.38 M 283.74 263.07 C 285.48 263.83 287.28 264.50 289.12 265.02 C 288.10 263.86 287.98 260.99 285.91 261.49 C 285.37 261.88 284.28 262.67 283.74 263.07 Z" />
<path fill="#006847" opacity="1.00" d=" M 246.92 243.95 C 250.38 244.56 251.53 248.33 253.04 251.02 C 250.54 249.10 248.44 246.71 246.92 243.95 Z" />
<path fill="#006847" opacity="1.00" d=" M 201.81 247.04 C 201.47 249.13 200.24 250.87 199.09 252.59 C 199.90 252.54 201.52 252.46 202.33 252.42 C 201.05 253.72 199.64 254.94 198.85 256.63 C 199.70 256.54 201.41 256.36 202.27 256.27 C 201.32 257.06 200.37 257.84 199.43 258.63 C 199.44 260.15 199.43 261.67 199.41 263.19 C 196.79 260.98 194.21 258.69 192.02 256.06 C 192.89 255.06 194.24 255.93 195.31 255.89 C 194.72 254.28 194.28 252.63 193.96 250.95 C 195.07 251.45 196.16 251.97 197.26 252.50 C 197.29 251.08 197.34 249.65 197.40 248.23 C 198.22 248.40 199.04 248.57 199.86 248.75 C 200.35 248.33 201.32 247.47 201.81 247.04 Z" />
<path fill="#006847" opacity="1.00" d=" M 311.53 258.46 C 312.94 255.22 312.27 250.85 315.35 248.56 C 315.23 253.03 314.45 257.44 314.30 261.91 C 313.84 262.39 312.92 263.34 312.46 263.82 C 312.50 262.18 312.56 260.55 312.66 258.92 C 312.43 259.51 311.95 260.69 311.71 261.27 C 310.97 259.91 310.24 258.54 309.54 257.16 C 310.57 254.85 310.43 252.37 309.35 250.12 C 310.07 251.02 310.79 251.92 311.53 252.83 C 311.52 254.70 311.50 256.58 311.53 258.46 Z" />
<path fill="#006847" opacity="1.00" d=" M 234.52 250.45 C 235.06 250.36 236.14 250.18 236.68 250.08 C 236.67 250.80 236.65 252.22 236.64 252.93 C 235.89 253.31 235.13 253.68 234.38 254.05 C 234.41 253.27 234.47 251.71 234.50 250.93 L 234.52 250.45 Z" />
<path fill="#006847" opacity="1.00" d=" M 316.49 252.06 C 317.04 251.84 318.12 251.39 318.67 251.16 L 318.63 251.95 C 318.68 254.61 318.01 257.17 316.55 259.40 C 316.46 256.95 316.48 254.51 316.49 252.06 Z" />
<path fill="#006847" opacity="1.00" d=" M 250.97 252.10 C 251.57 252.20 252.77 252.41 253.37 252.51 C 255.54 255.27 257.41 258.28 258.47 261.65 C 257.76 261.06 256.34 259.88 255.63 259.29 C 254.03 256.93 252.48 254.52 250.97 252.10 Z" />
<path fill="#006847" opacity="1.00" d=" M 254.46 252.70 C 255.40 252.71 257.27 252.74 258.21 252.75 C 258.80 254.76 259.42 256.77 259.96 258.80 C 257.89 256.99 256.05 254.94 254.46 252.70 Z" />
<path fill="#006847" opacity="1.00" d=" M 230.46 259.32 C 232.76 258.38 235.18 256.73 237.65 258.22 C 233.70 259.91 228.46 261.81 224.48 259.45 C 226.47 259.37 228.52 259.90 230.46 259.32 Z" />
<path fill="#006847" opacity="1.00" d=" M 217.17 259.00 C 218.38 258.85 219.59 258.70 220.81 258.57 C 220.71 258.96 220.50 259.74 220.39 260.14 C 223.47 261.56 226.02 264.02 226.28 267.57 L 228.59 267.86 L 228.45 266.43 C 229.71 266.56 230.98 266.69 232.26 266.82 C 232.54 268.06 232.84 269.30 233.16 270.54 C 234.33 270.60 235.50 270.67 236.68 270.74 C 236.66 270.17 236.62 269.02 236.60 268.44 C 238.03 269.67 239.44 270.94 240.98 272.03 L 241.58 270.94 C 241.51 270.53 241.37 269.73 241.30 269.33 C 242.93 270.57 244.20 268.75 244.99 267.46 C 247.12 268.94 249.65 269.43 252.18 269.71 C 253.15 270.56 254.19 271.35 255.26 272.09 C 256.13 271.54 257.02 271.01 257.91 270.49 C 259.30 272.36 260.29 274.93 262.63 275.82 C 265.04 273.78 267.81 272.32 271.06 272.40 C 271.77 273.36 272.48 274.33 273.19 275.30 C 273.94 274.83 274.69 274.35 275.44 273.88 L 277.22 272.72 C 279.48 274.87 278.18 277.41 275.63 278.50 C 276.57 278.56 278.43 278.66 279.36 278.71 C 280.32 276.93 280.36 273.34 283.31 274.55 C 283.58 273.96 284.11 272.78 284.38 272.19 C 285.61 272.55 286.77 273.09 287.96 273.57 C 287.77 274.60 287.59 275.62 287.40 276.65 C 288.14 276.61 289.62 276.52 290.36 276.48 C 290.48 277.59 290.61 278.71 290.75 279.84 C 289.21 281.05 287.66 282.26 286.21 283.59 C 283.02 283.81 279.82 283.94 276.64 283.68 C 276.67 283.90 276.73 284.35 276.76 284.57 C 273.70 280.08 268.02 282.48 264.16 284.41 L 263.89 285.31 C 263.50 286.62 263.11 287.93 262.73 289.25 C 260.65 289.36 258.57 289.46 256.49 289.54 C 256.43 287.87 256.37 286.21 256.39 284.55 C 256.44 283.39 256.54 281.08 256.59 279.93 C 255.82 280.39 254.26 281.31 253.48 281.77 C 249.93 281.81 246.37 281.52 242.96 280.50 C 241.34 279.64 240.47 277.90 239.85 276.26 C 235.15 278.09 230.09 277.51 225.60 275.43 C 225.23 274.27 224.84 273.14 224.44 272.00 C 221.51 272.14 218.86 270.96 216.35 269.58 C 215.31 267.91 214.27 266.25 213.26 264.57 C 213.42 263.74 213.59 262.91 213.77 262.09 L 214.54 261.61 C 215.62 260.96 216.71 260.24 217.17 259.00 M 251.78 272.12 C 253.71 274.00 256.25 275.01 258.74 275.94 C 258.77 275.59 258.83 274.89 258.85 274.55 C 256.24 274.55 254.24 272.66 251.78 272.12 Z" />
<path fill="#006847" opacity="1.00" d=" M 308.91 269.91 C 309.87 268.86 310.83 267.82 311.78 266.76 C 311.63 268.84 311.53 270.91 311.45 273.00 C 312.68 272.33 313.91 271.67 315.14 271.01 C 313.70 273.44 312.53 276.02 311.25 278.55 C 309.68 282.00 304.53 281.26 303.40 285.07 C 303.89 281.67 302.86 278.37 302.50 275.02 C 302.50 272.31 305.17 270.78 306.89 269.08 C 307.40 269.29 308.41 269.70 308.91 269.91 Z" />
<path fill="#006847" opacity="1.00" d=" M 199.63 269.23 C 201.03 269.73 202.48 269.65 203.91 269.27 C 203.81 270.10 203.63 271.76 203.54 272.59 L 205.02 272.48 C 204.88 270.70 205.53 269.96 206.96 270.25 C 207.78 272.02 207.41 273.97 207.32 275.84 C 207.77 275.78 208.67 275.65 209.12 275.59 C 208.72 277.56 208.24 279.51 207.59 281.41 C 206.60 280.12 205.65 278.82 204.67 277.52 C 202.90 277.55 201.13 277.56 199.36 277.58 C 198.95 276.82 198.55 276.06 198.15 275.30 C 199.52 275.48 200.88 275.66 202.25 275.84 C 201.69 275.07 201.12 274.32 200.54 273.57 C 199.14 273.48 197.55 273.68 196.54 272.47 C 197.28 272.51 198.75 272.57 199.48 272.61 C 199.52 271.48 199.57 270.35 199.63 269.23 Z" />
<path fill="#006847" opacity="1.00" d=" M 226.19 280.06 C 229.65 282.09 233.20 284.23 237.26 284.72 C 236.99 284.06 236.44 282.76 236.17 282.10 C 236.69 282.18 237.74 282.32 238.26 282.40 C 239.52 284.39 240.94 287.15 243.84 286.64 C 243.85 286.97 243.88 287.64 243.89 287.97 C 243.89 290.36 244.24 292.72 244.77 295.05 C 242.41 295.11 240.06 295.14 237.71 295.19 C 238.06 294.34 238.76 292.64 239.11 291.79 C 238.95 291.65 238.63 291.37 238.48 291.23 C 237.33 289.88 235.64 289.37 234.12 288.61 C 231.89 288.55 229.41 288.98 227.59 287.39 C 228.34 287.43 229.83 287.52 230.58 287.56 C 230.57 286.83 230.56 285.39 230.55 284.66 C 229.24 284.14 227.94 283.60 226.63 283.10 C 226.48 282.08 226.34 281.07 226.19 280.06 Z" />
<path fill="#006847" opacity="1.00" d=" M 212.91 283.79 C 214.01 284.84 215.07 285.93 216.14 287.02 C 216.25 286.17 216.45 284.47 216.55 283.62 C 217.76 285.61 217.57 287.96 217.69 290.20 C 219.10 289.61 219.37 288.22 219.58 286.85 C 221.59 288.73 221.81 291.38 221.86 293.98 C 222.34 293.75 223.29 293.28 223.77 293.05 C 223.74 294.44 223.71 295.83 223.68 297.23 C 219.06 295.17 216.60 290.52 213.52 286.79 C 213.37 286.04 213.06 284.54 212.91 283.79 Z" />
<path fill="#006847" opacity="1.00" d=" M 289.16 294.13 C 289.00 289.76 293.81 287.99 295.98 284.79 C 295.82 285.81 295.49 287.87 295.33 288.90 C 297.11 287.83 298.92 286.80 300.75 285.83 C 300.58 287.15 300.42 288.48 300.24 289.81 C 300.66 289.92 301.49 290.14 301.90 290.25 C 301.39 291.74 300.87 293.22 300.41 294.73 C 299.05 295.70 297.57 296.48 295.98 296.98 C 293.04 297.56 290.04 297.72 287.06 297.78 C 287.76 296.56 288.46 295.35 289.16 294.13 Z" />
<path fill="#006847" opacity="1.00" d=" M 268.34 285.66 C 268.35 286.39 268.37 287.85 268.37 288.58 C 270.27 288.48 272.18 288.41 274.09 288.29 C 275.81 287.48 277.72 287.37 279.59 287.33 C 278.77 287.96 277.95 288.59 277.13 289.22 C 275.90 289.33 274.68 289.48 273.47 289.68 C 273.47 290.44 273.46 291.95 273.46 292.71 C 274.08 292.60 275.33 292.36 275.95 292.24 C 275.81 292.81 275.54 293.94 275.40 294.51 C 274.20 294.51 273.00 294.51 271.80 294.52 C 268.11 296.65 264.61 300.13 259.99 299.56 C 255.23 299.31 249.86 300.56 245.81 297.35 C 246.15 297.37 246.82 297.42 247.16 297.44 C 253.95 297.52 261.01 298.56 267.64 296.88 C 267.69 293.13 267.71 289.36 268.34 285.66 Z" />
<path fill="#006847" opacity="1.00" d=" M 226.21 287.20 C 226.70 287.81 226.70 287.81 226.21 287.20 Z" />
<path fill="#006847" opacity="1.00" d=" M 226.17 289.31 C 226.81 289.76 226.81 289.76 226.17 289.31 Z" />
<path fill="#006847" opacity="1.00" d=" M 268.04 303.62 C 270.61 300.99 273.35 297.23 277.60 298.40 C 274.39 300.10 271.56 302.54 268.04 303.62 Z" />
<path fill="#006847" opacity="1.00" d=" M 237.02 299.16 C 237.73 299.19 239.16 299.26 239.87 299.29 C 240.67 300.40 241.45 301.52 242.21 302.67 C 242.62 302.23 243.42 301.35 243.82 300.90 L 243.72 302.25 C 243.63 303.49 243.54 304.73 243.46 305.98 C 242.60 305.37 241.74 304.77 240.89 304.17 C 240.11 304.76 239.34 305.35 238.57 305.95 C 238.09 305.14 237.62 304.33 237.15 303.53 C 234.63 303.52 232.11 303.51 229.59 303.54 C 229.39 302.44 229.22 301.34 229.07 300.24 L 229.68 299.98 C 231.24 300.38 232.51 301.45 233.92 302.20 C 233.60 301.34 232.97 299.63 232.65 298.77 C 234.73 299.75 236.60 301.10 238.51 302.37 C 238.01 301.29 237.51 300.22 237.02 299.16 Z" />
<path fill="#006847" opacity="1.00" d=" M 267.79 304.70 C 271.80 303.94 275.24 299.83 279.36 300.62 C 279.47 300.86 279.69 301.33 279.81 301.56 C 276.21 303.41 271.91 307.15 267.79 304.70 Z" />
<path fill="#006847" opacity="1.00" d=" M 252.85 302.56 C 253.32 302.09 254.26 301.17 254.73 300.70 C 254.88 302.70 254.89 304.71 254.86 306.72 C 252.01 308.48 249.71 310.95 246.93 312.81 C 247.80 310.45 249.57 308.67 251.42 307.05 L 252.20 306.78 L 252.85 306.85 C 252.84 305.41 252.80 303.98 252.85 302.56 Z" />
<path fill="#006847" opacity="1.00" d=" M 267.92 306.56 C 271.09 306.56 274.28 306.40 277.46 306.58 C 275.16 307.37 272.73 307.72 270.31 307.66 C 269.71 307.39 268.51 306.83 267.92 306.56 Z" />
<path fill="#006847" opacity="1.00" d=" M 255.38 310.71 C 255.64 310.48 256.17 310.00 256.43 309.76 C 258.24 310.57 260.02 311.48 261.84 312.29 C 261.58 312.70 261.05 313.50 260.78 313.90 C 258.95 312.88 257.13 311.85 255.38 310.71 Z" />
</g>
<g id="#ffffffff">
<path fill="#ffffff" opacity="1.00" d=" M 170.80 0.00 L 341.13 0.00 C 341.42 81.34 341.17 162.69 341.25 244.03 C 341.25 313.67 341.25 383.30 341.25 452.94 C 341.42 472.62 340.92 492.33 341.50 512.00 L 171.00 512.00 C 170.92 342.69 170.98 173.37 170.97 4.06 C 170.95 2.70 170.89 1.35 170.80 0.00 M 253.85 200.00 C 251.12 200.56 248.32 202.38 249.46 205.60 C 252.56 207.10 256.23 207.64 258.39 210.65 C 258.41 211.90 258.42 213.16 258.56 214.41 C 257.34 212.70 255.93 211.14 254.46 209.64 L 254.59 209.24 C 253.93 209.25 252.61 209.28 251.95 209.29 C 249.44 208.10 245.78 208.17 244.99 204.92 C 244.74 206.03 244.48 207.14 244.21 208.25 C 243.02 207.11 242.35 205.67 242.20 203.94 C 241.95 205.85 241.68 207.76 241.43 209.68 L 239.83 209.65 C 239.84 208.79 239.88 207.06 239.90 206.20 L 239.31 206.22 C 239.35 207.88 238.84 209.28 237.77 210.44 L 237.20 207.64 C 236.81 208.76 236.39 209.87 235.98 210.99 C 234.44 212.78 234.09 215.05 234.38 217.37 C 236.63 216.26 237.35 213.86 238.54 211.87 C 238.60 214.09 237.14 215.85 236.13 217.69 C 238.33 217.68 240.77 216.84 242.75 218.23 C 239.29 218.85 235.06 217.50 232.41 220.47 C 230.81 221.46 231.76 223.67 231.28 225.14 C 230.21 224.10 229.15 223.06 228.10 222.02 C 229.58 220.37 231.17 218.80 232.46 217.00 C 230.00 218.66 228.03 220.92 226.00 223.06 C 228.79 223.93 231.17 225.89 234.19 225.99 C 233.44 224.68 232.67 223.39 231.96 222.07 C 233.45 222.79 236.36 222.89 235.65 225.39 C 235.68 225.44 235.76 225.56 235.80 225.61 C 237.11 226.77 235.36 228.26 235.13 229.54 C 235.80 229.60 237.15 229.71 237.82 229.77 C 238.30 228.49 238.77 227.21 239.26 225.93 C 238.83 224.59 238.43 223.24 238.05 221.90 C 240.27 221.32 242.17 220.02 244.04 218.76 C 244.28 220.35 244.51 221.94 244.74 223.54 L 243.63 223.28 C 243.72 225.26 243.06 227.02 241.68 228.44 C 241.64 231.09 239.80 233.35 239.74 235.95 C 240.45 238.91 240.67 242.45 243.48 244.28 C 243.96 247.06 244.73 249.77 246.87 251.78 C 246.13 251.68 244.64 251.49 243.90 251.39 C 244.93 252.63 246.00 253.85 247.01 255.12 C 246.19 255.30 244.56 255.67 243.74 255.86 C 243.40 252.89 241.43 250.43 241.25 247.43 C 240.39 246.45 239.51 245.49 238.64 244.53 C 235.74 244.58 232.85 244.62 229.96 244.43 C 229.63 243.90 228.96 242.86 228.63 242.34 C 228.55 241.61 228.39 240.15 228.32 239.43 C 226.47 240.35 226.11 241.74 227.24 243.59 C 226.85 243.82 226.07 244.29 225.68 244.52 C 225.27 244.03 224.45 243.05 224.04 242.56 C 224.37 244.04 224.74 245.54 225.10 247.03 C 225.76 246.11 226.43 245.20 227.12 244.32 C 227.48 246.49 228.33 249.16 230.93 249.40 C 233.63 249.02 236.49 247.77 238.95 249.67 C 238.79 251.27 238.02 252.36 236.64 252.93 C 236.65 252.22 236.67 250.80 236.68 250.08 C 236.14 250.18 235.06 250.36 234.52 250.45 L 234.50 250.93 C 231.39 252.26 229.79 255.49 227.15 257.46 C 228.43 257.86 231.65 256.49 230.46 259.32 C 228.52 259.90 226.47 259.37 224.48 259.45 C 228.46 261.81 233.70 259.91 237.65 258.22 C 238.01 258.34 238.72 258.57 239.08 258.69 C 239.73 258.26 241.04 257.41 241.69 256.98 C 241.64 257.63 241.54 258.93 241.49 259.57 C 243.10 260.16 244.71 260.72 246.35 261.23 C 246.35 261.68 246.35 262.57 246.34 263.01 C 249.34 262.43 252.41 261.44 255.39 262.69 C 255.45 261.84 255.57 260.14 255.63 259.29 C 256.34 259.88 257.76 261.06 258.47 261.65 C 258.89 262.35 259.44 262.95 260.12 263.47 C 261.16 265.09 262.31 270.33 264.63 267.11 C 264.91 267.34 265.48 267.82 265.76 268.06 C 264.87 268.85 264.01 269.65 263.16 270.49 C 261.41 270.47 259.66 270.47 257.91 270.49 C 257.02 271.01 256.13 271.54 255.26 272.09 C 254.19 271.35 253.15 270.56 252.18 269.71 C 249.65 269.43 247.12 268.94 244.99 267.46 C 244.20 268.75 242.93 270.57 241.30 269.33 C 241.37 269.73 241.51 270.53 241.58 270.94 L 240.98 272.03 C 239.44 270.94 238.03 269.67 236.60 268.44 C 236.62 269.02 236.66 270.17 236.68 270.74 C 235.50 270.67 234.33 270.60 233.16 270.54 C 232.84 269.30 232.54 268.06 232.26 266.82 C 230.98 266.69 229.71 266.56 228.45 266.43 L 228.59 267.86 L 226.28 267.57 C 226.02 264.02 223.47 261.56 220.39 260.14 C 220.50 259.74 220.71 258.96 220.81 258.57 C 219.59 258.70 218.38 258.85 217.17 259.00 C 216.74 258.31 215.87 256.92 215.44 256.22 C 215.32 254.88 215.21 253.53 215.10 252.19 C 213.96 252.27 212.83 252.34 211.70 252.40 C 210.96 253.25 210.22 254.10 209.49 254.96 C 209.47 255.35 209.44 256.12 209.43 256.50 C 210.42 256.82 211.41 257.14 212.40 257.46 C 212.50 259.12 213.60 260.35 214.54 261.61 L 213.77 262.09 C 213.59 262.91 213.42 263.74 213.26 264.57 C 214.27 266.25 215.31 267.91 216.35 269.58 C 218.86 270.96 221.51 272.14 224.44 272.00 C 224.84 273.14 225.23 274.27 225.60 275.43 C 230.09 277.51 235.15 278.09 239.85 276.26 C 240.47 277.90 241.34 279.64 242.96 280.50 C 246.37 281.52 249.93 281.81 253.48 281.77 C 254.26 281.31 255.82 280.39 256.59 279.93 C 256.54 281.08 256.44 283.39 256.39 284.55 C 252.92 284.57 249.41 284.75 246.02 283.91 C 244.59 283.54 243.37 285.33 243.84 286.64 C 240.94 287.15 239.52 284.39 238.26 282.40 C 237.74 282.32 236.69 282.18 236.17 282.10 C 236.44 282.76 236.99 284.06 237.26 284.72 C 233.20 284.23 229.65 282.09 226.19 280.06 C 226.34 281.07 226.48 282.08 226.63 283.10 C 227.94 283.60 229.24 284.14 230.55 284.66 C 230.56 285.39 230.57 286.83 230.58 287.56 C 229.83 287.52 228.34 287.43 227.59 287.39 C 229.41 288.98 231.89 288.55 234.12 288.61 C 235.64 289.37 237.33 289.88 238.48 291.23 C 238.41 291.83 238.27 293.04 238.20 293.65 C 235.74 293.04 233.73 294.07 232.16 295.82 C 233.44 296.17 234.74 296.48 236.04 296.79 C 238.41 295.38 241.22 295.76 243.84 295.79 C 244.25 296.72 244.90 297.24 245.81 297.35 C 249.86 300.56 255.23 299.31 259.99 299.56 C 264.61 300.13 268.11 296.65 271.80 294.52 C 273.00 294.51 274.20 294.51 275.40 294.51 C 275.54 293.94 275.81 292.81 275.95 292.24 C 275.33 292.36 274.08 292.60 273.46 292.71 C 273.46 291.95 273.47 290.44 273.47 289.68 C 274.68 289.48 275.90 289.33 277.13 289.22 C 277.95 288.59 278.77 287.96 279.59 287.33 C 277.72 287.37 275.81 287.48 274.09 288.29 C 272.18 288.41 270.27 288.48 268.37 288.58 C 268.37 287.85 268.35 286.39 268.34 285.66 C 266.86 285.52 265.37 285.41 263.89 285.31 L 264.16 284.41 C 268.02 282.48 273.70 280.08 276.76 284.57 C 276.73 284.35 276.67 283.90 276.64 283.68 C 279.82 283.94 283.02 283.81 286.21 283.59 C 287.66 282.26 289.21 281.05 290.75 279.84 C 290.61 278.71 290.48 277.59 290.36 276.48 C 289.62 276.52 288.14 276.61 287.40 276.65 C 287.59 275.62 287.77 274.60 287.96 273.57 C 286.77 273.09 285.61 272.55 284.38 272.19 C 284.11 272.78 283.58 273.96 283.31 274.55 C 280.36 273.34 280.32 276.93 279.36 278.71 C 278.43 278.66 276.57 278.56 275.63 278.50 C 278.18 277.41 279.48 274.87 277.22 272.72 L 275.44 273.88 C 275.50 273.24 275.63 271.96 275.69 271.32 C 275.05 271.34 273.77 271.39 273.13 271.41 C 271.53 270.02 269.52 268.88 269.11 266.61 C 270.93 266.81 271.45 265.60 271.36 263.88 C 273.28 266.29 275.11 269.93 278.83 268.84 C 279.35 269.08 280.39 269.55 280.91 269.79 C 283.45 269.20 286.06 268.87 288.51 267.93 C 290.76 267.91 292.81 267.16 294.47 265.64 C 286.99 260.06 279.54 254.43 272.09 248.81 C 271.99 245.71 271.31 242.68 269.64 240.04 L 268.34 241.41 L 268.64 240.19 C 269.32 239.89 270.00 239.59 270.70 239.30 C 270.55 238.21 270.41 237.12 270.27 236.04 C 270.87 238.04 271.58 240.25 273.62 241.24 C 277.38 243.07 278.93 247.19 281.83 249.97 C 280.73 247.04 279.64 244.10 278.16 241.34 C 283.67 241.73 283.17 248.51 285.76 252.03 C 286.02 248.52 284.30 245.33 283.65 241.95 C 287.47 244.53 286.05 250.32 289.24 253.18 C 289.25 249.28 287.70 245.61 287.45 241.74 C 290.71 244.80 288.63 250.05 291.21 253.62 L 291.20 253.81 C 292.23 256.16 292.25 258.74 292.55 261.25 C 293.66 254.77 292.35 248.30 292.13 241.83 C 294.42 245.75 293.09 250.81 295.30 254.85 C 295.59 257.96 295.06 261.27 296.35 264.21 C 297.67 256.74 296.71 249.11 296.52 241.58 L 297.66 243.02 C 298.67 247.59 297.71 252.44 298.91 257.03 C 299.92 260.35 297.99 263.87 299.43 267.08 C 301.90 260.31 300.80 252.91 302.77 246.03 C 303.85 241.93 303.18 237.66 301.91 233.69 C 302.45 233.76 303.54 233.91 304.08 233.98 C 301.98 231.58 299.96 229.06 298.79 226.07 C 295.69 218.83 290.76 212.28 284.08 208.00 C 284.36 207.22 284.64 206.44 284.93 205.67 C 282.80 205.83 280.81 205.16 279.07 203.96 C 275.12 201.39 270.63 199.81 266.02 198.90 C 261.97 198.15 257.44 197.50 253.85 200.00 M 233.06 216.48 C 233.25 215.98 233.64 214.98 233.83 214.48 C 232.52 213.40 231.30 216.48 233.06 216.48 M 224.27 222.25 C 224.81 222.88 224.81 222.88 224.27 222.25 M 230.40 230.37 C 229.03 231.10 228.97 231.78 230.21 232.44 C 231.58 231.71 231.64 231.02 230.40 230.37 M 232.99 232.01 C 232.70 232.53 232.11 233.56 231.81 234.08 C 232.88 235.24 234.51 232.64 235.42 231.97 C 236.46 229.88 233.32 230.69 232.99 232.01 M 209.96 233.17 L 211.71 233.45 C 211.64 233.99 211.50 235.08 211.44 235.63 C 212.17 235.56 213.64 235.43 214.38 235.37 C 214.65 235.77 215.19 236.56 215.47 236.95 C 215.95 235.48 216.43 234.01 216.89 232.54 C 214.56 232.46 212.19 232.40 209.96 233.17 M 225.14 236.63 C 226.54 236.46 226.83 235.78 226.01 234.56 C 224.60 234.75 224.31 235.43 225.14 236.63 M 223.97 239.34 C 222.46 242.29 227.46 239.40 223.97 239.34 M 201.81 247.04 C 201.32 247.47 200.35 248.33 199.86 248.75 C 199.04 248.57 198.22 248.40 197.40 248.23 C 197.34 249.65 197.29 251.08 197.26 252.50 C 196.16 251.97 195.07 251.45 193.96 250.95 C 194.28 252.63 194.72 254.28 195.31 255.89 C 194.24 255.93 192.89 255.06 192.02 256.06 C 194.21 258.69 196.79 260.98 199.41 263.19 C 199.43 261.67 199.44 260.15 199.43 258.63 C 200.37 257.84 201.32 257.06 202.27 256.27 C 201.41 256.36 199.70 256.54 198.85 256.63 C 199.64 254.94 201.05 253.72 202.33 252.42 C 201.52 252.46 199.90 252.54 199.09 252.59 C 200.24 250.87 201.47 249.13 201.81 247.04 M 315.36 248.18 L 315.35 248.56 C 312.27 250.85 312.94 255.22 311.53 258.46 C 311.50 256.58 311.52 254.70 311.53 252.83 C 310.79 251.92 310.07 251.02 309.35 250.12 C 310.43 252.37 310.57 254.85 309.54 257.16 C 310.24 258.54 310.97 259.91 311.71 261.27 C 311.95 260.69 312.43 259.51 312.66 258.92 C 312.56 260.55 312.50 262.18 312.46 263.82 C 312.92 263.34 313.84 262.39 314.30 261.91 C 316.14 260.67 318.11 259.39 319.24 257.41 C 319.93 255.59 319.20 253.68 318.63 251.95 L 318.67 251.16 C 318.12 251.39 317.04 251.84 316.49 252.06 C 316.29 250.70 316.03 249.35 315.71 248.02 L 315.36 248.18 M 223.30 257.13 C 223.25 260.55 226.29 255.62 223.30 257.13 M 233.24 262.74 C 232.18 266.30 236.71 266.08 238.83 265.11 C 238.11 264.20 237.34 263.33 236.61 262.44 C 235.48 262.55 234.36 262.64 233.24 262.74 M 293.72 270.37 C 292.92 269.98 292.14 269.59 291.38 269.18 C 291.36 270.20 291.35 271.22 291.33 272.25 C 291.69 272.65 292.41 273.44 292.77 273.84 C 293.23 273.78 294.14 273.67 294.60 273.61 C 294.59 272.45 294.59 271.29 294.60 270.14 C 296.09 269.59 297.39 268.67 298.01 267.16 C 296.14 267.54 295.05 269.18 293.72 270.37 M 308.91 269.91 C 308.41 269.70 307.40 269.29 306.89 269.08 C 305.17 270.78 302.50 272.31 302.50 275.02 C 302.86 278.37 303.89 281.67 303.40 285.07 C 304.53 281.26 309.68 282.00 311.25 278.55 C 312.53 276.02 313.70 273.44 315.14 271.01 C 313.91 271.67 312.68 272.33 311.45 273.00 C 311.53 270.91 311.63 268.84 311.78 266.76 C 310.83 267.82 309.87 268.86 308.91 269.91 M 199.63 269.23 C 199.57 270.35 199.52 271.48 199.48 272.61 C 198.75 272.57 197.28 272.51 196.54 272.47 C 197.55 273.68 199.14 273.48 200.54 273.57 C 201.12 274.32 201.69 275.07 202.25 275.84 C 200.88 275.66 199.52 275.48 198.15 275.30 C 198.55 276.06 198.95 276.82 199.36 277.58 C 201.13 277.56 202.90 277.55 204.67 277.52 L 204.45 279.70 C 203.89 279.61 202.78 279.43 202.23 279.34 C 202.22 279.67 202.20 280.33 202.20 280.66 C 202.99 280.59 204.59 280.47 205.38 280.40 C 206.97 281.92 208.42 283.57 209.80 285.28 C 210.98 285.77 211.58 286.81 212.01 287.96 C 213.04 288.50 214.01 289.14 214.90 289.90 C 214.43 290.42 213.50 291.47 213.04 291.99 C 212.61 291.45 211.75 290.35 211.32 289.81 C 211.36 290.48 211.45 291.82 211.49 292.48 C 213.95 292.52 217.03 291.97 217.13 295.32 C 215.65 295.38 214.18 295.44 212.71 295.52 C 214.52 297.94 217.19 297.35 219.62 296.20 C 219.53 296.90 219.37 298.29 219.29 298.99 C 219.66 298.54 220.41 297.65 220.78 297.21 C 222.56 297.65 224.32 298.20 226.05 298.81 C 226.80 299.96 227.61 301.09 228.41 302.22 C 227.30 302.96 226.20 303.71 225.11 304.47 C 227.51 304.40 229.90 304.28 232.31 304.19 C 231.74 304.87 230.62 306.23 230.05 306.91 C 231.04 306.72 232.04 306.53 233.03 306.35 C 234.04 305.79 235.08 305.31 236.16 304.90 C 236.34 305.54 236.69 306.83 236.86 307.48 L 235.16 307.42 C 235.19 307.82 235.24 308.62 235.26 309.02 C 237.38 308.36 239.17 307.05 240.92 305.75 C 240.77 306.66 240.46 308.47 240.31 309.38 C 242.12 307.85 243.83 306.23 245.58 304.63 C 247.62 304.20 249.63 303.67 251.67 303.23 L 251.72 305.24 C 249.20 305.49 247.04 306.87 244.93 308.13 C 247.21 308.74 248.95 306.95 250.67 305.76 C 251.05 306.02 251.82 306.53 252.20 306.78 L 251.42 307.05 C 249.57 308.67 247.80 310.45 246.93 312.81 C 249.71 310.95 252.01 308.48 254.86 306.72 C 254.89 304.71 254.88 302.70 254.73 300.70 C 254.26 301.17 253.32 302.09 252.85 302.56 C 249.77 302.23 246.53 304.11 243.72 302.25 L 243.82 300.90 C 243.42 301.35 242.62 302.23 242.21 302.67 C 241.45 301.52 240.67 300.40 239.87 299.29 C 239.16 299.26 237.73 299.19 237.02 299.16 C 237.51 300.22 238.01 301.29 238.51 302.37 C 236.60 301.10 234.73 299.75 232.65 298.77 C 232.97 299.63 233.60 301.34 233.92 302.20 C 232.51 301.45 231.24 300.38 229.68 299.98 L 229.07 300.24 C 228.87 299.77 228.48 298.83 228.29 298.35 C 227.89 298.44 227.10 298.62 226.70 298.71 C 225.69 298.22 224.68 297.72 223.68 297.23 C 223.71 295.83 223.74 294.44 223.77 293.05 C 223.29 293.28 222.34 293.75 221.86 293.98 C 221.81 291.38 221.59 288.73 219.58 286.85 C 219.37 288.22 219.10 289.61 217.69 290.20 C 217.57 287.96 217.76 285.61 216.55 283.62 C 216.45 284.47 216.25 286.17 216.14 287.02 C 215.07 285.93 214.01 284.84 212.91 283.79 C 213.06 284.54 213.37 286.04 213.52 286.79 C 211.42 285.14 209.15 283.62 207.59 281.41 C 208.24 279.51 208.72 277.56 209.12 275.59 C 208.67 275.65 207.77 275.78 207.32 275.84 C 207.41 273.97 207.78 272.02 206.96 270.25 C 205.53 269.96 204.88 270.70 205.02 272.48 L 203.54 272.59 C 203.63 271.76 203.81 270.10 203.91 269.27 C 202.48 269.65 201.03 269.73 199.63 269.23 M 289.16 294.13 C 288.46 295.35 287.76 296.56 287.06 297.78 C 290.04 297.72 293.04 297.56 295.98 296.98 C 297.57 296.48 299.05 295.70 300.41 294.73 C 300.87 293.22 301.39 291.74 301.90 290.25 C 301.49 290.14 300.66 289.92 300.24 289.81 C 300.42 288.48 300.58 287.15 300.75 285.83 C 298.92 286.80 297.11 287.83 295.33 288.90 C 295.49 287.87 295.82 285.81 295.98 284.79 C 293.81 287.99 289.00 289.76 289.16 294.13 M 226.21 287.20 C 226.70 287.81 226.70 287.81 226.21 287.20 M 226.17 289.31 C 226.81 289.76 226.81 289.76 226.17 289.31 M 268.04 303.62 C 265.26 303.89 262.50 303.39 259.74 303.18 C 258.99 302.36 258.26 301.54 257.52 300.74 C 257.31 302.50 257.20 304.27 256.90 306.02 C 256.27 309.27 250.50 310.19 251.98 313.96 C 253.12 312.89 254.23 311.78 255.38 310.71 C 257.13 311.85 258.95 312.88 260.78 313.90 C 261.05 313.50 261.58 312.70 261.84 312.29 C 260.02 311.48 258.24 310.57 256.43 309.76 C 256.83 309.39 257.64 308.66 258.05 308.29 C 259.86 309.39 261.70 310.48 263.48 311.66 C 264.09 311.65 265.31 311.63 265.93 311.62 C 263.70 309.95 261.36 308.46 259.01 307.00 C 259.19 305.82 259.36 304.65 259.53 303.47 C 262.56 303.82 265.53 304.56 267.92 306.56 C 268.51 306.83 269.71 307.39 270.31 307.66 L 270.32 308.59 C 274.18 309.07 277.86 307.85 281.00 305.65 C 281.82 305.62 283.45 305.55 284.27 305.52 C 283.07 305.00 281.87 304.50 280.67 304.02 C 281.98 302.60 283.46 301.35 285.10 300.35 C 283.43 300.35 281.74 300.39 280.12 299.93 C 279.92 299.44 279.53 298.44 279.33 297.94 C 278.90 298.05 278.03 298.29 277.60 298.40 C 273.35 297.23 270.61 300.99 268.04 303.62 M 259.69 305.09 C 260.68 305.73 261.69 306.33 262.70 306.94 C 263.76 307.83 264.89 308.67 266.24 309.10 C 264.84 306.80 262.36 305.36 259.69 305.09 Z" />
<path fill="#ffffff" opacity="1.00" d=" M 213.55 257.04 C 215.11 256.53 215.63 257.14 215.09 258.88 C 213.55 259.38 213.04 258.76 213.55 257.04 Z" />
<path fill="#ffffff" opacity="1.00" d=" M 251.78 272.12 C 254.24 272.66 256.24 274.55 258.85 274.55 C 258.83 274.89 258.77 275.59 258.74 275.94 C 256.25 275.01 253.71 274.00 251.78 272.12 Z" />
<path fill="#ffffff" opacity="1.00" d=" M 233.82 295.11 C 234.67 293.97 235.71 293.73 236.93 294.41 C 236.79 295.64 234.07 296.74 233.82 295.11 Z" />
</g>
<g id="#ce1126ff">
<path fill="#ce1126" opacity="1.00" d=" M 341.13 0.00 L 512.00 0.00 L 512.00 512.00 L 341.50 512.00 C 340.92 492.33 341.42 472.62 341.25 452.94 C 341.25 383.30 341.25 313.67 341.25 244.03 C 341.17 162.69 341.42 81.34 341.13 0.00 Z" />
<path fill="#ce1126" opacity="1.00" d=" M 253.85 200.00 C 257.44 197.50 261.97 198.15 266.02 198.90 C 270.63 199.81 275.12 201.39 279.07 203.96 C 280.81 205.16 282.80 205.83 284.93 205.67 C 284.64 206.44 284.36 207.22 284.08 208.00 C 290.76 212.28 295.69 218.83 298.79 226.07 C 299.96 229.06 301.98 231.58 304.08 233.98 C 303.54 233.91 302.45 233.76 301.91 233.69 C 299.61 233.37 297.35 232.81 295.10 232.24 C 296.35 235.25 297.31 238.39 297.51 241.67 C 294.44 239.12 293.23 235.27 292.36 231.53 C 291.18 231.12 290.00 230.71 288.82 230.30 C 290.55 232.37 292.02 234.68 292.83 237.28 C 293.98 240.78 295.80 244.23 295.63 248.02 C 295.64 250.30 295.44 252.57 295.30 254.85 C 293.09 250.81 294.42 245.75 292.13 241.83 C 290.58 239.62 288.94 237.48 287.38 235.29 C 287.48 234.50 287.69 232.91 287.79 232.12 C 286.64 231.79 285.49 231.46 284.34 231.15 C 285.13 236.40 289.47 240.06 291.12 244.97 C 291.79 247.80 291.42 250.75 291.21 253.62 C 288.63 250.05 290.71 244.80 287.45 241.74 C 283.62 239.22 284.13 233.68 280.05 231.53 C 280.15 235.55 282.75 238.68 284.56 242.05 C 281.52 240.77 279.55 238.14 278.23 235.23 C 277.30 235.34 276.38 235.47 275.46 235.59 C 277.00 237.15 278.57 238.68 280.00 240.34 C 279.35 240.44 278.04 240.63 277.39 240.73 L 277.16 241.11 L 278.16 241.34 C 279.64 244.10 280.73 247.04 281.83 249.97 C 278.93 247.19 277.38 243.07 273.62 241.24 C 271.58 240.25 270.87 238.04 270.27 236.04 C 270.41 237.12 270.55 238.21 270.70 239.30 C 270.00 239.59 269.32 239.89 268.64 240.19 L 268.34 241.41 C 267.82 242.47 267.31 243.54 266.81 244.61 C 266.42 244.56 265.65 244.44 265.26 244.38 C 265.26 245.85 265.26 247.32 265.27 248.79 C 264.27 248.56 263.27 248.33 262.27 248.10 C 262.29 248.80 262.33 250.20 262.35 250.89 C 261.03 250.66 259.72 250.44 258.41 250.22 C 258.36 250.85 258.26 252.12 258.21 252.75 C 257.27 252.74 255.40 252.71 254.46 252.70 C 256.05 254.94 257.89 256.99 259.96 258.80 C 259.42 256.77 258.80 254.76 258.21 252.75 C 260.53 255.43 262.95 258.03 265.32 260.67 C 263.63 261.03 261.94 261.36 260.26 261.77 C 260.23 262.20 260.15 263.04 260.12 263.47 C 259.44 262.95 258.89 262.35 258.47 261.65 C 257.41 258.28 255.54 255.27 253.37 252.51 C 252.77 252.41 251.57 252.20 250.97 252.10 C 252.48 254.52 254.03 256.93 255.63 259.29 C 255.57 260.14 255.45 261.84 255.39 262.69 C 252.41 261.44 249.34 262.43 246.34 263.01 C 246.35 262.57 246.35 261.68 246.35 261.23 C 244.71 260.72 243.10 260.16 241.49 259.57 C 241.54 258.93 241.64 257.63 241.69 256.98 C 241.04 257.41 239.73 258.26 239.08 258.69 C 238.72 258.57 238.01 258.34 237.65 258.22 C 235.18 256.73 232.76 258.38 230.46 259.32 C 231.65 256.49 228.43 257.86 227.15 257.46 C 229.79 255.49 231.39 252.26 234.50 250.93 C 234.47 251.71 234.41 253.27 234.38 254.05 C 235.13 253.68 235.89 253.31 236.64 252.93 C 238.02 252.36 238.79 251.27 238.95 249.67 C 236.49 247.77 233.63 249.02 230.93 249.40 C 228.33 249.16 227.48 246.49 227.12 244.32 C 226.43 245.20 225.76 246.11 225.10 247.03 C 224.74 245.54 224.37 244.04 224.04 242.56 C 224.45 243.05 225.27 244.03 225.68 244.52 C 226.07 244.29 226.85 243.82 227.24 243.59 C 226.11 241.74 226.47 240.35 228.32 239.43 C 228.39 240.15 228.55 241.61 228.63 242.34 C 228.96 242.86 229.63 243.90 229.96 244.43 C 232.85 244.62 235.74 244.58 238.64 244.53 C 239.51 245.49 240.39 246.45 241.25 247.43 C 241.43 250.43 243.40 252.89 243.74 255.86 C 244.56 255.67 246.19 255.30 247.01 255.12 C 246.00 253.85 244.93 252.63 243.90 251.39 C 244.64 251.49 246.13 251.68 246.87 251.78 C 244.73 249.77 243.96 247.06 243.48 244.28 C 240.67 242.45 240.45 238.91 239.74 235.95 C 239.80 233.35 241.64 231.09 241.68 228.44 C 243.06 227.02 243.72 225.26 243.63 223.28 L 244.74 223.54 C 244.51 221.94 244.28 220.35 244.04 218.76 C 242.17 220.02 240.27 221.32 238.05 221.90 C 238.43 223.24 238.83 224.59 239.26 225.93 C 238.77 227.21 238.30 228.49 237.82 229.77 C 237.15 229.71 235.80 229.60 235.13 229.54 C 235.36 228.26 237.11 226.77 235.80 225.61 C 235.76 225.56 235.68 225.44 235.65 225.39 C 236.36 222.89 233.45 222.79 231.96 222.07 C 232.67 223.39 233.44 224.68 234.19 225.99 C 231.17 225.89 228.79 223.93 226.00 223.06 C 228.03 220.92 230.00 218.66 232.46 217.00 C 231.17 218.80 229.58 220.37 228.10 222.02 C 229.15 223.06 230.21 224.10 231.28 225.14 C 231.76 223.67 230.81 221.46 232.41 220.47 C 235.06 217.50 239.29 218.85 242.75 218.23 C 240.77 216.84 238.33 217.68 236.13 217.69 C 237.14 215.85 238.60 214.09 238.54 211.87 C 237.35 213.86 236.63 216.26 234.38 217.37 C 234.09 215.05 234.44 212.78 235.98 210.99 C 236.39 209.87 236.81 208.76 237.20 207.64 L 237.77 210.44 C 238.84 209.28 239.35 207.88 239.31 206.22 L 239.90 206.20 C 239.88 207.06 239.84 208.79 239.83 209.65 L 241.43 209.68 C 241.68 207.76 241.95 205.85 242.20 203.94 C 242.35 205.67 243.02 207.11 244.21 208.25 C 244.48 207.14 244.74 206.03 244.99 204.92 C 245.78 208.17 249.44 208.10 251.95 209.29 C 252.61 209.28 253.93 209.25 254.59 209.24 L 254.46 209.64 C 253.92 211.22 253.49 212.83 253.12 214.46 C 254.36 214.42 255.60 214.37 256.84 214.32 C 258.63 218.19 258.13 222.54 259.06 226.62 C 262.24 223.12 259.48 218.31 258.56 214.41 C 258.42 213.16 258.41 211.90 258.39 210.65 C 256.23 207.64 252.56 207.10 249.46 205.60 C 248.32 202.38 251.12 200.56 253.85 200.00 M 267.20 205.20 C 266.88 205.98 266.56 206.77 266.25 207.55 C 266.93 207.79 268.29 208.25 268.97 208.49 C 268.68 209.63 268.23 210.71 267.37 211.53 C 268.38 211.94 269.39 212.36 270.41 212.77 C 270.87 216.71 270.29 220.59 269.36 224.40 C 267.97 226.19 266.42 227.84 264.78 229.40 C 264.49 230.30 264.21 231.20 263.88 232.09 C 262.54 230.71 261.82 228.91 261.10 227.18 C 260.50 227.69 259.88 228.19 259.26 228.67 C 258.31 227.82 257.45 226.89 256.56 225.99 C 256.58 224.03 256.59 222.07 256.58 220.11 C 256.02 220.23 254.92 220.47 254.37 220.59 C 254.48 223.30 255.00 226.12 256.63 228.36 C 255.25 230.00 254.13 231.85 254.40 234.08 C 255.91 235.68 257.17 237.50 258.21 239.44 C 257.14 239.02 256.07 238.60 255.01 238.18 C 254.53 239.83 253.97 241.46 253.35 243.07 C 251.97 241.97 250.60 240.87 249.20 239.81 C 249.30 243.09 251.40 247.52 255.13 247.56 C 255.62 248.42 256.12 249.28 256.63 250.14 C 256.44 247.42 254.64 245.22 253.95 242.64 C 256.00 243.98 257.34 246.05 258.74 248.00 C 260.12 245.24 258.90 242.40 258.05 239.70 C 259.18 240.50 260.30 241.31 261.43 242.12 C 261.45 240.35 261.44 238.58 261.42 236.82 C 262.51 238.27 263.62 239.71 264.77 241.13 C 265.19 239.60 265.50 238.04 265.69 236.47 C 266.40 236.47 267.11 236.48 267.82 236.48 C 268.03 235.96 268.46 234.91 268.68 234.38 C 269.69 234.43 270.72 234.49 271.75 234.54 C 271.55 233.45 271.35 232.37 271.16 231.29 C 272.72 231.39 274.29 231.51 275.87 231.63 C 275.15 230.08 274.48 228.51 273.97 226.88 C 275.82 227.21 277.26 228.37 278.54 229.67 C 279.33 229.08 280.13 228.49 280.93 227.91 C 279.39 226.40 277.95 224.77 276.78 222.96 C 281.01 223.10 281.92 228.99 286.15 228.64 C 283.98 225.57 281.55 222.69 278.87 220.06 C 277.85 219.30 278.51 217.95 278.82 217.03 C 284.83 218.79 285.47 226.49 290.67 229.14 C 290.59 227.98 290.52 226.82 290.44 225.67 C 287.53 220.57 283.31 216.49 279.80 211.85 C 285.77 214.86 289.15 221.02 293.27 226.01 C 293.42 227.41 293.54 228.82 293.82 230.21 C 294.86 230.46 295.91 230.67 296.97 230.85 C 294.42 223.01 290.03 215.37 282.78 211.02 C 282.63 210.57 282.31 209.67 282.16 209.23 C 281.52 209.32 280.24 209.51 279.60 209.60 C 279.53 210.23 279.38 211.50 279.30 212.13 C 278.75 212.42 277.66 212.99 277.11 213.27 C 277.58 214.16 278.06 215.05 278.55 215.94 C 277.48 218.41 277.20 221.53 274.73 223.09 C 274.61 224.04 274.48 224.99 274.36 225.94 C 272.48 227.62 271.65 230.14 269.67 231.74 C 268.45 233.07 267.26 234.44 266.08 235.81 C 265.57 235.31 264.56 234.30 264.05 233.80 C 265.02 233.25 265.99 232.70 266.96 232.15 C 267.46 230.37 269.11 229.76 270.69 229.18 C 270.50 227.85 270.30 226.53 270.09 225.20 C 270.96 225.41 271.84 225.61 272.72 225.82 C 272.62 225.01 272.41 223.40 272.31 222.60 C 273.43 221.87 274.57 221.14 275.70 220.42 C 274.96 218.49 274.39 216.49 274.40 214.41 C 273.55 213.45 272.71 212.50 271.87 211.55 C 273.80 211.54 275.74 211.56 277.68 211.62 C 277.67 211.04 277.66 209.88 277.65 209.30 C 274.31 207.59 270.84 206.15 267.20 205.20 M 252.50 229.37 C 251.25 229.70 249.94 231.17 250.36 232.50 C 251.76 233.19 254.61 229.87 252.50 229.37 M 245.27 231.16 C 245.67 234.54 248.04 229.29 245.27 231.16 M 246.92 243.95 C 248.44 246.71 250.54 249.10 253.04 251.02 C 251.53 248.33 250.38 244.56 246.92 243.95 Z" />
<path fill="#ce1126" opacity="1.00" d=" M 233.06 216.48 C 231.30 216.48 232.52 213.40 233.83 214.48 C 233.64 214.98 233.25 215.98 233.06 216.48 Z" />
<path fill="#ce1126" opacity="1.00" d=" M 230.40 230.37 C 231.64 231.02 231.58 231.71 230.21 232.44 C 228.97 231.78 229.03 231.10 230.40 230.37 Z" />
<path fill="#ce1126" opacity="1.00" d=" M 209.96 233.17 C 212.19 232.40 214.56 232.46 216.89 232.54 C 216.43 234.01 215.95 235.48 215.47 236.95 C 215.19 236.56 214.65 235.77 214.38 235.37 C 213.64 235.43 212.17 235.56 211.44 235.63 C 211.50 235.08 211.64 233.99 211.71 233.45 L 209.96 233.17 Z" />
<path fill="#ce1126" opacity="1.00" d=" M 298.75 238.22 C 298.34 237.14 297.64 233.45 300.14 235.47 C 302.82 238.59 301.14 243.45 301.45 247.29 C 300.96 247.41 299.98 247.66 299.50 247.78 C 299.57 244.58 299.92 241.28 298.75 238.22 Z" />
<path fill="#ce1126" opacity="1.00" d=" M 315.36 248.18 L 315.71 248.02 C 316.03 249.35 316.29 250.70 316.49 252.06 C 316.48 254.51 316.46 256.95 316.55 259.40 C 318.01 257.17 318.68 254.61 318.63 251.95 C 319.20 253.68 319.93 255.59 319.24 257.41 C 318.11 259.39 316.14 260.67 314.30 261.91 C 314.45 257.44 315.23 253.03 315.35 248.56 L 315.36 248.18 Z" />
<path fill="#ce1126" opacity="1.00" d=" M 211.70 252.40 C 212.83 252.34 213.96 252.27 215.10 252.19 C 215.21 253.53 215.32 254.88 215.44 256.22 C 215.87 256.92 216.74 258.31 217.17 259.00 C 216.71 260.24 215.62 260.96 214.54 261.61 C 213.60 260.35 212.50 259.12 212.40 257.46 C 211.41 257.14 210.42 256.82 209.43 256.50 C 209.44 256.12 209.47 255.35 209.49 254.96 C 210.22 254.10 210.96 253.25 211.70 252.40 M 213.55 257.04 C 213.04 258.76 213.55 259.38 215.09 258.88 C 215.63 257.14 215.11 256.53 213.55 257.04 Z" />
<path fill="#ce1126" opacity="1.00" d=" M 265.91 256.88 C 266.41 254.40 267.69 251.95 270.59 252.23 C 270.54 253.83 270.51 255.44 270.46 257.05 C 269.33 257.98 268.20 258.91 267.10 259.87 C 264.80 259.21 264.12 257.09 263.92 254.92 C 264.58 255.57 265.25 256.22 265.91 256.88 Z" />
<path fill="#ce1126" opacity="1.00" d=" M 276.47 255.24 C 277.82 254.74 279.77 255.77 279.91 257.28 C 279.23 259.46 275.87 256.78 276.47 255.24 Z" />
<path fill="#ce1126" opacity="1.00" d=" M 272.85 255.86 C 277.09 258.51 281.14 261.80 284.35 265.67 C 279.76 263.48 275.99 259.80 272.85 255.86 Z" />
<path fill="#ce1126" opacity="1.00" d=" M 223.30 257.13 C 226.29 255.62 223.25 260.55 223.30 257.13 Z" />
<path fill="#ce1126" opacity="1.00" d=" M 271.41 257.70 C 275.31 260.81 278.90 264.34 282.07 268.20 C 277.71 266.86 275.24 262.75 271.57 260.33 C 271.51 259.46 271.45 258.57 271.41 257.70 Z" />
<path fill="#ce1126" opacity="1.00" d=" M 281.48 259.38 C 282.44 258.48 284.31 259.89 283.55 261.06 C 282.60 262.06 280.73 260.50 281.48 259.38 Z" />
<path fill="#ce1126" opacity="1.00" d=" M 233.24 262.74 C 234.36 262.64 235.48 262.55 236.61 262.44 C 237.34 263.33 238.11 264.20 238.83 265.11 C 236.71 266.08 232.18 266.30 233.24 262.74 Z" />
<path fill="#ce1126" opacity="1.00" d=" M 283.74 263.07 C 284.28 262.67 285.37 261.88 285.91 261.49 C 287.98 260.99 288.10 263.86 289.12 265.02 C 287.28 264.50 285.48 263.83 283.74 263.07 Z" />
<path fill="#ce1126" opacity="1.00" d=" M 265.76 268.06 C 266.72 267.26 267.81 266.58 269.11 266.61 C 269.52 268.88 271.53 270.02 273.13 271.41 C 273.77 271.39 275.05 271.34 275.69 271.32 C 275.63 271.96 275.50 273.24 275.44 273.88 C 274.69 274.35 273.94 274.83 273.19 275.30 C 272.48 274.33 271.77 273.36 271.06 272.40 C 267.81 272.32 265.04 273.78 262.63 275.82 C 260.29 274.93 259.30 272.36 257.91 270.49 C 259.66 270.47 261.41 270.47 263.16 270.49 C 264.01 269.65 264.87 268.85 265.76 268.06 Z" />
<path fill="#ce1126" opacity="1.00" d=" M 293.72 270.37 C 295.05 269.18 296.14 267.54 298.01 267.16 C 297.39 268.67 296.09 269.59 294.60 270.14 C 294.59 271.29 294.59 272.45 294.60 273.61 C 294.14 273.67 293.23 273.78 292.77 273.84 C 292.41 273.44 291.69 272.65 291.33 272.25 C 291.35 271.22 291.36 270.20 291.38 269.18 C 292.14 269.59 292.92 269.98 293.72 270.37 Z" />
<path fill="#ce1126" opacity="1.00" d=" M 204.67 277.52 C 205.65 278.82 206.60 280.12 207.59 281.41 C 209.15 283.62 211.42 285.14 213.52 286.79 C 216.60 290.52 219.06 295.17 223.68 297.23 C 224.68 297.72 225.69 298.22 226.70 298.71 C 227.10 298.62 227.89 298.44 228.29 298.35 C 228.48 298.83 228.87 299.77 229.07 300.24 C 229.22 301.34 229.39 302.44 229.59 303.54 C 232.11 303.51 234.63 303.52 237.15 303.53 C 237.62 304.33 238.09 305.14 238.57 305.95 C 239.34 305.35 240.11 304.76 240.89 304.17 C 241.74 304.77 242.60 305.37 243.46 305.98 C 243.54 304.73 243.63 303.49 243.72 302.25 C 246.53 304.11 249.77 302.23 252.85 302.56 C 252.80 303.98 252.84 305.41 252.85 306.85 L 252.20 306.78 C 251.82 306.53 251.05 306.02 250.67 305.76 C 248.95 306.95 247.21 308.74 244.93 308.13 C 247.04 306.87 249.20 305.49 251.72 305.24 L 251.67 303.23 C 249.63 303.67 247.62 304.20 245.58 304.63 C 243.83 306.23 242.12 307.85 240.31 309.38 C 240.46 308.47 240.77 306.66 240.92 305.75 C 239.17 307.05 237.38 308.36 235.26 309.02 C 235.24 308.62 235.19 307.82 235.16 307.42 L 236.86 307.48 C 236.69 306.83 236.34 305.54 236.16 304.90 C 235.08 305.31 234.04 305.79 233.03 306.35 C 232.04 306.53 231.04 306.72 230.05 306.91 C 230.62 306.23 231.74 304.87 232.31 304.19 C 229.90 304.28 227.51 304.40 225.11 304.47 C 226.20 303.71 227.30 302.96 228.41 302.22 C 227.61 301.09 226.80 299.96 226.05 298.81 C 224.32 298.20 222.56 297.65 220.78 297.21 C 220.41 297.65 219.66 298.54 219.29 298.99 C 219.37 298.29 219.53 296.90 219.62 296.20 C 217.19 297.35 214.52 297.94 212.71 295.52 C 214.18 295.44 215.65 295.38 217.13 295.32 C 217.03 291.97 213.95 292.52 211.49 292.48 C 211.45 291.82 211.36 290.48 211.32 289.81 C 211.75 290.35 212.61 291.45 213.04 291.99 C 213.50 291.47 214.43 290.42 214.90 289.90 C 214.01 289.14 213.04 288.50 212.01 287.96 C 211.58 286.81 210.98 285.77 209.80 285.28 C 208.42 283.57 206.97 281.92 205.38 280.40 C 204.59 280.47 202.99 280.59 202.20 280.66 C 202.20 280.33 202.22 279.67 202.23 279.34 C 202.78 279.43 203.89 279.61 204.45 279.70 L 204.67 277.52 Z" />
<path fill="#ce1126" opacity="1.00" d=" M 243.84 286.64 C 243.37 285.33 244.59 283.54 246.02 283.91 C 249.41 284.75 252.92 284.57 256.39 284.55 C 256.37 286.21 256.43 287.87 256.49 289.54 C 258.57 289.46 260.65 289.36 262.73 289.25 C 263.11 287.93 263.50 286.62 263.89 285.31 C 265.37 285.41 266.86 285.52 268.34 285.66 C 267.71 289.36 267.69 293.13 267.64 296.88 C 261.01 298.56 253.95 297.52 247.16 297.44 C 246.82 297.42 246.15 297.37 245.81 297.35 C 244.90 297.24 244.25 296.72 243.84 295.79 C 241.22 295.76 238.41 295.38 236.04 296.79 C 234.74 296.48 233.44 296.17 232.16 295.82 C 233.73 294.07 235.74 293.04 238.20 293.65 C 238.27 293.04 238.41 291.83 238.48 291.23 C 238.63 291.37 238.95 291.65 239.11 291.79 C 238.76 292.64 238.06 294.34 237.71 295.19 C 240.06 295.14 242.41 295.11 244.77 295.05 C 244.24 292.72 243.89 290.36 243.89 287.97 C 243.88 287.64 243.85 286.97 243.84 286.64 M 233.82 295.11 C 234.07 296.74 236.79 295.64 236.93 294.41 C 235.71 293.73 234.67 293.97 233.82 295.11 Z" />
<path fill="#ce1126" opacity="1.00" d=" M 277.60 298.40 C 278.03 298.29 278.90 298.05 279.33 297.94 C 279.53 298.44 279.92 299.44 280.12 299.93 C 281.74 300.39 283.43 300.35 285.10 300.35 C 283.46 301.35 281.98 302.60 280.67 304.02 C 281.87 304.50 283.07 305.00 284.27 305.52 C 283.45 305.55 281.82 305.62 281.00 305.65 C 277.86 307.85 274.18 309.07 270.32 308.59 L 270.31 307.66 C 272.73 307.72 275.16 307.37 277.46 306.58 C 274.28 306.40 271.09 306.56 267.92 306.56 C 265.53 304.56 262.56 303.82 259.53 303.47 C 259.36 304.65 259.19 305.82 259.01 307.00 C 261.36 308.46 263.70 309.95 265.93 311.62 C 265.31 311.63 264.09 311.65 263.48 311.66 C 261.70 310.48 259.86 309.39 258.05 308.29 C 257.64 308.66 256.83 309.39 256.43 309.76 C 256.17 310.00 255.64 310.48 255.38 310.71 C 254.23 311.78 253.12 312.89 251.98 313.96 C 250.50 310.19 256.27 309.27 256.90 306.02 C 257.20 304.27 257.31 302.50 257.52 300.74 C 258.26 301.54 258.99 302.36 259.74 303.18 C 262.50 303.39 265.26 303.89 268.04 303.62 C 271.56 302.54 274.39 300.10 277.60 298.40 M 267.79 304.70 C 271.91 307.15 276.21 303.41 279.81 301.56 C 279.69 301.33 279.47 300.86 279.36 300.62 C 275.24 299.83 271.80 303.94 267.79 304.70 Z" />
<path fill="#ce1126" opacity="1.00" d=" M 259.69 305.09 C 262.36 305.36 264.84 306.80 266.24 309.10 C 264.89 308.67 263.76 307.83 262.70 306.94 C 261.69 306.33 260.68 305.73 259.69 305.09 Z" />
</g>
</svg>
