<?xml version="1.0" encoding="UTF-8" ?>
<!DOCTYPE svg PUBLIC "-//W3C//DTD SVG 1.1//EN" "http://www.w3.org/Graphics/SVG/1.1/DTD/svg11.dtd">
<svg width="512pt" height="512pt" viewBox="0 0 512 512" version="1.1" xmlns="http://www.w3.org/2000/svg">
<g id="#ae1c28ff">
<path fill="#ae1c28" opacity="1.00" d=" M 0.00 0.00 L 512.00 0.00 L 512.00 170.59 C 486.33 170.99 460.64 170.64 434.97 170.76 C 324.65 170.76 214.33 170.76 104.01 170.76 C 69.34 170.84 34.67 170.61 0.00 170.88 L 0.00 0.00 Z" />
</g>
<g id="#ffffffff">
<path fill="#ffffff" opacity="1.00" d=" M 0.00 170.88 C 34.67 170.61 69.34 170.84 104.01 170.76 C 214.33 170.76 324.65 170.76 434.97 170.76 C 460.64 170.64 486.33 170.99 512.00 170.59 L 512.00 341.00 C 346.02 341.01 180.05 341.00 14.07 341.01 C 9.38 341.06 4.66 340.66 0.00 341.41 L 0.00 170.88 Z" />
</g>
<g id="#21468bff">
<path fill="#21468b" opacity="1.00" d=" M 0.00 341.41 C 4.66 340.66 9.38 341.06 14.07 341.01 C 180.05 341.00 346.02 341.01 512.00 341.00 L 512.00 512.00 L 0.00 512.00 L 0.00 341.41 Z" />
</g>
</svg>
