<?xml version="1.0" encoding="UTF-8" ?>
<!DOCTYPE svg PUBLIC "-//W3C//DTD SVG 1.1//EN" "http://www.w3.org/Graphics/SVG/1.1/DTD/svg11.dtd">
<svg width="512pt" height="512pt" viewBox="0 0 512 512" version="1.1" xmlns="http://www.w3.org/2000/svg">
<g id="#ae1c29ff">
<path fill="#ae1c29" opacity="1.00" d=" M 0.00 0.00 L 512.00 0.00 L 512.00 170.69 C 427.34 170.89 342.68 170.72 258.02 170.77 C 172.01 170.86 86.00 170.60 0.00 170.91 L 0.00 0.00 Z" />
</g>
<g id="#ffffffff">
<path fill="#ffffff" opacity="1.00" d=" M 0.00 170.91 C 86.00 170.60 172.01 170.86 258.02 170.77 C 342.68 170.72 427.34 170.89 512.00 170.69 L 512.00 340.99 C 341.33 341.09 170.67 340.96 0.00 341.06 L 0.00 170.91 Z" />
</g>
<g id="#21458bff">
<path fill="#21458b" opacity="1.00" d=" M 0.00 341.06 C 170.67 340.96 341.33 341.09 512.00 340.99 L 512.00 512.00 L 0.00 512.00 L 0.00 341.06 Z" />
</g>
</svg>
