<?xml version="1.0" encoding="UTF-8" ?>
<!DOCTYPE svg PUBLIC "-//W3C//DTD SVG 1.1//EN" "http://www.w3.org/Graphics/SVG/1.1/DTD/svg11.dtd">
<svg width="512pt" height="512pt" viewBox="0 0 512 512" version="1.1" xmlns="http://www.w3.org/2000/svg">
<g id="#ffffffff">
<path fill="#ffffff" opacity="1.00" d=" M 0.00 0.00 L 30.94 0.00 C 50.01 18.55 68.95 37.23 88.00 55.80 C 88.00 37.20 88.01 18.60 88.00 0.00 L 104.00 0.00 C 104.00 34.67 104.00 69.33 104.00 104.00 C 69.33 104.00 34.67 104.00 0.00 104.00 L 0.00 88.00 C 17.27 88.00 34.55 88.01 51.82 88.00 C 34.68 70.99 17.30 54.21 0.26 37.10 L 0.00 38.08 L 0.00 24.45 C 21.25 45.69 42.65 66.78 63.94 87.98 C 72.08 87.99 80.22 88.05 88.36 87.95 C 87.16 85.21 84.62 83.48 82.60 81.39 C 55.08 54.41 27.50 27.47 0.00 0.47 L 0.00 0.00 Z" />
<path fill="#ffffff" opacity="1.00" d=" M 152.00 0.00 L 168.00 0.00 C 168.01 17.51 167.99 35.03 168.01 52.54 C 185.35 35.16 202.45 17.54 219.89 0.26 L 218.91 0.00 L 233.47 0.00 C 231.39 1.38 229.74 3.26 228.02 5.04 C 208.01 25.32 187.99 45.58 168.00 65.87 C 168.02 73.34 167.96 80.81 168.03 88.28 C 169.11 88.07 170.07 87.60 170.89 86.90 C 198.42 58.77 225.97 30.66 253.52 2.54 C 254.23 1.75 254.89 0.90 255.47 0.00 L 255.78 0.00 C 256.24 10.66 255.91 21.35 255.98 32.02 C 237.52 50.67 219.04 69.31 200.61 87.99 C 219.07 88.01 237.54 87.99 256.00 88.00 C 256.00 93.34 256.00 98.67 256.00 104.00 C 221.33 104.00 186.67 104.00 152.00 104.00 C 152.00 69.33 152.00 34.67 152.00 0.00 Z" />
<path fill="#ffffff" opacity="1.00" d=" M 396.18 136.87 C 396.33 136.06 396.73 135.42 397.39 134.92 C 399.32 141.68 401.83 148.26 404.05 154.93 C 410.66 154.96 417.27 154.89 423.88 154.97 C 418.12 159.29 412.32 163.54 406.62 167.94 C 408.67 174.26 410.69 180.59 412.82 186.89 C 407.33 183.00 401.88 179.03 396.27 175.30 C 390.90 179.22 385.39 182.95 380.02 186.86 C 382.03 180.53 384.14 174.24 386.17 167.91 C 380.41 163.63 374.79 159.16 368.86 155.13 C 376.09 154.61 383.35 155.25 390.57 154.76 C 392.21 148.73 394.48 142.89 396.18 136.87 M 396.61 144.44 C 395.40 148.90 393.84 153.26 392.46 157.68 C 387.77 157.80 383.07 157.69 378.38 157.74 C 381.98 160.88 386.17 163.28 389.67 166.55 C 388.18 170.57 386.91 174.67 385.63 178.76 C 389.23 176.26 392.78 173.69 396.37 171.18 C 399.94 173.65 403.50 176.16 406.99 178.76 C 406.04 174.51 404.37 170.47 403.14 166.31 C 406.82 163.49 410.58 160.76 414.28 157.96 C 410.03 157.44 405.74 157.87 401.48 157.73 C 399.70 153.36 398.78 148.63 396.61 144.44 Z" />
<path fill="#ffffff" opacity="1.00" d=" M 0.00 152.00 C 34.67 152.00 69.33 152.00 104.00 152.00 C 104.00 186.67 104.00 221.33 104.00 256.00 C 98.67 256.00 93.34 256.00 88.00 256.00 C 87.99 237.81 88.01 219.62 88.00 201.43 C 69.98 219.59 52.00 237.79 34.02 255.99 C 29.68 256.01 25.34 256.00 21.00 256.00 C 43.33 233.57 65.58 211.05 87.96 188.66 C 88.04 181.69 88.00 174.72 87.98 167.75 C 86.69 167.99 85.40 168.42 84.53 169.47 C 56.40 197.86 28.13 226.13 0.00 254.52 L 0.00 222.06 C 17.84 203.98 35.82 186.05 53.70 168.00 C 35.80 168.00 17.90 168.00 0.00 168.00 L 0.00 152.00 Z" />
<path fill="#ffffff" opacity="1.00" d=" M 152.00 152.00 C 186.67 152.00 221.33 152.00 256.00 152.00 C 256.00 157.33 256.00 162.66 256.00 168.00 C 237.88 168.01 219.77 167.99 201.65 168.01 C 219.75 185.79 237.75 203.66 255.93 221.35 C 256.05 225.38 256.00 229.42 256.00 233.46 C 233.66 211.67 211.45 189.75 189.10 167.98 C 181.97 168.05 174.84 167.95 167.71 168.03 C 168.20 170.58 170.43 172.07 172.14 173.80 C 200.11 201.17 228.01 228.62 256.00 255.97 C 244.77 255.98 233.55 256.09 222.32 255.92 C 204.32 237.97 186.11 220.22 168.01 202.37 C 167.99 220.25 168.01 238.12 168.00 256.00 C 162.66 256.00 157.33 256.00 152.00 256.00 C 152.00 221.33 152.00 186.67 152.00 152.00 Z" />
<path fill="#ffffff" opacity="1.00" d=" M 468.63 201.42 C 468.83 201.30 469.23 201.04 469.43 200.91 C 471.06 206.81 473.33 212.50 475.17 218.34 C 481.08 218.48 487.01 218.48 492.92 218.29 C 487.92 222.33 482.63 226.01 477.55 229.95 C 479.26 235.60 481.22 241.19 482.98 246.83 C 478.09 243.40 473.31 239.79 468.28 236.57 C 463.54 240.03 458.68 243.33 453.95 246.79 C 455.57 241.12 457.63 235.59 459.31 229.94 C 454.20 226.02 448.94 222.30 443.90 218.30 C 450.30 218.49 456.71 218.44 463.11 218.38 C 464.98 212.74 466.73 207.04 468.63 201.42 M 468.54 210.02 C 467.69 213.78 466.30 217.39 465.21 221.08 C 461.24 221.40 457.26 221.13 453.28 221.16 C 456.38 223.65 459.65 225.92 462.79 228.36 C 461.70 231.82 460.51 235.26 459.42 238.73 C 462.38 236.67 465.35 234.63 468.23 232.47 C 471.42 234.32 474.28 236.68 477.37 238.69 C 476.33 235.22 475.12 231.80 474.05 228.33 C 477.10 225.92 480.47 223.89 483.25 221.15 C 479.74 221.18 476.23 221.23 472.73 221.26 C 471.14 217.58 470.41 213.57 468.54 210.02 Z" />
<path fill="#ffffff" opacity="1.00" d=" M 306.33 239.50 C 308.95 232.79 310.50 225.68 313.33 219.06 C 315.27 225.94 317.86 232.61 320.07 239.40 C 326.71 239.47 333.36 239.53 340.00 239.33 C 334.35 243.75 328.57 248.03 322.77 252.27 C 324.52 258.69 326.79 264.96 328.83 271.29 C 323.36 267.56 317.97 263.72 312.60 259.84 C 306.95 263.41 301.76 267.66 296.09 271.19 C 298.16 264.89 300.42 258.64 302.14 252.23 C 296.33 248.02 290.56 243.75 284.92 239.32 C 292.05 239.61 299.19 239.34 306.33 239.50 M 312.65 228.93 C 311.33 233.44 310.12 238.02 308.26 242.35 C 303.67 242.17 299.08 242.28 294.48 242.19 C 298.03 245.32 302.02 247.88 305.70 250.85 C 304.43 254.99 302.90 259.04 301.75 263.22 C 305.26 260.76 308.81 258.33 312.24 255.75 C 316.08 257.96 319.50 260.81 323.21 263.23 C 321.97 259.06 320.49 254.98 319.21 250.83 C 322.92 247.90 326.89 245.30 330.46 242.19 C 326.08 242.15 321.70 242.47 317.34 242.07 C 315.82 237.69 314.79 233.06 312.65 228.93 Z" />
<path fill="#ffffff" opacity="1.00" d=" M 389.79 372.01 C 392.36 364.58 394.26 356.84 397.36 349.64 C 399.66 357.18 402.38 364.57 404.87 372.05 C 412.25 372.08 419.64 372.04 427.02 372.06 C 420.56 376.70 414.34 381.66 407.85 386.26 C 409.67 393.41 412.45 400.29 414.46 407.40 C 408.35 403.20 402.46 398.65 396.17 394.72 C 390.25 398.95 384.40 403.33 378.25 407.23 C 380.57 400.29 382.88 393.35 385.02 386.37 C 378.56 381.70 372.31 376.75 365.82 372.12 C 373.81 371.94 381.80 372.17 389.79 372.01 M 391.78 374.84 C 386.35 374.91 380.93 374.77 375.51 374.93 C 379.66 378.46 384.23 381.46 388.50 384.87 C 387.00 389.70 385.32 394.48 383.84 399.32 C 388.01 396.48 392.14 393.57 396.22 390.59 C 400.64 393.28 404.67 396.56 409.01 399.38 C 407.42 394.55 405.83 389.73 404.27 384.90 C 408.57 381.48 413.13 378.40 417.37 374.91 C 412.34 374.79 407.30 374.91 402.26 374.83 C 400.37 369.59 398.87 364.21 396.73 359.07 C 395.30 364.39 393.44 369.59 391.78 374.84 Z" />
</g>
<g id="#00247cff">
<path fill="#00247c" opacity="1.00" d=" M 30.94 0.00 L 88.00 0.00 C 88.01 18.60 88.00 37.20 88.00 55.80 C 68.95 37.23 50.01 18.55 30.94 0.00 Z" />
<path fill="#00247c" opacity="1.00" d=" M 168.00 0.00 L 218.91 0.00 L 219.89 0.26 C 202.45 17.54 185.35 35.16 168.01 52.54 C 167.99 35.03 168.01 17.51 168.00 0.00 Z" />
<path fill="#00247c" opacity="1.00" d=" M 255.78 0.00 L 512.00 0.00 L 512.00 512.00 L 0.00 512.00 L 0.00 256.00 C 7.00 256.00 14.00 256.00 21.00 256.00 C 25.34 256.00 29.68 256.01 34.02 255.99 C 52.00 237.79 69.98 219.59 88.00 201.43 C 88.01 219.62 87.99 237.81 88.00 256.00 C 93.34 256.00 98.67 256.00 104.00 256.00 C 120.00 256.00 136.00 256.00 152.00 256.00 C 157.33 256.00 162.66 256.00 168.00 256.00 C 168.01 238.12 167.99 220.25 168.01 202.37 C 186.11 220.22 204.32 237.97 222.32 255.92 C 233.55 256.09 244.77 255.98 256.00 255.97 C 256.00 248.47 256.00 240.97 256.00 233.46 C 256.00 229.42 256.05 225.38 255.93 221.35 C 237.75 203.66 219.75 185.79 201.65 168.01 C 219.77 167.99 237.88 168.01 256.00 168.00 C 256.00 162.66 256.00 157.33 256.00 152.00 C 256.00 136.00 256.00 120.00 256.00 104.00 C 256.00 98.67 256.00 93.34 256.00 88.00 C 237.54 87.99 219.07 88.01 200.61 87.99 C 219.04 69.31 237.52 50.67 255.98 32.02 C 255.91 21.35 256.24 10.66 255.78 0.00 M 396.18 136.87 C 394.48 142.89 392.21 148.73 390.57 154.76 C 383.35 155.25 376.09 154.61 368.86 155.13 C 374.79 159.16 380.41 163.63 386.17 167.91 C 384.14 174.24 382.03 180.53 380.02 186.86 C 385.39 182.95 390.90 179.22 396.27 175.30 C 401.88 179.03 407.33 183.00 412.82 186.89 C 410.69 180.59 408.67 174.26 406.62 167.94 C 412.32 163.54 418.12 159.29 423.88 154.97 C 417.27 154.89 410.66 154.96 404.05 154.93 C 401.83 148.26 399.32 141.68 397.39 134.92 C 396.73 135.42 396.33 136.06 396.18 136.87 M 468.63 201.42 C 466.73 207.04 464.98 212.74 463.11 218.38 C 456.71 218.44 450.30 218.49 443.90 218.30 C 448.94 222.30 454.20 226.02 459.31 229.94 C 457.63 235.59 455.57 241.12 453.95 246.79 C 458.68 243.33 463.54 240.03 468.28 236.57 C 473.31 239.79 478.09 243.40 482.98 246.83 C 481.22 241.19 479.26 235.60 477.55 229.95 C 482.63 226.01 487.92 222.33 492.92 218.29 C 487.01 218.48 481.08 218.48 475.17 218.34 C 473.33 212.50 471.06 206.81 469.43 200.91 C 469.23 201.04 468.83 201.30 468.63 201.42 M 306.33 239.50 C 299.19 239.34 292.05 239.61 284.92 239.32 C 290.56 243.75 296.33 248.02 302.14 252.23 C 300.42 258.64 298.16 264.89 296.09 271.19 C 301.76 267.66 306.95 263.41 312.60 259.84 C 317.97 263.72 323.36 267.56 328.83 271.29 C 326.79 264.96 324.52 258.69 322.77 252.27 C 328.57 248.03 334.35 243.75 340.00 239.33 C 333.36 239.53 326.71 239.47 320.07 239.40 C 317.86 232.61 315.27 225.94 313.33 219.06 C 310.50 225.68 308.95 232.79 306.33 239.50 M 389.79 372.01 C 381.80 372.17 373.81 371.94 365.82 372.12 C 372.31 376.75 378.56 381.70 385.02 386.37 C 382.88 393.35 380.57 400.29 378.25 407.23 C 384.40 403.33 390.25 398.95 396.17 394.72 C 402.46 398.65 408.35 403.20 414.46 407.40 C 412.45 400.29 409.67 393.41 407.85 386.26 C 414.34 381.66 420.56 376.70 427.02 372.06 C 419.64 372.04 412.25 372.08 404.87 372.05 C 402.38 364.57 399.66 357.18 397.36 349.64 C 394.26 356.84 392.36 364.58 389.79 372.01 Z" />
<path fill="#00247c" opacity="1.00" d=" M 0.00 38.08 L 0.26 37.10 C 17.30 54.21 34.68 70.99 51.82 88.00 C 34.55 88.01 17.27 88.00 0.00 88.00 L 0.00 38.08 Z" />
<path fill="#00247c" opacity="1.00" d=" M 0.00 168.00 C 17.90 168.00 35.80 168.00 53.70 168.00 C 35.82 186.05 17.84 203.98 0.00 222.06 L 0.00 168.00 Z" />
</g>
<g id="#c8102eff">
<path fill="#c8102e" opacity="1.00" d=" M 104.00 0.00 L 152.00 0.00 C 152.00 34.67 152.00 69.33 152.00 104.00 C 186.67 104.00 221.33 104.00 256.00 104.00 C 256.00 120.00 256.00 136.00 256.00 152.00 C 221.33 152.00 186.67 152.00 152.00 152.00 C 152.00 186.67 152.00 221.33 152.00 256.00 C 136.00 256.00 120.00 256.00 104.00 256.00 C 104.00 221.33 104.00 186.67 104.00 152.00 C 69.33 152.00 34.67 152.00 0.00 152.00 L 0.00 104.00 C 34.67 104.00 69.33 104.00 104.00 104.00 C 104.00 69.33 104.00 34.67 104.00 0.00 Z" />
<path fill="#c8102e" opacity="1.00" d=" M 233.47 0.00 L 255.47 0.00 C 254.89 0.90 254.23 1.75 253.52 2.54 C 225.97 30.66 198.42 58.77 170.89 86.90 C 170.07 87.60 169.11 88.07 168.03 88.28 C 167.96 80.81 168.02 73.34 168.00 65.87 C 187.99 45.58 208.01 25.32 228.02 5.04 C 229.74 3.26 231.39 1.38 233.47 0.00 Z" />
<path fill="#c8102e" opacity="1.00" d=" M 0.00 0.47 C 27.50 27.47 55.08 54.41 82.60 81.39 C 84.62 83.48 87.16 85.21 88.36 87.95 C 80.22 88.05 72.08 87.99 63.94 87.98 C 42.65 66.78 21.25 45.69 0.00 24.45 L 0.00 0.47 Z" />
<path fill="#c8102e" opacity="1.00" d=" M 396.61 144.44 C 398.78 148.63 399.70 153.36 401.48 157.73 C 405.74 157.87 410.03 157.44 414.28 157.96 C 410.58 160.76 406.82 163.49 403.14 166.31 C 404.37 170.47 406.04 174.51 406.99 178.76 C 403.50 176.16 399.94 173.65 396.37 171.18 C 392.78 173.69 389.23 176.26 385.63 178.76 C 386.91 174.67 388.18 170.57 389.67 166.55 C 386.17 163.28 381.98 160.88 378.38 157.74 C 383.07 157.69 387.77 157.80 392.46 157.68 C 393.84 153.26 395.40 148.90 396.61 144.44 Z" />
<path fill="#c8102e" opacity="1.00" d=" M 84.53 169.47 C 85.40 168.42 86.69 167.99 87.98 167.75 C 88.00 174.72 88.04 181.69 87.96 188.66 C 65.58 211.05 43.33 233.57 21.00 256.00 C 14.00 256.00 7.00 256.00 0.00 256.00 L 0.00 254.52 C 28.13 226.13 56.40 197.86 84.53 169.47 Z" />
<path fill="#c8102e" opacity="1.00" d=" M 167.71 168.03 C 174.84 167.95 181.97 168.05 189.10 167.98 C 211.45 189.75 233.66 211.67 256.00 233.46 C 256.00 240.97 256.00 248.47 256.00 255.97 C 228.01 228.62 200.11 201.17 172.14 173.80 C 170.43 172.07 168.20 170.58 167.71 168.03 Z" />
<path fill="#c8102e" opacity="1.00" d=" M 468.54 210.02 C 470.41 213.57 471.14 217.58 472.73 221.26 C 476.23 221.23 479.74 221.18 483.25 221.15 C 480.47 223.89 477.10 225.92 474.05 228.33 C 475.12 231.80 476.33 235.22 477.37 238.69 C 474.28 236.68 471.42 234.32 468.23 232.47 C 465.35 234.63 462.38 236.67 459.42 238.73 C 460.51 235.26 461.70 231.82 462.79 228.36 C 459.65 225.92 456.38 223.65 453.28 221.16 C 457.26 221.13 461.24 221.40 465.21 221.08 C 466.30 217.39 467.69 213.78 468.54 210.02 Z" />
<path fill="#c8102e" opacity="1.00" d=" M 312.65 228.93 C 314.79 233.06 315.82 237.69 317.34 242.07 C 321.70 242.47 326.08 242.15 330.46 242.19 C 326.89 245.30 322.92 247.90 319.21 250.83 C 320.49 254.98 321.97 259.06 323.21 263.23 C 319.50 260.81 316.08 257.96 312.24 255.75 C 308.81 258.33 305.26 260.76 301.75 263.22 C 302.90 259.04 304.43 254.99 305.70 250.85 C 302.02 247.88 298.03 245.32 294.48 242.19 C 299.08 242.28 303.67 242.17 308.26 242.35 C 310.12 238.02 311.33 233.44 312.65 228.93 Z" />
<path fill="#c8102e" opacity="1.00" d=" M 391.78 374.84 C 393.44 369.59 395.30 364.39 396.73 359.07 C 398.87 364.21 400.37 369.59 402.26 374.83 C 407.30 374.91 412.34 374.79 417.37 374.91 C 413.13 378.40 408.57 381.48 404.27 384.90 C 405.83 389.73 407.42 394.55 409.01 399.38 C 404.67 396.56 400.64 393.28 396.22 390.59 C 392.14 393.57 388.01 396.48 383.84 399.32 C 385.32 394.48 387.00 389.70 388.50 384.87 C 384.23 381.46 379.66 378.46 375.51 374.93 C 380.93 374.77 386.35 374.91 391.78 374.84 Z" />
</g>
</svg>
