<?xml version="1.0" encoding="UTF-8" ?>
<!DOCTYPE svg PUBLIC "-//W3C//DTD SVG 1.1//EN" "http://www.w3.org/Graphics/SVG/1.1/DTD/svg11.dtd">
<svg width="512pt" height="512pt" viewBox="0 0 512 512" version="1.1" xmlns="http://www.w3.org/2000/svg">
<g id="#a51931ff">
<path fill="#a51931" opacity="1.00" d=" M 0.00 0.00 L 512.00 0.00 L 512.00 88.00 C 341.33 88.00 170.67 88.00 0.00 88.00 L 0.00 0.00 Z" />
<path fill="#a51931" opacity="1.00" d=" M 0.00 426.70 C 170.67 426.69 341.33 426.71 512.00 426.69 L 512.00 512.00 L 0.00 512.00 L 0.00 426.70 Z" />
</g>
<g id="#f4f5f8ff">
<path fill="#f4f5f8" opacity="1.00" d=" M 0.00 88.00 C 170.67 88.00 341.33 88.00 512.00 88.00 L 512.00 173.42 C 341.33 173.37 170.67 173.45 0.00 173.38 L 0.00 88.00 Z" />
<path fill="#f4f5f8" opacity="1.00" d=" M 0.00 344.00 C 170.67 344.00 341.33 344.00 512.00 344.00 L 512.00 426.69 C 341.33 426.71 170.67 426.69 0.00 426.70 L 0.00 344.00 Z" />
</g>
<g id="#2d2a4aff">
<path fill="#2d2a4a" opacity="1.00" d=" M 0.00 173.38 C 170.67 173.45 341.33 173.37 512.00 173.42 L 512.00 344.00 C 341.33 344.00 170.67 344.00 0.00 344.00 L 0.00 173.38 Z" />
</g>
</svg>
