<?xml version="1.0" encoding="UTF-8" ?>
<!DOCTYPE svg PUBLIC "-//W3C//DTD SVG 1.1//EN" "http://www.w3.org/Graphics/SVG/1.1/DTD/svg11.dtd">
<svg width="626pt" height="330pt" viewBox="0 0 626 330" version="1.1" xmlns="http://www.w3.org/2000/svg">
<g id="#ff1703ff">
<path fill="#ff1703" opacity="1.00" d=" M 0.00 0.00 L 626.00 0.00 L 626.00 65.79 C 417.33 65.79 208.67 65.79 0.00 65.79 L 0.00 0.00 Z" />
<path fill="#ff1703" opacity="1.00" d=" M 0.00 264.21 C 208.67 264.21 417.33 264.21 626.00 264.21 L 626.00 330.00 L 0.00 330.00 L 0.00 264.21 Z" />
</g>
<g id="#ffffffff">
<path fill="#ffffff" opacity="1.00" d=" M 0.00 65.79 C 208.67 65.79 417.33 65.79 626.00 65.79 L 626.00 112.56 C 417.33 112.54 208.67 112.57 0.00 112.54 L 0.00 65.79 Z" />
<path fill="#ffffff" opacity="1.00" d=" M 0.00 217.44 C 208.67 217.45 417.33 217.43 626.00 217.45 L 626.00 264.21 C 417.33 264.21 208.67 264.21 0.00 264.21 L 0.00 217.44 Z" />
</g>
<g id="#002aa3ff">
<path fill="#002aa3" opacity="1.00" d=" M 0.00 112.54 C 208.67 112.57 417.33 112.54 626.00 112.56 L 626.00 217.45 C 417.33 217.43 208.67 217.45 0.00 217.44 L 0.00 112.54 Z" />
</g>
</svg>
