<svg id="Layer_1" data-name="Layer 1" xmlns="http://www.w3.org/2000/svg" viewBox="0 0 311.983 503.5">
<style>
                    path, polyline, polygon, line, circle {
                        stroke: #22c55e !important;
                        stroke-width: 3.5px !important;
                        fill: none !important;
                        stroke-linecap: round !important;
                        stroke-linejoin: round !important;
                        filter: drop-shadow(0px 0px 5px #22c55e) !important;
                    }
                </style>


<title>gt3_spa_24h</title><polyline points="94.821 54.773 67.318 6.713 67.027 4.555 68.246 2.64 70.788 1.75 73.623 2.532 82.676 7.09 104.646 17.635 115.211 24.135 126.205 32.28 136.065 40.533 143.881 49.056 185.881 99.139 188.836 101.944 193.903 105.1 202.956 110.952 206.924 114.89 210.274 120.23 212.421 125.085 213.847 130.533 215.067 140.592 215.771 144.152 216.991 147.443 219.327 151.758 240.078 184.958 253.288 206.049 256.947 213.924 259.283 219.777 262.032 229.19 278.608 287.04 304.032 374.882 309.924 396 310.233 399.425 309.615 403.228 307.588 406.276 304.633 408.838 300.871 410.861 298.638 413.018 297.109 415.553 295.889 419.383 296.096 423.186 301.18 445.949 301.077 449.886 300.27 453.446 297.521 457.384 294.257 460.054 236.316 500.105 232.657 501.642 228.998 501.75 225.133 500.617 221.972 498.325 219.739 495.034 218.829 491.717 218.623 488.157 219.739 484.84 221.766 481.414 224.721 479.014 250.041 463.371 252.79 460.567 254.301 457.762 254.92 454.471 254.611 450.399 244.132 419.626 240.885 407.058 233.464 368.275 229.805 346.024 228.998 342.221 227.16 338.149 224.721 334.832 221.062 331.271 216.991 328.602 212.524 326.822 207.835 326.066 192.684 325.041 186.895 325.689 181.604 327.199 176.227 329.492 171.847 332.431 166.762 337.124 163.515 341.817 159.96 348.559 145.616 384.43 132.801 416.335 130.053 421.298 126.806 424.723 122.34 427.258 117.856 428.526 113.699 428.661 109.525 427.771 105.969 426.126 100.06 422.296 96.195 420.651 91.522 419.895 86.85 420.408 82.573 421.783 78.914 424.346 76.577 427.258 73.726 431.196 50.244 468.064 47.907 470.222 45.056 471.759 41.603 472.514 37.738 472.272 34.388 470.734 18.516 459.164 9.171 452.314 6.835 449.266 4.395 445.571 2.97 442.011 1.956 437.804 1.75 433.489 2.454 428.283 4.086 423.833 6.216 418.115 9.377 409.458 14.857 399.668 20.869 391.145 30.008 380.87 45.262 365.982 54.212 358.997 61.839 354.547 101.09 334.076 106.776 330.516 112.17 326.309 117.152 321.616 121.412 316.519 125.38 311.179 130.671 301.416 134.948 292.003 144.705 270.265 146.423 265.545 147.454 260.475 147.643 254.11 146.63 248.392 140.84 233.505 134.536 217.107 126.909 196.637 124.968 189.031 123.147 179.996 122.031 171.608 121.309 164.488 119.076 131.557 119.488 129.4 120.811 127.862 122.838 127.35 126.291 127.862 129.864 127.862 132.303 127.35 133.918 125.57 134.33 123.547 133.317 120.877 120.811 100.407 94.821 54.773"   stroke-linecap="round" stroke-linejoin="round" /></svg>