<svg id="Layer_1" data-name="Layer 1" xmlns="http://www.w3.org/2000/svg" viewBox="0 0 378.758 177.869">
<style>
                    path, polyline, polygon, line, circle {
                        stroke: #a855f7 !important;
                        stroke-width: 3.5px !important;
                        fill: none !important;
                        stroke-linecap: round !important;
                        stroke-linejoin: round !important;
                        filter: drop-shadow(0px 0px 5px #a855f7) !important;
                    }
                </style>


<title>imsa_indianapolis</title><polyline points="232.66 174.947 66.442 175.994 63.9 175.302 62.619 174.045 61.998 171.977 61.904 167.165 61.963 159.74 61.575 156.816 60.557 154.132 59.336 151.952 56.829 149.722 53.69 148.281 50.718 147.918 47.515 148.08 38.39 148.877 35.216 148.864 32.158 148.5 26.703 147.027 20.653 144.102 16.092 140.7 13.616 138.119 10.573 134.02 6.716 126.293 2.494 116.961 1.875 114.651 2.059 111.686 2.926 109.405 5.86 105.133 9.762 102.007 11.596 101.026 14.717 99.897 17.492 99.579 25.471 99.392 37.223 99.397 46.144 99.192 48.517 99.444 51.63 100.379 54.939 102.085 57.674 104.644 79.905 135.845 83.294 138.957 87.69 140.777 90.034 140.962 93.925 140.451 96.588 139.583 100.144 136.896 102.442 134.445 104.025 131.881 105.326 128.459 105.712 125.143 105.583 121.672 104.343 117.272 97.153 106.697 95.905 104.275 95.485 101.967 95.638 99.683 97.282 96.262 100.125 93.352 105.082 90.626 107.917 89.693 110.635 89.419 244.456 88.523 247.717 88.075 248.491 87.727 250.983 86.617 253.794 84.498 256.465 81.499 257.387 79.921 258.861 76.214 259.444 73.36 259.74 71.011 259.235 61.804 259.109 57.695 259.551 54.621 261.08 51.2 262.375 49.294 264.327 47.413 266.075 46.343 268.653 45.343 271.344 44.63 273.893 43.476 275.786 42.231 277.338 40.348 278.433 38.156 279.128 36.028 279.423 33.964 279.495 30.427 278.286 11.66 278.982 9.202 280.621 6.902 282.284 5.789 284.29 4.786 291.018 2.815 297.455 1.875 301.115 1.934 304.488 2.234 319.232 4.536 338.464 7.471 342.661 8.785 347.315 10.43 353.418 14.344 359.005 18.629 362.99 22.842 367.764 30.089 371.248 38.101 372.882 44.039 373.994 51.624 375.511 71.996 376.575 98.144 376.883 113.414 376.201 119.299 374.889 125.467 373.527 129.855 372.401 132.575 368.824 139.986 366.003 144.632 360.11 152.297 355.144 156.802 352.532 159.273 348.143 162.661 339.028 168.181 329.834 171.702 320.477 173.509 315.214 174.036 307.262 174.575 232.66 174.947"   stroke-linecap="round" stroke-linejoin="round" /></svg>