<svg id="Layer_1" data-name="Layer 1" xmlns="http://www.w3.org/2000/svg" viewBox="0 0 435.935 220.832">
<style>
                    path, polyline, polygon, line, circle {
                        stroke: #a855f7 !important;
                        stroke-width: 3.5px !important;
                        fill: none !important;
                        stroke-linecap: round !important;
                        stroke-linejoin: round !important;
                        filter: drop-shadow(0px 0px 5px #a855f7) !important;
                    }
                </style><title>imsa_daytona_24h</title><path d="M466.252,209.754a77.044,77.044,0,0,0-6.054-18.045A88.576,88.576,0,0,0,449.742,173.9,70.016,70.016,0,0,0,435,159.8a101.356,101.356,0,0,0-22.586-11.815c-7.794-2.859-16.126-4.042-24.1-5.334a87.52,87.52,0,0,0-12.834-.948c-.608-.008-1.218-.009-1.822-.013-20.018-.124-104.031.948-141.544.255-6.688-.125-11.048.6-14.2,1.874a16.967,16.967,0,0,0-6.516,4.755,15.839,15.839,0,0,1-4.559,4.007c-1.977,1.029-4.964,1.8-10.227,1.776-7.117-.04-10.67-.935-12.947-2.095s-3.527-2.778-6-4.628-6.022-3.659-12.5-4.885-15.969-1.934-30.685-1.7c-6.831.107-13.752.2-20.64.963-6.121.679-12.559,1.345-18.609,3.422a120.69,120.69,0,0,0-22.47,10.684c-5.551,3.322-11.279,7.182-15.684,12.2a94.636,94.636,0,0,0-14.035,21.638,88.586,88.586,0,0,0-6.709,22.134,78.832,78.832,0,0,0-1.108,21.432,90.547,90.547,0,0,0,5.355,21.538,79.1,79.1,0,0,0,9.005,18.106c3.956,5.7,8.66,11.485,14.454,15.626,9.534,6.814,20.3,12.259,31.029,16.959C133.2,322.458,171.8,341.618,212.006,353c14.025,3.969,24.088,6.112,38.5,5.079,5.2-.373,11.856-.094,17.391-.749a143.762,143.762,0,0,0,22.854-4.745c9.5-2.745,18.551-6.669,27.7-9.837a80.647,80.647,0,0,0,20.835-11.323c7.856-6,15.029-14.273,15.575-24.706.2-3.907-1.82-7.241-4.754-9.806a36.678,36.678,0,0,0-10.91-6.11,89.563,89.563,0,0,0-21.1-5.043c-4.342-.41-7.365-2.289-10.846-4.332s-7.425-4.216-13.032-4.419c-15.2-.545-30.624.6-41.7-.383-5.537-.494-9.946-1.569-12.584-3.34s-3.773-3.952-3.233-8.068c.162-1.233.994-2.356,2.931-3.5a29.773,29.773,0,0,1,8.563-2.939c7.38-1.577,17.744-2.336,29.528-2.608,23.567-.545,52.859.778,76.481.651,1.985-.013,3.6-1.126,5.852-2.69s4.93-3.718,7.943-6.257c6.022-5.078,13.347-11.68,20.81-17.907s15.084-12.086,21.5-15.612a28.577,28.577,0,0,1,8.443-3.323c2.332-.393,3.95-.068,5.15.944,2.467,2.079,3.384,4.151,3.41,6.547s-.984,5.233-2.917,8.364c-3.866,6.262-11.309,13.5-19.6,20.847s-17.42,14.834-24.734,21.919-12.963,13.632-13.889,20.039a12.141,12.141,0,0,0,5.319,11.858c3.727,2.688,8.8,4.23,14.244,5.048,10.892,1.639,23.171.457,29.507-2.641,6.607-3.231,13.412-6.7,19.308-11.383a105.523,105.523,0,0,0,16.533-17.075c3.094-3.891,5.141-8.453,7.139-12.707,2.552-5.43,5.216-11.063,6.855-17.019a68.249,68.249,0,0,0,2.158-15.8C467.455,223.335,467.474,216.418,466.252,209.754Z" transform="translate(-33.167 -139.25)"   stroke-linecap="round" stroke-linejoin="round" /></svg>