<?xml version="1.0" encoding="utf-8"?>
<!-- Generator: Adobe Illustrator 22.0.1, SVG Export Plug-In . SVG Version: 6.00 Build 0)  -->
<svg version="1.1" id="Layer_1" xmlns="http://www.w3.org/2000/svg" xmlns:xlink="http://www.w3.org/1999/xlink" x="0px" y="0px"
	 viewBox="0 0 328 695" style="enable-background:new 0 0 328 695;" xml:space="preserve">
<style>
                    path, polyline, polygon, line, circle {
                        stroke: #3b82f6 !important;
                        stroke-width: 3.5px !important;
                        fill: none !important;
                        stroke-linecap: round !important;
                        stroke-linejoin: round !important;
                        filter: drop-shadow(0px 0px 5px #3b82f6) !important;
                    }
                </style>
<style type="text/css">
	.st0{fill:#3B82F6;stroke:#3B82F6;stroke-width:3.5;stroke-linecap:round;stroke-linejoin:round;}
	.st1{fill:none;stroke:#3B82F6;stroke-width:3.5;stroke-linecap:round;stroke-linejoin:round;}
</style>
<title>wec_le_mans_24h</title>
<path class="st0" d="M318.9,661.8c0.3-13.3-1.5-26.5-2.3-39.7c-1.5-16.4-2.1-33-4.6-49.3c-2.6-19.7-5.3-39.3-7.9-58.9
	c-0.4-4.2-1.6-8.9,1.4-12.4c3.3-4.6,7-10.6,4.6-16.5c-3.2-6.8-11.1-9.2-14.9-15.5c-0.6-6.7-2.6-13.1-3.9-19.7
	c-10.1-46.5-20.3-93.1-30.4-139.6c-1-7.1-11-6.2-13.2-12.7c-1.6-6,2.1-11.6,5.1-16.5c1.5-2.2,1.2-5,0.8-7.5
	c-7.4-47.3-14.7-94.7-22.2-142c-2.4-12.1-3.6-24.5-7.6-36.2c-8.4-26.5-14.8-53.9-27.1-78.9c-1.5-3.2-4.9-5.5-8.4-4.8
	c-8.5,1-16.7,4.1-24.4,8c-4.7,2.4-9.2,5.5-12.2,10c0.6,0.2,1.9,0.7,2.5,0.9l-2.8-0.1c-0.8,4.6-0.8,9.4-1.5,14
	c-0.2,2.8-2.1,4.8-4.4,6.3c-0.5-0.1-1.5-0.4-2-0.5c-1.4-0.3-2.8-1.1-3.8-2.2c-2.9-2.6-6.2-4.6-9.9-5.9c-3.9-0.9-7.5,1.8-10.5,3.9
	c-6,4.8-3.5,13.7-7.8,19.4c-3.8-1.5-8.4-3.9-12.1-0.9c-3.7,1.9-3.7,6.5-5.7,9.6c-1.8-0.1-3.5-0.6-5.2-0.7c-3.4,1.4-6.2,4-9.1,6.2
	C72.3,85,64.1,89,56.6,94.1c-3.6,2.5-8,3.9-10.7,7.5c-8.3,10.5-10.6,24.3-14.1,37c-3.9,14-5.7,28.5-7.2,42.9
	c-0.2,2.3-0.6,4.6-0.2,6.8c0.6,0.5,1.9,1.6,2.5,2.1l0.5-3.6c0.4,0.1,1.3,0.2,1.7,0.3c1.3-19,4.5-37.7,9.7-56
	c0.1,0.5,0.2,1.1,0.3,1.6c0.1-0.3,0.2-0.6,0.3-0.9v0c0-0.9,0.3-1.7,0.8-2.5c0-0.1,0.1-0.2,0.1-0.3c0.3-1.2,0.5-2.4,0.5-3.7
	c0-0.2,0-0.4,0.1-0.6c0.1-1.4,0.4-2.8,0.8-4.2c2-5.7,4.3-11.5,8.2-16.1c2.1-2.6,5.4-3.5,8-5.3C64.8,94.5,72.2,90.7,79,86
	c2.6-1.8,4.9-3.9,7.5-5.7c0.8-1.3,2.1-2.1,3.6-2.2c0.1-0.1,0.3-0.1,0.4-0.2c-0.1,0.1-0.1,0.1-0.2,0.2c0,0,0,0,0.1,0
	c1.2,0,2.3,0.4,3.2,1.2c1.7-0.7,3.6-1.3,4.6-3c2.2-2.5,1.5-7.2,5.1-8.4c2.2-0.1,4.1,1.3,6.2,1.8c3.1,1,6.3-1.3,7.7-4
	c2-4.1,2-8.8,3.3-13c0.9-3.2,4.3-4.7,7-5.8c1.3-0.6,2.6,0.6,3.8,1.1c3.2,1.9,6.3,4.2,9.4,6.2c2.4,1.3,5.2,1.4,7.7,0.5
	c1.9-1.6,4.3-3,5.1-5.5c2.5-5.4,1.2-11.7,2.8-17.3c1.1-2.5,3.6-4.1,5.8-5.6c7.4-4.5,15.4-7.6,23.8-9.4c2.1-0.3,5-1.2,6.1,1.3
	c11.9,23.8,18,49.9,26,75.2c1.8,6.1,4,12.2,4.9,18.6c4.9,26.6,8.7,53.4,13,80.2c4.3,27.3,8.5,54.7,12.8,82c0.5,1.8,0.2,3.8-0.9,5.3
	c-3.8,6-7.4,13.7-4.3,20.8c2.2,5.2,8,6.8,12.1,9.9c10.2,45.3,19.8,90.7,29.8,136c1.6,7.8,3.7,15.5,4.6,23.4
	c1.7,5.4,6.6,8.9,10.8,12.3c2.2,1.8,4.9,3.8,5,7c-0.2,6.7-7.4,10.7-7.3,17.5c0.3,8.4,1.9,16.6,2.8,25c2.4,18.3,5,36.7,7.4,55
	c1.7,20,3.2,40,4.8,60c0.7,7.4,0.3,14.8,0.5,22.3c0.1,3.2-0.3,6.5-1.2,9.6c-10.5-0.6-20.6-4.1-30.5-7.3c-11.2-3.2-21.6-8.9-32.1-14
	c-20.9-10.4-41-22.1-60.4-35.1c-28.2-19.4-54.1-42.1-78.8-65.8c-1.4-1.6-3.8-2.7-4-5c-0.7-6.7-1.3-13.4-1.9-20.1
	c-10.9,0.7-21.8,1.5-32.8,2.2c-1.8-19.4-3.5-38.9-8.4-57.8c-4.4-11.2-9.9-22.2-17.4-31.7c-5-6.4-14.4-5.8-19.4-12.1
	c-3.9-4.6-2.7-11.6-0.1-16.5c3.1-5.3,6.9-10.4,12.1-13.7c5-3.2,9.4-7.3,12.8-12.2c1.7-2.4,1.3-5.6,1-8.4c-0.4-3.5-0.7-7-1.8-10.4
	c-1.8-4.8-5.7-8.3-9.3-11.7c-4-3.7-7.5-7.9-12-11.2c-2.9-1.9-4.1-5.8-3.7-9.1c1.5-3,3.9-5.3,6.3-7.5c2-1.8,4.5-3.4,5.2-6.2
	c0.6-3.1,0.4-6.3,0.5-9.5c0.1-15.1,0.3-30.2,0.4-45.4c-0.1-3.9,0.1-7.7,0.6-11.6c0.2-1.4,0.5-2.7,0.7-4.1c-0.1-2.1-0.3-4.2-0.7-6.2
	c-0.1-0.3-0.1-0.7-0.1-1c-0.2,1.2-0.4,2.4-0.6,3.6c0-3.1,0.1-6.3-0.8-9.3c-0.7-2.5-2.9-3.9-4.7-5.5c1.7-2.5,2.5-5.4,0.9-8.1
	c-1.6-1.3-3.3-2.4-5-3.5c-1-1.1-2.1-2.5-1.8-4.1c0.6-7.5,0.7-15.1,1.6-22.6l0.5-0.9l-2.5,0.2c0-0.9,0-2.6,0-3.5
	c-0.7-0.1-2-0.3-2.7-0.5c-0.1,0.8-0.3,2.4-0.4,3.2c-0.8,8.2-1,16.5-1.7,24.7c-0.3,5,4.4,7.8,7.8,10.3c-1.1,1.9-2.9,3.9-2.1,6.4
	c0.7,2.6,3.7,3.2,5.2,5.2c1,3.2,0.9,6.7,1,10.1c-0.1,22.6-0.4,45.1-0.5,67.6c-0.2,1.5,0.2,3.5-1.2,4.5c-4,3.7-8.6,7.2-10.6,12.4
	c-1,4.8,0.4,9.8,3.8,13.3c6.3,4.8,11.6,10.8,17.4,16.3c5.2,4.8,5.2,12.6,5.4,19.2c-3.6,6.5-10.2,10.1-15.8,14.5
	c-6.6,6.7-13.2,15-12.6,25c-0.1,4.9,2.7,9.3,6.3,12.3c4.4,3.9,10.5,4.4,15.1,7.9c2.3,1.9,3.9,4.5,5.6,7c5.1,7.8,9.3,16.2,12.5,24.9
	c5,20,6.6,40.7,8.5,61.2c11-0.6,21.9-1.5,32.8-2.1c0.6,5.5,0.9,11,1.6,16.5c0.6,3.5,4,5.4,6.3,7.7c17.4,16.9,35.6,32.9,54.6,47.9
	c28.2,22.5,59.6,40.6,91.8,56.5c7.7,3.6,15.3,7.6,23.4,10.1c9.8,3.2,19.7,6.5,30,7.9c2.7,0.1,6.5,1,8.3-1.8
	C320,675.1,318.7,668.2,318.9,661.8z"/>
<polygon class="st1" points="25.1,177.7 29.7,178.1 26.8,213 22.2,212.6 "/>
</svg>
