<svg xmlns="http://www.w3.org/2000/svg" xmlns:xlink="http://www.w3.org/1999/xlink" id="_14-ARA" viewBox="0 0 1080 700.46"><defs><style>.cls-1,.cls-2,.cls-3{fill:none;}.cls-2{stroke:#a0a0a0;stroke-width:9.81px;}.cls-2,.cls-3{stroke-miterlimit:10;}.cls-4{fill:#444;}.cls-5{fill:#e6e6e6;}.cls-3{stroke:#606060;stroke-width:7px;}.cls-6{fill:#f6f6f6;}.cls-7{fill:#c6c6c6;font-family:MGPText-Bold, 'MGP Text';font-size:24.89px;font-weight:700;}.cls-8{clip-path:url(#clippath-17);}.cls-9{clip-path:url(#clippath-19);}.cls-10{clip-path:url(#clippath-11);}.cls-11{clip-path:url(#clippath-16);}.cls-12{clip-path:url(#clippath-18);}.cls-13{clip-path:url(#clippath-10);}.cls-14{clip-path:url(#clippath-15);}.cls-15{clip-path:url(#clippath-13);}.cls-16{clip-path:url(#clippath-14);}.cls-17{clip-path:url(#clippath-12);}.cls-18{clip-path:url(#clippath-20);}.cls-19{clip-path:url(#clippath-21);}.cls-20{clip-path:url(#clippath-22);}.cls-21{clip-path:url(#clippath-23);}.cls-22{clip-path:url(#clippath-24);}.cls-23{clip-path:url(#clippath-1);}.cls-24{clip-path:url(#clippath-3);}.cls-25{clip-path:url(#clippath-4);}.cls-26{clip-path:url(#clippath-2);}.cls-27{clip-path:url(#clippath-7);}.cls-28{clip-path:url(#clippath-6);}.cls-29{clip-path:url(#clippath-9);}.cls-30{clip-path:url(#clippath-8);}.cls-31{clip-path:url(#clippath-5);}.cls-32{fill:#323232;font-size:29.3px;}.cls-32,.cls-33{font-family:MGPDisplayVF-Medium, 'MGP Display VF';font-variation-settings:'wght' 500, 'wdth' 100;font-weight:500;}.cls-34{fill:#fafafa;}.cls-35{fill:red;}.cls-33{font-size:23.65px;}.cls-33,.cls-36{fill:#ededed;}.cls-37{letter-spacing:.02em;}.cls-38{letter-spacing:.02em;}.cls-39{clip-path:url(#clippath);}</style><clipPath id="clippath"><rect class="cls-1" y="-190.33" width="1080" height="1080"></rect></clipPath><clipPath id="clippath-1"><rect class="cls-1" y="-190.33" width="1080" height="1080"></rect></clipPath><clipPath id="clippath-2"><rect class="cls-1" y="-190.33" width="1080" height="1080"></rect></clipPath><clipPath id="clippath-3"><rect class="cls-1" y="-190.33" width="1080" height="1080"></rect></clipPath><clipPath id="clippath-4"><rect class="cls-1" y="-190.33" width="1080" height="1080"></rect></clipPath><clipPath id="clippath-5"><rect class="cls-1" y="-190.33" width="1080" height="1080"></rect></clipPath><clipPath id="clippath-6"><rect class="cls-1" y="-190.33" width="1080" height="1080"></rect></clipPath><clipPath id="clippath-7"><rect class="cls-1" y="-190.33" width="1080" height="1080"></rect></clipPath><clipPath id="clippath-8"><rect class="cls-1" y="-190.33" width="1080" height="1080"></rect></clipPath><clipPath id="clippath-9"><rect class="cls-1" y="-190.33" width="1080" height="1080"></rect></clipPath><clipPath id="clippath-10"><rect class="cls-1" y="-190.33" width="1080" height="1080"></rect></clipPath><clipPath id="clippath-11"><rect class="cls-1" y="-190.33" width="1080" height="1080"></rect></clipPath><clipPath id="clippath-12"><rect class="cls-1" y="-190.33" width="1080" height="1080"></rect></clipPath><clipPath id="clippath-13"><rect class="cls-1" y="-190.33" width="1080" height="1080"></rect></clipPath><clipPath id="clippath-14"><rect class="cls-1" y="-190.33" width="1080" height="1080"></rect></clipPath><clipPath id="clippath-15"><rect class="cls-1" y="-190.33" width="1080" height="1080"></rect></clipPath><clipPath id="clippath-16"><rect class="cls-1" y="-190.33" width="1080" height="1080"></rect></clipPath><clipPath id="clippath-17"><rect class="cls-1" y="-190.33" width="1080" height="1080"></rect></clipPath><clipPath id="clippath-18"><rect class="cls-1" y="-190.33" width="1080" height="1080"></rect></clipPath><clipPath id="clippath-19"><rect class="cls-1" y="-190.33" width="1080" height="1080"></rect></clipPath><clipPath id="clippath-20"><rect class="cls-1" y="-190.33" width="1080" height="1080"></rect></clipPath><clipPath id="clippath-21"><rect class="cls-1" y="-190.33" width="1080" height="1080"></rect></clipPath><clipPath id="clippath-22"><rect class="cls-1" y="-190.33" width="1080" height="1080"></rect></clipPath><clipPath id="clippath-23"><rect class="cls-1" y="-190.33" width="1080" height="1080"></rect></clipPath><clipPath id="clippath-24"><rect class="cls-1" y="-190.33" width="1080" height="1080"></rect></clipPath></defs><g id="_14-ARA-2"><g class="cls-39"><g class="cls-23"><path class="cls-3" d="M89.74,59.17s25.39-40.68,59.09-51.01c16.7-5.12,29.37-.92,46.56,5.4,14.1,5.18,31.7,14.96,40.58,22.28,11.1,9.15,14.14,17.59,10.36,27.55-2.86,7.53-16.28,19.38-35.99,22.86"></path></g><g class="cls-26"><path class="cls-2" d="M874.33,446.32c26.54,20.45,59.11,45.44,79.09,61.64,43.35,35.15,57.23,57.54,43.19,100.66-4.47,13.73-29.98,49.62-77.12,38.05-20.34-5-116.93-35.16-226.99-73.02-138.12-47.52-304.23-102.01-304.81-102.15-2.95-.7-14.68-5.08-4.7-25.22.17-.34,10.06-25.39,10.22-25.82,2.08-5.48,6.12-11.97-13.99-26.04-25.21-17.63-67.86-51.11-67.86-51.11,0,0-23.49-16.32-48.29-3.56-24.72,12.72-56.25,29.65-57.32,30.12-6.18,2.71-12.59,5.94-26.21-10.19-18.19-21.54-61.13-75.76-77.23-129.57-16.21-54.2-23.66-126.88-23.66-133.41,0-43.75,38.88-75.35,92.73-62.37,50.15,12.08,64.96,36.52,49.52,47.62-6.78,4.87-16.95,6.25-22.45,9.08-11.66,5.99-14.91,11.95-12.73,26.36,8.87,58.85,27.73,161.24,27.73,161.24,0,0,3.78,32.42,35.78,18.91,32.04-13.53,75.99-51.09,84.96-71.84,5.28-12.22,15.99-71.41,15.99-71.41,0,0,7.18-33.7,36.22-13.84,39.6,27.09,52.52,30.15,58.61,65.4,5.19,30.07,18.3,103.48,19.09,108.79.86,5.73,4.46,29.54,35.94,40.59,36.96,12.97,76.42,25.04,76.42,25.04,0,0,39.17,10.78,63.44-17.4,19.42-22.56,37.95-45.3,39.29-46.84,5.89-6.79,13.24-14.83,30.2-.57,11.71,9.85,66.14,51.89,129.2,102.99,10.69,8.67,21.24,16.68,35.75,27.85Z"></path></g><g class="cls-24"><path class="cls-4" d="M706.11,275.37c0,9.29-7.53,16.81-16.81,16.81s-16.81-7.53-16.81-16.81,7.53-16.81,16.81-16.81,16.81,7.53,16.81,16.81"></path></g><text class="cls-7" transform="translate(682.96 283.34)"><tspan x="0" y="0">1</tspan></text><g class="cls-25"><path class="cls-4" d="M620.65,349c0,9.29-7.53,16.81-16.81,16.81s-16.81-7.53-16.81-16.81,7.53-16.81,16.81-16.81,16.81,7.53,16.81,16.81"></path></g><text class="cls-7" transform="translate(597.49 356.97)"><tspan x="0" y="0">2</tspan></text><g class="cls-31"><path class="cls-4" d="M517.47,318.8c0,9.29-7.53,16.81-16.81,16.81s-16.81-7.53-16.81-16.81,7.53-16.81,16.81-16.81,16.81,7.53,16.81,16.81"></path></g><text class="cls-7" transform="translate(494.31 326.77)"><tspan x="0" y="0">3</tspan></text><g class="cls-28"><path class="cls-4" d="M484.67,170.1c0,9.29-7.53,16.81-16.81,16.81s-16.81-7.53-16.81-16.81,7.53-16.81,16.81-16.81,16.81,7.53,16.81,16.81"></path></g><text class="cls-7" transform="translate(461.51 178.06)"><tspan x="0" y="0">4</tspan></text><g class="cls-27"><path class="cls-4" d="M368.97,105.59c0,9.29-7.53,16.81-16.81,16.81s-16.81-7.53-16.81-16.81,7.53-16.81,16.81-16.81,16.81,7.53,16.81,16.81"></path></g><text class="cls-7" transform="translate(345.82 113.57)"><tspan x="0" y="0">5</tspan></text><g class="cls-30"><path class="cls-4" d="M319.87,207.57c0,9.29-7.53,16.81-16.81,16.81s-16.81-7.53-16.81-16.81,7.53-16.81,16.81-16.81,16.81,7.53,16.81,16.81"></path></g><text class="cls-7" transform="translate(296.72 215.54)"><tspan x="0" y="0">6</tspan></text><g class="cls-29"><path class="cls-4" d="M260.84,265.14c0,9.29-7.53,16.81-16.81,16.81s-16.81-7.53-16.81-16.81,7.53-16.81,16.81-16.81,16.81,7.53,16.81,16.81"></path></g><text class="cls-7" transform="translate(237.69 273.1)"><tspan x="0" y="0">7</tspan></text><g class="cls-13"><path class="cls-4" d="M234.83,118.11c0,9.29-7.53,16.81-16.81,16.81s-16.81-7.53-16.81-16.81,7.53-16.81,16.81-16.81,16.81,7.53,16.81,16.81"></path></g><text class="cls-7" transform="translate(211.68 126.08)"><tspan x="0" y="0">8</tspan></text><g class="cls-10"><path class="cls-4" d="M289.28,61.59c0,9.29-7.53,16.81-16.81,16.81s-16.81-7.53-16.81-16.81,7.53-16.81,16.81-16.81,16.81,7.53,16.81,16.81"></path></g><text class="cls-7" transform="translate(266.13 69.56)"><tspan x="0" y="0">9</tspan></text><g class="cls-17"><path class="cls-4" d="M94.73,24.68c0,9.29-7.53,16.81-16.81,16.81s-16.81-7.53-16.81-16.81,7.53-16.81,16.81-16.81,16.81,7.53,16.81,16.81"></path></g><text class="cls-7" transform="translate(64.94 32.65)"><tspan x="0" y="0">10</tspan></text><g class="cls-15"><path class="cls-4" d="M150.64,194.57c0,9.29-7.53,16.81-16.81,16.81s-16.81-7.53-16.81-16.81,7.53-16.81,16.81-16.81,16.81,7.53,16.81,16.81"></path></g><text class="cls-7" transform="translate(120.85 202.54)"><tspan x="0" y="0">11</tspan></text><g class="cls-16"><path class="cls-4" d="M208.59,403.54c0,9.29-7.53,16.81-16.81,16.81s-16.81-7.53-16.81-16.81,7.53-16.81,16.81-16.81,16.81,7.53,16.81,16.81"></path></g><text class="cls-7" transform="translate(178.8 411.51)"><tspan x="0" y="0">12</tspan></text><g class="cls-14"><path class="cls-4" d="M298.83,366.9c0,9.29-7.53,16.81-16.81,16.81s-16.81-7.53-16.81-16.81,7.53-16.81,16.81-16.81,16.81,7.53,16.81,16.81"></path></g><text class="cls-7" transform="translate(269.04 374.87)"><tspan x="0" y="0">13</tspan></text><g class="cls-11"><path class="cls-4" d="M376.13,419.17c0,9.29-7.53,16.81-16.81,16.81s-16.81-7.53-16.81-16.81,7.53-16.81,16.81-16.81,16.81,7.53,16.81,16.81"></path></g><text class="cls-7" transform="translate(346.35 427.14)"><tspan x="0" y="0">14</tspan></text><g class="cls-8"><path class="cls-4" d="M434.27,446.33c0,9.29-7.53,16.81-16.81,16.81s-16.81-7.53-16.81-16.81,7.53-16.81,16.81-16.81,16.81,7.53,16.81,16.81"></path></g><text class="cls-7" transform="translate(404.48 454.3)"><tspan x="0" y="0">15</tspan></text><g class="cls-12"><path class="cls-4" d="M968.68,680.02c0,9.29-7.53,16.81-16.81,16.81s-16.81-7.53-16.81-16.81,7.53-16.81,16.81-16.81,16.81,7.53,16.81,16.81"></path></g><text class="cls-7" transform="translate(938.89 687.99)"><tspan x="0" y="0">16</tspan></text><g class="cls-9"><path class="cls-4" d="M1017.97,507.82c0,9.29-7.53,16.81-16.81,16.81s-16.81-7.53-16.81-16.81,7.53-16.81,16.81-16.81,16.81,7.53,16.81,16.81"></path></g><text class="cls-7" transform="translate(988.18 515.78)"><tspan x="0" y="0">17</tspan></text><line class="cls-36" x1="890.36" y1="426.33" x2="864.59" y2="458.75"></line><rect class="cls-5" x="856.76" y="440.83" width="41.42" height="3.43" transform="translate(-14.9 854.22) rotate(-51.53)"></rect><g class="cls-18"><path class="cls-35" d="M937.29,392.69h-51.95c-.06.06-.1.1-.16.16v41.18h52.11v-41.34Z"></path></g><text class="cls-33" transform="translate(898.46 422.06)"><tspan class="cls-37" x="0" y="0">f</tspan><tspan x="18.24" y="0">l</tspan></text><g class="cls-19"><rect class="cls-34" x="889.33" y="406.46" width="4.15" height="27.56"></rect><rect x="889.33" y="411.06" width="4.15" height="4.59"></rect><rect x="889.33" y="420.24" width="4.15" height="4.59"></rect><rect x="889.33" y="429.43" width="4.15" height="4.59"></rect><rect class="cls-34" x="885.19" y="406.46" width="4.15" height="27.56"></rect><rect x="885.19" y="406.46" width="4.15" height="4.59"></rect><rect x="885.19" y="415.65" width="4.15" height="4.59"></rect><rect x="885.19" y="424.83" width="4.15" height="4.59"></rect><rect class="cls-34" x="889.33" y="392.69" width="4.15" height="13.78"></rect><rect x="889.33" y="392.69" width="4.15" height="4.59"></rect><rect x="889.33" y="401.87" width="4.15" height="4.59"></rect><rect class="cls-34" x="885.19" y="392.69" width="4.15" height="13.78"></rect><rect x="885.19" y="397.28" width="4.15" height="4.59"></rect><rect class="cls-5" x="339.15" y="217.08" width="3.43" height="54.56" transform="translate(-53.34 387.56) rotate(-55.6)"></rect><path class="cls-35" d="M405.25,233.54h-47.97c-.06.06-.09.1-.14.16v41.43h48.11v-41.58Z"></path></g><text class="cls-33" transform="translate(364.22 263.55)"><tspan class="cls-38" x="0" y="0">i</tspan><tspan x="17.79" y="0">1</tspan></text><g class="cls-20"><rect class="cls-5" x="362.21" y="491.17" width="60.63" height="3.43" transform="translate(-198.75 710.61) rotate(-71.68)"></rect><path class="cls-35" d="M409.55,493.94h-51.74c-.06.06-.09.1-.15.16v42.4h51.9v-42.57Z"></path></g><text class="cls-33" transform="translate(364.7 523.96)"><tspan class="cls-38" x="0" y="0">i</tspan><tspan x="17.79" y="0">3</tspan></text><g class="cls-21"><rect class="cls-5" x="83.52" y="288.32" width="57.75" height="3.43" transform="translate(-107.7 70.24) rotate(-23.86)"></rect><path class="cls-35" d="M112.39,277.18h-47.99c-.06.06-.09.09-.14.14v37.53h48.13v-37.68Z"></path></g><text class="cls-33" transform="translate(69.49 304.99)"><tspan class="cls-38" x="0" y="0">i</tspan><tspan x="17.79" y="0">2</tspan></text><g class="cls-22"><rect class="cls-36" x="705.64" y="591.38" width="44.52" height="3.43" transform="translate(-89.61 1054.92) rotate(-68.64)"></rect><path class="cls-6" d="M741.02,599h-40.78c-.05.05-.07.08-.12.13v34.93h40.9v-35.06Z"></path></g><text class="cls-32" transform="translate(709.96 627.68)"><tspan x="0" y="0">s</tspan></text></g></g></svg>