<svg xmlns="http://www.w3.org/2000/svg" xmlns:xlink="http://www.w3.org/1999/xlink" id="_19-AUS" viewBox="0 0 1080 533.21"><defs><style>.cls-1,.cls-2,.cls-3{fill:none;}.cls-2{stroke:#a0a0a0;stroke-width:9.76px;}.cls-2,.cls-3{stroke-miterlimit:10;}.cls-4{fill:#444;}.cls-5{fill:#e6e6e6;}.cls-3{stroke:#606060;stroke-width:6.9px;}.cls-6{fill:#f6f6f6;}.cls-7{fill:#c6c6c6;font-family:MGPText-Bold, 'MGP Text';font-size:24.9px;font-weight:700;}.cls-8{clip-path:url(#clippath-17);}.cls-9{clip-path:url(#clippath-19);}.cls-10{clip-path:url(#clippath-11);}.cls-11{clip-path:url(#clippath-16);}.cls-12{clip-path:url(#clippath-18);}.cls-13{clip-path:url(#clippath-10);}.cls-14{clip-path:url(#clippath-15);}.cls-15{clip-path:url(#clippath-13);}.cls-16{clip-path:url(#clippath-14);}.cls-17{clip-path:url(#clippath-12);}.cls-18{clip-path:url(#clippath-1);}.cls-19{clip-path:url(#clippath-3);}.cls-20{clip-path:url(#clippath-4);}.cls-21{clip-path:url(#clippath-2);}.cls-22{clip-path:url(#clippath-7);}.cls-23{clip-path:url(#clippath-6);}.cls-24{clip-path:url(#clippath-9);}.cls-25{clip-path:url(#clippath-8);}.cls-26{clip-path:url(#clippath-5);}.cls-27{fill:#323232;font-size:30.13px;}.cls-27,.cls-28{font-family:MGPDisplayVF-Medium, 'MGP Display VF';font-variation-settings:'wght' 500, 'wdth' 100;font-weight:500;}.cls-29{fill:#fafafa;}.cls-28{font-size:24.32px;}.cls-28,.cls-30{fill:#ededed;}.cls-31{fill:red;}.cls-32{letter-spacing:.03em;}.cls-33{letter-spacing:.02em;}.cls-34{clip-path:url(#clippath);}</style><clipPath id="clippath"><rect class="cls-1" y="-273.11" width="1080" height="1080"></rect></clipPath><clipPath id="clippath-1"><rect class="cls-1" y="-273.11" width="1080" height="1080"></rect></clipPath><clipPath id="clippath-2"><rect class="cls-1" y="-273.11" width="1080" height="1080"></rect></clipPath><clipPath id="clippath-3"><rect class="cls-1" y="-273.11" width="1080" height="1080"></rect></clipPath><clipPath id="clippath-4"><rect class="cls-1" y="-273.11" width="1080" height="1080"></rect></clipPath><clipPath id="clippath-5"><rect class="cls-1" y="-273.11" width="1080" height="1080"></rect></clipPath><clipPath id="clippath-6"><rect class="cls-1" y="-273.11" width="1080" height="1080"></rect></clipPath><clipPath id="clippath-7"><rect class="cls-1" y="-273.11" width="1080" height="1080"></rect></clipPath><clipPath id="clippath-8"><rect class="cls-1" y="-273.11" width="1080" height="1080"></rect></clipPath><clipPath id="clippath-9"><rect class="cls-1" y="-273.11" width="1080" height="1080"></rect></clipPath><clipPath id="clippath-10"><rect class="cls-1" y="-273.11" width="1080" height="1080"></rect></clipPath><clipPath id="clippath-11"><rect class="cls-1" y="-273.11" width="1080" height="1080"></rect></clipPath><clipPath id="clippath-12"><rect class="cls-1" y="-273.11" width="1080" height="1080"></rect></clipPath><clipPath id="clippath-13"><rect class="cls-1" y="-273.11" width="1080" height="1080"></rect></clipPath><clipPath id="clippath-14"><rect class="cls-1" y="-273.11" width="1080" height="1080"></rect></clipPath><clipPath id="clippath-15"><rect class="cls-1" y="-273.11" width="1080" height="1080"></rect></clipPath><clipPath id="clippath-16"><rect class="cls-1" y="-273.11" width="1080" height="1080"></rect></clipPath><clipPath id="clippath-17"><rect class="cls-1" y="-273.11" width="1080" height="1080"></rect></clipPath><clipPath id="clippath-18"><rect class="cls-1" y="-273.11" width="1080" height="1080"></rect></clipPath><clipPath id="clippath-19"><rect class="cls-1" y="-273.11" width="1080" height="1080"></rect></clipPath></defs><g id="_19-AUS-2"><g class="cls-34"><g class="cls-18"><path class="cls-3" d="M629.16,210.69c-27.03,10.17-44.96,24.96-58.37,27.9-22.57,4.96-38.48-25.42-21.37-41.72,18.12-17.27,56.66-35.48,56.66-35.48"></path></g><g class="cls-21"><path class="cls-2" d="M447.59,401.48l-27.81,11.51c-94,38.97-214.39,101.58-277.45,72.29-38.4-17.84-49.82-60.1-56.15-94.11,0,0-11.96-71.83,5.54-102.81,19-33.64,55.97-28.02,72.08-17.69,33.36,21.39,46.56,2.45,39.44-16.53-4-10.67-31.62-78.95-14.15-120.06,16.24-38.19,66.05-55.13,118.66-33.06,23.69,9.94,69.89,32.31,114.51,28.29,33.76-3.04,76.61-39.83,119.6-56.14,28.97-10.99,83.4-13.63,101.85-14.15,15.83-.45,45.66,3.61,50.61,28.47,4.54,22.77-4.12,38.78-53.96,58.1-49.15,19.05-70.33,46.98-65.95,59.54,4.11,11.81,14.57,16.05,39.09,8.94,24.52-7.12,117.32-45.33,183.46-23.88,24.31,7.88,65.92,37.86,100.09,63.8,16.89,12.83,68.26,53.56,74.6,59.42,46.68,43.15,33.89,84.71,2.03,105.87-29.11,19.33-53.83,5.03-69.1-7.43-16.16-13.18-40.61-55.31-66.72-88.98-16.86-21.74-54.97-56.66-134.85-25.82-14.86,5.74-40.03,15.86-71.15,28.54-18.73,7.63-39.61,16.18-61.7,25.26-15.98,6.57-32.58,13.41-49.47,20.37l-73.13,30.25Z"></path></g><g class="cls-19"><path class="cls-4" d="M789.57,318.44c0,9.29-7.53,16.82-16.82,16.82s-16.82-7.53-16.82-16.82,7.53-16.82,16.82-16.82,16.82,7.53,16.82,16.82"></path></g><text class="cls-7" transform="translate(766.41 326.41)"><tspan x="0" y="0">1</tspan></text><g class="cls-20"><path class="cls-4" d="M1044.61,406.71c0,9.29-7.53,16.82-16.82,16.82s-16.82-7.53-16.82-16.82,7.53-16.82,16.82-16.82,16.82,7.53,16.82,16.82"></path></g><text class="cls-7" transform="translate(1021.45 414.68)"><tspan x="0" y="0">2</tspan></text><g class="cls-26"><path class="cls-4" d="M795.39,153.46c0,9.29-7.53,16.82-16.82,16.82s-16.82-7.53-16.82-16.82,7.53-16.82,16.82-16.82,16.82,7.53,16.82,16.82"></path></g><text class="cls-7" transform="translate(772.22 161.43)"><tspan x="0" y="0">3</tspan></text><g class="cls-23"><path class="cls-4" d="M539.02,243.18c0,9.29-7.53,16.82-16.82,16.82s-16.82-7.53-16.82-16.82,7.53-16.82,16.82-16.82,16.82,7.53,16.82,16.82"></path></g><text class="cls-7" transform="translate(515.86 251.15)"><tspan x="0" y="0">4</tspan></text><g class="cls-22"><path class="cls-4" d="M628.06,121.97c0,9.29-7.53,16.82-16.82,16.82s-16.82-7.53-16.82-16.82,7.53-16.82,16.82-16.82,16.82,7.53,16.82,16.82"></path></g><text class="cls-7" transform="translate(604.89 129.95)"><tspan x="0" y="0">5</tspan></text><g class="cls-25"><path class="cls-4" d="M743.76,97.02c0,9.29-7.53,16.82-16.82,16.82s-16.82-7.53-16.82-16.82,7.53-16.82,16.82-16.82,16.82,7.53,16.82,16.82"></path></g><text class="cls-7" transform="translate(720.59 104.99)"><tspan x="0" y="0">6</tspan></text><g class="cls-24"><path class="cls-4" d="M556.43,39.2c0,9.29-7.53,16.82-16.82,16.82s-16.82-7.53-16.82-16.82,7.53-16.82,16.82-16.82,16.82,7.53,16.82,16.82"></path></g><text class="cls-7" transform="translate(533.27 47.17)"><tspan x="0" y="0">7</tspan></text><g class="cls-13"><path class="cls-4" d="M446.05,93.58c0,9.29-7.53,16.82-16.82,16.82s-16.82-7.53-16.82-16.82,7.53-16.82,16.82-16.82,16.82,7.53,16.82,16.82"></path></g><text class="cls-7" transform="translate(422.88 101.55)"><tspan x="0" y="0">8</tspan></text><g class="cls-10"><path class="cls-4" d="M200.59,83.45c0,9.29-7.53,16.82-16.82,16.82s-16.82-7.53-16.82-16.82,7.53-16.82,16.82-16.82,16.82,7.53,16.82,16.82"></path></g><text class="cls-7" transform="translate(177.42 91.42)"><tspan x="0" y="0">9</tspan></text><g class="cls-17"><path class="cls-4" d="M240.9,294.58c0,9.29-7.53,16.82-16.82,16.82s-16.82-7.53-16.82-16.82,7.53-16.82,16.82-16.82,16.82,7.53,16.82,16.82"></path></g><text class="cls-7" transform="translate(211.09 302.55)"><tspan x="0" y="0">10</tspan></text><g class="cls-15"><path class="cls-4" d="M87.02,247.17c0,9.29-7.53,16.82-16.82,16.82s-16.82-7.53-16.82-16.82,7.53-16.82,16.82-16.82,16.82,7.53,16.82,16.82"></path></g><text class="cls-7" transform="translate(57.22 255.14)"><tspan x="0" y="0">11</tspan></text><g class="cls-16"><path class="cls-4" d="M140.81,515.52c0,9.29-7.53,16.82-16.82,16.82s-16.82-7.53-16.82-16.82,7.53-16.82,16.82-16.82,16.82,7.53,16.82,16.82"></path></g><text class="cls-7" transform="translate(111.01 523.49)"><tspan x="0" y="0">12</tspan></text><rect class="cls-30" x="603.85" y="321.88" width="3.53" height="45.77" transform="translate(-88.08 278.27) rotate(-24.18)"></rect><g class="cls-14"><path class="cls-6" d="M629.47,352.54h-41.92c-.05.05-.08.08-.12.14v35.91h42.05v-36.04Z"></path></g><text class="cls-27" transform="translate(597.54 382.02)"><tspan x="0" y="0">s</tspan></text><g class="cls-11"><line class="cls-30" x1="462.88" y1="425.13" x2="442.04" y2="388"></line><rect class="cls-5" x="450.7" y="385.27" width="3.53" height="42.58" transform="translate(-141.11 273.55) rotate(-29.31)"></rect><path class="cls-31" d="M481.26,419.78h-53.41c-.06.06-.1.1-.16.16v42.33h53.57v-42.5Z"></path></g><text class="cls-28" transform="translate(441.34 449.98)"><tspan class="cls-32" x="0" y="0">f</tspan><tspan x="18.75" y="0">l</tspan></text><g class="cls-8"><rect class="cls-29" x="431.95" y="433.94" width="4.26" height="28.33"></rect><rect x="431.95" y="438.67" width="4.26" height="4.72"></rect><rect x="431.95" y="448.11" width="4.26" height="4.72"></rect><rect x="431.95" y="457.55" width="4.26" height="4.72"></rect><rect class="cls-29" x="427.69" y="433.94" width="4.26" height="28.33"></rect><rect x="427.69" y="433.94" width="4.26" height="4.72"></rect><rect x="427.69" y="443.39" width="4.26" height="4.72"></rect><rect x="427.69" y="452.83" width="4.26" height="4.72"></rect><rect class="cls-29" x="431.95" y="419.78" width="4.26" height="14.17"></rect><rect x="431.95" y="419.78" width="4.26" height="4.72"></rect><rect x="431.95" y="429.22" width="4.26" height="4.72"></rect><rect class="cls-29" x="427.69" y="419.78" width="4.26" height="14.17"></rect><rect x="427.69" y="424.5" width="4.26" height="4.72"></rect><rect class="cls-5" x="165.78" y="121.76" width="3.53" height="62.34" transform="translate(-7.94 296.68) rotate(-81.71)"></rect><path class="cls-31" d="M148.77,128.45h-53.19c-.06.06-.1.1-.16.17v43.59h53.35v-43.76Z"></path></g><text class="cls-28" transform="translate(102.65 159.31)"><tspan class="cls-33" x="0" y="0">i</tspan><tspan x="18.29" y="0">3</tspan></text><g class="cls-12"><rect class="cls-5" x="615.14" y="17.51" width="3.53" height="59.37" transform="translate(-1.76 39.76) rotate(-3.69)"></rect><path class="cls-31" d="M645.63,1.46h-49.34l-.15.15v38.59h49.48V1.46Z"></path></g><text class="cls-28" transform="translate(601.52 30.05)"><tspan class="cls-33" x="0" y="0">i</tspan><tspan x="18.29" y="0">2</tspan></text><g class="cls-9"><rect class="cls-5" x="885.39" y="249.7" width="56.09" height="3.53" transform="translate(138.2 796.08) rotate(-50.48)"></rect><path class="cls-31" d="M967.6,209.1h-49.31c-.06.06-.09.1-.15.16v42.59h49.46v-42.75Z"></path></g><text class="cls-28" transform="translate(925.42 239.95)"><tspan class="cls-33" x="0" y="0">i</tspan><tspan x="18.29" y="0">1</tspan></text></g></g></svg>