<svg xmlns="http://www.w3.org/2000/svg" xmlns:xlink="http://www.w3.org/1999/xlink" id="_16-AUT" viewBox="0 0 1080 632.32"><defs><style>.cls-1,.cls-2,.cls-3{fill:none;}.cls-2{stroke:#a0a0a0;stroke-width:9.95px;}.cls-2,.cls-3{stroke-miterlimit:10;}.cls-4{fill:#444;}.cls-5{font-size:25.24px;}.cls-5,.cls-6{fill:#c6c6c6;font-family:MGPText-Bold, 'MGP Text';font-weight:700;}.cls-6{font-size:22.88px;}.cls-7{fill:#e6e6e6;}.cls-3{stroke:#606060;stroke-width:7px;}.cls-8{fill:#f6f6f6;}.cls-9{clip-path:url(#clippath-17);}.cls-10{clip-path:url(#clippath-11);}.cls-11{clip-path:url(#clippath-16);}.cls-12{clip-path:url(#clippath-18);}.cls-13{clip-path:url(#clippath-10);}.cls-14{clip-path:url(#clippath-15);}.cls-15{clip-path:url(#clippath-13);}.cls-16{clip-path:url(#clippath-14);}.cls-17{clip-path:url(#clippath-12);}.cls-18{clip-path:url(#clippath-1);}.cls-19{clip-path:url(#clippath-3);}.cls-20{clip-path:url(#clippath-4);}.cls-21{clip-path:url(#clippath-2);}.cls-22{clip-path:url(#clippath-7);}.cls-23{clip-path:url(#clippath-6);}.cls-24{clip-path:url(#clippath-9);}.cls-25{clip-path:url(#clippath-8);}.cls-26{clip-path:url(#clippath-5);}.cls-27{letter-spacing:0em;}.cls-28{fill:#fafafa;}.cls-29{fill:red;}.cls-30{font-size:24.53px;}.cls-30,.cls-31{font-family:MGPDisplayVF-Medium, 'MGP Display VF';font-variation-settings:'wght' 500, 'wdth' 100;font-weight:500;}.cls-30,.cls-32{fill:#ededed;}.cls-31{fill:#323232;font-size:30.39px;}.cls-33{letter-spacing:.03em;}.cls-34{letter-spacing:.02em;}.cls-35{clip-path:url(#clippath);}</style><clipPath id="clippath"><rect class="cls-1" y="-224.12" width="1080" height="1080"></rect></clipPath><clipPath id="clippath-1"><rect class="cls-1" y="-224.12" width="1080" height="1080"></rect></clipPath><clipPath id="clippath-2"><rect class="cls-1" y="-224.12" width="1080" height="1080"></rect></clipPath><clipPath id="clippath-3"><rect class="cls-1" y="-224.12" width="1080" height="1080"></rect></clipPath><clipPath id="clippath-4"><rect class="cls-1" y="-224.12" width="1080" height="1080"></rect></clipPath><clipPath id="clippath-5"><rect class="cls-1" y="-224.12" width="1080" height="1080"></rect></clipPath><clipPath id="clippath-6"><rect class="cls-1" y="-224.12" width="1080" height="1080"></rect></clipPath><clipPath id="clippath-7"><rect class="cls-1" y="-224.12" width="1080" height="1080"></rect></clipPath><clipPath id="clippath-8"><rect class="cls-1" y="-224.12" width="1080" height="1080"></rect></clipPath><clipPath id="clippath-9"><rect class="cls-1" y="-224.12" width="1080" height="1080"></rect></clipPath><clipPath id="clippath-10"><rect class="cls-1" y="-224.12" width="1080" height="1080"></rect></clipPath><clipPath id="clippath-11"><rect class="cls-1" y="-224.12" width="1080" height="1080"></rect></clipPath><clipPath id="clippath-12"><rect class="cls-1" y="-224.12" width="1080" height="1080"></rect></clipPath><clipPath id="clippath-13"><rect class="cls-1" y="-224.12" width="1080" height="1080"></rect></clipPath><clipPath id="clippath-14"><rect class="cls-1" y="-224.12" width="1080" height="1080"></rect></clipPath><clipPath id="clippath-15"><rect class="cls-1" y="-224.12" width="1080" height="1080"></rect></clipPath><clipPath id="clippath-16"><rect class="cls-1" y="-224.12" width="1080" height="1080"></rect></clipPath><clipPath id="clippath-17"><rect class="cls-1" y="-224.12" width="1080" height="1080"></rect></clipPath><clipPath id="clippath-18"><rect class="cls-1" y="-224.12" width="1080" height="1080"></rect></clipPath></defs><g id="_16-AUT-2"><g class="cls-35"><g class="cls-18"><path class="cls-3" d="M390.3,477.02c19.7,25.54,25.72,46.66,26.2,70.57.49,24.47-7.2,36.34,2.36,49.25,9.56,12.91,25.86-.47,80.1-16.47"></path></g><g class="cls-21"><path class="cls-2" d="M788.48,494.21c-52.07,15.11-101.76,29.33-101.76,29.33l-188.29,55.55s-17.56,6.25-25.33,6.19c-7.12-.06-10.91-5.57-14.72-13.65-11.02-23.35-52.54-76.47-64.16-90.64-6.46-7.88-29.59-39.23-49.83-69.23-16.16-23.95-29.97-47.3-34.86-55.78-17.8-30.91-41.58-62.55-50.82-72.64-8.57-9.37-8.21-8.09-2.95-21.59,5.27-13.5,10.55-24.79,11.49-27.91,1.56-5.19,2.67-6.89-5.82-15.29-10.61-10.51-76.33-80.08-84.34-87.81S90.54,49.21,82.56,41.69c-2.7-2.54-4.8-4.6-7.16-7.48-5.07-6.18-1.43-16.77,13.82-19.05,23.36-3.49,86.67-12.71,150.59-6.31,60.71,6.07,138.02,21.39,176.77,28.04,38.75,6.65,85.41,13.57,146.51,13.89,61.1.33,75.24.27,81.42.91,11.85,1.23,32.88,14.95,18.02,37.17-15.64,23.38-21.57,30.85-33.96,42.19-6.65,6.1-23.23,19.07-46.44,27.58-19.99,7.33-44.85,11.46-73.52,7.23-61.97-9.14-66.34-9.66-81.19-11.61-5.48-.72-17.82-2.8-28.33-3.82-19.71-1.91-42.75,2.24-55.98,23.11-23.4,36.93-4.68,59.85,12.33,90.09,17.01,30.24,27.89,47.44,37.84,63.98,9.95,16.54,23.28,27.33,41.3,29.51,18.02,2.18,42.85-3.17,63.14-33.19,11.35-16.8,24.11-29.56,40.92-39.21,17.59-10.09,39.66-16.73,71.47-18.98,25.94-1.83,268.86-11.12,288.13-11.96,33.05-1.44,61.7-6.09,77.87,44.21,16.16,50.31,23.29,74.86,25.97,83,6,18.22,6.43,27.05-23.58,45.19-31.82,19.24-51.83,27.18-111.67,45.03-21.97,6.55-50.5,14.89-78.35,22.97Z"></path></g><g class="cls-19"><path class="cls-4" d="M506.7,614.09c0,9.41-7.63,17.05-17.05,17.05s-17.05-7.63-17.05-17.05,7.63-17.05,17.05-17.05,17.05,7.63,17.05,17.05"></path></g><text class="cls-5" transform="translate(483.21 622.17)"><tspan x="0" y="0">1</tspan></text><g class="cls-20"><path class="cls-4" d="M240.88,287.57c0,9.41-7.63,17.05-17.05,17.05s-17.05-7.63-17.05-17.05,7.63-17.05,17.05-17.05,17.05,7.63,17.05,17.05"></path></g><text class="cls-5" transform="translate(211.87 295.64)"><tspan x="0" y="0">2</tspan></text><text class="cls-6" transform="translate(225.32 295.64)"><tspan x="0" y="0">a</tspan></text><g class="cls-26"><path class="cls-4" d="M315.68,214.28c0,9.41-7.63,17.05-17.05,17.05s-17.05-7.63-17.05-17.05,7.63-17.05,17.05-17.05,17.05,7.63,17.05,17.05"></path></g><text class="cls-5" transform="translate(285.84 222.36)"><tspan x="0" y="0">2</tspan></text><text class="cls-6" transform="translate(299.3 222.36)"><tspan x="0" y="0">b</tspan></text><g class="cls-23"><path class="cls-4" d="M58.97,24.37c0,9.41-7.63,17.05-17.05,17.05s-17.05-7.63-17.05-17.05,7.63-17.05,17.05-17.05,17.05,7.63,17.05,17.05"></path></g><text class="cls-5" transform="translate(35.48 32.45)"><tspan x="0" y="0">3</tspan></text><g class="cls-22"><path class="cls-4" d="M716.86,64.06c0,9.41-7.63,17.05-17.05,17.05s-17.05-7.63-17.05-17.05,7.63-17.05,17.05-17.05,17.05,7.63,17.05,17.05"></path></g><text class="cls-5" transform="translate(693.37 72.14)"><tspan x="0" y="0">4</tspan></text><g class="cls-25"><path class="cls-4" d="M601.52,191.07c0,9.41-7.63,17.05-17.05,17.05s-17.05-7.63-17.05-17.05,7.63-17.05,17.05-17.05,17.05,7.63,17.05,17.05"></path></g><text class="cls-5" transform="translate(578.04 199.15)"><tspan x="0" y="0">5</tspan></text><g class="cls-24"><path class="cls-4" d="M388.24,188.76c0,9.41-7.63,17.05-17.05,17.05s-17.05-7.63-17.05-17.05,7.63-17.05,17.05-17.05,17.05,7.63,17.05,17.05"></path></g><text class="cls-5" transform="translate(364.75 196.85)"><tspan x="0" y="0">6</tspan></text><g class="cls-13"><path class="cls-4" d="M464.43,323.25c0,9.41-7.63,17.05-17.05,17.05s-17.05-7.63-17.05-17.05,7.63-17.05,17.05-17.05,17.05,7.63,17.05,17.05"></path></g><text class="cls-5" transform="translate(440.95 331.34)"><tspan x="0" y="0">7</tspan></text><g class="cls-10"><path class="cls-4" d="M590.05,303.77c0,9.41-7.63,17.05-17.05,17.05s-17.05-7.63-17.05-17.05,7.63-17.05,17.05-17.05,17.05,7.63,17.05,17.05"></path></g><text class="cls-5" transform="translate(566.57 311.85)"><tspan x="0" y="0">8</tspan></text><g class="cls-17"><path class="cls-4" d="M992.78,237.41c0,9.41-7.63,17.05-17.05,17.05s-17.05-7.63-17.05-17.05,7.63-17.05,17.05-17.05,17.05,7.63,17.05,17.05"></path></g><text class="cls-5" transform="translate(969.31 245.49)"><tspan x="0" y="0">9</tspan></text><g class="cls-15"><path class="cls-4" d="M1055.12,399.68c0,9.41-7.63,17.05-17.05,17.05s-17.05-7.63-17.05-17.05,7.63-17.05,17.05-17.05,17.05,7.63,17.05,17.05"></path></g><text class="cls-5" transform="translate(1024.92 407.76)"><tspan x="0" y="0">10</tspan></text><rect class="cls-32" x="628.32" y="526.64" width="3.56" height="46.17" transform="translate(-141.76 228.08) rotate(-18.48)"></rect><g class="cls-16"><path class="cls-8" d="M656.08,562.55h-42.29c-.05.05-.08.08-.13.14v36.22h42.42v-36.36Z"></path></g><text class="cls-31" transform="translate(623.88 592.29)"><tspan x="0" y="0">s</tspan></text><g class="cls-14"><line class="cls-32" x1="796.97" y1="520.07" x2="785.07" y2="478.79"></line><rect class="cls-7" x="789.24" y="477.95" width="3.56" height="42.96" transform="translate(-107.43 238.78) rotate(-16.09)"></rect><path class="cls-29" d="M819.8,512.32h-53.88c-.06.06-.1.1-.16.16v42.71h54.04v-42.87Z"></path></g><text class="cls-30" transform="translate(779.53 542.78)"><tspan class="cls-33" x="0" y="0">f</tspan><tspan class="cls-27" x="18.91" y="0">l</tspan></text><g class="cls-11"><rect class="cls-28" x="770.06" y="526.61" width="4.3" height="28.58"></rect><rect x="770.06" y="531.37" width="4.3" height="4.76"></rect><rect x="770.06" y="540.9" width="4.3" height="4.76"></rect><rect x="770.06" y="550.42" width="4.3" height="4.76"></rect><rect class="cls-28" x="765.76" y="526.61" width="4.3" height="28.58"></rect><rect x="765.76" y="526.61" width="4.3" height="4.76"></rect><rect x="765.76" y="536.13" width="4.3" height="4.76"></rect><rect x="765.76" y="545.66" width="4.3" height="4.76"></rect><rect class="cls-28" x="770.06" y="512.32" width="4.3" height="14.29"></rect><rect x="770.06" y="512.32" width="4.3" height="4.76"></rect><rect x="770.06" y="521.84" width="4.3" height="4.76"></rect><rect class="cls-28" x="765.76" y="512.32" width="4.3" height="14.29"></rect><rect x="765.76" y="517.08" width="4.3" height="4.76"></rect><rect class="cls-7" x="702.49" y="212.25" width="3.56" height="62.88" transform="translate(-2.43 7.14) rotate(-.58)"></rect><path class="cls-29" d="M738.37,193.02h-53.66c-.06.07-.1.1-.16.17v43.98h53.82v-44.14Z"></path></g><text class="cls-30" transform="translate(691.85 224.14)"><tspan class="cls-34" x="0" y="0">i</tspan><tspan x="18.45" y="0">3</tspan></text><g class="cls-9"><rect class="cls-7" x="625.96" y="119.57" width="3.56" height="59.89" transform="translate(19.85 366.04) rotate(-33)"></rect><path class="cls-29" d="M674.52,155.09h-49.77l-.15.15v38.93h49.92v-39.07Z"></path></g><text class="cls-30" transform="translate(630.02 183.92)"><tspan class="cls-34" x="0" y="0">i</tspan><tspan x="18.45" y="0">2</tspan></text><g class="cls-12"><rect class="cls-7" x="169.75" y="173.29" width="56.58" height="3.56" transform="translate(-65.97 187.91) rotate(-44.26)"></rect><path class="cls-29" d="M192.41,172.53h-49.74c-.06.06-.09.1-.15.16v42.96h49.89v-43.12Z"></path></g><text class="cls-30" transform="translate(149.86 203.66)"><tspan class="cls-34" x="0" y="0">i</tspan><tspan x="18.45" y="0">1</tspan></text></g></g></svg>