<svg xmlns="http://www.w3.org/2000/svg" xmlns:xlink="http://www.w3.org/1999/xlink" id="_02-BRA" viewBox="0 0 1080 418.9"><defs><style>.cls-1,.cls-2,.cls-3{fill:none;}.cls-2{stroke:#a0a0a0;stroke-width:10px;}.cls-2,.cls-3{stroke-miterlimit:10;}.cls-4{fill:#444;}.cls-5{fill:#e6e6e6;}.cls-3{stroke:#606060;stroke-width:7px;}.cls-6{font-size:25.21px;}.cls-6,.cls-7{fill:#c6c6c6;font-family:MGPText-Bold, 'MGP Text';font-weight:700;}.cls-8{fill:#f6f6f6;}.cls-9{font-size:24.17px;}.cls-9,.cls-10,.cls-11{font-family:MGPDisplayVF-Medium, 'MGP Display VF';font-variation-settings:'wght' 500, 'wdth' 100;font-weight:500;}.cls-9,.cls-11,.cls-12{fill:#ededed;}.cls-7{font-size:25.07px;}.cls-10{fill:#323232;font-size:29.94px;}.cls-11{font-size:24.41px;}.cls-13{clip-path:url(#clippath-17);}.cls-14{clip-path:url(#clippath-19);}.cls-15{clip-path:url(#clippath-11);}.cls-16{clip-path:url(#clippath-16);}.cls-17{clip-path:url(#clippath-18);}.cls-18{clip-path:url(#clippath-10);}.cls-19{clip-path:url(#clippath-15);}.cls-20{clip-path:url(#clippath-13);}.cls-21{clip-path:url(#clippath-14);}.cls-22{clip-path:url(#clippath-12);}.cls-23{clip-path:url(#clippath-20);}.cls-24{clip-path:url(#clippath-21);}.cls-25{clip-path:url(#clippath-1);}.cls-26{clip-path:url(#clippath-3);}.cls-27{clip-path:url(#clippath-4);}.cls-28{clip-path:url(#clippath-2);}.cls-29{clip-path:url(#clippath-7);}.cls-30{clip-path:url(#clippath-6);}.cls-31{clip-path:url(#clippath-9);}.cls-32{clip-path:url(#clippath-8);}.cls-33{clip-path:url(#clippath-5);}.cls-34{fill:#fafafa;}.cls-35{letter-spacing:0em;}.cls-36{fill:red;}.cls-37{letter-spacing:.03em;}.cls-38{letter-spacing:.02em;}.cls-39{clip-path:url(#clippath);}</style><clipPath id="clippath"><rect class="cls-1" y="-325.48" width="1080" height="1080"></rect></clipPath><clipPath id="clippath-1"><rect class="cls-1" y="-325.48" width="1080" height="1080"></rect></clipPath><clipPath id="clippath-2"><rect class="cls-1" y="-325.48" width="1080" height="1080"></rect></clipPath><clipPath id="clippath-3"><rect class="cls-1" y="-325.48" width="1080" height="1080"></rect></clipPath><clipPath id="clippath-4"><rect class="cls-1" y="-325.48" width="1080" height="1080"></rect></clipPath><clipPath id="clippath-5"><rect class="cls-1" y="-325.48" width="1080" height="1080"></rect></clipPath><clipPath id="clippath-6"><rect class="cls-1" y="-325.48" width="1080" height="1080"></rect></clipPath><clipPath id="clippath-7"><rect class="cls-1" y="-325.48" width="1080" height="1080"></rect></clipPath><clipPath id="clippath-8"><rect class="cls-1" y="-325.48" width="1080" height="1080"></rect></clipPath><clipPath id="clippath-9"><rect class="cls-1" y="-325.48" width="1080" height="1080"></rect></clipPath><clipPath id="clippath-10"><rect class="cls-1" y="-325.48" width="1080" height="1080"></rect></clipPath><clipPath id="clippath-11"><rect class="cls-1" y="-325.48" width="1080" height="1080"></rect></clipPath><clipPath id="clippath-12"><rect class="cls-1" y="-325.48" width="1080" height="1080"></rect></clipPath><clipPath id="clippath-13"><rect class="cls-1" y="-325.48" width="1080" height="1080"></rect></clipPath><clipPath id="clippath-14"><rect class="cls-1" y="-325.48" width="1080" height="1080"></rect></clipPath><clipPath id="clippath-15"><rect class="cls-1" y="-325.48" width="1080" height="1080"></rect></clipPath><clipPath id="clippath-16"><rect class="cls-1" y="-325.48" width="1080" height="1080"></rect></clipPath><clipPath id="clippath-17"><rect class="cls-1" y="-325.48" width="1080" height="1080"></rect></clipPath><clipPath id="clippath-18"><rect class="cls-1" y="-325.48" width="1080" height="1080"></rect></clipPath><clipPath id="clippath-19"><rect class="cls-1" y="-325.48" width="1080" height="1080"></rect></clipPath><clipPath id="clippath-20"><rect class="cls-1" y="-325.48" width="1080" height="1080"></rect></clipPath><clipPath id="clippath-21"><rect class="cls-1" y="-325.48" width="1080" height="1080"></rect></clipPath></defs><g id="_02-BRA-2"><g class="cls-39"><g class="cls-25"><path class="cls-3" d="M454.68,81.75s41.35,1.68,57.71,11.7c16.36,10.02,20.97,26.8,17.09,50.53-3.1,18.96-10.93,33.63-23.38,42.55-14.05,10.07-32.51,11.52-74.67-7.34"></path></g><g class="cls-28"><path class="cls-2" d="M585.81,351.26c25.25-.04,225.8-.35,267.57,0,44.64.38,77.99,4.9,99.46-9.42,21.48-14.32,30.14-26.75,43.33-49.73,13.19-22.98,0-39.56-9.04-44.83-9.04-5.27-113.22-42.95-136.95-52.37-23.74-9.42-133.94-51.43-145.99-55.95-12.06-4.52-40.31-15.45-46.15-18.08-5.84-2.64-19.97-3.39-30.14,9.42-10.17,12.81-24.71,29.89-28.47,34.59-3.76,4.7-11.05,14.34-3.06,27.98,4.47,7.88,21.64,31.86-4,45.03-25.63,13.17-54.44,27.98-62.32,31.39s-22.93,7.05-46.68,4.94c-23.75-2.12-109.47-10.11-133.57-11.88-24.1-1.76-42.45-3.76-71.61,10.82-29.16,14.58-45.2,21.19-71.49,1.41-31.04-28.22-11.76-49.62-.47-55.73,11.29-6.11,89.36-51.73,101-58.67,11.64-6.94,35.27-17.05,56.79-8.82,21.52,8.23,68.9,27.85,84.66,33.03,15.76,5.18,47.38.71,60.32-26.21,12.93-26.93,2.23-45.86-4.11-54.09-6.35-8.23-12.58-19.16-50.21-22.34-37.63-3.17-97.47-8.58-110.52-9.64-22.57-2-26.22-2.71-47.62,9.52-21.4,12.23-126.99,72.78-150.27,85.71-23.28,12.93-47.39,28.45-55.73,51.15s-14.7,47.38-13.05,64.9c1.65,17.52,7.05,32.57,23.63,49.38,16.58,16.81,37.98,19.05,60.55,18.93,22.58-.12,122.28.24,149.8,0,27.51-.23,154.85.12,179.78-.12,21.38-.2,79.4-.31,94.56-.34Z"></path></g><g class="cls-26"><path class="cls-4" d="M91.25,354.63c0,9.4-7.62,17.02-17.02,17.02s-17.02-7.62-17.02-17.02,7.62-17.02,17.02-17.02,17.02,7.62,17.02,17.02"></path></g><text class="cls-6" transform="translate(67.8 362.7)"><tspan x="0" y="0">1</tspan></text><g class="cls-27"><path class="cls-4" d="M86.91,187.54c0,9.4-7.62,17.02-17.02,17.02s-17.02-7.62-17.02-17.02,7.62-17.02,17.02-17.02,17.02,7.62,17.02,17.02"></path></g><text class="cls-6" transform="translate(63.46 195.61)"><tspan x="0" y="0">2</tspan></text><g class="cls-33"><path class="cls-4" d="M329.8,39.25c0,9.4-7.62,17.02-17.02,17.02s-17.02-7.62-17.02-17.02,7.62-17.02,17.02-17.02,17.02,7.62,17.02,17.02"></path></g><text class="cls-6" transform="translate(306.35 47.33)"><tspan x="0" y="0">3</tspan></text><g class="cls-30"><path class="cls-4" d="M572.13,152.12c0,9.4-7.62,17.02-17.02,17.02s-17.02-7.62-17.02-17.02,7.62-17.02,17.02-17.02,17.02,7.62,17.02,17.02"></path></g><text class="cls-6" transform="translate(548.67 160.19)"><tspan x="0" y="0">4</tspan></text><g class="cls-29"><path class="cls-4" d="M362.02,184.03c0,9.4-7.62,17.02-17.02,17.02s-17.02-7.62-17.02-17.02,7.62-17.02,17.02-17.02,17.02,7.62,17.02,17.02"></path></g><text class="cls-6" transform="translate(338.57 192.1)"><tspan x="0" y="0">5</tspan></text><g class="cls-32"><path class="cls-4" d="M175.38,238.26c0,9.4-7.62,17.02-17.02,17.02s-17.03-7.62-17.03-17.02,7.62-17.02,17.03-17.02,17.02,7.62,17.02,17.02"></path></g><text class="cls-6" transform="translate(151.93 246.34)"><tspan x="0" y="0">6</tspan></text><g class="cls-31"><path class="cls-4" d="M228.64,313.04c0,9.4-7.62,17.02-17.02,17.02s-17.03-7.62-17.03-17.02,7.62-17.02,17.03-17.02,17.02,7.62,17.02,17.02"></path></g><text class="cls-6" transform="translate(205.19 321.11)"><tspan x="0" y="0">7</tspan></text><g class="cls-18"><path class="cls-4" d="M323.88,231.03c0,9.4-7.62,17.02-17.02,17.02s-17.02-7.62-17.02-17.02,7.62-17.02,17.02-17.02,17.02,7.62,17.02,17.02"></path></g><text class="cls-6" transform="translate(300.43 239.1)"><tspan x="0" y="0">8</tspan></text><g class="cls-15"><path class="cls-4" d="M519.7,242.34c0,9.4-7.62,17.02-17.02,17.02s-17.02-7.62-17.02-17.02,7.62-17.02,17.02-17.02,17.02,7.62,17.02,17.02"></path></g><text class="cls-6" transform="translate(496.25 250.41)"><tspan x="0" y="0">9</tspan></text><g class="cls-22"><path class="cls-4" d="M586.9,212.02c0,9.4-7.62,17.02-17.02,17.02s-17.02-7.62-17.02-17.02,7.62-17.02,17.02-17.02,17.02,7.62,17.02,17.02"></path></g><text class="cls-6" transform="translate(556.74 220.09)"><tspan x="0" y="0">10</tspan></text><g class="cls-20"><path class="cls-4" d="M648.15,181.03c0,9.4-7.62,17.02-17.02,17.02s-17.02-7.62-17.02-17.02,7.62-17.02,17.02-17.02,17.02,7.62,17.02,17.02"></path></g><text class="cls-6" transform="translate(617.98 189.1)"><tspan x="0" y="0">11</tspan></text><g class="cls-21"><path class="cls-4" d="M660.47,85.38c0,9.4-7.62,17.02-17.02,17.02s-17.02-7.62-17.02-17.02,7.62-17.02,17.02-17.02,17.02,7.62,17.02,17.02"></path></g><text class="cls-6" transform="translate(630.31 93.45)"><tspan x="0" y="0">12</tspan></text><g class="cls-19"><path class="cls-4" d="M1048.8,255.29c0,9.35-7.58,16.93-16.93,16.93s-16.93-7.58-16.93-16.93,7.58-16.93,16.93-16.93,16.93,7.58,16.93,16.93"></path></g><text class="cls-7" transform="translate(1018.8 263.32)"><tspan x="0" y="0">13</tspan></text><g class="cls-16"><path class="cls-4" d="M980.41,374.78c0,9.35-7.58,16.93-16.93,16.93s-16.93-7.58-16.93-16.93,7.58-16.93,16.93-16.93,16.93,7.58,16.93,16.93"></path></g><text class="cls-7" transform="translate(950.4 382.81)"><tspan x="0" y="0">14</tspan></text><path class="cls-12" d="M641.15,380.62l-.74-42.73.74,42.73Z"></path><rect class="cls-5" x="639.01" y="337.88" width="3.54" height="42.74" transform="translate(-6.19 11.26) rotate(-1)"></rect><g class="cls-13"><path class="cls-36" d="M671.33,374.41h-53.61c-.06.06-.1.1-.16.16v42.49h53.77v-42.65Z"></path></g><text class="cls-11" transform="translate(631.27 404.72)"><tspan class="cls-37" x="0" y="0">f</tspan><tspan x="18.82" y="0">l</tspan></text><g class="cls-17"><rect class="cls-34" x="621.84" y="388.63" width="4.28" height="28.43"></rect><rect x="621.84" y="393.37" width="4.28" height="4.74"></rect><rect x="621.84" y="402.84" width="4.28" height="4.74"></rect><rect x="621.84" y="412.32" width="4.28" height="4.74"></rect><rect class="cls-34" x="617.57" y="388.63" width="4.28" height="28.43"></rect><rect x="617.57" y="388.63" width="4.28" height="4.74"></rect><rect x="617.57" y="398.11" width="4.28" height="4.74"></rect><rect x="617.57" y="407.58" width="4.28" height="4.74"></rect><rect class="cls-34" x="621.84" y="374.41" width="4.28" height="14.22"></rect><rect x="621.84" y="374.41" width="4.28" height="4.74"></rect><rect x="621.84" y="383.89" width="4.28" height="4.74"></rect><rect class="cls-34" x="617.57" y="374.41" width="4.28" height="14.22"></rect><rect x="617.57" y="379.15" width="4.28" height="4.74"></rect><rect class="cls-5" x="774.13" y="158.05" width="61.96" height="3.51" transform="translate(381.03 862.58) rotate(-70.12)"></rect><path class="cls-36" d="M837.78,99.4h-52.87c-.06.06-.1.1-.16.17v43.33h53.03v-43.5Z"></path></g><text class="cls-9" transform="translate(791.94 130.08)"><tspan class="cls-38" x="0" y="0">i</tspan><tspan class="cls-35" x="18.17" y="0">3</tspan></text><g class="cls-14"><rect class="cls-5" x="253.3" y="266.78" width="3.51" height="59.01" transform="translate(-70.94 80.5) rotate(-15.78)"></rect><path class="cls-36" d="M282.21,303.96h-49.04c-.06.06-.09.09-.15.15v38.35h49.18v-38.5Z"></path></g><text class="cls-9" transform="translate(238.37 332.37)"><tspan class="cls-38" x="0" y="0">i</tspan><tspan class="cls-35" x="18.17" y="0">2</tspan></text><g class="cls-23"><polygon class="cls-5" points="439.16 33.6 435.65 95.92 432.78 95.3 436.29 32.98 439.16 33.6"></polygon><path class="cls-36" d="M461.74.76h-49.01c-.06.06-.09.1-.15.16v42.33h49.16V.76Z"></path></g><text class="cls-9" transform="translate(419.82 31.43)"><tspan class="cls-38" x="0" y="0">i</tspan><tspan class="cls-35" x="18.17" y="0">1</tspan></text><g class="cls-24"><polygon class="cls-12" points="359.17 387.83 355.62 387.63 355.58 338.5 359.13 338.7 359.17 387.83"></polygon><path class="cls-8" d="M378.97,373.88h-41.67c-.05.05-.08.08-.12.14v35.69h41.79v-35.83Z"></path></g><text class="cls-10" transform="translate(347.24 403.18)"><tspan x="0" y="0">s</tspan></text></g></g></svg>