<svg xmlns="http://www.w3.org/2000/svg" xmlns:xlink="http://www.w3.org/1999/xlink" id="_07-CAT" viewBox="0 0 1080 374.97"><defs><style>.cls-1,.cls-2,.cls-3{fill:none;}.cls-2{stroke:#a0a0a0;stroke-width:10px;}.cls-2,.cls-3{stroke-miterlimit:10;}.cls-4{fill:#444;}.cls-5{fill:#c6c6c6;font-family:MGPText-Bold, 'MGP Text';font-size:25.24px;font-weight:700;}.cls-6{fill:#e6e6e6;}.cls-3{stroke:#606060;stroke-width:7px;}.cls-7{fill:#f6f6f6;}.cls-8{font-size:24.22px;}.cls-8,.cls-9{font-family:MGPDisplayVF-Medium, 'MGP Display VF';font-variation-settings:'wght' 500, 'wdth' 100;font-weight:500;}.cls-8,.cls-10{fill:#ededed;}.cls-11{clip-path:url(#clippath-17);}.cls-12{clip-path:url(#clippath-19);}.cls-13{clip-path:url(#clippath-11);}.cls-14{clip-path:url(#clippath-16);}.cls-15{clip-path:url(#clippath-18);}.cls-16{clip-path:url(#clippath-10);}.cls-17{clip-path:url(#clippath-15);}.cls-18{clip-path:url(#clippath-13);}.cls-19{clip-path:url(#clippath-14);}.cls-20{clip-path:url(#clippath-12);}.cls-21{clip-path:url(#clippath-20);}.cls-22{clip-path:url(#clippath-21);}.cls-23{clip-path:url(#clippath-1);}.cls-24{clip-path:url(#clippath-3);}.cls-25{clip-path:url(#clippath-4);}.cls-26{clip-path:url(#clippath-2);}.cls-27{clip-path:url(#clippath-7);}.cls-28{clip-path:url(#clippath-6);}.cls-29{clip-path:url(#clippath-9);}.cls-30{clip-path:url(#clippath-8);}.cls-31{clip-path:url(#clippath-5);}.cls-9{fill:#323232;font-size:30px;}.cls-32{fill:#fafafa;}.cls-33{fill:red;}.cls-34{letter-spacing:.03em;}.cls-35{letter-spacing:.02em;}.cls-36{clip-path:url(#clippath);}</style><clipPath id="clippath"><rect class="cls-1" y="-352.51" width="1080" height="1080"></rect></clipPath><clipPath id="clippath-1"><rect class="cls-1" y="-352.51" width="1080" height="1080"></rect></clipPath><clipPath id="clippath-2"><rect class="cls-1" y="-352.51" width="1080" height="1080"></rect></clipPath><clipPath id="clippath-3"><rect class="cls-1" y="-352.51" width="1080" height="1080"></rect></clipPath><clipPath id="clippath-4"><rect class="cls-1" y="-352.51" width="1080" height="1080"></rect></clipPath><clipPath id="clippath-5"><rect class="cls-1" y="-352.51" width="1080" height="1080"></rect></clipPath><clipPath id="clippath-6"><rect class="cls-1" y="-352.51" width="1080" height="1080"></rect></clipPath><clipPath id="clippath-7"><rect class="cls-1" y="-352.51" width="1080" height="1080"></rect></clipPath><clipPath id="clippath-8"><rect class="cls-1" y="-352.51" width="1080" height="1080"></rect></clipPath><clipPath id="clippath-9"><rect class="cls-1" y="-352.51" width="1080" height="1080"></rect></clipPath><clipPath id="clippath-10"><rect class="cls-1" y="-352.51" width="1080" height="1080"></rect></clipPath><clipPath id="clippath-11"><rect class="cls-1" y="-352.51" width="1080" height="1080"></rect></clipPath><clipPath id="clippath-12"><rect class="cls-1" y="-352.51" width="1080" height="1080"></rect></clipPath><clipPath id="clippath-13"><rect class="cls-1" y="-352.51" width="1080" height="1080"></rect></clipPath><clipPath id="clippath-14"><rect class="cls-1" y="-352.51" width="1080" height="1080"></rect></clipPath><clipPath id="clippath-15"><rect class="cls-1" y="-352.51" width="1080" height="1080"></rect></clipPath><clipPath id="clippath-16"><rect class="cls-1" y="-352.51" width="1080" height="1080"></rect></clipPath><clipPath id="clippath-17"><rect class="cls-1" y="-352.51" width="1080" height="1080"></rect></clipPath><clipPath id="clippath-18"><rect class="cls-1" y="-352.51" width="1080" height="1080"></rect></clipPath><clipPath id="clippath-19"><rect class="cls-1" y="-352.51" width="1080" height="1080"></rect></clipPath><clipPath id="clippath-20"><rect class="cls-1" y="-352.51" width="1080" height="1080"></rect></clipPath><clipPath id="clippath-21"><rect class="cls-1" y="-352.51" width="1080" height="1080"></rect></clipPath></defs><g id="_07-CAT-2"><g class="cls-36"><g class="cls-23"><path class="cls-3" d="M239.6,309c-21.77,2.37-42.99,1.2-54.66-8.08-11.19-8.89-12.96-22.33-13.32-41.04-.49-25.21-41.13-32.49-64.92-49.22-10.89-7.66-25.42-23.04-28.43-58.87"></path></g><g class="cls-26"><path class="cls-2" d="M794.66,309.79c-170.41-.12-549.59-.77-565.87-.8-.29,0-.58,0-.88.02-3.13.19-27.04.77-29.53-26.5-2.91-31.84-.11-42.68-16.88-54.93-17.21-12.57-89.35-22.5-103.25-75.78-14.33-54.93,29.16-87.77,52.83-101.18,22.42-12.71,50.07-16.37,70.27-17.77,7.03-.49,149.58-.51,164.3,1.47,19.18,2.59,38.87,20.57,29.16,54.41-11.73,40.86-57.73,44.53-83.59,45.19-2.94.08-103.37.09-104.06.06-5.13-.21-22.8,3.11-24.23,21.56-1,12.92,8.83,19.81,15.19,24.63,2.4,1.82,79.83,60.01,114.26,67.3,32.59,6.91,60.73,5.96,99.33,5.14,7.06-.15,23.82-4.94,24.49-26.92.88-29.12-.18-34.85,11.03-53.54,11.21-18.68,63.71-90.96,68.83-97.8,10.16-13.59,40.79-38.57,76.11-19.19,21.4,11.73,95.61,55.97,158.09,92.31,65.04,37.84,124.18,77.08,137.92,82.75,20.85,8.6,32.68-11.8,30.61-30.11-6.12-54.11-39.21-59.57-59.75-65.79-19.68-5.96-42.17-22.24-35.88-50.07,7.3-32.27,37.05-35.04,56.74-27.59,31.03,11.73,88.03,27.95,100.27,35.74,7.22,4.59,25.82,20.14,25.82,45.47,0,37.43-1.33,110.51-1.33,110.51,0,0-1.38,58.37-58.18,60.61-9.62.38-36.58.63-74.74.79-10.49.04-38.41.04-77.08.02Z"></path></g><g class="cls-24"><path class="cls-4" d="M200.41,333.75c0,9.42-7.63,17.05-17.05,17.05s-17.05-7.63-17.05-17.05,7.63-17.05,17.05-17.05,17.05,7.63,17.05,17.05"></path></g><text class="cls-5" transform="translate(176.93 341.83)"><tspan x="0" y="0">1</tspan></text><g class="cls-25"><path class="cls-4" d="M158.03,265.67c0,9.42-7.63,17.05-17.05,17.05s-17.05-7.63-17.05-17.05,7.63-17.05,17.05-17.05,17.05,7.63,17.05,17.05"></path></g><text class="cls-5" transform="translate(134.55 273.76)"><tspan x="0" y="0">2</tspan></text><g class="cls-31"><path class="cls-4" d="M60.54,122.44c0,9.42-7.63,17.05-17.05,17.05s-17.05-7.63-17.05-17.05,7.63-17.05,17.05-17.05,17.05,7.63,17.05,17.05"></path></g><text class="cls-5" transform="translate(37.07 130.52)"><tspan x="0" y="0">3</tspan></text><g class="cls-28"><path class="cls-4" d="M442.31,44.34c0,9.42-7.63,17.05-17.05,17.05s-17.05-7.63-17.05-17.05,7.63-17.05,17.05-17.05,17.05,7.63,17.05,17.05"></path></g><text class="cls-5" transform="translate(418.84 52.42)"><tspan x="0" y="0">4</tspan></text><g class="cls-27"><path class="cls-4" d="M250.17,166.8c0,9.42-7.63,17.05-17.05,17.05s-17.05-7.63-17.05-17.05,7.63-17.05,17.05-17.05,17.05,7.63,17.05,17.05"></path></g><text class="cls-5" transform="translate(226.7 174.88)"><tspan x="0" y="0">5</tspan></text><g class="cls-30"><path class="cls-4" d="M296.04,269.85c0,9.42-7.63,17.05-17.05,17.05s-17.05-7.63-17.05-17.05,7.63-17.05,17.05-17.05,17.05,7.63,17.05,17.05"></path></g><text class="cls-5" transform="translate(272.56 277.94)"><tspan x="0" y="0">6</tspan></text><g class="cls-29"><path class="cls-4" d="M421.18,221.18c0,9.42-7.63,17.05-17.05,17.05s-17.05-7.63-17.05-17.05,7.63-17.05,17.05-17.05,17.05,7.63,17.05,17.05"></path></g><text class="cls-5" transform="translate(397.7 229.26)"><tspan x="0" y="0">7</tspan></text><g class="cls-16"><path class="cls-4" d="M487.86,198.35c0,9.42-7.63,17.05-17.05,17.05s-17.05-7.63-17.05-17.05,7.63-17.05,17.05-17.05,17.05,7.63,17.05,17.05"></path></g><text class="cls-5" transform="translate(464.38 206.43)"><tspan x="0" y="0">8</tspan></text><g class="cls-13"><path class="cls-4" d="M558.91,19.99c0,9.42-7.63,17.05-17.05,17.05s-17.05-7.63-17.05-17.05,7.63-17.05,17.05-17.05,17.05,7.63,17.05,17.05"></path></g><text class="cls-5" transform="translate(535.43 28.07)"><tspan x="0" y="0">9</tspan></text><g class="cls-20"><path class="cls-4" d="M953.8,247.14c0,9.42-7.63,17.05-17.05,17.05s-17.05-7.63-17.05-17.05,7.63-17.05,17.05-17.05,17.05,7.63,17.05,17.05"></path></g><text class="cls-5" transform="translate(923.59 255.22)"><tspan x="0" y="0">10</tspan></text><g class="cls-18"><path class="cls-4" d="M914.09,114.3c0,9.42-7.63,17.05-17.05,17.05s-17.05-7.63-17.05-17.05,7.63-17.05,17.05-17.05,17.05,7.63,17.05,17.05"></path></g><text class="cls-5" transform="translate(883.88 122.39)"><tspan x="0" y="0">11</tspan></text><g class="cls-19"><path class="cls-4" d="M807.41,80.59c0,9.42-7.63,17.05-17.05,17.05s-17.05-7.63-17.05-17.05,7.63-17.05,17.05-17.05,17.05,7.63,17.05,17.05"></path></g><text class="cls-5" transform="translate(777.2 88.67)"><tspan x="0" y="0">12</tspan></text><g class="cls-17"><path class="cls-4" d="M1043.55,96.26c0,9.42-7.63,17.05-17.05,17.05s-17.05-7.63-17.05-17.05,7.63-17.05,17.05-17.05,17.05,7.63,17.05,17.05"></path></g><text class="cls-5" transform="translate(1013.35 104.34)"><tspan x="0" y="0">13</tspan></text><g class="cls-14"><path class="cls-4" d="M1032.72,308.96c0,9.42-7.63,17.05-17.05,17.05s-17.05-7.63-17.05-17.05,7.63-17.05,17.05-17.05,17.05,7.63,17.05,17.05"></path></g><text class="cls-5" transform="translate(1002.51 317.05)"><tspan x="0" y="0">14</tspan></text><path class="cls-10" d="M793.98,338.2l.44-42.41-.44,42.41Z"></path><rect class="cls-6" x="773" y="315.24" width="42.41" height="3.52" transform="translate(469.09 1107.9) rotate(-89.41)"></rect><g class="cls-11"><path class="cls-33" d="M822.62,329.72h-53.19c-.06.06-.1.1-.16.16v42.16h53.35v-42.32Z"></path></g><text class="cls-8" transform="translate(782.86 359.8)"><tspan class="cls-34" x="0" y="0">f</tspan><tspan x="18.67" y="0">l</tspan></text><g class="cls-15"><rect class="cls-32" x="773.51" y="343.82" width="4.24" height="28.21"></rect><rect x="773.51" y="348.53" width="4.24" height="4.7"></rect><rect x="773.51" y="357.93" width="4.24" height="4.7"></rect><rect x="773.51" y="367.33" width="4.24" height="4.7"></rect><rect class="cls-32" x="769.27" y="343.82" width="4.24" height="28.21"></rect><rect x="769.27" y="343.82" width="4.24" height="4.7"></rect><rect x="769.27" y="353.23" width="4.24" height="4.7"></rect><rect x="769.27" y="362.63" width="4.24" height="4.7"></rect><rect class="cls-32" x="773.51" y="329.72" width="4.24" height="14.11"></rect><rect x="773.51" y="329.72" width="4.24" height="4.7"></rect><rect x="773.51" y="339.12" width="4.24" height="4.7"></rect><rect class="cls-32" x="769.27" y="329.72" width="4.24" height="14.11"></rect><rect x="769.27" y="334.42" width="4.24" height="4.7"></rect><rect class="cls-6" x="129.76" y="196.56" width="55.86" height="3.51" transform="translate(-72.58 304.01) rotate(-76.17)"></rect><path class="cls-33" d="M174.25,145.76h-49.11c-.06.06-.09.1-.15.16v42.42h49.26v-42.58Z"></path></g><text class="cls-8" transform="translate(132.25 176.49)"><tspan class="cls-35" x="0" y="0">i</tspan><tspan x="18.21" y="0">1</tspan></text><g class="cls-12"><rect class="cls-6" x="318.82" y="236.47" width="59.12" height="3.52" transform="translate(108.66 585.59) rotate(-89.76)"></rect><path class="cls-33" d="M373.02,182.03h-49.13c-.06.06-.09.09-.15.15v38.43h49.28v-38.58Z"></path></g><text class="cls-8" transform="translate(329.09 210.49)"><tspan class="cls-35" x="0" y="0">i</tspan><tspan x="18.21" y="0">2</tspan></text><g class="cls-21"><rect class="cls-6" x="787.21" y="206.53" width="62.08" height="3.52" transform="translate(320.65 890.42) rotate(-68.17)"></rect><path class="cls-33" d="M824.68,220.98h-52.98c-.06.06-.1.1-.16.17v43.42h53.13v-43.58Z"></path></g><text class="cls-8" transform="translate(778.75 251.71)"><tspan class="cls-35" x="0" y="0">i</tspan><tspan x="18.21" y="0">3</tspan></text><g class="cls-22"><rect class="cls-10" x="387.41" y="315.4" width="45.58" height="3.52" transform="translate(92.46 726.91) rotate(-89.92)"></rect><path class="cls-7" d="M429.4,329.28h-41.75c-.05.05-.08.08-.12.14v35.76h41.88v-35.9Z"></path></g><text class="cls-9" transform="translate(397.61 358.65)"><tspan x="0" y="0">s</tspan></text></g></g></svg>