<svg xmlns="http://www.w3.org/2000/svg" xmlns:xlink="http://www.w3.org/1999/xlink" id="_10-CZE" viewBox="0 0 1080 582.2"><defs><style>.cls-1,.cls-2,.cls-3{fill:none;}.cls-2{stroke:#a0a0a0;stroke-width:10px;}.cls-2,.cls-3{stroke-miterlimit:10;}.cls-4{fill:#444;}.cls-5{fill:#e6e6e6;}.cls-3{stroke:#606060;stroke-width:7px;}.cls-6{fill:#ededed;font-size:26.92px;}.cls-6,.cls-7{font-family:MGPDisplayVF-Medium, 'MGP Display VF';font-variation-settings:'wght' 500, 'wdth' 100;font-weight:500;}.cls-8{fill:#f6f6f6;}.cls-7{fill:#323232;font-size:33.35px;}.cls-9{fill:#c6c6c6;font-family:MGPText-Bold, 'MGP Text';font-size:28.33px;font-weight:700;}.cls-10{clip-path:url(#clippath-17);}.cls-11{clip-path:url(#clippath-19);}.cls-12{clip-path:url(#clippath-11);}.cls-13{clip-path:url(#clippath-16);}.cls-14{clip-path:url(#clippath-18);}.cls-15{clip-path:url(#clippath-10);}.cls-16{clip-path:url(#clippath-15);}.cls-17{clip-path:url(#clippath-13);}.cls-18{clip-path:url(#clippath-14);}.cls-19{clip-path:url(#clippath-12);}.cls-20{clip-path:url(#clippath-20);}.cls-21{clip-path:url(#clippath-21);}.cls-22{clip-path:url(#clippath-1);}.cls-23{clip-path:url(#clippath-3);}.cls-24{clip-path:url(#clippath-4);}.cls-25{clip-path:url(#clippath-2);}.cls-26{clip-path:url(#clippath-7);}.cls-27{clip-path:url(#clippath-6);}.cls-28{clip-path:url(#clippath-9);}.cls-29{clip-path:url(#clippath-8);}.cls-30{clip-path:url(#clippath-5);}.cls-31{fill:#fafafa;}.cls-32{fill:red;}.cls-33{letter-spacing:.02em;}.cls-34{letter-spacing:.02em;}.cls-35{clip-path:url(#clippath);}</style><clipPath id="clippath"><rect class="cls-1" y="-248.34" width="1080" height="1080"></rect></clipPath><clipPath id="clippath-1"><rect class="cls-1" y="-248.34" width="1080" height="1080"></rect></clipPath><clipPath id="clippath-2"><rect class="cls-1" y="-248.34" width="1080" height="1080"></rect></clipPath><clipPath id="clippath-3"><rect class="cls-1" y="-248.34" width="1080" height="1080"></rect></clipPath><clipPath id="clippath-4"><rect class="cls-1" y="-248.34" width="1080" height="1080"></rect></clipPath><clipPath id="clippath-5"><rect class="cls-1" y="-248.34" width="1080" height="1080"></rect></clipPath><clipPath id="clippath-6"><rect class="cls-1" y="-248.34" width="1080" height="1080"></rect></clipPath><clipPath id="clippath-7"><rect class="cls-1" y="-248.34" width="1080" height="1080"></rect></clipPath><clipPath id="clippath-8"><rect class="cls-1" y="-248.34" width="1080" height="1080"></rect></clipPath><clipPath id="clippath-9"><rect class="cls-1" y="-248.34" width="1080" height="1080"></rect></clipPath><clipPath id="clippath-10"><rect class="cls-1" y="-248.34" width="1080" height="1080"></rect></clipPath><clipPath id="clippath-11"><rect class="cls-1" y="-248.34" width="1080" height="1080"></rect></clipPath><clipPath id="clippath-12"><rect class="cls-1" y="-248.34" width="1080" height="1080"></rect></clipPath><clipPath id="clippath-13"><rect class="cls-1" y="-248.34" width="1080" height="1080"></rect></clipPath><clipPath id="clippath-14"><rect class="cls-1" y="-248.34" width="1080" height="1080"></rect></clipPath><clipPath id="clippath-15"><rect class="cls-1" y="-248.34" width="1080" height="1080"></rect></clipPath><clipPath id="clippath-16"><rect class="cls-1" y="-248.34" width="1080" height="1080"></rect></clipPath><clipPath id="clippath-17"><rect class="cls-1" y="-248.34" width="1080" height="1080"></rect></clipPath><clipPath id="clippath-18"><rect class="cls-1" y="-248.34" width="1080" height="1080"></rect></clipPath><clipPath id="clippath-19"><rect class="cls-1" y="-248.34" width="1080" height="1080"></rect></clipPath><clipPath id="clippath-20"><rect class="cls-1" y="-248.34" width="1080" height="1080"></rect></clipPath><clipPath id="clippath-21"><rect class="cls-1" y="-248.34" width="1080" height="1080"></rect></clipPath></defs><g id="_10-CZE-2"><g class="cls-35"><g class="cls-22"><path class="cls-3" d="M596.09,149.36s-29.52,7.81-36.04,18.15c-6.52,10.34-3.37,22.71,2.7,31.92,6.07,9.22,23.85,4.29,39.96,5.79"></path></g><g class="cls-25"><path class="cls-2" d="M356.4,507.55s-146.01,1.01-166.18,1.68c-20.16.67-38.31,1.01-54.94-16.97-16.63-17.98-13.44-47.89,2.35-63.18,15.79-15.29,29.4-14.28,41-13.61,11.59.67,32.27-.29,63.68-15.79,31.41-15.51,175.64-87.69,197.56-98.51,21.92-10.83,16.57-36.49,5.88-45.72s-29.54-26.2-35.15-31.55c-5.61-5.35-15.91-27.8,3.61-41.57s119.9-89.42,135.54-101.19c15.64-11.76,31.41-25,38.9-26.6,7.49-1.6,17.91-1.07,25,4.81,7.08,5.88,9.89,13.9,14.03,30.61,4.14,16.71,9.22,30.74,3.74,39.57-5.48,8.82-18.18,12.7-31.55,18.18-13.37,5.48-27.94,14.57-27.67,28.61.27,14.04,9.62,26.47,20.05,27.8,10.43,1.34,75.92,6.95,85.68,7.75s17.78-.13,24.73-9.22c6.95-9.09,3.48-17.38,2.27-24.6s-3.07-17.24-.27-25.13c2.81-7.89,8.82-14.84,22.05-17.51,13.23-2.67,18.71,4.14,32.35,12.3,13.63,8.15,94.9,58.01,108.14,65.77,13.23,7.75,61.62,36.89,72.85,44.11,11.23,7.22,20.59,14.3,21.12,29.94.53,15.64-12.7,35.42-33.95,33.15-21.25-2.27-95.97-10.16-105.2-10.83-9.22-.67-19.11-1.2-27.27,8.69-8.15,9.89-2.27,27.94-1.87,34.35.4,6.42-.13,16.04-6.68,22.05-6.55,6.02-17.51,6.68-39.97,8.42-22.46,1.74-92.37,6.68-112.28,8.29-19.92,1.6-93.97,6.68-102.66,7.62-8.69.94-24.46,6.55-23.66,25.13.8,18.58,6.02,30.48,5.35,40.9-.67,10.43-3.48,20.32-14.84,29.14-11.36,8.82-17.78,13.5-55.34,13.1-37.56-.4-86.41,0-86.41,0Z"></path></g><g class="cls-23"><path class="cls-4" d="M108.53,469.97c0,10.57-8.57,19.13-19.13,19.13s-19.13-8.57-19.13-19.13,8.57-19.13,19.13-19.13,19.13,8.57,19.13,19.13"></path></g><text class="cls-9" transform="translate(82.17 479.05)"><tspan x="0" y="0">1</tspan></text><g class="cls-24"><path class="cls-4" d="M209.37,380.2c0,10.57-8.57,19.13-19.13,19.13s-19.13-8.57-19.13-19.13,8.57-19.13,19.13-19.13,19.13,8.57,19.13,19.13"></path></g><text class="cls-9" transform="translate(183.02 389.27)"><tspan x="0" y="0">2</tspan></text><g class="cls-30"><path class="cls-4" d="M425.01,273.03c0,10.57-8.57,19.13-19.13,19.13s-19.13-8.57-19.13-19.13,8.57-19.13,19.13-19.13,19.13,8.57,19.13,19.13"></path></g><text class="cls-9" transform="translate(398.65 282.11)"><tspan x="0" y="0">3</tspan></text><g class="cls-27"><path class="cls-4" d="M388.49,194.98c0,10.57-8.57,19.13-19.13,19.13s-19.13-8.57-19.13-19.13,8.57-19.13,19.13-19.13,19.13,8.57,19.13,19.13"></path></g><text class="cls-9" transform="translate(362.13 204.06)"><tspan x="0" y="0">4</tspan></text><g class="cls-26"><path class="cls-4" d="M635.32,22.89c0,10.57-8.57,19.13-19.13,19.13s-19.13-8.57-19.13-19.13,8.57-19.13,19.13-19.13,19.13,8.57,19.13,19.13"></path></g><text class="cls-9" transform="translate(608.96 31.96)"><tspan x="0" y="0">5</tspan></text><g class="cls-29"><path class="cls-4" d="M617.84,111.07c0,10.57-8.57,19.13-19.13,19.13s-19.13-8.57-19.13-19.13,8.57-19.13,19.13-19.13,19.13,8.57,19.13,19.13"></path></g><text class="cls-9" transform="translate(591.48 120.14)"><tspan x="0" y="0">6</tspan></text><g class="cls-28"><path class="cls-4" d="M546.31,196.42c0,10.57-8.57,19.13-19.13,19.13s-19.13-8.57-19.13-19.13,8.57-19.13,19.13-19.13,19.13,8.57,19.13,19.13"></path></g><text class="cls-9" transform="translate(519.96 205.5)"><tspan x="0" y="0">7</tspan></text><g class="cls-15"><path class="cls-4" d="M747.05,227.58c0,10.57-8.57,19.13-19.13,19.13s-19.13-8.57-19.13-19.13,8.57-19.13,19.13-19.13,19.13,8.57,19.13,19.13"></path></g><text class="cls-9" transform="translate(720.7 236.66)"><tspan x="0" y="0">8</tspan></text><g class="cls-12"><path class="cls-4" d="M727.92,103.24c0,10.57-8.57,19.13-19.13,19.13s-19.13-8.57-19.13-19.13,8.57-19.13,19.13-19.13,19.13,8.57,19.13,19.13"></path></g><text class="cls-9" transform="translate(701.57 112.31)"><tspan x="0" y="0">9</tspan></text><g class="cls-19"><path class="cls-4" d="M1009.39,322.09c0,10.57-8.57,19.13-19.13,19.13s-19.13-8.57-19.13-19.13,8.57-19.13,19.13-19.13,19.13,8.57,19.13,19.13"></path></g><text class="cls-9" transform="translate(975.49 331.17)"><tspan x="0" y="0">10</tspan></text><g class="cls-17"><path class="cls-4" d="M794.16,287.14c0,10.57-8.57,19.13-19.13,19.13s-19.13-8.57-19.13-19.13,8.57-19.13,19.13-19.13,19.13,8.57,19.13,19.13"></path></g><text class="cls-9" transform="translate(760.26 296.21)"><tspan x="0" y="0">11</tspan></text><g class="cls-18"><path class="cls-4" d="M825.21,408.4c0,10.57-8.57,19.13-19.13,19.13s-19.13-8.57-19.13-19.13,8.57-19.13,19.13-19.13,19.13,8.57,19.13,19.13"></path></g><text class="cls-9" transform="translate(791.31 417.47)"><tspan x="0" y="0">12</tspan></text><g class="cls-16"><path class="cls-4" d="M561.84,431.7c0,10.57-8.57,19.13-19.13,19.13s-19.13-8.57-19.13-19.13,8.57-19.13,19.13-19.13,19.13,8.57,19.13,19.13"></path></g><text class="cls-9" transform="translate(527.94 440.78)"><tspan x="0" y="0">13</tspan></text><g class="cls-13"><path class="cls-4" d="M555.16,507.96c0,10.57-8.57,19.13-19.13,19.13s-19.13-8.57-19.13-19.13,8.57-19.13,19.13-19.13,19.13,8.57,19.13,19.13"></path></g><text class="cls-9" transform="translate(521.26 517.03)"><tspan x="0" y="0">14</tspan></text><rect class="cls-5" x="829.73" y="307.64" width="62.09" height="3.91" transform="translate(462.85 1133.26) rotate(-84)"></rect><g class="cls-10"><path class="cls-32" d="M886.11,336.5h-54.59c-.06.07-.1.11-.16.18v47.14h54.75v-47.32Z"></path></g><text class="cls-6" transform="translate(837.29 370.66)"><tspan class="cls-34" x="0" y="0">i</tspan><tspan x="20.24" y="0">3</tspan></text><g class="cls-14"><polygon class="cls-5" points="354.98 538.85 353.46 482.7 357.1 483.13 358.62 539.28 354.98 538.85"></polygon><path class="cls-32" d="M391.54,532.37h-61.21c-.07.07-.11.11-.18.18v47.14h61.39v-47.32Z"></path></g><text class="cls-6" transform="translate(346.48 566.52)"><tspan class="cls-33" x="0" y="0">f</tspan><tspan x="20.75" y="0">l</tspan></text><g class="cls-11"><rect class="cls-31" x="334.87" y="548.19" width="4.72" height="31.36"></rect><rect x="334.87" y="553.42" width="4.72" height="5.23"></rect><rect x="334.87" y="563.87" width="4.72" height="5.23"></rect><rect x="334.87" y="574.32" width="4.72" height="5.23"></rect><rect class="cls-31" x="330.15" y="548.19" width="4.72" height="31.36"></rect><rect x="330.15" y="548.19" width="4.72" height="5.23"></rect><rect x="330.15" y="558.64" width="4.72" height="5.23"></rect><rect x="330.15" y="569.1" width="4.72" height="5.23"></rect><rect class="cls-31" x="334.87" y="532.51" width="4.72" height="15.68"></rect><rect x="334.87" y="532.51" width="4.72" height="5.23"></rect><rect x="334.87" y="542.96" width="4.72" height="5.23"></rect><rect class="cls-31" x="330.15" y="532.51" width="4.72" height="15.68"></rect><rect x="330.15" y="537.74" width="4.72" height="5.23"></rect><rect class="cls-5" x="257.53" y="479.06" width="3.91" height="62.09" transform="translate(-3.37 1.73) rotate(-.38)"></rect><path class="cls-8" d="M285.73,535.44h-54.59c-.06.07-.1.11-.16.18v47.14h54.75v-47.32Z"></path></g><text class="cls-7" transform="translate(245.74 571.84)"><tspan x="0" y="0">s</tspan></text><g class="cls-20"><polygon class="cls-5" points="445.26 111.07 484.92 158.81 481.92 161.31 442.26 113.57 445.26 111.07"></polygon><path class="cls-32" d="M459.45,77.18h-54.59c-.06.07-.1.11-.16.18v47.14h54.75v-47.32Z"></path></g><text class="cls-6" transform="translate(412.77 111.33)"><tspan class="cls-34" x="0" y="0">i</tspan><tspan x="20.24" y="0">1</tspan></text><g class="cls-21"><polygon class="cls-5" points="651.18 191.93 647.97 248.64 644.07 248.48 647.27 191.77 651.18 191.93"></polygon><path class="cls-32" d="M676.14,244.34h-57.56c-.07.07-.1.11-.17.18v47.14h57.73v-47.32Z"></path></g><text class="cls-6" transform="translate(626.47 278.5)"><tspan class="cls-34" x="0" y="0">i</tspan><tspan x="20.24" y="0">2</tspan></text></g></g></svg>