<svg xmlns="http://www.w3.org/2000/svg" xmlns:xlink="http://www.w3.org/1999/xlink" id="_06-FRA" viewBox="0 0 1080 744.38"><defs><style>.cls-1{fill:none;}.cls-2{fill:#323232;}.cls-3{fill:#444;}.cls-4{fill:#e6e6e6;}.cls-5{fill:#f6f6f6;}.cls-6{fill:#606060;}.cls-7{fill:#a0a0a0;}.cls-8{fill:#c6c6c6;}.cls-9{clip-path:url(#clippath-17);}.cls-10{clip-path:url(#clippath-19);}.cls-11{clip-path:url(#clippath-11);}.cls-12{clip-path:url(#clippath-16);}.cls-13{clip-path:url(#clippath-18);}.cls-14{clip-path:url(#clippath-10);}.cls-15{clip-path:url(#clippath-15);}.cls-16{clip-path:url(#clippath-13);}.cls-17{clip-path:url(#clippath-14);}.cls-18{clip-path:url(#clippath-12);}.cls-19{clip-path:url(#clippath-20);}.cls-20{clip-path:url(#clippath-21);}.cls-21{clip-path:url(#clippath-1);}.cls-22{clip-path:url(#clippath-3);}.cls-23{clip-path:url(#clippath-4);}.cls-24{clip-path:url(#clippath-2);}.cls-25{clip-path:url(#clippath-7);}.cls-26{clip-path:url(#clippath-6);}.cls-27{clip-path:url(#clippath-9);}.cls-28{clip-path:url(#clippath-8);}.cls-29{clip-path:url(#clippath-5);}.cls-30{fill:#fafafa;}.cls-31{fill:red;}.cls-32{fill:#ededed;}.cls-33{clip-path:url(#clippath);}</style><clipPath id="clippath"><rect class="cls-1" y="-152.04" width="1080" height="1080"></rect></clipPath><clipPath id="clippath-1"><rect class="cls-1" y="-152.04" width="1080" height="1080"></rect></clipPath><clipPath id="clippath-2"><rect class="cls-1" y="-152.04" width="1080" height="1080"></rect></clipPath><clipPath id="clippath-3"><rect class="cls-1" y="-152.04" width="1080" height="1080"></rect></clipPath><clipPath id="clippath-4"><rect class="cls-1" y="-152.04" width="1080" height="1080"></rect></clipPath><clipPath id="clippath-5"><rect class="cls-1" y="-152.04" width="1080" height="1080"></rect></clipPath><clipPath id="clippath-6"><rect class="cls-1" y="-152.04" width="1080" height="1080"></rect></clipPath><clipPath id="clippath-7"><rect class="cls-1" y="-152.04" width="1080" height="1080"></rect></clipPath><clipPath id="clippath-8"><rect class="cls-1" y="-152.04" width="1080" height="1080"></rect></clipPath><clipPath id="clippath-9"><rect class="cls-1" y="-152.04" width="1080" height="1080"></rect></clipPath><clipPath id="clippath-10"><rect class="cls-1" y="-152.04" width="1080" height="1080"></rect></clipPath><clipPath id="clippath-11"><rect class="cls-1" y="-152.04" width="1080" height="1080"></rect></clipPath><clipPath id="clippath-12"><rect class="cls-1" y="-152.04" width="1080" height="1080"></rect></clipPath><clipPath id="clippath-13"><rect class="cls-1" y="-152.04" width="1080" height="1080"></rect></clipPath><clipPath id="clippath-14"><rect class="cls-1" y="-152.04" width="1080" height="1080"></rect></clipPath><clipPath id="clippath-15"><rect class="cls-1" y="-152.04" width="1080" height="1080"></rect></clipPath><clipPath id="clippath-16"><rect class="cls-1" y="-152.04" width="1080" height="1080"></rect></clipPath><clipPath id="clippath-17"><rect class="cls-1" y="-152.04" width="1080" height="1080"></rect></clipPath><clipPath id="clippath-18"><rect class="cls-1" y="-152.04" width="1080" height="1080"></rect></clipPath><clipPath id="clippath-19"><rect class="cls-1" y="-152.04" width="1080" height="1080"></rect></clipPath><clipPath id="clippath-20"><rect class="cls-1" y="-152.04" width="1080" height="1080"></rect></clipPath><clipPath id="clippath-21"><rect class="cls-1" y="-152.04" width="1080" height="1080"></rect></clipPath></defs><g id="_06-FRA-2"><g class="cls-33"><g class="cls-21"><path class="cls-6" d="M160.8,125.7c-5.47-4.62-10.56-8.37-15.04-11.67-7.09-5.23-12.7-9.36-16.53-14.41-4.32-5.7-5.47-12.48-3.31-19.61,4.92-16.28,26.31-31.34,32.81-33.6,16.93-5.88,32.11,11.23,43.2,23.72,2.98,3.36,5.56,6.26,7.71,8.21l-4.69,5.19c-2.44-2.21-5.13-5.24-8.25-8.76-9.77-11.01-23.16-26.1-35.67-21.75-5.29,1.84-24.3,15.44-28.41,29.01-1.52,5.04-.81,9.41,2.19,13.35,3.22,4.24,8.47,8.11,15.11,13,4.57,3.37,9.75,7.19,15.4,11.96l-4.52,5.35Z"></path></g><g class="cls-24"><path class="cls-7" d="M982.53,695.15c-.68,0-1.39-.02-2.14-.05-.3-.01-2.09-.06-5.2-.13-15.91-.4-64.33-1.62-124.3-3.72-109.96-3.86-252.59-10.49-307.6-20.2-.91-.16-93.8-17.49-153.77-48.97-34.08-17.89-62.64-71.39-74.83-94.23-11.36-21.28-19.17-34.52-25.49-39.24-4.58-3.42-8.55-2.57-19.36.37-1.01.28-2.07.56-3.17.86-12.42,3.32-21.19,5.02-29.64-1.3-7.22-5.4-13.42-15.91-25.77-36.85-1.88-3.18-3.9-6.61-6.08-10.28-5.03-8.47-9.33-16.1-13.5-23.48-14.6-25.9-25.15-44.61-46.28-60.69l-1.3-.99c-47.23-35.93-78.43-59.67-73.98-95.64,3.33-26.9,17.61-37.93,29.01-42.44,19.67-7.79,46.42-1.77,66.56,14.97,16.41,13.64,46.96,39.04,77.23,76.65,5.71,7.09,11.63,15.06,17.91,23.5,23.79,32.01,53.41,71.84,75.55,64.58,10.74-3.52,17.93-9.85,21.38-18.82,5.93-15.41.96-38.89-13.63-64.42-17.76-31.09-50.23-63-71.71-84.12-4.74-4.66-8.83-8.68-12.26-12.19-23.45-24-95.99-87.92-115.83-104.94-3.79-3.25-10.19-10.21-10.54-20.31-.3-8.63,3.92-17.31,12.53-25.79,24.43-24.06,37.18-13.16,54.83,1.92,1.73,1.47,3.53,3.02,5.44,4.61.75.62,6.83,5.78,16.9,14.32,266.63,226.13,334.89,282.41,345.2,289.81.79.57,1.71,1.32,2.78,2.19,9.5,7.78,29.26,23.96,54.13-1.14,19.6-19.79,55.32-7.1,86.84,4.1,9.37,3.33,18.23,6.47,26.24,8.65,14.53,3.95,122.76,37.67,139.58,45.86,9.28,4.51,16.86,15.23,19.31,27.31,2.89,14.25-1.56,29.03-12.54,41.6-27.72,31.75-35.9,43.62-26.52,62.8,7.95,16.26,17.86,19.37,39.56,26.17,12.21,3.83,41.83,12.44,83.38,24.25,1.28.36,2,.57,2.04.58,1.81.55,3.54,1.03,5.16,1.48,15.52,4.3,24.65,8.33,17.05,35.89l-.92,3.36c-7.69,27.94-9.39,34.12-22.26,34.12ZM282.77,476.36c4.26,0,8.26,1.12,12.41,4.22,7.91,5.9,15.75,18.95,28.34,42.54,11.76,22.03,39.3,73.63,70.66,90.09,58.65,30.79,149.96,47.82,150.86,47.98,54.44,9.61,196.57,16.21,306.21,20.06,59.92,2.1,108.3,3.32,124.2,3.72,3.24.08,5.09.13,5.38.14,5.07.22,5.33-.19,6.27-1.71,2.1-3.4,4.34-11.54,8.05-25.02l.93-3.36c2.68-9.73,3.14-15.78,1.41-18.49-1.5-2.34-5.69-3.5-11.49-5.1-1.7-.47-3.5-.97-5.39-1.54-.07-.02-.73-.21-1.87-.53-41.64-11.83-71.34-20.47-83.64-24.32-22.27-6.98-35.71-11.2-45.55-31.32-12.5-25.57.99-42.88,27.97-73.78,11.38-13.04,11.87-25.16,10.27-33.04-2.1-10.33-8.67-17.77-13.88-20.3-15.19-7.39-120.57-40.5-137.83-45.2-8.37-2.28-17.4-5.48-26.96-8.88-28.71-10.2-61.26-21.76-76.39-6.48-31.27,31.56-58.59,9.19-67.57,1.84-.93-.76-1.74-1.42-2.27-1.81-15.21-10.91-131.57-108.58-345.84-290.3-10.05-8.53-16.12-13.67-16.84-14.27-1.94-1.62-3.77-3.19-5.53-4.69-17.52-14.97-23.43-20.01-41.32-2.39-6.53,6.43-9.75,12.6-9.55,18.32.22,6.28,4.51,10.88,7.06,13.06,19.91,17.09,92.8,81.32,116.47,105.54,3.35,3.43,7.41,7.42,12.11,12.04,21.88,21.5,54.93,54,73.38,86.29,16.33,28.57,21.4,54.48,14.28,72.97-4.58,11.9-13.87,20.22-27.6,24.73-2.87.94-5.76,1.38-8.66,1.39-26.37,0-53.67-36.72-78.04-69.5-6.21-8.36-12.08-16.26-17.67-23.2-29.64-36.83-59.69-61.81-75.83-75.23-17.41-14.48-40.12-19.85-56.49-13.37-12.73,5.04-20.61,16.93-22.76,34.37-3.74,30.27,24.06,51.42,70.11,86.46l1.3.99c22.77,17.33,33.75,36.79,48.94,63.73,4.14,7.33,8.41,14.92,13.38,23.29,2.19,3.68,4.21,7.11,6.09,10.3,11.31,19.17,17.53,29.72,23.15,33.92,4.44,3.33,9.16,2.83,21.07-.35,1.08-.29,2.12-.57,3.12-.84,5.86-1.6,10.86-2.96,15.55-2.96Z"></path></g><g class="cls-22"><path class="cls-3" d="M470.01,675.88c0,9.38-7.6,16.99-16.99,16.99s-16.98-7.6-16.98-16.99,7.6-16.98,16.98-16.98,16.99,7.61,16.99,16.98"></path></g><path class="cls-8" d="M447.7,681.04h4.53v-10.06l-4.05.93v-2.89l7.07-1.58v13.61h4.15v2.89h-11.69v-2.89Z"></path><g class="cls-23"><path class="cls-3" d="M362.3,621.23c0,9.38-7.6,16.99-16.99,16.99s-16.98-7.61-16.98-16.99,7.6-16.98,16.98-16.98,16.99,7.61,16.99,16.98"></path></g><path class="cls-8" d="M342.05,623.75c.86-.86,1.9-1.73,3.14-2.62.99-.72,1.71-1.33,2.16-1.82.45-.49.68-1.07.68-1.72,0-.6-.21-1.09-.63-1.47s-1-.57-1.74-.57-1.4.2-2,.6c-.6.4-1.1.97-1.52,1.71l-2.46-1.56c.62-1.17,1.44-2.08,2.46-2.7,1.02-.63,2.2-.94,3.52-.94,1.07,0,2.01.2,2.82.6s1.42.96,1.86,1.68c.44.72.65,1.54.65,2.46s-.17,1.72-.52,2.39-.77,1.24-1.28,1.7c-.51.46-1.19.99-2.02,1.57-.89.64-1.6,1.2-2.13,1.67-.53.48-.96,1.04-1.29,1.7h7.57v2.84h-11.44v-2.26c.59-1.32,1.31-2.41,2.16-3.27Z"></path><g class="cls-29"><path class="cls-3" d="M315.99,451.96c0,9.38-7.6,16.99-16.99,16.99s-16.98-7.61-16.98-16.99,7.6-16.98,16.98-16.98,16.99,7.61,16.99,16.98"></path></g><path class="cls-8" d="M295.5,459.47c-1.01-.6-1.81-1.44-2.4-2.53l2.29-1.36c.42.7.92,1.23,1.5,1.58.58.35,1.29.53,2.12.53.89,0,1.63-.23,2.21-.69s.88-1.07.88-1.82-.26-1.32-.79-1.81-1.18-.73-1.95-.73h-1.94v-2.46h1.94c.7,0,1.26-.18,1.66-.55s.6-.87.6-1.51-.23-1.12-.69-1.5-1.09-.57-1.9-.57c-1.44,0-2.57.67-3.4,2.01l-2.29-1.36c1.32-2.21,3.3-3.32,5.93-3.32,1.02,0,1.94.2,2.74.59.8.39,1.43.94,1.87,1.62.44.69.67,1.47.67,2.34,0,.8-.19,1.52-.58,2.14-.39.62-.86,1.07-1.43,1.36.75.39,1.36.94,1.82,1.66s.69,1.49.69,2.31c0,.94-.25,1.78-.74,2.53-.5.75-1.2,1.34-2.11,1.77s-1.97.65-3.16.65c-1.36,0-2.54-.3-3.56-.89Z"></path><g class="cls-26"><path class="cls-3" d="M247.8,516.11c0,9.38-7.6,16.99-16.99,16.99s-16.98-7.61-16.98-16.99,7.6-16.98,16.98-16.98,16.99,7.61,16.99,16.98"></path></g><path class="cls-8" d="M224.78,518.33l4.5-10.44h3.12l-4.38,10.06h4.12v-3.77h3.02v3.77h2.36v2.82h-2.36v3.39h-3.02v-3.39h-7.37v-2.44Z"></path><g class="cls-25"><path class="cls-3" d="M163.66,395.86c0,9.38-7.6,16.99-16.99,16.99s-16.98-7.61-16.98-16.99,7.6-16.98,16.98-16.98,16.99,7.61,16.99,16.98"></path></g><path class="cls-8" d="M143.24,403.38c-1.01-.59-1.79-1.42-2.34-2.51l2.51-1.56c.74,1.37,1.87,2.06,3.4,2.06.94,0,1.69-.25,2.25-.77.56-.51.84-1.2.84-2.08s-.28-1.58-.83-2.11c-.55-.54-1.32-.81-2.31-.81-1.16,0-2.15.44-2.97,1.31l-1.99-1.28,1.58-8h8.7v2.87h-6.41l-.6,3.07c.64-.27,1.33-.4,2.09-.4,1.17,0,2.19.24,3.04.7.86.47,1.51,1.12,1.97,1.94.46.82.69,1.76.69,2.82s-.25,2.01-.74,2.87c-.49.85-1.21,1.53-2.15,2.02-.94.49-2.04.74-3.29.74s-2.44-.29-3.45-.88Z"></path><g class="cls-28"><path class="cls-3" d="M78.55,213.55c0,9.38-7.6,16.99-16.99,16.99s-16.98-7.61-16.98-16.99,7.6-16.98,16.98-16.98,16.99,7.61,16.99,16.98"></path></g><path class="cls-8" d="M58.78,221.16c-.94-.53-1.68-1.24-2.21-2.14-.54-.9-.8-1.87-.8-2.93,0-1.29.45-2.53,1.36-3.72l5.36-7.04h3.67l-3.97,5.08h.18c1.01,0,1.94.25,2.8.74.86.5,1.55,1.18,2.06,2.06.51.88.77,1.87.77,2.98s-.26,2.03-.79,2.9c-.53.88-1.26,1.58-2.19,2.09-.93.51-1.97.77-3.11.77s-2.18-.26-3.12-.79ZM64.11,218.2c.57-.58.85-1.29.85-2.15s-.29-1.58-.87-2.16-1.31-.88-2.2-.88-1.63.3-2.24.89c-.6.6-.91,1.32-.91,2.18s.29,1.55.87,2.12c.58.58,1.33.87,2.25.87s1.67-.29,2.24-.87Z"></path><g class="cls-27"><path class="cls-3" d="M382.96,425.48c0,9.38-7.6,16.99-16.99,16.99s-16.98-7.61-16.98-16.99,7.6-16.98,16.98-16.98,16.99,7.6,16.99,16.98"></path></g><path class="cls-8" d="M368.54,420.15h-8.3v-2.89h11.64v2.44l-6.67,13.83h-3.22l6.54-13.38Z"></path><g class="cls-14"><path class="cls-3" d="M622.67,429.44c0,9.38-7.6,16.99-16.99,16.99s-16.98-7.61-16.98-16.99,7.6-16.98,16.98-16.98,16.99,7.61,16.99,16.98"></path></g><path class="cls-8" d="M609.06,421.66c.94.53,1.68,1.24,2.21,2.14.54.9.8,1.87.8,2.93,0,1.29-.45,2.53-1.36,3.72l-5.36,7.04h-3.67l3.97-5.08h-.18c-1.01,0-1.94-.25-2.8-.74s-1.55-1.18-2.06-2.06c-.51-.88-.77-1.87-.77-2.98s.26-2.02.79-2.9c.53-.88,1.26-1.58,2.19-2.09.93-.51,1.97-.77,3.11-.77s2.18.26,3.12.79ZM603.73,424.63c-.57.58-.85,1.3-.85,2.15s.29,1.58.87,2.16,1.31.88,2.2.88,1.63-.3,2.24-.89.91-1.32.91-2.18-.29-1.55-.87-2.12c-.58-.58-1.33-.87-2.25-.87s-1.67.29-2.24.87Z"></path><g class="cls-11"><path class="cls-3" d="M670.68,341.54c0,9.38-7.6,16.99-16.99,16.99s-16.98-7.61-16.98-16.99,7.6-16.98,16.98-16.98,16.99,7.61,16.99,16.98"></path></g><path class="cls-8" d="M641.67,346.7h4.53v-10.06l-4.05.93v-2.89l7.07-1.58v13.61h4.15v2.89h-11.69v-2.89Z"></path><path class="cls-8" d="M657.67,349.19c-.91-.5-1.63-1.21-2.15-2.11-.52-.91-.78-1.94-.78-3.09v-5.05c0-1.16.26-2.19.78-3.09.52-.9,1.24-1.61,2.15-2.11.91-.5,1.92-.75,3.03-.75s2.14.25,3.04.75,1.62,1.2,2.14,2.1.78,1.93.78,3.11v5.05c0,1.17-.26,2.21-.78,3.11-.52.9-1.23,1.6-2.14,2.1s-1.92.75-3.04.75-2.12-.25-3.03-.75ZM662.88,346.2c.53-.57.79-1.34.79-2.31v-4.83c0-.99-.26-1.77-.79-2.34-.53-.57-1.25-.86-2.17-.86s-1.65.29-2.18.86c-.53.57-.79,1.35-.79,2.34v4.83c0,.97.26,1.74.79,2.31.53.57,1.25.86,2.18.86s1.65-.29,2.17-.86Z"></path><g class="cls-18"><path class="cls-3" d="M942.01,468.94c0,9.38-7.6,16.99-16.99,16.99s-16.98-7.61-16.98-16.99,7.6-16.98,16.98-16.98,16.99,7.61,16.99,16.98"></path></g><path class="cls-8" d="M912.99,474.11h4.53v-10.06l-4.05.93v-2.89l7.07-1.58v13.61h4.15v2.89h-11.69v-2.89Z"></path><path class="cls-8" d="M926.4,474.11h4.53v-10.06l-4.05.93v-2.89l7.07-1.58v13.61h4.15v2.89h-11.69v-2.89Z"></path><g class="cls-16"><path class="cls-3" d="M903.98,562.72c0,9.38-7.6,16.99-16.99,16.99s-16.98-7.61-16.98-16.99,7.6-16.98,16.98-16.98,16.99,7.61,16.99,16.98"></path></g><path class="cls-8" d="M874.96,567.88h4.53v-10.06l-4.05.93v-2.89l7.07-1.58v13.61h4.15v2.89h-11.69v-2.89Z"></path><path class="cls-8" d="M890.43,565.24c.86-.86,1.9-1.73,3.14-2.62.99-.72,1.71-1.33,2.16-1.82.45-.49.68-1.07.68-1.72,0-.6-.21-1.09-.63-1.47s-1-.57-1.74-.57-1.4.2-2,.6c-.6.4-1.1.97-1.52,1.71l-2.46-1.56c.62-1.17,1.44-2.08,2.46-2.7,1.02-.63,2.2-.94,3.52-.94,1.07,0,2.01.2,2.82.6s1.42.96,1.86,1.68c.44.72.65,1.54.65,2.46s-.17,1.72-.52,2.39-.77,1.24-1.28,1.7c-.51.46-1.19.99-2.02,1.57-.89.64-1.6,1.2-2.13,1.67-.53.48-.96,1.04-1.29,1.7h7.57v2.84h-11.44v-2.26c.59-1.32,1.31-2.41,2.16-3.27Z"></path><g class="cls-17"><path class="cls-3" d="M1049.21,622.38c0,9.38-7.6,16.99-16.99,16.99s-16.98-7.61-16.98-16.99,7.6-16.98,16.98-16.98,16.99,7.61,16.99,16.98"></path></g><path class="cls-8" d="M1020.2,627.54h4.53v-10.06l-4.05.93v-2.89l7.07-1.58v13.61h4.15v2.89h-11.69v-2.89Z"></path><path class="cls-8" d="M1035.42,629.89c-1.01-.6-1.81-1.44-2.4-2.53l2.29-1.36c.42.7.92,1.23,1.5,1.58.58.35,1.29.53,2.12.53.89,0,1.63-.23,2.21-.69s.88-1.07.88-1.82-.26-1.32-.79-1.81-1.18-.73-1.95-.73h-1.94v-2.46h1.94c.7,0,1.26-.18,1.66-.55s.6-.87.6-1.51-.23-1.12-.69-1.5-1.09-.57-1.9-.57c-1.44,0-2.57.67-3.4,2.01l-2.29-1.36c1.32-2.21,3.3-3.32,5.93-3.32,1.02,0,1.94.2,2.74.59.8.39,1.43.94,1.87,1.62.44.69.67,1.47.67,2.34,0,.8-.19,1.52-.58,2.14-.39.62-.86,1.07-1.43,1.36.75.39,1.36.94,1.82,1.66s.69,1.49.69,2.31c0,.94-.25,1.78-.74,2.53-.5.75-1.2,1.34-2.11,1.77s-1.97.65-3.16.65c-1.36,0-2.54-.3-3.56-.89Z"></path><g class="cls-15"><path class="cls-3" d="M1028.48,712.13c0,9.38-7.6,16.99-16.99,16.99s-16.98-7.6-16.98-16.99,7.6-16.99,16.98-16.99,16.99,7.61,16.99,16.99"></path></g><path class="cls-8" d="M999.47,717.29h4.53v-10.06l-4.05.93v-2.89l7.07-1.58v13.61h4.15v2.89h-11.69v-2.89Z"></path><path class="cls-8" d="M1012.17,714.34l4.5-10.44h3.12l-4.38,10.06h4.12v-3.77h3.02v3.77h2.36v2.82h-2.36v3.4h-3.02v-3.4h-7.37v-2.44Z"></path><g class="cls-12"><path class="cls-3" d="M119.78,19.53c0,9.41-7.63,17.03-17.03,17.03s-17.03-7.63-17.03-17.03,7.62-17.03,17.03-17.03,17.03,7.63,17.03,17.03"></path></g><path class="cls-8" d="M100.03,27.3c-.88-.44-1.57-1.03-2.06-1.79-.49-.76-.73-1.6-.73-2.52,0-.82.21-1.58.64-2.28.43-.7,1.01-1.26,1.75-1.7-.5-.24-.95-.68-1.32-1.34-.38-.66-.57-1.38-.57-2.17,0-.86.22-1.63.67-2.31.45-.68,1.07-1.21,1.88-1.6.81-.39,1.72-.58,2.75-.58s1.94.19,2.75.58c.81.39,1.43.92,1.88,1.6.45.68.67,1.45.67,2.31,0,.81-.18,1.52-.54,2.14-.36.62-.81,1.08-1.35,1.36.72.39,1.3.94,1.74,1.67.44.72.66,1.5.66,2.32,0,.92-.24,1.76-.73,2.52s-1.17,1.35-2.06,1.79c-.88.44-1.89.66-3.01.66s-2.13-.22-3.01-.66ZM105.07,24.65c.52-.47.78-1.09.78-1.87s-.26-1.35-.79-1.84c-.53-.49-1.2-.73-2-.73s-1.47.25-2,.74c-.53.5-.79,1.11-.79,1.83,0,.77.26,1.4.78,1.87s1.19.71,2.02.71,1.5-.24,2.02-.71ZM104.79,17.2c.42-.38.63-.89.63-1.53s-.21-1.12-.63-1.5c-.42-.38-1-.57-1.74-.57s-1.32.19-1.74.57c-.42.38-.63.88-.63,1.5s.21,1.15.63,1.53c.42.38,1,.57,1.74.57s1.32-.19,1.74-.57Z"></path><rect class="cls-32" x="550.86" y="674.15" width="45.02" height="3.47" transform="translate(-155.83 1179.7) rotate(-84.33)"></rect><g class="cls-9"><path class="cls-5" d="M589.9,692.21h-41.24c-.05.05-.08.08-.12.13v35.32h41.36v-35.46Z"></path></g><path class="cls-2" d="M559.77,716.33h12.86c.67,0,1.2-.15,1.59-.45.38-.3.58-.72.58-1.27s-.16-.93-.47-1.2c-.32-.27-.81-.51-1.48-.73l-8.09-2.13c-1.86-.43-3.23-1.19-4.12-2.25-.89-1.07-1.33-2.47-1.33-4.21,0-1.28.3-2.42.9-3.41.6-.99,1.47-1.76,2.59-2.33,1.13-.56,2.44-.84,3.94-.84h12.39v4.89h-12.33c-.69,0-1.23.15-1.62.45-.38.3-.58.72-.58,1.27s.16.94.49,1.21.82.51,1.5.71l8.06,2.13c1.86.44,3.23,1.19,4.12,2.25.89,1.07,1.33,2.47,1.33,4.21,0,1.26-.3,2.4-.9,3.39-.6,1-1.47,1.78-2.59,2.34-1.13.56-2.44.84-3.94.84h-12.89v-4.89Z"></path><g class="cls-13"><line class="cls-32" x1="851.87" y1="713.57" x2="851.99" y2="671.68"></line><rect class="cls-4" x="830.99" y="690.89" width="41.89" height="3.47" transform="translate(157.1 1542.76) rotate(-89.85)"></rect><path class="cls-31" d="M873.41,701.39h-52.54c-.06.06-.1.1-.16.16v41.64h52.7v-41.8Z"></path></g><path class="cls-32" d="M836.24,714.65c.45-.9,1.12-1.58,2.02-2.02s2.04-.67,3.41-.67h9.45v3.95h-9.19c-.53,0-.94.07-1.24.2s-.52.35-.65.66c-.13.3-.19.72-.19,1.24v1.53h10.79v3.97h-10.79v7.58h-4.28v-13.08c0-1.34.22-2.46.67-3.36Z"></path><path class="cls-32" d="M868.08,731.1h-7.96c-1.39,0-2.53-.22-3.43-.66-.9-.44-1.57-1.1-2.01-2s-.66-2.03-.66-3.4v-13.08h4.28v13.08c0,.53.06.94.19,1.24.13.3.34.52.65.66s.72.2,1.24.2h7.7v3.95Z"></path><g class="cls-10"><rect class="cls-30" x="824.9" y="715.32" width="4.19" height="27.87"></rect><rect x="824.9" y="719.97" width="4.19" height="4.65"></rect><rect x="824.9" y="729.26" width="4.19" height="4.65"></rect><rect x="824.9" y="738.54" width="4.19" height="4.65"></rect><rect class="cls-30" x="820.71" y="715.32" width="4.19" height="27.87"></rect><rect x="820.71" y="715.32" width="4.19" height="4.65"></rect><rect x="820.71" y="724.61" width="4.19" height="4.65"></rect><rect x="820.71" y="733.9" width="4.19" height="4.65"></rect><rect class="cls-30" x="824.9" y="701.39" width="4.19" height="13.93"></rect><rect x="824.9" y="701.39" width="4.19" height="4.65"></rect><rect x="824.9" y="710.68" width="4.19" height="4.65"></rect><rect class="cls-30" x="820.71" y="701.39" width="4.19" height="13.93"></rect><rect x="820.71" y="706.03" width="4.19" height="4.65"></rect><rect class="cls-4" x="816.14" y="412.53" width="61.32" height="3.47" transform="translate(187.43 1088) rotate(-71.69)"></rect><path class="cls-31" d="M883.14,366.78h-52.33c-.06.06-.09.1-.16.16v42.88h52.48v-43.05Z"></path></g><path class="cls-32" d="M838.73,393.19h5.62v-11.24h-5.62v-3.95h15.5v3.95h-5.6v11.24h5.6v3.95h-15.5v-3.95Z"></path><path class="cls-32" d="M859.95,396.42c-1.02-.48-1.8-1.17-2.33-2.07-.53-.9-.8-1.96-.8-3.17v-2.49h4.31v2.06c0,.75.22,1.34.66,1.78s1.04.66,1.81.66h4.95c.69,0,1.22-.16,1.6-.48.38-.32.57-.77.57-1.36s-.19-1.04-.57-1.34-.92-.46-1.6-.46h-5.31v-3.97h5.12c.69,0,1.22-.16,1.61-.47.39-.31.59-.77.59-1.38,0-.57-.2-1.02-.59-1.33s-.93-.47-1.61-.47h-4.76c-.76,0-1.36.22-1.79.66-.43.44-.65,1.02-.65,1.76v1.27h-4.28v-1.65c0-1.24.27-2.31.8-3.21.53-.89,1.31-1.58,2.33-2.06,1.02-.48,2.24-.72,3.66-.72h4.86c1.28,0,2.39.21,3.34.63.95.42,1.68,1.03,2.19,1.82.51.79.77,1.73.77,2.81,0,.97-.21,1.81-.63,2.52-.42.71-1.1,1.3-2.02,1.76,1.02.48,1.75,1.06,2.19,1.75.44.69.66,1.55.66,2.58s-.26,2.02-.79,2.81-1.28,1.4-2.25,1.82c-.97.42-2.1.63-3.37.63h-4.98c-1.42,0-2.64-.24-3.66-.72Z"></path><g class="cls-19"><rect class="cls-4" x="268.48" y="267.34" width="58.4" height="3.47" transform="translate(-102.42 299.58) rotate(-46.47)"></rect><path class="cls-31" d="M309.29,278.37h-48.53c-.06.06-.09.09-.14.14v37.96h48.67v-38.1Z"></path></g><path class="cls-32" d="M266.86,302.54h5.62v-11.24h-5.62v-3.95h15.5v3.95h-5.6v11.24h5.6v3.95h-15.5v-3.95Z"></path><path class="cls-32" d="M287.62,305.88c-.86-.41-1.52-.98-1.99-1.73-.46-.75-.69-1.63-.69-2.63,0-1.42.43-2.59,1.28-3.5s2.28-1.58,4.29-1.97l6.12-1.27c.56-.13.99-.26,1.3-.41.31-.14.54-.32.68-.54.14-.21.22-.51.22-.87,0-.54-.2-.95-.6-1.23-.4-.28-1.04-.42-1.94-.42h-4.4c-.83,0-1.45.2-1.87.61-.42.41-.62,1.01-.62,1.81v.72h-4.28v-1.12c0-1.24.26-2.31.79-3.19s1.3-1.57,2.32-2.04,2.26-.72,3.73-.72h4.19c2.25,0,3.97.48,5.17,1.43,1.2.96,1.79,2.32,1.79,4.09,0,1.05-.17,1.94-.51,2.67-.34.73-.87,1.31-1.57,1.76-.7.45-1.63.78-2.77,1l-7.18,1.43c-.62.14-1.09.34-1.4.57-.31.24-.47.56-.47.96s.14.73.42.95c.28.21.71.32,1.3.32h12.08v3.95h-12.29c-1.21,0-2.25-.2-3.11-.61Z"></path><g class="cls-20"><polygon class="cls-4" points="199.98 396.94 134.61 434.19 133.35 430.88 198.71 393.62 199.98 396.94"></polygon><path class="cls-31" d="M161.75,431.93h-48.51c-.06.06-.09.1-.14.16v41.89h48.65v-42.05Z"></path></g><path class="cls-32" d="M121.23,458.34h5.62v-11.24h-5.62v-3.95h15.5v3.95h-5.6v11.24h5.6v3.95h-15.5v-3.95Z"></path><path class="cls-32" d="M139.67,458.34h7.13v-10.09c0-.33-.08-.6-.24-.79s-.4-.29-.72-.29c-.21,0-.43.04-.66.12-.23.08-.51.18-.83.31l-4.23,1.36v-4.02l3.88-1.39c.57-.22,1.12-.39,1.65-.49.53-.1,1.04-.16,1.53-.16.81,0,1.51.18,2.09.53.58.35,1.03.85,1.34,1.49.31.65.47,1.41.47,2.29v11.12h6.27v3.95h-17.68v-3.95Z"></path></g></g></svg>