<svg xmlns="http://www.w3.org/2000/svg" xmlns:xlink="http://www.w3.org/1999/xlink" id="_13-GBR" viewBox="0 0 1080 666.44"><defs><style>.cls-1,.cls-2,.cls-3{fill:none;}.cls-2{stroke:#a0a0a0;stroke-width:10.05px;}.cls-2,.cls-3{stroke-miterlimit:10;}.cls-4{fill:#444;}.cls-5{fill:#e6e6e6;}.cls-3{stroke:#606060;stroke-width:7.24px;}.cls-6{font-size:25.49px;}.cls-6,.cls-7{fill:#c6c6c6;font-family:MGPText-Bold, 'MGP Text';font-weight:700;}.cls-7{font-size:25.49px;}.cls-8{fill:#f6f6f6;}.cls-9{fill:#323232;font-size:30.78px;}.cls-9,.cls-10{font-family:MGPDisplayVF-Medium, 'MGP Display VF';font-variation-settings:'wght' 500, 'wdth' 100;font-weight:500;}.cls-10{font-size:24.84px;}.cls-10,.cls-11{fill:#ededed;}.cls-12{clip-path:url(#clippath-17);}.cls-13{clip-path:url(#clippath-19);}.cls-14{clip-path:url(#clippath-11);}.cls-15{clip-path:url(#clippath-16);}.cls-16{clip-path:url(#clippath-18);}.cls-17{clip-path:url(#clippath-10);}.cls-18{clip-path:url(#clippath-15);}.cls-19{clip-path:url(#clippath-13);}.cls-20{clip-path:url(#clippath-14);}.cls-21{clip-path:url(#clippath-12);}.cls-22{clip-path:url(#clippath-20);}.cls-23{clip-path:url(#clippath-21);}.cls-24{clip-path:url(#clippath-22);}.cls-25{clip-path:url(#clippath-23);}.cls-26{clip-path:url(#clippath-24);}.cls-27{clip-path:url(#clippath-1);}.cls-28{clip-path:url(#clippath-3);}.cls-29{clip-path:url(#clippath-4);}.cls-30{clip-path:url(#clippath-2);}.cls-31{clip-path:url(#clippath-7);}.cls-32{clip-path:url(#clippath-6);}.cls-33{clip-path:url(#clippath-9);}.cls-34{clip-path:url(#clippath-8);}.cls-35{clip-path:url(#clippath-5);}.cls-36{letter-spacing:0em;}.cls-37{fill:#fafafa;}.cls-38{fill:red;}.cls-39{letter-spacing:.03em;}.cls-40{letter-spacing:.02em;}.cls-41{letter-spacing:.02em;}.cls-42{clip-path:url(#clippath);}</style><clipPath id="clippath"><rect class="cls-1" y="-229" width="1080" height="1080"></rect></clipPath><clipPath id="clippath-1"><rect class="cls-1" y="-229" width="1080" height="1080"></rect></clipPath><clipPath id="clippath-2"><rect class="cls-1" y="-229" width="1080" height="1080"></rect></clipPath><clipPath id="clippath-3"><rect class="cls-1" y="-229" width="1080" height="1080"></rect></clipPath><clipPath id="clippath-4"><rect class="cls-1" y="-229" width="1080" height="1080"></rect></clipPath><clipPath id="clippath-5"><rect class="cls-1" y="-229" width="1080" height="1080"></rect></clipPath><clipPath id="clippath-6"><rect class="cls-1" y="-229" width="1080" height="1080"></rect></clipPath><clipPath id="clippath-7"><rect class="cls-1" y="-229" width="1080" height="1080"></rect></clipPath><clipPath id="clippath-8"><rect class="cls-1" y="-229" width="1080" height="1080"></rect></clipPath><clipPath id="clippath-9"><rect class="cls-1" y="-229" width="1080" height="1080"></rect></clipPath><clipPath id="clippath-10"><rect class="cls-1" y="-229" width="1080" height="1080"></rect></clipPath><clipPath id="clippath-11"><rect class="cls-1" y="-229" width="1080" height="1080"></rect></clipPath><clipPath id="clippath-12"><rect class="cls-1" y="-229" width="1080" height="1080"></rect></clipPath><clipPath id="clippath-13"><rect class="cls-1" y="-229" width="1080" height="1080"></rect></clipPath><clipPath id="clippath-14"><rect class="cls-1" y="-229" width="1080" height="1080"></rect></clipPath><clipPath id="clippath-15"><rect class="cls-1" y="-229" width="1080" height="1080"></rect></clipPath><clipPath id="clippath-16"><rect class="cls-1" y="-229" width="1080" height="1080"></rect></clipPath><clipPath id="clippath-17"><rect class="cls-1" y="-229" width="1080" height="1080"></rect></clipPath><clipPath id="clippath-18"><rect class="cls-1" y="-229" width="1080" height="1080"></rect></clipPath><clipPath id="clippath-19"><rect class="cls-1" y="-229" width="1080" height="1080"></rect></clipPath><clipPath id="clippath-20"><rect class="cls-1" y="-229" width="1080" height="1080"></rect></clipPath><clipPath id="clippath-21"><rect class="cls-1" y="-229" width="1080" height="1080"></rect></clipPath><clipPath id="clippath-22"><rect class="cls-1" y="-229" width="1080" height="1080"></rect></clipPath><clipPath id="clippath-23"><rect class="cls-1" y="-229" width="1080" height="1080"></rect></clipPath><clipPath id="clippath-24"><rect class="cls-1" y="-229" width="1080" height="1080"></rect></clipPath></defs><g id="_13-GBR-2"><g class="cls-42"><g class="cls-27"><path class="cls-3" d="M215.51,439.68c15.13.98,29.8,4.25,46.18,7.25,11.74,2.15,17.98,7.62,19.67,23.49,1.35,12.68-6.39,44.61-28.34,43.06-18.6-1.31-38.74-12.23-38.74-12.23,4.23,1.38-10.85-10.38-24.21-15.47"></path></g><g class="cls-30"><path class="cls-2" d="M712.38,583.16c-45.37-37.03-155.92-126.16-156.52-126.67-18.21-15.32-33.03-22.76-24.05-67.35,9.95-49.44,16.43-65.41-3.23-96.38-21.81-34.37-60.1-80.57-60.1-80.57,0,0-18.53-21.83,7.94-29.3,27.91-7.88,53.79-10.56,57.33-21.4,3.95-12.1-30.38-26.33-49.17-30.55-42.15-9.48-48.58-10.57-66.25,9.51-18.49,21.01-185.12,192.87-228.95,239.01-10.06,10.59-14.67,22.35-12.34,36.77,1.76,10.91,8.34,24.02,24.61,24.55,38.39,1.24,54.49,9.41,55.95,31.08,1.48,21.89-13.71,29.96-26.56,31.32-5.89.62-11.79-1.31-17.19-3.75,0,0-17.39-10.39-44.87-24.63-42.9-22.22-71.67-53.16-77.56-85.9-2.21-12.29-3.09-30.15-6.46-69.37-6.01-69.89-9.99-156.6-9.99-156.6,0,0-4.56-43.66,35.29-58.16,32.68-11.9,55.23-17.32,87.39-21.91,44.07-6.29,112.97-4.82,131.98-5.37,32.7-.95,44.48-5.81,63.35-18.15,13.73-8.98,25.01-9.47,52.07,3.74,69.57,33.97,73.68-3.24,99.31-12.87,20.25-7.61,42.64,1.42,51.36,22.77,8.77,21.48,17.62,35.58,33.29,49.13,19.33,16.71,245.83,136.76,296.37,171.06,45.38,30.8,80.62,52.14,80.52,80.96-.13,38.11-37.88,47.3-51.36,53.88-22.79,11.13-55.2,35.57-72.06,49.93-12.57,10.7-64.41,49.7-66.28,56.25-2.01,7.05,2.82,9.44,10.7,18.18,9.79,10.85,9.92,20.73,5.69,27.05-4.2,6.27-36.44,33.92-69.82,35.82-13.02.74-24.1-9.14-36.65-20.55l-13.7-11.51Z"></path></g><polygon class="cls-5" points="577.06 82.93 575.77 78.93 692.11 37.74 693.4 41.74 577.06 82.93"></polygon><polygon class="cls-38" points="732.12 14.54 677.78 14.54 677.62 14.7 677.62 59.24 732.12 59.24 732.12 14.54"></polygon><text class="cls-10" transform="translate(685.03 46.04)"><tspan class="cls-40" x="0" y="0">i</tspan><tspan x="18.68" y="0">3</tspan></text><polygon class="cls-5" points="461.16 108.29 441.93 185.32 438.59 183.85 457.82 106.83 461.16 108.29"></polygon><g class="cls-28"><path class="cls-38" d="M450.74,178h-50.38c-.06.06-.09.1-.15.17v43.51h50.53v-43.67Z"></path></g><text class="cls-10" transform="translate(407.68 209.51)"><tspan class="cls-40" x="0" y="0">i</tspan><tspan x="18.68" y="0">1</tspan></text><g class="cls-29"><rect class="cls-5" x="36.25" y="248.12" width="60.65" height="3.61" transform="translate(-31.07 10.42) rotate(-7.27)"></rect><path class="cls-38" d="M66.07,229.64H15.67c-.06.06-.09.09-.15.15v39.42h50.55v-39.57Z"></path></g><text class="cls-10" transform="translate(21.03 258.82)"><tspan class="cls-41" x="0" y="0">i</tspan><tspan x="18.68" y="0">2</tspan></text><g class="cls-35"><line class="cls-11" x1="720.17" y1="574" x2="687.77" y2="611.43"></line><polygon class="cls-5" points="689.38 612.62 686.16 610.25 718.56 572.82 721.78 575.18 689.38 612.62"></polygon><path class="cls-38" d="M712.47,604.55h-54.56c-.06.06-.1.1-.16.16v43.25h54.73v-43.41Z"></path></g><text class="cls-10" transform="translate(671.71 635.39)"><tspan class="cls-39" x="0" y="0">f</tspan><tspan class="cls-36" x="19.15" y="0">l</tspan></text><g class="cls-32"><rect class="cls-37" x="662.1" y="619.02" width="4.35" height="28.94"></rect><rect x="662.1" y="623.84" width="4.35" height="4.82"></rect><rect x="662.1" y="633.49" width="4.35" height="4.82"></rect><rect x="662.1" y="643.14" width="4.35" height="4.82"></rect><rect class="cls-37" x="657.75" y="619.02" width="4.35" height="28.94"></rect><rect x="657.75" y="619.02" width="4.35" height="4.82"></rect><rect x="657.75" y="628.67" width="4.35" height="4.82"></rect><rect x="657.75" y="638.31" width="4.35" height="4.82"></rect><rect class="cls-37" x="662.1" y="604.55" width="4.35" height="14.47"></rect><rect x="662.1" y="604.55" width="4.35" height="4.82"></rect><rect x="662.1" y="614.2" width="4.35" height="4.82"></rect><rect class="cls-37" x="657.75" y="604.55" width="4.35" height="14.47"></rect><rect x="657.75" y="609.37" width="4.35" height="4.82"></rect><polygon class="cls-11" points="875.95 223.39 879.17 225.12 857.9 270.92 854.68 269.19 875.95 223.39"></polygon><path class="cls-8" d="M900.54,196.55l-39.83,2c-.05.05-.08.09-.13.14v36.68l39.96-2v-36.82Z"></path></g><text class="cls-9" transform="translate(867.95 226.65)"><tspan x="0" y="0">s</tspan></text><g class="cls-31"><path class="cls-4" d="M526.53,207.99c0,9.51-7.71,17.22-17.22,17.22s-17.22-7.71-17.22-17.22,7.71-17.22,17.22-17.22,17.22,7.71,17.22,17.22"></path></g><text class="cls-7" transform="translate(502.83 216.13)"><tspan x="0" y="0">3</tspan></text><g class="cls-34"><path class="cls-4" d="M434.15,99.3c0,9.51-7.71,17.22-17.22,17.22s-17.22-7.71-17.22-17.22,7.71-17.22,17.22-17.22,17.22,7.71,17.22,17.22"></path></g><text class="cls-7" transform="translate(410.45 107.45)"><tspan x="0" y="0">5</tspan></text><g class="cls-33"><path class="cls-4" d="M227.37,407.47c0,9.51-7.71,17.22-17.22,17.22s-17.22-7.71-17.22-17.22,7.71-17.22,17.22-17.22,17.22,7.71,17.22,17.22"></path></g><text class="cls-7" transform="translate(203.68 415.61)"><tspan x="0" y="0">6</tspan></text><g class="cls-17"><path class="cls-4" d="M318.77,504.44c0,9.51-7.71,17.22-17.22,17.22s-17.22-7.71-17.22-17.22,7.71-17.22,17.22-17.22,17.22,7.71,17.22,17.22"></path></g><text class="cls-7" transform="translate(295.07 512.58)"><tspan x="0" y="0">7</tspan></text><g class="cls-14"><path class="cls-4" d="M106.41,453.01c0,9.51-7.71,17.22-17.22,17.22s-17.22-7.71-17.22-17.22,7.71-17.22,17.22-17.22,17.22,7.71,17.22,17.22"></path></g><text class="cls-7" transform="translate(82.72 461.16)"><tspan x="0" y="0">8</tspan></text><g class="cls-21"><path class="cls-4" d="M76.99,102.41c0,9.51-7.71,17.22-17.22,17.22s-17.22-7.71-17.22-17.22,7.71-17.22,17.22-17.22,17.22,7.71,17.22,17.22"></path></g><text class="cls-7" transform="translate(53.3 110.56)"><tspan x="0" y="0">9</tspan></text><g class="cls-19"><path class="cls-4" d="M373.17,40.44c0,9.51-7.71,17.22-17.22,17.22s-17.22-7.71-17.22-17.22,7.71-17.22,17.22-17.22,17.22,7.71,17.22,17.22"></path></g><text class="cls-7" transform="translate(342.68 48.59)"><tspan x="0" y="0">10</tspan></text><g class="cls-20"><path class="cls-4" d="M432.88,18.74c0,9.51-7.71,17.22-17.22,17.22s-17.22-7.71-17.22-17.22,7.71-17.22,17.22-17.22,17.22,7.71,17.22,17.22"></path></g><text class="cls-7" transform="translate(402.39 26.89)"><tspan x="0" y="0">11</tspan></text><g class="cls-18"><path class="cls-4" d="M513.33,42.5c.34,9.5-7.08,17.48-16.58,17.83-9.5.34-17.48-7.08-17.83-16.58-.34-9.5,7.08-17.48,16.58-17.83,9.5-.34,17.48,7.08,17.83,16.58"></path></g><text class="cls-6" transform="translate(482.96 51.91) rotate(-2.06)"><tspan x="0" y="0">12</tspan></text><g class="cls-15"><path class="cls-4" d="M659.44,88c0,9.51-7.71,17.22-17.22,17.22s-17.22-7.71-17.22-17.22,7.71-17.22,17.22-17.22,17.22,7.71,17.22,17.22"></path></g><text class="cls-7" transform="translate(628.97 96.12)"><tspan x="0" y="0">14</tspan></text><g class="cls-12"><path class="cls-4" d="M984.45,378.8c0,9.51-7.71,17.22-17.22,17.22s-17.22-7.71-17.22-17.22,7.71-17.22,17.22-17.22,17.22,7.71,17.22,17.22"></path></g><text class="cls-7" transform="translate(953.97 386.95)"><tspan x="0" y="0">15</tspan></text><g class="cls-16"><path class="cls-4" d="M876.75,538.57c0,9.51-7.71,17.22-17.22,17.22s-17.22-7.71-17.22-17.22,7.71-17.22,17.22-17.22,17.22,7.71,17.22,17.22"></path></g><text class="cls-7" transform="translate(846.26 546.71)"><tspan x="0" y="0">16</tspan></text><g class="cls-13"><path class="cls-4" d="M870.19,605.98c0,9.51-7.71,17.22-17.22,17.22s-17.22-7.71-17.22-17.22,7.71-17.22,17.22-17.22,17.22,7.71,17.22,17.22"></path></g><text class="cls-7" transform="translate(839.7 614.12)"><tspan x="0" y="0">17</tspan></text><g class="cls-22"><path class="cls-4" d="M778.11,647.27c0,9.51-7.71,17.22-17.22,17.22s-17.22-7.71-17.22-17.22,7.71-17.22,17.22-17.22,17.22,7.71,17.22,17.22"></path></g><text class="cls-7" transform="translate(747.62 655.42)"><tspan x="0" y="0">18</tspan></text><g class="cls-23"><path class="cls-4" d="M525.03,325.75c0,9.51-7.71,17.22-17.22,17.22s-17.22-7.71-17.22-17.22,7.71-17.22,17.22-17.22,17.22,7.71,17.22,17.22"></path></g><text class="cls-7" transform="translate(501.33 333.9)"><tspan x="0" y="0">2</tspan></text><g class="cls-24"><path class="cls-4" d="M596.95,155.03c0,9.51-7.71,17.22-17.22,17.22s-17.22-7.71-17.22-17.22,7.71-17.22,17.22-17.22,17.22,7.71,17.22,17.22"></path></g><text class="cls-7" transform="translate(573.25 163.17)"><tspan x="0" y="0">4</tspan></text><g class="cls-25"><path class="cls-4" d="M605.16,19.67c0,9.51-7.71,17.22-17.22,17.22s-17.22-7.71-17.22-17.22,7.71-17.22,17.22-17.22,17.22,7.71,17.22,17.22"></path></g><text class="cls-7" transform="translate(574.67 27.81)"><tspan x="0" y="0">13</tspan></text><g class="cls-26"><path class="cls-4" d="M519.58,443.64c0,9.51-7.71,17.22-17.22,17.22s-17.22-7.71-17.22-17.22,7.71-17.22,17.22-17.22,17.22,7.71,17.22,17.22"></path></g><text class="cls-7" transform="translate(495.88 451.79)"><tspan x="0" y="0">1</tspan></text></g></g></svg>