<svg xmlns="http://www.w3.org/2000/svg" xmlns:xlink="http://www.w3.org/1999/xlink" id="_11-NLD" viewBox="0 0 1080 851.09"><defs><style>.cls-1,.cls-2,.cls-3{fill:none;}.cls-2{stroke:#a0a0a0;stroke-width:10.17px;}.cls-2,.cls-3{stroke-miterlimit:10;}.cls-4{font-size:24.44px;}.cls-4,.cls-5{font-family:MGPDisplayVF-Medium, 'MGP Display VF';font-variation-settings:'wght' 500, 'wdth' 100;font-weight:500;}.cls-4,.cls-6{fill:#ededed;}.cls-7{fill:#444;}.cls-8{font-size:25.8px;}.cls-8,.cls-9{fill:#c6c6c6;font-family:MGPText-Bold, 'MGP Text';font-weight:700;}.cls-9{font-size:25.8px;}.cls-10{fill:#e6e6e6;}.cls-3{stroke:#606060;stroke-width:7px;}.cls-11{fill:#f6f6f6;}.cls-5{fill:#323232;font-size:30.28px;}.cls-12{clip-path:url(#clippath-17);}.cls-13{clip-path:url(#clippath-19);}.cls-14{clip-path:url(#clippath-11);}.cls-15{clip-path:url(#clippath-16);}.cls-16{clip-path:url(#clippath-18);}.cls-17{clip-path:url(#clippath-10);}.cls-18{clip-path:url(#clippath-15);}.cls-19{clip-path:url(#clippath-13);}.cls-20{clip-path:url(#clippath-14);}.cls-21{clip-path:url(#clippath-12);}.cls-22{clip-path:url(#clippath-20);}.cls-23{clip-path:url(#clippath-1);}.cls-24{clip-path:url(#clippath-3);}.cls-25{clip-path:url(#clippath-4);}.cls-26{clip-path:url(#clippath-2);}.cls-27{clip-path:url(#clippath-7);}.cls-28{clip-path:url(#clippath-6);}.cls-29{clip-path:url(#clippath-9);}.cls-30{clip-path:url(#clippath-8);}.cls-31{clip-path:url(#clippath-5);}.cls-32{fill:#fafafa;}.cls-33{fill:red;}.cls-34{letter-spacing:.03em;}.cls-35{letter-spacing:.02em;}.cls-36{clip-path:url(#clippath);}</style><clipPath id="clippath"><rect class="cls-1" y="-111.5" width="1080" height="1080"></rect></clipPath><clipPath id="clippath-1"><rect class="cls-1" y="-111.5" width="1080" height="1080"></rect></clipPath><clipPath id="clippath-2"><rect class="cls-1" y="-111.5" width="1080" height="1080"></rect></clipPath><clipPath id="clippath-3"><rect class="cls-1" y="-111.5" width="1080" height="1080"></rect></clipPath><clipPath id="clippath-4"><rect class="cls-1" y="-111.5" width="1080" height="1080"></rect></clipPath><clipPath id="clippath-5"><rect class="cls-1" y="-111.5" width="1080" height="1080"></rect></clipPath><clipPath id="clippath-6"><rect class="cls-1" y="-111.5" width="1080" height="1080"></rect></clipPath><clipPath id="clippath-7"><rect class="cls-1" y="-111.5" width="1080" height="1080"></rect></clipPath><clipPath id="clippath-8"><rect class="cls-1" y="-111.5" width="1080" height="1080"></rect></clipPath><clipPath id="clippath-9"><rect class="cls-1" y="-111.5" width="1080" height="1080"></rect></clipPath><clipPath id="clippath-10"><rect class="cls-1" y="-111.5" width="1080" height="1080"></rect></clipPath><clipPath id="clippath-11"><rect class="cls-1" y="-111.5" width="1080" height="1080"></rect></clipPath><clipPath id="clippath-12"><rect class="cls-1" y="-111.5" width="1080" height="1080"></rect></clipPath><clipPath id="clippath-13"><rect class="cls-1" y="-111.5" width="1080" height="1080"></rect></clipPath><clipPath id="clippath-14"><rect class="cls-1" y="-111.5" width="1080" height="1080"></rect></clipPath><clipPath id="clippath-15"><rect class="cls-1" x="-6.74" y="-98.87" width="1080" height="1080"></rect></clipPath><clipPath id="clippath-16"><rect class="cls-1" y="-111.5" width="1080" height="1080"></rect></clipPath><clipPath id="clippath-17"><rect class="cls-1" y="-111.5" width="1080" height="1080"></rect></clipPath><clipPath id="clippath-18"><rect class="cls-1" y="-111.5" width="1080" height="1080"></rect></clipPath><clipPath id="clippath-19"><rect class="cls-1" y="-111.5" width="1080" height="1080"></rect></clipPath><clipPath id="clippath-20"><rect class="cls-1" y="-111.5" width="1080" height="1080"></rect></clipPath></defs><path class="cls-3" d="M130.27,406.61c-28.95-1.77-81.9,17.31-36.04-73.33"></path><g id="_12-GER"><g id="_12-GER-2"><g class="cls-36"><g class="cls-23"><path class="cls-3" d="M826.94,408.07s59.01,1.78,71.78,19.27c12.77,17.5,6.39,33.84,6.39,33.84,0,0-2.4,21.68-40.73,28.58-14.45,2.6-26.45,2.6-26.45,2.6"></path></g><g class="cls-26"><path class="cls-2" d="M306.26,404.49s273.95.5,323.97.59c50.02.09,162.79,2.08,183,3.42,22.39,1.48,37.07,2.49,51.87,16.28,8.11,7.56,17.59,29.63,7.1,46.04-9.92,15.54-20.26,18.09-31.83,20.49-11.58,2.4-69.07,6.87-92.66,68.54-10.66,27.86-5.06,48.27,5.78,63.28,11.28,15.61,22.81,23.36,27.39,48.97,4.58,25.62-7.31,59.98-37.73,63.38-30.62,3.43-55.5-15.86-53.77-46.41.67-11.77,6.2-24.88,13.35-40.48,7.42-16.19,10.46-30.11,6.41-47.23-4.05-17.12-7.68-36.71-20-55.79-12.32-19.08-23.78-26.5-42.48-28.22-18.7-1.72-49.33.16-52.16.31-2.83.15-19.74,2.13-29.6,14.13-9.86,12.01-11.04,19.86-14.69,35.72-3.65,15.86-12.23,58.85-13.73,69.76-5.6,40.73,1.1,99.97,59.18,136.68,37.76,23.86,81.87,21.01,99.46,19.99,15.29-.88,135.51-12.64,149.68-15.96,22.73-5.32,85.99-19.89,90.93-21.21,4.94-1.32,15.89-4.16,24.43-18.58,8.55-14.41,15.49-24.25,19.98-38.59,4.48-14.35,11.23-32.07,12.53-51.91,1.3-19.84,1.89-121.27,2.01-126.8.11-5.53,1.13-15.84-5.86-27.26-7-11.41-45.36-70.75-51.02-78.99-5.66-8.24-12.43-22.12-26.07-28.16-13.64-6.04-22.49-6.89-37.43-8.51-14.94-1.62-114.6-6.5-134.72-6.87-20.11-.37-32.19.11-44.42-3.75-12.23-3.86-18.86-7.08-33.89-17.83-6.93-4.96-75.14-54.28-143.17-108.98-79.42-63.85-157.71-135.83-195.48-166.3-8.59-6.93-33.71-20.58-58.29-21.74-26.72-1.27-49.62,9.62-63.14,23.84-11.25,11.83-20.53,36.17-25.46,48.61-4.93,12.45-72.89,188.03-76.84,197.99-3.95,9.96-15.9,36.76-11.71,49.12,4.19,12.36,7.36,19.61,19.15,27.64,11.79,8.03,18.88,4.56,48.98,5.35,30.1.79,150.95-.56,150.95-.56Z"></path></g><g class="cls-24"><path class="cls-7" d="M860.82,452.92c0,9.62-7.8,17.42-17.42,17.42s-17.42-7.8-17.42-17.42,7.8-17.42,17.42-17.42,17.42,7.8,17.42,17.42"></path></g><text class="cls-8" transform="translate(836.81 461.18)"><tspan x="0" y="0">1</tspan></text><g class="cls-25"><path class="cls-7" d="M755.47,509.71c0,9.62-7.8,17.42-17.42,17.42s-17.42-7.8-17.42-17.42,7.8-17.42,17.42-17.42,17.42,7.8,17.42,17.42"></path></g><text class="cls-8" transform="translate(731.46 517.98)"><tspan x="0" y="0">2</tspan></text><g class="cls-31"><path class="cls-7" d="M754.19,703.15c-.38,9.62-8.48,17.1-18.1,16.73-9.62-.38-17.1-8.48-16.73-18.1.38-9.61,8.48-17.1,18.1-16.73,9.62.38,17.1,8.48,16.73,18.1"></path></g><text class="cls-9" transform="translate(730 710.63) rotate(2.25)"><tspan x="0" y="0">3</tspan></text><g class="cls-28"><path class="cls-7" d="M687.91,639.86c-.38,9.62-8.48,17.1-18.1,16.73-9.62-.38-17.1-8.48-16.73-18.1.38-9.61,8.48-17.1,18.1-16.73,9.62.38,17.1,8.48,16.73,18.1"></path></g><text class="cls-9" transform="translate(663.74 647.32) rotate(2.25)"><tspan x="0" y="0">4</tspan></text><g class="cls-27"><path class="cls-7" d="M678.37,486.44c-.38,9.62-8.48,17.1-18.1,16.73-9.62-.38-17.1-8.48-16.73-18.1.38-9.61,8.48-17.1,18.1-16.73,9.62.38,17.1,8.48,16.73,18.1"></path></g><text class="cls-9" transform="translate(654.18 493.92) rotate(2.25)"><tspan x="0" y="0">5</tspan></text><g class="cls-30"><path class="cls-7" d="M580.77,492.36c0,9.62-7.8,17.42-17.42,17.42s-17.42-7.8-17.42-17.42,7.8-17.42,17.42-17.42,17.42,7.8,17.42,17.42"></path></g><text class="cls-8" transform="translate(556.76 500.63)"><tspan x="0" y="0">6</tspan></text><g class="cls-29"><path class="cls-7" d="M617.73,814.42c0,9.62-7.8,17.42-17.42,17.42s-17.42-7.8-17.42-17.42,7.8-17.42,17.42-17.42,17.42,7.8,17.42,17.42"></path></g><text class="cls-8" transform="translate(593.73 822.68)"><tspan x="0" y="0">7</tspan></text><g class="cls-17"><path class="cls-7" d="M1041.7,492.14c0,9.62-7.8,17.42-17.43,17.42s-17.42-7.8-17.42-17.42,7.8-17.42,17.42-17.42,17.43,7.8,17.43,17.42"></path></g><text class="cls-8" transform="translate(1017.69 500.4)"><tspan x="0" y="0">9</tspan></text><g class="cls-14"><path class="cls-7" d="M946.57,357.61c0,9.62-7.8,17.42-17.42,17.42s-17.42-7.8-17.42-17.42,7.8-17.42,17.42-17.42,17.42,7.8,17.42,17.42"></path></g><text class="cls-8" transform="translate(915.69 365.87)"><tspan x="0" y="0">10</tspan></text><g class="cls-21"><path class="cls-7" d="M728.14,336.9c0,9.62-7.8,17.42-17.42,17.42s-17.42-7.8-17.42-17.42,7.8-17.42,17.42-17.42,17.42,7.8,17.42,17.42"></path></g><text class="cls-8" transform="translate(697.25 345.17)"><tspan x="0" y="0">11</tspan></text><g class="cls-19"><path class="cls-7" d="M278.42,20.27c0,9.62-7.8,17.42-17.42,17.42s-17.42-7.8-17.42-17.42,7.8-17.42,17.42-17.42,17.42,7.8,17.42,17.42"></path></g><text class="cls-8" transform="translate(247.53 28.54)"><tspan x="0" y="0">12</tspan></text><g class="cls-20"><path class="cls-7" d="M989.52,775.57c0,9.62-7.8,17.42-17.42,17.42s-17.42-7.8-17.42-17.42,7.8-17.42,17.42-17.42,17.42,7.8,17.42,17.42"></path></g><text class="cls-8" transform="translate(965.51 783.84)"><tspan x="0" y="0">8</tspan></text><g class="cls-18"><path class="cls-7" d="M85.98,426.24c0,9.62-7.8,17.42-17.42,17.42s-17.42-7.8-17.42-17.42,7.8-17.42,17.42-17.42,17.42,7.8,17.42,17.42"></path></g><text class="cls-8" transform="translate(55.08 434.51)"><tspan x="0" y="0">13</tspan></text><line class="cls-6" x1="306.19" y1="429.9" x2="303.77" y2="387.17"></line><rect class="cls-10" x="303.21" y="387.13" width="3.55" height="42.8" transform="translate(-22.65 17.93) rotate(-3.25)"></rect><g class="cls-15"><path class="cls-33" d="M330.69,423.75h-53.68c-.06.06-.1.1-.16.16v42.55h53.84v-42.71Z"></path></g><text class="cls-4" transform="translate(290.56 454.12)"><tspan class="cls-34" x="0" y="0">f</tspan><tspan x="18.84" y="0">l</tspan></text><g class="cls-12"><rect class="cls-32" x="281.14" y="437.99" width="4.28" height="28.47"></rect><rect x="281.14" y="442.74" width="4.28" height="4.75"></rect><rect x="281.14" y="452.23" width="4.28" height="4.75"></rect><rect x="281.14" y="461.72" width="4.28" height="4.75"></rect><rect class="cls-32" x="276.85" y="437.99" width="4.28" height="28.47"></rect><rect x="276.85" y="437.99" width="4.28" height="4.75"></rect><rect x="276.85" y="447.48" width="4.28" height="4.75"></rect><rect x="276.85" y="456.97" width="4.28" height="4.75"></rect><rect class="cls-32" x="281.14" y="423.75" width="4.28" height="14.24"></rect><rect x="281.14" y="423.75" width="4.28" height="4.75"></rect><rect x="281.14" y="433.25" width="4.28" height="4.75"></rect><rect class="cls-32" x="276.85" y="423.75" width="4.28" height="14.24"></rect><rect x="276.85" y="428.5" width="4.28" height="4.75"></rect><rect class="cls-6" x="560.8" y="403.25" width="46" height="3.55" transform="translate(176.48 987.22) rotate(-89.77)"></rect><path class="cls-11" d="M600.51,421.92h-42.14c-.05.05-.08.08-.13.14v36.09h42.26v-36.23Z"></path></g><text class="cls-5" transform="translate(568.42 451.57)"><tspan x="0" y="0">s</tspan></text><g class="cls-16"><rect class="cls-10" x="530.74" y="254.67" width="62.65" height="3.55" transform="translate(31.77 573.41) rotate(-55.39)"></rect><path class="cls-33" d="M604.38,207.66h-53.46c-.06.07-.1.1-.16.17v43.82h53.62v-43.98Z"></path></g><text class="cls-4" transform="translate(558.02 238.68)"><tspan class="cls-35" x="0" y="0">i</tspan><tspan x="18.38" y="0">3</tspan></text><g class="cls-13"><polygon class="cls-10" points="809.88 596.18 752.98 647.87 750.99 644.84 807.89 593.16 809.88 596.18"></polygon><path class="cls-33" d="M828.52,583.96h-49.56c-.06.06-.09.1-.15.16v42.8h49.71v-42.97Z"></path></g><text class="cls-4" transform="translate(786.13 614.97)"><tspan class="cls-35" x="0" y="0">i</tspan><tspan x="18.38" y="0">1</tspan></text><g class="cls-22"><rect class="cls-10" x="799.45" y="768.75" width="3.55" height="59.67" transform="translate(-69.79 76.75) rotate(-5.26)"></rect><path class="cls-33" d="M825.92,809.25h-49.59c-.06.06-.09.09-.15.15v38.78h49.73v-38.93Z"></path></g><text class="cls-4" transform="translate(781.58 837.98)"><tspan class="cls-35" x="0" y="0">i</tspan><tspan x="18.38" y="0">2</tspan></text></g></g></g></svg>