<svg xmlns="http://www.w3.org/2000/svg" xmlns:xlink="http://www.w3.org/1999/xlink" viewBox="0 0 1080 978.64"><defs><style>.cls-1,.cls-2,.cls-3{fill:none;}.cls-4{font-size:26.06px;}.cls-4,.cls-5,.cls-6{fill:#ededed;}.cls-4,.cls-5,.cls-7{font-family:MGPDisplayVF-Medium, 'MGP Display VF';font-variation-settings:'wght' 500, 'wdth' 100;font-weight:500;}.cls-2{stroke:#a0a0a0;stroke-width:10px;}.cls-2,.cls-3{stroke-miterlimit:10;}.cls-8{fill:#444;}.cls-9{fill:#e6e6e6;}.cls-3{stroke:#606060;stroke-width:7px;}.cls-10{fill:#f6f6f6;}.cls-11{fill:#c6c6c6;font-family:MGPText-Bold, 'MGP Text';font-size:27.42px;font-weight:700;}.cls-5{font-size:26.06px;letter-spacing:.03em;}.cls-12{clip-path:url(#clippath-17);}.cls-13{clip-path:url(#clippath-19);}.cls-14{clip-path:url(#clippath-11);}.cls-15{clip-path:url(#clippath-16);}.cls-16{clip-path:url(#clippath-18);}.cls-17{clip-path:url(#clippath-10);}.cls-18{clip-path:url(#clippath-15);}.cls-19{clip-path:url(#clippath-13);}.cls-20{clip-path:url(#clippath-14);}.cls-21{clip-path:url(#clippath-12);}.cls-22{clip-path:url(#clippath-20);}.cls-23{clip-path:url(#clippath-21);}.cls-24{clip-path:url(#clippath-22);}.cls-25{clip-path:url(#clippath-23);}.cls-26{clip-path:url(#clippath-24);}.cls-27{clip-path:url(#clippath-1);}.cls-28{clip-path:url(#clippath-3);}.cls-29{clip-path:url(#clippath-4);}.cls-30{clip-path:url(#clippath-7);}.cls-31{clip-path:url(#clippath-6);}.cls-32{clip-path:url(#clippath-9);}.cls-33{clip-path:url(#clippath-8);}.cls-34{clip-path:url(#clippath-5);}.cls-35{fill:#fafafa;}.cls-36{fill:red;}.cls-37{letter-spacing:.02em;}.cls-38{letter-spacing:.02em;}.cls-39{clip-path:url(#clippath);}.cls-7{fill:#323232;font-size:32.28px;letter-spacing:.03em;}</style><clipPath id="clippath"><rect class="cls-1" y="-46.46" width="1080" height="1080"></rect></clipPath><clipPath id="clippath-1"><rect class="cls-1" y="-46.46" width="1080" height="1080"></rect></clipPath><clipPath id="clippath-3"><rect class="cls-1" y="-46.46" width="1080" height="1080"></rect></clipPath><clipPath id="clippath-4"><rect class="cls-1" y="-46.46" width="1080" height="1080"></rect></clipPath><clipPath id="clippath-5"><rect class="cls-1" y="-46.46" width="1080" height="1080"></rect></clipPath><clipPath id="clippath-6"><rect class="cls-1" y="-46.46" width="1080" height="1080"></rect></clipPath><clipPath id="clippath-7"><rect class="cls-1" y="-46.46" width="1080" height="1080"></rect></clipPath><clipPath id="clippath-8"><rect class="cls-1" y="-46.46" width="1080" height="1080"></rect></clipPath><clipPath id="clippath-9"><rect class="cls-1" y="-46.46" width="1080" height="1080"></rect></clipPath><clipPath id="clippath-10"><rect class="cls-1" y="-46.46" width="1080" height="1080"></rect></clipPath><clipPath id="clippath-11"><rect class="cls-1" y="-46.46" width="1080" height="1080"></rect></clipPath><clipPath id="clippath-12"><rect class="cls-1" y="-46.46" width="1080" height="1080"></rect></clipPath><clipPath id="clippath-13"><rect class="cls-1" y="-46.46" width="1080" height="1080"></rect></clipPath><clipPath id="clippath-14"><rect class="cls-1" y="-46.46" width="1080" height="1080"></rect></clipPath><clipPath id="clippath-15"><rect class="cls-1" y="-46.46" width="1080" height="1080"></rect></clipPath><clipPath id="clippath-16"><rect class="cls-1" y="-46.46" width="1080" height="1080"></rect></clipPath><clipPath id="clippath-17"><rect class="cls-1" y="-46.46" width="1080" height="1080"></rect></clipPath><clipPath id="clippath-18"><rect class="cls-1" y="-46.46" width="1080" height="1080"></rect></clipPath><clipPath id="clippath-19"><rect class="cls-1" y="-46.46" width="1080" height="1080"></rect></clipPath><clipPath id="clippath-20"><rect class="cls-1" y="-46.46" width="1080" height="1080"></rect></clipPath><clipPath id="clippath-21"><rect class="cls-1" y="-46.46" width="1080" height="1080"></rect></clipPath><clipPath id="clippath-22"><rect class="cls-1" y="-46.46" width="1080" height="1080"></rect></clipPath><clipPath id="clippath-23"><rect class="cls-1" y="-46.46" width="1080" height="1080"></rect></clipPath><clipPath id="clippath-24"><rect class="cls-1" y="-46.46" width="1080" height="1080"></rect></clipPath></defs><g id="_11-NLD"><g id="_12-GER"><path class="cls-2" d="M666.99,159.94h178.84c8.72,0,24.6-3.72,29.05,23.98,4.45,27.7,9.49,61.59,10.65,66.82s-2.21,24.02-22.91,24.66c-20.7.64-25.4,6.08-25.08,28.49.32,22.41.75,87.93.32,106.49s.75,50.58-4.48,80.24c-5.23,29.66-16.22,72.24-24.22,91.66s-34.79,69.04-38.41,74.38c-3.63,5.34-21.98,14.62-34.57,20.81-12.59,6.19-34.25,14.3-46.63,21.88s-15.47,13.13-10.67,20.17c4.8,7.04,7.68,10.88,10.78,15.15s5.76,12.48-4.05,20.06-48.02,38.41-61.57,49.94c-13.55,11.52-66.79,56.34-84.03,70s-33.35,27.96-53.84,46.42c-20.49,18.46-36.39,13.02-42.68,8.54s-14.3-12.8-12.7-28.17c1.6-15.37,13.13-21.66,31.27-32.65,18.14-10.99,51.22-34.47,58.37-39.7,7.15-5.23,15.58-14.94,6.19-26.57s-13.45-14.83-11.1-22.62c2.35-7.79,13.87-15.37,26.36-27.32,12.48-11.95,93.69-87.61,106.07-99.88,12.38-12.27,76.08-71.17,87.29-81.31,11.2-10.14,22.09-16.75,24.22-38.95s8.43-89.95,9.5-103.61c1.07-13.66,5.44-22.84-5.55-37.99-10.99-15.15-39.38-53.78-45.99-64.34-6.62-10.56-8.11-22.73-.21-43.22,7.9-20.49,7.79-20.06,10.88-29.88s-.21-27.85-27.21-27.53c-27,.32-96.68,1.28-125.28,1.17-28.6-.11-245.54.53-268.8.11-23.26-.43-51.01.43-77.9.43s-42.58-10.78-51.01-26.46c-8.43-15.69-8-28.81,2.67-54.74s29.56-67.55,37.88-77.36c8.32-9.82,23.16-21.34,40.02-23.26,16.86-1.92,39.16-1.39,51.11-1.71s29.77,1.28,36.07,20.91c6.3,19.63-10.78,30.31-29.45,39.91-18.67,9.6-30.31,16.01-38.74,20.49s-15.05,18.14-8.43,27.74c6.62,9.6,21.56,8.11,37.13,7.68s101.91.53,124.42.32,236.42-1.17,236.42-1.17Z"></path><line class="cls-6" x1="667.68" y1="137.56" x2="667.49" y2="172.65"></line><polygon class="cls-9" points="669.38 172.66 665.6 172.64 665.79 137.56 669.58 137.57 669.38 172.66"></polygon><path class="cls-36" d="M696.29,92.02h-57.24l-.17.17v45.37h57.41v-45.54Z"></path><text class="cls-5" transform="translate(653.51 124.38)"><tspan x="0" y="0">FL</tspan></text><rect class="cls-35" x="643.45" y="107.2" width="4.57" height="30.36"></rect><rect x="643.45" y="112.26" width="4.57" height="5.06"></rect><rect x="643.45" y="122.38" width="4.57" height="5.06"></rect><rect x="643.45" y="132.5" width="4.57" height="5.06"></rect><rect class="cls-35" x="638.88" y="107.2" width="4.57" height="30.36"></rect><rect x="638.88" y="107.2" width="4.57" height="5.06"></rect><rect x="638.88" y="117.32" width="4.57" height="5.06"></rect><rect x="638.88" y="127.44" width="4.57" height="5.06"></rect><rect class="cls-35" x="643.45" y="92.02" width="4.57" height="15.18"></rect><rect x="643.45" y="92.02" width="4.57" height="5.06"></rect><rect x="643.45" y="102.14" width="4.57" height="5.06"></rect><rect class="cls-35" x="638.88" y="92.02" width="4.57" height="15.18"></rect><rect x="638.88" y="97.08" width="4.57" height="5.06"></rect><path class="cls-10" d="M522.82,94.88h-52.84l-.16.17v45.64h53v-45.81Z"></path><text class="cls-7" transform="translate(484.11 127.94)"><tspan x="0" y="0">S</tspan></text><line class="cls-6" x1="496.42" y1="140.7" x2="496.23" y2="175.79"></line><polygon class="cls-9" points="498.12 175.79 494.34 175.78 494.53 140.69 498.31 140.7 498.12 175.79"></polygon><line class="cls-6" x1="667.68" y1="137.87" x2="667.49" y2="172.96"></line><polygon class="cls-9" points="669.38 172.97 665.6 172.95 665.79 137.86 669.58 137.88 669.38 172.97"></polygon><path class="cls-36" d="M696.29,92.33h-57.24l-.17.17v45.37h57.41v-45.54Z"></path><text class="cls-5" transform="translate(653.51 124.69)"><tspan x="0" y="0">FL</tspan></text><rect class="cls-35" x="643.45" y="107.51" width="4.57" height="30.36"></rect><rect x="643.45" y="112.57" width="4.57" height="5.06"></rect><rect x="643.45" y="122.69" width="4.57" height="5.06"></rect><rect x="643.45" y="132.81" width="4.57" height="5.06"></rect><rect class="cls-35" x="638.88" y="107.51" width="4.57" height="30.36"></rect><rect x="638.88" y="107.51" width="4.57" height="5.06"></rect><rect x="638.88" y="117.63" width="4.57" height="5.06"></rect><rect x="638.88" y="127.75" width="4.57" height="5.06"></rect><rect class="cls-35" x="643.45" y="92.33" width="4.57" height="15.18"></rect><rect x="643.45" y="92.33" width="4.57" height="5.06"></rect><rect x="643.45" y="102.45" width="4.57" height="5.06"></rect><rect class="cls-35" x="638.88" y="92.33" width="4.57" height="15.18"></rect><rect x="638.88" y="97.39" width="4.57" height="5.06"></rect></g></g><g id="_09-HUN"><g id="_09-HUN-2"><g class="cls-39"><g class="cls-27"><path class="cls-3" d="M456.79,871.98s-29.04,13.73-35.5,25.46c-6.46,11.73-.26,30.98,10.02,38.36,10.28,7.38,24.65,11.73,32.96,6.72,8.31-5.01,26.22-25.48,37.13-35.1"></path></g><g class="cls-28"><path class="cls-8" d="M697.65,323.04c0,10.23-8.29,18.52-18.52,18.52s-18.52-8.29-18.52-18.52,8.29-18.52,18.52-18.52,18.52,8.29,18.52,18.52"></path></g><text class="cls-11" transform="translate(672.14 331.82)"><tspan x="0" y="0">6</tspan></text><g class="cls-29"><path class="cls-8" d="M742.49,411.36c0,10.23-8.29,18.52-18.52,18.52s-18.52-8.29-18.52-18.52,8.29-18.52,18.52-18.52,18.52,8.29,18.52,18.52"></path></g><text class="cls-11" transform="translate(716.98 420.14)"><tspan x="0" y="0">7</tspan></text><g class="cls-34"><path class="cls-8" d="M740.55,524.75c0,10.23-8.29,18.52-18.52,18.52s-18.52-8.29-18.52-18.52,8.29-18.52,18.52-18.52,18.52,8.29,18.52,18.52"></path></g><text class="cls-11" transform="translate(715.05 533.54)"><tspan x="0" y="0">8</tspan></text><g class="cls-31"><path class="cls-8" d="M499.85,776.28c0,10.23-8.29,18.52-18.52,18.52s-18.52-8.29-18.52-18.52,8.29-18.52,18.52-18.52,18.52,8.29,18.52,18.52"></path></g><text class="cls-11" transform="translate(474.34 785.06)"><tspan x="0" y="0">9</tspan></text><g class="cls-30"><path class="cls-8" d="M585.54,811.7c0,10.23-8.29,18.52-18.52,18.52s-18.52-8.29-18.52-18.52,8.29-18.52,18.52-18.52,18.52,8.29,18.52,18.52"></path></g><text class="cls-11" transform="translate(552.72 820.48)"><tspan x="0" y="0">10</tspan></text><g class="cls-33"><path class="cls-8" d="M415.08,958.31c0,10.23-8.29,18.52-18.52,18.52s-18.52-8.29-18.52-18.52,8.29-18.52,18.52-18.52,18.52,8.29,18.52,18.52"></path></g><text class="cls-11" transform="translate(382.26 967.09)"><tspan x="0" y="0">11</tspan></text><g class="cls-32"><path class="cls-8" d="M758.18,766.54c0,10.23-8.29,18.52-18.52,18.52s-18.52-8.29-18.52-18.52,8.29-18.52,18.52-18.52,18.52,8.29,18.52,18.52"></path></g><text class="cls-11" transform="translate(725.36 775.32)"><tspan x="0" y="0">12</tspan></text><g class="cls-17"><path class="cls-8" d="M667.14,696.54c0,10.23-8.29,18.52-18.52,18.52s-18.52-8.29-18.52-18.52,8.29-18.52,18.52-18.52,18.52,8.29,18.52,18.52"></path></g><text class="cls-11" transform="translate(634.32 705.33)"><tspan x="0" y="0">13</tspan></text><g class="cls-14"><path class="cls-8" d="M819.18,684.01c0,10.23-8.29,18.52-18.52,18.52s-18.52-8.29-18.52-18.52,8.29-18.52,18.52-18.52,18.52,8.29,18.52,18.52"></path></g><text class="cls-11" transform="translate(786.36 692.79)"><tspan x="0" y="0">14</tspan></text><g class="cls-21"><path class="cls-8" d="M897.24,314.08c0,10.23-8.29,18.52-18.52,18.52s-18.52-8.29-18.52-18.52,8.29-18.52,18.52-18.52,18.52,8.29,18.52,18.52"></path></g><text class="cls-11" transform="translate(864.42 322.86)"><tspan x="0" y="0">15</tspan></text><g class="cls-19"><path class="cls-8" d="M945.22,273.22c0,10.23-8.29,18.52-18.52,18.52s-18.52-8.29-18.52-18.52,8.29-18.52,18.52-18.52,18.52,8.29,18.52,18.52"></path></g><text class="cls-11" transform="translate(912.4 282.01)"><tspan x="0" y="0">16</tspan></text><g class="cls-20"><path class="cls-8" d="M911.3,138.45c0,10.23-8.29,18.52-18.52,18.52s-18.52-8.29-18.52-18.52,8.29-18.52,18.52-18.52,18.52,8.29,18.52,18.52"></path></g><text class="cls-11" transform="translate(878.48 147.23)"><tspan x="0" y="0">17</tspan></text><g class="cls-18"><path class="cls-8" d="M250.38,163.67c0,10.23-8.29,18.52-18.52,18.52s-18.52-8.29-18.52-18.52,8.29-18.52,18.52-18.52,18.52,8.29,18.52,18.52"></path></g><text class="cls-11" transform="translate(224.87 172.45)"><tspan x="0" y="0">1</tspan></text><g class="cls-15"><path class="cls-8" d="M402.7,39.45c0,10.23-8.29,18.52-18.52,18.52s-18.52-8.29-18.52-18.52,8.29-18.52,18.52-18.52,18.52,8.29,18.52,18.52"></path></g><text class="cls-11" transform="translate(377.19 48.23)"><tspan x="0" y="0">2</tspan></text><g class="cls-12"><path class="cls-8" d="M228.46,20.92c0,10.23-8.29,18.52-18.52,18.52s-18.52-8.29-18.52-18.52,8.29-18.52,18.52-18.52,18.52,8.29,18.52,18.52"></path></g><text class="cls-11" transform="translate(202.95 29.71)"><tspan x="0" y="0">3</tspan></text><g class="cls-16"><path class="cls-8" d="M167.01,227.39c0,10.23-8.29,18.52-18.52,18.52s-18.52-8.29-18.52-18.52,8.29-18.52,18.52-18.52,18.52,8.29,18.52,18.52"></path></g><text class="cls-11" transform="translate(141.49 236.18)"><tspan x="0" y="0">4</tspan></text><g class="cls-13"><path class="cls-8" d="M779.53,216.78c0,10.23-8.29,18.52-18.52,18.52s-18.52-8.29-18.52-18.52,8.29-18.52,18.52-18.52,18.52,8.29,18.52,18.52"></path></g><text class="cls-11" transform="translate(754.03 225.56)"><tspan x="0" y="0">5</tspan></text><g class="cls-22"><line class="cls-6" x1="471.42" y1="140.39" x2="471.23" y2="175.48"></line><rect class="cls-9" x="388.49" y="211.67" width="3.78" height="60.11" transform="translate(-1.96 3.19) rotate(-.47)"></rect><path class="cls-36" d="M414.74,252.01h-52.84c-.06.07-.1.11-.16.17v45.64h53v-45.81Z"></path></g><text class="cls-4" transform="translate(369.55 285.07)"><tspan class="cls-38" x="0" y="0">i</tspan><tspan x="19.6" y="0">1</tspan></text><g class="cls-23"><rect class="cls-9" x="540.04" y="704.71" width="3.78" height="60.1" transform="translate(-364.53 625.73) rotate(-46.73)"></rect><path class="cls-36" d="M532.75,679.29h-55.72c-.07.07-.1.11-.17.17v45.64h55.89v-45.81Z"></path></g><text class="cls-4" transform="translate(484.66 712.36)"><tspan class="cls-38" x="0" y="0">i</tspan><tspan x="19.6" y="0">2</tspan></text><g class="cls-24"><rect class="cls-9" x="807.3" y="569.73" width="3.78" height="60.11" transform="translate(-43.77 1135.49) rotate(-68.68)"></rect><path class="cls-36" d="M884.82,586.95h-52.84c-.06.07-.1.11-.16.17v45.64h53v-45.81Z"></path></g><text class="cls-4" transform="translate(837.56 620.02)"><tspan class="cls-38" x="0" y="0">i</tspan><tspan x="19.6" y="0">3</tspan></text><g class="cls-25"><line class="cls-6" x1="667.68" y1="137.56" x2="667.49" y2="172.65"></line><polygon class="cls-9" points="669.38 172.66 665.6 172.64 665.79 137.56 669.58 137.57 669.38 172.66"></polygon><path class="cls-36" d="M696.29,92.02h-57.24c-.07.07-.1.11-.17.17v45.37h57.41v-45.54Z"></path></g><text class="cls-4" transform="translate(653.51 124.38)"><tspan class="cls-37" x="0" y="0">f</tspan><tspan x="20.09" y="0">l</tspan></text><g class="cls-26"><rect class="cls-35" x="643.45" y="107.2" width="4.57" height="30.36"></rect><rect x="643.45" y="112.26" width="4.57" height="5.06"></rect><rect x="643.45" y="122.38" width="4.57" height="5.06"></rect><rect x="643.45" y="132.5" width="4.57" height="5.06"></rect><rect class="cls-35" x="638.88" y="107.2" width="4.57" height="30.36"></rect><rect x="638.88" y="107.2" width="4.57" height="5.06"></rect><rect x="638.88" y="117.32" width="4.57" height="5.06"></rect><rect x="638.88" y="127.44" width="4.57" height="5.06"></rect><rect class="cls-35" x="643.45" y="92.02" width="4.57" height="15.18"></rect><rect x="643.45" y="92.02" width="4.57" height="5.06"></rect><rect x="643.45" y="102.14" width="4.57" height="5.06"></rect><rect class="cls-35" x="638.88" y="92.02" width="4.57" height="15.18"></rect><rect x="638.88" y="97.08" width="4.57" height="5.06"></rect></g></g></g></g></svg>