<svg xmlns="http://www.w3.org/2000/svg" xmlns:xlink="http://www.w3.org/1999/xlink" id="_18-INA" viewBox="0 0 1080 1042.83"><defs><style>.cls-1,.cls-2,.cls-3{fill:none;}.cls-2{stroke:#a0a0a0;stroke-width:10px;}.cls-2,.cls-3{stroke-miterlimit:10;}.cls-4{fill:#444;}.cls-5{fill:#e6e6e6;}.cls-3{stroke:#606060;stroke-width:7px;}.cls-6{fill:#c6c6c6;font-family:MGPText-Bold, 'MGP Text';font-size:25.36px;font-weight:700;}.cls-7{fill:#f6f6f6;}.cls-8{font-size:24.67px;}.cls-8,.cls-9{font-family:MGPDisplayVF-Medium, 'MGP Display VF';font-variation-settings:'wght' 500, 'wdth' 100;font-weight:500;}.cls-8,.cls-10{fill:#ededed;}.cls-11{clip-path:url(#clippath-17);}.cls-12{clip-path:url(#clippath-19);}.cls-13{clip-path:url(#clippath-11);}.cls-14{clip-path:url(#clippath-16);}.cls-15{clip-path:url(#clippath-18);}.cls-16{clip-path:url(#clippath-10);}.cls-17{clip-path:url(#clippath-15);}.cls-18{clip-path:url(#clippath-13);}.cls-19{clip-path:url(#clippath-14);}.cls-20{clip-path:url(#clippath-12);}.cls-21{clip-path:url(#clippath-20);}.cls-22{clip-path:url(#clippath-21);}.cls-23{clip-path:url(#clippath-22);}.cls-24{clip-path:url(#clippath-23);}.cls-25{clip-path:url(#clippath-24);}.cls-26{clip-path:url(#clippath-1);}.cls-27{clip-path:url(#clippath-3);}.cls-28{clip-path:url(#clippath-4);}.cls-29{clip-path:url(#clippath-2);}.cls-30{clip-path:url(#clippath-7);}.cls-31{clip-path:url(#clippath-6);}.cls-32{clip-path:url(#clippath-9);}.cls-33{clip-path:url(#clippath-8);}.cls-34{clip-path:url(#clippath-5);}.cls-9{fill:#323232;font-size:30.56px;}.cls-35{fill:#fafafa;}.cls-36{fill:red;}.cls-37{letter-spacing:.02em;}.cls-38{letter-spacing:.02em;}.cls-39{clip-path:url(#clippath);}</style><clipPath id="clippath"><rect class="cls-1" y="-25.34" width="1080" height="1080"></rect></clipPath><clipPath id="clippath-1"><rect class="cls-1" y="-25.34" width="1080" height="1080"></rect></clipPath><clipPath id="clippath-2"><rect class="cls-1" y="-25.34" width="1080" height="1080"></rect></clipPath><clipPath id="clippath-3"><rect class="cls-1" y="-25.34" width="1080" height="1080"></rect></clipPath><clipPath id="clippath-4"><rect class="cls-1" y="-25.34" width="1080" height="1080"></rect></clipPath><clipPath id="clippath-5"><rect class="cls-1" y="-25.34" width="1080" height="1080"></rect></clipPath><clipPath id="clippath-6"><rect class="cls-1" y="-25.34" width="1080" height="1080"></rect></clipPath><clipPath id="clippath-7"><rect class="cls-1" y="-25.34" width="1080" height="1080"></rect></clipPath><clipPath id="clippath-8"><rect class="cls-1" y="-25.34" width="1080" height="1080"></rect></clipPath><clipPath id="clippath-9"><rect class="cls-1" y="-25.34" width="1080" height="1080"></rect></clipPath><clipPath id="clippath-10"><rect class="cls-1" y="-25.34" width="1080" height="1080"></rect></clipPath><clipPath id="clippath-11"><rect class="cls-1" y="-25.34" width="1080" height="1080"></rect></clipPath><clipPath id="clippath-12"><rect class="cls-1" y="-25.34" width="1080" height="1080"></rect></clipPath><clipPath id="clippath-13"><rect class="cls-1" y="-25.34" width="1080" height="1080"></rect></clipPath><clipPath id="clippath-14"><rect class="cls-1" y="-25.34" width="1080" height="1080"></rect></clipPath><clipPath id="clippath-15"><rect class="cls-1" y="-25.34" width="1080" height="1080"></rect></clipPath><clipPath id="clippath-16"><rect class="cls-1" y="-25.34" width="1080" height="1080"></rect></clipPath><clipPath id="clippath-17"><rect class="cls-1" y="-25.34" width="1080" height="1080"></rect></clipPath><clipPath id="clippath-18"><rect class="cls-1" y="-25.34" width="1080" height="1080"></rect></clipPath><clipPath id="clippath-19"><rect class="cls-1" y="-25.34" width="1080" height="1080"></rect></clipPath><clipPath id="clippath-20"><rect class="cls-1" y="-25.34" width="1080" height="1080"></rect></clipPath><clipPath id="clippath-21"><rect class="cls-1" y="-25.34" width="1080" height="1080"></rect></clipPath><clipPath id="clippath-22"><rect class="cls-1" y="-25.34" width="1080" height="1080"></rect></clipPath><clipPath id="clippath-23"><rect class="cls-1" y="-25.34" width="1080" height="1080"></rect></clipPath><clipPath id="clippath-24"><rect class="cls-1" y="-25.34" width="1080" height="1080"></rect></clipPath></defs><g id="_18-INA-2"><g class="cls-39"><g class="cls-26"><path class="cls-3" d="M797.31,489.92c-10.46-17.45-45.85-47.31-52.05-59.45-8.9-17.43,6.25-45.12,24.77-53.88,21.15-10.02,65.38,19.93,80.4,20.12"></path></g><g class="cls-29"><path class="cls-2" d="M465.39,191.2l396.18-13.3s28.32-4,40.62,13.62c11.7,16.75,9.64,24.61,5.41,41.9-3.41,13.94-31.68,145.65-31.68,145.65,0,0-2.92,13.53-15.3,16.63-8.07,2.02-18.15.08-24.04-1.91-29.83-10.06-38.72,2.81-50.11,15.54-7.63,8.53-12.64,14.33-12.64,23.61,0,31.92,38.62,77.88,52.54,96.44,13.92,18.56,35.91,40.57,35.46,55.47-.51,16.77-28.51,146.18-28.7,147-1.79,7.45-3.43,17-9.75,23.32-7.12,7.12-94,69.44-120.7,88.1-7.92,5.53-16.7,9.96-26.18,11.81-23.05,4.5-52.31-12.46-91.34-8.26-21.6,2.32-44.69,14.76-59.74,28.06-10.54,9.32-29.79,24.32-58.86,38.24-27.53,13.18-230.96,66.18-252.39,71.75-.98.26-1.95.52-2.92.8-5.61,1.64-31.22,8.46-42.2-.33-12.37-9.9-12.74-21.68-7.42-38.97,4.79-15.56,45.89-160.28,45.89-160.28,0,0,6.8-25.67,27.83-29.69,18.05-3.45,99.57-14.95,101.86-15.2,8.99-1.01,33.55-7.9,45.23-22.95,13.92-17.94,15.2-28.77,18.29-53.21,3.09-24.43,23.86-158.4,23.86-158.4,0,0,5.73-24.16-9.9-41.44-12.18-13.47-22.54-16.27-48.22-24.29-25.64-8-51.21-20.95-73.49-50.88-19.44-26.11-46.07-101.09-52.87-118.72-6.8-17.63-18.29-46.56-18.29-46.56,0,0-16.52-44.22-13.63-73.82,2.66-27.27,7.73-43.79,25.61-71.5,17.88-27.72,35.3-38.22,39.86-39.49,11.02-3.07,22.36-.32,27.98,15.55,5.65,15.96-2.44,32.87-8.31,49.88-5.88,17.01-18.25,50.72-18.25,50.72,0,0-8.08,21.76-.04,31.08,8.31,9.64,15.16,9.1,35.26,8.49,11.38-.35,59.03-1.74,98.72-2.89l56.39-1.6Z"></path></g><g class="cls-27"><path class="cls-4" d="M949.1,179.8c0,9.46-7.67,17.13-17.13,17.13s-17.13-7.67-17.13-17.13,7.67-17.13,17.13-17.13,17.13,7.67,17.13,17.13"></path></g><text class="cls-6" transform="translate(925.51 187.92)"><tspan x="0" y="0">1</tspan></text><g class="cls-28"><path class="cls-4" d="M898.94,423.19c0,9.46-7.67,17.13-17.13,17.13s-17.13-7.67-17.13-17.13,7.67-17.13,17.13-17.13,17.13,7.67,17.13,17.13"></path></g><text class="cls-6" transform="translate(875.35 431.31)"><tspan x="0" y="0">2</tspan></text><g class="cls-34"><path class="cls-4" d="M820.61,348.47c0,9.46-7.67,17.13-17.13,17.13s-17.13-7.67-17.13-17.13,7.67-17.13,17.13-17.13,17.13,7.67,17.13,17.13"></path></g><text class="cls-6" transform="translate(797.03 356.59)"><tspan x="0" y="0">3</tspan></text><g class="cls-31"><path class="cls-4" d="M822.72,437.93c0,9.46-7.67,17.13-17.13,17.13s-17.13-7.67-17.13-17.13,7.67-17.13,17.13-17.13,17.13,7.67,17.13,17.13"></path></g><text class="cls-6" transform="translate(799.14 446.05)"><tspan x="0" y="0">4</tspan></text><g class="cls-30"><path class="cls-4" d="M909.91,575.64c0,9.46-7.67,17.13-17.13,17.13s-17.13-7.67-17.13-17.13,7.67-17.13,17.13-17.13,17.13,7.67,17.13,17.13"></path></g><text class="cls-6" transform="translate(886.32 583.76)"><tspan x="0" y="0">5</tspan></text><g class="cls-33"><path class="cls-4" d="M870.9,769.14c0,9.46-7.67,17.13-17.13,17.13s-17.13-7.67-17.13-17.13,7.67-17.13,17.13-17.13,17.13,7.67,17.13,17.13"></path></g><text class="cls-6" transform="translate(847.32 777.26)"><tspan x="0" y="0">6</tspan></text><g class="cls-32"><path class="cls-4" d="M699.24,888.09c0,9.46-7.67,17.13-17.13,17.13s-17.13-7.67-17.13-17.13,7.67-17.13,17.13-17.13,17.13,7.67,17.13,17.13"></path></g><text class="cls-6" transform="translate(675.65 896.21)"><tspan x="0" y="0">7</tspan></text><g class="cls-16"><path class="cls-4" d="M606.6,879.75c0,9.46-7.67,17.13-17.13,17.13s-17.13-7.67-17.13-17.13,7.67-17.13,17.13-17.13,17.13,7.67,17.13,17.13"></path></g><text class="cls-6" transform="translate(583.02 887.87)"><tspan x="0" y="0">8</tspan></text><g class="cls-13"><path class="cls-4" d="M500.65,941.92c0,9.46-7.67,17.13-17.13,17.13s-17.13-7.67-17.13-17.13,7.67-17.13,17.13-17.13,17.13,7.67,17.13,17.13"></path></g><text class="cls-6" transform="translate(477.07 950.03)"><tspan x="0" y="0">9</tspan></text><g class="cls-20"><path class="cls-4" d="M165.15,1011.55c0,9.46-7.67,17.13-17.13,17.13s-17.13-7.67-17.13-17.13,7.67-17.13,17.13-17.13,17.13,7.67,17.13,17.13"></path></g><text class="cls-6" transform="translate(134.81 1019.67)"><tspan x="0" y="0">10</tspan></text><g class="cls-18"><path class="cls-4" d="M219.48,737.87c0,9.46-7.67,17.13-17.13,17.13s-17.13-7.67-17.13-17.13,7.67-17.13,17.13-17.13,17.13,7.67,17.13,17.13"></path></g><text class="cls-6" transform="translate(189.14 745.99)"><tspan x="0" y="0">11</tspan></text><g class="cls-19"><path class="cls-4" d="M366.69,704.17c0,9.46-7.67,17.13-17.13,17.13s-17.13-7.67-17.13-17.13,7.67-17.13,17.13-17.13,17.13,7.67,17.13,17.13"></path></g><text class="cls-6" transform="translate(336.34 712.29)"><tspan x="0" y="0">12</tspan></text><g class="cls-17"><path class="cls-4" d="M409.19,492.15c0,9.46-7.67,17.13-17.13,17.13s-17.13-7.67-17.13-17.13,7.67-17.13,17.13-17.13,17.13,7.67,17.13,17.13"></path></g><text class="cls-6" transform="translate(378.85 500.27)"><tspan x="0" y="0">13</tspan></text><g class="cls-14"><path class="cls-4" d="M298.11,427.96c0,9.46-7.67,17.13-17.13,17.13s-17.13-7.67-17.13-17.13,7.67-17.13,17.13-17.13,17.13,7.67,17.13,17.13"></path></g><text class="cls-6" transform="translate(267.76 436.08)"><tspan x="0" y="0">14</tspan></text><g class="cls-11"><path class="cls-4" d="M193.14,176.97c0,9.46-7.67,17.13-17.13,17.13s-17.13-7.67-17.13-17.13,7.67-17.13,17.13-17.13,17.13,7.67,17.13,17.13"></path></g><text class="cls-6" transform="translate(162.79 185.09)"><tspan x="0" y="0">15</tspan></text><g class="cls-15"><path class="cls-4" d="M330.47,18.88c0,9.46-7.67,17.13-17.13,17.13s-17.13-7.67-17.13-17.13,7.67-17.13,17.13-17.13,17.13,7.67,17.13,17.13"></path></g><text class="cls-6" transform="translate(300.12 27)"><tspan x="0" y="0">16</tspan></text><g class="cls-12"><path class="cls-4" d="M323.97,164.61c0,9.46-7.67,17.13-17.13,17.13s-17.13-7.67-17.13-17.13,7.67-17.13,17.13-17.13,17.13,7.67,17.13,17.13"></path></g><text class="cls-6" transform="translate(293.62 172.73)"><tspan x="0" y="0">17</tspan></text><rect class="cls-5" x="801.29" y="512.94" width="56.9" height="3.58" transform="translate(-137.95 645.06) rotate(-39.48)"></rect><g class="cls-21"><path class="cls-36" d="M890.15,478.35h-50.02c-.06.06-.09.1-.15.16v43.2h50.17v-43.37Z"></path></g><text class="cls-8" transform="translate(847.37 509.65)"><tspan class="cls-38" x="0" y="0">i</tspan><tspan x="18.55" y="0">1</tspan></text><g class="cls-22"><rect class="cls-10" x="664.97" y="176.18" width="46.43" height="3.58" transform="translate(506.38 865.15) rotate(-89.68)"></rect><path class="cls-7" d="M708.57,128.53h-42.53c-.05.05-.08.09-.13.14v36.42h42.65v-36.56Z"></path></g><text class="cls-9" transform="translate(676.18 158.44)"><tspan x="0" y="0">s</tspan></text><g class="cls-23"><line class="cls-10" x1="409.14" y1="221.81" x2="408.94" y2="178.61"></line><rect class="cls-5" x="407.25" y="178.61" width="3.58" height="43.2" transform="translate(-1 2.05) rotate(-.29)"></rect><path class="cls-36" d="M433.61,213.11h-54.18c-.06.06-.1.1-.16.16v42.94h54.34v-43.11Z"></path></g><text class="cls-8" transform="translate(393.11 243.75)"><tspan class="cls-37" x="0" y="0">f</tspan><tspan x="19.02" y="0">l</tspan></text><g class="cls-24"><rect class="cls-35" x="383.59" y="227.48" width="4.32" height="28.74"></rect><rect x="383.59" y="232.27" width="4.32" height="4.79"></rect><rect x="383.59" y="241.84" width="4.32" height="4.79"></rect><rect x="383.59" y="251.42" width="4.32" height="4.79"></rect><rect class="cls-35" x="379.27" y="227.48" width="4.32" height="28.74"></rect><rect x="379.27" y="227.48" width="4.32" height="4.79"></rect><rect x="379.27" y="237.06" width="4.32" height="4.79"></rect><rect x="379.27" y="246.63" width="4.32" height="4.79"></rect><rect class="cls-35" x="383.59" y="213.11" width="4.32" height="14.37"></rect><rect x="383.59" y="213.11" width="4.32" height="4.79"></rect><rect x="383.59" y="222.69" width="4.32" height="4.79"></rect><rect class="cls-35" x="379.27" y="213.11" width="4.32" height="14.37"></rect><rect x="379.27" y="217.9" width="4.32" height="4.79"></rect><rect class="cls-5" x="404.4" y="511.47" width="3.58" height="63.23" transform="translate(-201.53 844.11) rotate(-79.56)"></rect><path class="cls-36" d="M392.24,517.98h-53.96c-.06.07-.1.1-.16.17v44.22h54.12v-44.39Z"></path></g><text class="cls-8" transform="translate(345.46 549.28)"><tspan class="cls-38" x="0" y="0">i</tspan><tspan x="18.55" y="0">3</tspan></text><g class="cls-25"><rect class="cls-5" x="232.42" y="963.57" width="3.58" height="60.22" transform="translate(-241.98 90.63) rotate(-14.54)"></rect><path class="cls-36" d="M268.5,1002.28h-50.04c-.06.06-.09.09-.15.15v39.14h50.19v-39.29Z"></path></g><text class="cls-8" transform="translate(223.75 1031.27)"><tspan class="cls-38" x="0" y="0">i</tspan><tspan x="18.55" y="0">2</tspan></text></g></g></svg>