<svg xmlns="http://www.w3.org/2000/svg" xmlns:xlink="http://www.w3.org/1999/xlink" id="_08-ITA" viewBox="0 0 1080 691.45"><defs><style>.cls-1,.cls-2,.cls-3{fill:none;}.cls-2{stroke:#a0a0a0;stroke-width:10px;}.cls-2,.cls-3{stroke-miterlimit:10;}.cls-4{fill:#444;}.cls-5{font-size:23.98px;}.cls-5,.cls-6{font-family:MGPDisplayVF-Medium, 'MGP Display VF';font-variation-settings:'wght' 500, 'wdth' 100;font-weight:500;}.cls-5,.cls-7{fill:#ededed;}.cls-8{fill:#e6e6e6;}.cls-3{stroke:#606060;stroke-width:7px;}.cls-9{fill:#c6c6c6;font-family:MGPText-Bold, 'MGP Text';font-size:25.28px;font-weight:700;}.cls-10{fill:#f6f6f6;}.cls-6{fill:#323232;font-size:29.71px;}.cls-11{clip-path:url(#clippath-17);}.cls-12{clip-path:url(#clippath-19);}.cls-13{clip-path:url(#clippath-11);}.cls-14{clip-path:url(#clippath-16);}.cls-15{clip-path:url(#clippath-18);}.cls-16{clip-path:url(#clippath-10);}.cls-17{clip-path:url(#clippath-15);}.cls-18{clip-path:url(#clippath-13);}.cls-19{clip-path:url(#clippath-14);}.cls-20{clip-path:url(#clippath-12);}.cls-21{clip-path:url(#clippath-20);}.cls-22{clip-path:url(#clippath-21);}.cls-23{clip-path:url(#clippath-22);}.cls-24{clip-path:url(#clippath-1);}.cls-25{clip-path:url(#clippath-3);}.cls-26{clip-path:url(#clippath-4);}.cls-27{clip-path:url(#clippath-2);}.cls-28{clip-path:url(#clippath-7);}.cls-29{clip-path:url(#clippath-6);}.cls-30{clip-path:url(#clippath-9);}.cls-31{clip-path:url(#clippath-8);}.cls-32{clip-path:url(#clippath-5);}.cls-33{fill:#fafafa;}.cls-34{fill:red;}.cls-35{letter-spacing:.03em;}.cls-36{letter-spacing:.02em;}.cls-37{clip-path:url(#clippath);}</style><clipPath id="clippath"><rect class="cls-1" y="-193.43" width="1080" height="1080"></rect></clipPath><clipPath id="clippath-1"><rect class="cls-1" y="-193.43" width="1080" height="1080"></rect></clipPath><clipPath id="clippath-2"><rect class="cls-1" y="-193.43" width="1080" height="1080"></rect></clipPath><clipPath id="clippath-3"><rect class="cls-1" y="-193.43" width="1080" height="1080"></rect></clipPath><clipPath id="clippath-4"><rect class="cls-1" y="-193.43" width="1080" height="1080"></rect></clipPath><clipPath id="clippath-5"><rect class="cls-1" y="-193.43" width="1080" height="1080"></rect></clipPath><clipPath id="clippath-6"><rect class="cls-1" y="-193.43" width="1080" height="1080"></rect></clipPath><clipPath id="clippath-7"><rect class="cls-1" y="-193.43" width="1080" height="1080"></rect></clipPath><clipPath id="clippath-8"><rect class="cls-1" y="-193.43" width="1080" height="1080"></rect></clipPath><clipPath id="clippath-9"><rect class="cls-1" y="-193.43" width="1080" height="1080"></rect></clipPath><clipPath id="clippath-10"><rect class="cls-1" y="-193.43" width="1080" height="1080"></rect></clipPath><clipPath id="clippath-11"><rect class="cls-1" y="-193.43" width="1080" height="1080"></rect></clipPath><clipPath id="clippath-12"><rect class="cls-1" y="-193.43" width="1080" height="1080"></rect></clipPath><clipPath id="clippath-13"><rect class="cls-1" y="-193.43" width="1080" height="1080"></rect></clipPath><clipPath id="clippath-14"><rect class="cls-1" y="-193.43" width="1080" height="1080"></rect></clipPath><clipPath id="clippath-15"><rect class="cls-1" y="-193.43" width="1080" height="1080"></rect></clipPath><clipPath id="clippath-16"><rect class="cls-1" y="-193.43" width="1080" height="1080"></rect></clipPath><clipPath id="clippath-17"><rect class="cls-1" y="-193.43" width="1080" height="1080"></rect></clipPath><clipPath id="clippath-18"><rect class="cls-1" y="-193.43" width="1080" height="1080"></rect></clipPath><clipPath id="clippath-19"><rect class="cls-1" y="-193.43" width="1080" height="1080"></rect></clipPath><clipPath id="clippath-20"><rect class="cls-1" y="-193.43" width="1080" height="1080"></rect></clipPath><clipPath id="clippath-21"><rect class="cls-1" y="-193.43" width="1080" height="1080"></rect></clipPath><clipPath id="clippath-22"><rect class="cls-1" y="-193.43" width="1080" height="1080"></rect></clipPath></defs><g id="_08-ITA-2"><g class="cls-37"><g class="cls-24"><path class="cls-3" d="M645.3,212.52c19.39,2.76,49.83,11.12,58.62,21.66,18.46,22.14-8.08,78.54-28.43,84.82-17.03,5.25-52.88-22.12-68.56-29.17"></path></g><g class="cls-27"><path class="cls-2" d="M554.5,327.98c-98.02-37.85-257.58-98.07-300.29-115.67-49.66-20.47-92.02-37.51-101.43-73.05-7.15-27.04,3.46-52.57,29.92-61.65,14.02-4.81,34.64-4.32,55.81,10.76,43.48,30.96,154.91,104.51,197.69,132.93,27.62,18.34,34.76,22.21,69.42,18.48,28.86-3.1,33.99,2.78,48.44,11.91,14.45,9.13,51.07,38.36,68.12,43.8,21.09,6.74,51.07,3.54,59.5-22.13,11.37-34.59-12.46-54.1-36.38-60.83-21.48-6.05-202.98-46.16-204.46-46.44-5.84-1.1-29.65-6.81-36.77-27.58-6.01-17.55-1.04-52.35-8.42-64.8-5.54-9.34-11.1-15.76-39.99-19.57-28.9-3.8-171.09-23.75-171.09-23.75,0,0-44.87-6.84-68.44,37.26-23.57,44.11-65.47,123.42,8.83,163.47,17.08,9.2,46.56,15.73,75.46,23.54,41.94,11.34,76.42,24.04,83.38,59.2,3.93,19.83,1.93,19.8,3.55,62.13.76,19.85,6.89,26.62,14.15,34.33,10.46,11.11,151.83,112.69,153.26,113.81,6.01,4.7,26.77,22.82,49.9,11.83,28.15-13.37,42.99-33.47,72.24-15.97,21.61,12.93,170.96,106.31,189.22,115.21,12.88,6.28,39.47,12.07,55.36-9.9,19.01-26.28,17.91-34.56,27.96-46.7,9.81-11.86,25.2-12.16,37.29-10.04,53.45,9.37,96.21,20.19,112.34-9.58,9.95-18.35,3.74-33.34-9.08-44.84-19.24-17.25-136-38.41-257.96-106.69-38.52-21.57-62.22-33.48-114.93-54.91-13.97-5.68-36.02-14.3-62.6-24.56Z"></path></g><g class="cls-25"><path class="cls-4" d="M1052.55,540.43c0,9.43-7.65,17.08-17.08,17.08s-17.07-7.64-17.07-17.08,7.64-17.07,17.07-17.07,17.08,7.64,17.08,17.07"></path></g><text class="cls-9" transform="translate(1029.03 548.52)"><tspan x="0" y="0">1</tspan></text><g class="cls-26"><path class="cls-4" d="M891.36,599.83c0,9.43-7.65,17.08-17.08,17.08s-17.07-7.64-17.07-17.08,7.64-17.07,17.07-17.07,17.08,7.64,17.08,17.07"></path></g><text class="cls-9" transform="translate(867.85 607.92)"><tspan x="0" y="0">2</tspan></text><g class="cls-32"><path class="cls-4" d="M816.03,673.16c0,9.43-7.65,17.08-17.08,17.08s-17.07-7.65-17.07-17.08,7.64-17.07,17.07-17.07,17.08,7.65,17.08,17.07"></path></g><text class="cls-9" transform="translate(792.5 681.26)"><tspan x="0" y="0">3</tspan></text><g class="cls-29"><path class="cls-4" d="M571.11,545.63c0,9.43-7.65,17.08-17.08,17.08s-17.07-7.64-17.07-17.08,7.64-17.07,17.07-17.07,17.08,7.64,17.08,17.07"></path></g><text class="cls-9" transform="translate(547.58 553.73)"><tspan x="0" y="0">4</tspan></text><g class="cls-28"><path class="cls-4" d="M282.1,415.84c0,9.43-7.65,17.08-17.08,17.08s-17.07-7.64-17.07-17.08,7.64-17.07,17.07-17.07,17.08,7.64,17.08,17.07"></path></g><text class="cls-9" transform="translate(258.58 423.93)"><tspan x="0" y="0">6</tspan></text><g class="cls-31"><path class="cls-4" d="M265.03,312.42c0,9.43-7.65,17.08-17.08,17.08s-17.07-7.64-17.07-17.08,7.64-17.07,17.07-17.07,17.08,7.64,17.08,17.07"></path></g><text class="cls-9" transform="translate(241.51 320.51)"><tspan x="0" y="0">7</tspan></text><g class="cls-30"><path class="cls-4" d="M79.6,214.82c0,9.43-7.65,17.08-17.08,17.08s-17.07-7.64-17.07-17.08,7.64-17.07,17.07-17.07,17.08,7.64,17.08,17.07"></path></g><text class="cls-9" transform="translate(56.07 222.92)"><tspan x="0" y="0">8</tspan></text><g class="cls-16"><path class="cls-4" d="M132.34,19.98c0,9.43-7.65,17.08-17.08,17.08s-17.07-7.64-17.07-17.08,7.64-17.07,17.07-17.07,17.08,7.64,17.08,17.07"></path></g><text class="cls-9" transform="translate(108.82 28.07)"><tspan x="0" y="0">9</tspan></text><g class="cls-13"><path class="cls-4" d="M433.27,48.22c0,9.43-7.65,17.08-17.08,17.08s-17.07-7.64-17.07-17.08,7.64-17.07,17.07-17.07,17.08,7.64,17.08,17.07"></path></g><text class="cls-9" transform="translate(403 56.32)"><tspan x="0" y="0">10</tspan></text><g class="cls-20"><path class="cls-4" d="M452.11,127.27c0,9.43-7.65,17.08-17.08,17.08s-17.07-7.64-17.07-17.08,7.64-17.07,17.07-17.07,17.08,7.64,17.08,17.07"></path></g><text class="cls-9" transform="translate(421.85 135.37)"><tspan x="0" y="0">11</tspan></text><g class="cls-18"><path class="cls-4" d="M754.33,260.46c0,9.43-7.65,17.08-17.08,17.08s-17.07-7.64-17.07-17.08,7.64-17.07,17.07-17.07,17.08,7.64,17.08,17.07"></path></g><text class="cls-9" transform="translate(724.06 268.55)"><tspan x="0" y="0">12</tspan></text><g class="cls-19"><path class="cls-4" d="M560.29,216.87c0,9.43-7.65,17.08-17.08,17.08s-17.07-7.64-17.07-17.08,7.64-17.07,17.07-17.07,17.08,7.64,17.08,17.07"></path></g><text class="cls-9" transform="translate(530.02 224.97)"><tspan x="0" y="0">13</tspan></text><g class="cls-17"><path class="cls-4" d="M498.01,209.06c0,9.43-7.65,17.08-17.08,17.08s-17.07-7.64-17.07-17.08,7.64-17.07,17.07-17.07,17.08,7.64,17.08,17.07"></path></g><text class="cls-9" transform="translate(467.74 217.15)"><tspan x="0" y="0">14</tspan></text><g class="cls-14"><path class="cls-4" d="M205.06,112.19c0,9.43-7.65,17.08-17.08,17.08s-17.07-7.64-17.07-17.08,7.64-17.07,17.07-17.07,17.08,7.64,17.08,17.07"></path></g><text class="cls-9" transform="translate(174.8 120.28)"><tspan x="0" y="0">15</tspan></text><g class="cls-11"><path class="cls-4" d="M491.08,570.81c0,9.43-7.65,17.08-17.08,17.08s-17.07-7.64-17.07-17.08,7.64-17.07,17.07-17.07,17.08,7.64,17.08,17.07"></path></g><text class="cls-9" transform="translate(467.55 578.9)"><tspan x="0" y="0">5</tspan></text><polygon class="cls-8" points="636.38 540.49 597.02 604.82 594.31 602.52 633.67 538.19 636.38 540.49"></polygon><g class="cls-15"><path class="cls-34" d="M624.6,599.8h-48.65c-.06.06-.09.09-.14.15v38.05h48.79v-38.2Z"></path></g><text class="cls-5" transform="translate(582.36 628.05)"><tspan class="cls-36" x="0" y="0">i</tspan><tspan x="18.03" y="0">1</tspan></text><g class="cls-12"><rect class="cls-7" x="746.71" y="417.57" width="45.13" height="3.48" transform="translate(98.57 983.01) rotate(-68.64)"></rect><path class="cls-10" d="M806.05,368.56h-41.34c-.05.05-.08.08-.12.14v35.41h41.46v-35.54Z"></path></g><text class="cls-6" transform="translate(774.57 397.63)"><tspan x="0" y="0">s</tspan></text><g class="cls-21"><line class="cls-7" x1="544.82" y1="354" x2="559.59" y2="314.69"></line><rect class="cls-8" x="531.21" y="332.6" width="41.99" height="3.48" transform="translate(45.05 733.73) rotate(-69.41)"></rect><path class="cls-34" d="M569.65,349.86h-52.67c-.06.06-.1.1-.16.16v41.75h52.83v-41.9Z"></path></g><text class="cls-5" transform="translate(530.28 379.64)"><tspan class="cls-35" x="0" y="0">f</tspan><tspan x="18.49" y="0">l</tspan></text><g class="cls-22"><rect class="cls-33" x="521.03" y="363.83" width="4.2" height="27.94"></rect><rect x="521.03" y="368.48" width="4.2" height="4.66"></rect><rect x="521.03" y="377.8" width="4.2" height="4.66"></rect><rect x="521.03" y="387.11" width="4.2" height="4.66"></rect><rect class="cls-33" x="516.82" y="363.83" width="4.2" height="27.94"></rect><rect x="516.82" y="363.83" width="4.2" height="4.66"></rect><rect x="516.82" y="373.14" width="4.2" height="4.66"></rect><rect x="516.82" y="382.45" width="4.2" height="4.66"></rect><rect class="cls-33" x="521.03" y="349.86" width="4.2" height="13.97"></rect><rect x="521.03" y="349.86" width="4.2" height="4.66"></rect><rect x="521.03" y="359.17" width="4.2" height="4.66"></rect><rect class="cls-33" x="516.82" y="349.86" width="4.2" height="13.97"></rect><rect x="516.82" y="354.52" width="4.2" height="4.66"></rect><rect class="cls-8" x="521.26" y="263.16" width="61.47" height="3.48" transform="translate(38.99 599.1) rotate(-58.72)"></rect><path class="cls-34" d="M567.29,270.81h-46.45c-.05.05-.09.08-.14.13v34.03h46.58v-34.16Z"></path></g><text class="cls-5" transform="translate(524.79 296.65)"><tspan class="cls-36" x="0" y="0">i</tspan><tspan x="18.03" y="0">3</tspan></text><g class="cls-23"><rect class="cls-8" x="136.6" y="259.04" width="58.54" height="3.48" transform="translate(-137.38 320.46) rotate(-68.68)"></rect><path class="cls-34" d="M186.61,269.58h-48.65c-.06.06-.09.09-.15.15v38.05h48.79v-38.2Z"></path></g><text class="cls-5" transform="translate(143.11 297.77)"><tspan class="cls-36" x="0" y="0">i</tspan><tspan x="18.03" y="0">2</tspan></text></g></g></svg>