<svg xmlns="http://www.w3.org/2000/svg" xmlns:xlink="http://www.w3.org/1999/xlink" id="_17-JPN" viewBox="0 0 1080 1029.88"><defs><style>.cls-1,.cls-2,.cls-3{fill:none;}.cls-2{stroke:#a0a0a0;stroke-width:10.17px;}.cls-2,.cls-3{stroke-miterlimit:10;}.cls-4{fill:#444;}.cls-5{fill:#c6c6c6;font-family:MGPText-Bold, 'MGP Text';font-size:25.86px;font-weight:700;}.cls-6{fill:#e6e6e6;}.cls-3{stroke:#606060;stroke-width:7px;}.cls-7{font-size:24.69px;}.cls-7,.cls-8{font-family:MGPDisplayVF-Medium, 'MGP Display VF';font-variation-settings:'wght' 500, 'wdth' 100;font-weight:500;}.cls-7,.cls-9{fill:#ededed;}.cls-10{fill:#f6f6f6;}.cls-11{clip-path:url(#clippath-17);}.cls-12{clip-path:url(#clippath-19);}.cls-13{clip-path:url(#clippath-11);}.cls-14{clip-path:url(#clippath-16);}.cls-15{clip-path:url(#clippath-18);}.cls-16{clip-path:url(#clippath-10);}.cls-17{clip-path:url(#clippath-15);}.cls-18{clip-path:url(#clippath-13);}.cls-19{clip-path:url(#clippath-14);}.cls-20{clip-path:url(#clippath-12);}.cls-21{clip-path:url(#clippath-20);}.cls-22{clip-path:url(#clippath-21);}.cls-23{clip-path:url(#clippath-1);}.cls-24{clip-path:url(#clippath-3);}.cls-25{clip-path:url(#clippath-4);}.cls-26{clip-path:url(#clippath-2);}.cls-27{clip-path:url(#clippath-7);}.cls-28{clip-path:url(#clippath-6);}.cls-29{clip-path:url(#clippath-9);}.cls-30{clip-path:url(#clippath-8);}.cls-31{clip-path:url(#clippath-5);}.cls-32{letter-spacing:0em;}.cls-8{fill:#323232;font-size:30.59px;}.cls-33{fill:#fafafa;}.cls-34{fill:red;}.cls-35{letter-spacing:.03em;}.cls-36{letter-spacing:.02em;}.cls-37{clip-path:url(#clippath);}</style><clipPath id="clippath"><rect class="cls-1" y="-25.9" width="1080" height="1080"></rect></clipPath><clipPath id="clippath-1"><rect class="cls-1" y="-25.9" width="1080" height="1080"></rect></clipPath><clipPath id="clippath-2"><rect class="cls-1" y="-25.9" width="1080" height="1080"></rect></clipPath><clipPath id="clippath-3"><rect class="cls-1" y="-25.9" width="1080" height="1080"></rect></clipPath><clipPath id="clippath-4"><rect class="cls-1" y="-25.9" width="1080" height="1080"></rect></clipPath><clipPath id="clippath-5"><rect class="cls-1" y="-25.9" width="1080" height="1080"></rect></clipPath><clipPath id="clippath-6"><rect class="cls-1" y="-25.9" width="1080" height="1080"></rect></clipPath><clipPath id="clippath-7"><rect class="cls-1" y="-25.9" width="1080" height="1080"></rect></clipPath><clipPath id="clippath-8"><rect class="cls-1" y="-25.9" width="1080" height="1080"></rect></clipPath><clipPath id="clippath-9"><rect class="cls-1" y="-25.9" width="1080" height="1080"></rect></clipPath><clipPath id="clippath-10"><rect class="cls-1" y="-25.9" width="1080" height="1080"></rect></clipPath><clipPath id="clippath-11"><rect class="cls-1" y="-25.9" width="1080" height="1080"></rect></clipPath><clipPath id="clippath-12"><rect class="cls-1" y="-25.9" width="1080" height="1080"></rect></clipPath><clipPath id="clippath-13"><rect class="cls-1" y="-25.9" width="1080" height="1080"></rect></clipPath><clipPath id="clippath-14"><rect class="cls-1" y="-25.9" width="1080" height="1080"></rect></clipPath><clipPath id="clippath-15"><rect class="cls-1" y="-25.9" width="1080" height="1080"></rect></clipPath><clipPath id="clippath-16"><rect class="cls-1" y="-25.9" width="1080" height="1080"></rect></clipPath><clipPath id="clippath-17"><rect class="cls-1" y="-25.9" width="1080" height="1080"></rect></clipPath><clipPath id="clippath-18"><rect class="cls-1" y="-25.9" width="1080" height="1080"></rect></clipPath><clipPath id="clippath-19"><rect class="cls-1" y="-25.9" width="1080" height="1080"></rect></clipPath><clipPath id="clippath-20"><rect class="cls-1" y="-25.9" width="1080" height="1080"></rect></clipPath><clipPath id="clippath-21"><rect class="cls-1" y="-25.9" width="1080" height="1080"></rect></clipPath></defs><g id="_17-JPN-2"><g class="cls-37"><g class="cls-23"><path class="cls-3" d="M533.93,818.24s53.05-4.28,78.05-5.84c25.01-1.56,50.29-4.25,62.67-13.15,12.37-8.9,10.43-30.18,6.16-46.78-4.27-16.6-14.82-46.32-22.59-57.29-12.1-17.06-39.27-23.8-77.48-18.83"></path></g><g class="cls-26"><path class="cls-2" d="M345.49,973.56c-88.12-.19-171.01-.18-195.08.27-22.56.42-41.69-1.82-53.68-11.21-9.28-7.26-17.25-19.95-17.25-34.1v-15.57c0-17.74,8.93-38.31,25.43-44.82,13.49-5.32,24.07-6.23,48.11-9.3,25.41-3.24,96.28-10.95,203.51-21.64,159.78-15.93,266.65-26.1,266.65-26.1,0,0,43.36-3.04,34.89-36.94-4.63-18.53-8.9-35.62-11.83-47.3-5.44-21.76-25.4-41.82-47.08-47.57-14.1-3.74-29.35-1.9-53.46,3.81-28.18,6.68-67.67,16.97-192.63,45.76-106.99,24.65-196.06,50.7-245.59,61.67-9.08,2.01-26.56,7.37-41.25-8.26-10.59-11.28-4.75-31.86,2.83-46.85l66.91-146.66c6.11-13.17,18.24-31.38,28.49-41.66,24.66-24.73,57.09-36.16,96.69-36.83,68.27-1.14,137.04-4.42,195.67-5.18,26.62-.35,68.99-1.93,70.45-64.52,1.84-78.6,66.46-95.2,112.81-65.52,37.3,23.89,108.48,66.46,138.95,84.46,9.91,5.85,23.85,14.92,35.3,13.71,15.57-1.64,29.66-14.73,25.83-39.33-9.14-58.65-59.3-297.15-67.44-334.03-6.37-28.86,7.49-43.3,21.92-46.04,23.07-4.38,32.19,11.95,35.83,25.07,1.26,4.54,171.59,716.09,171.59,716.09,0,0,4.86,30.9-35.12,30.27-39.59-.62-97.8-1.02-144.63-1.02-19.52,0-26.55-1.28-33.82,4.53-9.94,7.95-26.54,23.29-49.61,45.03-9.65,9.09-24.08,20.49-26.05,33.6-1.68,11.17-.3,11.3,5.41,32.21,4.43,16.23-7.12,36.69-44.66,35.48-10.99-.35-184.12-1.2-328.1-1.53Z"></path></g><g class="cls-24"><path class="cls-4" d="M90.49,987.02c0,9.65-7.82,17.46-17.46,17.46s-17.46-7.82-17.46-17.46,7.82-17.46,17.46-17.46,17.46,7.82,17.46,17.46"></path></g><text class="cls-5" transform="translate(66.44 995.3)"><tspan x="0" y="0">1</tspan></text><g class="cls-25"><path class="cls-4" d="M78.77,862.27c0,9.65-7.82,17.46-17.46,17.46s-17.47-7.82-17.47-17.46,7.82-17.46,17.47-17.46,17.46,7.82,17.46,17.46"></path></g><text class="cls-5" transform="translate(54.72 870.55)"><tspan x="0" y="0">2</tspan></text><g class="cls-31"><path class="cls-4" d="M641.97,776.82c0,9.65-7.82,17.46-17.46,17.46s-17.46-7.82-17.46-17.46,7.82-17.46,17.46-17.46,17.46,7.82,17.46,17.46"></path></g><text class="cls-5" transform="translate(617.92 785.1)"><tspan x="0" y="0">3</tspan></text><g class="cls-28"><path class="cls-4" d="M603.03,710.41c0,9.65-7.82,17.46-17.46,17.46s-17.46-7.82-17.46-17.46,7.82-17.46,17.46-17.46,17.46,7.82,17.46,17.46"></path></g><text class="cls-5" transform="translate(578.98 718.69)"><tspan x="0" y="0">4</tspan></text><g class="cls-27"><path class="cls-4" d="M112.15,758.68c0,9.65-7.82,17.46-17.46,17.46s-17.46-7.82-17.46-17.46,7.82-17.46,17.46-17.46,17.46,7.82,17.46,17.46"></path></g><text class="cls-5" transform="translate(88.09 766.96)"><tspan x="0" y="0">5</tspan></text><g class="cls-30"><path class="cls-4" d="M200.26,493.24c0,9.65-7.82,17.46-17.46,17.46s-17.46-7.82-17.46-17.46,7.82-17.46,17.46-17.46,17.46,7.82,17.46,17.46"></path></g><text class="cls-5" transform="translate(176.21 501.52)"><tspan x="0" y="0">6</tspan></text><g class="cls-29"><path class="cls-4" d="M504.28,465.46c0,9.65-7.82,17.46-17.46,17.46s-17.46-7.82-17.46-17.46,7.82-17.46,17.46-17.46,17.46,7.82,17.46,17.46"></path></g><text class="cls-5" transform="translate(480.23 473.74)"><tspan x="0" y="0">7</tspan></text><g class="cls-16"><path class="cls-4" d="M572.29,335.65c0,9.65-7.82,17.46-17.46,17.46s-17.46-7.82-17.46-17.46,7.82-17.46,17.46-17.46,17.46,7.82,17.46,17.46"></path></g><text class="cls-5" transform="translate(548.24 343.94)"><tspan x="0" y="0">8</tspan></text><g class="cls-13"><path class="cls-4" d="M824.51,436.36c0,9.65-7.82,17.46-17.46,17.46s-17.46-7.82-17.46-17.46,7.82-17.46,17.46-17.46,17.46,7.82,17.46,17.46"></path></g><text class="cls-5" transform="translate(800.46 444.65)"><tspan x="0" y="0">9</tspan></text><g class="cls-20"><path class="cls-4" d="M807.35,19.34c0,9.65-7.82,17.46-17.46,17.46s-17.46-7.82-17.46-17.46,7.82-17.46,17.46-17.46,17.46,7.82,17.46,17.46"></path></g><text class="cls-5" transform="translate(776.4 27.62)"><tspan x="0" y="0">10</tspan></text><g class="cls-18"><path class="cls-4" d="M1044.16,831.39c0,9.65-7.82,17.46-17.46,17.46s-17.46-7.82-17.46-17.46,7.82-17.46,17.46-17.46,17.46,7.82,17.46,17.46"></path></g><text class="cls-5" transform="translate(1013.21 839.67)"><tspan x="0" y="0">11</tspan></text><g class="cls-19"><path class="cls-4" d="M824.21,857.64c0,9.65-7.82,17.46-17.46,17.46s-17.46-7.82-17.46-17.46,7.82-17.46,17.46-17.46,17.46,7.82,17.46,17.46"></path></g><text class="cls-5" transform="translate(793.27 865.92)"><tspan x="0" y="0">12</tspan></text><g class="cls-17"><path class="cls-4" d="M715.82,866.32c0,9.65-7.82,17.46-17.46,17.46s-17.46-7.82-17.46-17.46,7.82-17.46,17.46-17.46,17.46,7.82,17.46,17.46"></path></g><text class="cls-5" transform="translate(684.88 874.6)"><tspan x="0" y="0">13</tspan></text><g class="cls-14"><path class="cls-4" d="M763.14,975.14c0,9.65-7.82,17.46-17.46,17.46s-17.46-7.82-17.46-17.46,7.82-17.46,17.46-17.46,17.46,7.82,17.46,17.46"></path></g><text class="cls-5" transform="translate(732.2 983.42)"><tspan x="0" y="0">14</tspan></text><rect class="cls-6" x="474.33" y="684.93" width="3.58" height="56.96" transform="translate(-162.95 141.37) rotate(-14.45)"></rect><g class="cls-11"><path class="cls-34" d="M505.64,721.82h-50.08c-.06.06-.09.1-.15.16v43.25h50.23v-43.42Z"></path></g><text class="cls-7" transform="translate(462.82 753.15)"><tspan class="cls-36" x="0" y="0">i</tspan><tspan x="18.57" y="0">1</tspan></text><g class="cls-15"><line class="cls-9" x1="345.42" y1="994.36" x2="345.22" y2="951.11"></line><rect class="cls-6" x="343.53" y="951.11" width="3.58" height="43.25" transform="translate(-4.88 1.75) rotate(-.29)"></rect><path class="cls-34" d="M369.91,985.65h-54.24c-.06.06-.1.1-.16.16v42.99h54.4v-43.15Z"></path></g><text class="cls-7" transform="translate(329.37 1016.32)"><tspan class="cls-35" x="0" y="0">f</tspan><tspan class="cls-32" x="19.04" y="0">l</tspan></text><g class="cls-12"><rect class="cls-33" x="319.84" y="1000.03" width="4.33" height="28.77"></rect><rect x="319.84" y="1004.83" width="4.33" height="4.79"></rect><rect x="319.84" y="1014.42" width="4.33" height="4.8"></rect><rect x="319.84" y="1024.01" width="4.33" height="4.8"></rect><rect class="cls-33" x="315.51" y="1000.03" width="4.33" height="28.77"></rect><rect x="315.51" y="1000.03" width="4.33" height="4.8"></rect><rect x="315.51" y="1009.62" width="4.33" height="4.79"></rect><rect x="315.51" y="1019.21" width="4.33" height="4.8"></rect><rect class="cls-33" x="319.84" y="985.65" width="4.33" height="14.38"></rect><rect x="319.84" y="985.65" width="4.33" height="4.79"></rect><rect x="319.84" y="995.24" width="4.33" height="4.8"></rect><rect class="cls-33" x="315.51" y="985.65" width="4.33" height="14.38"></rect><rect x="315.51" y="990.44" width="4.33" height="4.79"></rect><rect class="cls-6" x="367.31" y="519.15" width="60.29" height="3.59" transform="translate(-129.41 910.5) rotate(-89.14)"></rect><path class="cls-34" d="M426.84,524.6h-50.1c-.06.06-.09.09-.15.15v39.19h50.25v-39.34Z"></path></g><text class="cls-7" transform="translate(382.04 553.63)"><tspan class="cls-36" x="0" y="0">i</tspan><tspan x="18.57" y="0">2</tspan></text><g class="cls-21"><rect class="cls-9" x="921.76" y="526.58" width="46.48" height="3.59" transform="translate(-100.7 247.81) rotate(-14.19)"></rect><path class="cls-10" d="M999.15,502.63h-42.57c-.05.05-.08.09-.13.14v36.46h42.7v-36.6Z"></path></g><text class="cls-8" transform="translate(966.73 532.58)"><tspan x="0" y="0">s</tspan></text><g class="cls-22"><rect class="cls-6" x="829.45" y="140.97" width="63.3" height="3.58" transform="translate(-10.18 195.08) rotate(-12.85)"></rect><path class="cls-34" d="M922.64,114.49h-54.02c-.06.07-.1.1-.16.17v44.27h54.18v-44.44Z"></path></g><text class="cls-7" transform="translate(875.81 145.83)"><tspan class="cls-36" x="0" y="0">i</tspan><tspan x="18.57" y="0">3</tspan></text></g></g></svg>