<svg xmlns="http://www.w3.org/2000/svg" xmlns:xlink="http://www.w3.org/1999/xlink" id="_20-MAL" viewBox="0 0 1080 851.94"><defs><style>.cls-1,.cls-2,.cls-3{fill:none;}.cls-2{stroke:#a0a0a0;stroke-width:10px;}.cls-2,.cls-3{stroke-miterlimit:10;}.cls-4{fill:#444;}.cls-5{fill:#e6e6e6;}.cls-6{fill:#c6c6c6;font-family:MGPText-Bold, 'MGP Text';font-size:25.43px;font-weight:700;}.cls-3{stroke:#606060;stroke-width:7px;}.cls-7{fill:#f6f6f6;}.cls-8{clip-path:url(#clippath-17);}.cls-9{clip-path:url(#clippath-19);}.cls-10{clip-path:url(#clippath-11);}.cls-11{clip-path:url(#clippath-16);}.cls-12{clip-path:url(#clippath-18);}.cls-13{clip-path:url(#clippath-10);}.cls-14{clip-path:url(#clippath-15);}.cls-15{clip-path:url(#clippath-13);}.cls-16{clip-path:url(#clippath-14);}.cls-17{clip-path:url(#clippath-12);}.cls-18{clip-path:url(#clippath-20);}.cls-19{clip-path:url(#clippath-21);}.cls-20{clip-path:url(#clippath-22);}.cls-21{clip-path:url(#clippath-1);}.cls-22{clip-path:url(#clippath-3);}.cls-23{clip-path:url(#clippath-4);}.cls-24{clip-path:url(#clippath-2);}.cls-25{clip-path:url(#clippath-7);}.cls-26{clip-path:url(#clippath-6);}.cls-27{clip-path:url(#clippath-9);}.cls-28{clip-path:url(#clippath-8);}.cls-29{clip-path:url(#clippath-5);}.cls-30{font-size:24.77px;}.cls-30,.cls-31{font-family:MGPDisplayVF-Medium, 'MGP Display VF';font-variation-settings:'wght' 500, 'wdth' 100;font-weight:500;}.cls-30,.cls-32{fill:#ededed;}.cls-33{fill:#fafafa;}.cls-34{fill:red;}.cls-31{fill:#323232;font-size:30.69px;}.cls-35{letter-spacing:.02em;}.cls-36{letter-spacing:.02em;}.cls-37{clip-path:url(#clippath);}</style><clipPath id="clippath"><rect class="cls-1" y="-113.75" width="1080" height="1080"></rect></clipPath><clipPath id="clippath-1"><rect class="cls-1" y="-113.75" width="1080" height="1080"></rect></clipPath><clipPath id="clippath-2"><rect class="cls-1" y="-113.75" width="1080" height="1080"></rect></clipPath><clipPath id="clippath-3"><rect class="cls-1" y="-113.75" width="1080" height="1080"></rect></clipPath><clipPath id="clippath-4"><rect class="cls-1" y="-113.75" width="1080" height="1080"></rect></clipPath><clipPath id="clippath-5"><rect class="cls-1" y="-113.75" width="1080" height="1080"></rect></clipPath><clipPath id="clippath-6"><rect class="cls-1" y="-113.75" width="1080" height="1080"></rect></clipPath><clipPath id="clippath-7"><rect class="cls-1" y="-113.75" width="1080" height="1080"></rect></clipPath><clipPath id="clippath-8"><rect class="cls-1" y="-113.75" width="1080" height="1080"></rect></clipPath><clipPath id="clippath-9"><rect class="cls-1" y="-113.75" width="1080" height="1080"></rect></clipPath><clipPath id="clippath-10"><rect class="cls-1" y="-113.75" width="1080" height="1080"></rect></clipPath><clipPath id="clippath-11"><rect class="cls-1" y="-113.75" width="1080" height="1080"></rect></clipPath><clipPath id="clippath-12"><rect class="cls-1" y="-113.75" width="1080" height="1080"></rect></clipPath><clipPath id="clippath-13"><rect class="cls-1" y="-113.75" width="1080" height="1080"></rect></clipPath><clipPath id="clippath-14"><rect class="cls-1" y="-113.75" width="1080" height="1080"></rect></clipPath><clipPath id="clippath-15"><rect class="cls-1" y="-113.75" width="1080" height="1080"></rect></clipPath><clipPath id="clippath-16"><rect class="cls-1" y="-113.75" width="1080" height="1080"></rect></clipPath><clipPath id="clippath-17"><rect class="cls-1" y="-113.75" width="1080" height="1080"></rect></clipPath><clipPath id="clippath-18"><rect class="cls-1" y="-113.75" width="1080" height="1080"></rect></clipPath><clipPath id="clippath-19"><rect class="cls-1" y="-113.75" width="1080" height="1080"></rect></clipPath><clipPath id="clippath-20"><rect class="cls-1" y="-113.75" width="1080" height="1080"></rect></clipPath><clipPath id="clippath-21"><rect class="cls-1" y="-113.75" width="1080" height="1080"></rect></clipPath><clipPath id="clippath-22"><rect class="cls-1" y="-113.75" width="1080" height="1080"></rect></clipPath></defs><g id="_20-MAL-2"><g class="cls-37"><g class="cls-21"><path class="cls-3" d="M257.18,556.71s-62.35,5.51-91.47,11.71c-29.12,6.2-40.37,17.47-40.26,42.12.09,21.76,20.79,49.3,48.94,58.23,29.15,9.24,56.41,10.03,98.65,4.45"></path></g><g class="cls-24"><path class="cls-2" d="M589.6,435.06c-199.11,3.33-452.68,7.4-485.51,7.24-20.9-.11-30.57-20.37-24.74-37.91,6.42-19.34,23.4-20.09,34.05-18.1,19.55,3.66,38.48,26.71,51.46,7.75,9.29-13.57-3.63-28.08-14.41-44.54-24.61-37.56-23.74-75.26-14.48-116.91,15.23-68.49,61.53-89.7,90.19-95.96,114.06-24.91,278-86.81,280.41-87.72,10.34-3.91,36.2-17.71,40.78,3.62,3.67,17.09,15.98,135.92,22.55,169.39,4.15,21.16,17.86,68.5,62.45,82.68,39.51,12.57,74.62,3.7,95.23-18.11,21.84-23.12,45.1-41.18,83.1-35.04,22.49,3.63,37.34,17.18,51.57,34.61,8.61,10.55,107.92,139.38,115.84,150.4,12.23,17.02,30.54,29.94,19.53,46.94-10.07,15.54-18.27,33.6-28.91,54.21-4.26,8.26-14.61,11.44-23.9,11.5-7.58.06-139.95,1.35-156.01,2.13-34.7,1.69-138.33,5.8-192.2,9.11-20.4,1.25-28.81,17.69-6.66,31.79,30.41,19.35,59.6,33.77,62.42,66.87,3.09,36.21-11.21,118.02-57.43,138.3-16.59,7.28-33.46-11.18-37.84-14.69-.85-.68-142.46-132.02-142.73-132.29-2.59-2.54-22.89-21.16-50.4-11.7-29.49,10.14-63.32,36.31-105.65,33.95-38-2.11-85.78-21.46-100.33-69.62-12.31-40.76,30.85-36.84,59.52-41.09,1.84-.27,284.42-32.03,284.42-32.03l342.71-41.12c.07,0-18.34,2.2,0,0,4.83-.58,31.15-4.01,30.26-27.67-1.29-34.52-39.87-30.2-39.87-30.2l-245.42,4.19Z"></path></g><g class="cls-22"><path class="cls-4" d="M61.3,419.15c0,9.48-7.69,17.17-17.17,17.17s-17.17-7.69-17.17-17.17,7.69-17.17,17.17-17.17,17.17,7.69,17.17,17.17"></path></g><text class="cls-6" transform="translate(37.64 427.29)"><tspan x="0" y="0">1</tspan></text><g class="cls-23"><path class="cls-4" d="M215.74,401.81c0,9.48-7.69,17.17-17.17,17.17s-17.17-7.69-17.17-17.17,7.69-17.17,17.17-17.17,17.17,7.69,17.17,17.17"></path></g><text class="cls-6" transform="translate(192.08 409.95)"><tspan x="0" y="0">2</tspan></text><g class="cls-29"><path class="cls-4" d="M116.06,257.1c0,9.48-7.69,17.17-17.17,17.17s-17.17-7.69-17.17-17.17,7.69-17.17,17.17-17.17,17.17,7.69,17.17,17.17"></path></g><text class="cls-6" transform="translate(92.4 265.24)"><tspan x="0" y="0">3</tspan></text><g class="cls-26"><path class="cls-4" d="M582.84,18.54c0,9.48-7.69,17.17-17.17,17.17s-17.17-7.69-17.17-17.17,7.69-17.17,17.17-17.17,17.17,7.69,17.17,17.17"></path></g><text class="cls-6" transform="translate(559.19 26.67)"><tspan x="0" y="0">4</tspan></text><g class="cls-25"><path class="cls-4" d="M679.88,277.61c0,9.48-7.69,17.17-17.17,17.17s-17.17-7.69-17.17-17.17,7.69-17.17,17.17-17.17,17.17,7.69,17.17,17.17"></path></g><text class="cls-6" transform="translate(656.23 285.75)"><tspan x="0" y="0">5</tspan></text><g class="cls-28"><path class="cls-4" d="M826.5,218.6c0,9.48-7.69,17.17-17.17,17.17s-17.17-7.69-17.17-17.17,7.69-17.17,17.17-17.17,17.17,7.69,17.17,17.17"></path></g><text class="cls-6" transform="translate(802.84 226.74)"><tspan x="0" y="0">6</tspan></text><g class="cls-27"><path class="cls-4" d="M1052.43,474.07c0,9.48-7.69,17.17-17.17,17.17s-17.17-7.69-17.17-17.17,7.69-17.17,17.17-17.17,17.17,7.69,17.17,17.17"></path></g><text class="cls-6" transform="translate(1028.79 482.21)"><tspan x="0" y="0">7</tspan></text><g class="cls-13"><path class="cls-4" d="M995.34,575.05c0,9.48-7.69,17.17-17.17,17.17s-17.17-7.69-17.17-17.17,7.69-17.17,17.17-17.17,17.17,7.69,17.17,17.17"></path></g><text class="cls-6" transform="translate(971.69 583.19)"><tspan x="0" y="0">8</tspan></text><g class="cls-10"><path class="cls-4" d="M562.38,577.44c0,9.48-7.69,17.17-17.17,17.17s-17.17-7.69-17.17-17.17,7.69-17.17,17.17-17.17,17.17,7.69,17.17,17.17"></path></g><text class="cls-6" transform="translate(538.73 585.58)"><tspan x="0" y="0">9</tspan></text><g class="cls-17"><path class="cls-4" d="M697.35,632.04c0,9.48-7.69,17.17-17.17,17.17s-17.17-7.69-17.17-17.17,7.69-17.17,17.17-17.17,17.17,7.69,17.17,17.17"></path></g><text class="cls-6" transform="translate(666.91 640.19)"><tspan x="0" y="0">10</tspan></text><g class="cls-15"><path class="cls-4" d="M608.44,833c0,9.48-7.69,17.17-17.17,17.17s-17.17-7.69-17.17-17.17,7.69-17.17,17.17-17.17,17.17,7.69,17.17,17.17"></path></g><text class="cls-6" transform="translate(578 841.14)"><tspan x="0" y="0">11</tspan></text><g class="cls-16"><path class="cls-4" d="M398.9,669.78c0,9.48-7.69,17.17-17.17,17.17s-17.17-7.69-17.17-17.17,7.69-17.17,17.17-17.17,17.17,7.69,17.17,17.17"></path></g><text class="cls-6" transform="translate(368.46 677.92)"><tspan x="0" y="0">12</tspan></text><g class="cls-14"><path class="cls-4" d="M278.64,715.49c0,9.48-7.69,17.17-17.17,17.17s-17.17-7.69-17.17-17.17,7.69-17.17,17.17-17.17,17.17,7.69,17.17,17.17"></path></g><text class="cls-6" transform="translate(248.21 723.62)"><tspan x="0" y="0">13</tspan></text><g class="cls-11"><path class="cls-4" d="M132.25,559.27c0,9.48-7.69,17.17-17.17,17.17s-17.17-7.69-17.17-17.17,7.69-17.17,17.17-17.17,17.17,7.69,17.17,17.17"></path></g><text class="cls-6" transform="translate(101.82 567.4)"><tspan x="0" y="0">14</tspan></text><g class="cls-8"><path class="cls-4" d="M926.41,453.98c0,9.48-7.69,17.17-17.17,17.17s-17.17-7.69-17.17-17.17,7.69-17.17,17.17-17.17,17.17,7.69,17.17,17.17"></path></g><text class="cls-6" transform="translate(895.99 462.12)"><tspan x="0" y="0">15</tspan></text><rect class="cls-5" x="923" y="382.63" width="60.47" height="3.6" transform="translate(-56.36 577.22) rotate(-32.77)"></rect><g class="cls-12"><path class="cls-34" d="M1006.04,348.68h-50.26c-.06.06-.09.09-.15.15v39.31h50.41v-39.46Z"></path></g><text class="cls-30" transform="translate(961.1 377.8)"><tspan class="cls-36" x="0" y="0">i</tspan><tspan x="18.63" y="0">2</tspan></text><g class="cls-9"><rect class="cls-5" x="149.72" y="134.42" width="3.6" height="57.14" transform="translate(-70.1 183.24) rotate(-52.31)"></rect><path class="cls-34" d="M158.73,106.18h-50.23c-.06.06-.09.1-.15.17v43.38h50.38v-43.55Z"></path></g><text class="cls-30" transform="translate(115.77 137.61)"><tspan class="cls-36" x="0" y="0">i</tspan><tspan x="18.63" y="0">1</tspan></text><g class="cls-18"><rect class="cls-5" x="171.62" y="674.36" width="63.5" height="3.6" transform="translate(-499.88 613.1) rotate(-68.14)"></rect><path class="cls-34" d="M222.3,694.67h-54.19c-.06.07-.1.1-.16.17v44.41h54.35v-44.58Z"></path></g><text class="cls-30" transform="translate(175.32 726.1)"><tspan class="cls-36" x="0" y="0">i</tspan><tspan x="18.63" y="0">3</tspan></text><g class="cls-19"><line class="cls-32" x1="589.4" y1="464.39" x2="589.8" y2="421.01"></line><rect class="cls-5" x="567.91" y="440.9" width="43.38" height="3.6" transform="translate(141.66 1028.34) rotate(-89.49)"></rect><path class="cls-34" d="M613.98,451.21h-54.41c-.06.06-.1.1-.16.16v43.12h54.57v-43.29Z"></path></g><text class="cls-30" transform="translate(573.32 481.98)"><tspan class="cls-35" x="0" y="0">f</tspan><tspan x="19.1" y="0">l</tspan></text><g class="cls-20"><rect class="cls-33" x="563.76" y="465.64" width="4.34" height="28.86"></rect><rect x="563.76" y="470.45" width="4.34" height="4.81"></rect><rect x="563.76" y="480.07" width="4.34" height="4.81"></rect><rect x="563.76" y="489.69" width="4.34" height="4.81"></rect><rect class="cls-33" x="559.41" y="465.64" width="4.34" height="28.86"></rect><rect x="559.41" y="465.64" width="4.34" height="4.81"></rect><rect x="559.41" y="475.26" width="4.34" height="4.81"></rect><rect x="559.41" y="484.88" width="4.34" height="4.81"></rect><rect class="cls-33" x="563.76" y="451.21" width="4.34" height="14.43"></rect><rect x="563.76" y="451.21" width="4.34" height="4.81"></rect><rect x="563.76" y="460.83" width="4.34" height="4.81"></rect><rect class="cls-33" x="559.41" y="451.21" width="4.34" height="14.43"></rect><rect x="559.41" y="456.02" width="4.34" height="4.81"></rect><rect class="cls-32" x="298.41" y="426.56" width="3.6" height="46.62" transform="translate(-4.36 2.94) rotate(-.56)"></rect><path class="cls-7" d="M324.51,457.78h-42.71c-.05.05-.08.09-.13.14v36.58h42.83v-36.72Z"></path></g><text class="cls-31" transform="translate(291.99 487.81)"><tspan x="0" y="0">s</tspan></text></g></g></svg>