<svg xmlns="http://www.w3.org/2000/svg" xmlns:xlink="http://www.w3.org/1999/xlink" id="_11-NLD" viewBox="0 0 1080 912.75"><defs><style>.cls-1,.cls-2,.cls-3{fill:none;}.cls-2{stroke:#a0a0a0;stroke-width:9.9px;}.cls-2,.cls-3{stroke-miterlimit:10;}.cls-4{fill:#444;}.cls-5{fill:#e6e6e6;}.cls-3{stroke:#606060;stroke-width:7px;}.cls-6{fill:#f6f6f6;}.cls-7{font-size:24.17px;}.cls-7,.cls-8{font-family:MGPDisplayVF-Medium, 'MGP Display VF';font-variation-settings:'wght' 500, 'wdth' 100;font-weight:500;}.cls-7,.cls-9{fill:#ededed;}.cls-8{fill:#323232;font-size:29.94px;letter-spacing:.02em;}.cls-10{fill:#c6c6c6;font-family:MGPText-Bold, 'MGP Text';font-size:25.07px;font-weight:700;}.cls-11{clip-path:url(#clippath-17);}.cls-12{clip-path:url(#clippath-19);}.cls-13{clip-path:url(#clippath-11);}.cls-14{clip-path:url(#clippath-16);}.cls-15{clip-path:url(#clippath-18);}.cls-16{clip-path:url(#clippath-10);}.cls-17{clip-path:url(#clippath-15);}.cls-18{clip-path:url(#clippath-13);}.cls-19{clip-path:url(#clippath-14);}.cls-20{clip-path:url(#clippath-12);}.cls-21{clip-path:url(#clippath-26);}.cls-22{clip-path:url(#clippath-20);}.cls-23{clip-path:url(#clippath-21);}.cls-24{clip-path:url(#clippath-22);}.cls-25{clip-path:url(#clippath-24);}.cls-26{clip-path:url(#clippath-25);}.cls-27{clip-path:url(#clippath-1);}.cls-28{clip-path:url(#clippath-3);}.cls-29{clip-path:url(#clippath-4);}.cls-30{clip-path:url(#clippath-7);}.cls-31{clip-path:url(#clippath-6);}.cls-32{clip-path:url(#clippath-9);}.cls-33{clip-path:url(#clippath-8);}.cls-34{clip-path:url(#clippath-5);}.cls-35{fill:#fafafa;}.cls-36{letter-spacing:0em;}.cls-37{fill:red;}.cls-38{letter-spacing:.02em;}.cls-39{letter-spacing:.02em;}.cls-40{clip-path:url(#clippath);}</style><clipPath id="clippath"><rect class="cls-1" y="-83.62" width="1080" height="1080"></rect></clipPath><clipPath id="clippath-1"><rect class="cls-1" y="-83.62" width="1080" height="1080"></rect></clipPath><clipPath id="clippath-3"><rect class="cls-1" y="-83.62" width="1080" height="1080"></rect></clipPath><clipPath id="clippath-4"><rect class="cls-1" y="-83.62" width="1080" height="1080"></rect></clipPath><clipPath id="clippath-5"><rect class="cls-1" y="-83.62" width="1080" height="1080"></rect></clipPath><clipPath id="clippath-6"><rect class="cls-1" y="-83.62" width="1080" height="1080"></rect></clipPath><clipPath id="clippath-7"><rect class="cls-1" y="-83.62" width="1080" height="1080"></rect></clipPath><clipPath id="clippath-8"><rect class="cls-1" y="-83.62" width="1080" height="1080"></rect></clipPath><clipPath id="clippath-9"><rect class="cls-1" y="-83.62" width="1080" height="1080"></rect></clipPath><clipPath id="clippath-10"><rect class="cls-1" y="-83.62" width="1080" height="1080"></rect></clipPath><clipPath id="clippath-11"><rect class="cls-1" y="-83.62" width="1080" height="1080"></rect></clipPath><clipPath id="clippath-12"><rect class="cls-1" y="-83.62" width="1080" height="1080"></rect></clipPath><clipPath id="clippath-13"><rect class="cls-1" y="-83.62" width="1080" height="1080"></rect></clipPath><clipPath id="clippath-14"><rect class="cls-1" y="-83.62" width="1080" height="1080"></rect></clipPath><clipPath id="clippath-15"><rect class="cls-1" y="-83.62" width="1080" height="1080"></rect></clipPath><clipPath id="clippath-16"><rect class="cls-1" y="-83.62" width="1080" height="1080"></rect></clipPath><clipPath id="clippath-17"><rect class="cls-1" y="-83.62" width="1080" height="1080"></rect></clipPath><clipPath id="clippath-18"><rect class="cls-1" y="-83.62" width="1080" height="1080"></rect></clipPath><clipPath id="clippath-19"><rect class="cls-1" y="-83.62" width="1080" height="1080"></rect></clipPath><clipPath id="clippath-20"><rect class="cls-1" y="-83.62" width="1080" height="1080"></rect></clipPath><clipPath id="clippath-21"><rect class="cls-1" y="-83.62" width="1080" height="1080"></rect></clipPath><clipPath id="clippath-22"><rect class="cls-1" y="-83.62" width="1080" height="1080"></rect></clipPath><clipPath id="clippath-24"><rect class="cls-1" y="-83.62" width="1080" height="1080"></rect></clipPath><clipPath id="clippath-25"><rect class="cls-1" y="-83.62" width="1080" height="1080"></rect></clipPath><clipPath id="clippath-26"><rect class="cls-1" y="-83.62" width="1080" height="1080"></rect></clipPath></defs><g id="_12-GER"><path class="cls-2" d="M689.71,204.6c73.65-52.48,198.02-138.3,199.98-139.61,13.38-8.94,27.16-22.07,43.3-8.04,15.08,13.11,46.34,43.22,59.71,56.3,4.73,4.63,7.27,7.97,8,14.55.59,5.35,1.2,13.49,1.53,23.21.58,17.3,2.62,43.62,2.63,60.61,0,13.83-3.78,29.68-19.26,39.02-12.6,7.61-37.8,5.88-53.36-10.54-15.56-16.42-17.31-34.57-3.13-52.2,23.71-29.48,23.28-44.91,14.82-51.55-5.63-4.41-17.79-11.2-38.37,20.91-20.42,31.86-32.99,79.43-48.58,98.32-6.55,7.94-51.51,70.28-96.83,125.65-44.94,54.91-73.44,86.47-95.6,113.48-2.65,3.24-5.92,5.9-9.62,7.85-8.02,4.23-86.88,44.65-91.97,47.5-39.51,22.15-35.67,56.09-44.34,117.89-5.17,36.82-2.63,92-68.78,77-49.28-11.17-57.19-4.72-118.69-4.38-40.71.23-95.85-9.06-108.65-6.86-14.88,2.55-24.42,8.74-32.59,40.29-7.47,28.82-13.66,77.46-32.06,87.83-21.52,12.13-41.48-5.82-49.45-10.98-10.61-6.87-51.78-45.57-23.45-91.18,31.11-50.1,71.64-97.62,73.44-99.77,13.68-16.33,15.82-21.9,29.87-26.72,24.56-8.42,136.59-53.03,162.35-62.43,4.64-1.69,9.5-2.56,14.39-3.28,13.26-1.96,60.16-3.08,71.43-8.34,34.59-16.16,70.78-31.27,79.11-38.92,18.33-16.82,29.65-33.85,36.3-107.19,5.49-60.56,9.18-100.96,13.82-107.38,7.47-10.32,26.46.51,35.13-14.44,16.2-27.94,15.33-29.45,37.17-48.47,5.71-4.98,26.21-19.92,51.77-38.14Z"></path><polygon class="cls-9" points="766.01 421.22 763.64 423.88 725.12 393.39 727.49 390.73 766.01 421.22"></polygon><path class="cls-6" d="M802.46,407.23h-41.67l-.12.14v35.69h41.79v-35.83Z"></path><text class="cls-8" transform="translate(770.73 436.54)"><tspan x="0" y="0">S</tspan></text></g><g id="_11-NED"><g class="cls-40"><g class="cls-27"><path class="cls-3" d="M1002.41,145.78c.79,13.96,6.94,72.84,6.94,72.84,0,0,2.11,25.57,0,33.48-2.11,7.91-11.09,25.67-32.18,27.78-21.09,2.11-45.17-6.99-54.92-20.69-9.75-13.71-11.02-33.67-7.33-43.68,3.69-10.02,20.25-36.7,23.94-42.76"></path></g><g class="cls-28"><path class="cls-4" d="M937.05,19.36c0,9.35-7.58,16.93-16.93,16.93s-16.93-7.58-16.93-16.93,7.58-16.93,16.93-16.93,16.93,7.58,16.93,16.93"></path></g><text class="cls-10" transform="translate(913.72 27.39)"><tspan x="0" y="0">1</tspan></text><g class="cls-29"><path class="cls-4" d="M1043.35,105.46c0,9.35-7.58,16.93-16.93,16.93s-16.93-7.58-16.93-16.93,7.58-16.93,16.93-16.93,16.93,7.58,16.93,16.93"></path></g><text class="cls-10" transform="translate(1020.02 113.49)"><tspan x="0" y="0">2</tspan></text><g class="cls-34"><path class="cls-4" d="M980.76,305.75c0,9.35-7.58,16.93-16.93,16.93s-16.93-7.58-16.93-16.93,7.58-16.93,16.93-16.93,16.93,7.58,16.93,16.93"></path></g><text class="cls-10" transform="translate(957.43 313.78)"><tspan x="0" y="0">3</tspan></text><g class="cls-31"><path class="cls-4" d="M908.94,243.29c0,9.35-7.58,16.93-16.93,16.93s-16.93-7.58-16.93-16.93,7.58-16.93,16.93-16.93,16.93,7.58,16.93,16.93"></path></g><text class="cls-10" transform="translate(885.61 251.32)"><tspan x="0" y="0">4</tspan></text><g class="cls-30"><path class="cls-4" d="M957.65,105.46c0,9.35-7.58,16.93-16.93,16.93s-16.93-7.58-16.93-16.93,7.58-16.93,16.93-16.93,16.93,7.58,16.93,16.93"></path></g><text class="cls-10" transform="translate(934.33 113.49)"><tspan x="0" y="0">5</tspan></text><g class="cls-33"><path class="cls-4" d="M580.67,593.73c0,9.35-7.58,16.93-16.93,16.93s-16.93-7.58-16.93-16.93,7.58-16.93,16.93-16.93,16.93,7.58,16.93,16.93"></path></g><text class="cls-10" transform="translate(557.34 601.76)"><tspan x="0" y="0">7</tspan></text><g class="cls-32"><path class="cls-4" d="M537.73,760.9c0,9.35-7.58,16.93-16.93,16.93s-16.93-7.58-16.93-16.93,7.58-16.93,16.93-16.93,16.93,7.58,16.93,16.93"></path></g><text class="cls-10" transform="translate(514.41 768.93)"><tspan x="0" y="0">8</tspan></text><g class="cls-16"><path class="cls-4" d="M244.65,765.76c0,9.35-7.58,16.93-16.93,16.93s-16.93-7.58-16.93-16.93,7.58-16.93,16.93-16.93,16.93,7.58,16.93,16.93"></path></g><text class="cls-10" transform="translate(221.32 773.79)"><tspan x="0" y="0">9</tspan></text><g class="cls-13"><path class="cls-4" d="M184.49,892.42c0,9.35-7.58,16.93-16.93,16.93s-16.93-7.58-16.93-16.93,7.58-16.93,16.93-16.93,16.93,7.58,16.93,16.93"></path></g><text class="cls-10" transform="translate(154.49 900.45)"><tspan x="0" y="0">10</tspan></text><g class="cls-20"><path class="cls-4" d="M62.11,792.97c0,9.35-7.58,16.93-16.93,16.93s-16.93-7.58-16.93-16.93,7.58-16.93,16.93-16.93,16.93,7.58,16.93,16.93"></path></g><text class="cls-10" transform="translate(32.1 801)"><tspan x="0" y="0">11</tspan></text><g class="cls-18"><path class="cls-4" d="M184.72,606.38c0,9.35-7.58,16.93-16.93,16.93s-16.93-7.58-16.93-16.93,7.58-16.93,16.93-16.93,16.93,7.58,16.93,16.93"></path></g><text class="cls-10" transform="translate(154.71 614.42)"><tspan x="0" y="0">12</tspan></text><g class="cls-19"><path class="cls-4" d="M369.16,537.16c0,9.35-7.58,16.93-16.93,16.93s-16.93-7.58-16.93-16.93,7.58-16.93,16.93-16.93,16.93,7.58,16.93,16.93"></path></g><text class="cls-10" transform="translate(339.16 545.19)"><tspan x="0" y="0">13</tspan></text><g class="cls-17"><path class="cls-4" d="M442,528.74c0,9.35-7.58,16.93-16.93,16.93s-16.93-7.58-16.93-16.93,7.58-16.93,16.93-16.93,16.93,7.58,16.93,16.93"></path></g><text class="cls-10" transform="translate(411.99 536.77)"><tspan x="0" y="0">14</tspan></text><g class="cls-14"><path class="cls-4" d="M519.48,487.7c0,9.35-7.58,16.93-16.93,16.93s-16.93-7.58-16.93-16.93,7.58-16.93,16.93-16.93,16.93,7.58,16.93,16.93"></path></g><text class="cls-10" transform="translate(489.48 495.73)"><tspan x="0" y="0">15</tspan></text><g class="cls-11"><path class="cls-4" d="M557.62,285.7c0,9.35-7.58,16.93-16.93,16.93s-16.93-7.58-16.93-16.93,7.58-16.93,16.93-16.93,16.93,7.58,16.93,16.93"></path></g><text class="cls-10" transform="translate(527.62 293.73)"><tspan x="0" y="0">16</tspan></text><g class="cls-15"><path class="cls-4" d="M637.3,319.57c0,9.35-7.58,16.93-16.93,16.93s-16.93-7.58-16.93-16.93,7.58-16.93,16.93-16.93,16.93,7.58,16.93,16.93"></path></g><text class="cls-10" transform="translate(607.29 327.59)"><tspan x="0" y="0">17</tspan></text><g class="cls-12"><path class="cls-4" d="M616.43,235.26c0,9.35-7.58,16.93-16.93,16.93s-16.93-7.58-16.93-16.93,7.58-16.93,16.93-16.93,16.93,7.58,16.93,16.93"></path></g><text class="cls-10" transform="translate(586.42 243.29)"><tspan x="0" y="0">18</tspan></text><g class="cls-22"><path class="cls-4" d="M698.15,523.79c0,9.35-7.58,16.93-16.93,16.93s-16.93-7.58-16.93-16.93,7.58-16.93,16.93-16.93,16.93,7.58,16.93,16.93"></path></g><text class="cls-10" transform="translate(674.83 531.82)"><tspan x="0" y="0">6</tspan></text><rect class="cls-5" x="148.46" y="618.9" width="3.51" height="61.96" transform="translate(-466.26 395.2) rotate(-54.54)"></rect><g class="cls-23"><path class="cls-37" d="M128.41,606.38h-52.87c-.06.06-.1.1-.16.17v43.33h53.03v-43.5Z"></path></g><text class="cls-7" transform="translate(82.57 637.06)"><tspan class="cls-39" x="0" y="0">i</tspan><tspan class="cls-36" x="18.17" y="0">3</tspan></text><g class="cls-24"><rect class="cls-5" x="526.69" y="690.74" width="3.51" height="59.01" transform="translate(-271.89 1117.06) rotate(-80.11)"></rect><path class="cls-37" d="M580.38,702.66h-49.04c-.06.06-.09.09-.15.15v38.35h49.18v-38.5Z"></path></g><text class="cls-7" transform="translate(536.54 731.07)"><tspan class="cls-39" x="0" y="0">i</tspan><tspan class="cls-36" x="18.17" y="0">2</tspan></text><g class="cls-25"><polygon class="cls-5" points="901.62 280.2 851 243.68 853.07 241.58 903.68 278.11 901.62 280.2"></polygon><path class="cls-37" d="M914.59,266.46h-49.01c-.06.06-.09.1-.15.16v42.33h49.16v-42.49Z"></path></g><text class="cls-7" transform="translate(872.67 297.13)"><tspan class="cls-39" x="0" y="0">i</tspan><tspan class="cls-36" x="18.17" y="0">1</tspan></text><g class="cls-26"><line class="cls-9" x1="698.67" y1="218.31" x2="672.38" y2="177.94"></line><polygon class="cls-5" points="670.84 179.13 673.92 176.76 700.21 217.12 697.13 219.49 670.84 179.13"></polygon><path class="cls-37" d="M690.91,145.18h-53.09c-.06.06-.1.1-.16.16v42.08h53.25v-42.24Z"></path></g><text class="cls-7" transform="translate(651.23 175.2)"><tspan class="cls-38" x="0" y="0">f</tspan><tspan x="18.63" y="0">l</tspan></text><g class="cls-21"><rect class="cls-35" x="641.9" y="159.26" width="4.24" height="28.16"></rect><rect x="641.9" y="163.96" width="4.24" height="4.69"></rect><rect x="641.9" y="173.34" width="4.24" height="4.69"></rect><rect x="641.9" y="182.73" width="4.24" height="4.69"></rect><rect class="cls-35" x="637.66" y="159.26" width="4.24" height="28.16"></rect><rect x="637.66" y="159.26" width="4.24" height="4.69"></rect><rect x="637.66" y="168.65" width="4.24" height="4.69"></rect><rect x="637.66" y="178.03" width="4.24" height="4.69"></rect><rect class="cls-35" x="641.9" y="145.18" width="4.24" height="14.08"></rect><rect x="641.9" y="145.18" width="4.24" height="4.69"></rect><rect x="641.9" y="154.57" width="4.24" height="4.69"></rect><rect class="cls-35" x="637.66" y="145.18" width="4.24" height="14.08"></rect><rect x="637.66" y="149.88" width="4.24" height="4.69"></rect></g></g></g></svg>