<svg xmlns="http://www.w3.org/2000/svg" xmlns:xlink="http://www.w3.org/1999/xlink" id="_21-POR" viewBox="0 0 1080 492.1"><defs><style>.cls-1,.cls-2,.cls-3{fill:none;}.cls-2{stroke:#a0a0a0;stroke-width:10.91px;}.cls-2,.cls-3{stroke-miterlimit:10;}.cls-4{fill:#444;}.cls-5{fill:#c6c6c6;font-family:MGPText-Bold, 'MGP Text';font-size:27.68px;font-weight:700;}.cls-6{fill:#e6e6e6;}.cls-3{stroke:#606060;stroke-width:7.69px;}.cls-7{font-size:23.82px;}.cls-7,.cls-8{fill:#ededed;}.cls-7,.cls-9{font-family:MGPDisplayVF-Medium, 'MGP Display VF';font-variation-settings:'wght' 500, 'wdth' 100;font-weight:500;}.cls-10{fill:#f6f6f6;}.cls-11{clip-path:url(#clippath-17);}.cls-12{clip-path:url(#clippath-19);}.cls-13{clip-path:url(#clippath-11);}.cls-14{clip-path:url(#clippath-16);}.cls-15{clip-path:url(#clippath-18);}.cls-16{clip-path:url(#clippath-10);}.cls-17{clip-path:url(#clippath-15);}.cls-18{clip-path:url(#clippath-13);}.cls-19{clip-path:url(#clippath-14);}.cls-20{clip-path:url(#clippath-12);}.cls-21{clip-path:url(#clippath-20);}.cls-22{clip-path:url(#clippath-21);}.cls-23{clip-path:url(#clippath-22);}.cls-24{clip-path:url(#clippath-1);}.cls-25{clip-path:url(#clippath-3);}.cls-26{clip-path:url(#clippath-4);}.cls-27{clip-path:url(#clippath-2);}.cls-28{clip-path:url(#clippath-7);}.cls-29{clip-path:url(#clippath-6);}.cls-30{clip-path:url(#clippath-9);}.cls-31{clip-path:url(#clippath-8);}.cls-32{clip-path:url(#clippath-5);}.cls-33{letter-spacing:0em;}.cls-34{fill:#fafafa;}.cls-35{fill:red;}.cls-36{letter-spacing:.03em;}.cls-37{letter-spacing:.02em;}.cls-38{clip-path:url(#clippath);}.cls-9{fill:#323232;font-size:29.51px;}</style><clipPath id="clippath"><rect class="cls-1" y="-293.39" width="1080" height="1080"></rect></clipPath><clipPath id="clippath-1"><rect class="cls-1" y="-293.39" width="1080" height="1080"></rect></clipPath><clipPath id="clippath-2"><rect class="cls-1" y="-293.39" width="1080" height="1080"></rect></clipPath><clipPath id="clippath-3"><rect class="cls-1" y="-293.39" width="1080" height="1080"></rect></clipPath><clipPath id="clippath-4"><rect class="cls-1" y="-293.39" width="1080" height="1080"></rect></clipPath><clipPath id="clippath-5"><rect class="cls-1" y="-293.39" width="1080" height="1080"></rect></clipPath><clipPath id="clippath-6"><rect class="cls-1" y="-293.39" width="1080" height="1080"></rect></clipPath><clipPath id="clippath-7"><rect class="cls-1" y="-293.39" width="1080" height="1080"></rect></clipPath><clipPath id="clippath-8"><rect class="cls-1" y="-293.39" width="1080" height="1080"></rect></clipPath><clipPath id="clippath-9"><rect class="cls-1" y="-293.39" width="1080" height="1080"></rect></clipPath><clipPath id="clippath-10"><rect class="cls-1" y="-293.39" width="1080" height="1080"></rect></clipPath><clipPath id="clippath-11"><rect class="cls-1" y="-293.39" width="1080" height="1080"></rect></clipPath><clipPath id="clippath-12"><rect class="cls-1" y="-293.39" width="1080" height="1080"></rect></clipPath><clipPath id="clippath-13"><rect class="cls-1" y="-293.39" width="1080" height="1080"></rect></clipPath><clipPath id="clippath-14"><rect class="cls-1" y="-293.39" width="1080" height="1080"></rect></clipPath><clipPath id="clippath-15"><rect class="cls-1" y="-293.39" width="1080" height="1080"></rect></clipPath><clipPath id="clippath-16"><rect class="cls-1" y="-293.39" width="1080" height="1080"></rect></clipPath><clipPath id="clippath-17"><rect class="cls-1" y="-293.39" width="1080" height="1080"></rect></clipPath><clipPath id="clippath-18"><rect class="cls-1" y="-293.39" width="1080" height="1080"></rect></clipPath><clipPath id="clippath-19"><rect class="cls-1" y="-293.39" width="1080" height="1080"></rect></clipPath><clipPath id="clippath-20"><rect class="cls-1" y="-293.39" width="1080" height="1080"></rect></clipPath><clipPath id="clippath-21"><rect class="cls-1" y="-293.39" width="1080" height="1080"></rect></clipPath><clipPath id="clippath-22"><rect class="cls-1" y="-293.39" width="1080" height="1080"></rect></clipPath></defs><g id="_21-POR-2"><g class="cls-38"><g class="cls-24"><path class="cls-3" d="M837.81,191.06s-27.47-34.33-32.07-40.83c-4.6-6.5-8.43-10.13-7.34-21.43,1.09-11.3,12-20.38,19.63-23.35,6.71-2.61,21.38-9.66,40.68-7.63,19.3,2.03,37.17,13.13,46.34,23.95,9.82,11.58,17.16,27.57,23.31,38.07"></path></g><g class="cls-27"><path class="cls-2" d="M874.5,426.82c47.48,0,78.53-21.8,97.53-44.31,19-22.51,29.95-51.43,28.34-85.62-1.49-31.64-15.94-54.12-19.58-60.01-3.65-5.89-48.8-72-65.23-96.19s-32.9-31.37-48.74-32.37c-15.84-1-40.62,3.33-50.51,21.33-9.55,17.38,2.51,32.76,5.31,37.07,2.8,4.32,48.52,71.44,53.71,79.08,5.19,7.64,12.08,20.55-.23,33.43-11.26,11.78-25.99,4.77-29.98,2.94-4-1.82-43.38-19.91-66.53-30.36-23.15-10.45-33.81-16.2-45.83-32.29-12.4-16.59-13.99-35.57-14.08-40.92-.09-5.35-.32-84.99-1.17-109.6-.63-18.23-13.67-23.7-21.11-23.84-4.9-.09-11.65-.44-25.03.42-23.68,1.53-38.5,16.06-44.6,21.57-4.74,4.28-36.94,39.21-54.88,58.25-17.94,19.04-23.3,28.72-42.52,39.38-23.42,12.99-48.78,7.96-49.54,7.86-.76-.11-187.88-26.37-203.16-28.47-16.93-2.33-25.52-4.56-35.06,7.71-9.4,12.1-1.88,23.7,2.52,30.57,4.41,6.88,15.15,23.14,29.73,45.72,14.58,22.58,28.52,23.67,37.58,23.95,9.06.28,19.73-3.05,54.42-10.1s69.41-14.97,85.41-16.01c25.14-1.63,45.85,7.12,45.85,7.12,0,0,48.96,19.97,59.35,24.21,11.96,4.84,23.67,17.54,17.82,35.19-5.85,17.66-20.66,18.87-27.56,18.98-3.5,0-306.27.11-320.12.12-13.85,0-21.73-.4-34.14-9.3-12.4-8.91-16.43-23.61-16.43-23.61,0,0-14.32-53.51-15.9-59.46s-2.47-8.24-6.43-11.49c-3.96-3.25-9.1-3.61-14.01-2.38-4.91,1.22-8.44,6.66-8.44,6.66,0,0-46.75,81.41-48.14,83.88-1.39,2.47-3.51,7.57-3.53,14.43-.02,6.85,2.48,12.09,2.48,12.09,0,0,28.9,78.39,31.29,84.89,2.4,6.5,3.81,11.75,9.33,16.47,5.96,5.1,16.87,3.29,26.41,3.28,4.49,0,493.41-.2,493.41-.2,0,0,215.72-.08,232.01-.08Z"></path></g><g class="cls-25"><path class="cls-4" d="M123.73,456.32c0,10.33-8.37,18.69-18.69,18.69s-18.69-8.37-18.69-18.69,8.37-18.69,18.69-18.69,18.69,8.37,18.69,18.69"></path></g><text class="cls-5" transform="translate(97.98 465.18)"><tspan x="0" y="0">1</tspan></text><g class="cls-26"><path class="cls-4" d="M62.13,305.04c0,10.33-8.37,18.69-18.69,18.69s-18.69-8.37-18.69-18.69,8.37-18.69,18.69-18.69,18.69,8.37,18.69,18.69"></path></g><text class="cls-5" transform="translate(36.38 313.9)"><tspan x="0" y="0">2</tspan></text><g class="cls-32"><path class="cls-4" d="M176.39,168.54c0,10.33-8.37,18.7-18.69,18.7s-18.7-8.37-18.7-18.7,8.37-18.69,18.7-18.69,18.69,8.37,18.69,18.69"></path></g><text class="cls-5" transform="translate(150.64 177.4)"><tspan x="0" y="0">3</tspan></text><g class="cls-29"><path class="cls-4" d="M183.07,320.03c0,10.33-8.37,18.69-18.69,18.69s-18.7-8.37-18.7-18.69,8.37-18.69,18.7-18.69,18.69,8.37,18.69,18.69"></path></g><text class="cls-5" transform="translate(157.32 328.89)"><tspan x="0" y="0">4</tspan></text><g class="cls-28"><path class="cls-4" d="M557.89,282.64c0,10.33-8.37,18.69-18.69,18.69s-18.7-8.37-18.7-18.69,8.37-18.69,18.7-18.69,18.69,8.37,18.69,18.69"></path></g><text class="cls-5" transform="translate(532.14 291.5)"><tspan x="0" y="0">5</tspan></text><g class="cls-31"><path class="cls-4" d="M483.13,256.88c0,10.33-8.37,18.69-18.69,18.69s-18.7-8.37-18.7-18.69,8.37-18.69,18.7-18.69,18.69,8.37,18.69,18.69"></path></g><text class="cls-5" transform="translate(457.38 265.75)"><tspan x="0" y="0">6</tspan></text><g class="cls-30"><path class="cls-4" d="M334.36,218.63c0,10.33-8.37,18.69-18.69,18.69s-18.7-8.37-18.7-18.69,8.37-18.69,18.7-18.69,18.69,8.37,18.69,18.69"></path></g><text class="cls-5" transform="translate(308.61 227.49)"><tspan x="0" y="0">7</tspan></text><g class="cls-16"><path class="cls-4" d="M231.64,126.79c0,10.33-8.37,18.7-18.69,18.7s-18.7-8.37-18.7-18.7,8.37-18.69,18.7-18.69,18.69,8.37,18.69,18.69"></path></g><text class="cls-5" transform="translate(205.89 135.65)"><tspan x="0" y="0">8</tspan></text><g class="cls-13"><path class="cls-4" d="M521.88,136.08c0,10.33-8.37,18.7-18.69,18.7s-18.7-8.37-18.7-18.7,8.37-18.69,18.7-18.69,18.69,8.37,18.69,18.69"></path></g><text class="cls-5" transform="translate(496.13 144.94)"><tspan x="0" y="0">9</tspan></text><g class="cls-20"><path class="cls-4" d="M652.94,21.03c0,10.33-8.37,18.7-18.7,18.7s-18.69-8.37-18.69-18.7,8.37-18.69,18.69-18.69,18.7,8.37,18.7,18.69"></path></g><text class="cls-5" transform="translate(619.82 29.89)"><tspan x="0" y="0">10</tspan></text><g class="cls-18"><path class="cls-4" d="M757.21,26.35c0,10.33-8.37,18.69-18.69,18.69s-18.7-8.37-18.7-18.69,8.37-18.69,18.7-18.69,18.69,8.37,18.69,18.69"></path></g><text class="cls-5" transform="translate(724.08 35.22)"><tspan x="0" y="0">11</tspan></text><g class="cls-19"><path class="cls-4" d="M712.82,222c0,10.33-8.37,18.7-18.69,18.7s-18.7-8.37-18.7-18.7,8.37-18.69,18.7-18.69,18.69,8.37,18.69,18.69"></path></g><text class="cls-5" transform="translate(679.69 230.86)"><tspan x="0" y="0">12</tspan></text><g class="cls-17"><path class="cls-4" d="M918.24,307.49c0,10.33-8.37,18.69-18.7,18.69s-18.69-8.37-18.69-18.69,8.37-18.69,18.69-18.69,18.7,8.37,18.7,18.69"></path></g><text class="cls-5" transform="translate(885.12 316.36)"><tspan x="0" y="0">13</tspan></text><g class="cls-14"><path class="cls-4" d="M835.89,69.86c0,10.33-8.37,18.69-18.69,18.69s-18.7-8.37-18.7-18.69,8.37-18.69,18.7-18.69,18.69,8.37,18.69,18.69"></path></g><text class="cls-5" transform="translate(802.76 78.72)"><tspan x="0" y="0">14</tspan></text><g class="cls-11"><path class="cls-4" d="M1025.26,402.55c0,10.33-8.37,18.69-18.69,18.69s-18.7-8.37-18.7-18.69,8.37-18.69,18.7-18.69,18.69,8.37,18.69,18.69"></path></g><text class="cls-5" transform="translate(992.14 411.41)"><tspan x="0" y="0">15</tspan></text><rect class="cls-6" x="152.93" y="267.65" width="54.95" height="3.46" transform="translate(-53.08 44.44) rotate(-12.26)"></rect><g class="cls-15"><path class="cls-35" d="M243.68,244.49l-48.31-3c-.06.06-.09.1-.14.16v41.72l48.45,3v-41.88Z"></path></g><text class="cls-7" transform="translate(202.37 274.72)"><tspan class="cls-37" x="0" y="0">i</tspan><tspan class="cls-33" x="17.91" y="0">1</tspan></text><g class="cls-12"><rect class="cls-6" x="340.55" y="142.21" width="58.16" height="3.46" transform="translate(164.65 483.54) rotate(-80.16)"></rect><path class="cls-35" d="M399.83,88.43h-48.33c-.06.06-.09.09-.14.14v37.8h48.48v-37.95Z"></path></g><text class="cls-7" transform="translate(356.62 116.43)"><tspan class="cls-37" x="0" y="0">i</tspan><tspan class="cls-33" x="17.91" y="0">2</tspan></text><g class="cls-21"><rect class="cls-6" x="697.66" y="179.76" width="61.07" height="3.46" transform="translate(-.32 1.27) rotate(-.1)"></rect><path class="cls-35" d="M795.21,160.05h-52.11c-.06.06-.1.1-.16.16v42.71h52.27v-42.87Z"></path></g><text class="cls-7" transform="translate(750.04 190.28)"><tspan class="cls-37" x="0" y="0">i</tspan><tspan class="cls-33" x="17.91" y="0">3</tspan></text><g class="cls-22"><line class="cls-8" x1="642.42" y1="453.89" x2="642.52" y2="412.17"></line><rect class="cls-6" x="621.61" y="431.3" width="41.72" height="3.46" transform="translate(207.95 1074.5) rotate(-89.87)"></rect><path class="cls-35" d="M666.68,449.27h-52.33c-.06.06-.1.1-.16.16v41.47h52.48v-41.63Z"></path></g><text class="cls-7" transform="translate(627.57 478.86)"><tspan class="cls-36" x="0" y="0">f</tspan><tspan x="18.37" y="0">l</tspan></text><g class="cls-23"><rect class="cls-34" x="618.37" y="463.14" width="4.18" height="27.75"></rect><rect x="618.37" y="467.77" width="4.18" height="4.63"></rect><rect x="618.37" y="477.02" width="4.18" height="4.63"></rect><rect x="618.37" y="486.27" width="4.18" height="4.63"></rect><rect class="cls-34" x="614.2" y="463.14" width="4.18" height="27.75"></rect><rect x="614.2" y="463.14" width="4.18" height="4.63"></rect><rect x="614.2" y="472.39" width="4.18" height="4.63"></rect><rect x="614.2" y="481.64" width="4.18" height="4.63"></rect><rect class="cls-34" x="618.37" y="449.27" width="4.18" height="13.88"></rect><rect x="618.37" y="449.26" width="4.18" height="4.63"></rect><rect x="618.37" y="458.52" width="4.18" height="4.63"></rect><rect class="cls-34" x="614.2" y="449.27" width="4.18" height="13.88"></rect><rect x="614.2" y="453.89" width="4.18" height="4.63"></rect><rect class="cls-8" x="407.95" y="411.04" width="3.46" height="44.84" transform="translate(-13.82 13.5) rotate(-1.86)"></rect><path class="cls-10" d="M431.64,450.48h-41.07c-.05.05-.08.08-.12.13v35.18h41.19v-35.31Z"></path></g><text class="cls-9" transform="translate(400.37 479.37)"><tspan x="0" y="0">s</tspan></text></g></g></svg>