<svg xmlns="http://www.w3.org/2000/svg" xmlns:xlink="http://www.w3.org/1999/xlink" id="_04-QAT" viewBox="0 0 1080 817.59"><defs><style>.cls-1,.cls-2,.cls-3{fill:none;}.cls-2{stroke:#a0a0a0;stroke-width:10px;}.cls-2,.cls-3{stroke-miterlimit:10;}.cls-4{fill:#444;}.cls-5{fill:#323232;font-size:31.58px;}.cls-5,.cls-6{font-family:MGPDisplayVF-Medium, 'MGP Display VF';font-variation-settings:'wght' 500, 'wdth' 100;font-weight:500;}.cls-7{fill:#e6e6e6;}.cls-8{fill:#c6c6c6;font-family:MGPText-Bold, 'MGP Text';font-size:25.61px;font-weight:700;}.cls-3{stroke:#606060;stroke-width:7px;}.cls-9{fill:#f6f6f6;}.cls-6{font-size:25.49px;}.cls-6,.cls-10{fill:#ededed;}.cls-11{clip-path:url(#clippath-17);}.cls-12{clip-path:url(#clippath-19);}.cls-13{clip-path:url(#clippath-11);}.cls-14{clip-path:url(#clippath-16);}.cls-15{clip-path:url(#clippath-18);}.cls-16{clip-path:url(#clippath-10);}.cls-17{clip-path:url(#clippath-15);}.cls-18{clip-path:url(#clippath-13);}.cls-19{clip-path:url(#clippath-14);}.cls-20{clip-path:url(#clippath-12);}.cls-21{clip-path:url(#clippath-20);}.cls-22{clip-path:url(#clippath-21);}.cls-23{clip-path:url(#clippath-22);}.cls-24{clip-path:url(#clippath-23);}.cls-25{clip-path:url(#clippath-1);}.cls-26{clip-path:url(#clippath-3);}.cls-27{clip-path:url(#clippath-4);}.cls-28{clip-path:url(#clippath-2);}.cls-29{clip-path:url(#clippath-7);}.cls-30{clip-path:url(#clippath-6);}.cls-31{clip-path:url(#clippath-9);}.cls-32{clip-path:url(#clippath-8);}.cls-33{clip-path:url(#clippath-5);}.cls-34{letter-spacing:0em;}.cls-35{fill:#fafafa;}.cls-36{fill:red;}.cls-37{letter-spacing:.03em;}.cls-38{letter-spacing:.02em;}.cls-39{letter-spacing:.02em;}.cls-40{clip-path:url(#clippath);}</style><clipPath id="clippath"><rect class="cls-1" y="-124.45" width="1080" height="1080"></rect></clipPath><clipPath id="clippath-1"><rect class="cls-1" y="-124.45" width="1080" height="1080"></rect></clipPath><clipPath id="clippath-2"><rect class="cls-1" y="-124.45" width="1080" height="1080"></rect></clipPath><clipPath id="clippath-3"><rect class="cls-1" y="-124.45" width="1080" height="1080"></rect></clipPath><clipPath id="clippath-4"><rect class="cls-1" y="-124.45" width="1080" height="1080"></rect></clipPath><clipPath id="clippath-5"><rect class="cls-1" y="-124.45" width="1080" height="1080"></rect></clipPath><clipPath id="clippath-6"><rect class="cls-1" y="-124.45" width="1080" height="1080"></rect></clipPath><clipPath id="clippath-7"><rect class="cls-1" y="-124.45" width="1080" height="1080"></rect></clipPath><clipPath id="clippath-8"><rect class="cls-1" y="-124.45" width="1080" height="1080"></rect></clipPath><clipPath id="clippath-9"><rect class="cls-1" y="-124.45" width="1080" height="1080"></rect></clipPath><clipPath id="clippath-10"><rect class="cls-1" y="-124.45" width="1080" height="1080"></rect></clipPath><clipPath id="clippath-11"><rect class="cls-1" y="-124.45" width="1080" height="1080"></rect></clipPath><clipPath id="clippath-12"><rect class="cls-1" y="-124.45" width="1080" height="1080"></rect></clipPath><clipPath id="clippath-13"><rect class="cls-1" y="-124.45" width="1080" height="1080"></rect></clipPath><clipPath id="clippath-14"><rect class="cls-1" y="-124.45" width="1080" height="1080"></rect></clipPath><clipPath id="clippath-15"><rect class="cls-1" y="-124.45" width="1080" height="1080"></rect></clipPath><clipPath id="clippath-16"><rect class="cls-1" y="-124.45" width="1080" height="1080"></rect></clipPath><clipPath id="clippath-17"><rect class="cls-1" y="-124.45" width="1080" height="1080"></rect></clipPath><clipPath id="clippath-18"><rect class="cls-1" y="-124.45" width="1080" height="1080"></rect></clipPath><clipPath id="clippath-19"><rect class="cls-1" y="-124.45" width="1080" height="1080"></rect></clipPath><clipPath id="clippath-20"><rect class="cls-1" y="-124.45" width="1080" height="1080"></rect></clipPath><clipPath id="clippath-21"><rect class="cls-1" y="-124.45" width="1080" height="1080"></rect></clipPath><clipPath id="clippath-22"><rect class="cls-1" y="-124.45" width="1080" height="1080"></rect></clipPath><clipPath id="clippath-23"><rect class="cls-1" y="-124.45" width="1080" height="1080"></rect></clipPath></defs><g id="_04-QAT-2"><g class="cls-40"><g class="cls-25"><path class="cls-3" d="M309.81,245.75c0,16.14.17,79.3-5.5,102.91-4.2,17.5-30.46,29.37-49.05,10.86-12.47-12.41-21.8-90.44-26.87-107.56"></path></g><g class="cls-28"><path class="cls-2" d="M713.56,753.07l-274.17.1s-225.57.05-261.11.05c-20.44,0-40.39-17.3-42.7-40.59-3.87-38.89,27.82-48.85,51.02-62,34.59-19.59,57.24-32.63,77.07-44.16,24.93-14.49,39.4-55.63-3.48-79.96-31.5-17.88-68.52-31.44-91.05-47.42-10.26-7.28-20.5-15.54-25.91-33.23l-41.41-120.29-33.3-95.62s-19.16-48.68,13.02-63.74c32.18-15.07,70.88-25.62,70.88-25.62,0,0,37.09-12.75,49.83,25.5,12.75,38.24,44.04,140.23,44.04,140.23,0,0,6.06,24.67,22.02,27.81,16.94,3.34,28.55-2.84,32.03-29.06,3.25-24.52,21.3-162.81,23.81-182.04.14-1.1.83-6.53,1.73-14.07.86-7.16,4.85-42.61,43.04-42.99,32.46-.32,44.26,30.3,46.56,42.17,6.91,35.56,18.42,64.99,31.29,81.12,36.65,45.92,65.49,46.59,64.02,82.35-.43,10.5-11.17,43.97-15.88,60.16-6.03,20.75-7.28,24.27-10.49,36.2-5.74,21.3-6.72,39.68,9.42,51.61,13.94,10.3,32.2,5.04,44.09,2.22,39.98-9.49,119.84-37.75,164.12-143,23.45-55.75,48.82-129.05,58.68-145.5,13.58-22.66,33.62-33.99,52.36-34.31,52.9-.9,46.87-.17,80.43-.17,18.81,0,33.53,8.87,42.88,26.93,9.1,17.6,37.07,66.48,47.9,85.77,6.25,11.13,7.86,24.32,4.26,36.56-2.97,10.1-22.66,34.2-35.02,48.15-28.12,31.73-76.13,91.16-91.4,110.15-8.29,10.32-11.68,23.82-8.84,36.75,1.36,6.21,4.11,13.1,9.03,20.43,23.12,34.43,115.64,176.38,138.49,207.57,11.44,15.61,13.77,23.79,14.89,32.83,2.39,19.35-6.51,49.27-61.35,48.55-23.09-.3-184.49.08-184.49.08l-56.33.5Z"></path></g><g class="cls-26"><path class="cls-4" d="M122.79,732.69c0,9.55-7.74,17.3-17.3,17.3s-17.3-7.74-17.3-17.3,7.74-17.3,17.3-17.3,17.3,7.74,17.3,17.3"></path></g><text class="cls-8" transform="translate(98.97 740.89)"><tspan x="0" y="0">1</tspan></text><g class="cls-27"><path class="cls-4" d="M269.57,572.24c0,9.55-7.74,17.3-17.3,17.3s-17.3-7.74-17.3-17.3,7.74-17.3,17.3-17.3,17.3,7.74,17.3,17.3"></path></g><text class="cls-8" transform="translate(245.75 580.43)"><tspan x="0" y="0">2</tspan></text><g class="cls-33"><path class="cls-4" d="M146.77,488.45c0,9.55-7.74,17.3-17.3,17.3s-17.3-7.74-17.3-17.3,7.74-17.3,17.3-17.3,17.3,7.74,17.3,17.3"></path></g><text class="cls-8" transform="translate(122.94 496.64)"><tspan x="0" y="0">3</tspan></text><g class="cls-30"><path class="cls-4" d="M51.98,169.46c0,9.55-7.74,17.3-17.3,17.3s-17.3-7.74-17.3-17.3,7.75-17.3,17.3-17.3,17.3,7.74,17.3,17.3"></path></g><text class="cls-8" transform="translate(28.15 177.66)"><tspan x="0" y="0">4</tspan></text><g class="cls-29"><path class="cls-4" d="M225.11,119.28c0,9.55-7.74,17.3-17.3,17.3s-17.3-7.74-17.3-17.3,7.74-17.3,17.3-17.3,17.3,7.74,17.3,17.3"></path></g><text class="cls-8" transform="translate(201.28 127.47)"><tspan x="0" y="0">5</tspan></text><g class="cls-32"><path class="cls-4" d="M287.96,276.76c0,9.55-7.74,17.3-17.3,17.3s-17.3-7.74-17.3-17.3,7.74-17.3,17.3-17.3,17.3,7.74,17.3,17.3"></path></g><text class="cls-8" transform="translate(264.14 284.95)"><tspan x="0" y="0">6</tspan></text><g class="cls-31"><path class="cls-4" d="M389.9,33.17c0,9.55-7.74,17.3-17.3,17.3s-17.3-7.74-17.3-17.3,7.74-17.3,17.3-17.3,17.3,7.74,17.3,17.3"></path></g><text class="cls-8" transform="translate(366.07 41.36)"><tspan x="0" y="0">7</tspan></text><g class="cls-16"><path class="cls-4" d="M487.84,166.77c0,9.55-7.74,17.3-17.3,17.3s-17.3-7.74-17.3-17.3,7.74-17.3,17.3-17.3,17.3,7.74,17.3,17.3"></path></g><text class="cls-8" transform="translate(464.01 174.96)"><tspan x="0" y="0">8</tspan></text><g class="cls-13"><path class="cls-4" d="M559.37,255.15c0,9.55-7.74,17.3-17.3,17.3s-17.3-7.74-17.3-17.3,7.74-17.3,17.3-17.3,17.3,7.74,17.3,17.3"></path></g><text class="cls-8" transform="translate(535.54 263.35)"><tspan x="0" y="0">9</tspan></text><g class="cls-20"><path class="cls-4" d="M530.14,392.47c0,9.55-7.74,17.3-17.3,17.3s-17.3-7.74-17.3-17.3,7.74-17.3,17.3-17.3,17.3,7.74,17.3,17.3"></path></g><text class="cls-8" transform="translate(499.49 400.67)"><tspan x="0" y="0">10</tspan></text><g class="cls-18"><path class="cls-4" d="M635.66,344.02c0,9.55-7.74,17.3-17.3,17.3s-17.3-7.74-17.3-17.3,7.74-17.3,17.3-17.3,17.3,7.74,17.3,17.3"></path></g><text class="cls-8" transform="translate(605.01 352.21)"><tspan x="0" y="0">11</tspan></text><g class="cls-19"><path class="cls-4" d="M769.27,91.61c0,9.55-7.74,17.3-17.3,17.3s-17.3-7.74-17.3-17.3,7.74-17.3,17.3-17.3,17.3,7.74,17.3,17.3"></path></g><text class="cls-8" transform="translate(738.61 99.8)"><tspan x="0" y="0">12</tspan></text><g class="cls-17"><path class="cls-4" d="M949.26,74.31c0,9.55-7.74,17.3-17.3,17.3s-17.3-7.74-17.3-17.3,7.74-17.3,17.3-17.3,17.3,7.74,17.3,17.3"></path></g><text class="cls-8" transform="translate(918.6 82.5)"><tspan x="0" y="0">13</tspan></text><g class="cls-14"><path class="cls-4" d="M1040.75,237.59c0,9.55-7.74,17.3-17.3,17.3s-17.3-7.74-17.3-17.3,7.74-17.3,17.3-17.3,17.3,7.74,17.3,17.3"></path></g><text class="cls-8" transform="translate(1010.09 245.78)"><tspan x="0" y="0">14</tspan></text><g class="cls-11"><path class="cls-4" d="M902.2,434.12c0,9.55-7.74,17.3-17.3,17.3s-17.3-7.74-17.3-17.3,7.74-17.3,17.3-17.3,17.3,7.74,17.3,17.3"></path></g><text class="cls-8" transform="translate(871.54 442.31)"><tspan x="0" y="0">15</tspan></text><g class="cls-15"><path class="cls-4" d="M1062.61,733.82c0,9.55-7.74,17.3-17.3,17.3s-17.3-7.74-17.3-17.3,7.74-17.3,17.3-17.3,17.3,7.74,17.3,17.3"></path></g><text class="cls-8" transform="translate(1031.96 742.02)"><tspan x="0" y="0">16</tspan></text><rect class="cls-7" x="400.53" y="108.25" width="62.24" height="3.7" transform="translate(-12.95 137.93) rotate(-17.89)"></rect><g class="cls-12"><path class="cls-36" d="M494.89,82.63h-51.72c-.06.06-.09.09-.15.15v40.45h51.88v-40.61Z"></path></g><text class="cls-6" transform="translate(448.65 112.6)"><tspan class="cls-38" x="0" y="0">i</tspan><tspan x="19.17" y="0">2</tspan></text><g class="cls-21"><rect class="cls-7" x="865.43" y="76.37" width="65.35" height="3.7" transform="translate(797.08 974.05) rotate(-88.54)"></rect><path class="cls-36" d="M926.99,1.78h-55.77c-.06.07-.1.11-.17.17v45.7h55.93V1.78Z"></path></g><text class="cls-6" transform="translate(878.64 34.13)"><tspan class="cls-38" x="0" y="0">i</tspan><tspan x="19.17" y="0">3</tspan></text><g class="cls-22"><polygon class="cls-7" points="40.82 279.32 90.37 259.46 91.74 262.9 42.19 282.75 40.82 279.32"></polygon><path class="cls-36" d="M56.03,258.11H4.33c-.06.07-.09.1-.15.17v44.65h51.85v-44.82Z"></path></g><text class="cls-6" transform="translate(11.82 290.46)"><tspan class="cls-39" x="0" y="0">i</tspan><tspan x="19.17" y="0">1</tspan></text><g class="cls-23"><line class="cls-10" x1="713.28" y1="784.25" x2="713.69" y2="739.6"></line><rect class="cls-7" x="691.16" y="760.07" width="44.64" height="3.7" transform="translate(-54.77 1468.59) rotate(-89.49)"></rect><polygon class="cls-36" points="738.58 770.68 682.58 770.68 682.41 770.85 682.41 815.23 738.58 815.23 738.58 770.68"></polygon></g><text class="cls-6" transform="translate(696.72 802.35)"><tspan class="cls-37" x="0" y="0">f</tspan><tspan class="cls-34" x="19.66" y="0">l</tspan></text><g class="cls-24"><rect class="cls-35" x="686.88" y="785.53" width="4.47" height="29.7"></rect><rect x="686.88" y="790.48" width="4.47" height="4.95"></rect><rect x="686.88" y="800.38" width="4.47" height="4.95"></rect><rect x="686.88" y="810.28" width="4.47" height="4.95"></rect><rect class="cls-35" x="682.41" y="785.53" width="4.47" height="29.7"></rect><rect x="682.41" y="785.53" width="4.47" height="4.95"></rect><rect x="682.41" y="795.43" width="4.47" height="4.95"></rect><rect x="682.41" y="805.33" width="4.47" height="4.95"></rect><rect class="cls-35" x="686.88" y="770.68" width="4.47" height="14.85"></rect><rect x="686.88" y="770.68" width="4.47" height="4.95"></rect><rect x="686.88" y="780.58" width="4.47" height="4.95"></rect><rect class="cls-35" x="682.41" y="770.68" width="4.47" height="14.85"></rect><rect x="682.41" y="775.63" width="4.47" height="4.95"></rect><rect class="cls-10" x="375.44" y="738.2" width="3.7" height="47.98" transform="translate(-7.4 3.71) rotate(-.56)"></rect><path class="cls-9" d="M402.3,770.34h-43.95c-.05.06-.08.09-.13.14v37.65h44.08v-37.79Z"></path></g><text class="cls-5" transform="translate(368.83 801.25)"><tspan x="0" y="0">s</tspan></text></g></g></svg>