<svg xmlns="http://www.w3.org/2000/svg" xmlns:xlink="http://www.w3.org/1999/xlink" id="_15-RSM" viewBox="0 0 1080 609.8"><defs><style>.cls-1,.cls-2,.cls-3{fill:none;}.cls-2{stroke:#a0a0a0;stroke-width:9.91px;}.cls-2,.cls-3{stroke-miterlimit:10;}.cls-4{fill:#444;}.cls-5{fill:#e6e6e6;}.cls-6{font-size:25.16px;}.cls-6,.cls-7{fill:#c6c6c6;font-family:MGPText-Bold, 'MGP Text';font-weight:700;}.cls-3{stroke:#606060;stroke-width:7px;}.cls-8{fill:#f6f6f6;}.cls-7{font-size:25px;}.cls-9{clip-path:url(#clippath-17);}.cls-10{clip-path:url(#clippath-19);}.cls-11{clip-path:url(#clippath-11);}.cls-12{clip-path:url(#clippath-16);}.cls-13{clip-path:url(#clippath-18);}.cls-14{clip-path:url(#clippath-10);}.cls-15{clip-path:url(#clippath-15);}.cls-16{clip-path:url(#clippath-13);}.cls-17{clip-path:url(#clippath-14);}.cls-18{clip-path:url(#clippath-12);}.cls-19{clip-path:url(#clippath-20);}.cls-20{clip-path:url(#clippath-21);}.cls-21{clip-path:url(#clippath-22);}.cls-22{clip-path:url(#clippath-23);}.cls-23{clip-path:url(#clippath-1);}.cls-24{clip-path:url(#clippath-3);}.cls-25{clip-path:url(#clippath-4);}.cls-26{clip-path:url(#clippath-2);}.cls-27{clip-path:url(#clippath-7);}.cls-28{clip-path:url(#clippath-6);}.cls-29{clip-path:url(#clippath-9);}.cls-30{clip-path:url(#clippath-8);}.cls-31{clip-path:url(#clippath-5);}.cls-32{fill:#fafafa;}.cls-33{letter-spacing:0em;}.cls-34{fill:red;}.cls-35{font-size:24.2px;}.cls-35,.cls-36{fill:#ededed;}.cls-35,.cls-37{font-family:MGPDisplayVF-Medium, 'MGP Display VF';font-variation-settings:'wght' 500, 'wdth' 100;font-weight:500;}.cls-38{letter-spacing:.02em;}.cls-39{letter-spacing:.02em;}.cls-40{clip-path:url(#clippath);}.cls-37{fill:#323232;font-size:29.98px;}</style><clipPath id="clippath"><rect class="cls-1" y="-234.26" width="1080" height="1080"></rect></clipPath><clipPath id="clippath-1"><rect class="cls-1" y="-234.26" width="1080" height="1080"></rect></clipPath><clipPath id="clippath-2"><rect class="cls-1" y="-234.26" width="1080" height="1080"></rect></clipPath><clipPath id="clippath-3"><rect class="cls-1" y="-234.26" width="1080" height="1080"></rect></clipPath><clipPath id="clippath-4"><rect class="cls-1" y="-234.26" width="1080" height="1080"></rect></clipPath><clipPath id="clippath-5"><rect class="cls-1" y="-234.26" width="1080" height="1080"></rect></clipPath><clipPath id="clippath-6"><rect class="cls-1" y="-234.26" width="1080" height="1080"></rect></clipPath><clipPath id="clippath-7"><rect class="cls-1" y="-234.26" width="1080" height="1080"></rect></clipPath><clipPath id="clippath-8"><rect class="cls-1" y="-234.26" width="1080" height="1080"></rect></clipPath><clipPath id="clippath-9"><rect class="cls-1" y="-234.26" width="1080" height="1080"></rect></clipPath><clipPath id="clippath-10"><rect class="cls-1" y="-234.26" width="1080" height="1080"></rect></clipPath><clipPath id="clippath-11"><rect class="cls-1" y="-234.26" width="1080" height="1080"></rect></clipPath><clipPath id="clippath-12"><rect class="cls-1" y="-234.26" width="1080" height="1080"></rect></clipPath><clipPath id="clippath-13"><rect class="cls-1" y="-234.26" width="1080" height="1080"></rect></clipPath><clipPath id="clippath-14"><rect class="cls-1" y="-234.26" width="1080" height="1080"></rect></clipPath><clipPath id="clippath-15"><rect class="cls-1" y="-234.26" width="1080" height="1080"></rect></clipPath><clipPath id="clippath-16"><rect class="cls-1" y="-234.26" width="1080" height="1080"></rect></clipPath><clipPath id="clippath-17"><rect class="cls-1" y="-234.26" width="1080" height="1080"></rect></clipPath><clipPath id="clippath-18"><rect class="cls-1" y="-234.26" width="1080" height="1080"></rect></clipPath><clipPath id="clippath-19"><rect class="cls-1" y="-234.26" width="1080" height="1080"></rect></clipPath><clipPath id="clippath-20"><rect class="cls-1" y="-234.26" width="1080" height="1080"></rect></clipPath><clipPath id="clippath-21"><rect class="cls-1" y="-234.26" width="1080" height="1080"></rect></clipPath><clipPath id="clippath-22"><rect class="cls-1" y="-234.26" width="1080" height="1080"></rect></clipPath><clipPath id="clippath-23"><rect class="cls-1" y="-234.26" width="1080" height="1080"></rect></clipPath></defs><g id="_15-RSM-2"><g class="cls-40"><g class="cls-23"><path class="cls-3" d="M466.51,32.63c-18.68-6.85-46.33-20.67-66.84-21.26-11.61-.33-25.64,4.34-33.9,15.16-15.37,20.11-5.61,39.45,1.55,46.19,7.16,6.74,21.27,17.27,28.85,24.01,7.58,6.74,14.53,9.48,19.58,10.53,5.05,1.05,27.15,4.73,37.53,7.39"></path></g><g class="cls-26"><path class="cls-2" d="M610.38,330.65c-82.93,33.07-157.66,62.98-162.47,64.82-10.8,4.15-22.75,9.18-36.98,4.14-9.13-3.23-19-15.45-26.51-23.03-7.5-7.58-22.61-28.95-37.69-30.28-17.95-1.58-27.84,11.13-36.64,18.93-12.23,10.85-21.41,19.17-28.52,25.44-11.98,10.57-26.04,13.3-41.18,10.57-40.89-7.38-59.45-24.58-77.02-43.89-17.57-19.32-81.07-92.21-81.07-92.21,0,0-8.35-8.18-8.38-16.02-.02-6.88,3.85-12.93,11-15.56,4.66-1.72,31.25-3.52,39.71-4.2,8.46-.68,14.09.33,18.54,5.76,4.44,5.43,9.28,18.49,15.65,31.87,0,0,10.85,22.97,12.23,25.77,1.38,2.8,4.58,8.73,11.33,12.97,6.75,4.24,14.04,3.11,20.71,2.89,6.67-.22,186.05-7.44,186.05-7.44,0,0,23.83-.53,53.02-4.63,29.19-4.1,54.11-8.68,74.59-13.31,20.48-4.63,150.01-35.93,150.01-35.93,0,0,32.27-5.62,40.28-26.83,2.09-5.54,6.11-31.79-46.21-52.87-30.13-12.14-224.62-58.37-226.92-58.89-2.3-.53-5.2-1.91-7.56-4.07-2.36-2.17-12.82-12.25-15.9-15.4,0,0-15.58-15.96-18.38-19.8-13.12-18-5.07-34.75,6.53-41.42,7.72-4.45,17.28-4.7,22.18-4.7,24.07,0,63.65,17.25,72.4,20.66,8.75,3.41,319.45,125.84,328.04,129.28,8.58,3.44,30.23,11.13,39.71,19.63,9.48,8.5,15.03,16.28,19.32,22.45,4.29,6.17,29.97,41.6,35.16,48.13,5.19,6.53,58.24,79.89,58.24,79.89,0,0,13.15,18.49,15.84,23.71,4.57,8.85,8.13,20.93,9.21,36.59,1.08,15.66,5.1,75.78,5.1,75.78,0,0,1.23,17.18-2.78,23.62-4.02,6.44-8.98,11.86-18.42,17.8-9.44,5.95-55.29,34.14-63.64,38.96s-15.47,9.77-22.38,9.84c-6.91.07-14.19-2.1-18.29-8.71-4.1-6.6-3.36-12.72-1.28-17.19,2.08-4.47,67.76-100.34,71.77-108.16,6.38-12.45,4.24-21.01-2.84-32.65s-78.73-145.59-87.29-154.29c-5.9-6-13.78-9.04-22.69-6.79-6.57,1.66-122.31,47.62-225.57,88.79Z"></path></g><g class="cls-24"><path class="cls-4" d="M422.68,431.3c0,9.38-7.61,16.99-16.99,16.99s-16.99-7.61-16.99-16.99,7.61-16.99,16.99-16.99,16.99,7.61,16.99,16.99"></path></g><text class="cls-6" transform="translate(399.28 439.36)"><tspan x="0" y="0">1</tspan></text><g class="cls-25"><path class="cls-4" d="M359.88,378.99c0,9.38-7.61,16.99-16.99,16.99s-16.99-7.61-16.99-16.99,7.61-16.99,16.99-16.99,16.99,7.61,16.99,16.99"></path></g><text class="cls-6" transform="translate(336.48 387.05)"><tspan x="0" y="0">2</tspan></text><g class="cls-31"><path class="cls-4" d="M246.42,431.66c0,9.38-7.61,16.99-16.99,16.99s-16.99-7.61-16.99-16.99,7.61-16.99,16.99-16.99,16.99,7.61,16.99,16.99"></path></g><text class="cls-6" transform="translate(223.03 439.71)"><tspan x="0" y="0">3</tspan></text><g class="cls-28"><path class="cls-4" d="M62.79,230.07c0,9.38-7.61,16.99-16.99,16.99s-16.99-7.61-16.99-16.99,7.61-16.99,16.99-16.99,16.99,7.61,16.99,16.99"></path></g><text class="cls-6" transform="translate(39.4 238.12)"><tspan x="0" y="0">4</tspan></text><g class="cls-27"><path class="cls-4" d="M172.8,203.66c0,9.38-7.61,16.99-16.99,16.99s-16.99-7.61-16.99-16.99,7.61-16.99,16.99-16.99,16.99,7.61,16.99,16.99"></path></g><text class="cls-6" transform="translate(149.4 211.71)"><tspan x="0" y="0">5</tspan></text><g class="cls-30"><path class="cls-4" d="M184.17,323.91c0,9.38-7.61,16.99-16.99,16.99s-16.99-7.61-16.99-16.99,7.61-16.99,16.99-16.99,16.99,7.61,16.99,16.99"></path></g><text class="cls-6" transform="translate(160.77 331.97)"><tspan x="0" y="0">6</tspan></text><g class="cls-29"><path class="cls-4" d="M445.55,265.48c0,9.38-7.61,16.99-16.99,16.99s-16.99-7.61-16.99-16.99,7.61-16.99,16.99-16.99,16.99,7.61,16.99,16.99"></path></g><text class="cls-6" transform="translate(422.15 273.54)"><tspan x="0" y="0">7</tspan></text><g class="cls-14"><path class="cls-4" d="M690.69,211.71c0,9.38-7.61,16.99-16.99,16.99s-16.99-7.61-16.99-16.99,7.61-16.99,16.99-16.99,16.99,7.61,16.99,16.99"></path></g><text class="cls-6" transform="translate(667.3 219.77)"><tspan x="0" y="0">8</tspan></text><g class="cls-11"><path class="cls-4" d="M434.03,136.34c0,9.38-7.61,16.99-16.99,16.99s-16.99-7.61-16.99-16.99,7.61-16.99,16.99-16.99,16.99,7.61,16.99,16.99"></path></g><text class="cls-6" transform="translate(410.63 144.39)"><tspan x="0" y="0">9</tspan></text><g class="cls-18"><path class="cls-4" d="M350.21,20.64c0,9.38-7.61,16.99-16.99,16.99s-16.99-7.61-16.99-16.99,7.61-16.99,16.99-16.99,16.99,7.61,16.99,16.99"></path></g><text class="cls-6" transform="translate(320.11 28.69)"><tspan x="0" y="0">10</tspan></text><g class="cls-16"><path class="cls-4" d="M895.68,165.36c0,9.38-7.61,16.99-16.99,16.99s-16.99-7.61-16.99-16.99,7.61-16.99,16.99-16.99,16.99,7.61,16.99,16.99"></path></g><text class="cls-6" transform="translate(865.58 173.42)"><tspan x="0" y="0">11</tspan></text><g class="cls-17"><path class="cls-4" d="M1040.44,361.04c0,9.38-7.61,16.99-16.99,16.99s-16.99-7.61-16.99-16.99,7.61-16.99,16.99-16.99,16.99,7.61,16.99,16.99"></path></g><text class="cls-6" transform="translate(1010.35 369.1)"><tspan x="0" y="0">12</tspan></text><g class="cls-15"><path class="cls-4" d="M1045.18,520.92c0,9.38-7.61,16.99-16.99,16.99s-16.99-7.61-16.99-16.99,7.61-16.99,16.99-16.99,16.99,7.61,16.99,16.99"></path></g><text class="cls-6" transform="translate(1015.08 528.97)"><tspan x="0" y="0">13</tspan></text><g class="cls-12"><path class="cls-4" d="M871.25,582.14c0,9.38-7.61,16.99-16.99,16.99s-16.99-7.61-16.99-16.99,7.61-16.99,16.99-16.99,16.99,7.61,16.99,16.99"></path></g><text class="cls-6" transform="translate(841.15 590.2)"><tspan x="0" y="0">14</tspan></text><g class="cls-9"><path class="cls-4" d="M937.19,421.53c0,9.38-7.61,16.99-16.99,16.99s-16.99-7.61-16.99-16.99,7.61-16.99,16.99-16.99,16.99,7.61,16.99,16.99"></path></g><text class="cls-6" transform="translate(907.09 429.58)"><tspan x="0" y="0">15</tspan></text><g class="cls-13"><path class="cls-4" d="M855.43,274.9c0,9.38-7.61,16.99-16.99,16.99s-16.99-7.61-16.99-16.99,7.61-16.99,16.99-16.99,16.99,7.61,16.99,16.99"></path></g><text class="cls-6" transform="translate(825.33 282.96)"><tspan x="0" y="0">16</tspan></text><text class="cls-7" transform="translate(82.19 212.07)"><tspan x="0" y="0">Rio</tspan></text><rect class="cls-5" x="148.01" y="275.53" width="55.82" height="3.51" transform="translate(-103.29 104.43) rotate(-25.85)"></rect><g class="cls-10"><path class="cls-34" d="M232.87,248.05h-49.07c-.06.06-.09.1-.15.16v42.38h49.22v-42.55Z"></path></g><text class="cls-35" transform="translate(190.91 278.76)"><tspan class="cls-39" x="0" y="0">i</tspan><tspan class="cls-33" x="18.2" y="0">1</tspan></text><g class="cls-19"><line class="cls-36" x1="621.66" y1="351.48" x2="604.62" y2="312.68"></line><rect class="cls-5" x="611.38" y="310.89" width="3.51" height="42.38" transform="translate(-81.79 274.69) rotate(-23.72)"></rect><path class="cls-34" d="M645.3,350.19h-53.15c-.06.06-.1.1-.16.16v42.13h53.31v-42.29Z"></path></g><text class="cls-35" transform="translate(605.57 380.25)"><tspan class="cls-38" x="0" y="0">f</tspan><tspan x="18.66" y="0">l</tspan></text><g class="cls-20"><rect class="cls-32" x="596.23" y="364.29" width="4.24" height="28.19"></rect><rect x="596.23" y="368.99" width="4.24" height="4.7"></rect><rect x="596.23" y="378.39" width="4.24" height="4.7"></rect><rect x="596.23" y="387.78" width="4.24" height="4.7"></rect><rect class="cls-32" x="591.99" y="364.29" width="4.24" height="28.19"></rect><rect x="591.99" y="364.29" width="4.24" height="4.7"></rect><rect x="591.99" y="373.69" width="4.24" height="4.7"></rect><rect x="591.99" y="383.08" width="4.24" height="4.7"></rect><rect class="cls-32" x="596.23" y="350.19" width="4.24" height="14.1"></rect><rect x="596.23" y="350.19" width="4.24" height="4.7"></rect><rect x="596.23" y="359.59" width="4.24" height="4.7"></rect><rect class="cls-32" x="591.99" y="350.19" width="4.24" height="14.1"></rect><rect x="591.99" y="354.89" width="4.24" height="4.7"></rect><rect class="cls-5" x="931.34" y="537.91" width="3.51" height="62.04" transform="translate(-157.39 640.89) rotate(-35.15)"></rect><path class="cls-34" d="M986.63,564.29h-52.94c-.06.06-.1.1-.16.17v43.38h53.1v-43.55Z"></path></g><text class="cls-35" transform="translate(940.73 595)"><tspan class="cls-39" x="0" y="0">i</tspan><tspan class="cls-33" x="18.2" y="0">3</tspan></text><g class="cls-21"><rect class="cls-36" x="704.71" y="125.3" width="45.55" height="3.51" transform="translate(405.31 791.58) rotate(-74.04)"></rect><path class="cls-8" d="M755.79,82.79h-41.72c-.05.05-.08.08-.12.14v35.73h41.85v-35.87Z"></path></g><text class="cls-37" transform="translate(724.03 112.14)"><tspan x="0" y="0">s</tspan></text><g class="cls-22"><rect class="cls-5" x="433.16" y="127.97" width="59.08" height="3.51" transform="translate(218.5 543.6) rotate(-75.12)"></rect><path class="cls-34" d="M489.94,135.85h-49.1c-.06.06-.09.09-.15.15v38.4h49.24v-38.55Z"></path></g><text class="cls-35" transform="translate(446.04 164.3)"><tspan class="cls-39" x="0" y="0">i</tspan><tspan class="cls-33" x="18.2" y="0">2</tspan></text></g></g></svg>