<svg xmlns="http://www.w3.org/2000/svg" xmlns:xlink="http://www.w3.org/1999/xlink" id="_05-SPA" viewBox="0 0 1080 1024.25"><defs><style>.cls-1,.cls-2,.cls-3{fill:none;}.cls-2{stroke:#a0a0a0;stroke-width:10px;}.cls-2,.cls-3{stroke-miterlimit:10;}.cls-4{fill:#444;}.cls-5{fill:#e6e6e6;}.cls-3{stroke:#606060;stroke-width:7px;}.cls-6{fill:#f6f6f6;}.cls-7{font-size:26.92px;}.cls-7,.cls-8{fill:#c6c6c6;font-family:MGPText-Bold, 'MGP Text';font-weight:700;}.cls-8{font-size:26.84px;}.cls-9{clip-path:url(#clippath-17);}.cls-10{clip-path:url(#clippath-19);}.cls-11{clip-path:url(#clippath-11);}.cls-12{clip-path:url(#clippath-16);}.cls-13{clip-path:url(#clippath-18);}.cls-14{clip-path:url(#clippath-10);}.cls-15{clip-path:url(#clippath-15);}.cls-16{clip-path:url(#clippath-13);}.cls-17{clip-path:url(#clippath-14);}.cls-18{clip-path:url(#clippath-12);}.cls-19{clip-path:url(#clippath-20);}.cls-20{clip-path:url(#clippath-21);}.cls-21{clip-path:url(#clippath-1);}.cls-22{clip-path:url(#clippath-3);}.cls-23{clip-path:url(#clippath-4);}.cls-24{clip-path:url(#clippath-2);}.cls-25{clip-path:url(#clippath-7);}.cls-26{clip-path:url(#clippath-6);}.cls-27{clip-path:url(#clippath-9);}.cls-28{clip-path:url(#clippath-8);}.cls-29{clip-path:url(#clippath-5);}.cls-30{font-size:25.53px;}.cls-30,.cls-31{font-family:MGPDisplayVF-Medium, 'MGP Display VF';font-variation-settings:'wght' 500, 'wdth' 100;font-weight:500;}.cls-30,.cls-32{fill:#ededed;}.cls-33{fill:#fafafa;}.cls-31{fill:#323232;font-size:31.63px;}.cls-34{fill:red;}.cls-35{letter-spacing:.02em;}.cls-36{letter-spacing:.02em;}.cls-37{clip-path:url(#clippath);}</style><clipPath id="clippath"><rect class="cls-1" y="-27.59" width="1080" height="1080"></rect></clipPath><clipPath id="clippath-1"><rect class="cls-1" y="-27.59" width="1080" height="1080"></rect></clipPath><clipPath id="clippath-2"><rect class="cls-1" y="-27.59" width="1080" height="1080"></rect></clipPath><clipPath id="clippath-3"><rect class="cls-1" y="-27.59" width="1080" height="1080"></rect></clipPath><clipPath id="clippath-4"><rect class="cls-1" y="-27.59" width="1080" height="1080"></rect></clipPath><clipPath id="clippath-5"><rect class="cls-1" y="-27.59" width="1080" height="1080"></rect></clipPath><clipPath id="clippath-6"><rect class="cls-1" y="-27.59" width="1080" height="1080"></rect></clipPath><clipPath id="clippath-7"><rect class="cls-1" y="-27.59" width="1080" height="1080"></rect></clipPath><clipPath id="clippath-8"><rect class="cls-1" y="-27.59" width="1080" height="1080"></rect></clipPath><clipPath id="clippath-9"><rect class="cls-1" y="-27.59" width="1080" height="1080"></rect></clipPath><clipPath id="clippath-10"><rect class="cls-1" y="-27.59" width="1080" height="1080"></rect></clipPath><clipPath id="clippath-11"><rect class="cls-1" y="-27.59" width="1080" height="1080"></rect></clipPath><clipPath id="clippath-12"><rect class="cls-1" y="-27.59" width="1080" height="1080"></rect></clipPath><clipPath id="clippath-13"><rect class="cls-1" y="-27.59" width="1080" height="1080"></rect></clipPath><clipPath id="clippath-14"><rect class="cls-1" y="-27.59" width="1080" height="1080"></rect></clipPath><clipPath id="clippath-15"><rect class="cls-1" y="-27.59" width="1080" height="1080"></rect></clipPath><clipPath id="clippath-16"><rect class="cls-1" y="-27.59" width="1080" height="1080"></rect></clipPath><clipPath id="clippath-17"><rect class="cls-1" y="-27.59" width="1080" height="1080"></rect></clipPath><clipPath id="clippath-18"><rect class="cls-1" y="-27.59" width="1080" height="1080"></rect></clipPath><clipPath id="clippath-19"><rect class="cls-1" y="-27.59" width="1080" height="1080"></rect></clipPath><clipPath id="clippath-20"><rect class="cls-1" y="-27.59" width="1080" height="1080"></rect></clipPath><clipPath id="clippath-21"><rect class="cls-1" y="-27.59" width="1080" height="1080"></rect></clipPath></defs><g id="_05-SPA-2"><g class="cls-37"><g class="cls-21"><path class="cls-3" d="M698.95,424.4s42.4-5.08,55.99-.73c7.67,2.46,18.02,8.61,22.03,17.9,4.02,9.29,2.72,17.3-1.78,24.45-8.7,13.8-40.72,20.18-70.91,27.04"></path></g><g class="cls-24"><path class="cls-2" d="M367.46,417.24l-231.49-5c-14.61-.33-24.71-5.18-30.5-12.42-10.2-12.73-10.75-25.85,1.47-52.35l42.46-98.86c4.47-9.7,16.56-40.23,23.96-49.77,12.25-15.79,44.9-13.93,49.76,16.92,8.87,56.37,18.57,75.05,40.96,89.43,16.94,10.88,90.96,36.74,122.99,48.41,20.83,7.59,41.86,7.49,63.7,3.68,21.36-3.72,44.49-17.95,60.2-41.13,19.02-28.07,118.43-186.53,140.84-221.07,5.15-7.93,16.92-20.73,24.52-26.35,20.98-15.49,75.54-30.75,120.58,16.17,18.87,21.53,23.01,45.73,34.8,92.58,3.19,12.67,82.03,311.68,97.68,373.84,21.08,83.72,37.3,139.72,37.3,139.72,0,0,6.66,26.44-17.49,35.9-18.08,7.08-33.17-8.01-45.99-23.91-8.88-11.02-93.77-113.81-99.66-120.05-16.53-17.54-44.03-42.51-99.87-28.45-42.11,10.6-104.48,26.85-144.86,37.02-34.2,8.61-51.25,20.73-64.13,44.01-4.8,8.68-18.06,38.79-4.17,80,4.3,12.77,15.75,29.89,23.88,38.27,29.93,30.89,35.19,35.39,45.74,44.62,11.86,10.38,62.99,59.6,78.39,74.61,6.79,6.61,11.36,15.25,12.58,24.65,1.49,11.51.65,29.29-18.33,40.9-59.99,36.72-63.39,37.96-63.39,37.96,0,0-26.7,21.74-57.12-13.15-33.28-38.17-109.13-136.89-135.13-165.87-20.73-23.12-37.47-62.68-10.25-112.04,36.03-65.35,60.05-105.02,60.65-105.88,9.1-13.04,9.25-14.01,39.75-21.69,58.29-14.67,254.51-69.83,254.51-69.83,0,0,29.6-7.28,26.4-33.65-3.92-32.26-39.45-29.88-39.45-29.88l-341.31-7.37Z"></path></g><g class="cls-22"><path class="cls-4" d="M745.1,20.23c0,10.01-8.12,18.13-18.13,18.13s-18.13-8.12-18.13-18.13,8.12-18.13,18.13-18.13,18.13,8.12,18.13,18.13"></path></g><text class="cls-8" transform="translate(720.14 28.82)"><tspan x="0" y="0">5</tspan></text><g class="cls-23"><path class="cls-4" d="M456.24,327.91c0,10.01-8.12,18.13-18.13,18.13s-18.13-8.12-18.13-18.13,8.12-18.13,18.13-18.13,18.13,8.12,18.13,18.13"></path></g><text class="cls-8" transform="translate(431.27 336.51)"><tspan x="0" y="0">4</tspan></text><g class="cls-29"><path class="cls-4" d="M293.96,272.28c0,10.01-8.12,18.13-18.13,18.13s-18.13-8.12-18.13-18.13,8.12-18.13,18.13-18.13,18.13,8.12,18.13,18.13"></path></g><text class="cls-8" transform="translate(268.99 280.88)"><tspan x="0" y="0">3</tspan></text><g class="cls-26"><path class="cls-4" d="M212.23,164.6c0,10.01-8.12,18.13-18.13,18.13s-18.13-8.12-18.13-18.13,8.12-18.13,18.13-18.13,18.13,8.12,18.13,18.13"></path></g><text class="cls-8" transform="translate(187.27 173.19)"><tspan x="0" y="0">2</tspan></text><g class="cls-25"><path class="cls-4" d="M93.03,413.12c0,10.01-8.12,18.13-18.13,18.13s-18.13-8.12-18.13-18.13,8.12-18.13,18.13-18.13,18.13,8.12,18.13,18.13"></path></g><text class="cls-8" transform="translate(68.07 421.72)"><tspan x="0" y="0">1</tspan></text><g class="cls-28"><path class="cls-4" d="M726.98,454.08c0,10.01-8.12,18.13-18.13,18.13s-18.13-8.12-18.13-18.13,8.12-18.13,18.13-18.13,18.13,8.12,18.13,18.13"></path></g><text class="cls-8" transform="translate(694.86 462.68)"><tspan x="0" y="0">13</tspan></text><g class="cls-27"><path class="cls-4" d="M449.8,540.16c0,10.01-8.12,18.13-18.13,18.13s-18.13-8.12-18.13-18.13,8.12-18.13,18.13-18.13,18.13,8.12,18.13,18.13"></path></g><text class="cls-8" transform="translate(417.68 548.75)"><tspan x="0" y="0">12</tspan></text><g class="cls-14"><path class="cls-4" d="M344.33,756.73c0,10.01-8.12,18.13-18.13,18.13s-18.13-8.12-18.13-18.13,8.12-18.13,18.13-18.13,18.13,8.12,18.13,18.13"></path></g><text class="cls-8" transform="translate(312.2 765.33)"><tspan x="0" y="0">11</tspan></text><g class="cls-11"><path class="cls-4" d="M536.13,1004.31c0,10.01-8.12,18.13-18.13,18.13s-18.13-8.12-18.13-18.13,8.12-18.13,18.13-18.13,18.13,8.12,18.13,18.13"></path></g><text class="cls-8" transform="translate(504.01 1012.9)"><tspan x="0" y="0">10</tspan></text><g class="cls-18"><path class="cls-4" d="M703.47,909.4c0,10.01-8.12,18.13-18.13,18.13s-18.13-8.12-18.13-18.13,8.12-18.13,18.13-18.13,18.13,8.12,18.13,18.13"></path></g><text class="cls-8" transform="translate(678.5 917.99)"><tspan x="0" y="0">9</tspan></text><g class="cls-16"><path class="cls-4" d="M539.71,658.01c0,10.04-8.14,18.18-18.18,18.18s-18.18-8.14-18.18-18.18,8.14-18.18,18.18-18.18,18.18,8.14,18.18,18.18"></path></g><text class="cls-7" transform="translate(514.67 666.63)"><tspan x="0" y="0">8</tspan></text><g class="cls-17"><path class="cls-4" d="M752.72,577.63c0,10.01-8.12,18.13-18.13,18.13s-18.13-8.12-18.13-18.13,8.12-18.13,18.13-18.13,18.13,8.12,18.13,18.13"></path></g><text class="cls-8" transform="translate(727.76 586.22)"><tspan x="0" y="0">7</tspan></text><g class="cls-15"><path class="cls-4" d="M967.82,756.73c0,10.01-8.12,18.13-18.13,18.13s-18.13-8.12-18.13-18.13,8.12-18.13,18.13-18.13,18.13,8.12,18.13,18.13"></path></g><text class="cls-8" transform="translate(942.85 765.32)"><tspan x="0" y="0">6</tspan></text><path class="cls-32" d="M367.81,443.24l-.51-39.79.51,39.79Z"></path><rect class="cls-5" x="365.9" y="403.45" width="3.3" height="39.79" transform="translate(-5.48 4.82) rotate(-.75)"></rect><polygon class="cls-5" points="617.29 174.14 562.57 144.05 564.44 141.07 619.16 171.17 617.29 174.14"></polygon><rect class="cls-5" x="904.21" y="516.4" width="55.47" height="3.3" transform="translate(-93.83 227.07) rotate(-13.23)"></rect><rect class="cls-5" x="638.89" y="923.09" width="3.3" height="58.25" transform="translate(-422.48 519.79) rotate(-33.94)"></rect><g class="cls-12"><path class="cls-34" d="M579.89,118.63h-51.77c-.06.07-.09.1-.15.17v44.71h51.92v-44.88Z"></path></g><text class="cls-30" transform="translate(535.61 151.03)"><tspan class="cls-36" x="0" y="0">i</tspan><tspan x="19.2" y="0">1</tspan></text><g class="cls-9"><path class="cls-34" d="M396.09,433.82h-56.07c-.06.07-.1.1-.17.17v44.44h56.24v-44.61Z"></path></g><text class="cls-30" transform="translate(354.18 465.53)"><tspan class="cls-35" x="0" y="0">f</tspan><tspan x="19.68" y="0">l</tspan></text><g class="cls-13"><rect class="cls-33" x="344.33" y="448.69" width="4.48" height="29.74"></rect><rect x="344.33" y="453.65" width="4.48" height="4.96"></rect><rect x="344.33" y="463.56" width="4.48" height="4.96"></rect><rect x="344.33" y="473.48" width="4.48" height="4.96"></rect><rect class="cls-33" x="339.85" y="448.69" width="4.48" height="29.74"></rect><rect x="339.85" y="448.69" width="4.48" height="4.96"></rect><rect x="339.85" y="458.61" width="4.48" height="4.96"></rect><rect x="339.85" y="468.52" width="4.48" height="4.96"></rect><rect class="cls-33" x="344.33" y="433.82" width="4.48" height="14.87"></rect><rect x="344.33" y="433.82" width="4.48" height="4.96"></rect><rect x="344.33" y="443.74" width="4.48" height="4.96"></rect><rect class="cls-33" x="339.85" y="433.82" width="4.48" height="14.87"></rect><rect x="339.85" y="438.78" width="4.48" height="4.96"></rect><path class="cls-34" d="M686.16,954.32h-55.84c-.07.07-.1.11-.17.17v45.77h56.01v-45.94Z"></path></g><text class="cls-30" transform="translate(637.75 986.72)"><tspan class="cls-36" x="0" y="0">i</tspan><tspan x="19.2" y="0">3</tspan></text><g class="cls-10"><path class="cls-34" d="M998.74,490.83h-51.79c-.06.06-.09.09-.15.15v40.51h51.95v-40.66Z"></path></g><text class="cls-30" transform="translate(952.43 520.83)"><tspan class="cls-36" x="0" y="0">i</tspan><tspan x="19.2" y="0">2</tspan></text><g class="cls-19"><path class="cls-6" d="M979.52,419.7h-44.01c-.05.06-.08.09-.13.14v37.7h44.14v-37.84Z"></path></g><text class="cls-31" transform="translate(946.01 450.66)"><tspan x="0" y="0">s</tspan></text><g class="cls-20"><rect class="cls-5" x="884.43" y="443.26" width="55.47" height="3.3" transform="translate(-77.62 220.59) rotate(-13.23)"></rect></g></g></g></svg>