<svg xmlns="http://www.w3.org/2000/svg" xmlns:xlink="http://www.w3.org/1999/xlink" id="_01-THA" viewBox="0 0 1080 619.93"><defs><style>.cls-1,.cls-2,.cls-3{fill:none;}.cls-2{stroke:#a0a0a0;stroke-width:10px;}.cls-2,.cls-3{stroke-miterlimit:10;}.cls-4{fill:#444;}.cls-5{fill:#c6c6c6;font-family:MGPText-Bold, 'MGP Text';font-size:25.27px;font-weight:700;}.cls-6{fill:#e6e6e6;}.cls-3{stroke:#606060;stroke-width:7px;}.cls-7{fill:#f6f6f6;}.cls-8{fill:#323232;font-size:30.31px;}.cls-8,.cls-9{font-family:MGPDisplayVF-Medium, 'MGP Display VF';font-variation-settings:'wght' 500, 'wdth' 100;font-weight:500;}.cls-10{clip-path:url(#clippath-17);}.cls-11{clip-path:url(#clippath-19);}.cls-12{clip-path:url(#clippath-11);}.cls-13{clip-path:url(#clippath-16);}.cls-14{clip-path:url(#clippath-18);}.cls-15{clip-path:url(#clippath-10);}.cls-16{clip-path:url(#clippath-15);}.cls-17{clip-path:url(#clippath-13);}.cls-18{clip-path:url(#clippath-14);}.cls-19{clip-path:url(#clippath-12);}.cls-20{clip-path:url(#clippath-20);}.cls-21{clip-path:url(#clippath-1);}.cls-22{clip-path:url(#clippath-3);}.cls-23{clip-path:url(#clippath-4);}.cls-24{clip-path:url(#clippath-2);}.cls-25{clip-path:url(#clippath-7);}.cls-26{clip-path:url(#clippath-6);}.cls-27{clip-path:url(#clippath-9);}.cls-28{clip-path:url(#clippath-8);}.cls-29{clip-path:url(#clippath-5);}.cls-30{letter-spacing:0em;}.cls-31{fill:#fafafa;}.cls-9{font-size:24.47px;}.cls-9,.cls-32{fill:#ededed;}.cls-33{fill:red;}.cls-34{letter-spacing:.03em;}.cls-35{letter-spacing:.02em;}.cls-36{clip-path:url(#clippath);}</style><clipPath id="clippath"><rect class="cls-1" y="-230.87" width="1080" height="1080"></rect></clipPath><clipPath id="clippath-1"><rect class="cls-1" y="-230.87" width="1080" height="1080"></rect></clipPath><clipPath id="clippath-2"><rect class="cls-1" y="-230.87" width="1080" height="1080"></rect></clipPath><clipPath id="clippath-3"><rect class="cls-1" y="-230.87" width="1080" height="1080"></rect></clipPath><clipPath id="clippath-4"><rect class="cls-1" y="-230.87" width="1080" height="1080"></rect></clipPath><clipPath id="clippath-5"><rect class="cls-1" y="-230.87" width="1080" height="1080"></rect></clipPath><clipPath id="clippath-6"><rect class="cls-1" y="-230.87" width="1080" height="1080"></rect></clipPath><clipPath id="clippath-7"><rect class="cls-1" y="-230.87" width="1080" height="1080"></rect></clipPath><clipPath id="clippath-8"><rect class="cls-1" y="-230.87" width="1080" height="1080"></rect></clipPath><clipPath id="clippath-9"><rect class="cls-1" y="-230.87" width="1080" height="1080"></rect></clipPath><clipPath id="clippath-10"><rect class="cls-1" y="-230.87" width="1080" height="1080"></rect></clipPath><clipPath id="clippath-11"><rect class="cls-1" y="-230.87" width="1080" height="1080"></rect></clipPath><clipPath id="clippath-12"><rect class="cls-1" y="-230.87" width="1080" height="1080"></rect></clipPath><clipPath id="clippath-13"><rect class="cls-1" y="-230.87" width="1080" height="1080"></rect></clipPath><clipPath id="clippath-14"><rect class="cls-1" y="-230.87" width="1080" height="1080"></rect></clipPath><clipPath id="clippath-15"><rect class="cls-1" y="-230.87" width="1080" height="1080"></rect></clipPath><clipPath id="clippath-16"><rect class="cls-1" y="-230.87" width="1080" height="1080"></rect></clipPath><clipPath id="clippath-17"><rect class="cls-1" y="-230.87" width="1080" height="1080"></rect></clipPath><clipPath id="clippath-18"><rect class="cls-1" y="-230.87" width="1080" height="1080"></rect></clipPath><clipPath id="clippath-19"><rect class="cls-1" y="-230.87" width="1080" height="1080"></rect></clipPath><clipPath id="clippath-20"><rect class="cls-1" y="-230.87" width="1080" height="1080"></rect></clipPath></defs><g id="_01-THA-2"><g class="cls-36"><g class="cls-21"><path class="cls-3" d="M197.57,371.52s-25.08,27.82-31.91,46.05c-7.77,20.75-4.49,36.16,25.43,43.3,29.92,7.14,63.94,13.87,75.54,11.25,11.59-2.62,34.25-8.73,49.66-58.82l9.31-28.6"></path></g><g class="cls-24"><path class="cls-2" d="M97.84,463.48c24.99-113.57,68.13-312.26,69.54-317.93,6.34-25.54,8.13-34.34,29.01-34.36,8.91,0,367.1,3.99,406.76,2.84,137.78-4,260.08-23.81,328.98-30.26,29.12-2.73,43.19-7.01,58.22,2.61,12.55,8.04,23.42,37.99,3.19,56.04-15.83,14.13-34.49,11.47-74.31,14.59-11.52.9-87.21,6.6-205.71,16.28-68.6,5.61-142.07,11.64-205.3,16.85-86.29,7.1-153.5,12.65-163.22,13.46-.56.05-1.13.04-1.69.12-8.88,1.28-43.45,3.72-68.69,45.09-24.59,40.32-97.46,153.52-97.46,153.52,0,0-19.04,29.18,19.85,40.45,34.37,9.97,62.16,14.48,85.56,5.12,23.4-9.36,35.79-37.88,41.04-62.5,5.73-26.85,9.82-56.85,18.27-70.57,10.32-16.74,21.76-23.67,28.28-27.17,15.65-8.4,31.78-10.82,60.63-13.24,44.84-3.75,159.07-17.27,176.74-19.02,23.43-2.32,45.11,7.43,53.23,33.87.17.57,25.73,65.51,32.42,81.13,3.65,8.53,6.49,17.02,4.66,28.69-2.15,13.68-13.87,27.97-26.44,33.95-18.6,8.85-35.9.61-52.82-11.7-3.54-2.58-35.61-30.92-76.35-23.64-42.57,7.6-63.19,38.57-89.68,61.42-18.08,15.6-29.19,15.55-82.06,30.76-11.57,3.33-56.15,17.4-117.52,36.08-73.84,22.47-147.96,44.44-147.96,44.44,0,0-14.55,5.55-21.23.13-8.79-7.14-6.99-14.12-2.71-31.83,2-8.26,8.36-36.89,16.79-75.21"></path></g><g class="cls-22"><path class="cls-4" d="M175.11,90.53c0,9.43-7.64,17.07-17.07,17.07s-17.07-7.64-17.07-17.07,7.64-17.07,17.07-17.07,17.07,7.64,17.07,17.07"></path></g><text class="cls-5" transform="translate(151.61 98.63)"><tspan x="0" y="0">1</tspan></text><g class="cls-23"><path class="cls-4" d="M724.26,69.4c0,9.43-7.64,17.07-17.07,17.07s-17.07-7.64-17.07-17.07,7.64-17.07,17.07-17.07,17.07,7.64,17.07,17.07"></path></g><text class="cls-5" transform="translate(700.75 77.5)"><tspan x="0" y="0">2</tspan></text><g class="cls-29"><path class="cls-4" d="M1054.17,110.51c0,9.43-7.64,17.07-17.07,17.07s-17.07-7.64-17.07-17.07,7.64-17.07,17.07-17.07,17.07,7.64,17.07,17.07"></path></g><text class="cls-5" transform="translate(1030.66 118.6)"><tspan x="0" y="0">3</tspan></text><g class="cls-26"><path class="cls-4" d="M294.71,196.17c0,9.43-7.64,17.07-17.07,17.07s-17.07-7.64-17.07-17.07,7.64-17.07,17.07-17.07,17.07,7.64,17.07,17.07"></path></g><text class="cls-5" transform="translate(271.2 204.26)"><tspan x="0" y="0">4</tspan></text><g class="cls-25"><path class="cls-4" d="M158.34,457.79c0,9.43-7.64,17.07-17.07,17.07s-17.07-7.64-17.07-17.07,7.64-17.07,17.07-17.07,17.07,7.64,17.07,17.07"></path></g><text class="cls-5" transform="translate(134.83 465.89)"><tspan x="0" y="0">5</tspan></text><g class="cls-28"><path class="cls-4" d="M339.64,466.61c0,9.43-7.64,17.07-17.07,17.07s-17.07-7.64-17.07-17.07,7.64-17.07,17.07-17.07,17.07,7.64,17.07,17.07"></path></g><text class="cls-5" transform="translate(316.12 474.7)"><tspan x="0" y="0">6</tspan></text><g class="cls-27"><path class="cls-4" d="M354.71,269.75c0,9.43-7.64,17.07-17.07,17.07s-17.07-7.64-17.07-17.07,7.64-17.07,17.07-17.07,17.07,7.64,17.07,17.07"></path></g><text class="cls-5" transform="translate(331.2 277.84)"><tspan x="0" y="0">7</tspan></text><g class="cls-15"><path class="cls-4" d="M681.23,238.48c0,9.43-7.64,17.07-17.07,17.07s-17.07-7.64-17.07-17.07,7.64-17.07,17.07-17.07,17.07,7.64,17.07,17.07"></path></g><text class="cls-5" transform="translate(657.73 246.57)"><tspan x="0" y="0">8</tspan></text><g class="cls-12"><path class="cls-4" d="M713.26,456.19c0,9.43-7.64,17.07-17.07,17.07s-17.07-7.64-17.07-17.07,7.64-17.07,17.07-17.07,17.07,7.64,17.07,17.07"></path></g><text class="cls-5" transform="translate(689.75 464.29)"><tspan x="0" y="0">9</tspan></text><g class="cls-19"><path class="cls-4" d="M569.2,428.97c0,9.43-7.64,17.07-17.07,17.07s-17.07-7.64-17.07-17.07,7.64-17.07,17.07-17.07,17.07,7.64,17.07,17.07"></path></g><text class="cls-5" transform="translate(538.96 437.06)"><tspan x="0" y="0">10</tspan></text><g class="cls-17"><path class="cls-4" d="M473.33,496.58c0,9.43-7.64,17.07-17.07,17.07s-17.07-7.64-17.07-17.07,7.64-17.07,17.07-17.07,17.07,7.64,17.07,17.07"></path></g><text class="cls-5" transform="translate(443.08 504.68)"><tspan x="0" y="0">11</tspan></text><g class="cls-18"><path class="cls-4" d="M78.78,595.08c0,9.43-7.64,17.07-17.07,17.07s-17.07-7.64-17.07-17.07,7.64-17.07,17.07-17.07,17.07,7.64,17.07,17.07"></path></g><text class="cls-5" transform="translate(48.54 603.17)"><tspan x="0" y="0">12</tspan></text><rect class="cls-6" x="756.87" y="60.57" width="3.55" height="56.44" transform="translate(-5.08 101.19) rotate(-7.61)"></rect><g class="cls-16"><path class="cls-33" d="M779.51,38.61h-49.62c-.06.06-.09.1-.15.16v42.85h49.77v-43.02Z"></path></g><text class="cls-9" transform="translate(737.08 69.66)"><tspan class="cls-35" x="0" y="0">i</tspan><tspan x="18.4" y="0">1</tspan></text><g class="cls-13"><path class="cls-7" d="M772.06-2.89h-42.18c-.05.05-.08.08-.13.14v36.13h42.31V-2.89Z"></path></g><text class="cls-8" transform="translate(739.94 26.78)"><tspan x="0" y="0">s</tspan></text><g class="cls-10"><rect class="cls-6" x="212.52" y="335.64" width="3.55" height="59.73" transform="translate(-208.85 386.96) rotate(-62.52)"></rect><path class="cls-33" d="M270.58,354.46h-49.64c-.06.06-.09.09-.15.15v38.83h49.79v-38.97Z"></path></g><text class="cls-9" transform="translate(226.2 383.22)"><tspan class="cls-35" x="0" y="0">i</tspan><tspan x="18.4" y="0">2</tspan></text><g class="cls-14"><rect class="cls-6" x="662.73" y="325.39" width="62.72" height="3.55" transform="translate(-73.18 337.21) rotate(-25.99)"></rect><path class="cls-33" d="M751.36,300.35h-53.52c-.06.07-.1.1-.16.17v43.86h53.68v-44.03Z"></path></g><text class="cls-9" transform="translate(704.95 331.4)"><tspan class="cls-35" x="0" y="0">i</tspan><tspan x="18.4" y="0">3</tspan></text><g class="cls-11"><line class="cls-32" x1="71.7" y1="457.17" x2="113.35" y2="467.26"></line><rect class="cls-6" x="90.75" y="440.79" width="3.55" height="42.85" transform="translate(-378.49 443.48) rotate(-76.4)"></rect><path class="cls-33" d="M81.89,438.46H28.15c-.06.06-.1.1-.16.16v42.6h53.9v-42.76Z"></path></g><text class="cls-9" transform="translate(41.73 468.85)"><tspan class="cls-34" x="0" y="0">f</tspan><tspan class="cls-30" x="18.86" y="0">l</tspan></text><g class="cls-20"><rect class="cls-31" x="32.28" y="452.72" width="4.29" height="28.51"></rect><rect x="32.28" y="457.47" width="4.29" height="4.75"></rect><rect x="32.28" y="466.97" width="4.29" height="4.75"></rect><rect x="32.28" y="476.47" width="4.29" height="4.75"></rect><rect class="cls-31" x="27.99" y="452.72" width="4.29" height="28.51"></rect><rect x="27.99" y="452.72" width="4.29" height="4.75"></rect><rect x="27.99" y="462.22" width="4.29" height="4.75"></rect><rect x="27.99" y="471.72" width="4.29" height="4.75"></rect><rect class="cls-31" x="32.28" y="438.46" width="4.29" height="14.25"></rect><rect x="32.28" y="438.46" width="4.29" height="4.75"></rect><rect x="32.28" y="447.96" width="4.29" height="4.75"></rect><rect class="cls-31" x="27.99" y="438.46" width="4.29" height="14.25"></rect><rect x="27.99" y="443.21" width="4.29" height="4.75"></rect></g></g></g></svg>