<svg xmlns="http://www.w3.org/2000/svg" xmlns:xlink="http://www.w3.org/1999/xlink" id="_03-USA" viewBox="0 0 1080 577.7"><defs><style>.cls-1,.cls-2,.cls-3{fill:none;}.cls-2{stroke:#a0a0a0;stroke-width:10px;}.cls-2,.cls-3{stroke-miterlimit:10;}.cls-4{font-size:24.1px;}.cls-4,.cls-5{font-family:MGPDisplayVF-Medium, 'MGP Display VF';font-variation-settings:'wght' 500, 'wdth' 100;font-weight:500;}.cls-4,.cls-6{fill:#ededed;}.cls-7{fill:#444;}.cls-8{fill:#e6e6e6;}.cls-3{stroke:#606060;stroke-width:7px;}.cls-9{fill:#f6f6f6;}.cls-10{fill:#c6c6c6;font-family:MGPText-Bold, 'MGP Text';font-size:25px;font-weight:700;}.cls-11{clip-path:url(#clippath-17);}.cls-12{clip-path:url(#clippath-19);}.cls-13{clip-path:url(#clippath-11);}.cls-14{clip-path:url(#clippath-16);}.cls-15{clip-path:url(#clippath-18);}.cls-16{clip-path:url(#clippath-10);}.cls-17{clip-path:url(#clippath-15);}.cls-18{clip-path:url(#clippath-13);}.cls-19{clip-path:url(#clippath-14);}.cls-20{clip-path:url(#clippath-12);}.cls-21{clip-path:url(#clippath-27);}.cls-22{clip-path:url(#clippath-26);}.cls-23{clip-path:url(#clippath-20);}.cls-24{clip-path:url(#clippath-21);}.cls-25{clip-path:url(#clippath-22);}.cls-26{clip-path:url(#clippath-23);}.cls-27{clip-path:url(#clippath-24);}.cls-28{clip-path:url(#clippath-25);}.cls-29{clip-path:url(#clippath-1);}.cls-30{clip-path:url(#clippath-3);}.cls-31{clip-path:url(#clippath-4);}.cls-32{clip-path:url(#clippath-2);}.cls-33{clip-path:url(#clippath-7);}.cls-34{clip-path:url(#clippath-6);}.cls-35{clip-path:url(#clippath-9);}.cls-36{clip-path:url(#clippath-8);}.cls-37{clip-path:url(#clippath-5);}.cls-5{fill:#323232;font-size:29.86px;}.cls-38{fill:#fafafa;}.cls-39{fill:red;}.cls-40{letter-spacing:.03em;}.cls-41{letter-spacing:.02em;}.cls-42{clip-path:url(#clippath);}</style><clipPath id="clippath"><rect class="cls-1" y="-250.59" width="1080" height="1080"></rect></clipPath><clipPath id="clippath-1"><rect class="cls-1" y="-250.59" width="1080" height="1080"></rect></clipPath><clipPath id="clippath-2"><rect class="cls-1" y="-250.59" width="1080" height="1080"></rect></clipPath><clipPath id="clippath-3"><rect class="cls-1" y="-250.59" width="1080" height="1080"></rect></clipPath><clipPath id="clippath-4"><rect class="cls-1" y="-250.59" width="1080" height="1080"></rect></clipPath><clipPath id="clippath-5"><rect class="cls-1" y="-250.59" width="1080" height="1080"></rect></clipPath><clipPath id="clippath-6"><rect class="cls-1" y="-250.59" width="1080" height="1080"></rect></clipPath><clipPath id="clippath-7"><rect class="cls-1" y="-250.59" width="1080" height="1080"></rect></clipPath><clipPath id="clippath-8"><rect class="cls-1" y="-250.59" width="1080" height="1080"></rect></clipPath><clipPath id="clippath-9"><rect class="cls-1" y="-250.59" width="1080" height="1080"></rect></clipPath><clipPath id="clippath-10"><rect class="cls-1" y="-250.59" width="1080" height="1080"></rect></clipPath><clipPath id="clippath-11"><rect class="cls-1" y="-250.59" width="1080" height="1080"></rect></clipPath><clipPath id="clippath-12"><rect class="cls-1" y="-250.59" width="1080" height="1080"></rect></clipPath><clipPath id="clippath-13"><rect class="cls-1" y="-250.59" width="1080" height="1080"></rect></clipPath><clipPath id="clippath-14"><rect class="cls-1" y="-250.59" width="1080" height="1080"></rect></clipPath><clipPath id="clippath-15"><rect class="cls-1" y="-250.59" width="1080" height="1080"></rect></clipPath><clipPath id="clippath-16"><rect class="cls-1" y="-250.59" width="1080" height="1080"></rect></clipPath><clipPath id="clippath-17"><rect class="cls-1" y="-250.59" width="1080" height="1080"></rect></clipPath><clipPath id="clippath-18"><rect class="cls-1" y="-250.59" width="1080" height="1080"></rect></clipPath><clipPath id="clippath-19"><rect class="cls-1" y="-250.59" width="1080" height="1080"></rect></clipPath><clipPath id="clippath-20"><rect class="cls-1" y="-250.59" width="1080" height="1080"></rect></clipPath><clipPath id="clippath-21"><rect class="cls-1" y="-250.59" width="1080" height="1080"></rect></clipPath><clipPath id="clippath-22"><rect class="cls-1" y="-250.59" width="1080" height="1080"></rect></clipPath><clipPath id="clippath-23"><rect class="cls-1" y="-250.59" width="1080" height="1080"></rect></clipPath><clipPath id="clippath-24"><rect class="cls-1" y="-250.59" width="1080" height="1080"></rect></clipPath><clipPath id="clippath-25"><rect class="cls-1" y="-250.59" width="1080" height="1080"></rect></clipPath><clipPath id="clippath-26"><rect class="cls-1" y="-250.59" width="1080" height="1080"></rect></clipPath><clipPath id="clippath-27"><rect class="cls-1" y="-250.59" width="1080" height="1080"></rect></clipPath></defs><g id="_03-USA-2"><g class="cls-42"><g class="cls-29"><path class="cls-3" d="M445.3,188.95c6.06,10.05,43.95,42.8,41.29,53.44-3.82,15.28-38.99,25.37-54.85,20.9-18.12-5.11-21.34-48.81-27.11-61.54"></path></g><g class="cls-32"><path class="cls-2" d="M135.02,347.41c-20.68-16.79-39.17-31.86-42.87-34.82-18.09-14.43-3.23-21.31,7.86-26.41,39.41-18.15,96.06-41.32,99.78-42.79,2.15-.85,18.82-9.57,28.49,5.36,8.75,13.13,36.15,50.8,50.65,70.64,9.87,13.51,24.31,23.11,40.7,26.44,13.81,2.8,30.62,2.02,47.15-9.33,38.57-26.47,43.86-47.64,31.76-71.84-11.55-23.09-34.11-62.71-36.15-66.29-.11-.2-.21-.4-.29-.61-1.06-2.83-9.5-17.89,21.14-12.84,18.7,3.08,32.5,35.72,36.16,45.99,4.64,13,26.92,18.14,44.94,10.41,14.45-6.2.4-21.71-13.7-42.33-14.55-21.28-29.94-40.39-32.4-45.64-4.24-9.03-2.59-14.87,22.49-16.91,64.33-5.25,199.43-15.68,296.71-37.9,142.26-32.49,204.79-51.53,241.7-62.01,36.45-10.35,22.16,9.84,6.12,29.17-8.45,10.18-74.01,87.01-101.24,120.29-9.35,11.43-14.09,8.34-56.43,17.42-42.35,9.07-48.23,14.21-54.84,1.41-7.54-14.62-25.73-28.73-45.21-10.83-23.18,21.29-37.48,48.82-65.34,34.54-31.29-16.03-45.13-31.8-76.13-14.55-25.51,14.19-29.42,28.52-30.79,42.82-2.12,22-7.54,34.45-34.45,42.63-25.16,7.65-24.64,34.52-35.23,48.14-10.59,13.61-46.99,30.79-73.46,47.15-16.12,9.96-38.81,22.28-34.79,58.23,1.51,13.53,19.66,65.79,19.66,65.79,0,0,15.94,50.49-40.91,4.84-15.58-12.51-141.35-113.54-178.71-142.02-4.13-3.15-24.48-19.63-42.39-34.17Z"></path></g><line class="cls-6" x1="116.84" y1="369.31" x2="143.8" y2="336.83"></line><rect class="cls-8" x="109.22" y="351.32" width="42.2" height="3.5" transform="translate(-224.63 227.95) rotate(-50.32)"></rect><g class="cls-30"><path class="cls-39" d="M131.83,363.5h-52.94c-.06.06-.1.1-.16.16v41.96h53.09v-42.12Z"></path></g><text class="cls-4" transform="translate(92.26 393.44)"><tspan class="cls-40" x="0" y="0">f</tspan><tspan x="18.58" y="0">l</tspan></text><g class="cls-31"><rect class="cls-38" x="82.96" y="377.54" width="4.22" height="28.08"></rect><rect x="82.96" y="382.22" width="4.22" height="4.68"></rect><rect x="82.96" y="391.58" width="4.22" height="4.68"></rect><rect x="82.96" y="400.94" width="4.22" height="4.68"></rect><rect class="cls-38" x="78.74" y="377.54" width="4.22" height="28.08"></rect><rect x="78.74" y="377.54" width="4.22" height="4.68"></rect><rect x="78.74" y="386.9" width="4.22" height="4.68"></rect><rect x="78.74" y="396.26" width="4.22" height="4.68"></rect><rect class="cls-38" x="82.96" y="363.5" width="4.22" height="14.04"></rect><rect x="82.96" y="363.5" width="4.22" height="4.68"></rect><rect x="82.96" y="372.86" width="4.22" height="4.68"></rect><rect class="cls-38" x="78.74" y="363.5" width="4.22" height="14.04"></rect><rect x="78.74" y="368.18" width="4.22" height="4.68"></rect><polygon class="cls-8" points="418.04 262.43 419.33 265.68 342.59 297.02 341.29 293.77 418.04 262.43"></polygon><path class="cls-39" d="M345.88,271.9h-52.72c-.06.06-.1.1-.16.16v43.21h52.88v-43.37Z"></path></g><text class="cls-4" transform="translate(300.17 302.49)"><tspan class="cls-41" x="0" y="0">i</tspan><tspan x="18.12" y="0">3</tspan></text><g class="cls-37"><polygon class="cls-8" points="654.01 208.38 620.06 276.15 617.15 274.08 651.1 206.31 654.01 208.38"></polygon><path class="cls-39" d="M647.48,269.44h-48.87c-.06.06-.09.1-.15.16v42.21h49.02v-42.37Z"></path></g><text class="cls-4" transform="translate(605.68 300.03)"><tspan class="cls-41" x="0" y="0">i</tspan><tspan x="18.12" y="0">1</tspan></text><g class="cls-34"><rect class="cls-8" x="836.66" y="29.43" width="3.5" height="58.84" transform="translate(5.77 173.32) rotate(-11.84)"></rect><path class="cls-39" d="M860.1,12.38h-48.89c-.06.06-.09.09-.15.15v38.24h49.04V12.38Z"></path></g><text class="cls-4" transform="translate(816.39 40.71)"><tspan class="cls-41" x="0" y="0">i</tspan><tspan x="18.12" y="0">2</tspan></text><g class="cls-33"><rect class="cls-6" x="636.9" y="82.68" width="3.5" height="45.36" transform="translate(-8.09 131.79) rotate(-11.71)"></rect><path class="cls-9" d="M656.45,53.57h-41.55c-.05.05-.08.08-.12.14v35.59h41.67v-35.72Z"></path></g><text class="cls-5" transform="translate(624.81 82.8)"><tspan x="0" y="0">s</tspan></text><g class="cls-36"><path class="cls-7" d="M439.26,560.09c0,9.33-7.56,16.89-16.89,16.89s-16.89-7.56-16.89-16.89,7.56-16.89,16.89-16.89,16.89,7.56,16.89,16.89"></path></g><text class="cls-10" transform="translate(416 568.1)"><tspan x="0" y="0">1</tspan></text><g class="cls-35"><path class="cls-7" d="M426.35,438.71c0,9.33-7.56,16.89-16.89,16.89s-16.89-7.56-16.89-16.89,7.56-16.89,16.89-16.89,16.89,7.56,16.89,16.89"></path></g><text class="cls-10" transform="translate(403.09 446.72)"><tspan x="0" y="0">2</tspan></text><g class="cls-16"><path class="cls-7" d="M521.82,373.87c0,9.33-7.56,16.89-16.89,16.89s-16.89-7.56-16.89-16.89,7.56-16.89,16.89-16.89,16.89,7.56,16.89,16.89"></path></g><text class="cls-10" transform="translate(498.56 381.87)"><tspan x="0" y="0">3</tspan></text><g class="cls-13"><path class="cls-7" d="M545.71,331.11c0,9.33-7.56,16.89-16.89,16.89s-16.89-7.56-16.89-16.89,7.56-16.89,16.89-16.89,16.89,7.56,16.89,16.89"></path></g><text class="cls-10" transform="translate(522.45 339.12)"><tspan x="0" y="0">4</tspan></text><g class="cls-20"><path class="cls-7" d="M583.24,310.47c0,9.33-7.56,16.89-16.89,16.89s-16.89-7.56-16.89-16.89,7.56-16.89,16.89-16.89,16.89,7.56,16.89,16.89"></path></g><text class="cls-10" transform="translate(559.98 318.48)"><tspan x="0" y="0">5</tspan></text><g class="cls-18"><path class="cls-7" d="M614.77,244.32c0,9.33-7.56,16.89-16.89,16.89s-16.89-7.56-16.89-16.89,7.56-16.89,16.89-16.89,16.89,7.56,16.89,16.89"></path></g><text class="cls-10" transform="translate(591.51 252.33)"><tspan x="0" y="0">6</tspan></text><g class="cls-19"><path class="cls-7" d="M700.42,264.56c0,9.33-7.56,16.89-16.89,16.89s-16.89-7.56-16.89-16.89,7.56-16.89,16.89-16.89,16.89,7.56,16.89,16.89"></path></g><text class="cls-10" transform="translate(677.16 272.57)"><tspan x="0" y="0">7</tspan></text><g class="cls-17"><path class="cls-7" d="M762.45,221.38c0,9.33-7.56,16.89-16.89,16.89s-16.89-7.56-16.89-16.89,7.56-16.89,16.89-16.89,16.89,7.56,16.89,16.89"></path></g><text class="cls-10" transform="translate(739.19 229.39)"><tspan x="0" y="0">8</tspan></text><g class="cls-14"><path class="cls-7" d="M797.3,244.32c0,9.33-7.56,16.89-16.89,16.89s-16.89-7.56-16.89-16.89,7.56-16.89,16.89-16.89,16.89,7.56,16.89,16.89"></path></g><text class="cls-10" transform="translate(774.04 252.33)"><tspan x="0" y="0">9</tspan></text><g class="cls-11"><path class="cls-7" d="M918.05,214.82c0,9.33-7.56,16.89-16.89,16.89s-16.89-7.56-16.89-16.89,7.56-16.89,16.89-16.89,16.89,7.56,16.89,16.89"></path></g><text class="cls-10" transform="translate(888.13 222.83)"><tspan x="0" y="0">10</tspan></text><g class="cls-15"><path class="cls-7" d="M1046.09,18.73c0,9.33-7.56,16.89-16.89,16.89s-16.89-7.56-16.89-16.89,7.56-16.89,16.89-16.89,16.89,7.56,16.89,16.89"></path></g><text class="cls-10" transform="translate(1016.16 26.74)"><tspan x="0" y="0">11</tspan></text><g class="cls-12"><path class="cls-7" d="M411.06,120.92c0,9.33-7.56,16.89-16.89,16.89s-16.89-7.56-16.89-16.89,7.56-16.89,16.89-16.89,16.89,7.56,16.89,16.89"></path></g><text class="cls-10" transform="translate(381.13 128.92)"><tspan x="0" y="0">12</tspan></text><g class="cls-23"><path class="cls-7" d="M528.5,247.67c0,9.33-7.56,16.89-16.89,16.89s-16.89-7.56-16.89-16.89,7.56-16.89,16.89-16.89,16.89,7.56,16.89,16.89"></path></g><text class="cls-10" transform="translate(498.58 255.68)"><tspan x="0" y="0">13</tspan></text><g class="cls-24"><path class="cls-7" d="M452.87,289.23c0,9.33-7.56,16.89-16.89,16.89s-16.89-7.56-16.89-16.89,7.56-16.89,16.89-16.89,16.89,7.56,16.89,16.89"></path></g><text class="cls-10" transform="translate(422.95 297.23)"><tspan x="0" y="0">14</tspan></text><g class="cls-25"><path class="cls-7" d="M379.65,156.29c0,9.33-7.56,16.89-16.89,16.89s-16.89-7.56-16.89-16.89,7.56-16.89,16.89-16.89,16.89,7.56,16.89,16.89"></path></g><text class="cls-10" transform="translate(349.73 164.3)"><tspan x="0" y="0">15</tspan></text><g class="cls-26"><path class="cls-7" d="M424.15,345.7c0,9.33-7.56,16.89-16.89,16.89s-16.89-7.56-16.89-16.89,7.56-16.89,16.89-16.89,16.89,7.56,16.89,16.89"></path></g><text class="cls-10" transform="translate(394.22 353.71)"><tspan x="0" y="0">17</tspan></text><g class="cls-27"><path class="cls-7" d="M315.02,367.84c0,9.33-7.56,16.89-16.89,16.89s-16.89-7.56-16.89-16.89,7.56-16.89,16.89-16.89,16.89,7.56,16.89,16.89"></path></g><text class="cls-10" transform="translate(285.1 375.85)"><tspan x="0" y="0">18</tspan></text><g class="cls-28"><path class="cls-7" d="M236.2,208.37c0,9.33-7.56,16.89-16.89,16.89s-16.89-7.56-16.89-16.89,7.56-16.89,16.89-16.89,16.89,7.56,16.89,16.89"></path></g><text class="cls-10" transform="translate(206.28 216.38)"><tspan x="0" y="0">19</tspan></text><g class="cls-22"><path class="cls-7" d="M67.69,299.51c0,9.33-7.56,16.89-16.89,16.89s-16.89-7.56-16.89-16.89,7.56-16.89,16.89-16.89,16.89,7.56,16.89,16.89"></path></g><text class="cls-10" transform="translate(37.76 307.52)"><tspan x="0" y="0">20</tspan></text><g class="cls-21"><path class="cls-7" d="M385.53,278.51c0,9.33-7.56,16.89-16.89,16.89s-16.89-7.56-16.89-16.89,7.56-16.89,16.89-16.89,16.89,7.56,16.89,16.89"></path></g><text class="cls-10" transform="translate(355.6 286.51)"><tspan x="0" y="0">16</tspan></text></g></g></svg>